0
SECTION
2
HEADER
9
$INSUNITS
70
4
9
$ACADVER
1
AC1014
9
$HANDSEED
5
FFFF
0
ENDSEC
0
SECTION
2
TABLES
0
TABLE
2
VPORT
5
8
100
AcDbSymbolTable
0
ENDTAB
0
TABLE
2
LTYPE
5
5
100
AcDbSymbolTable
0
LTYPE
5
14
100
AcDbSymbolTableRecord
100
AcDbLinetypeTableRecord
2
BYBLOCK
70
0
0
LTYPE
5
15
100
AcDbSymbolTableRecord
100
AcDbLinetypeTableRecord
2
BYLAYER
70
0
0
ENDTAB
0
TABLE
2
LAYER
5
2
100
AcDbSymbolTable
70
2
0
LAYER
5
50
100
AcDbSymbolTableRecord
100
AcDbLayerTableRecord
2
0
70
0
6
CONTINUOUS
0
ENDTAB
0
TABLE
2
STYLE
5
3
100
AcDbSymbolTable
70
1
0
STYLE
5
11
100
AcDbSymbolTableRecord
100
AcDbTextStyleTableRecord
2
STANDARD
70
0
0
ENDTAB
0
TABLE
2
VIEW
5
6
100
AcDbSymbolTable
70
0
0
ENDTAB
0
TABLE
2
UCS
5
7
100
AcDbSymbolTable
70
0
0
ENDTAB
0
TABLE
2
APPID
5
9
100
AcDbSymbolTable
70
2
0
APPID
5
12
100
AcDbSymbolTableRecord
100
AcDbRegAppTableRecord
2
ACAD
70
0
0
ENDTAB
0
TABLE
2
DIMSTYLE
5
A
100
AcDbSymbolTable
70
1
0
ENDTAB
0
TABLE
2
BLOCK_RECORD
5
1
100
AcDbSymbolTable
70
1
0
BLOCK_RECORD
5
1F
100
AcDbSymbolTableRecord
100
AcDbBlockTableRecord
2
*MODEL_SPACE
0
BLOCK_RECORD
5
1B
100
AcDbSymbolTableRecord
100
AcDbBlockTableRecord
2
*PAPER_SPACE
0
ENDTAB
0
ENDSEC
0
SECTION
2
BLOCKS
0
BLOCK
5
20
100
AcDbEntity
100
AcDbBlockBegin
2
*MODEL_SPACE
0
ENDBLK
5
21
100
AcDbEntity
100
AcDbBlockEnd
0
BLOCK
5
1C
100
AcDbEntity
100
AcDbBlockBegin
2
*PAPER_SPACE
0
ENDBLK
5
1D
100
AcDbEntity
100
AcDbBlockEnd
0
ENDSEC
0
SECTION
2
ENTITIES
0
LWPOLYLINE
5
100
100
AcDbEntity
8
0
100
AcDbPolyline
90
8
70
1
43
0.0
10
353.80699999999996
20
-31.028500000000001
42
-0.41421356237309503
10
354.30699999999996
20
-30.528500000000001
10
367.30700000000002
20
-30.52850000000003
42
-0.41421356237309503
10
367.80699999999996
20
-31.028500000000001
10
367.80699999999996
20
-44.028500000000001
42
-0.41421356237309503
10
367.30700000000002
20
-44.528499999999994
10
354.30699999999996
20
-44.528499999999973
42
-0.41421356237309503
10
353.80699999999996
20
-44.028500000000001
0
LWPOLYLINE
5
101
100
AcDbEntity
8
0
100
AcDbPolyline
90
8
70
1
43
0.0
10
135.613
20
-30.528500000000001
10
148.613
20
-30.528499999999994
42
-0.41421356237309503
10
149.113
20
-31.028500000000001
10
149.113
20
-44.028500000000001
42
-0.41421356237309503
10
148.613
20
-44.528500000000008
10
135.613
20
-44.528500000000008
42
-0.41421356237309503
10
135.113
20
-44.028500000000001
10
135.11300000000003
20
-31.028500000000001
42
-0.41421356237309503
0
LWPOLYLINE
5
102
100
AcDbEntity
8
0
100
AcDbPolyline
90
8
70
1
43
0.0
10
389.24000000000007
20
-11.788
42
-0.41421356237309503
10
389.74000000000001
20
-11.288
10
402.74000000000001
20
-11.288000000000029
42
-0.41421356237309503
10
403.24000000000001
20
-11.788
10
403.24000000000001
20
-24.788
42
-0.41421356237309503
10
402.74000000000001
20
-25.288
10
389.74000000000001
20
-25.287999999999972
42
-0.41421356237309503
10
389.24000000000007
20
-24.788
0
LWPOLYLINE
5
103
100
AcDbEntity
8
0
100
AcDbPolyline
90
8
70
1
43
0.0
10
378.92750000000001
20
-11.288000000000029
42
-0.41421356237309503
10
379.42749999999995
20
-11.788
10
379.42749999999995
20
-24.788
42
-0.41421356237309503
10
378.92750000000001
20
-25.288
10
365.92750000000001
20
-25.287999999999972
42
-0.41421356237309503
10
365.42750000000007
20
-24.788
10
365.42750000000007
20
-11.788
42
-0.41421356237309503
10
365.92750000000001
20
-11.288
0
LWPOLYLINE
5
104
100
AcDbEntity
8
0
100
AcDbPolyline
90
8
70
1
43
0.0
10
172.92550000000003
20
-31.028500000000001
10
172.92550000000003
20
-44.028500000000001
42
-0.41421356237309503
10
172.4255
20
-44.528499999999994
10
159.4255
20
-44.528500000000008
42
-0.41421356237309503
10
158.9255
20
-44.028500000000001
10
158.9255
20
-31.028500000000001
42
-0.41421356237309503
10
159.4255
20
-30.528500000000001
10
172.4255
20
-30.528499999999994
42
-0.41421356237309503
0
LWPOLYLINE
5
105
100
AcDbEntity
8
0
100
AcDbPolyline
90
8
70
1
43
0.0
10
170.33000000000001
20
-25.288000000000004
10
157.33000000000001
20
-25.288000000000007
42
-0.41421356237309503
10
156.83000000000001
20
-24.788
10
156.83000000000001
20
-11.788
42
-0.41421356237309503
10
157.33000000000001
20
-11.288
10
170.33000000000001
20
-11.287999999999993
42
-0.41421356237309503
10
170.83000000000001
20
-11.788
10
170.83000000000001
20
-24.788
42
-0.41421356237309503
0
LWPOLYLINE
5
106
100
AcDbEntity
8
0
100
AcDbPolyline
90
8
70
1
43
0.0
10
151.78
20
-11.788
10
151.78
20
-24.788
42
-0.41421356237309503
10
151.28
20
-25.288
10
138.28
20
-25.288000000000007
42
-0.41421356237309503
10
137.78
20
-24.788
10
137.78
20
-11.788
42
-0.41421356237309503
10
138.28
20
-11.288
10
151.28
20
-11.287999999999993
42
-0.41421356237309503
0
LWPOLYLINE
5
107
100
AcDbEntity
8
0
100
AcDbPolyline
90
8
70
1
43
0.0
10
346.37750000000005
20
-24.788
10
346.37750000000005
20
-11.788
42
-0.41421356237309503
10
346.8775
20
-11.288
10
359.8775
20
-11.288000000000029
42
-0.41421356237309503
10
360.37749999999994
20
-11.788
10
360.37749999999994
20
-24.788
42
-0.41421356237309503
10
359.8775
20
-25.288000000000004
10
346.8775
20
-25.287999999999972
42
-0.41421356237309503
0
LWPOLYLINE
5
108
100
AcDbEntity
8
0
100
AcDbPolyline
90
8
70
1
43
0.0
10
365.99900000000002
20
-50.269000000000005
42
-0.41421356237309503
10
366.49900000000002
20
-49.769000000000005
10
379.49900000000008
20
-49.769000000000034
42
-0.41421356237309503
10
379.99900000000002
20
-50.269000000000005
10
379.99900000000002
20
-63.269000000000005
42
-0.41421356237309503
10
379.49900000000008
20
-63.768999999999998
10
366.49900000000002
20
-63.768999999999977
42
-0.41421356237309503
10
365.99900000000002
20
-63.269000000000005
0
LWPOLYLINE
5
109
100
AcDbEntity
8
0
100
AcDbPolyline
90
8
70
1
43
0.0
10
165.59300000000002
20
-50.269000000000005
42
-0.41421356237309503
10
166.09300000000002
20
-49.769000000000005
10
179.09299999999999
20
-49.768999999999998
42
-0.41421356237309503
10
179.59299999999999
20
-50.269000000000005
10
179.59299999999999
20
-63.269000000000005
42
-0.41421356237309503
10
179.09299999999999
20
-63.768999999999998
10
166.09300000000002
20
-63.769000000000005
42
-0.41421356237309503
10
165.59300000000002
20
-63.269000000000005
0
LWPOLYLINE
5
110
100
AcDbEntity
8
0
100
AcDbPolyline
90
8
70
1
43
0.0
10
400.70125000000007
20
-45.52849999999998
42
-0.41421356237309503
10
400.20125000000007
20
-45.028500000000008
10
400.20125000000007
20
-31.028500000000001
42
-0.41421356237309503
10
400.70125000000007
20
-30.528500000000001
10
406.70125000000007
20
-30.52850000000003
42
-0.41421356237309503
10
407.20125000000002
20
-31.028500000000001
10
407.20125000000002
20
-45.028500000000008
42
-0.41421356237309503
10
406.70125000000007
20
-45.528500000000001
0
LWPOLYLINE
5
111
100
AcDbEntity
8
0
100
AcDbPolyline
90
8
70
1
43
0.0
10
137.518
20
-63.769000000000005
42
-0.41421356237309503
10
137.018
20
-63.269000000000005
10
137.01800000000003
20
-50.269000000000005
42
-0.41421356237309503
10
137.518
20
-49.769000000000005
10
150.518
20
-49.768999999999998
42
-0.41421356237309503
10
151.018
20
-50.269000000000005
10
151.018
20
-63.269000000000005
42
-0.41421356237309503
10
150.518
20
-63.768999999999998
0
LWPOLYLINE
5
112
100
AcDbEntity
8
0
100
AcDbPolyline
90
8
70
1
43
0.0
10
376.82524999999998
20
-30.528500000000001
10
382.82524999999998
20
-30.52850000000003
42
-0.41421356237309503
10
383.32524999999998
20
-31.028500000000001
10
383.32524999999998
20
-45.028500000000008
42
-0.41421356237309503
10
382.82524999999998
20
-45.528500000000001
10
376.82524999999998
20
-45.52849999999998
42
-0.41421356237309503
10
376.32524999999998
20
-45.028500000000008
10
376.32524999999998
20
-31.028500000000001
42
-0.41421356237309503
0
LWPOLYLINE
5
113
100
AcDbEntity
8
0
100
AcDbPolyline
90
8
70
1
43
0.0
10
385.26325000000008
20
-44.528499999999973
42
-0.41421356237309503
10
384.76325000000008
20
-44.028500000000001
10
384.76325000000008
20
-31.028500000000001
42
-0.41421356237309503
10
385.26325000000008
20
-30.528500000000001
10
398.26325000000003
20
-30.52850000000003
42
-0.41421356237309503
10
398.76325000000003
20
-31.028500000000001
10
398.76325000000003
20
-44.028500000000001
42
-0.41421356237309503
10
398.26325000000003
20
-44.528500000000008
0
LWPOLYLINE
5
114
100
AcDbEntity
8
0
100
AcDbPolyline
90
8
70
1
43
0.0
10
405.69275000000005
20
-49.769000000000034
42
-0.41421356237309503
10
406.19275000000005
20
-50.269000000000005
10
406.19275000000005
20
-63.269000000000005
42
-0.41421356237309503
10
405.69275000000005
20
-63.768999999999998
10
392.69274999999999
20
-63.768999999999977
42
-0.41421356237309503
10
392.19275000000005
20
-63.269000000000005
10
392.19275000000005
20
-50.269000000000005
42
-0.41421356237309503
10
392.69274999999999
20
-49.769000000000005
0
LWPOLYLINE
5
115
100
AcDbEntity
8
0
100
AcDbPolyline
90
8
70
1
43
0.0
10
346.94900000000007
20
-50.269000000000005
42
-0.41421356237309503
10
347.44900000000001
20
-49.769000000000005
10
360.44900000000007
20
-49.769000000000034
42
-0.41421356237309503
10
360.94900000000001
20
-50.269000000000005
10
360.94900000000001
20
-63.269000000000005
42
-0.41421356237309503
10
360.44900000000007
20
-63.768999999999998
10
347.44900000000001
20
-63.768999999999977
42
-0.41421356237309503
10
346.94900000000007
20
-63.269000000000005
0
LWPOLYLINE
5
116
100
AcDbEntity
8
0
100
AcDbPolyline
90
8
70
1
43
0.0
10
158.95600000000002
20
-49.768999999999998
42
-0.41421356237309503
10
159.45600000000002
20
-50.269000000000005
10
159.45600000000002
20
-64.269000000000005
42
-0.41421356237309503
10
158.95600000000002
20
-64.768999999999991
10
152.95600000000002
20
-64.769000000000005
42
-0.41421356237309503
10
152.45600000000002
20
-64.269000000000005
10
152.45600000000002
20
-50.269000000000005
42
-0.41421356237309503
10
152.95600000000002
20
-49.769000000000005
0
LWPOLYLINE
5
117
100
AcDbEntity
8
0
100
AcDbPolyline
90
8
70
1
43
0.0
10
135.58000000000004
20
-64.269000000000005
42
-0.41421356237309503
10
135.08000000000004
20
-64.768999999999991
10
129.08000000000001
20
-64.769000000000005
42
-0.41421356237309503
10
128.58000000000001
20
-64.269000000000005
10
128.58000000000001
20
-50.269000000000005
42
-0.41421356237309503
10
129.08000000000001
20
-49.769000000000005
10
135.08000000000004
20
-49.768999999999998
42
-0.41421356237309503
10
135.58000000000004
20
-50.269000000000005
0
LWPOLYLINE
5
118
100
AcDbEntity
8
0
100
AcDbPolyline
90
8
70
1
43
0.0
10
371.54725000000008
20
-83.009499999999989
42
-0.41421356237309503
10
371.04725000000008
20
-82.509500000000017
10
371.04725000000008
20
-69.509500000000003
42
-0.41421356237309503
10
371.54725000000008
20
-69.009500000000003
10
384.54725000000002
20
-69.009500000000031
42
-0.41421356237309503
10
385.04725000000002
20
-69.509500000000003
10
385.04725000000008
20
-82.509500000000017
42
-0.41421356237309503
10
384.54725000000002
20
-83.009500000000003
0
LWPOLYLINE
5
119
100
AcDbEntity
8
0
100
AcDbPolyline
90
8
70
1
43
0.0
10
145.96975000000003
20
-82.509500000000017
42
-0.41421356237309503
10
145.46975
20
-83.009500000000017
10
132.46975
20
-83.009500000000017
42
-0.41421356237309503
10
131.96975000000003
20
-82.509500000000017
10
131.96975000000003
20
-69.509500000000003
42
-0.41421356237309503
10
132.46975
20
-69.009500000000003
10
145.46975
20
-69.009500000000003
42
-0.41421356237309503
10
145.96975000000003
20
-69.509500000000003
0
LWPOLYLINE
5
120
100
AcDbEntity
8
0
100
AcDbPolyline
90
8
70
1
43
0.0
10
408.85975000000002
20
-69.509500000000003
10
408.85975000000002
20
-82.509500000000017
42
-0.41421356237309503
10
408.35975000000008
20
-83.009500000000003
10
395.35975000000008
20
-83.009499999999989
42
-0.41421356237309503
10
394.85975000000008
20
-82.509500000000017
10
394.85975000000008
20
-69.509500000000003
42
-0.41421356237309503
10
395.35975000000008
20
-69.009500000000003
10
408.35975000000008
20
-69.009500000000031
42
-0.41421356237309503
0
LWPOLYLINE
5
121
100
AcDbEntity
8
0
100
AcDbPolyline
90
8
70
1
43
0.0
10
169.78225000000003
20
-69.509500000000003
10
169.78225000000003
20
-82.509500000000017
42
-0.41421356237309503
10
169.28225
20
-83.009500000000003
10
156.28225
20
-83.009500000000017
42
-0.41421356237309503
10
155.78225
20
-82.509500000000017
10
155.78225
20
-69.509500000000003
42
-0.41421356237309503
10
156.28225
20
-69.009500000000003
10
169.28225
20
-69.009500000000003
42
-0.41421356237309503
0
ARC
5
122
100
AcDbEntity
8
0
100
AcDbCircle
10
176.42163200000002
20
-24.243787000000001
30
0
40
0.50000000000000056
210
0
220
0
230
1
100
AcDbArc
50
171.99999999999952
51
262.00000000000244
0
LINE
5
123
100
AcDbEntity
8
0
100
AcDbLine
10
177.735749
20
-11.300716
30
0
11
175.92649800000001
21
-24.174201000000004
31
0
0
LINE
5
124
100
AcDbEntity
8
0
100
AcDbLine
10
198.66526000000005
20
-33.479380999999997
30
0
11
196.856009
21
-46.352865999999999
31
0
0
LINE
5
125
100
AcDbEntity
8
0
100
AcDbLine
10
248.44897500000002
20
-53.603784999999995
30
0
11
250.25822500000004
21
-40.7303
31
0
0
LINE
5
126
100
AcDbEntity
8
0
100
AcDbLine
10
191.17395400000004
20
-12.684419
30
0
11
178.30046899999999
21
-10.875167999999999
31
0
0
LINE
5
127
100
AcDbEntity
8
0
100
AcDbLine
10
230.96807100000004
20
-37.514332000000003
30
0
11
218.09458599999999
21
-35.705081
31
0
0
ARC
5
128
100
AcDbEntity
8
0
100
AcDbCircle
10
227.02432999999999
20
-31.355533000000001
30
0
40
0.49999999999999933
210
0
220
0
230
1
100
AcDbArc
50
262.00000000000244
51
351.99999999999955
0
LINE
5
129
100
AcDbEntity
8
0
100
AcDbLine
10
247.76777400000003
20
-20.638161
30
0
11
234.89428900000004
21
-18.828910999999998
31
0
0
ARC
5
130
100
AcDbEntity
8
0
100
AcDbCircle
10
235.08035599999999
20
-51.724947999999998
30
0
40
0.50000000000000056
210
0
220
0
230
1
100
AcDbArc
50
172
51
261.9999999999992
0
ARC
5
131
100
AcDbEntity
8
0
100
AcDbCircle
10
209.96897500000003
20
-15.8308
30
0
40
0.50000000000000022
210
0
220
0
230
1
100
AcDbArc
50
-8.0000000000000107
51
82.000000000002473
0
ARC
5
132
100
AcDbEntity
8
0
100
AcDbCircle
10
197.09548999999998
20
-14.021550000000001
30
0
40
0.49999999999999933
210
0
220
-0
230
1
100
AcDbArc
50
81.999999999999233
51
172
0
LINE
5
133
100
AcDbEntity
8
0
100
AcDbLine
10
189.79025100000001
20
-26.122624000000002
30
0
11
191.599501
21
-13.249139000000003
31
0
0
LINE
5
134
100
AcDbEntity
8
0
100
AcDbLine
10
195.21665300000001
20
-27.390169
30
0
11
208.09013800000002
21
-29.199418999999999
31
0
0
LINE
5
135
100
AcDbEntity
8
0
100
AcDbLine
10
196.600356
20
-13.951963000000003
30
0
11
194.79110600000001
21
-26.825448000000002
31
0
0
LINE
5
136
100
AcDbEntity
8
0
100
AcDbLine
10
210.719762
20
-48.301290000000002
30
0
11
212.52901300000002
21
-35.427804999999999
31
0
0
ARC
5
137
100
AcDbEntity
8
0
100
AcDbCircle
10
199.95032600000002
20
-52.897203000000005
30
0
40
0.50000000000000056
210
0
220
0
230
1
100
AcDbArc
50
-8.000000000000826
51
81.999999999999119
0
LINE
5
138
100
AcDbEntity
8
0
100
AcDbLine
10
185.19800499999999
20
-64.456570999999997
30
0
11
198.07148999999998
21
-66.265821000000003
31
0
0
LINE
5
139
100
AcDbEntity
8
0
100
AcDbLine
10
200.019913
20
-52.402069000000004
30
0
11
187.14642800000004
21
-50.592818000000008
31
0
0
LINE
5
140
100
AcDbEntity
8
0
100
AcDbLine
10
198.63621000000001
20
-65.840273999999994
30
0
11
200.44546
21
-52.966788999999999
31
0
0
ARC
5
141
100
AcDbEntity
8
0
100
AcDbCircle
10
195.28624000000002
20
-26.895035
30
0
40
0.50000000000000056
210
0
220
0
230
1
100
AcDbArc
50
172.00000000000003
51
261.9999999999992
0
ARC
5
142
100
AcDbEntity
8
0
100
AcDbCircle
10
189.29511700000003
20
-26.053038000000001
30
0
40
0.49999999999999933
210
0
220
0
230
1
100
AcDbArc
50
261.9999999999992
51
351.99999999999955
0
ARC
5
143
100
AcDbEntity
8
0
100
AcDbCircle
10
178.23088300000001
20
-11.370302000000001
30
0
40
0.49999999999999933
210
0
220
-0
230
1
100
AcDbArc
50
81.999999999999233
51
172.00000000000017
0
LINE
5
144
100
AcDbEntity
8
0
100
AcDbLine
10
249.83267799999999
20
-40.165579000000008
30
0
11
236.95919300000003
21
-38.356328999999995
31
0
0
ARC
5
145
100
AcDbEntity
8
0
100
AcDbCircle
10
208.15972400000004
20
-28.704284999999999
30
0
40
0.49999999999999933
210
0
220
0
230
1
100
AcDbArc
50
261.9999999999992
51
351.99999999999955
0
LINE
5
146
100
AcDbEntity
8
0
100
AcDbLine
10
179.80065200000001
20
-30.828134000000006
30
0
11
177.99140199999999
21
-43.701619000000001
31
0
0
LINE
5
147
100
AcDbEntity
8
0
100
AcDbLine
10
176.35204600000003
20
-24.738921000000001
30
0
11
189.22553100000002
21
-26.548172000000001
31
0
0
ARC
5
148
100
AcDbEntity
8
0
100
AcDbCircle
10
191.10436700000002
20
-13.179553000000002
30
0
40
0.50000000000000022
210
0
220
0
230
1
100
AcDbArc
50
-8.0000000000000107
51
82.000000000002473
0
LINE
5
149
100
AcDbEntity
8
0
100
AcDbLine
10
217.52986500000003
20
-36.130628999999999
30
0
11
215.72061500000001
21
-49.004114000000001
31
0
0
LINE
5
150
100
AcDbEntity
8
0
100
AcDbLine
10
186.58170800000005
20
-51.018366
30
0
11
184.772457
21
-63.891851000000003
31
0
0
ARC
5
151
100
AcDbEntity
8
0
100
AcDbCircle
10
216.21574900000002
20
-49.073700000000002
30
0
40
0.50000000000000056
210
0
220
0
230
1
100
AcDbArc
50
172
51
262.00000000000244
0
ARC
5
152
100
AcDbEntity
8
0
100
AcDbCircle
10
230.898484
20
-38.009465999999996
30
0
40
0.50000000000000056
210
0
220
0
230
1
100
AcDbArc
50
-7.9999999999996039
51
81.999999999999233
0
ARC
5
153
100
AcDbEntity
8
0
100
AcDbCircle
10
198.141076
20
-65.770686999999995
30
0
40
0.49999999999999933
210
0
220
0
230
1
100
AcDbArc
50
261.99999999999937
51
351.99999999999915
0
ARC
5
154
100
AcDbEntity
8
0
100
AcDbCircle
10
191.36002099999999
20
-45.580455000000001
30
0
40
0.49999999999999933
210
0
220
0
230
1
100
AcDbArc
50
262.00000000000256
51
351.99999999999915
0
LINE
5
155
100
AcDbEntity
8
0
100
AcDbLine
10
228.903167
20
-17.986914000000002
30
0
11
216.02968199999998
21
-16.177664
31
0
0
LINE
5
156
100
AcDbEntity
8
0
100
AcDbLine
10
193.23885799999999
20
-32.211837000000003
30
0
11
180.36537300000003
21
-30.402585999999999
31
0
0
LINE
5
157
100
AcDbEntity
8
0
100
AcDbLine
10
215.46496099999999
20
-16.603211000000002
30
0
11
213.655711
21
-29.476696000000004
31
0
0
ARC
5
158
100
AcDbEntity
8
0
100
AcDbCircle
10
236.88960600000001
20
-38.85146300000001
30
0
40
0.49999999999999933
210
0
220
-0
230
1
100
AcDbArc
50
81.999999999999361
51
171.99999999999918
0
ARC
5
159
100
AcDbEntity
8
0
100
AcDbCircle
10
193.16927100000001
20
-32.706971000000003
30
0
40
0.50000000000000056
210
0
220
0
230
1
100
AcDbArc
50
-8.0000000000000107
51
82.000000000002473
0
ARC
5
160
100
AcDbEntity
8
0
100
AcDbCircle
10
234.824703
20
-19.324045000000002
30
0
40
0.49999999999999933
210
0
220
-0
230
1
100
AcDbArc
50
82.000000000002473
51
172.00000000000037
0
ARC
5
161
100
AcDbEntity
8
0
100
AcDbCircle
10
212.03387900000001
20
-35.358218000000001
30
0
40
0.50000000000000056
210
0
220
0
230
1
100
AcDbArc
50
-8.0000000000004192
51
81.999999999999233
0
LINE
5
162
100
AcDbEntity
8
0
100
AcDbLine
10
204.06261200000003
20
-67.107818999999992
30
0
11
216.93609700000002
21
-68.917068999999998
31
0
0
ARC
5
163
100
AcDbEntity
8
0
100
AcDbCircle
10
249.76309100000003
20
-40.660713000000001
30
0
40
0.50000000000000056
210
0
220
0
230
1
100
AcDbArc
50
-8.0000000000000107
51
82.000000000002473
0
ARC
5
164
100
AcDbEntity
8
0
100
AcDbCircle
10
178.48653600000003
20
-43.771205000000002
30
0
40
0.50000000000000056
210
0
220
0
230
1
100
AcDbArc
50
172.0000000000004
51
261.9999999999992
0
LINE
5
165
100
AcDbEntity
8
0
100
AcDbLine
10
191.85515500000002
20
-45.650041999999999
30
0
11
193.66440500000004
21
-32.776557000000004
31
0
0
ARC
5
166
100
AcDbEntity
8
0
100
AcDbCircle
10
229.08923399999998
20
-50.882950999999998
30
0
40
0.49999999999999933
210
0
220
0
230
1
100
AcDbArc
50
262.00000000000244
51
352.0000000000004
0
LINE
5
167
100
AcDbEntity
8
0
100
AcDbLine
10
234.32956899999999
20
-19.254459000000001
30
0
11
232.520318
21
-32.127943000000002
31
0
0
ARC
5
168
100
AcDbEntity
8
0
100
AcDbCircle
10
210.224628
20
-48.23170300000001
30
0
40
0.49999999999999933
210
0
220
0
230
1
100
AcDbArc
50
261.9999999999992
51
351.99999999999994
0
LINE
5
169
100
AcDbEntity
8
0
100
AcDbLine
10
212.103465
20
-34.863084000000001
30
0
11
199.22998000000004
21
-33.053834000000002
31
0
0
LINE
5
170
100
AcDbEntity
8
0
100
AcDbLine
10
210.03856100000002
20
-15.335666000000002
30
0
11
197.165076
21
-13.526416000000001
31
0
0
ARC
5
171
100
AcDbEntity
8
0
100
AcDbCircle
10
214.15084500000006
20
-29.546283000000003
30
0
40
0.50000000000000056
210
0
220
0
230
1
100
AcDbArc
50
172
51
261.9999999999992
0
ARC
5
172
100
AcDbEntity
8
0
100
AcDbCircle
10
233.01545200000004
20
-32.19753
30
0
40
0.50000000000000056
210
0
220
0
230
1
100
AcDbArc
50
172
51
261.9999999999992
0
ARC
5
173
100
AcDbEntity
8
0
100
AcDbCircle
10
247.95384100000004
20
-53.534198000000004
30
0
40
0.49999999999999933
210
0
220
0
230
1
100
AcDbArc
50
261.9999999999992
51
351.99999999999994
0
LINE
5
174
100
AcDbEntity
8
0
100
AcDbLine
10
229.58436800000001
20
-50.952537000000007
30
0
11
231.39361800000003
21
-38.079052000000004
31
0
0
LINE
5
175
100
AcDbEntity
8
0
100
AcDbLine
10
236.39447200000004
20
-38.781876000000004
30
0
11
234.58522200000004
21
-51.655361000000006
31
0
0
ARC
5
176
100
AcDbEntity
8
0
100
AcDbCircle
10
205.94144900000003
20
-53.739199999999997
30
0
40
0.49999999999999933
210
0
220
-0
230
1
100
AcDbArc
50
81.999999999999119
51
172
0
ARC
5
177
100
AcDbEntity
8
0
100
AcDbCircle
10
185.26759099999998
20
-63.961436999999997
30
0
40
0.50000000000000056
210
0
220
0
230
1
100
AcDbArc
50
172
51
262.00000000000244
0
ARC
5
178
100
AcDbEntity
8
0
100
AcDbCircle
10
204.13219900000001
20
-66.612684999999999
30
0
40
0.50000000000000056
210
0
220
0
230
1
100
AcDbArc
50
172.0000000000008
51
261.99999999999937
0
ARC
5
179
100
AcDbEntity
8
0
100
AcDbCircle
10
228.83358000000001
20
-18.482048000000006
30
0
40
0.50000000000000022
210
0
220
0
230
1
100
AcDbArc
50
-7.9999999999996554
51
82.000000000002473
0
ARC
5
180
100
AcDbEntity
8
0
100
AcDbCircle
10
215.96009500000005
20
-16.672798
30
0
40
0.49999999999999933
210
0
220
-0
230
1
100
AcDbArc
50
82.000000000002473
51
172.00000000000085
0
ARC
5
181
100
AcDbEntity
8
0
100
AcDbCircle
10
218.81493399999999
20
-55.548450000000003
30
0
40
0.50000000000000056
210
0
220
0
230
1
100
AcDbArc
50
-8.0000000000000107
51
81.999999999999233
0
LINE
5
182
100
AcDbEntity
8
0
100
AcDbLine
10
246.38407100000001
20
-34.076366999999998
30
0
11
248.193321
21
-21.202882000000006
31
0
0
ARC
5
183
100
AcDbEntity
8
0
100
AcDbCircle
10
180.29578600000005
20
-30.89772
30
0
40
0.49999999999999933
210
0
220
-0
230
1
100
AcDbArc
50
82.000000000002473
51
172.0000000000004
0
ARC
5
184
100
AcDbEntity
8
0
100
AcDbCircle
10
247.69818700000002
20
-21.133295000000004
30
0
40
0.50000000000000056
210
0
220
0
230
1
100
AcDbArc
50
-8.0000000000000107
51
81.999999999999233
0
LINE
5
185
100
AcDbEntity
8
0
100
AcDbLine
10
235.01076900000001
20
-52.220082000000005
30
0
11
247.884254
21
-54.029331999999997
31
0
0
LINE
5
186
100
AcDbEntity
8
0
100
AcDbLine
10
232.94586600000002
20
-32.692664000000001
30
0
11
245.81935099999998
21
-34.501913999999999
31
0
0
LINE
5
187
100
AcDbEntity
8
0
100
AcDbLine
10
197.28155700000002
20
-46.917587000000005
30
0
11
210.15504199999998
21
-48.726836999999996
31
0
0
LINE
5
188
100
AcDbEntity
8
0
100
AcDbLine
10
208.65485800000002
20
-28.773871999999997
30
0
11
210.46410899999998
21
-15.900387
31
0
0
LINE
5
189
100
AcDbEntity
8
0
100
AcDbLine
10
178.41694899999999
20
-44.266339000000002
30
0
11
191.290434
21
-46.075589000000001
31
0
0
ARC
5
190
100
AcDbEntity
8
0
100
AcDbCircle
10
217.005683
20
-68.421934999999991
30
0
40
0.49999999999999933
210
0
220
0
230
1
100
AcDbArc
50
262.00000000000256
51
351.99999999999915
0
ARC
5
191
100
AcDbEntity
8
0
100
AcDbCircle
10
187.076842
20
-51.087952000000001
30
0
40
0.49999999999999933
210
0
220
-0
230
1
100
AcDbArc
50
82.000000000002473
51
172
0
LINE
5
192
100
AcDbEntity
8
0
100
AcDbLine
10
214.08125800000005
20
-30.041416999999999
30
0
11
226.95474300000001
21
-31.850667000000001
31
0
0
ARC
5
193
100
AcDbEntity
8
0
100
AcDbCircle
10
245.888937
20
-34.006779999999999
30
0
40
0.49999999999999933
210
0
220
0
230
1
100
AcDbArc
50
261.9999999999992
51
351.99999999999994
0
ARC
5
194
100
AcDbEntity
8
0
100
AcDbCircle
10
218.02499900000001
20
-36.200215
30
0
40
0.49999999999999933
210
0
220
-0
230
1
100
AcDbArc
50
82.000000000002473
51
172
0
ARC
5
195
100
AcDbEntity
8
0
100
AcDbCircle
10
199.16039400000003
20
-33.548968000000002
30
0
40
0.49999999999999933
210
0
220
-0
230
1
100
AcDbArc
50
82.000000000002359
51
172
0
LINE
5
196
100
AcDbEntity
8
0
100
AcDbLine
10
216.146162
20
-49.56883400000001
30
0
11
229.01964700000005
21
-51.378084999999999
31
0
0
ARC
5
197
100
AcDbEntity
8
0
100
AcDbCircle
10
197.35114300000004
20
-46.422453000000004
30
0
40
0.50000000000000056
210
0
220
0
230
1
100
AcDbArc
50
172
51
261.99999999999937
0
LINE
5
198
100
AcDbEntity
8
0
100
AcDbLine
10
227.51946400000003
20
-31.425119000000002
30
0
11
229.32871400000005
21
-18.551635000000001
31
0
0
ARC
5
199
100
AcDbEntity
8
0
100
AcDbCircle
10
227.22441400000005
20
-90.105125999999998
30
0
40
0.49999999999999933
210
0
220
0
230
1
100
AcDbArc
50
261.99999999999937
51
352.00000000000085
0
LINE
5
200
100
AcDbEntity
8
0
100
AcDbLine
10
243.17552800000001
20
-58.972107999999999
30
0
11
241.36627700000003
21
-71.845593000000008
31
0
0
LINE
5
201
100
AcDbEntity
8
0
100
AcDbLine
10
227.71954800000003
20
-90.174712999999997
30
0
11
229.66797200000002
21
-76.310959999999994
31
0
0
LINE
5
202
100
AcDbEntity
8
0
100
AcDbLine
10
237.74912799999998
20
-57.704564000000005
30
0
11
224.87564300000003
21
-55.895313000000009
31
0
0
LINE
5
203
100
AcDbEntity
8
0
100
AcDbLine
10
251.36318900000003
20
-93.497609999999995
30
0
11
253.31161200000003
21
-79.633857000000006
31
0
0
ARC
5
204
100
AcDbEntity
8
0
100
AcDbCircle
10
243.67066200000005
20
-59.041695000000004
30
0
40
0.49999999999999933
210
0
220
-0
230
1
100
AcDbArc
50
82.000000000002586
51
171.9999999999996
0
LINE
5
205
100
AcDbEntity
8
0
100
AcDbLine
10
284.70909900000004
20
-33.300528
30
0
11
282.89984800000002
21
-20.427043000000001
31
0
0
LINE
5
206
100
AcDbEntity
8
0
100
AcDbLine
10
269.03609599999999
20
-22.375467
30
0
11
270.84534600000001
21
-35.248952000000003
31
0
0
LINE
5
207
100
AcDbEntity
8
0
100
AcDbLine
10
255.23003
20
-73.794017000000011
30
0
11
257.03927999999996
21
-60.920531999999994
31
0
0
ARC
5
208
100
AcDbEntity
8
0
100
AcDbCircle
10
229.17283800000001
20
-76.241373999999993
30
0
40
0.50000000000000056
210
0
220
0
230
1
100
AcDbArc
50
-8.000000000000826
51
82.000000000002359
0
ARC
5
209
100
AcDbEntity
8
0
100
AcDbCircle
10
211.99636000000001
20
-86.955135000000013
30
0
40
0.49999999999999933
210
0
220
0
230
1
100
AcDbArc
50
262.00000000000233
51
352.00000000000279
0
ARC
5
210
100
AcDbEntity
8
0
100
AcDbCircle
10
284.21396500000003
20
-33.370115000000013
30
0
40
0.49999999999999933
210
0
220
0
230
1
100
AcDbArc
50
-82.000000000005585
51
8.0000000000008491
0
ARC
5
211
100
AcDbEntity
8
0
100
AcDbCircle
10
288.39583700000003
20
-19.654633
30
0
40
0.49999999999999933
210
0
220
0
230
1
100
AcDbArc
50
97.999999999994316
51
188
0
LINE
5
212
100
AcDbEntity
8
0
100
AcDbLine
10
205.44631500000003
20
-53.669612999999998
30
0
11
203.63706500000001
21
-66.543098000000001
31
0
0
LINE
5
213
100
AcDbEntity
8
0
100
AcDbLine
10
218.88452000000001
20
-55.053316000000009
30
0
11
206.01103500000005
21
-53.244066000000004
31
0
0
ARC
5
214
100
AcDbEntity
8
0
100
AcDbCircle
10
244.92644600000003
20
-92.592984999999999
30
0
40
0.49999999999999933
210
0
220
0
230
1
100
AcDbArc
50
172.00000000000122
51
261.99999999999909
0
LINE
5
215
100
AcDbEntity
8
0
100
AcDbLine
10
217.50081699999998
20
-68.491522000000003
30
0
11
219.31006800000006
21
-55.618037000000001
31
0
0
LINE
5
216
100
AcDbEntity
8
0
100
AcDbLine
10
224.31092200000006
20
-56.320861000000008
30
0
11
222.50167200000004
21
-69.194345999999996
31
0
0
ARC
5
217
100
AcDbEntity
8
0
100
AcDbCircle
10
200.93212600000001
20
-72.272400000000005
30
0
40
0.49999999999999933
210
0
220
-0
230
1
100
AcDbArc
50
82.000000000002359
51
172.0000000000008
0
LINE
5
218
100
AcDbEntity
8
0
100
AcDbLine
10
236.36542500000002
20
-71.142769000000001
30
0
11
238.17467500000004
21
-58.269283999999999
31
0
0
LINE
5
219
100
AcDbEntity
8
0
100
AcDbLine
10
222.73609500000003
20
-75.336748
30
0
11
220.78767200000001
21
-89.200501000000003
31
0
0
ARC
5
220
100
AcDbEntity
8
0
100
AcDbCircle
10
340.80778500000002
20
-25.416372000000003
30
0
40
0.49999999999999933
210
0
220
0
230
1
100
AcDbArc
50
-82.000000000005699
51
8.0000000000009415
0
LINE
5
221
100
AcDbEntity
8
0
100
AcDbLine
10
252.886065
20
-79.069136
30
0
11
246.944456
21
-78.234098000000003
31
0
0
ARC
5
222
100
AcDbEntity
8
0
100
AcDbCircle
10
222.99680600000002
20
-69.263931999999997
30
0
40
0.50000000000000056
210
0
220
0
230
1
100
AcDbArc
50
171.99999999999918
51
262.00000000000256
0
ARC
5
223
100
AcDbEntity
8
0
100
AcDbCircle
10
244.46059600000001
20
-78.389927999999998
30
0
40
0.50000000000000056
210
0
220
0
230
1
100
AcDbArc
50
-8.000000000000826
51
81.999999999999119
0
ARC
5
224
100
AcDbEntity
8
0
100
AcDbCircle
10
303.07857200000001
20
-30.718867000000003
30
0
40
0.49999999999999933
210
0
220
0
230
1
100
AcDbArc
50
-81.999999999999233
51
8.0000000000000266
0
LINE
5
225
100
AcDbEntity
8
0
100
AcDbLine
10
231.09197700000004
20
-76.511091000000008
30
0
11
229.28272700000002
21
-89.384575999999996
31
0
0
ARC
5
226
100
AcDbEntity
8
0
100
AcDbCircle
10
199.12287500000002
20
-85.145885000000007
30
0
40
0.49999999999999933
210
0
220
0
230
1
100
AcDbArc
50
172.0000000000008
51
261.99999999999909
0
LINE
5
227
100
AcDbEntity
8
0
100
AcDbLine
10
327.43174099999999
20
-32.900796
30
0
11
314.55825600000003
21
-34.710046000000006
31
0
0
LINE
5
228
100
AcDbEntity
8
0
100
AcDbLine
10
200.43699200000003
20
-72.202813000000006
30
0
11
198.62774099999999
21
-85.076298000000008
31
0
0
ARC
5
229
100
AcDbEntity
8
0
100
AcDbCircle
10
254.73489599999999
20
-73.724430000000012
30
0
40
0.49999999999999933
210
0
220
0
230
1
100
AcDbArc
50
262.00000000000233
51
352.00000000000119
0
ARC
5
230
100
AcDbEntity
8
0
100
AcDbCircle
10
250.86805499999997
20
-93.42802300000001
30
0
40
0.49999999999999933
210
0
220
0
230
1
100
AcDbArc
50
261.99999999999909
51
352.00000000000085
0
LINE
5
231
100
AcDbEntity
8
0
100
AcDbLine
10
221.21321899999998
20
-89.765221999999994
30
0
11
227.15482800000001
21
-90.600261000000003
31
0
0
LINE
5
232
100
AcDbEntity
8
0
100
AcDbLine
10
297.64207299999998
20
-51.225045999999999
30
0
11
310.51555800000006
21
-49.415796000000007
31
0
0
ARC
5
233
100
AcDbEntity
8
0
100
AcDbCircle
10
338.99853400000006
20
-12.542887
30
0
40
0.49999999999996503
210
0
220
-0
230
1
100
AcDbArc
50
8.0000000000009415
51
98.000000000000753
0
LINE
5
234
100
AcDbEntity
8
0
100
AcDbLine
10
271.99641000000003
20
-74.066524000000001
30
0
11
284.86989500000004
21
-72.257273999999995
31
0
0
LINE
5
235
100
AcDbEntity
8
0
100
AcDbLine
10
199.05328900000001
20
-85.641019
30
0
11
211.92677400000005
21
-87.450268999999992
31
0
0
LINE
5
236
100
AcDbEntity
8
0
100
AcDbLine
10
229.70827400000005
20
-89.94929599999999
30
0
11
242.58175899999998
21
-91.758547000000007
31
0
0
ARC
5
237
100
AcDbEntity
8
0
100
AcDbCircle
10
301.26932200000005
20
-17.845382000000001
30
0
40
0.50000000000000022
210
0
220
-0
230
1
100
AcDbArc
50
8.0000000000000266
51
97.999999999994316
0
ARC
5
238
100
AcDbEntity
8
0
100
AcDbCircle
10
309.06969300000003
20
-29.876870000000004
30
0
40
0.50000000000000056
210
0
220
0
230
1
100
AcDbArc
50
188
51
278.00000000000074
0
LINE
5
239
100
AcDbEntity
8
0
100
AcDbLine
10
289.70252699999998
20
-38.203291000000007
30
0
11
276.82904200000002
21
-40.012540999999999
31
0
0
LINE
5
240
100
AcDbEntity
8
0
100
AcDbLine
10
316.50667999999996
20
-48.573799000000008
30
0
11
329.38016499999998
21
-46.764549000000002
31
0
0
LINE
5
241
100
AcDbEntity
8
0
100
AcDbLine
10
310.94110499999999
20
-48.851075000000002
30
0
11
309.13185499999997
21
-35.977590999999997
31
0
0
LINE
5
242
100
AcDbEntity
8
0
100
AcDbLine
10
285.29544199999998
20
-71.692553000000004
30
0
11
283.48619200000002
21
-58.819068000000016
31
0
0
LINE
5
243
100
AcDbEntity
8
0
100
AcDbLine
10
269.62243899999999
20
-60.767492000000011
30
0
11
271.43169
21
-73.640977000000007
31
0
0
ARC
5
244
100
AcDbEntity
8
0
100
AcDbCircle
10
303.66491600000006
20
-69.110892000000007
30
0
40
0.49999999999999933
210
0
220
0
230
1
100
AcDbArc
50
-82.000000000005784
51
7.9999999999992042
0
ARC
5
245
100
AcDbEntity
8
0
100
AcDbCircle
10
301.85566499999999
20
-56.237406999999997
30
0
40
0.50000000000000056
210
0
220
-0
230
1
100
AcDbArc
50
8.0000000000000266
51
97.999999999994316
0
LINE
5
246
100
AcDbEntity
8
0
100
AcDbLine
10
282.92147199999999
20
-58.393521
30
0
11
270.04798700000003
21
-60.202771000000006
31
0
0
ARC
5
247
100
AcDbEntity
8
0
100
AcDbCircle
10
224.80605600000004
20
-56.390446999999995
30
0
40
0.49999999999999933
210
0
220
-0
230
1
100
AcDbArc
50
82.000000000002473
51
172
0
ARC
5
248
100
AcDbEntity
8
0
100
AcDbCircle
10
271.92682400000001
20
-73.571390000000008
30
0
40
0.50000000000000056
210
0
220
0
230
1
100
AcDbArc
50
188.00000000000085
51
278.00000000000063
0
ARC
5
249
100
AcDbEntity
8
0
100
AcDbCircle
10
288.98218100000003
20
-58.046657999999994
30
0
40
0.49999999999999933
210
0
220
0
230
1
100
AcDbArc
50
97.999999999994316
51
188.00000000000085
0
LINE
5
250
100
AcDbEntity
8
0
100
AcDbLine
10
290.274674
20
-33.023251000000002
30
0
11
303.14815899999996
21
-31.214001000000003
31
0
0
ARC
5
251
100
AcDbEntity
8
0
100
AcDbCircle
10
231.58711100000002
20
-76.580678000000006
30
0
40
0.49999999999999933
210
0
220
-0
230
1
100
AcDbArc
50
82.000000000002359
51
172.00000000000122
0
ARC
5
252
100
AcDbEntity
8
0
100
AcDbCircle
10
237.67954100000003
20
-58.199697999999998
30
0
40
0.50000000000000056
210
0
220
0
230
1
100
AcDbArc
50
-8.0000000000004192
51
81.999999999999233
0
LINE
5
253
100
AcDbEntity
8
0
100
AcDbLine
10
256.61373300000002
20
-60.355811000000003
30
0
11
243.74024800000001
21
-58.546560999999997
31
0
0
ARC
5
254
100
AcDbEntity
8
0
100
AcDbCircle
10
213.805611
20
-74.081649999999996
30
0
40
0.50000000000000056
210
0
220
0
230
1
100
AcDbArc
50
-8.0000000000004192
51
81.999999999999119
0
LINE
5
255
100
AcDbEntity
8
0
100
AcDbLine
10
271.41006600000003
20
-35.674498999999997
30
0
11
284.28355099999999
21
-33.865248999999999
31
0
0
ARC
5
256
100
AcDbEntity
8
0
100
AcDbCircle
10
235.87029100000001
20
-71.073183
30
0
40
0.49999999999999933
210
0
220
0
230
1
100
AcDbArc
50
262.00000000000256
51
351.9999999999996
0
LINE
5
257
100
AcDbEntity
8
0
100
AcDbLine
10
213.87519700000001
20
-73.586516000000003
30
0
11
201.00171200000003
21
-71.777265999999997
31
0
0
ARC
5
258
100
AcDbEntity
8
0
100
AcDbCircle
10
271.34047999999996
20
-35.179365000000004
30
0
40
0.50000000000000056
210
0
220
0
230
1
100
AcDbArc
50
188.00000000000085
51
278.00000000000074
0
ARC
5
259
100
AcDbEntity
8
0
100
AcDbCircle
10
256.54414600000001
20
-60.850945000000003
30
0
40
0.50000000000000056
210
0
220
0
230
1
100
AcDbArc
50
-8.0000000000000107
51
81.999999999999233
0
LINE
5
260
100
AcDbEntity
8
0
100
AcDbLine
10
244.53018299999999
20
-77.89479399999999
30
0
11
231.65669800000003
21
-76.085543999999999
31
0
0
ARC
5
261
100
AcDbEntity
8
0
100
AcDbCircle
10
221.28280599999999
20
-89.270088000000015
30
0
40
0.49999999999999933
210
0
220
0
230
1
100
AcDbArc
50
172.0000000000008
51
262.00000000000233
0
LINE
5
262
100
AcDbEntity
8
0
100
AcDbLine
10
243.14648
20
-91.332999000000001
30
0
11
244.95573000000002
21
-78.459514000000013
31
0
0
ARC
5
263
100
AcDbEntity
8
0
100
AcDbCircle
10
242.65134599999999
20
-91.263413
30
0
40
0.49999999999999933
210
0
220
0
230
1
100
AcDbArc
50
262.00000000000256
51
352.00000000000085
0
LINE
5
264
100
AcDbEntity
8
0
100
AcDbLine
10
282.335128
20
-20.001495999999999
30
0
11
269.46164300000009
21
-21.810746000000002
31
0
0
LINE
5
265
100
AcDbEntity
8
0
100
AcDbLine
10
244.85686000000001
20
-93.088119000000006
30
0
11
250.79846800000001
21
-93.923156999999989
31
0
0
ARC
5
266
100
AcDbEntity
8
0
100
AcDbCircle
10
241.861411
20
-71.915180000000007
30
0
40
0.50000000000000056
210
0
220
0
230
1
100
AcDbArc
50
172.0000000000008
51
262.00000000000256
0
ARC
5
267
100
AcDbEntity
8
0
100
AcDbCircle
10
252.81647800000002
20
-79.564269999999993
30
0
40
0.50000000000000056
210
0
220
0
230
1
100
AcDbArc
50
-8.000000000000826
51
81.999999999999119
0
ARC
5
268
100
AcDbEntity
8
0
100
AcDbCircle
10
269.53122999999999
20
-22.305880000000002
30
0
40
0.49999999999999933
210
0
220
0
230
1
100
AcDbArc
50
97.999999999994316
51
188
0
LINE
5
269
100
AcDbEntity
8
0
100
AcDbLine
10
212.49149399999999
20
-87.024722000000011
30
0
11
214.30074500000003
21
-74.151236999999995
31
0
0
LINE
5
270
100
AcDbEntity
8
0
100
AcDbLine
10
241.79182499999999
20
-72.410314
30
0
11
254.66531000000003
21
-74.219564000000005
31
0
0
LINE
5
271
100
AcDbEntity
8
0
100
AcDbLine
10
222.92721900000004
20
-69.759066000000004
30
0
11
235.800704
21
-71.568317000000008
31
0
0
ARC
5
272
100
AcDbEntity
8
0
100
AcDbCircle
10
229.777861
20
-89.454161999999997
30
0
40
0.49999999999999933
210
0
220
0
230
1
100
AcDbArc
50
172.00000000000281
51
261.99999999999937
0
LINE
5
273
100
AcDbEntity
8
0
100
AcDbLine
10
246.37973599999998
20
-78.659645000000012
30
0
11
244.43131200000005
21
-92.523398
31
0
0
ARC
5
274
100
AcDbEntity
8
0
100
AcDbCircle
10
246.87487000000004
20
-78.729231999999996
30
0
40
0.49999999999999933
210
0
220
-0
230
1
100
AcDbArc
50
81.999999999999119
51
171.99999999999918
0
ARC
5
275
100
AcDbEntity
8
0
100
AcDbCircle
10
223.23122900000001
20
-75.406334999999999
30
0
40
0.49999999999999933
210
0
220
-0
230
1
100
AcDbArc
50
82.000000000002359
51
172.0000000000008
0
ARC
5
276
100
AcDbEntity
8
0
100
AcDbCircle
10
290.20508699999999
20
-32.528117000000009
30
0
40
0.50000000000000056
210
0
220
0
230
1
100
AcDbArc
50
188
51
278.00000000000085
0
ARC
5
277
100
AcDbEntity
8
0
100
AcDbCircle
10
282.40471400000001
20
-20.496630000000003
30
0
40
0.50000000000000056
210
0
220
-0
230
1
100
AcDbArc
50
7.9999999999995692
51
97.999999999994316
0
LINE
5
278
100
AcDbEntity
8
0
100
AcDbLine
10
229.24242400000003
20
-75.746239000000003
30
0
11
223.30081600000003
21
-74.911201000000005
31
0
0
ARC
5
279
100
AcDbEntity
8
0
100
AcDbCircle
10
329.31057799999996
20
-46.269415000000002
30
0
40
0.49999999999999933
210
0
220
0
230
1
100
AcDbArc
50
-81.999999999999233
51
8.0000000000000266
0
ARC
5
280
100
AcDbEntity
8
0
100
AcDbCircle
10
316.437093
20
-48.078665000000001
30
0
40
0.50000000000000056
210
0
220
0
230
1
100
AcDbArc
50
188.00000000000085
51
278.00000000000074
0
ARC
5
281
100
AcDbEntity
8
0
100
AcDbCircle
10
321.94317699999999
20
-28.067620000000005
30
0
40
0.49999999999999933
210
0
220
0
230
1
100
AcDbArc
50
-81.999999999999233
51
8.0000000000013056
0
ARC
5
282
100
AcDbEntity
8
0
100
AcDbCircle
10
308.63672100000002
20
-36.047177000000005
30
0
40
0.50000000000000056
210
0
220
-0
230
1
100
AcDbArc
50
8.0000000000000266
51
98.000000000000753
0
ARC
5
283
100
AcDbEntity
8
0
100
AcDbCircle
10
290.79143099999999
20
-70.92014300000001
30
0
40
0.50000000000000056
210
0
220
0
230
1
100
AcDbArc
50
188.00000000000085
51
278.00000000000063
0
LINE
5
284
100
AcDbEntity
8
0
100
AcDbLine
10
326.21625899999998
20
-52.813749000000001
30
0
11
328.02551
21
-65.687234000000004
31
0
0
ARC
5
285
100
AcDbEntity
8
0
100
AcDbCircle
10
307.84678600000001
20
-55.395409999999998
30
0
40
0.49999999999999933
210
0
220
0
230
1
100
AcDbArc
50
97.999999999994316
51
188
0
LINE
5
286
100
AcDbEntity
8
0
100
AcDbLine
10
301.86496800000003
20
-90.115814999999998
30
0
11
307.80657599999995
21
-89.280777000000015
31
0
0
ARC
5
287
100
AcDbEntity
8
0
100
AcDbCircle
10
309.65603599999997
20
-68.268895000000001
30
0
40
0.50000000000000056
210
0
220
0
230
1
100
AcDbArc
50
188.00000000000085
51
278.00000000000063
0
LINE
5
288
100
AcDbEntity
8
0
100
AcDbLine
10
320.06434100000001
20
-14.699001000000003
30
0
11
307.190856
21
-16.508251000000001
31
0
0
ARC
5
289
100
AcDbEntity
8
0
100
AcDbCircle
10
320.13392700000003
20
-15.194135000000003
30
0
40
0.49999999999996503
210
0
220
-0
230
1
100
AcDbArc
50
8.0000000000000266
51
97.999999999994316
0
LINE
5
290
100
AcDbEntity
8
0
100
AcDbLine
10
278.77746500000001
20
-53.876294000000001
30
0
11
291.65095000000002
21
-52.067044000000003
31
0
0
LINE
5
291
100
AcDbEntity
8
0
100
AcDbLine
10
328.00388599999997
20
-27.720756000000005
30
0
11
340.87737099999998
21
-25.911506000000003
31
0
0
LINE
5
292
100
AcDbEntity
8
0
100
AcDbLine
10
325.62991600000004
20
-14.421724000000001
30
0
11
327.439166
21
-27.295209000000007
31
0
0
ARC
5
293
100
AcDbEntity
8
0
100
AcDbCircle
10
289.77211299999999
20
-38.698425
30
0
40
0.50000000000000056
210
0
220
-0
230
1
100
AcDbArc
50
8.0000000000000266
51
98.000000000000753
0
ARC
5
294
100
AcDbEntity
8
0
100
AcDbCircle
10
335.30169900000004
20
-45.427416999999998
30
0
40
0.49999999999996536
210
0
220
0
230
1
100
AcDbArc
50
188
51
278.00000000000074
0
LINE
5
295
100
AcDbEntity
8
0
100
AcDbLine
10
341.30291899999997
20
-25.346785000000001
30
0
11
339.49366800000001
21
-12.473301000000001
31
0
0
ARC
5
296
100
AcDbEntity
8
0
100
AcDbCircle
10
307.26044200000001
20
-17.003385000000002
30
0
40
0.49999999999999933
210
0
220
0
230
1
100
AcDbArc
50
97.999999999994316
51
188
0
LINE
5
297
100
AcDbEntity
8
0
100
AcDbLine
10
308.56713400000001
20
-35.552042999999998
30
0
11
295.69364900000005
21
-37.361293000000003
31
0
0
LINE
5
298
100
AcDbEntity
8
0
100
AcDbLine
10
306.765308
20
-17.072972
30
0
11
308.57455899999997
21
-29.946457000000002
31
0
0
ARC
5
299
100
AcDbEntity
8
0
100
AcDbCircle
10
314.62784300000004
20
-35.205179999999999
30
0
40
0.49999999999999933
210
0
220
0
230
1
100
AcDbArc
50
97.999999999994316
51
188.00000000000085
0
ARC
5
300
100
AcDbEntity
8
0
100
AcDbCircle
10
327.50132800000006
20
-33.39593
30
0
40
0.49999999999996536
210
0
220
-0
230
1
100
AcDbArc
50
8.0000000000009415
51
98.000000000000753
0
LINE
5
301
100
AcDbEntity
8
0
100
AcDbLine
10
346.29634700000003
20
-30.249547999999997
30
0
11
333.42286200000001
21
-32.058797999999996
31
0
0
ARC
5
302
100
AcDbEntity
8
0
100
AcDbCircle
10
295.76323600000001
20
-37.856427000000004
30
0
40
0.49999999999999933
210
0
220
0
230
1
100
AcDbArc
50
98.000000000000753
51
188
0
LINE
5
303
100
AcDbEntity
8
0
100
AcDbLine
10
287.90070299999996
20
-19.724219000000002
30
0
11
289.70995299999998
21
-32.597704
31
0
0
ARC
5
304
100
AcDbEntity
8
0
100
AcDbCircle
10
278.70787899999999
20
-53.381159999999994
30
0
40
0.50000000000000056
210
0
220
0
230
1
100
AcDbArc
50
188
51
278.00000000000074
0
ARC
5
305
100
AcDbEntity
8
0
100
AcDbCircle
10
327.93430000000001
20
-27.225622000000001
30
0
40
0.49999999999996536
210
0
220
0
230
1
100
AcDbArc
50
188.00000000000091
51
278.00000000000074
0
LINE
5
306
100
AcDbEntity
8
0
100
AcDbLine
10
292.07649800000002
20
-51.502322999999997
30
0
11
290.267247
21
-38.628838000000002
31
0
0
LINE
5
307
100
AcDbEntity
8
0
100
AcDbLine
10
295.268102
20
-37.926014000000009
30
0
11
297.07735200000002
21
-50.799498999999997
31
0
0
ARC
5
308
100
AcDbEntity
8
0
100
AcDbCircle
10
291.58136400000001
20
-51.571910000000003
30
0
40
0.49999999999999933
210
0
220
0
230
1
100
AcDbArc
50
-81.999999999999233
51
7.9999999999999343
0
LINE
5
309
100
AcDbEntity
8
0
100
AcDbLine
10
290.861017
20
-71.415277000000003
30
0
11
303.73450200000002
21
-69.606026
31
0
0
LINE
5
310
100
AcDbEntity
8
0
100
AcDbLine
10
322.438311
20
-27.998033000000007
30
0
11
320.62906099999998
21
-15.124548000000003
31
0
0
LINE
5
311
100
AcDbEntity
8
0
100
AcDbLine
10
335.371285
20
-45.922550999999999
30
0
11
348.24477000000002
21
-44.113301
31
0
0
ARC
5
312
100
AcDbEntity
8
0
100
AcDbCircle
10
276.89862800000003
20
-40.507674999999999
30
0
40
0.49999999999999933
210
0
220
0
230
1
100
AcDbArc
50
98.000000000000753
51
187.99999999999912
0
LINE
5
313
100
AcDbEntity
8
0
100
AcDbLine
10
338.92894799999999
20
-12.047753
30
0
11
326.05546300000003
21
-13.857003000000001
31
0
0
ARC
5
314
100
AcDbEntity
8
0
100
AcDbCircle
10
333.49244800000002
20
-32.553932000000003
30
0
40
0.49999999999999933
210
0
220
0
230
1
100
AcDbArc
50
98.000000000000753
51
188
0
ARC
5
315
100
AcDbEntity
8
0
100
AcDbCircle
10
284.80030800000003
20
-71.762140000000002
30
0
40
0.49999999999999933
210
0
220
0
230
1
100
AcDbArc
50
-81.999999999999375
51
7.9999999999992042
0
LINE
5
316
100
AcDbEntity
8
0
100
AcDbLine
10
303.57370600000002
20
-30.649280999999998
30
0
11
301.764456
21
-17.775796
31
0
0
LINE
5
317
100
AcDbEntity
8
0
100
AcDbLine
10
339.51529200000004
20
-50.439778000000004
30
0
11
326.64180699999997
21
-52.249029
31
0
0
LINE
5
318
100
AcDbEntity
8
0
100
AcDbLine
10
329.80571200000009
20
-46.199828000000011
30
0
11
327.99646200000007
21
-33.326343000000008
31
0
0
LINE
5
319
100
AcDbEntity
8
0
100
AcDbLine
10
314.13270899999998
20
-35.274766999999997
30
0
11
315.941959
21
-48.148251000000002
31
0
0
LINE
5
320
100
AcDbEntity
8
0
100
AcDbLine
10
297.36309800000004
20
-75.601097999999993
30
0
11
284.48961299999996
21
-77.410348999999997
31
0
0
LINE
5
321
100
AcDbEntity
8
0
100
AcDbLine
10
323.02465500000005
20
-66.390057999999996
30
0
11
321.21540500000003
21
-53.516573000000001
31
0
0
ARC
5
322
100
AcDbEntity
8
0
100
AcDbCircle
10
299.24193399999996
20
-88.969717000000003
30
0
40
0.49999999999999933
210
0
220
0
230
1
100
AcDbArc
50
-81.999999999999119
51
7.9999999999992042
0
LINE
5
323
100
AcDbEntity
8
0
100
AcDbLine
10
278.22132699999997
20
-93.43871200000001
30
0
11
284.16293600000006
21
-92.603673999999998
31
0
0
ARC
5
324
100
AcDbEntity
8
0
100
AcDbCircle
10
319.38151300000004
20
-86.139282999999992
30
0
40
0.49999999999999933
210
0
220
0
230
1
100
AcDbArc
50
187.99999999999827
51
277.9999999999942
0
ARC
5
325
100
AcDbEntity
8
0
100
AcDbCircle
10
297.57248599999997
20
-50.729912000000006
30
0
40
0.50000000000000056
210
0
220
0
230
1
100
AcDbArc
50
188
51
278.00000000000074
0
ARC
5
326
100
AcDbEntity
8
0
100
AcDbCircle
10
282.99105800000001
20
-58.888655000000014
30
0
40
0.50000000000000056
210
0
220
-0
230
1
100
AcDbArc
50
8.0000000000000266
51
97.999999999994316
0
LINE
5
327
100
AcDbEntity
8
0
100
AcDbLine
10
320.65068400000001
20
-53.091025999999999
30
0
11
307.777199
21
-54.900276000000005
31
0
0
ARC
5
328
100
AcDbEntity
8
0
100
AcDbCircle
10
341.39412900000002
20
-63.808396999999999
30
0
40
0.49999999999999933
210
0
220
0
230
1
100
AcDbArc
50
-81.999999999999375
51
8.0000000000000266
0
LINE
5
329
100
AcDbEntity
8
0
100
AcDbLine
10
305.71897999999999
20
-74.426756000000012
30
0
11
299.77737100000002
21
-75.261794000000009
31
0
0
ARC
5
330
100
AcDbEntity
8
0
100
AcDbCircle
10
332.254998
20
-84.330032000000003
30
0
40
0.49999999999999933
210
0
220
0
230
1
100
AcDbArc
50
-81.999999999999119
51
7.9999999999992042
0
ARC
5
331
100
AcDbEntity
8
0
100
AcDbCircle
10
348.17518400000006
20
-43.618167
30
0
40
0.49999999999999933
210
0
220
0
230
1
100
AcDbArc
50
-81.999999999999375
51
8.0000000000009415
0
ARC
5
332
100
AcDbEntity
8
0
100
AcDbCircle
10
346.36593300000004
20
-30.744682000000001
30
0
40
0.49999999999996536
210
0
220
-0
230
1
100
AcDbArc
50
8.0000000000013056
51
98.000000000000753
0
LINE
5
333
100
AcDbEntity
8
0
100
AcDbLine
10
301.19973500000003
20
-17.350248000000001
30
0
11
288.32625000000002
21
-19.159499000000004
31
0
0
LINE
5
334
100
AcDbEntity
8
0
100
AcDbLine
10
348.67031800000001
20
-43.548580000000001
30
0
11
346.86106700000005
21
-30.675095000000002
31
0
0
LINE
5
335
100
AcDbEntity
8
0
100
AcDbLine
10
332.99731400000007
20
-32.623519000000002
30
0
11
334.80656500000003
21
-45.497003999999997
31
0
0
LINE
5
336
100
AcDbEntity
8
0
100
AcDbLine
10
276.40349399999997
20
-40.577262000000005
30
0
11
278.21274500000004
21
-53.450747000000007
31
0
0
ARC
5
337
100
AcDbEntity
8
0
100
AcDbCircle
10
326.12504999999999
20
-14.352137000000001
30
0
40
0.49999999999999933
210
0
220
0
230
1
100
AcDbArc
50
98.000000000000753
51
188.00000000000074
0
ARC
5
338
100
AcDbEntity
8
0
100
AcDbCircle
10
270.11757299999999
20
-60.697905000000006
30
0
40
0.49999999999999933
210
0
220
0
230
1
100
AcDbArc
50
98.000000000000753
51
188.00000000000085
0
ARC
5
339
100
AcDbEntity
8
0
100
AcDbCircle
10
310.44597099999999
20
-48.920662000000007
30
0
40
0.49999999999999933
210
0
220
0
230
1
100
AcDbArc
50
-81.999999999999119
51
7.9999999999999343
0
LINE
5
340
100
AcDbEntity
8
0
100
AcDbLine
10
309.13927899999999
20
-30.372003999999997
30
0
11
322.01276400000006
21
-28.562753999999998
31
0
0
ARC
5
341
100
AcDbEntity
8
0
100
AcDbCircle
10
322.52952100000005
20
-66.459644999999995
30
0
40
0.49999999999999933
210
0
220
0
230
1
100
AcDbArc
50
-82.000000000005784
51
8.0000000000001172
0
LINE
5
342
100
AcDbEntity
8
0
100
AcDbLine
10
307.351652
20
-55.464996999999997
30
0
11
309.16090200000002
21
-68.338481999999999
31
0
0
LINE
5
343
100
AcDbEntity
8
0
100
AcDbLine
10
282.07533899999999
20
-77.749653000000023
30
0
11
276.13373100000001
21
-78.584691000000007
31
0
0
ARC
5
344
100
AcDbEntity
8
0
100
AcDbCircle
10
297.43268399999999
20
-76.096232000000001
30
0
40
0.50000000000000056
210
0
220
-0
230
1
100
AcDbArc
50
7.9999999999982903
51
97.999999999994415
0
ARC
5
345
100
AcDbEntity
8
0
100
AcDbCircle
10
284.09334900000005
20
-92.108540000000005
30
0
40
0.49999999999999933
210
0
220
0
230
1
100
AcDbArc
50
-81.999999999999375
51
7.9999999999976037
0
LINE
5
346
100
AcDbEntity
8
0
100
AcDbLine
10
341.88926299999997
20
-63.738810999999998
30
0
11
340.08001200000001
21
-50.86532600000001
31
0
0
LINE
5
347
100
AcDbEntity
8
0
100
AcDbLine
10
288.48704700000002
20
-58.116243999999995
30
0
11
290.29629700000004
21
-70.989728999999997
31
0
0
ARC
5
348
100
AcDbEntity
8
0
100
AcDbCircle
10
286.36845
20
-90.778967000000023
30
0
40
0.49999999999999933
210
0
220
0
230
1
100
AcDbArc
50
187.99999999999918
51
278.00000000000085
0
ARC
5
349
100
AcDbEntity
8
0
100
AcDbCircle
10
307.73698999999999
20
-88.785643000000007
30
0
40
0.49999999999999933
210
0
220
0
230
1
100
AcDbArc
50
-81.999999999999375
51
7.9999999999992042
0
LINE
5
350
100
AcDbEntity
8
0
100
AcDbLine
10
332.75013200000001
20
-84.260446000000002
30
0
11
330.94088099999999
21
-71.386961000000014
31
0
0
LINE
5
351
100
AcDbEntity
8
0
100
AcDbLine
10
308.232124
20
-88.716056000000009
30
0
11
306.28370000000007
21
-74.852303000000006
31
0
0
LINE
5
352
100
AcDbEntity
8
0
100
AcDbLine
10
330.37616100000002
20
-70.961414000000005
30
0
11
317.50267599999995
21
-72.770663999999996
31
0
0
LINE
5
353
100
AcDbEntity
8
0
100
AcDbLine
10
319.451099
20
-86.634416999999999
30
0
11
332.32458399999996
21
-84.825166000000024
31
0
0
ARC
5
354
100
AcDbEntity
8
0
100
AcDbCircle
10
276.20331699999997
20
-79.079825
30
0
40
0.49999999999999933
210
0
220
0
230
1
100
AcDbArc
50
98.000000000000881
51
188.00000000000085
0
LINE
5
355
100
AcDbEntity
8
0
100
AcDbLine
10
301.78607900000003
20
-55.742273000000004
30
0
11
288.91259400000001
21
-57.551524000000001
31
0
0
ARC
5
356
100
AcDbEntity
8
0
100
AcDbCircle
10
326.71139300000004
20
-52.744163
30
0
40
0.49999999999999933
210
0
220
0
230
1
100
AcDbArc
50
97.999999999994415
51
188.00000000000176
0
ARC
5
357
100
AcDbEntity
8
0
100
AcDbCircle
10
284.55919900000004
20
-77.90548299999999
30
0
40
0.49999999999999933
210
0
220
0
230
1
100
AcDbArc
50
98.000000000000881
51
188.00000000000085
0
LINE
5
358
100
AcDbEntity
8
0
100
AcDbLine
10
284.06406499999997
20
-77.975068999999991
30
0
11
285.87331599999999
21
-90.848554000000007
31
0
0
ARC
5
359
100
AcDbEntity
8
0
100
AcDbCircle
10
320.72027100000003
20
-53.586160000000007
30
0
40
0.49999999999996536
210
0
220
-0
230
1
100
AcDbArc
50
8.0000000000017639
51
98.000000000000753
0
LINE
5
360
100
AcDbEntity
8
0
100
AcDbLine
10
328.59023000000002
20
-66.112781000000012
30
0
11
341.46371499999998
21
-64.303531000000021
31
0
0
LINE
5
361
100
AcDbEntity
8
0
100
AcDbLine
10
304.16005000000001
20
-69.041306000000006
30
0
11
302.35079900000005
21
-56.167821000000004
31
0
0
ARC
5
362
100
AcDbEntity
8
0
100
AcDbCircle
10
330.44574700000004
20
-71.456547999999998
30
0
40
0.49999999999996536
210
0
220
-0
230
1
100
AcDbArc
50
8.0000000000008491
51
97.999999999994415
0
ARC
5
363
100
AcDbEntity
8
0
100
AcDbCircle
10
282.144926
20
-78.244787000000002
30
0
40
0.50000000000000056
210
0
220
-0
230
1
100
AcDbArc
50
8.0000000000008491
51
98.000000000000881
0
ARC
5
364
100
AcDbEntity
8
0
100
AcDbCircle
10
328.52064400000006
20
-65.617646999999991
30
0
40
0.49999999999996536
210
0
220
0
230
1
100
AcDbArc
50
188.00000000000085
51
277.9999999999942
0
LINE
5
365
100
AcDbEntity
8
0
100
AcDbLine
10
275.70818300000002
20
-79.149411999999998
30
0
11
277.65660700000001
21
-93.013165000000001
31
0
0
ARC
5
366
100
AcDbEntity
8
0
100
AcDbCircle
10
278.15174100000002
20
-92.943578000000002
30
0
40
0.49999999999999933
210
0
220
0
230
1
100
AcDbArc
50
187.99999999999918
51
278.00000000000085
0
LINE
5
367
100
AcDbEntity
8
0
100
AcDbLine
10
309.72562299999998
20
-68.764029000000008
30
0
11
322.599108
21
-66.954779000000002
31
0
0
ARC
5
368
100
AcDbEntity
8
0
100
AcDbCircle
10
305.788566
20
-74.921890000000005
30
0
40
0.50000000000000056
210
0
220
-0
230
1
100
AcDbArc
50
7.9999999999992042
51
97.999999999994415
0
LINE
5
369
100
AcDbEntity
8
0
100
AcDbLine
10
299.35182400000002
20
-75.826515000000001
30
0
11
301.30024700000001
21
-89.690268000000003
31
0
0
LINE
5
370
100
AcDbEntity
8
0
100
AcDbLine
10
286.43803600000001
20
-91.274101000000002
30
0
11
299.31152099999997
21
-89.46485100000001
31
0
0
ARC
5
371
100
AcDbEntity
8
0
100
AcDbCircle
10
317.57226200000002
20
-73.265798000000018
30
0
40
0.49999999999999933
210
0
220
0
230
1
100
AcDbArc
50
97.999999999994202
51
187.99999999999918
0
ARC
5
372
100
AcDbEntity
8
0
100
AcDbCircle
10
299.84695800000003
20
-75.756928000000002
30
0
40
0.49999999999999933
210
0
220
0
230
1
100
AcDbArc
50
97.999999999994415
51
188.00000000000085
0
LINE
5
373
100
AcDbEntity
8
0
100
AcDbLine
10
284.588483
20
-92.038953000000006
30
0
11
282.64006000000001
21
-78.175200000000004
31
0
0
ARC
5
374
100
AcDbEntity
8
0
100
AcDbCircle
10
339.584878
20
-50.934911999999997
30
0
40
0.49999999999996536
210
0
220
-0
230
1
100
AcDbArc
50
8.0000000000009415
51
98.000000000000753
0
ARC
5
375
100
AcDbEntity
8
0
100
AcDbCircle
10
301.79538100000002
20
-89.620681000000019
30
0
40
0.49999999999999933
210
0
220
0
230
1
100
AcDbArc
50
187.99999999999918
51
278.00000000000085
0
LINE
5
376
100
AcDbEntity
8
0
100
AcDbLine
10
317.07712799999996
20
-73.335383999999991
30
0
11
318.88637899999998
21
-86.208869000000007
31
0
0
LINE
5
377
100
AcDbEntity
8
0
100
AcDbLine
10
299.73706800000002
20
-88.900131000000016
30
0
11
297.927818
21
-76.026646
31
0
0
ARC
5
378
100
AcDbEntity
8
0
100
AcDbCircle
10
127.01799999999999
20
-6.2602470250617284
30
0
40
1.9999999999999885
210
0
220
-0
230
1
100
AcDbArc
50
90
51
180
0
LINE
5
379
100
AcDbEntity
8
0
100
AcDbLine
10
125.018
20
-6.2602470250617284
30
0
11
125.018
21
-84.209500000000034
31
0
0
ARC
5
380
100
AcDbEntity
8
0
100
AcDbCircle
10
127.01799999999999
20
-84.209500000000034
30
0
40
1.9999999999999929
210
0
220
0
230
1
100
AcDbArc
50
180
51
270
0
LINE
5
381
100
AcDbEntity
8
0
100
AcDbLine
10
172.91995345392465
20
-86.209500000000006
30
0
11
127.01799999999999
21
-86.20950000000002
31
0
0
LINE
5
382
100
AcDbEntity
8
0
100
AcDbLine
10
172.91995345392465
20
-86.209500000000006
30
0
11
261.1163283160443
21
-98.604685704905748
31
0
0
ARC
5
383
100
AcDbEntity
8
0
100
AcDbCircle
10
262.78640467720862
20
-86.721468760500073
30
0
40
11.999999999997081
210
0
220
0
230
1
100
AcDbArc
50
262.00000410005254
51
278.00000715424767
0
LINE
5
384
100
AcDbEntity
8
0
100
AcDbLine
10
264.45648337252896
20
-98.604685376861454
30
0
11
352.65273019968896
21
-86.209500000000006
31
0
0
LINE
5
385
100
AcDbEntity
8
0
100
AcDbLine
10
352.65273019968896
20
-86.209500000000006
30
0
11
418.00006711819003
21
-86.209499999999963
31
0
0
ARC
5
386
100
AcDbEntity
8
0
100
AcDbCircle
10
418.00006711819009
20
-84.209500000000034
30
0
40
1.9999999999999218
210
0
220
0
230
1
100
AcDbArc
50
269.99999999999835
51
359.99825647171338
0
LINE
5
387
100
AcDbEntity
8
0
100
AcDbLine
10
420.00243913751973
20
-6.2603078856900094
30
0
11
420.000067117264
21
-84.209560860628301
31
0
0
ARC
5
388
100
AcDbEntity
8
0
100
AcDbCircle
10
418.0024391384456
20
-6.2602470250619024
30
0
40
2.0000000000001954
210
-0
220
0
230
1
100
AcDbArc
50
-0.0017435282866176442
51
89.999999999995111
0
LINE
5
389
100
AcDbEntity
8
0
100
AcDbLine
10
127.01799999999999
20
-4.2602470250617399
30
0
11
418.00243913844577
21
-4.260247025061707
31
0
0
CIRCLE
5
390
100
AcDbEntity
8
0
100
AcDbCircle
10
154.66853723455725
20
-28.55157608922779
30
0
40
0.79999999999999416
210
0
220
0
230
1
0
CIRCLE
5
391
100
AcDbEntity
8
0
100
AcDbCircle
10
150.44841058607409
20
-68.385454454175076
30
0
40
0.80000000000000249
210
0
220
0
230
1
0
CIRCLE
5
392
100
AcDbEntity
8
0
100
AcDbCircle
10
219.27764692364514
20
-73.109937702110344
30
0
40
0.80000000000000226
210
0
220
0
230
1
0
CIRCLE
5
393
100
AcDbEntity
8
0
100
AcDbCircle
10
229.93089346310742
20
-34.202428601464035
30
0
40
0.79999999999998295
210
0
220
0
230
1
0
CIRCLE
5
394
100
AcDbEntity
8
0
100
AcDbCircle
10
292.3524388028618
20
-35.874159399993992
30
0
40
0.79999999999998828
210
0
220
0
230
1
0
CIRCLE
5
395
100
AcDbEntity
8
0
100
AcDbCircle
10
382.95954838317323
20
-25.648163691761063
30
0
40
0.79999999999999671
210
0
220
0
230
1
0
CIRCLE
5
396
100
AcDbEntity
8
0
100
AcDbCircle
10
389.71989996595732
20
-67.280599913725482
30
0
40
0.79999999999999571
210
0
220
0
230
1
0
CIRCLE
5
397
100
AcDbEntity
8
0
100
AcDbCircle
10
310.26685236558637
20
-73.052189220544989
30
0
40
0.80000000000001137
210
0
220
0
230
1
0
ENDSEC
0
SECTION
2
OBJECTS
0
DICTIONARY
5
C
100
AcDbDictionary
3
ACAD_GROUP
350
D
3
ACAD_MLINESTYLE
350
17
0
DICTIONARY
5
D
100
AcDbDictionary
0
DICTIONARY
5
1A
330
C
100
AcDbDictionary
0
DICTIONARY
5
17
100
AcDbDictionary
0
ENDSEC
0
EOF
