M48
; DRILL file {KiCad (5.99.0-9176-ga1730d51ff)} date 05/08/21 16:46:09
; FORMAT={-:-/ absolute / metric / decimal}
; #@! TF.CreationDate,2021-05-08T16:46:09-05:00
; #@! TF.GenerationSoftware,Kicad,Pcbnew,(5.99.0-9176-ga1730d51ff)
; #@! TF.FileFunction,Plated,1,2,PTH
FMAT,2
METRIC
T1C0.300
T2C0.600
%
G90
G05
T1
X99.03Y-151.14
X101.73Y-95.52
X101.73Y-131.1
X102.1Y-93.175
X103.825Y-93.175
X103.829Y-92.23
X103.829Y-94.025
X104.47Y-115.12
X106.15Y-92.22
X106.29Y-115.09
X107.55Y-94.125
X107.67Y-92.23
X109.39Y-133.92
X111.7Y-133.95
X112.42Y-152.96
X114.28Y-152.98
X117.02Y-95.52
X124.65Y-115.45
X126.58Y-115.61
X129.75Y-133.93
X132.43Y-133.87
X133.4Y-151.73
X133.43Y-155.45
X143.37Y-117.46
X145.31Y-117.71
X150.57Y-152.97
X151.47Y-136.71
X153.63Y-152.97
X153.76Y-136.69
X162.31Y-119.97
X164.37Y-120.26
X170.14Y-139.42
X170.37Y-159.19
X171.89Y-139.46
X171.99Y-159.41
X181.14Y-122.74
X183.15Y-123.04
X189.01Y-142.04
X191.28Y-138.31
X191.62Y-94.37
X191.79Y-139.07
X194.92Y-94.37
X197.97Y-165.69
X199.89Y-125.02
X200.02Y-104.45
X204.02Y-142.79
X205.4Y-122.63
X205.5Y-145.47
X206.59Y-128.77
X207.6Y-105.74
X208.54Y-127.68
X208.61Y-124.3
X209.4Y-119.26
X211.0Y-130.231
X214.05Y-104.45
X215.76Y-144.2
X217.78Y-128.82
X219.03Y-130.35
X219.09Y-131.94
X222.71Y-107.29
X224.68Y-137.948
X224.96Y-122.33
X226.43Y-138.6
X230.87Y-142.73
X239.79Y-110.49
X242.14Y-121.76
X243.44Y-141.01
X244.43Y-121.76
X245.31Y-140.98
X246.55Y-159.7
X253.87Y-102.3
X255.18Y-101.01
X260.73Y-118.76
X261.86Y-156.99
X262.01Y-138.53
X262.89Y-118.32
X264.16Y-138.51
X265.34Y-156.95
X272.68Y-97.89
X274.84Y-97.43
X278.94Y-114.63
X281.41Y-114.25
X284.27Y-134.52
X286.08Y-134.45
X292.44Y-95.47
X295.08Y-95.46
X298.84Y-114.22
X301.37Y-114.23
X311.85Y-95.4
X313.99Y-95.43
X315.16Y-153.25
X315.44Y-134.16
X317.5Y-134.14
X317.82Y-153.26
X319.2Y-113.34
X321.5Y-115.74
X332.9Y-133.9
X333.04Y-129.97
X333.64Y-129.21
X334.73Y-133.92
X336.89Y-153.16
X339.16Y-153.28
T2
X97.76Y-85.76G85X97.76Y-86.36
G05
X97.76Y-89.71G85X97.76Y-90.81
G05
X106.36Y-85.76G85X106.36Y-86.36
G05
X106.36Y-89.71G85X106.36Y-90.81
G05
T0
M30
