%TF.GenerationSoftware,KiCad,Pcbnew,(5.99.0-9176-ga1730d51ff)*%
%TF.CreationDate,2021-05-08T16:46:04-05:00*%
%TF.ProjectId,prime e clone,7072696d-6520-4652-9063-6c6f6e652e6b,rev?*%
%TF.SameCoordinates,Original*%
%TF.FileFunction,Soldermask,Top*%
%TF.FilePolarity,Negative*%
%FSLAX46Y46*%
G04 Gerber Fmt 4.6, Leading zero omitted, Abs format (unit mm)*
G04 Created by KiCad (PCBNEW (5.99.0-9176-ga1730d51ff)) date 2021-05-08 16:46:04*
%MOMM*%
%LPD*%
G01*
G04 APERTURE LIST*
%ADD10C,1.701800*%
%ADD11C,3.000000*%
%ADD12C,3.987800*%
%ADD13C,3.048000*%
%ADD14C,0.650000*%
%ADD15O,1.300000X1.900000*%
%ADD16O,1.100000X2.200000*%
G04 APERTURE END LIST*
D10*
%TO.C,SW13*%
X346300000Y-100970000D03*
X336140000Y-100970000D03*
D11*
X338680000Y-106050000D03*
X345030000Y-103510000D03*
D12*
X341220000Y-100970000D03*
%TD*%
D10*
%TO.C,SW33*%
X241049438Y-146966999D03*
D12*
X246080000Y-146260000D03*
D10*
X251110562Y-145553001D03*
D11*
X250206421Y-148245031D03*
X244271718Y-151644061D03*
%TD*%
%TO.C,SW16*%
X130367720Y-125467062D03*
D10*
X128559438Y-120083001D03*
X138620562Y-121496999D03*
D11*
X137009422Y-123835530D03*
D12*
X133590000Y-120790000D03*
%TD*%
D11*
%TO.C,SW11*%
X306930000Y-103510000D03*
D12*
X303120000Y-100970000D03*
D10*
X308200000Y-100970000D03*
X298040000Y-100970000D03*
D11*
X300580000Y-106050000D03*
%TD*%
%TO.C,SW41*%
X181657720Y-171167062D03*
D10*
X179849438Y-165783001D03*
D11*
X188299422Y-169535530D03*
D12*
X184880000Y-166490000D03*
D10*
X189910562Y-167196999D03*
%TD*%
D12*
%TO.C,SW4*%
X150390000Y-103920000D03*
D10*
X155420562Y-104626999D03*
X145359438Y-103213001D03*
D11*
X153809422Y-106965530D03*
X147167720Y-108597062D03*
%TD*%
D10*
%TO.C,SW37*%
X349270000Y-139450000D03*
X339110000Y-139450000D03*
D11*
X341650000Y-144530000D03*
D12*
X344190000Y-139450000D03*
D11*
X348000000Y-141990000D03*
%TD*%
%TO.C,SW7*%
X230746421Y-112505031D03*
D10*
X221589438Y-111226999D03*
D11*
X224811718Y-115904061D03*
D10*
X231650562Y-109813001D03*
D12*
X226620000Y-110520000D03*
%TD*%
D10*
%TO.C,SW15*%
X108610000Y-120090000D03*
D12*
X113690000Y-120090000D03*
D11*
X111150000Y-125170000D03*
D10*
X118770000Y-120090000D03*
D11*
X117500000Y-122630000D03*
%TD*%
D10*
%TO.C,SW14*%
X97430000Y-120090000D03*
D12*
X92350000Y-120090000D03*
D11*
X96160000Y-122630000D03*
D10*
X87270000Y-120090000D03*
D11*
X89810000Y-125170000D03*
%TD*%
%TO.C,SW21*%
X256986421Y-128055031D03*
X251051718Y-131454061D03*
D10*
X257890562Y-125363001D03*
X247829438Y-126776999D03*
D12*
X252860000Y-126070000D03*
%TD*%
D11*
%TO.C,SW39*%
X112775000Y-163655000D03*
D10*
X110235000Y-158575000D03*
D11*
X119125000Y-161115000D03*
D10*
X120395000Y-158575000D03*
D12*
X115315000Y-158575000D03*
%TD*%
D10*
%TO.C,SW26*%
X89085000Y-139320000D03*
D11*
X91625000Y-144400000D03*
D12*
X94165000Y-139320000D03*
D10*
X99245000Y-139320000D03*
D11*
X97975000Y-141860000D03*
%TD*%
D12*
%TO.C,SW36*%
X322740000Y-139450000D03*
D10*
X317660000Y-139450000D03*
D11*
X320200000Y-144530000D03*
X326550000Y-141990000D03*
D10*
X327820000Y-139450000D03*
%TD*%
D12*
%TO.C,SW9*%
X264350000Y-105230000D03*
D11*
X262541718Y-110614061D03*
D10*
X269380562Y-104523001D03*
D11*
X268476421Y-107215031D03*
D10*
X259319438Y-105936999D03*
%TD*%
D11*
%TO.C,SW10*%
X287346421Y-104565031D03*
X281411718Y-107964061D03*
D12*
X283220000Y-102580000D03*
D10*
X278189438Y-103286999D03*
X288250562Y-101873001D03*
%TD*%
D11*
%TO.C,SW45*%
X339530000Y-163780000D03*
D12*
X342070000Y-158700000D03*
D11*
X345880000Y-161240000D03*
D10*
X336990000Y-158700000D03*
X347150000Y-158700000D03*
%TD*%
D12*
%TO.C,SW43*%
X274670000Y-161490000D03*
D10*
X269639438Y-162196999D03*
X279700562Y-160783001D03*
D11*
X278796421Y-163475031D03*
X272861718Y-166874061D03*
%TD*%
%TO.C,SW12*%
X319630000Y-106070000D03*
D10*
X317090000Y-100990000D03*
D11*
X325980000Y-103530000D03*
D12*
X322170000Y-100990000D03*
D10*
X327250000Y-100990000D03*
%TD*%
D12*
%TO.C,SW27*%
X120350000Y-139320000D03*
D11*
X117810000Y-144400000D03*
D10*
X115270000Y-139320000D03*
X125430000Y-139320000D03*
D11*
X124160000Y-141860000D03*
%TD*%
D12*
%TO.C,SW30*%
X178100000Y-146300000D03*
D11*
X174877720Y-150977062D03*
D10*
X173069438Y-145593001D03*
X183130562Y-147006999D03*
D11*
X181519422Y-149345530D03*
%TD*%
%TO.C,SW31*%
X193737720Y-153627062D03*
D12*
X196960000Y-148950000D03*
D10*
X201990562Y-149656999D03*
X191929438Y-148243001D03*
D11*
X200379422Y-151995530D03*
%TD*%
D12*
%TO.C,SW40*%
X154235000Y-162165000D03*
D11*
X151012720Y-166842062D03*
X157654422Y-165210530D03*
D10*
X149204438Y-161458001D03*
X159265562Y-162871999D03*
%TD*%
%TO.C,SW46*%
X298610000Y-139470000D03*
D12*
X303690000Y-139470000D03*
D11*
X307500000Y-142010000D03*
D10*
X308770000Y-139470000D03*
D11*
X301150000Y-144550000D03*
%TD*%
D12*
%TO.C,SW44*%
X318266038Y-158700000D03*
D10*
X323346038Y-158700000D03*
X313186038Y-158700000D03*
D11*
X315726038Y-163780000D03*
X322076038Y-161240000D03*
%TD*%
D10*
%TO.C,SW2*%
X106510000Y-100850000D03*
D11*
X115400000Y-103390000D03*
D12*
X111590000Y-100850000D03*
D10*
X116670000Y-100850000D03*
D11*
X109050000Y-105930000D03*
%TD*%
D10*
%TO.C,SW1*%
X97625000Y-100840000D03*
D12*
X92545000Y-100840000D03*
D10*
X87465000Y-100840000D03*
D11*
X90005000Y-105920000D03*
X96355000Y-103380000D03*
%TD*%
%TO.C,SW32*%
X231326421Y-150905031D03*
D10*
X232230562Y-148213001D03*
X222169438Y-149626999D03*
D12*
X227200000Y-148920000D03*
D11*
X225391718Y-154304061D03*
%TD*%
D10*
%TO.C,SW20*%
X228959438Y-129436999D03*
X239020562Y-128023001D03*
D12*
X233990000Y-128730000D03*
D11*
X238116421Y-130715031D03*
X232181718Y-134114061D03*
%TD*%
D10*
%TO.C,SW18*%
X166289438Y-125403001D03*
X176350562Y-126816999D03*
D11*
X174739422Y-129155530D03*
D12*
X171320000Y-126110000D03*
D11*
X168097720Y-130787062D03*
%TD*%
%TO.C,SW8*%
X249616421Y-109865031D03*
D10*
X240459438Y-108586999D03*
D12*
X245490000Y-107880000D03*
D11*
X243681718Y-113264061D03*
D10*
X250520562Y-107173001D03*
%TD*%
D11*
%TO.C,SW34*%
X263121718Y-148994061D03*
D12*
X264930000Y-143610000D03*
D11*
X269056421Y-145595031D03*
D10*
X269960562Y-142903001D03*
X259899438Y-144316999D03*
%TD*%
D12*
%TO.C,SW42*%
X241639538Y-166110000D03*
D11*
X239831256Y-171494061D03*
D10*
X236608976Y-166816999D03*
X246670100Y-165403001D03*
D11*
X245765959Y-168095031D03*
%TD*%
D10*
%TO.C,SW19*%
X185149438Y-128053001D03*
D12*
X190180000Y-128760000D03*
D11*
X186957720Y-133437062D03*
D10*
X195210562Y-129466999D03*
D11*
X193599422Y-131805530D03*
%TD*%
D12*
%TO.C,SW29*%
X159240000Y-143640000D03*
D10*
X164270562Y-144346999D03*
D11*
X156017720Y-148317062D03*
X162659422Y-146685530D03*
D10*
X154209438Y-142933001D03*
%TD*%
D11*
%TO.C,SW22*%
X269911718Y-128804061D03*
D10*
X276750562Y-122713001D03*
D11*
X275846421Y-125405031D03*
D12*
X271720000Y-123420000D03*
D10*
X266689438Y-124126999D03*
%TD*%
%TO.C,SW6*%
X183089438Y-108513001D03*
D11*
X184897720Y-113897062D03*
D10*
X193150562Y-109926999D03*
D11*
X191539422Y-112265530D03*
D12*
X188120000Y-109220000D03*
%TD*%
D10*
%TO.C,SW23*%
X295610562Y-120073001D03*
D11*
X288771718Y-126164061D03*
D10*
X285549438Y-121486999D03*
D11*
X294706421Y-122765031D03*
D12*
X290580000Y-120780000D03*
%TD*%
D10*
%TO.C,SW28*%
X145390562Y-141696999D03*
D11*
X143779422Y-144035530D03*
D12*
X140360000Y-140990000D03*
D10*
X135329438Y-140283001D03*
D11*
X137137720Y-145667062D03*
%TD*%
D10*
%TO.C,SW25*%
X341830000Y-120230000D03*
X331670000Y-120230000D03*
D11*
X334210000Y-125310000D03*
X340560000Y-122770000D03*
D12*
X336750000Y-120230000D03*
%TD*%
D11*
%TO.C,SW35*%
X281981718Y-146354061D03*
D12*
X283790000Y-140970000D03*
D11*
X287916421Y-142955031D03*
D10*
X278759438Y-141676999D03*
X288820562Y-140263001D03*
%TD*%
D11*
%TO.C,SW38*%
X95285000Y-161100000D03*
X88935000Y-163640000D03*
D10*
X86395000Y-158560000D03*
D12*
X91475000Y-158560000D03*
D10*
X96555000Y-158560000D03*
%TD*%
D11*
%TO.C,SW5*%
X172664422Y-109625530D03*
D10*
X174275562Y-107286999D03*
D12*
X169245000Y-106580000D03*
D10*
X164214438Y-105873001D03*
D11*
X166022720Y-111257062D03*
%TD*%
D13*
%TO.C,S1*%
X230832618Y-174714005D03*
D12*
X228711620Y-159622320D03*
D13*
X254400998Y-171401686D03*
D12*
X252280000Y-156310000D03*
%TD*%
D11*
%TO.C,SW3*%
X134939422Y-104325530D03*
D12*
X131520000Y-101280000D03*
D11*
X128297720Y-105957062D03*
D10*
X126489438Y-100573001D03*
X136550562Y-101986999D03*
%TD*%
D12*
%TO.C,S2*%
X197803064Y-159985268D03*
X174234684Y-156672948D03*
D13*
X195682066Y-175076953D03*
X172113686Y-171764634D03*
%TD*%
D12*
%TO.C,SW24*%
X310560000Y-120230000D03*
D10*
X315640000Y-120230000D03*
D11*
X314370000Y-122770000D03*
D10*
X305480000Y-120230000D03*
D11*
X308020000Y-125310000D03*
%TD*%
%TO.C,SW17*%
X149237720Y-128127062D03*
D10*
X147429438Y-122743001D03*
D12*
X152460000Y-123450000D03*
D11*
X155879422Y-126495530D03*
D10*
X157490562Y-124156999D03*
%TD*%
D14*
%TO.C,J1*%
X99170000Y-89709000D03*
X104950000Y-89709000D03*
D15*
X97760000Y-86060000D03*
D16*
X106360000Y-90260000D03*
D15*
X106360000Y-86060000D03*
D16*
X97760000Y-90260000D03*
%TD*%
M02*
