%TF.GenerationSoftware,KiCad,Pcbnew,(5.99.0-9176-ga1730d51ff)*%
%TF.CreationDate,2021-05-08T16:46:04-05:00*%
%TF.ProjectId,prime e clone,7072696d-6520-4652-9063-6c6f6e652e6b,rev?*%
%TF.SameCoordinates,Original*%
%TF.FileFunction,Paste,Bot*%
%TF.FilePolarity,Positive*%
%FSLAX46Y46*%
G04 Gerber Fmt 4.6, Leading zero omitted, Abs format (unit mm)*
G04 Created by KiCad (PCBNEW (5.99.0-9176-ga1730d51ff)) date 2021-05-08 16:46:04*
%MOMM*%
%LPD*%
G01*
G04 APERTURE LIST*
G04 Aperture macros list*
%AMRoundRect*
0 Rectangle with rounded corners*
0 $1 Rounding radius*
0 $2 $3 $4 $5 $6 $7 $8 $9 X,Y pos of 4 corners*
0 Add a 4 corners polygon primitive as box body*
4,1,4,$2,$3,$4,$5,$6,$7,$8,$9,$2,$3,0*
0 Add four circle primitives for the rounded corners*
1,1,$1+$1,$2,$3*
1,1,$1+$1,$4,$5*
1,1,$1+$1,$6,$7*
1,1,$1+$1,$8,$9*
0 Add four rect primitives between the rounded corners*
20,1,$1+$1,$2,$3,$4,$5,0*
20,1,$1+$1,$4,$5,$6,$7,0*
20,1,$1+$1,$6,$7,$8,$9,0*
20,1,$1+$1,$8,$9,$2,$3,0*%
%AMRotRect*
0 Rectangle, with rotation*
0 The origin of the aperture is its center*
0 $1 length*
0 $2 width*
0 $3 Rotation angle, in degrees counterclockwise*
0 Add horizontal line*
21,1,$1,$2,0,0,$3*%
%AMOutline4P*
0 Free polygon, 4 corners , with rotation*
0 The origin of the aperture is its center*
0 number of corners: always 4*
0 $1 to $8 corner X, Y*
0 $9 Rotation angle, in degrees counterclockwise*
0 create outline with 4 corners*
4,1,4,$1,$2,$3,$4,$5,$6,$7,$8,$1,$2,$9*%
G04 Aperture macros list end*
%ADD10R,1.700000X1.000000*%
%ADD11R,1.000000X1.000000*%
%ADD12RotRect,1.000000X1.000000X278.000000*%
%ADD13RotRect,1.000000X1.000000X262.000000*%
%ADD14R,2.550000X2.500000*%
%ADD15RotRect,2.550000X2.500000X188.000000*%
%ADD16RotRect,2.550000X2.500000X172.000000*%
%ADD17RoundRect,0.147500X-0.172500X0.147500X-0.172500X-0.147500X0.172500X-0.147500X0.172500X0.147500X0*%
%ADD18RoundRect,0.243750X-0.243750X-0.456250X0.243750X-0.456250X0.243750X0.456250X-0.243750X0.456250X0*%
%ADD19RoundRect,0.243750X0.243750X0.456250X-0.243750X0.456250X-0.243750X-0.456250X0.243750X-0.456250X0*%
%ADD20O,0.550000X1.500000*%
%ADD21Outline4P,-0.750000X-0.250000X0.750000X-0.250000X0.750000X0.250000X-0.750000X0.250000X270.000000*%
%ADD22Outline4P,-0.750000X-0.275000X0.750000X-0.275000X0.750000X0.275000X-0.750000X0.275000X270.000000*%
%ADD23Outline4P,-0.750000X-0.275000X0.750000X-0.275000X0.750000X0.275000X-0.750000X0.275000X180.000000*%
%ADD24Outline4P,-0.750000X-0.250000X0.750000X-0.250000X0.750000X0.250000X-0.750000X0.250000X180.000000*%
%ADD25RoundRect,0.250000X-0.375000X-0.625000X0.375000X-0.625000X0.375000X0.625000X-0.375000X0.625000X0*%
%ADD26RoundRect,0.243750X-0.456250X0.243750X-0.456250X-0.243750X0.456250X-0.243750X0.456250X0.243750X0*%
%ADD27R,1.400000X1.200000*%
%ADD28R,0.900000X1.200000*%
%ADD29RoundRect,0.150000X-0.512500X-0.150000X0.512500X-0.150000X0.512500X0.150000X-0.512500X0.150000X0*%
%ADD30RoundRect,0.150000X-0.150000X-0.575000X0.150000X-0.575000X0.150000X0.575000X-0.150000X0.575000X0*%
%ADD31RoundRect,0.075000X-0.075000X-0.650000X0.075000X-0.650000X0.075000X0.650000X-0.075000X0.650000X0*%
G04 APERTURE END LIST*
D10*
%TO.C,SW_RESET1*%
X216870000Y-161850000D03*
X210570000Y-161850000D03*
X216870000Y-165650000D03*
X210570000Y-165650000D03*
%TD*%
D11*
%TO.C,D46*%
X311230000Y-136650000D03*
X311230000Y-134150000D03*
%TD*%
%TO.C,D45*%
X349600000Y-155800000D03*
X349600000Y-153300000D03*
%TD*%
%TO.C,D44*%
X325850000Y-155770000D03*
X325850000Y-153270000D03*
%TD*%
D12*
%TO.C,D43*%
X281743966Y-157577835D03*
X281396034Y-155102165D03*
%TD*%
%TO.C,D42*%
X248743966Y-162057835D03*
X248396034Y-159582165D03*
%TD*%
D13*
%TO.C,D41*%
X192796034Y-164717835D03*
X193143966Y-162242165D03*
%TD*%
%TO.C,D40*%
X162156034Y-160227835D03*
X162503966Y-157752165D03*
%TD*%
D11*
%TO.C,D39*%
X122895000Y-155455000D03*
X122895000Y-152955000D03*
%TD*%
%TO.C,D38*%
X99025000Y-155440000D03*
X99025000Y-152940000D03*
%TD*%
%TO.C,D37*%
X351740000Y-136420000D03*
X351740000Y-133920000D03*
%TD*%
%TO.C,D36*%
X330310000Y-136410000D03*
X330310000Y-133910000D03*
%TD*%
D12*
%TO.C,D35*%
X290833966Y-136867835D03*
X290486034Y-134392165D03*
%TD*%
%TO.C,D34*%
X271983966Y-139487835D03*
X271636034Y-137012165D03*
%TD*%
%TO.C,D33*%
X253193966Y-142517835D03*
X252846034Y-140042165D03*
%TD*%
%TO.C,D32*%
X234313966Y-145087835D03*
X233966034Y-142612165D03*
%TD*%
D13*
%TO.C,D31*%
X203636034Y-146927835D03*
X203983966Y-144452165D03*
%TD*%
%TO.C,D30*%
X185956034Y-144527835D03*
X186303966Y-142052165D03*
%TD*%
%TO.C,D29*%
X167096034Y-141897835D03*
X167443966Y-139422165D03*
%TD*%
%TO.C,D28*%
X148216034Y-139197835D03*
X148563966Y-136722165D03*
%TD*%
D11*
%TO.C,D27*%
X127890000Y-136380000D03*
X127890000Y-133880000D03*
%TD*%
%TO.C,D26*%
X101710000Y-136420000D03*
X101710000Y-133920000D03*
%TD*%
%TO.C,D25*%
X344280000Y-117200000D03*
X344280000Y-114700000D03*
%TD*%
%TO.C,D24*%
X318120000Y-117300000D03*
X318120000Y-114800000D03*
%TD*%
D12*
%TO.C,D23*%
X297583966Y-116737835D03*
X297236034Y-114262165D03*
%TD*%
%TO.C,D22*%
X278803966Y-119447835D03*
X278456034Y-116972165D03*
%TD*%
%TO.C,D21*%
X259943966Y-122127835D03*
X259596034Y-119652165D03*
%TD*%
%TO.C,D20*%
X241073966Y-124797835D03*
X240726034Y-122322165D03*
%TD*%
D13*
%TO.C,D19*%
X198072068Y-127375670D03*
X198420000Y-124900000D03*
%TD*%
%TO.C,D18*%
X179196034Y-124417835D03*
X179543966Y-121942165D03*
%TD*%
%TO.C,D17*%
X160326034Y-121647835D03*
X160673966Y-119172165D03*
%TD*%
%TO.C,D16*%
X141476034Y-119157835D03*
X141823966Y-116682165D03*
%TD*%
D11*
%TO.C,D15*%
X121270000Y-117020000D03*
X121270000Y-114520000D03*
%TD*%
%TO.C,D14*%
X99900000Y-117090000D03*
X99900000Y-114590000D03*
%TD*%
%TO.C,D13*%
X348780000Y-97860000D03*
X348780000Y-95360000D03*
%TD*%
%TO.C,D12*%
X329720000Y-97940000D03*
X329720000Y-95440000D03*
%TD*%
%TO.C,D11*%
X310640000Y-97960000D03*
X310640000Y-95460000D03*
%TD*%
D12*
%TO.C,D10*%
X290303966Y-98547835D03*
X289956034Y-96072165D03*
%TD*%
%TO.C,D9*%
X271413966Y-101167835D03*
X271066034Y-98692165D03*
%TD*%
%TO.C,D8*%
X252823966Y-104877835D03*
X252476034Y-102402165D03*
%TD*%
%TO.C,D7*%
X233663966Y-106297835D03*
X233316034Y-103822165D03*
%TD*%
D13*
%TO.C,D6*%
X196066034Y-106967835D03*
X196413966Y-104492165D03*
%TD*%
%TO.C,D5*%
X177206034Y-104425335D03*
X177553966Y-101949665D03*
%TD*%
%TO.C,D4*%
X158366034Y-101237835D03*
X158713966Y-98762165D03*
%TD*%
%TO.C,D3*%
X139526034Y-98869085D03*
X139873966Y-96393415D03*
%TD*%
D11*
%TO.C,D2*%
X119100000Y-98510000D03*
X119100000Y-96010000D03*
%TD*%
%TO.C,D1*%
X100160000Y-98020000D03*
X100160000Y-95520000D03*
%TD*%
D14*
%TO.C,SW13*%
X334930000Y-106050000D03*
X348780000Y-103510000D03*
%TD*%
D15*
%TO.C,SW33*%
X240558213Y-152165961D03*
X253919926Y-147723132D03*
%TD*%
D16*
%TO.C,SW16*%
X126654214Y-124945163D03*
X140722927Y-124357430D03*
%TD*%
D14*
%TO.C,SW11*%
X296830000Y-106050000D03*
X310680000Y-103510000D03*
%TD*%
D16*
%TO.C,SW41*%
X177944214Y-170645163D03*
X192012927Y-170057430D03*
%TD*%
%TO.C,SW4*%
X143454214Y-108075163D03*
X157522927Y-107487430D03*
%TD*%
D14*
%TO.C,SW37*%
X337900000Y-144530000D03*
X351750000Y-141990000D03*
%TD*%
D15*
%TO.C,SW7*%
X221098213Y-116425961D03*
X234459926Y-111983132D03*
%TD*%
D14*
%TO.C,SW15*%
X107400000Y-125170000D03*
X121250000Y-122630000D03*
%TD*%
%TO.C,SW14*%
X86060000Y-125170000D03*
X99910000Y-122630000D03*
%TD*%
D15*
%TO.C,SW21*%
X247338213Y-131975961D03*
X260699926Y-127533132D03*
%TD*%
D14*
%TO.C,SW39*%
X109025000Y-163655000D03*
X122875000Y-161115000D03*
%TD*%
%TO.C,SW26*%
X87875000Y-144400000D03*
X101725000Y-141860000D03*
%TD*%
%TO.C,SW36*%
X316450000Y-144530000D03*
X330300000Y-141990000D03*
%TD*%
D15*
%TO.C,SW9*%
X258828213Y-111135961D03*
X272189926Y-106693132D03*
%TD*%
%TO.C,SW10*%
X277698213Y-108485961D03*
X291059926Y-104043132D03*
%TD*%
D14*
%TO.C,SW45*%
X335780000Y-163780000D03*
X349630000Y-161240000D03*
%TD*%
D15*
%TO.C,SW43*%
X269148213Y-167395961D03*
X282509926Y-162953132D03*
%TD*%
D14*
%TO.C,SW12*%
X315880000Y-106070000D03*
X329730000Y-103530000D03*
%TD*%
%TO.C,SW27*%
X114060000Y-144400000D03*
X127910000Y-141860000D03*
%TD*%
D16*
%TO.C,SW30*%
X171164214Y-150455163D03*
X185232927Y-149867430D03*
%TD*%
%TO.C,SW31*%
X190024214Y-153105163D03*
X204092927Y-152517430D03*
%TD*%
%TO.C,SW40*%
X147299214Y-166320163D03*
X161367927Y-165732430D03*
%TD*%
D14*
%TO.C,SW46*%
X297400000Y-144550000D03*
X311250000Y-142010000D03*
%TD*%
%TO.C,SW44*%
X311976038Y-163780000D03*
X325826038Y-161240000D03*
%TD*%
%TO.C,SW2*%
X105300000Y-105930000D03*
X119150000Y-103390000D03*
%TD*%
%TO.C,SW1*%
X86255000Y-105920000D03*
X100105000Y-103380000D03*
%TD*%
D15*
%TO.C,SW32*%
X221678213Y-154825961D03*
X235039926Y-150383132D03*
%TD*%
%TO.C,SW20*%
X228468213Y-134635961D03*
X241829926Y-130193132D03*
%TD*%
D16*
%TO.C,SW18*%
X164384214Y-130265163D03*
X178452927Y-129677430D03*
%TD*%
D15*
%TO.C,SW8*%
X239968213Y-113785961D03*
X253329926Y-109343132D03*
%TD*%
%TO.C,SW34*%
X259408213Y-149515961D03*
X272769926Y-145073132D03*
%TD*%
%TO.C,SW42*%
X236117751Y-172015961D03*
X249479464Y-167573132D03*
%TD*%
D16*
%TO.C,SW19*%
X183244214Y-132915163D03*
X197312927Y-132327430D03*
%TD*%
%TO.C,SW29*%
X152304214Y-147795163D03*
X166372927Y-147207430D03*
%TD*%
D15*
%TO.C,SW22*%
X266198213Y-129325961D03*
X279559926Y-124883132D03*
%TD*%
D16*
%TO.C,SW6*%
X181184214Y-113375163D03*
X195252927Y-112787430D03*
%TD*%
D15*
%TO.C,SW23*%
X285058213Y-126685961D03*
X298419926Y-122243132D03*
%TD*%
D16*
%TO.C,SW28*%
X133424214Y-145145163D03*
X147492927Y-144557430D03*
%TD*%
D14*
%TO.C,SW25*%
X330460000Y-125310000D03*
X344310000Y-122770000D03*
%TD*%
D15*
%TO.C,SW35*%
X278268213Y-146875961D03*
X291629926Y-142433132D03*
%TD*%
D14*
%TO.C,SW38*%
X85185000Y-163640000D03*
X99035000Y-161100000D03*
%TD*%
D16*
%TO.C,SW5*%
X162309214Y-110735163D03*
X176377927Y-110147430D03*
%TD*%
%TO.C,SW3*%
X124584214Y-105435163D03*
X138652927Y-104847430D03*
%TD*%
D14*
%TO.C,SW24*%
X304270000Y-125310000D03*
X318120000Y-122770000D03*
%TD*%
D16*
%TO.C,SW17*%
X145524214Y-127605163D03*
X159592927Y-127017430D03*
%TD*%
D17*
%TO.C,R4*%
X106150000Y-93095000D03*
X106150000Y-94065000D03*
%TD*%
D18*
%TO.C,R2*%
X213822500Y-159670000D03*
X215697500Y-159670000D03*
%TD*%
%TO.C,C5*%
X212602500Y-141480000D03*
X214477500Y-141480000D03*
%TD*%
%TO.C,R7*%
X121382500Y-94400000D03*
X123257500Y-94400000D03*
%TD*%
D19*
%TO.C,R1*%
X199160000Y-140250000D03*
X197285000Y-140250000D03*
%TD*%
D18*
%TO.C,R6*%
X121382500Y-91940000D03*
X123257500Y-91940000D03*
%TD*%
%TO.C,C2*%
X221040000Y-135310000D03*
X222915000Y-135310000D03*
%TD*%
D20*
%TO.C,U1*%
X205400000Y-126250000D03*
D21*
X206200000Y-126250000D03*
X207000000Y-126250000D03*
D22*
X207800000Y-126250000D03*
X208600000Y-126250000D03*
X209400000Y-126250000D03*
X210200000Y-126250000D03*
X211000000Y-126250000D03*
X211800000Y-126250000D03*
X212600000Y-126250000D03*
X213400000Y-126250000D03*
D23*
X215100000Y-127950000D03*
X215100000Y-128750000D03*
X215100000Y-129550000D03*
X215100000Y-130350000D03*
X215100000Y-131150000D03*
X215100000Y-131950000D03*
X215100000Y-132750000D03*
X215100000Y-133550000D03*
X215100000Y-134350000D03*
X215100000Y-135150000D03*
X215100000Y-135950000D03*
D22*
X213400000Y-137650000D03*
X212600000Y-137650000D03*
X211800000Y-137650000D03*
X211000000Y-137650000D03*
X210200000Y-137650000D03*
X209400000Y-137650000D03*
X208600000Y-137650000D03*
X207800000Y-137650000D03*
X207000000Y-137650000D03*
X206200000Y-137650000D03*
X205400000Y-137650000D03*
D23*
X203700000Y-135950000D03*
X203700000Y-135150000D03*
X203700000Y-134350000D03*
X203700000Y-133550000D03*
X203700000Y-132750000D03*
X203700000Y-131950000D03*
X203700000Y-131150000D03*
X203700000Y-130350000D03*
X203700000Y-129550000D03*
X203700000Y-128750000D03*
D24*
X203700000Y-127950000D03*
%TD*%
D18*
%TO.C,C7*%
X220912500Y-126860000D03*
X222787500Y-126860000D03*
%TD*%
D25*
%TO.C,F1*%
X104615000Y-95730000D03*
X107415000Y-95730000D03*
%TD*%
D26*
%TO.C,R5*%
X94000000Y-95312500D03*
X94000000Y-97187500D03*
%TD*%
D27*
%TO.C,X1*%
X220890000Y-131180000D03*
X223090000Y-131180000D03*
X223090000Y-132880000D03*
X220890000Y-132880000D03*
%TD*%
D26*
%TO.C,C3*%
X209400000Y-121182500D03*
X209400000Y-123057500D03*
%TD*%
%TO.C,C9*%
X95980000Y-95302500D03*
X95980000Y-97177500D03*
%TD*%
D18*
%TO.C,C1*%
X220912500Y-128970000D03*
X222787500Y-128970000D03*
%TD*%
D28*
%TO.C,DS1*%
X107475000Y-98050000D03*
X104175000Y-98050000D03*
%TD*%
D29*
%TO.C,U2*%
X109532500Y-94120000D03*
X109532500Y-93170000D03*
X109532500Y-92220000D03*
X111807500Y-92220000D03*
X111807500Y-93170000D03*
X111807500Y-94120000D03*
%TD*%
D19*
%TO.C,C8*%
X201740000Y-121060000D03*
X199865000Y-121060000D03*
%TD*%
D30*
%TO.C,J1*%
X98810000Y-91035000D03*
X99610000Y-91035000D03*
D31*
X100810000Y-91035000D03*
X101806000Y-91035000D03*
X102310000Y-91035000D03*
X103310000Y-91035000D03*
D30*
X105310000Y-91035000D03*
X104510000Y-91035000D03*
D31*
X103810000Y-91035000D03*
X102810000Y-91035000D03*
X101310000Y-91035000D03*
X100310000Y-91035000D03*
%TD*%
D17*
%TO.C,R3*%
X100570000Y-92715000D03*
X100570000Y-93685000D03*
%TD*%
D19*
%TO.C,C6*%
X199170000Y-138040000D03*
X197295000Y-138040000D03*
%TD*%
%TO.C,C4*%
X201750000Y-123150000D03*
X199875000Y-123150000D03*
%TD*%
M02*
