M48
; DRILL file {KiCad (5.99.0-9176-ga1730d51ff)} date 05/08/21 16:46:09
; FORMAT={-:-/ absolute / metric / decimal}
; #@! TF.CreationDate,2021-05-08T16:46:09-05:00
; #@! TF.GenerationSoftware,Kicad,Pcbnew,(5.99.0-9176-ga1730d51ff)
; #@! TF.FileFunction,NonPlated,1,2,NPTH
FMAT,2
METRIC
T1C0.650
T2C1.702
T3C3.000
T4C3.048
T5C3.988
%
G90
G05
T1
X99.17Y-89.709
X104.95Y-89.709
T2
X86.395Y-158.56
X87.27Y-120.09
X87.465Y-100.84
X89.085Y-139.32
X96.555Y-158.56
X97.43Y-120.09
X97.625Y-100.84
X99.245Y-139.32
X106.51Y-100.85
X108.61Y-120.09
X110.235Y-158.575
X115.27Y-139.32
X116.67Y-100.85
X118.77Y-120.09
X120.395Y-158.575
X125.43Y-139.32
X126.489Y-100.573
X128.559Y-120.083
X135.329Y-140.283
X136.551Y-101.987
X138.621Y-121.497
X145.359Y-103.213
X145.391Y-141.697
X147.429Y-122.743
X149.204Y-161.458
X154.209Y-142.933
X155.421Y-104.627
X157.491Y-124.157
X159.266Y-162.872
X164.214Y-105.873
X164.271Y-144.347
X166.289Y-125.403
X173.069Y-145.593
X174.276Y-107.287
X176.351Y-126.817
X179.849Y-165.783
X183.089Y-108.513
X183.131Y-147.007
X185.149Y-128.053
X189.911Y-167.197
X191.929Y-148.243
X193.151Y-109.927
X195.211Y-129.467
X201.991Y-149.657
X221.589Y-111.227
X222.169Y-149.627
X228.959Y-129.437
X231.651Y-109.813
X232.231Y-148.213
X236.609Y-166.817
X239.021Y-128.023
X240.459Y-108.587
X241.049Y-146.967
X246.67Y-165.403
X247.829Y-126.777
X250.521Y-107.173
X251.111Y-145.553
X257.891Y-125.363
X259.319Y-105.937
X259.899Y-144.317
X266.689Y-124.127
X269.381Y-104.523
X269.639Y-162.197
X269.961Y-142.903
X276.751Y-122.713
X278.189Y-103.287
X278.759Y-141.677
X279.701Y-160.783
X285.549Y-121.487
X288.251Y-101.873
X288.821Y-140.263
X295.611Y-120.073
X298.04Y-100.97
X298.61Y-139.47
X305.48Y-120.23
X308.2Y-100.97
X308.77Y-139.47
X313.186Y-158.7
X315.64Y-120.23
X317.09Y-100.99
X317.66Y-139.45
X323.346Y-158.7
X327.25Y-100.99
X327.82Y-139.45
X331.67Y-120.23
X336.14Y-100.97
X336.99Y-158.7
X339.11Y-139.45
X341.83Y-120.23
X346.3Y-100.97
X347.15Y-158.7
X349.27Y-139.45
T3
X88.935Y-163.64
X89.81Y-125.17
X90.005Y-105.92
X91.625Y-144.4
X95.285Y-161.1
X96.16Y-122.63
X96.355Y-103.38
X97.975Y-141.86
X109.05Y-105.93
X111.15Y-125.17
X112.775Y-163.655
X115.4Y-103.39
X117.5Y-122.63
X117.81Y-144.4
X119.125Y-161.115
X124.16Y-141.86
X128.298Y-105.957
X130.368Y-125.467
X134.939Y-104.326
X137.009Y-123.836
X137.138Y-145.667
X143.779Y-144.036
X147.168Y-108.597
X149.238Y-128.127
X151.013Y-166.842
X153.809Y-106.966
X155.879Y-126.496
X156.018Y-148.317
X157.654Y-165.211
X162.659Y-146.686
X166.023Y-111.257
X168.098Y-130.787
X172.664Y-109.626
X174.739Y-129.156
X174.878Y-150.977
X181.519Y-149.346
X181.658Y-171.167
X184.898Y-113.897
X186.958Y-133.437
X188.299Y-169.536
X191.539Y-112.266
X193.599Y-131.806
X193.738Y-153.627
X200.379Y-151.996
X224.812Y-115.904
X225.392Y-154.304
X230.746Y-112.505
X231.326Y-150.905
X232.182Y-134.114
X238.116Y-130.715
X239.831Y-171.494
X243.682Y-113.264
X244.272Y-151.644
X245.766Y-168.095
X249.616Y-109.865
X250.206Y-148.245
X251.052Y-131.454
X256.986Y-128.055
X262.542Y-110.614
X263.122Y-148.994
X268.476Y-107.215
X269.056Y-145.595
X269.912Y-128.804
X272.862Y-166.874
X275.846Y-125.405
X278.796Y-163.475
X281.412Y-107.964
X281.982Y-146.354
X287.346Y-104.565
X287.916Y-142.955
X288.772Y-126.164
X294.706Y-122.765
X300.58Y-106.05
X301.15Y-144.55
X306.93Y-103.51
X307.5Y-142.01
X308.02Y-125.31
X314.37Y-122.77
X315.726Y-163.78
X319.63Y-106.07
X320.2Y-144.53
X322.076Y-161.24
X325.98Y-103.53
X326.55Y-141.99
X334.21Y-125.31
X338.68Y-106.05
X339.53Y-163.78
X340.56Y-122.77
X341.65Y-144.53
X345.03Y-103.51
X345.88Y-161.24
X348.0Y-141.99
T4
X172.114Y-171.765
X195.682Y-175.077
X230.833Y-174.714
X254.401Y-171.402
T5
X91.475Y-158.56
X92.35Y-120.09
X92.545Y-100.84
X94.165Y-139.32
X111.59Y-100.85
X113.69Y-120.09
X115.315Y-158.575
X120.35Y-139.32
X131.52Y-101.28
X133.59Y-120.79
X140.36Y-140.99
X150.39Y-103.92
X152.46Y-123.45
X154.235Y-162.165
X159.24Y-143.64
X169.245Y-106.58
X171.32Y-126.11
X174.235Y-156.673
X178.1Y-146.3
X184.88Y-166.49
X188.12Y-109.22
X190.18Y-128.76
X196.96Y-148.95
X197.803Y-159.985
X226.62Y-110.52
X227.2Y-148.92
X228.712Y-159.622
X233.99Y-128.73
X241.64Y-166.11
X245.49Y-107.88
X246.08Y-146.26
X252.28Y-156.31
X252.86Y-126.07
X264.35Y-105.23
X264.93Y-143.61
X271.72Y-123.42
X274.67Y-161.49
X283.22Y-102.58
X283.79Y-140.97
X290.58Y-120.78
X303.12Y-100.97
X303.69Y-139.47
X310.56Y-120.23
X318.266Y-158.7
X322.17Y-100.99
X322.74Y-139.45
X336.75Y-120.23
X341.22Y-100.97
X342.07Y-158.7
X344.19Y-139.45
T0
M30
