%FSLAX45Y45*%
G04 Gerber Fmt 4.5, Leading zero omitted, Abs format (unit mm)*
G04 Created by KiCad (PCBNEW (5.99.0-9176-ga1730d51ff)) date 2021-05-08 16:46:10*
%MOMM*%
%LPD*%
G01*
G04 APERTURE LIST*
%TA.AperFunction,Profile*%
%ADD10C,0.200000*%
%TD*%
%ADD11C,0.200000*%
%ADD12C,0.030000*%
%ADD13C,0.060000*%
G04 APERTURE END LIST*
D10*
X9673000Y-9330000D02*
X9673000Y-9280000D01*
X34998000Y-9180000D02*
X34998000Y-9130000D01*
X34998000Y-16830000D02*
X28948000Y-16830000D01*
X34998000Y-9330000D02*
X34998000Y-9230000D01*
X34298000Y-9380000D02*
X34898000Y-9380000D01*
X28898000Y-16880000D02*
X28898000Y-16980000D01*
X10848000Y-9080000D02*
X13448000Y-9080000D01*
X22098000Y-17930000D02*
X21898000Y-17930000D01*
X35898000Y-9380000D02*
X35898000Y-11180000D01*
X8398000Y-9380000D02*
X8948000Y-9380000D01*
X35738000Y-9422000D02*
X35558000Y-9422000D01*
X35398000Y-12280000D02*
X35398000Y-13030000D01*
X14148000Y-17930000D02*
G75*
G02*
X14098000Y-17880000I0J50000D01*
G01*
X28898000Y-17880000D02*
G75*
G02*
X28848000Y-17930000I-50000J0D01*
G01*
X35558000Y-9622000D02*
X35738000Y-9622000D01*
X20498000Y-17930000D02*
X19548000Y-17930000D01*
X14098000Y-17880000D02*
X14098000Y-17680000D01*
X10748000Y-8730000D02*
X10748000Y-9030000D01*
X35583000Y-10572000D02*
X35558000Y-10572000D01*
X34198000Y-9230000D02*
X34198000Y-9330000D01*
X20898000Y-17180000D02*
G75*
G02*
X20998000Y-17080000I100000J0D01*
G01*
X14098000Y-17580000D02*
X14098000Y-16880000D01*
X20848000Y-9080000D02*
G75*
G02*
X20898000Y-9130000I0J-50000D01*
G01*
X35558000Y-9997500D02*
X35558000Y-10032500D01*
X35398000Y-16780000D02*
G75*
G02*
X35348000Y-16830000I-50000J0D01*
G01*
X21798000Y-17530000D02*
X21798000Y-17180000D01*
X35398000Y-11830000D02*
X35398000Y-12180000D01*
X35738000Y-10030000D02*
X35738000Y-9997000D01*
X20648000Y-17930000D02*
X20498000Y-17930000D01*
X35248000Y-9080000D02*
X35448000Y-9080000D01*
X21698000Y-17080000D02*
X20998000Y-17080000D01*
X28898000Y-16880000D02*
G75*
G02*
X28948000Y-16830000I50000J0D01*
G01*
X9673000Y-8930000D02*
X9673000Y-8730000D01*
X35558000Y-10572000D02*
X35558000Y-10607500D01*
X35738000Y-10772000D02*
X35738000Y-10734500D01*
X35738000Y-10572000D02*
X35713000Y-10572000D01*
X35398000Y-11280000D02*
X35398000Y-11405000D01*
X34998000Y-9230000D02*
X34998000Y-9180000D01*
X35713000Y-10572000D02*
X35583000Y-10572000D01*
X9673000Y-9280000D02*
X9673000Y-8930000D01*
X34248000Y-9380000D02*
X34298000Y-9380000D01*
X35558000Y-10735000D02*
X35558000Y-10772000D01*
X14048000Y-16830000D02*
G75*
G02*
X14098000Y-16880000I0J-50000D01*
G01*
X35898000Y-9280000D02*
X35898000Y-9380000D01*
X35348000Y-16830000D02*
X34998000Y-16830000D01*
X35558000Y-10164500D02*
X35558000Y-10197000D01*
X8248000Y-16330000D02*
X8248000Y-9580000D01*
X35738000Y-9432000D02*
X35738000Y-9422000D01*
X9673000Y-9330000D02*
G75*
G02*
X9623000Y-9380000I-50000J0D01*
G01*
X8298000Y-9380000D02*
X8398000Y-9380000D01*
X8298000Y-16830000D02*
G75*
G02*
X8248000Y-16780000I0J50000D01*
G01*
X10748000Y-8530000D02*
X10748000Y-8730000D01*
X35898000Y-11180000D02*
G75*
G02*
X35848000Y-11230000I-50000J0D01*
G01*
X13448000Y-9080000D02*
X13648000Y-9080000D01*
X9778000Y-8470000D02*
X10708000Y-8470000D01*
X22198000Y-17930000D02*
X22098000Y-17930000D01*
X35398000Y-13280000D02*
X35398000Y-14230000D01*
X21798000Y-9130000D02*
G75*
G02*
X21848000Y-9080000I50000J0D01*
G01*
X20898000Y-17830000D02*
G75*
G02*
X20798000Y-17930000I-100000J0D01*
G01*
X34198000Y-9180000D02*
X34198000Y-9230000D01*
X20898000Y-17180000D02*
X20898000Y-17530000D01*
X9673000Y-8730000D02*
X9673000Y-8530000D01*
X20898000Y-9130000D02*
X20898000Y-9330000D01*
X9673000Y-8520000D02*
G75*
G02*
X9723000Y-8470000I50000J0D01*
G01*
X10748000Y-8510000D02*
X10748000Y-8530000D01*
X22348000Y-17930000D02*
X22198000Y-17930000D01*
X35748000Y-9080000D02*
X35848000Y-9080000D01*
X35713000Y-10772000D02*
X35738000Y-10772000D01*
X34148000Y-9080000D02*
G75*
G02*
X34198000Y-9130000I0J-50000D01*
G01*
X8948000Y-9380000D02*
X9098000Y-9380000D01*
X34198000Y-9130000D02*
X34198000Y-9180000D01*
X20798000Y-17930000D02*
X20698000Y-17930000D01*
X35558000Y-10197000D02*
X35583000Y-10197000D01*
X20798000Y-9080000D02*
X20848000Y-9080000D01*
X35048000Y-9080000D02*
X35248000Y-9080000D01*
X14248000Y-17930000D02*
X14148000Y-17930000D01*
X35738000Y-9997000D02*
X35727000Y-9997000D01*
X34898000Y-9380000D02*
X34948000Y-9380000D01*
X19548000Y-17930000D02*
X14248000Y-17930000D01*
X35713000Y-10197000D02*
X35738000Y-10197000D01*
X35558000Y-9997000D02*
X35558000Y-9997500D01*
X21898000Y-17930000D02*
G75*
G02*
X21798000Y-17830000I0J100000D01*
G01*
X35398000Y-11730000D02*
X35398000Y-11830000D01*
X35398000Y-12180000D02*
X35398000Y-12280000D01*
X35398000Y-11280000D02*
G75*
G02*
X35448000Y-11230000I50000J0D01*
G01*
X8248000Y-9430000D02*
G75*
G02*
X8298000Y-9380000I50000J0D01*
G01*
X9673000Y-8530000D02*
X9673000Y-8520000D01*
X14048000Y-16830000D02*
X8298000Y-16830000D01*
X14098000Y-17680000D02*
X14098000Y-17580000D01*
X35848000Y-9080000D02*
G75*
G02*
X35898000Y-9130000I0J-50000D01*
G01*
X21848000Y-9080000D02*
X22148000Y-9080000D01*
X9098000Y-9380000D02*
X9623000Y-9380000D01*
X35448000Y-9080000D02*
X35748000Y-9080000D01*
X35713000Y-9997000D02*
X35583000Y-9997000D01*
X35558000Y-9603000D02*
X35558000Y-9622000D01*
X35398000Y-14230000D02*
X35398000Y-16780000D01*
X35398000Y-13030000D02*
X35398000Y-13180000D01*
X35548000Y-11230000D02*
X35448000Y-11230000D01*
X10708000Y-8470000D02*
G75*
G02*
X10748000Y-8510000I0J-40000D01*
G01*
X34248000Y-9380000D02*
G75*
G02*
X34198000Y-9330000I0J50000D01*
G01*
X35558000Y-9422000D02*
X35558000Y-9501000D01*
X33998000Y-9080000D02*
X34148000Y-9080000D01*
X21798000Y-17830000D02*
X21798000Y-17530000D01*
X34998000Y-9330000D02*
G75*
G02*
X34948000Y-9380000I-50000J0D01*
G01*
X20948000Y-9380000D02*
X21748000Y-9380000D01*
X20698000Y-17930000D02*
X20648000Y-17930000D01*
X28898000Y-16980000D02*
X28898000Y-17480000D01*
X35738000Y-10607000D02*
X35738000Y-10572000D01*
X28848000Y-17930000D02*
X26048000Y-17930000D01*
X35398000Y-11405000D02*
X35398000Y-11730000D01*
X35558000Y-9501000D02*
X35558000Y-9603000D01*
X35398000Y-13230000D02*
X35398000Y-13280000D01*
X35558000Y-10032500D02*
X35558000Y-10164500D01*
X35727000Y-9997000D02*
X35713000Y-9997000D01*
X35738000Y-10162000D02*
X35738000Y-10030000D01*
X35898000Y-9130000D02*
X35898000Y-9280000D01*
X35398000Y-13180000D02*
X35398000Y-13230000D01*
X35583000Y-10197000D02*
X35713000Y-10197000D01*
X35583000Y-10772000D02*
X35713000Y-10772000D01*
X34998000Y-9130000D02*
G75*
G02*
X35048000Y-9080000I50000J0D01*
G01*
X20948000Y-9380000D02*
G75*
G02*
X20898000Y-9330000I0J50000D01*
G01*
X10798000Y-9080000D02*
G75*
G02*
X10748000Y-9030000I0J50000D01*
G01*
X26048000Y-17930000D02*
X22348000Y-17930000D01*
X8248000Y-16780000D02*
X8248000Y-16330000D01*
X21798000Y-9330000D02*
X21798000Y-9130000D01*
X13648000Y-9080000D02*
X20548000Y-9080000D01*
X35848000Y-11230000D02*
X35548000Y-11230000D01*
X20898000Y-17530000D02*
X20898000Y-17830000D01*
X28898000Y-17480000D02*
X28898000Y-17680000D01*
X28898000Y-17680000D02*
X28898000Y-17880000D01*
X35738000Y-10734500D02*
X35738000Y-10607000D01*
X9723000Y-8470000D02*
X9778000Y-8470000D01*
X35583000Y-9997000D02*
X35558000Y-9997000D01*
X8248000Y-9580000D02*
X8248000Y-9430000D01*
X20548000Y-9080000D02*
X20798000Y-9080000D01*
X22148000Y-9080000D02*
X33998000Y-9080000D01*
X35738000Y-10197000D02*
X35738000Y-10162000D01*
X35738000Y-9622000D02*
X35738000Y-9432000D01*
X21698000Y-17080000D02*
G75*
G02*
X21798000Y-17180000I0J-100000D01*
G01*
X21798000Y-9330000D02*
G75*
G02*
X21748000Y-9380000I-50000J0D01*
G01*
X10798000Y-9080000D02*
X10848000Y-9080000D01*
X35558000Y-10607500D02*
X35558000Y-10735000D01*
X35558000Y-10772000D02*
X35583000Y-10772000D01*
D11*
D12*
X9888000Y-15099000D02*
X9918000Y-15129000D01*
X9918000Y-15099000D02*
X9888000Y-15129000D01*
X10158000Y-9537000D02*
X10188000Y-9567000D01*
X10188000Y-9537000D02*
X10158000Y-9567000D01*
X10158000Y-13095000D02*
X10188000Y-13125000D01*
X10188000Y-13095000D02*
X10158000Y-13125000D01*
X10195000Y-9302500D02*
X10225000Y-9332500D01*
X10225000Y-9302500D02*
X10195000Y-9332500D01*
X10367500Y-9302500D02*
X10397500Y-9332500D01*
X10397500Y-9302500D02*
X10367500Y-9332500D01*
X10367900Y-9208000D02*
X10397900Y-9238000D01*
X10397900Y-9208000D02*
X10367900Y-9238000D01*
X10367900Y-9387500D02*
X10397900Y-9417500D01*
X10397900Y-9387500D02*
X10367900Y-9417500D01*
X10432000Y-11497000D02*
X10462000Y-11527000D01*
X10462000Y-11497000D02*
X10432000Y-11527000D01*
X10600000Y-9207000D02*
X10630000Y-9237000D01*
X10630000Y-9207000D02*
X10600000Y-9237000D01*
X10614000Y-11494000D02*
X10644000Y-11524000D01*
X10644000Y-11494000D02*
X10614000Y-11524000D01*
X10740000Y-9397500D02*
X10770000Y-9427500D01*
X10770000Y-9397500D02*
X10740000Y-9427500D01*
X10752000Y-9208000D02*
X10782000Y-9238000D01*
X10782000Y-9208000D02*
X10752000Y-9238000D01*
X10924000Y-13377000D02*
X10954000Y-13407000D01*
X10954000Y-13377000D02*
X10924000Y-13407000D01*
X11155000Y-13380000D02*
X11185000Y-13410000D01*
X11185000Y-13380000D02*
X11155000Y-13410000D01*
X11227000Y-15281000D02*
X11257000Y-15311000D01*
X11257000Y-15281000D02*
X11227000Y-15311000D01*
X11413000Y-15283000D02*
X11443000Y-15313000D01*
X11443000Y-15283000D02*
X11413000Y-15313000D01*
X11687000Y-9537000D02*
X11717000Y-9567000D01*
X11717000Y-9537000D02*
X11687000Y-9567000D01*
X12450000Y-11530000D02*
X12480000Y-11560000D01*
X12480000Y-11530000D02*
X12450000Y-11560000D01*
X12643000Y-11546000D02*
X12673000Y-11576000D01*
X12673000Y-11546000D02*
X12643000Y-11576000D01*
X12960000Y-13378000D02*
X12990000Y-13408000D01*
X12990000Y-13378000D02*
X12960000Y-13408000D01*
X13228000Y-13372000D02*
X13258000Y-13402000D01*
X13258000Y-13372000D02*
X13228000Y-13402000D01*
X13325000Y-15158000D02*
X13355000Y-15188000D01*
X13355000Y-15158000D02*
X13325000Y-15188000D01*
X13328000Y-15530000D02*
X13358000Y-15560000D01*
X13358000Y-15530000D02*
X13328000Y-15560000D01*
X14322000Y-11731000D02*
X14352000Y-11761000D01*
X14352000Y-11731000D02*
X14322000Y-11761000D01*
X14516000Y-11756000D02*
X14546000Y-11786000D01*
X14546000Y-11756000D02*
X14516000Y-11786000D01*
X15042000Y-15282000D02*
X15072000Y-15312000D01*
X15072000Y-15282000D02*
X15042000Y-15312000D01*
X15132000Y-13656000D02*
X15162000Y-13686000D01*
X15162000Y-13656000D02*
X15132000Y-13686000D01*
X15348000Y-15282000D02*
X15378000Y-15312000D01*
X15378000Y-15282000D02*
X15348000Y-15312000D01*
X15361000Y-13654000D02*
X15391000Y-13684000D01*
X15391000Y-13654000D02*
X15361000Y-13684000D01*
X16216000Y-11982000D02*
X16246000Y-12012000D01*
X16246000Y-11982000D02*
X16216000Y-12012000D01*
X16422000Y-12011000D02*
X16452000Y-12041000D01*
X16452000Y-12011000D02*
X16422000Y-12041000D01*
X16999000Y-13927000D02*
X17029000Y-13957000D01*
X17029000Y-13927000D02*
X16999000Y-13957000D01*
X17022000Y-15904000D02*
X17052000Y-15934000D01*
X17052000Y-15904000D02*
X17022000Y-15934000D01*
X17174000Y-13931000D02*
X17204000Y-13961000D01*
X17204000Y-13931000D02*
X17174000Y-13961000D01*
X17184000Y-15926000D02*
X17214000Y-15956000D01*
X17214000Y-15926000D02*
X17184000Y-15956000D01*
X18099000Y-12259000D02*
X18129000Y-12289000D01*
X18129000Y-12259000D02*
X18099000Y-12289000D01*
X18300000Y-12289000D02*
X18330000Y-12319000D01*
X18330000Y-12289000D02*
X18300000Y-12319000D01*
X18886000Y-14189000D02*
X18916000Y-14219000D01*
X18916000Y-14189000D02*
X18886000Y-14219000D01*
X19113000Y-13816000D02*
X19143000Y-13846000D01*
X19143000Y-13816000D02*
X19113000Y-13846000D01*
X19147000Y-9422000D02*
X19177000Y-9452000D01*
X19177000Y-9422000D02*
X19147000Y-9452000D01*
X19164000Y-13892000D02*
X19194000Y-13922000D01*
X19194000Y-13892000D02*
X19164000Y-13922000D01*
X19477000Y-9422000D02*
X19507000Y-9452000D01*
X19507000Y-9422000D02*
X19477000Y-9452000D01*
X19782000Y-16554000D02*
X19812000Y-16584000D01*
X19812000Y-16554000D02*
X19782000Y-16584000D01*
X19974000Y-12487000D02*
X20004000Y-12517000D01*
X20004000Y-12487000D02*
X19974000Y-12517000D01*
X19987000Y-10430000D02*
X20017000Y-10460000D01*
X20017000Y-10430000D02*
X19987000Y-10460000D01*
X20387000Y-14264000D02*
X20417000Y-14294000D01*
X20417000Y-14264000D02*
X20387000Y-14294000D01*
X20525000Y-12248000D02*
X20555000Y-12278000D01*
X20555000Y-12248000D02*
X20525000Y-12278000D01*
X20535000Y-14532000D02*
X20565000Y-14562000D01*
X20565000Y-14532000D02*
X20535000Y-14562000D01*
X20644000Y-12862000D02*
X20674000Y-12892000D01*
X20674000Y-12862000D02*
X20644000Y-12892000D01*
X20745000Y-10559000D02*
X20775000Y-10589000D01*
X20775000Y-10559000D02*
X20745000Y-10589000D01*
X20839000Y-12753000D02*
X20869000Y-12783000D01*
X20869000Y-12753000D02*
X20839000Y-12783000D01*
X20846000Y-12415000D02*
X20876000Y-12445000D01*
X20876000Y-12415000D02*
X20846000Y-12445000D01*
X20925000Y-11911000D02*
X20955000Y-11941000D01*
X20955000Y-11911000D02*
X20925000Y-11941000D01*
X21085000Y-13008100D02*
X21115000Y-13038100D01*
X21115000Y-13008100D02*
X21085000Y-13038100D01*
X21390000Y-10430000D02*
X21420000Y-10460000D01*
X21420000Y-10430000D02*
X21390000Y-10460000D01*
X21561000Y-14405000D02*
X21591000Y-14435000D01*
X21591000Y-14405000D02*
X21561000Y-14435000D01*
X21763000Y-12867000D02*
X21793000Y-12897000D01*
X21793000Y-12867000D02*
X21763000Y-12897000D01*
X21888000Y-13020000D02*
X21918000Y-13050000D01*
X21918000Y-13020000D02*
X21888000Y-13050000D01*
X21894000Y-13179000D02*
X21924000Y-13209000D01*
X21924000Y-13179000D02*
X21894000Y-13209000D01*
X22256000Y-10714000D02*
X22286000Y-10744000D01*
X22286000Y-10714000D02*
X22256000Y-10744000D01*
X22453000Y-13779800D02*
X22483000Y-13809800D01*
X22483000Y-13779800D02*
X22453000Y-13809800D01*
X22481000Y-12218000D02*
X22511000Y-12248000D01*
X22511000Y-12218000D02*
X22481000Y-12248000D01*
X22628000Y-13845000D02*
X22658000Y-13875000D01*
X22658000Y-13845000D02*
X22628000Y-13875000D01*
X23072000Y-14258000D02*
X23102000Y-14288000D01*
X23102000Y-14258000D02*
X23072000Y-14288000D01*
X23964000Y-11034000D02*
X23994000Y-11064000D01*
X23994000Y-11034000D02*
X23964000Y-11064000D01*
X24199000Y-12161000D02*
X24229000Y-12191000D01*
X24229000Y-12161000D02*
X24199000Y-12191000D01*
X24329000Y-14086000D02*
X24359000Y-14116000D01*
X24359000Y-14086000D02*
X24329000Y-14116000D01*
X24428000Y-12161000D02*
X24458000Y-12191000D01*
X24458000Y-12161000D02*
X24428000Y-12191000D01*
X24516000Y-14083000D02*
X24546000Y-14113000D01*
X24546000Y-14083000D02*
X24516000Y-14113000D01*
X24640000Y-15955000D02*
X24670000Y-15985000D01*
X24670000Y-15955000D02*
X24640000Y-15985000D01*
X25372000Y-10215000D02*
X25402000Y-10245000D01*
X25402000Y-10215000D02*
X25372000Y-10245000D01*
X25503000Y-10086000D02*
X25533000Y-10116000D01*
X25533000Y-10086000D02*
X25503000Y-10116000D01*
X26058000Y-11861000D02*
X26088000Y-11891000D01*
X26088000Y-11861000D02*
X26058000Y-11891000D01*
X26171000Y-15684000D02*
X26201000Y-15714000D01*
X26201000Y-15684000D02*
X26171000Y-15714000D01*
X26186000Y-13838000D02*
X26216000Y-13868000D01*
X26216000Y-13838000D02*
X26186000Y-13868000D01*
X26274000Y-11817000D02*
X26304000Y-11847000D01*
X26304000Y-11817000D02*
X26274000Y-11847000D01*
X26401000Y-13836000D02*
X26431000Y-13866000D01*
X26431000Y-13836000D02*
X26401000Y-13866000D01*
X26519000Y-15680000D02*
X26549000Y-15710000D01*
X26549000Y-15680000D02*
X26519000Y-15710000D01*
X27253000Y-9774000D02*
X27283000Y-9804000D01*
X27283000Y-9774000D02*
X27253000Y-9804000D01*
X27469000Y-9728000D02*
X27499000Y-9758000D01*
X27499000Y-9728000D02*
X27469000Y-9758000D01*
X27879000Y-11448000D02*
X27909000Y-11478000D01*
X27909000Y-11448000D02*
X27879000Y-11478000D01*
X28126000Y-11410000D02*
X28156000Y-11440000D01*
X28156000Y-11410000D02*
X28126000Y-11440000D01*
X28412000Y-13437000D02*
X28442000Y-13467000D01*
X28442000Y-13437000D02*
X28412000Y-13467000D01*
X28593000Y-13430000D02*
X28623000Y-13460000D01*
X28623000Y-13430000D02*
X28593000Y-13460000D01*
X29229000Y-9532000D02*
X29259000Y-9562000D01*
X29259000Y-9532000D02*
X29229000Y-9562000D01*
X29493000Y-9531000D02*
X29523000Y-9561000D01*
X29523000Y-9531000D02*
X29493000Y-9561000D01*
X29869000Y-11407000D02*
X29899000Y-11437000D01*
X29899000Y-11407000D02*
X29869000Y-11437000D01*
X30122000Y-11408000D02*
X30152000Y-11438000D01*
X30152000Y-11408000D02*
X30122000Y-11438000D01*
X31170000Y-9525000D02*
X31200000Y-9555000D01*
X31200000Y-9525000D02*
X31170000Y-9555000D01*
X31384000Y-9528000D02*
X31414000Y-9558000D01*
X31414000Y-9528000D02*
X31384000Y-9558000D01*
X31501000Y-15310000D02*
X31531000Y-15340000D01*
X31531000Y-15310000D02*
X31501000Y-15340000D01*
X31529000Y-13401000D02*
X31559000Y-13431000D01*
X31559000Y-13401000D02*
X31529000Y-13431000D01*
X31735000Y-13399000D02*
X31765000Y-13429000D01*
X31765000Y-13399000D02*
X31735000Y-13429000D01*
X31767000Y-15311000D02*
X31797000Y-15341000D01*
X31797000Y-15311000D02*
X31767000Y-15341000D01*
X31905000Y-11319000D02*
X31935000Y-11349000D01*
X31935000Y-11319000D02*
X31905000Y-11349000D01*
X32135000Y-11559000D02*
X32165000Y-11589000D01*
X32165000Y-11559000D02*
X32135000Y-11589000D01*
X33275000Y-13375000D02*
X33305000Y-13405000D01*
X33305000Y-13375000D02*
X33275000Y-13405000D01*
X33289000Y-12982000D02*
X33319000Y-13012000D01*
X33319000Y-12982000D02*
X33289000Y-13012000D01*
X33349000Y-12906000D02*
X33379000Y-12936000D01*
X33379000Y-12906000D02*
X33349000Y-12936000D01*
X33458000Y-13377000D02*
X33488000Y-13407000D01*
X33488000Y-13377000D02*
X33458000Y-13407000D01*
X33674000Y-15301000D02*
X33704000Y-15331000D01*
X33704000Y-15301000D02*
X33674000Y-15331000D01*
X33901000Y-15313000D02*
X33931000Y-15343000D01*
X33931000Y-15313000D02*
X33901000Y-15343000D01*
D13*
X9806000Y-8606000D02*
G75*
G03*
X9806000Y-8606000I-30000J0D01*
G01*
D11*
X9756000Y-8576000D02*
X9756000Y-8636000D01*
X9796000Y-8576000D02*
X9796000Y-8636000D01*
X9756000Y-8636000D02*
G75*
G03*
X9796000Y-8636000I20000J0D01*
G01*
X9796000Y-8576000D02*
G75*
G03*
X9756000Y-8576000I-20000J0D01*
G01*
D13*
X9806000Y-9026000D02*
G75*
G03*
X9806000Y-9026000I-30000J0D01*
G01*
D11*
X9756000Y-8971000D02*
X9756000Y-9081000D01*
X9796000Y-8971000D02*
X9796000Y-9081000D01*
X9756000Y-9081000D02*
G75*
G03*
X9796000Y-9081000I20000J0D01*
G01*
X9796000Y-8971000D02*
G75*
G03*
X9756000Y-8971000I-20000J0D01*
G01*
D13*
X10666000Y-8606000D02*
G75*
G03*
X10666000Y-8606000I-30000J0D01*
G01*
D11*
X10616000Y-8576000D02*
X10616000Y-8636000D01*
X10656000Y-8576000D02*
X10656000Y-8636000D01*
X10616000Y-8636000D02*
G75*
G03*
X10656000Y-8636000I20000J0D01*
G01*
X10656000Y-8576000D02*
G75*
G03*
X10616000Y-8576000I-20000J0D01*
G01*
D13*
X10666000Y-9026000D02*
G75*
G03*
X10666000Y-9026000I-30000J0D01*
G01*
D11*
X10616000Y-8971000D02*
X10616000Y-9081000D01*
X10656000Y-8971000D02*
X10656000Y-9081000D01*
X10616000Y-9081000D02*
G75*
G03*
X10656000Y-9081000I20000J0D01*
G01*
X10656000Y-8971000D02*
G75*
G03*
X10616000Y-8971000I-20000J0D01*
G01*
X8475619Y-18270476D02*
X8475619Y-18070476D01*
X8523238Y-18070476D01*
X8551809Y-18080000D01*
X8570857Y-18099048D01*
X8580381Y-18118095D01*
X8589905Y-18156190D01*
X8589905Y-18184762D01*
X8580381Y-18222857D01*
X8570857Y-18241905D01*
X8551809Y-18260952D01*
X8523238Y-18270476D01*
X8475619Y-18270476D01*
X8675619Y-18270476D02*
X8675619Y-18137143D01*
X8675619Y-18175238D02*
X8685143Y-18156190D01*
X8694667Y-18146667D01*
X8713714Y-18137143D01*
X8732762Y-18137143D01*
X8799428Y-18270476D02*
X8799428Y-18137143D01*
X8799428Y-18070476D02*
X8789905Y-18080000D01*
X8799428Y-18089524D01*
X8808952Y-18080000D01*
X8799428Y-18070476D01*
X8799428Y-18089524D01*
X8923238Y-18270476D02*
X8904190Y-18260952D01*
X8894667Y-18241905D01*
X8894667Y-18070476D01*
X9028000Y-18270476D02*
X9008952Y-18260952D01*
X8999428Y-18241905D01*
X8999428Y-18070476D01*
X9256571Y-18270476D02*
X9256571Y-18070476D01*
X9323238Y-18213333D01*
X9389905Y-18070476D01*
X9389905Y-18270476D01*
X9570857Y-18270476D02*
X9570857Y-18165714D01*
X9561333Y-18146667D01*
X9542286Y-18137143D01*
X9504190Y-18137143D01*
X9485143Y-18146667D01*
X9570857Y-18260952D02*
X9551809Y-18270476D01*
X9504190Y-18270476D01*
X9485143Y-18260952D01*
X9475619Y-18241905D01*
X9475619Y-18222857D01*
X9485143Y-18203810D01*
X9504190Y-18194286D01*
X9551809Y-18194286D01*
X9570857Y-18184762D01*
X9666095Y-18137143D02*
X9666095Y-18337143D01*
X9666095Y-18146667D02*
X9685143Y-18137143D01*
X9723238Y-18137143D01*
X9742286Y-18146667D01*
X9751809Y-18156190D01*
X9761333Y-18175238D01*
X9761333Y-18232381D01*
X9751809Y-18251429D01*
X9742286Y-18260952D01*
X9723238Y-18270476D01*
X9685143Y-18270476D01*
X9666095Y-18260952D01*
X9847048Y-18251429D02*
X9856571Y-18260952D01*
X9847048Y-18270476D01*
X9837524Y-18260952D01*
X9847048Y-18251429D01*
X9847048Y-18270476D01*
X9847048Y-18146667D02*
X9856571Y-18156190D01*
X9847048Y-18165714D01*
X9837524Y-18156190D01*
X9847048Y-18146667D01*
X9847048Y-18165714D01*
D12*
X8188000Y-18585000D02*
X8218000Y-18615000D01*
X8218000Y-18585000D02*
X8188000Y-18615000D01*
D11*
X8513714Y-18490476D02*
X8532762Y-18490476D01*
X8551809Y-18500000D01*
X8561333Y-18509524D01*
X8570857Y-18528571D01*
X8580381Y-18566667D01*
X8580381Y-18614286D01*
X8570857Y-18652381D01*
X8561333Y-18671429D01*
X8551809Y-18680952D01*
X8532762Y-18690476D01*
X8513714Y-18690476D01*
X8494667Y-18680952D01*
X8485143Y-18671429D01*
X8475619Y-18652381D01*
X8466095Y-18614286D01*
X8466095Y-18566667D01*
X8475619Y-18528571D01*
X8485143Y-18509524D01*
X8494667Y-18500000D01*
X8513714Y-18490476D01*
X8666095Y-18671429D02*
X8675619Y-18680952D01*
X8666095Y-18690476D01*
X8656571Y-18680952D01*
X8666095Y-18671429D01*
X8666095Y-18690476D01*
X8742286Y-18490476D02*
X8866095Y-18490476D01*
X8799428Y-18566667D01*
X8828000Y-18566667D01*
X8847048Y-18576190D01*
X8856571Y-18585714D01*
X8866095Y-18604762D01*
X8866095Y-18652381D01*
X8856571Y-18671429D01*
X8847048Y-18680952D01*
X8828000Y-18690476D01*
X8770857Y-18690476D01*
X8751809Y-18680952D01*
X8742286Y-18671429D01*
X8989905Y-18490476D02*
X9008952Y-18490476D01*
X9028000Y-18500000D01*
X9037524Y-18509524D01*
X9047048Y-18528571D01*
X9056571Y-18566667D01*
X9056571Y-18614286D01*
X9047048Y-18652381D01*
X9037524Y-18671429D01*
X9028000Y-18680952D01*
X9008952Y-18690476D01*
X8989905Y-18690476D01*
X8970857Y-18680952D01*
X8961333Y-18671429D01*
X8951809Y-18652381D01*
X8942286Y-18614286D01*
X8942286Y-18566667D01*
X8951809Y-18528571D01*
X8961333Y-18509524D01*
X8970857Y-18500000D01*
X8989905Y-18490476D01*
X9180381Y-18490476D02*
X9199428Y-18490476D01*
X9218476Y-18500000D01*
X9228000Y-18509524D01*
X9237524Y-18528571D01*
X9247048Y-18566667D01*
X9247048Y-18614286D01*
X9237524Y-18652381D01*
X9228000Y-18671429D01*
X9218476Y-18680952D01*
X9199428Y-18690476D01*
X9180381Y-18690476D01*
X9161333Y-18680952D01*
X9151809Y-18671429D01*
X9142286Y-18652381D01*
X9132762Y-18614286D01*
X9132762Y-18566667D01*
X9142286Y-18528571D01*
X9151809Y-18509524D01*
X9161333Y-18500000D01*
X9180381Y-18490476D01*
X9332762Y-18690476D02*
X9332762Y-18557143D01*
X9332762Y-18576190D02*
X9342286Y-18566667D01*
X9361333Y-18557143D01*
X9389905Y-18557143D01*
X9408952Y-18566667D01*
X9418476Y-18585714D01*
X9418476Y-18690476D01*
X9418476Y-18585714D02*
X9428000Y-18566667D01*
X9447048Y-18557143D01*
X9475619Y-18557143D01*
X9494667Y-18566667D01*
X9504190Y-18585714D01*
X9504190Y-18690476D01*
X9599428Y-18690476D02*
X9599428Y-18557143D01*
X9599428Y-18576190D02*
X9608952Y-18566667D01*
X9628000Y-18557143D01*
X9656571Y-18557143D01*
X9675619Y-18566667D01*
X9685143Y-18585714D01*
X9685143Y-18690476D01*
X9685143Y-18585714D02*
X9694667Y-18566667D01*
X9713714Y-18557143D01*
X9742286Y-18557143D01*
X9761333Y-18566667D01*
X9770857Y-18585714D01*
X9770857Y-18690476D01*
X10161333Y-18480952D02*
X9989905Y-18738095D01*
X10418476Y-18490476D02*
X10437524Y-18490476D01*
X10456571Y-18500000D01*
X10466095Y-18509524D01*
X10475619Y-18528571D01*
X10485143Y-18566667D01*
X10485143Y-18614286D01*
X10475619Y-18652381D01*
X10466095Y-18671429D01*
X10456571Y-18680952D01*
X10437524Y-18690476D01*
X10418476Y-18690476D01*
X10399428Y-18680952D01*
X10389905Y-18671429D01*
X10380381Y-18652381D01*
X10370857Y-18614286D01*
X10370857Y-18566667D01*
X10380381Y-18528571D01*
X10389905Y-18509524D01*
X10399428Y-18500000D01*
X10418476Y-18490476D01*
X10570857Y-18671429D02*
X10580381Y-18680952D01*
X10570857Y-18690476D01*
X10561333Y-18680952D01*
X10570857Y-18671429D01*
X10570857Y-18690476D01*
X10704190Y-18490476D02*
X10723238Y-18490476D01*
X10742286Y-18500000D01*
X10751809Y-18509524D01*
X10761333Y-18528571D01*
X10770857Y-18566667D01*
X10770857Y-18614286D01*
X10761333Y-18652381D01*
X10751809Y-18671429D01*
X10742286Y-18680952D01*
X10723238Y-18690476D01*
X10704190Y-18690476D01*
X10685143Y-18680952D01*
X10675619Y-18671429D01*
X10666095Y-18652381D01*
X10656571Y-18614286D01*
X10656571Y-18566667D01*
X10666095Y-18528571D01*
X10675619Y-18509524D01*
X10685143Y-18500000D01*
X10704190Y-18490476D01*
X10961333Y-18690476D02*
X10847048Y-18690476D01*
X10904190Y-18690476D02*
X10904190Y-18490476D01*
X10885143Y-18519048D01*
X10866095Y-18538095D01*
X10847048Y-18547619D01*
X11151809Y-18690476D02*
X11037524Y-18690476D01*
X11094667Y-18690476D02*
X11094667Y-18490476D01*
X11075619Y-18519048D01*
X11056571Y-18538095D01*
X11037524Y-18547619D01*
X11266095Y-18576190D02*
X11247047Y-18566667D01*
X11237524Y-18557143D01*
X11228000Y-18538095D01*
X11228000Y-18528571D01*
X11237524Y-18509524D01*
X11247047Y-18500000D01*
X11266095Y-18490476D01*
X11304190Y-18490476D01*
X11323238Y-18500000D01*
X11332762Y-18509524D01*
X11342286Y-18528571D01*
X11342286Y-18538095D01*
X11332762Y-18557143D01*
X11323238Y-18566667D01*
X11304190Y-18576190D01*
X11266095Y-18576190D01*
X11247047Y-18585714D01*
X11237524Y-18595238D01*
X11228000Y-18614286D01*
X11228000Y-18652381D01*
X11237524Y-18671429D01*
X11247047Y-18680952D01*
X11266095Y-18690476D01*
X11304190Y-18690476D01*
X11323238Y-18680952D01*
X11332762Y-18671429D01*
X11342286Y-18652381D01*
X11342286Y-18614286D01*
X11332762Y-18595238D01*
X11323238Y-18585714D01*
X11304190Y-18576190D01*
X11418476Y-18490476D02*
X11418476Y-18528571D01*
X11494666Y-18490476D02*
X11494666Y-18528571D01*
X11789905Y-18766667D02*
X11780381Y-18757143D01*
X11761333Y-18728571D01*
X11751809Y-18709524D01*
X11742286Y-18680952D01*
X11732762Y-18633333D01*
X11732762Y-18595238D01*
X11742286Y-18547619D01*
X11751809Y-18519048D01*
X11761333Y-18500000D01*
X11780381Y-18471429D01*
X11789905Y-18461905D01*
X11970857Y-18690476D02*
X11856571Y-18690476D01*
X11913714Y-18690476D02*
X11913714Y-18490476D01*
X11894666Y-18519048D01*
X11875619Y-18538095D01*
X11856571Y-18547619D01*
X12094666Y-18490476D02*
X12113714Y-18490476D01*
X12132762Y-18500000D01*
X12142286Y-18509524D01*
X12151809Y-18528571D01*
X12161333Y-18566667D01*
X12161333Y-18614286D01*
X12151809Y-18652381D01*
X12142286Y-18671429D01*
X12132762Y-18680952D01*
X12113714Y-18690476D01*
X12094666Y-18690476D01*
X12075619Y-18680952D01*
X12066095Y-18671429D01*
X12056571Y-18652381D01*
X12047047Y-18614286D01*
X12047047Y-18566667D01*
X12056571Y-18528571D01*
X12066095Y-18509524D01*
X12075619Y-18500000D01*
X12094666Y-18490476D01*
X12237524Y-18509524D02*
X12247047Y-18500000D01*
X12266095Y-18490476D01*
X12313714Y-18490476D01*
X12332762Y-18500000D01*
X12342286Y-18509524D01*
X12351809Y-18528571D01*
X12351809Y-18547619D01*
X12342286Y-18576190D01*
X12228000Y-18690476D01*
X12351809Y-18690476D01*
X12589905Y-18690476D02*
X12589905Y-18490476D01*
X12675619Y-18690476D02*
X12675619Y-18585714D01*
X12666095Y-18566667D01*
X12647047Y-18557143D01*
X12618476Y-18557143D01*
X12599428Y-18566667D01*
X12589905Y-18576190D01*
X12799428Y-18690476D02*
X12780381Y-18680952D01*
X12770857Y-18671429D01*
X12761333Y-18652381D01*
X12761333Y-18595238D01*
X12770857Y-18576190D01*
X12780381Y-18566667D01*
X12799428Y-18557143D01*
X12828000Y-18557143D01*
X12847047Y-18566667D01*
X12856571Y-18576190D01*
X12866095Y-18595238D01*
X12866095Y-18652381D01*
X12856571Y-18671429D01*
X12847047Y-18680952D01*
X12828000Y-18690476D01*
X12799428Y-18690476D01*
X12980381Y-18690476D02*
X12961333Y-18680952D01*
X12951809Y-18661905D01*
X12951809Y-18490476D01*
X13132762Y-18680952D02*
X13113714Y-18690476D01*
X13075619Y-18690476D01*
X13056571Y-18680952D01*
X13047047Y-18661905D01*
X13047047Y-18585714D01*
X13056571Y-18566667D01*
X13075619Y-18557143D01*
X13113714Y-18557143D01*
X13132762Y-18566667D01*
X13142286Y-18585714D01*
X13142286Y-18604762D01*
X13047047Y-18623810D01*
X13218476Y-18680952D02*
X13237524Y-18690476D01*
X13275619Y-18690476D01*
X13294666Y-18680952D01*
X13304190Y-18661905D01*
X13304190Y-18652381D01*
X13294666Y-18633333D01*
X13275619Y-18623810D01*
X13247047Y-18623810D01*
X13228000Y-18614286D01*
X13218476Y-18595238D01*
X13218476Y-18585714D01*
X13228000Y-18566667D01*
X13247047Y-18557143D01*
X13275619Y-18557143D01*
X13294666Y-18566667D01*
X13370857Y-18766667D02*
X13380381Y-18757143D01*
X13399428Y-18728571D01*
X13408952Y-18709524D01*
X13418476Y-18680952D01*
X13428000Y-18633333D01*
X13428000Y-18595238D01*
X13418476Y-18547619D01*
X13408952Y-18519048D01*
X13399428Y-18500000D01*
X13380381Y-18471429D01*
X13370857Y-18461905D01*
D13*
X8218000Y-18864000D02*
G75*
G03*
X8218000Y-18864000I-30000J0D01*
G01*
D11*
X8513714Y-18754476D02*
X8532762Y-18754476D01*
X8551809Y-18764000D01*
X8561333Y-18773524D01*
X8570857Y-18792571D01*
X8580381Y-18830667D01*
X8580381Y-18878286D01*
X8570857Y-18916381D01*
X8561333Y-18935429D01*
X8551809Y-18944952D01*
X8532762Y-18954476D01*
X8513714Y-18954476D01*
X8494667Y-18944952D01*
X8485143Y-18935429D01*
X8475619Y-18916381D01*
X8466095Y-18878286D01*
X8466095Y-18830667D01*
X8475619Y-18792571D01*
X8485143Y-18773524D01*
X8494667Y-18764000D01*
X8513714Y-18754476D01*
X8666095Y-18935429D02*
X8675619Y-18944952D01*
X8666095Y-18954476D01*
X8656571Y-18944952D01*
X8666095Y-18935429D01*
X8666095Y-18954476D01*
X8847048Y-18754476D02*
X8808952Y-18754476D01*
X8789905Y-18764000D01*
X8780381Y-18773524D01*
X8761333Y-18802095D01*
X8751809Y-18840190D01*
X8751809Y-18916381D01*
X8761333Y-18935429D01*
X8770857Y-18944952D01*
X8789905Y-18954476D01*
X8828000Y-18954476D01*
X8847048Y-18944952D01*
X8856571Y-18935429D01*
X8866095Y-18916381D01*
X8866095Y-18868762D01*
X8856571Y-18849714D01*
X8847048Y-18840190D01*
X8828000Y-18830667D01*
X8789905Y-18830667D01*
X8770857Y-18840190D01*
X8761333Y-18849714D01*
X8751809Y-18868762D01*
X8989905Y-18754476D02*
X9008952Y-18754476D01*
X9028000Y-18764000D01*
X9037524Y-18773524D01*
X9047048Y-18792571D01*
X9056571Y-18830667D01*
X9056571Y-18878286D01*
X9047048Y-18916381D01*
X9037524Y-18935429D01*
X9028000Y-18944952D01*
X9008952Y-18954476D01*
X8989905Y-18954476D01*
X8970857Y-18944952D01*
X8961333Y-18935429D01*
X8951809Y-18916381D01*
X8942286Y-18878286D01*
X8942286Y-18830667D01*
X8951809Y-18792571D01*
X8961333Y-18773524D01*
X8970857Y-18764000D01*
X8989905Y-18754476D01*
X9180381Y-18754476D02*
X9199428Y-18754476D01*
X9218476Y-18764000D01*
X9228000Y-18773524D01*
X9237524Y-18792571D01*
X9247048Y-18830667D01*
X9247048Y-18878286D01*
X9237524Y-18916381D01*
X9228000Y-18935429D01*
X9218476Y-18944952D01*
X9199428Y-18954476D01*
X9180381Y-18954476D01*
X9161333Y-18944952D01*
X9151809Y-18935429D01*
X9142286Y-18916381D01*
X9132762Y-18878286D01*
X9132762Y-18830667D01*
X9142286Y-18792571D01*
X9151809Y-18773524D01*
X9161333Y-18764000D01*
X9180381Y-18754476D01*
X9332762Y-18954476D02*
X9332762Y-18821143D01*
X9332762Y-18840190D02*
X9342286Y-18830667D01*
X9361333Y-18821143D01*
X9389905Y-18821143D01*
X9408952Y-18830667D01*
X9418476Y-18849714D01*
X9418476Y-18954476D01*
X9418476Y-18849714D02*
X9428000Y-18830667D01*
X9447048Y-18821143D01*
X9475619Y-18821143D01*
X9494667Y-18830667D01*
X9504190Y-18849714D01*
X9504190Y-18954476D01*
X9599428Y-18954476D02*
X9599428Y-18821143D01*
X9599428Y-18840190D02*
X9608952Y-18830667D01*
X9628000Y-18821143D01*
X9656571Y-18821143D01*
X9675619Y-18830667D01*
X9685143Y-18849714D01*
X9685143Y-18954476D01*
X9685143Y-18849714D02*
X9694667Y-18830667D01*
X9713714Y-18821143D01*
X9742286Y-18821143D01*
X9761333Y-18830667D01*
X9770857Y-18849714D01*
X9770857Y-18954476D01*
X10161333Y-18744952D02*
X9989905Y-19002095D01*
X10418476Y-18754476D02*
X10437524Y-18754476D01*
X10456571Y-18764000D01*
X10466095Y-18773524D01*
X10475619Y-18792571D01*
X10485143Y-18830667D01*
X10485143Y-18878286D01*
X10475619Y-18916381D01*
X10466095Y-18935429D01*
X10456571Y-18944952D01*
X10437524Y-18954476D01*
X10418476Y-18954476D01*
X10399428Y-18944952D01*
X10389905Y-18935429D01*
X10380381Y-18916381D01*
X10370857Y-18878286D01*
X10370857Y-18830667D01*
X10380381Y-18792571D01*
X10389905Y-18773524D01*
X10399428Y-18764000D01*
X10418476Y-18754476D01*
X10570857Y-18935429D02*
X10580381Y-18944952D01*
X10570857Y-18954476D01*
X10561333Y-18944952D01*
X10570857Y-18935429D01*
X10570857Y-18954476D01*
X10704190Y-18754476D02*
X10723238Y-18754476D01*
X10742286Y-18764000D01*
X10751809Y-18773524D01*
X10761333Y-18792571D01*
X10770857Y-18830667D01*
X10770857Y-18878286D01*
X10761333Y-18916381D01*
X10751809Y-18935429D01*
X10742286Y-18944952D01*
X10723238Y-18954476D01*
X10704190Y-18954476D01*
X10685143Y-18944952D01*
X10675619Y-18935429D01*
X10666095Y-18916381D01*
X10656571Y-18878286D01*
X10656571Y-18830667D01*
X10666095Y-18792571D01*
X10675619Y-18773524D01*
X10685143Y-18764000D01*
X10704190Y-18754476D01*
X10847048Y-18773524D02*
X10856571Y-18764000D01*
X10875619Y-18754476D01*
X10923238Y-18754476D01*
X10942286Y-18764000D01*
X10951809Y-18773524D01*
X10961333Y-18792571D01*
X10961333Y-18811619D01*
X10951809Y-18840190D01*
X10837524Y-18954476D01*
X10961333Y-18954476D01*
X11028000Y-18754476D02*
X11151809Y-18754476D01*
X11085143Y-18830667D01*
X11113714Y-18830667D01*
X11132762Y-18840190D01*
X11142286Y-18849714D01*
X11151809Y-18868762D01*
X11151809Y-18916381D01*
X11142286Y-18935429D01*
X11132762Y-18944952D01*
X11113714Y-18954476D01*
X11056571Y-18954476D01*
X11037524Y-18944952D01*
X11028000Y-18935429D01*
X11323238Y-18754476D02*
X11285143Y-18754476D01*
X11266095Y-18764000D01*
X11256571Y-18773524D01*
X11237524Y-18802095D01*
X11228000Y-18840190D01*
X11228000Y-18916381D01*
X11237524Y-18935429D01*
X11247047Y-18944952D01*
X11266095Y-18954476D01*
X11304190Y-18954476D01*
X11323238Y-18944952D01*
X11332762Y-18935429D01*
X11342286Y-18916381D01*
X11342286Y-18868762D01*
X11332762Y-18849714D01*
X11323238Y-18840190D01*
X11304190Y-18830667D01*
X11266095Y-18830667D01*
X11247047Y-18840190D01*
X11237524Y-18849714D01*
X11228000Y-18868762D01*
X11418476Y-18754476D02*
X11418476Y-18792571D01*
X11494666Y-18754476D02*
X11494666Y-18792571D01*
X11789905Y-19030667D02*
X11780381Y-19021143D01*
X11761333Y-18992571D01*
X11751809Y-18973524D01*
X11742286Y-18944952D01*
X11732762Y-18897333D01*
X11732762Y-18859238D01*
X11742286Y-18811619D01*
X11751809Y-18783048D01*
X11761333Y-18764000D01*
X11780381Y-18735429D01*
X11789905Y-18725905D01*
X11904190Y-18754476D02*
X11923238Y-18754476D01*
X11942286Y-18764000D01*
X11951809Y-18773524D01*
X11961333Y-18792571D01*
X11970857Y-18830667D01*
X11970857Y-18878286D01*
X11961333Y-18916381D01*
X11951809Y-18935429D01*
X11942286Y-18944952D01*
X11923238Y-18954476D01*
X11904190Y-18954476D01*
X11885143Y-18944952D01*
X11875619Y-18935429D01*
X11866095Y-18916381D01*
X11856571Y-18878286D01*
X11856571Y-18830667D01*
X11866095Y-18792571D01*
X11875619Y-18773524D01*
X11885143Y-18764000D01*
X11904190Y-18754476D01*
X12208952Y-18954476D02*
X12208952Y-18754476D01*
X12294666Y-18954476D02*
X12294666Y-18849714D01*
X12285143Y-18830667D01*
X12266095Y-18821143D01*
X12237524Y-18821143D01*
X12218476Y-18830667D01*
X12208952Y-18840190D01*
X12418476Y-18954476D02*
X12399428Y-18944952D01*
X12389905Y-18935429D01*
X12380381Y-18916381D01*
X12380381Y-18859238D01*
X12389905Y-18840190D01*
X12399428Y-18830667D01*
X12418476Y-18821143D01*
X12447047Y-18821143D01*
X12466095Y-18830667D01*
X12475619Y-18840190D01*
X12485143Y-18859238D01*
X12485143Y-18916381D01*
X12475619Y-18935429D01*
X12466095Y-18944952D01*
X12447047Y-18954476D01*
X12418476Y-18954476D01*
X12599428Y-18954476D02*
X12580381Y-18944952D01*
X12570857Y-18925905D01*
X12570857Y-18754476D01*
X12751809Y-18944952D02*
X12732762Y-18954476D01*
X12694666Y-18954476D01*
X12675619Y-18944952D01*
X12666095Y-18925905D01*
X12666095Y-18849714D01*
X12675619Y-18830667D01*
X12694666Y-18821143D01*
X12732762Y-18821143D01*
X12751809Y-18830667D01*
X12761333Y-18849714D01*
X12761333Y-18868762D01*
X12666095Y-18887810D01*
X12837524Y-18944952D02*
X12856571Y-18954476D01*
X12894666Y-18954476D01*
X12913714Y-18944952D01*
X12923238Y-18925905D01*
X12923238Y-18916381D01*
X12913714Y-18897333D01*
X12894666Y-18887810D01*
X12866095Y-18887810D01*
X12847047Y-18878286D01*
X12837524Y-18859238D01*
X12837524Y-18849714D01*
X12847047Y-18830667D01*
X12866095Y-18821143D01*
X12894666Y-18821143D01*
X12913714Y-18830667D01*
X13161333Y-18878286D02*
X13313714Y-18878286D01*
X13237524Y-18954476D02*
X13237524Y-18802095D01*
X13647047Y-18821143D02*
X13647047Y-18954476D01*
X13599428Y-18744952D02*
X13551809Y-18887810D01*
X13675619Y-18887810D01*
X13894666Y-18944952D02*
X13913714Y-18954476D01*
X13951809Y-18954476D01*
X13970857Y-18944952D01*
X13980381Y-18925905D01*
X13980381Y-18916381D01*
X13970857Y-18897333D01*
X13951809Y-18887810D01*
X13923238Y-18887810D01*
X13904190Y-18878286D01*
X13894666Y-18859238D01*
X13894666Y-18849714D01*
X13904190Y-18830667D01*
X13923238Y-18821143D01*
X13951809Y-18821143D01*
X13970857Y-18830667D01*
X14094666Y-18954476D02*
X14075619Y-18944952D01*
X14066095Y-18925905D01*
X14066095Y-18754476D01*
X14199428Y-18954476D02*
X14180381Y-18944952D01*
X14170857Y-18935429D01*
X14161333Y-18916381D01*
X14161333Y-18859238D01*
X14170857Y-18840190D01*
X14180381Y-18830667D01*
X14199428Y-18821143D01*
X14228000Y-18821143D01*
X14247047Y-18830667D01*
X14256571Y-18840190D01*
X14266095Y-18859238D01*
X14266095Y-18916381D01*
X14256571Y-18935429D01*
X14247047Y-18944952D01*
X14228000Y-18954476D01*
X14199428Y-18954476D01*
X14323238Y-18821143D02*
X14399428Y-18821143D01*
X14351809Y-18754476D02*
X14351809Y-18925905D01*
X14361333Y-18944952D01*
X14380381Y-18954476D01*
X14399428Y-18954476D01*
X14456571Y-18944952D02*
X14475619Y-18954476D01*
X14513714Y-18954476D01*
X14532762Y-18944952D01*
X14542286Y-18925905D01*
X14542286Y-18916381D01*
X14532762Y-18897333D01*
X14513714Y-18887810D01*
X14485143Y-18887810D01*
X14466095Y-18878286D01*
X14456571Y-18859238D01*
X14456571Y-18849714D01*
X14466095Y-18830667D01*
X14485143Y-18821143D01*
X14513714Y-18821143D01*
X14532762Y-18830667D01*
X14608952Y-19030667D02*
X14618476Y-19021143D01*
X14637524Y-18992571D01*
X14647047Y-18973524D01*
X14656571Y-18944952D01*
X14666095Y-18897333D01*
X14666095Y-18859238D01*
X14656571Y-18811619D01*
X14647047Y-18783048D01*
X14637524Y-18764000D01*
X14618476Y-18735429D01*
X14608952Y-18725905D01*
M02*
