%FSLAX45Y45*%
G04 Gerber Fmt 4.5, Leading zero omitted, Abs format (unit mm)*
G04 Created by KiCad (PCBNEW (5.99.0-9176-ga1730d51ff)) date 2021-05-08 16:46:10*
%MOMM*%
%LPD*%
G01*
G04 APERTURE LIST*
%TA.AperFunction,Profile*%
%ADD10C,0.200000*%
%TD*%
%ADD11C,0.200000*%
%ADD12C,0.065000*%
%ADD13C,0.170180*%
%ADD14C,0.300000*%
%ADD15C,0.304800*%
%ADD16C,0.398780*%
G04 APERTURE END LIST*
D10*
X9673000Y-9330000D02*
X9673000Y-9280000D01*
X34998000Y-9180000D02*
X34998000Y-9130000D01*
X34998000Y-16830000D02*
X28948000Y-16830000D01*
X34998000Y-9330000D02*
X34998000Y-9230000D01*
X34298000Y-9380000D02*
X34898000Y-9380000D01*
X28898000Y-16880000D02*
X28898000Y-16980000D01*
X10848000Y-9080000D02*
X13448000Y-9080000D01*
X22098000Y-17930000D02*
X21898000Y-17930000D01*
X35898000Y-9380000D02*
X35898000Y-11180000D01*
X8398000Y-9380000D02*
X8948000Y-9380000D01*
X35738000Y-9422000D02*
X35558000Y-9422000D01*
X35398000Y-12280000D02*
X35398000Y-13030000D01*
X14148000Y-17930000D02*
G75*
G02*
X14098000Y-17880000I0J50000D01*
G01*
X28898000Y-17880000D02*
G75*
G02*
X28848000Y-17930000I-50000J0D01*
G01*
X35558000Y-9622000D02*
X35738000Y-9622000D01*
X20498000Y-17930000D02*
X19548000Y-17930000D01*
X14098000Y-17880000D02*
X14098000Y-17680000D01*
X10748000Y-8730000D02*
X10748000Y-9030000D01*
X35583000Y-10572000D02*
X35558000Y-10572000D01*
X34198000Y-9230000D02*
X34198000Y-9330000D01*
X20898000Y-17180000D02*
G75*
G02*
X20998000Y-17080000I100000J0D01*
G01*
X14098000Y-17580000D02*
X14098000Y-16880000D01*
X20848000Y-9080000D02*
G75*
G02*
X20898000Y-9130000I0J-50000D01*
G01*
X35558000Y-9997500D02*
X35558000Y-10032500D01*
X35398000Y-16780000D02*
G75*
G02*
X35348000Y-16830000I-50000J0D01*
G01*
X21798000Y-17530000D02*
X21798000Y-17180000D01*
X35398000Y-11830000D02*
X35398000Y-12180000D01*
X35738000Y-10030000D02*
X35738000Y-9997000D01*
X20648000Y-17930000D02*
X20498000Y-17930000D01*
X35248000Y-9080000D02*
X35448000Y-9080000D01*
X21698000Y-17080000D02*
X20998000Y-17080000D01*
X28898000Y-16880000D02*
G75*
G02*
X28948000Y-16830000I50000J0D01*
G01*
X9673000Y-8930000D02*
X9673000Y-8730000D01*
X35558000Y-10572000D02*
X35558000Y-10607500D01*
X35738000Y-10772000D02*
X35738000Y-10734500D01*
X35738000Y-10572000D02*
X35713000Y-10572000D01*
X35398000Y-11280000D02*
X35398000Y-11405000D01*
X34998000Y-9230000D02*
X34998000Y-9180000D01*
X35713000Y-10572000D02*
X35583000Y-10572000D01*
X9673000Y-9280000D02*
X9673000Y-8930000D01*
X34248000Y-9380000D02*
X34298000Y-9380000D01*
X35558000Y-10735000D02*
X35558000Y-10772000D01*
X14048000Y-16830000D02*
G75*
G02*
X14098000Y-16880000I0J-50000D01*
G01*
X35898000Y-9280000D02*
X35898000Y-9380000D01*
X35348000Y-16830000D02*
X34998000Y-16830000D01*
X35558000Y-10164500D02*
X35558000Y-10197000D01*
X8248000Y-16330000D02*
X8248000Y-9580000D01*
X35738000Y-9432000D02*
X35738000Y-9422000D01*
X9673000Y-9330000D02*
G75*
G02*
X9623000Y-9380000I-50000J0D01*
G01*
X8298000Y-9380000D02*
X8398000Y-9380000D01*
X8298000Y-16830000D02*
G75*
G02*
X8248000Y-16780000I0J50000D01*
G01*
X10748000Y-8530000D02*
X10748000Y-8730000D01*
X35898000Y-11180000D02*
G75*
G02*
X35848000Y-11230000I-50000J0D01*
G01*
X13448000Y-9080000D02*
X13648000Y-9080000D01*
X9778000Y-8470000D02*
X10708000Y-8470000D01*
X22198000Y-17930000D02*
X22098000Y-17930000D01*
X35398000Y-13280000D02*
X35398000Y-14230000D01*
X21798000Y-9130000D02*
G75*
G02*
X21848000Y-9080000I50000J0D01*
G01*
X20898000Y-17830000D02*
G75*
G02*
X20798000Y-17930000I-100000J0D01*
G01*
X34198000Y-9180000D02*
X34198000Y-9230000D01*
X20898000Y-17180000D02*
X20898000Y-17530000D01*
X9673000Y-8730000D02*
X9673000Y-8530000D01*
X20898000Y-9130000D02*
X20898000Y-9330000D01*
X9673000Y-8520000D02*
G75*
G02*
X9723000Y-8470000I50000J0D01*
G01*
X10748000Y-8510000D02*
X10748000Y-8530000D01*
X22348000Y-17930000D02*
X22198000Y-17930000D01*
X35748000Y-9080000D02*
X35848000Y-9080000D01*
X35713000Y-10772000D02*
X35738000Y-10772000D01*
X34148000Y-9080000D02*
G75*
G02*
X34198000Y-9130000I0J-50000D01*
G01*
X8948000Y-9380000D02*
X9098000Y-9380000D01*
X34198000Y-9130000D02*
X34198000Y-9180000D01*
X20798000Y-17930000D02*
X20698000Y-17930000D01*
X35558000Y-10197000D02*
X35583000Y-10197000D01*
X20798000Y-9080000D02*
X20848000Y-9080000D01*
X35048000Y-9080000D02*
X35248000Y-9080000D01*
X14248000Y-17930000D02*
X14148000Y-17930000D01*
X35738000Y-9997000D02*
X35727000Y-9997000D01*
X34898000Y-9380000D02*
X34948000Y-9380000D01*
X19548000Y-17930000D02*
X14248000Y-17930000D01*
X35713000Y-10197000D02*
X35738000Y-10197000D01*
X35558000Y-9997000D02*
X35558000Y-9997500D01*
X21898000Y-17930000D02*
G75*
G02*
X21798000Y-17830000I0J100000D01*
G01*
X35398000Y-11730000D02*
X35398000Y-11830000D01*
X35398000Y-12180000D02*
X35398000Y-12280000D01*
X35398000Y-11280000D02*
G75*
G02*
X35448000Y-11230000I50000J0D01*
G01*
X8248000Y-9430000D02*
G75*
G02*
X8298000Y-9380000I50000J0D01*
G01*
X9673000Y-8530000D02*
X9673000Y-8520000D01*
X14048000Y-16830000D02*
X8298000Y-16830000D01*
X14098000Y-17680000D02*
X14098000Y-17580000D01*
X35848000Y-9080000D02*
G75*
G02*
X35898000Y-9130000I0J-50000D01*
G01*
X21848000Y-9080000D02*
X22148000Y-9080000D01*
X9098000Y-9380000D02*
X9623000Y-9380000D01*
X35448000Y-9080000D02*
X35748000Y-9080000D01*
X35713000Y-9997000D02*
X35583000Y-9997000D01*
X35558000Y-9603000D02*
X35558000Y-9622000D01*
X35398000Y-14230000D02*
X35398000Y-16780000D01*
X35398000Y-13030000D02*
X35398000Y-13180000D01*
X35548000Y-11230000D02*
X35448000Y-11230000D01*
X10708000Y-8470000D02*
G75*
G02*
X10748000Y-8510000I0J-40000D01*
G01*
X34248000Y-9380000D02*
G75*
G02*
X34198000Y-9330000I0J50000D01*
G01*
X35558000Y-9422000D02*
X35558000Y-9501000D01*
X33998000Y-9080000D02*
X34148000Y-9080000D01*
X21798000Y-17830000D02*
X21798000Y-17530000D01*
X34998000Y-9330000D02*
G75*
G02*
X34948000Y-9380000I-50000J0D01*
G01*
X20948000Y-9380000D02*
X21748000Y-9380000D01*
X20698000Y-17930000D02*
X20648000Y-17930000D01*
X28898000Y-16980000D02*
X28898000Y-17480000D01*
X35738000Y-10607000D02*
X35738000Y-10572000D01*
X28848000Y-17930000D02*
X26048000Y-17930000D01*
X35398000Y-11405000D02*
X35398000Y-11730000D01*
X35558000Y-9501000D02*
X35558000Y-9603000D01*
X35398000Y-13230000D02*
X35398000Y-13280000D01*
X35558000Y-10032500D02*
X35558000Y-10164500D01*
X35727000Y-9997000D02*
X35713000Y-9997000D01*
X35738000Y-10162000D02*
X35738000Y-10030000D01*
X35898000Y-9130000D02*
X35898000Y-9280000D01*
X35398000Y-13180000D02*
X35398000Y-13230000D01*
X35583000Y-10197000D02*
X35713000Y-10197000D01*
X35583000Y-10772000D02*
X35713000Y-10772000D01*
X34998000Y-9130000D02*
G75*
G02*
X35048000Y-9080000I50000J0D01*
G01*
X20948000Y-9380000D02*
G75*
G02*
X20898000Y-9330000I0J50000D01*
G01*
X10798000Y-9080000D02*
G75*
G02*
X10748000Y-9030000I0J50000D01*
G01*
X26048000Y-17930000D02*
X22348000Y-17930000D01*
X8248000Y-16780000D02*
X8248000Y-16330000D01*
X21798000Y-9330000D02*
X21798000Y-9130000D01*
X13648000Y-9080000D02*
X20548000Y-9080000D01*
X35848000Y-11230000D02*
X35548000Y-11230000D01*
X20898000Y-17530000D02*
X20898000Y-17830000D01*
X28898000Y-17480000D02*
X28898000Y-17680000D01*
X28898000Y-17680000D02*
X28898000Y-17880000D01*
X35738000Y-10734500D02*
X35738000Y-10607000D01*
X9723000Y-8470000D02*
X9778000Y-8470000D01*
X35583000Y-9997000D02*
X35558000Y-9997000D01*
X8248000Y-9580000D02*
X8248000Y-9430000D01*
X20548000Y-9080000D02*
X20798000Y-9080000D01*
X22148000Y-9080000D02*
X33998000Y-9080000D01*
X35738000Y-10197000D02*
X35738000Y-10162000D01*
X35738000Y-9622000D02*
X35738000Y-9432000D01*
X21698000Y-17080000D02*
G75*
G02*
X21798000Y-17180000I0J-100000D01*
G01*
X21798000Y-9330000D02*
G75*
G02*
X21748000Y-9380000I-50000J0D01*
G01*
X10798000Y-9080000D02*
X10848000Y-9080000D01*
X35558000Y-10607500D02*
X35558000Y-10735000D01*
X35558000Y-10772000D02*
X35583000Y-10772000D01*
D11*
D12*
X9884500Y-8938400D02*
X9949500Y-9003400D01*
X9949500Y-8938400D02*
X9884500Y-9003400D01*
X10462500Y-8938400D02*
X10527500Y-9003400D01*
X10527500Y-8938400D02*
X10462500Y-9003400D01*
D13*
X8724590Y-15856000D02*
G75*
G03*
X8724590Y-15856000I-85090J0D01*
G01*
X8812090Y-12009000D02*
G75*
G03*
X8812090Y-12009000I-85090J0D01*
G01*
X8831590Y-10084000D02*
G75*
G03*
X8831590Y-10084000I-85090J0D01*
G01*
X8993590Y-13932000D02*
G75*
G03*
X8993590Y-13932000I-85090J0D01*
G01*
X9740590Y-15856000D02*
G75*
G03*
X9740590Y-15856000I-85090J0D01*
G01*
X9828090Y-12009000D02*
G75*
G03*
X9828090Y-12009000I-85090J0D01*
G01*
X9847590Y-10084000D02*
G75*
G03*
X9847590Y-10084000I-85090J0D01*
G01*
X10009590Y-13932000D02*
G75*
G03*
X10009590Y-13932000I-85090J0D01*
G01*
X10736090Y-10085000D02*
G75*
G03*
X10736090Y-10085000I-85090J0D01*
G01*
X10946090Y-12009000D02*
G75*
G03*
X10946090Y-12009000I-85090J0D01*
G01*
X11108590Y-15857500D02*
G75*
G03*
X11108590Y-15857500I-85090J0D01*
G01*
X11612090Y-13932000D02*
G75*
G03*
X11612090Y-13932000I-85090J0D01*
G01*
X11752090Y-10085000D02*
G75*
G03*
X11752090Y-10085000I-85090J0D01*
G01*
X11962090Y-12009000D02*
G75*
G03*
X11962090Y-12009000I-85090J0D01*
G01*
X12124590Y-15857500D02*
G75*
G03*
X12124590Y-15857500I-85090J0D01*
G01*
X12628090Y-13932000D02*
G75*
G03*
X12628090Y-13932000I-85090J0D01*
G01*
X12734034Y-10057300D02*
G75*
G03*
X12734034Y-10057300I-85090J0D01*
G01*
X12941034Y-12008300D02*
G75*
G03*
X12941034Y-12008300I-85090J0D01*
G01*
X13618034Y-14028300D02*
G75*
G03*
X13618034Y-14028300I-85090J0D01*
G01*
X13740146Y-10198700D02*
G75*
G03*
X13740146Y-10198700I-85090J0D01*
G01*
X13947146Y-12149700D02*
G75*
G03*
X13947146Y-12149700I-85090J0D01*
G01*
X14621034Y-10321300D02*
G75*
G03*
X14621034Y-10321300I-85090J0D01*
G01*
X14624146Y-14169700D02*
G75*
G03*
X14624146Y-14169700I-85090J0D01*
G01*
X14828034Y-12274300D02*
G75*
G03*
X14828034Y-12274300I-85090J0D01*
G01*
X15005534Y-16145800D02*
G75*
G03*
X15005534Y-16145800I-85090J0D01*
G01*
X15506034Y-14293300D02*
G75*
G03*
X15506034Y-14293300I-85090J0D01*
G01*
X15627146Y-10462700D02*
G75*
G03*
X15627146Y-10462700I-85090J0D01*
G01*
X15834146Y-12415700D02*
G75*
G03*
X15834146Y-12415700I-85090J0D01*
G01*
X16011646Y-16287200D02*
G75*
G03*
X16011646Y-16287200I-85090J0D01*
G01*
X16506534Y-10587300D02*
G75*
G03*
X16506534Y-10587300I-85090J0D01*
G01*
X16512146Y-14434700D02*
G75*
G03*
X16512146Y-14434700I-85090J0D01*
G01*
X16714034Y-12540300D02*
G75*
G03*
X16714034Y-12540300I-85090J0D01*
G01*
X17392034Y-14559300D02*
G75*
G03*
X17392034Y-14559300I-85090J0D01*
G01*
X17512646Y-10728700D02*
G75*
G03*
X17512646Y-10728700I-85090J0D01*
G01*
X17720146Y-12681700D02*
G75*
G03*
X17720146Y-12681700I-85090J0D01*
G01*
X18070034Y-16578300D02*
G75*
G03*
X18070034Y-16578300I-85090J0D01*
G01*
X18394034Y-10851300D02*
G75*
G03*
X18394034Y-10851300I-85090J0D01*
G01*
X18398146Y-14700700D02*
G75*
G03*
X18398146Y-14700700I-85090J0D01*
G01*
X18600034Y-12805300D02*
G75*
G03*
X18600034Y-12805300I-85090J0D01*
G01*
X19076146Y-16719700D02*
G75*
G03*
X19076146Y-16719700I-85090J0D01*
G01*
X19278034Y-14824300D02*
G75*
G03*
X19278034Y-14824300I-85090J0D01*
G01*
X19400146Y-10992700D02*
G75*
G03*
X19400146Y-10992700I-85090J0D01*
G01*
X19606146Y-12946700D02*
G75*
G03*
X19606146Y-12946700I-85090J0D01*
G01*
X20284146Y-14965700D02*
G75*
G03*
X20284146Y-14965700I-85090J0D01*
G01*
X22244034Y-11122700D02*
G75*
G03*
X22244034Y-11122700I-85090J0D01*
G01*
X22302034Y-14962700D02*
G75*
G03*
X22302034Y-14962700I-85090J0D01*
G01*
X22981034Y-12943700D02*
G75*
G03*
X22981034Y-12943700I-85090J0D01*
G01*
X23250146Y-10981300D02*
G75*
G03*
X23250146Y-10981300I-85090J0D01*
G01*
X23308146Y-14821300D02*
G75*
G03*
X23308146Y-14821300I-85090J0D01*
G01*
X23745988Y-16681700D02*
G75*
G03*
X23745988Y-16681700I-85090J0D01*
G01*
X23987146Y-12802300D02*
G75*
G03*
X23987146Y-12802300I-85090J0D01*
G01*
X24131034Y-10858700D02*
G75*
G03*
X24131034Y-10858700I-85090J0D01*
G01*
X24190034Y-14696700D02*
G75*
G03*
X24190034Y-14696700I-85090J0D01*
G01*
X24752100Y-16540300D02*
G75*
G03*
X24752100Y-16540300I-85090J0D01*
G01*
X24868034Y-12677700D02*
G75*
G03*
X24868034Y-12677700I-85090J0D01*
G01*
X25137146Y-10717300D02*
G75*
G03*
X25137146Y-10717300I-85090J0D01*
G01*
X25196146Y-14555300D02*
G75*
G03*
X25196146Y-14555300I-85090J0D01*
G01*
X25874146Y-12536300D02*
G75*
G03*
X25874146Y-12536300I-85090J0D01*
G01*
X26017034Y-10593700D02*
G75*
G03*
X26017034Y-10593700I-85090J0D01*
G01*
X26075034Y-14431700D02*
G75*
G03*
X26075034Y-14431700I-85090J0D01*
G01*
X26754034Y-12412700D02*
G75*
G03*
X26754034Y-12412700I-85090J0D01*
G01*
X27023146Y-10452300D02*
G75*
G03*
X27023146Y-10452300I-85090J0D01*
G01*
X27049034Y-16219700D02*
G75*
G03*
X27049034Y-16219700I-85090J0D01*
G01*
X27081146Y-14290300D02*
G75*
G03*
X27081146Y-14290300I-85090J0D01*
G01*
X27760146Y-12271300D02*
G75*
G03*
X27760146Y-12271300I-85090J0D01*
G01*
X27904034Y-10328700D02*
G75*
G03*
X27904034Y-10328700I-85090J0D01*
G01*
X27961034Y-14167700D02*
G75*
G03*
X27961034Y-14167700I-85090J0D01*
G01*
X28055146Y-16078300D02*
G75*
G03*
X28055146Y-16078300I-85090J0D01*
G01*
X28640034Y-12148700D02*
G75*
G03*
X28640034Y-12148700I-85090J0D01*
G01*
X28910146Y-10187300D02*
G75*
G03*
X28910146Y-10187300I-85090J0D01*
G01*
X28967146Y-14026300D02*
G75*
G03*
X28967146Y-14026300I-85090J0D01*
G01*
X29646146Y-12007300D02*
G75*
G03*
X29646146Y-12007300I-85090J0D01*
G01*
X29889090Y-10097000D02*
G75*
G03*
X29889090Y-10097000I-85090J0D01*
G01*
X29946090Y-13947000D02*
G75*
G03*
X29946090Y-13947000I-85090J0D01*
G01*
X30633090Y-12023000D02*
G75*
G03*
X30633090Y-12023000I-85090J0D01*
G01*
X30905090Y-10097000D02*
G75*
G03*
X30905090Y-10097000I-85090J0D01*
G01*
X30962090Y-13947000D02*
G75*
G03*
X30962090Y-13947000I-85090J0D01*
G01*
X31403694Y-15870000D02*
G75*
G03*
X31403694Y-15870000I-85090J0D01*
G01*
X31649090Y-12023000D02*
G75*
G03*
X31649090Y-12023000I-85090J0D01*
G01*
X31794090Y-10099000D02*
G75*
G03*
X31794090Y-10099000I-85090J0D01*
G01*
X31851090Y-13945000D02*
G75*
G03*
X31851090Y-13945000I-85090J0D01*
G01*
X32419694Y-15870000D02*
G75*
G03*
X32419694Y-15870000I-85090J0D01*
G01*
X32810090Y-10099000D02*
G75*
G03*
X32810090Y-10099000I-85090J0D01*
G01*
X32867090Y-13945000D02*
G75*
G03*
X32867090Y-13945000I-85090J0D01*
G01*
X33252090Y-12023000D02*
G75*
G03*
X33252090Y-12023000I-85090J0D01*
G01*
X33699090Y-10097000D02*
G75*
G03*
X33699090Y-10097000I-85090J0D01*
G01*
X33784090Y-15870000D02*
G75*
G03*
X33784090Y-15870000I-85090J0D01*
G01*
X33996090Y-13945000D02*
G75*
G03*
X33996090Y-13945000I-85090J0D01*
G01*
X34268090Y-12023000D02*
G75*
G03*
X34268090Y-12023000I-85090J0D01*
G01*
X34715090Y-10097000D02*
G75*
G03*
X34715090Y-10097000I-85090J0D01*
G01*
X34800090Y-15870000D02*
G75*
G03*
X34800090Y-15870000I-85090J0D01*
G01*
X35012090Y-13945000D02*
G75*
G03*
X35012090Y-13945000I-85090J0D01*
G01*
D14*
X8893500Y-16214000D02*
X8893500Y-16514000D01*
X8743500Y-16364000D02*
X9043500Y-16364000D01*
X8981000Y-12367000D02*
X8981000Y-12667000D01*
X8831000Y-12517000D02*
X9131000Y-12517000D01*
X9000500Y-10442000D02*
X9000500Y-10742000D01*
X8850500Y-10592000D02*
X9150500Y-10592000D01*
X9162500Y-14290000D02*
X9162500Y-14590000D01*
X9012500Y-14440000D02*
X9312500Y-14440000D01*
X9528500Y-15960000D02*
X9528500Y-16260000D01*
X9378500Y-16110000D02*
X9678500Y-16110000D01*
X9616000Y-12113000D02*
X9616000Y-12413000D01*
X9466000Y-12263000D02*
X9766000Y-12263000D01*
X9635500Y-10188000D02*
X9635500Y-10488000D01*
X9485500Y-10338000D02*
X9785500Y-10338000D01*
X9797500Y-14036000D02*
X9797500Y-14336000D01*
X9647500Y-14186000D02*
X9947500Y-14186000D01*
X10905000Y-10443000D02*
X10905000Y-10743000D01*
X10755000Y-10593000D02*
X11055000Y-10593000D01*
X11115000Y-12367000D02*
X11115000Y-12667000D01*
X10965000Y-12517000D02*
X11265000Y-12517000D01*
X11277500Y-16215500D02*
X11277500Y-16515500D01*
X11127500Y-16365500D02*
X11427500Y-16365500D01*
X11540000Y-10189000D02*
X11540000Y-10489000D01*
X11390000Y-10339000D02*
X11690000Y-10339000D01*
X11750000Y-12113000D02*
X11750000Y-12413000D01*
X11600000Y-12263000D02*
X11900000Y-12263000D01*
X11781000Y-14290000D02*
X11781000Y-14590000D01*
X11631000Y-14440000D02*
X11931000Y-14440000D01*
X11912500Y-15961500D02*
X11912500Y-16261500D01*
X11762500Y-16111500D02*
X12062500Y-16111500D01*
X12416000Y-14036000D02*
X12416000Y-14336000D01*
X12266000Y-14186000D02*
X12566000Y-14186000D01*
X12829772Y-10445706D02*
X12829772Y-10745706D01*
X12679772Y-10595706D02*
X12979772Y-10595706D01*
X13036772Y-12396706D02*
X13036772Y-12696706D01*
X12886772Y-12546706D02*
X13186772Y-12546706D01*
X13493942Y-10282553D02*
X13493942Y-10582553D01*
X13343942Y-10432553D02*
X13643942Y-10432553D01*
X13700942Y-12233553D02*
X13700942Y-12533553D01*
X13550942Y-12383553D02*
X13850942Y-12383553D01*
X13713772Y-14416706D02*
X13713772Y-14716706D01*
X13563772Y-14566706D02*
X13863772Y-14566706D01*
X14377942Y-14253553D02*
X14377942Y-14553553D01*
X14227942Y-14403553D02*
X14527942Y-14403553D01*
X14716772Y-10709706D02*
X14716772Y-11009706D01*
X14566772Y-10859706D02*
X14866772Y-10859706D01*
X14923772Y-12662706D02*
X14923772Y-12962706D01*
X14773772Y-12812706D02*
X15073772Y-12812706D01*
X15101272Y-16534206D02*
X15101272Y-16834206D01*
X14951272Y-16684206D02*
X15251272Y-16684206D01*
X15380942Y-10546553D02*
X15380942Y-10846553D01*
X15230942Y-10696553D02*
X15530942Y-10696553D01*
X15587942Y-12499553D02*
X15587942Y-12799553D01*
X15437942Y-12649553D02*
X15737942Y-12649553D01*
X15601772Y-14681706D02*
X15601772Y-14981706D01*
X15451772Y-14831706D02*
X15751772Y-14831706D01*
X15765442Y-16371053D02*
X15765442Y-16671053D01*
X15615442Y-16521053D02*
X15915442Y-16521053D01*
X16265942Y-14518553D02*
X16265942Y-14818553D01*
X16115942Y-14668553D02*
X16415942Y-14668553D01*
X16602272Y-10975706D02*
X16602272Y-11275706D01*
X16452272Y-11125706D02*
X16752272Y-11125706D01*
X16809772Y-12928706D02*
X16809772Y-13228706D01*
X16659772Y-13078706D02*
X16959772Y-13078706D01*
X17266442Y-10812553D02*
X17266442Y-11112553D01*
X17116442Y-10962553D02*
X17416442Y-10962553D01*
X17473942Y-12765553D02*
X17473942Y-13065553D01*
X17323942Y-12915553D02*
X17623942Y-12915553D01*
X17487772Y-14947706D02*
X17487772Y-15247706D01*
X17337772Y-15097706D02*
X17637772Y-15097706D01*
X18151942Y-14784553D02*
X18151942Y-15084553D01*
X18001942Y-14934553D02*
X18301942Y-14934553D01*
X18165772Y-16966706D02*
X18165772Y-17266706D01*
X18015772Y-17116706D02*
X18315772Y-17116706D01*
X18489772Y-11239706D02*
X18489772Y-11539706D01*
X18339772Y-11389706D02*
X18639772Y-11389706D01*
X18695772Y-13193706D02*
X18695772Y-13493706D01*
X18545772Y-13343706D02*
X18845772Y-13343706D01*
X18829942Y-16803553D02*
X18829942Y-17103553D01*
X18679942Y-16953553D02*
X18979942Y-16953553D01*
X19153942Y-11076553D02*
X19153942Y-11376553D01*
X19003942Y-11226553D02*
X19303942Y-11226553D01*
X19359942Y-13030553D02*
X19359942Y-13330553D01*
X19209942Y-13180553D02*
X19509942Y-13180553D01*
X19373772Y-15212706D02*
X19373772Y-15512706D01*
X19223772Y-15362706D02*
X19523772Y-15362706D01*
X20037942Y-15049553D02*
X20037942Y-15349553D01*
X19887942Y-15199553D02*
X20187942Y-15199553D01*
X22481172Y-11440406D02*
X22481172Y-11740406D01*
X22331172Y-11590406D02*
X22631172Y-11590406D01*
X22539172Y-15280406D02*
X22539172Y-15580406D01*
X22389172Y-15430406D02*
X22689172Y-15430406D01*
X23074642Y-11100503D02*
X23074642Y-11400503D01*
X22924642Y-11250503D02*
X23224642Y-11250503D01*
X23132642Y-14940503D02*
X23132642Y-15240503D01*
X22982642Y-15090503D02*
X23282642Y-15090503D01*
X23218172Y-13261406D02*
X23218172Y-13561406D01*
X23068172Y-13411406D02*
X23368172Y-13411406D01*
X23811642Y-12921503D02*
X23811642Y-13221503D01*
X23661642Y-13071503D02*
X23961642Y-13071503D01*
X23983126Y-16999406D02*
X23983126Y-17299406D01*
X23833126Y-17149406D02*
X24133126Y-17149406D01*
X24368172Y-11176406D02*
X24368172Y-11476406D01*
X24218172Y-11326406D02*
X24518172Y-11326406D01*
X24427172Y-15014406D02*
X24427172Y-15314406D01*
X24277172Y-15164406D02*
X24577172Y-15164406D01*
X24576596Y-16659503D02*
X24576596Y-16959503D01*
X24426596Y-16809503D02*
X24726596Y-16809503D01*
X24961642Y-10836503D02*
X24961642Y-11136503D01*
X24811642Y-10986503D02*
X25111642Y-10986503D01*
X25020642Y-14674503D02*
X25020642Y-14974503D01*
X24870642Y-14824503D02*
X25170642Y-14824503D01*
X25105172Y-12995406D02*
X25105172Y-13295406D01*
X24955172Y-13145406D02*
X25255172Y-13145406D01*
X25698642Y-12655503D02*
X25698642Y-12955503D01*
X25548642Y-12805503D02*
X25848642Y-12805503D01*
X26254172Y-10911406D02*
X26254172Y-11211406D01*
X26104172Y-11061406D02*
X26404172Y-11061406D01*
X26312172Y-14749406D02*
X26312172Y-15049406D01*
X26162172Y-14899406D02*
X26462172Y-14899406D01*
X26847642Y-10571503D02*
X26847642Y-10871503D01*
X26697642Y-10721503D02*
X26997642Y-10721503D01*
X26905642Y-14409503D02*
X26905642Y-14709503D01*
X26755642Y-14559503D02*
X27055642Y-14559503D01*
X26991172Y-12730406D02*
X26991172Y-13030406D01*
X26841172Y-12880406D02*
X27141172Y-12880406D01*
X27286172Y-16537406D02*
X27286172Y-16837406D01*
X27136172Y-16687406D02*
X27436172Y-16687406D01*
X27584642Y-12390503D02*
X27584642Y-12690503D01*
X27434642Y-12540503D02*
X27734642Y-12540503D01*
X27879642Y-16197503D02*
X27879642Y-16497503D01*
X27729642Y-16347503D02*
X28029642Y-16347503D01*
X28141172Y-10646406D02*
X28141172Y-10946406D01*
X27991172Y-10796406D02*
X28291172Y-10796406D01*
X28198172Y-14485406D02*
X28198172Y-14785406D01*
X28048172Y-14635406D02*
X28348172Y-14635406D01*
X28734642Y-10306503D02*
X28734642Y-10606503D01*
X28584642Y-10456503D02*
X28884642Y-10456503D01*
X28791642Y-14145503D02*
X28791642Y-14445503D01*
X28641642Y-14295503D02*
X28941642Y-14295503D01*
X28877172Y-12466406D02*
X28877172Y-12766406D01*
X28727172Y-12616406D02*
X29027172Y-12616406D01*
X29470642Y-12126503D02*
X29470642Y-12426503D01*
X29320642Y-12276503D02*
X29620642Y-12276503D01*
X30058000Y-10455000D02*
X30058000Y-10755000D01*
X29908000Y-10605000D02*
X30208000Y-10605000D01*
X30115000Y-14305000D02*
X30115000Y-14605000D01*
X29965000Y-14455000D02*
X30265000Y-14455000D01*
X30693000Y-10201000D02*
X30693000Y-10501000D01*
X30543000Y-10351000D02*
X30843000Y-10351000D01*
X30750000Y-14051000D02*
X30750000Y-14351000D01*
X30600000Y-14201000D02*
X30900000Y-14201000D01*
X30802000Y-12381000D02*
X30802000Y-12681000D01*
X30652000Y-12531000D02*
X30952000Y-12531000D01*
X31437000Y-12127000D02*
X31437000Y-12427000D01*
X31287000Y-12277000D02*
X31587000Y-12277000D01*
X31572604Y-16228000D02*
X31572604Y-16528000D01*
X31422604Y-16378000D02*
X31722604Y-16378000D01*
X31963000Y-10457000D02*
X31963000Y-10757000D01*
X31813000Y-10607000D02*
X32113000Y-10607000D01*
X32020000Y-14303000D02*
X32020000Y-14603000D01*
X31870000Y-14453000D02*
X32170000Y-14453000D01*
X32207604Y-15974000D02*
X32207604Y-16274000D01*
X32057604Y-16124000D02*
X32357604Y-16124000D01*
X32598000Y-10203000D02*
X32598000Y-10503000D01*
X32448000Y-10353000D02*
X32748000Y-10353000D01*
X32655000Y-14049000D02*
X32655000Y-14349000D01*
X32505000Y-14199000D02*
X32805000Y-14199000D01*
X33421000Y-12381000D02*
X33421000Y-12681000D01*
X33271000Y-12531000D02*
X33571000Y-12531000D01*
X33868000Y-10455000D02*
X33868000Y-10755000D01*
X33718000Y-10605000D02*
X34018000Y-10605000D01*
X33953000Y-16228000D02*
X33953000Y-16528000D01*
X33803000Y-16378000D02*
X34103000Y-16378000D01*
X34056000Y-12127000D02*
X34056000Y-12427000D01*
X33906000Y-12277000D02*
X34206000Y-12277000D01*
X34165000Y-14303000D02*
X34165000Y-14603000D01*
X34015000Y-14453000D02*
X34315000Y-14453000D01*
X34503000Y-10201000D02*
X34503000Y-10501000D01*
X34353000Y-10351000D02*
X34653000Y-10351000D01*
X34588000Y-15974000D02*
X34588000Y-16274000D01*
X34438000Y-16124000D02*
X34738000Y-16124000D01*
X34800000Y-14049000D02*
X34800000Y-14349000D01*
X34650000Y-14199000D02*
X34950000Y-14199000D01*
D15*
X17319133Y-17284228D02*
X17319133Y-17068699D01*
X17103605Y-17068699D01*
X17103605Y-17284228D01*
X17319133Y-17284228D01*
X19675971Y-17615459D02*
X19675971Y-17399931D01*
X19460443Y-17399931D01*
X19460443Y-17615459D01*
X19675971Y-17615459D01*
X23191026Y-17579165D02*
X23191026Y-17363636D01*
X22975498Y-17363636D01*
X22975498Y-17579165D01*
X23191026Y-17579165D01*
X25547864Y-17247933D02*
X25547864Y-17032405D01*
X25332336Y-17032405D01*
X25332336Y-17247933D01*
X25547864Y-17247933D01*
D16*
X9147500Y-16055390D02*
X9346890Y-15856000D01*
X9147500Y-15656610D01*
X8948110Y-15856000D01*
X9147500Y-16055390D01*
X9235000Y-12208390D02*
X9434390Y-12009000D01*
X9235000Y-11809610D01*
X9035610Y-12009000D01*
X9235000Y-12208390D01*
X9254500Y-10283390D02*
X9453890Y-10084000D01*
X9254500Y-9884610D01*
X9055110Y-10084000D01*
X9254500Y-10283390D01*
X9416500Y-14131390D02*
X9615890Y-13932000D01*
X9416500Y-13732610D01*
X9217110Y-13932000D01*
X9416500Y-14131390D01*
X11159000Y-10284390D02*
X11358390Y-10085000D01*
X11159000Y-9885610D01*
X10959610Y-10085000D01*
X11159000Y-10284390D01*
X11369000Y-12208390D02*
X11568390Y-12009000D01*
X11369000Y-11809610D01*
X11169610Y-12009000D01*
X11369000Y-12208390D01*
X11531500Y-16056890D02*
X11730890Y-15857500D01*
X11531500Y-15658110D01*
X11332110Y-15857500D01*
X11531500Y-16056890D01*
X12035000Y-14131390D02*
X12234390Y-13932000D01*
X12035000Y-13732610D01*
X11835610Y-13932000D01*
X12035000Y-14131390D01*
X13152000Y-10327390D02*
X13351390Y-10128000D01*
X13152000Y-9928610D01*
X12952610Y-10128000D01*
X13152000Y-10327390D01*
X13359000Y-12278390D02*
X13558390Y-12079000D01*
X13359000Y-11879610D01*
X13159610Y-12079000D01*
X13359000Y-12278390D01*
X14036000Y-14298390D02*
X14235390Y-14099000D01*
X14036000Y-13899610D01*
X13836610Y-14099000D01*
X14036000Y-14298390D01*
X15039000Y-10591390D02*
X15238390Y-10392000D01*
X15039000Y-10192610D01*
X14839610Y-10392000D01*
X15039000Y-10591390D01*
X15246000Y-12544390D02*
X15445390Y-12345000D01*
X15246000Y-12145610D01*
X15046610Y-12345000D01*
X15246000Y-12544390D01*
X15423500Y-16415890D02*
X15622890Y-16216500D01*
X15423500Y-16017110D01*
X15224110Y-16216500D01*
X15423500Y-16415890D01*
X15924000Y-14563390D02*
X16123390Y-14364000D01*
X15924000Y-14164610D01*
X15724610Y-14364000D01*
X15924000Y-14563390D01*
X16924500Y-10857390D02*
X17123890Y-10658000D01*
X16924500Y-10458610D01*
X16725110Y-10658000D01*
X16924500Y-10857390D01*
X17132000Y-12810390D02*
X17331390Y-12611000D01*
X17132000Y-12411610D01*
X16932610Y-12611000D01*
X17132000Y-12810390D01*
X17423468Y-15866685D02*
X17622858Y-15667295D01*
X17423468Y-15467905D01*
X17224078Y-15667295D01*
X17423468Y-15866685D01*
X17810000Y-14829390D02*
X18009390Y-14630000D01*
X17810000Y-14430610D01*
X17610610Y-14630000D01*
X17810000Y-14829390D01*
X18488000Y-16848390D02*
X18687390Y-16649000D01*
X18488000Y-16449610D01*
X18288610Y-16649000D01*
X18488000Y-16848390D01*
X18812000Y-11121390D02*
X19011390Y-10922000D01*
X18812000Y-10722610D01*
X18612610Y-10922000D01*
X18812000Y-11121390D01*
X19018000Y-13075390D02*
X19217390Y-12876000D01*
X19018000Y-12676610D01*
X18818610Y-12876000D01*
X19018000Y-13075390D01*
X19696000Y-15094390D02*
X19895390Y-14895000D01*
X19696000Y-14695610D01*
X19496610Y-14895000D01*
X19696000Y-15094390D01*
X19780306Y-16197917D02*
X19979696Y-15998527D01*
X19780306Y-15799137D01*
X19580916Y-15998527D01*
X19780306Y-16197917D01*
X22662000Y-11251390D02*
X22861390Y-11052000D01*
X22662000Y-10852610D01*
X22462610Y-11052000D01*
X22662000Y-11251390D01*
X22720000Y-15091390D02*
X22919390Y-14892000D01*
X22720000Y-14692610D01*
X22520610Y-14892000D01*
X22720000Y-15091390D01*
X22871162Y-16161622D02*
X23070552Y-15962232D01*
X22871162Y-15762842D01*
X22671772Y-15962232D01*
X22871162Y-16161622D01*
X23399000Y-13072390D02*
X23598390Y-12873000D01*
X23399000Y-12673610D01*
X23199610Y-12873000D01*
X23399000Y-13072390D01*
X24163954Y-16810390D02*
X24363344Y-16611000D01*
X24163954Y-16411610D01*
X23964564Y-16611000D01*
X24163954Y-16810390D01*
X24549000Y-10987390D02*
X24748390Y-10788000D01*
X24549000Y-10588610D01*
X24349610Y-10788000D01*
X24549000Y-10987390D01*
X24608000Y-14825390D02*
X24807390Y-14626000D01*
X24608000Y-14426610D01*
X24408610Y-14626000D01*
X24608000Y-14825390D01*
X25228000Y-15830390D02*
X25427390Y-15631000D01*
X25228000Y-15431610D01*
X25028610Y-15631000D01*
X25228000Y-15830390D01*
X25286000Y-12806390D02*
X25485390Y-12607000D01*
X25286000Y-12407610D01*
X25086610Y-12607000D01*
X25286000Y-12806390D01*
X26435000Y-10722390D02*
X26634390Y-10523000D01*
X26435000Y-10323610D01*
X26235610Y-10523000D01*
X26435000Y-10722390D01*
X26493000Y-14560390D02*
X26692390Y-14361000D01*
X26493000Y-14161610D01*
X26293610Y-14361000D01*
X26493000Y-14560390D01*
X27172000Y-12541390D02*
X27371390Y-12342000D01*
X27172000Y-12142610D01*
X26972610Y-12342000D01*
X27172000Y-12541390D01*
X27467000Y-16348390D02*
X27666390Y-16149000D01*
X27467000Y-15949610D01*
X27267610Y-16149000D01*
X27467000Y-16348390D01*
X28322000Y-10457390D02*
X28521390Y-10258000D01*
X28322000Y-10058610D01*
X28122610Y-10258000D01*
X28322000Y-10457390D01*
X28379000Y-14296390D02*
X28578390Y-14097000D01*
X28379000Y-13897610D01*
X28179610Y-14097000D01*
X28379000Y-14296390D01*
X29058000Y-12277390D02*
X29257390Y-12078000D01*
X29058000Y-11878610D01*
X28858610Y-12078000D01*
X29058000Y-12277390D01*
X30312000Y-10296390D02*
X30511390Y-10097000D01*
X30312000Y-9897610D01*
X30112610Y-10097000D01*
X30312000Y-10296390D01*
X30369000Y-14146390D02*
X30568390Y-13947000D01*
X30369000Y-13747610D01*
X30169610Y-13947000D01*
X30369000Y-14146390D01*
X31056000Y-12222390D02*
X31255390Y-12023000D01*
X31056000Y-11823610D01*
X30856610Y-12023000D01*
X31056000Y-12222390D01*
X31826604Y-16069390D02*
X32025994Y-15870000D01*
X31826604Y-15670610D01*
X31627214Y-15870000D01*
X31826604Y-16069390D01*
X32217000Y-10298390D02*
X32416390Y-10099000D01*
X32217000Y-9899610D01*
X32017610Y-10099000D01*
X32217000Y-10298390D01*
X32274000Y-14144390D02*
X32473390Y-13945000D01*
X32274000Y-13745610D01*
X32074610Y-13945000D01*
X32274000Y-14144390D01*
X33675000Y-12222390D02*
X33874390Y-12023000D01*
X33675000Y-11823610D01*
X33475610Y-12023000D01*
X33675000Y-12222390D01*
X34122000Y-10296390D02*
X34321390Y-10097000D01*
X34122000Y-9897610D01*
X33922610Y-10097000D01*
X34122000Y-10296390D01*
X34207000Y-16069390D02*
X34406390Y-15870000D01*
X34207000Y-15670610D01*
X34007610Y-15870000D01*
X34207000Y-16069390D01*
X34419000Y-14144390D02*
X34618390Y-13945000D01*
X34419000Y-13745610D01*
X34219610Y-13945000D01*
X34419000Y-14144390D01*
D11*
X8475619Y-18270476D02*
X8475619Y-18070476D01*
X8523238Y-18070476D01*
X8551809Y-18080000D01*
X8570857Y-18099048D01*
X8580381Y-18118095D01*
X8589905Y-18156190D01*
X8589905Y-18184762D01*
X8580381Y-18222857D01*
X8570857Y-18241905D01*
X8551809Y-18260952D01*
X8523238Y-18270476D01*
X8475619Y-18270476D01*
X8675619Y-18270476D02*
X8675619Y-18137143D01*
X8675619Y-18175238D02*
X8685143Y-18156190D01*
X8694667Y-18146667D01*
X8713714Y-18137143D01*
X8732762Y-18137143D01*
X8799428Y-18270476D02*
X8799428Y-18137143D01*
X8799428Y-18070476D02*
X8789905Y-18080000D01*
X8799428Y-18089524D01*
X8808952Y-18080000D01*
X8799428Y-18070476D01*
X8799428Y-18089524D01*
X8923238Y-18270476D02*
X8904190Y-18260952D01*
X8894667Y-18241905D01*
X8894667Y-18070476D01*
X9028000Y-18270476D02*
X9008952Y-18260952D01*
X8999428Y-18241905D01*
X8999428Y-18070476D01*
X9256571Y-18270476D02*
X9256571Y-18070476D01*
X9323238Y-18213333D01*
X9389905Y-18070476D01*
X9389905Y-18270476D01*
X9570857Y-18270476D02*
X9570857Y-18165714D01*
X9561333Y-18146667D01*
X9542286Y-18137143D01*
X9504190Y-18137143D01*
X9485143Y-18146667D01*
X9570857Y-18260952D02*
X9551809Y-18270476D01*
X9504190Y-18270476D01*
X9485143Y-18260952D01*
X9475619Y-18241905D01*
X9475619Y-18222857D01*
X9485143Y-18203810D01*
X9504190Y-18194286D01*
X9551809Y-18194286D01*
X9570857Y-18184762D01*
X9666095Y-18137143D02*
X9666095Y-18337143D01*
X9666095Y-18146667D02*
X9685143Y-18137143D01*
X9723238Y-18137143D01*
X9742286Y-18146667D01*
X9751809Y-18156190D01*
X9761333Y-18175238D01*
X9761333Y-18232381D01*
X9751809Y-18251429D01*
X9742286Y-18260952D01*
X9723238Y-18270476D01*
X9685143Y-18270476D01*
X9666095Y-18260952D01*
X9847048Y-18251429D02*
X9856571Y-18260952D01*
X9847048Y-18270476D01*
X9837524Y-18260952D01*
X9847048Y-18251429D01*
X9847048Y-18270476D01*
X9847048Y-18146667D02*
X9856571Y-18156190D01*
X9847048Y-18165714D01*
X9837524Y-18156190D01*
X9847048Y-18146667D01*
X9847048Y-18165714D01*
D12*
X8153000Y-18567500D02*
X8218000Y-18632500D01*
X8218000Y-18567500D02*
X8153000Y-18632500D01*
D11*
X8513714Y-18490476D02*
X8532762Y-18490476D01*
X8551809Y-18500000D01*
X8561333Y-18509524D01*
X8570857Y-18528571D01*
X8580381Y-18566667D01*
X8580381Y-18614286D01*
X8570857Y-18652381D01*
X8561333Y-18671429D01*
X8551809Y-18680952D01*
X8532762Y-18690476D01*
X8513714Y-18690476D01*
X8494667Y-18680952D01*
X8485143Y-18671429D01*
X8475619Y-18652381D01*
X8466095Y-18614286D01*
X8466095Y-18566667D01*
X8475619Y-18528571D01*
X8485143Y-18509524D01*
X8494667Y-18500000D01*
X8513714Y-18490476D01*
X8666095Y-18671429D02*
X8675619Y-18680952D01*
X8666095Y-18690476D01*
X8656571Y-18680952D01*
X8666095Y-18671429D01*
X8666095Y-18690476D01*
X8847048Y-18490476D02*
X8808952Y-18490476D01*
X8789905Y-18500000D01*
X8780381Y-18509524D01*
X8761333Y-18538095D01*
X8751809Y-18576190D01*
X8751809Y-18652381D01*
X8761333Y-18671429D01*
X8770857Y-18680952D01*
X8789905Y-18690476D01*
X8828000Y-18690476D01*
X8847048Y-18680952D01*
X8856571Y-18671429D01*
X8866095Y-18652381D01*
X8866095Y-18604762D01*
X8856571Y-18585714D01*
X8847048Y-18576190D01*
X8828000Y-18566667D01*
X8789905Y-18566667D01*
X8770857Y-18576190D01*
X8761333Y-18585714D01*
X8751809Y-18604762D01*
X9047048Y-18490476D02*
X8951809Y-18490476D01*
X8942286Y-18585714D01*
X8951809Y-18576190D01*
X8970857Y-18566667D01*
X9018476Y-18566667D01*
X9037524Y-18576190D01*
X9047048Y-18585714D01*
X9056571Y-18604762D01*
X9056571Y-18652381D01*
X9047048Y-18671429D01*
X9037524Y-18680952D01*
X9018476Y-18690476D01*
X8970857Y-18690476D01*
X8951809Y-18680952D01*
X8942286Y-18671429D01*
X9180381Y-18490476D02*
X9199428Y-18490476D01*
X9218476Y-18500000D01*
X9228000Y-18509524D01*
X9237524Y-18528571D01*
X9247048Y-18566667D01*
X9247048Y-18614286D01*
X9237524Y-18652381D01*
X9228000Y-18671429D01*
X9218476Y-18680952D01*
X9199428Y-18690476D01*
X9180381Y-18690476D01*
X9161333Y-18680952D01*
X9151809Y-18671429D01*
X9142286Y-18652381D01*
X9132762Y-18614286D01*
X9132762Y-18566667D01*
X9142286Y-18528571D01*
X9151809Y-18509524D01*
X9161333Y-18500000D01*
X9180381Y-18490476D01*
X9332762Y-18690476D02*
X9332762Y-18557143D01*
X9332762Y-18576190D02*
X9342286Y-18566667D01*
X9361333Y-18557143D01*
X9389905Y-18557143D01*
X9408952Y-18566667D01*
X9418476Y-18585714D01*
X9418476Y-18690476D01*
X9418476Y-18585714D02*
X9428000Y-18566667D01*
X9447048Y-18557143D01*
X9475619Y-18557143D01*
X9494667Y-18566667D01*
X9504190Y-18585714D01*
X9504190Y-18690476D01*
X9599428Y-18690476D02*
X9599428Y-18557143D01*
X9599428Y-18576190D02*
X9608952Y-18566667D01*
X9628000Y-18557143D01*
X9656571Y-18557143D01*
X9675619Y-18566667D01*
X9685143Y-18585714D01*
X9685143Y-18690476D01*
X9685143Y-18585714D02*
X9694667Y-18566667D01*
X9713714Y-18557143D01*
X9742286Y-18557143D01*
X9761333Y-18566667D01*
X9770857Y-18585714D01*
X9770857Y-18690476D01*
X10161333Y-18480952D02*
X9989905Y-18738095D01*
X10418476Y-18490476D02*
X10437524Y-18490476D01*
X10456571Y-18500000D01*
X10466095Y-18509524D01*
X10475619Y-18528571D01*
X10485143Y-18566667D01*
X10485143Y-18614286D01*
X10475619Y-18652381D01*
X10466095Y-18671429D01*
X10456571Y-18680952D01*
X10437524Y-18690476D01*
X10418476Y-18690476D01*
X10399428Y-18680952D01*
X10389905Y-18671429D01*
X10380381Y-18652381D01*
X10370857Y-18614286D01*
X10370857Y-18566667D01*
X10380381Y-18528571D01*
X10389905Y-18509524D01*
X10399428Y-18500000D01*
X10418476Y-18490476D01*
X10570857Y-18671429D02*
X10580381Y-18680952D01*
X10570857Y-18690476D01*
X10561333Y-18680952D01*
X10570857Y-18671429D01*
X10570857Y-18690476D01*
X10704190Y-18490476D02*
X10723238Y-18490476D01*
X10742286Y-18500000D01*
X10751809Y-18509524D01*
X10761333Y-18528571D01*
X10770857Y-18566667D01*
X10770857Y-18614286D01*
X10761333Y-18652381D01*
X10751809Y-18671429D01*
X10742286Y-18680952D01*
X10723238Y-18690476D01*
X10704190Y-18690476D01*
X10685143Y-18680952D01*
X10675619Y-18671429D01*
X10666095Y-18652381D01*
X10656571Y-18614286D01*
X10656571Y-18566667D01*
X10666095Y-18528571D01*
X10675619Y-18509524D01*
X10685143Y-18500000D01*
X10704190Y-18490476D01*
X10847048Y-18509524D02*
X10856571Y-18500000D01*
X10875619Y-18490476D01*
X10923238Y-18490476D01*
X10942286Y-18500000D01*
X10951809Y-18509524D01*
X10961333Y-18528571D01*
X10961333Y-18547619D01*
X10951809Y-18576190D01*
X10837524Y-18690476D01*
X10961333Y-18690476D01*
X11142286Y-18490476D02*
X11047048Y-18490476D01*
X11037524Y-18585714D01*
X11047048Y-18576190D01*
X11066095Y-18566667D01*
X11113714Y-18566667D01*
X11132762Y-18576190D01*
X11142286Y-18585714D01*
X11151809Y-18604762D01*
X11151809Y-18652381D01*
X11142286Y-18671429D01*
X11132762Y-18680952D01*
X11113714Y-18690476D01*
X11066095Y-18690476D01*
X11047048Y-18680952D01*
X11037524Y-18671429D01*
X11323238Y-18490476D02*
X11285143Y-18490476D01*
X11266095Y-18500000D01*
X11256571Y-18509524D01*
X11237524Y-18538095D01*
X11228000Y-18576190D01*
X11228000Y-18652381D01*
X11237524Y-18671429D01*
X11247047Y-18680952D01*
X11266095Y-18690476D01*
X11304190Y-18690476D01*
X11323238Y-18680952D01*
X11332762Y-18671429D01*
X11342286Y-18652381D01*
X11342286Y-18604762D01*
X11332762Y-18585714D01*
X11323238Y-18576190D01*
X11304190Y-18566667D01*
X11266095Y-18566667D01*
X11247047Y-18576190D01*
X11237524Y-18585714D01*
X11228000Y-18604762D01*
X11418476Y-18490476D02*
X11418476Y-18528571D01*
X11494666Y-18490476D02*
X11494666Y-18528571D01*
X11789905Y-18766667D02*
X11780381Y-18757143D01*
X11761333Y-18728571D01*
X11751809Y-18709524D01*
X11742286Y-18680952D01*
X11732762Y-18633333D01*
X11732762Y-18595238D01*
X11742286Y-18547619D01*
X11751809Y-18519048D01*
X11761333Y-18500000D01*
X11780381Y-18471429D01*
X11789905Y-18461905D01*
X11856571Y-18509524D02*
X11866095Y-18500000D01*
X11885143Y-18490476D01*
X11932762Y-18490476D01*
X11951809Y-18500000D01*
X11961333Y-18509524D01*
X11970857Y-18528571D01*
X11970857Y-18547619D01*
X11961333Y-18576190D01*
X11847047Y-18690476D01*
X11970857Y-18690476D01*
X12208952Y-18690476D02*
X12208952Y-18490476D01*
X12294666Y-18690476D02*
X12294666Y-18585714D01*
X12285143Y-18566667D01*
X12266095Y-18557143D01*
X12237524Y-18557143D01*
X12218476Y-18566667D01*
X12208952Y-18576190D01*
X12418476Y-18690476D02*
X12399428Y-18680952D01*
X12389905Y-18671429D01*
X12380381Y-18652381D01*
X12380381Y-18595238D01*
X12389905Y-18576190D01*
X12399428Y-18566667D01*
X12418476Y-18557143D01*
X12447047Y-18557143D01*
X12466095Y-18566667D01*
X12475619Y-18576190D01*
X12485143Y-18595238D01*
X12485143Y-18652381D01*
X12475619Y-18671429D01*
X12466095Y-18680952D01*
X12447047Y-18690476D01*
X12418476Y-18690476D01*
X12599428Y-18690476D02*
X12580381Y-18680952D01*
X12570857Y-18661905D01*
X12570857Y-18490476D01*
X12751809Y-18680952D02*
X12732762Y-18690476D01*
X12694666Y-18690476D01*
X12675619Y-18680952D01*
X12666095Y-18661905D01*
X12666095Y-18585714D01*
X12675619Y-18566667D01*
X12694666Y-18557143D01*
X12732762Y-18557143D01*
X12751809Y-18566667D01*
X12761333Y-18585714D01*
X12761333Y-18604762D01*
X12666095Y-18623810D01*
X12837524Y-18680952D02*
X12856571Y-18690476D01*
X12894666Y-18690476D01*
X12913714Y-18680952D01*
X12923238Y-18661905D01*
X12923238Y-18652381D01*
X12913714Y-18633333D01*
X12894666Y-18623810D01*
X12866095Y-18623810D01*
X12847047Y-18614286D01*
X12837524Y-18595238D01*
X12837524Y-18585714D01*
X12847047Y-18566667D01*
X12866095Y-18557143D01*
X12894666Y-18557143D01*
X12913714Y-18566667D01*
X12989905Y-18766667D02*
X12999428Y-18757143D01*
X13018476Y-18728571D01*
X13028000Y-18709524D01*
X13037524Y-18680952D01*
X13047047Y-18633333D01*
X13047047Y-18595238D01*
X13037524Y-18547619D01*
X13028000Y-18519048D01*
X13018476Y-18500000D01*
X12999428Y-18471429D01*
X12989905Y-18461905D01*
X13351809Y-18766667D02*
X13342286Y-18757143D01*
X13323238Y-18728571D01*
X13313714Y-18709524D01*
X13304190Y-18680952D01*
X13294666Y-18633333D01*
X13294666Y-18595238D01*
X13304190Y-18547619D01*
X13313714Y-18519048D01*
X13323238Y-18500000D01*
X13342286Y-18471429D01*
X13351809Y-18461905D01*
X13428000Y-18557143D02*
X13428000Y-18690476D01*
X13428000Y-18576190D02*
X13437524Y-18566667D01*
X13456571Y-18557143D01*
X13485143Y-18557143D01*
X13504190Y-18566667D01*
X13513714Y-18585714D01*
X13513714Y-18690476D01*
X13637524Y-18690476D02*
X13618476Y-18680952D01*
X13608952Y-18671429D01*
X13599428Y-18652381D01*
X13599428Y-18595238D01*
X13608952Y-18576190D01*
X13618476Y-18566667D01*
X13637524Y-18557143D01*
X13666095Y-18557143D01*
X13685143Y-18566667D01*
X13694666Y-18576190D01*
X13704190Y-18595238D01*
X13704190Y-18652381D01*
X13694666Y-18671429D01*
X13685143Y-18680952D01*
X13666095Y-18690476D01*
X13637524Y-18690476D01*
X13761333Y-18557143D02*
X13837524Y-18557143D01*
X13789905Y-18490476D02*
X13789905Y-18661905D01*
X13799428Y-18680952D01*
X13818476Y-18690476D01*
X13837524Y-18690476D01*
X14056571Y-18557143D02*
X14056571Y-18757143D01*
X14056571Y-18566667D02*
X14075619Y-18557143D01*
X14113714Y-18557143D01*
X14132762Y-18566667D01*
X14142286Y-18576190D01*
X14151809Y-18595238D01*
X14151809Y-18652381D01*
X14142286Y-18671429D01*
X14132762Y-18680952D01*
X14113714Y-18690476D01*
X14075619Y-18690476D01*
X14056571Y-18680952D01*
X14266095Y-18690476D02*
X14247047Y-18680952D01*
X14237524Y-18661905D01*
X14237524Y-18490476D01*
X14428000Y-18690476D02*
X14428000Y-18585714D01*
X14418476Y-18566667D01*
X14399428Y-18557143D01*
X14361333Y-18557143D01*
X14342286Y-18566667D01*
X14428000Y-18680952D02*
X14408952Y-18690476D01*
X14361333Y-18690476D01*
X14342286Y-18680952D01*
X14332762Y-18661905D01*
X14332762Y-18642857D01*
X14342286Y-18623810D01*
X14361333Y-18614286D01*
X14408952Y-18614286D01*
X14428000Y-18604762D01*
X14494666Y-18557143D02*
X14570857Y-18557143D01*
X14523238Y-18490476D02*
X14523238Y-18661905D01*
X14532762Y-18680952D01*
X14551809Y-18690476D01*
X14570857Y-18690476D01*
X14713714Y-18680952D02*
X14694666Y-18690476D01*
X14656571Y-18690476D01*
X14637524Y-18680952D01*
X14628000Y-18661905D01*
X14628000Y-18585714D01*
X14637524Y-18566667D01*
X14656571Y-18557143D01*
X14694666Y-18557143D01*
X14713714Y-18566667D01*
X14723238Y-18585714D01*
X14723238Y-18604762D01*
X14628000Y-18623810D01*
X14894666Y-18690476D02*
X14894666Y-18490476D01*
X14894666Y-18680952D02*
X14875619Y-18690476D01*
X14837524Y-18690476D01*
X14818476Y-18680952D01*
X14808952Y-18671429D01*
X14799428Y-18652381D01*
X14799428Y-18595238D01*
X14808952Y-18576190D01*
X14818476Y-18566667D01*
X14837524Y-18557143D01*
X14875619Y-18557143D01*
X14894666Y-18566667D01*
X14970857Y-18766667D02*
X14980381Y-18757143D01*
X14999428Y-18728571D01*
X15008952Y-18709524D01*
X15018476Y-18680952D01*
X15028000Y-18633333D01*
X15028000Y-18595238D01*
X15018476Y-18547619D01*
X15008952Y-18519048D01*
X14999428Y-18500000D01*
X14980381Y-18471429D01*
X14970857Y-18461905D01*
D13*
X8218000Y-18864000D02*
G75*
G03*
X8218000Y-18864000I-85090J0D01*
G01*
D11*
X8580381Y-18954476D02*
X8466095Y-18954476D01*
X8523238Y-18954476D02*
X8523238Y-18754476D01*
X8504190Y-18783048D01*
X8485143Y-18802095D01*
X8466095Y-18811619D01*
X8666095Y-18935429D02*
X8675619Y-18944952D01*
X8666095Y-18954476D01*
X8656571Y-18944952D01*
X8666095Y-18935429D01*
X8666095Y-18954476D01*
X8742286Y-18754476D02*
X8875619Y-18754476D01*
X8789905Y-18954476D01*
X8989905Y-18754476D02*
X9008952Y-18754476D01*
X9028000Y-18764000D01*
X9037524Y-18773524D01*
X9047048Y-18792571D01*
X9056571Y-18830667D01*
X9056571Y-18878286D01*
X9047048Y-18916381D01*
X9037524Y-18935429D01*
X9028000Y-18944952D01*
X9008952Y-18954476D01*
X8989905Y-18954476D01*
X8970857Y-18944952D01*
X8961333Y-18935429D01*
X8951809Y-18916381D01*
X8942286Y-18878286D01*
X8942286Y-18830667D01*
X8951809Y-18792571D01*
X8961333Y-18773524D01*
X8970857Y-18764000D01*
X8989905Y-18754476D01*
X9132762Y-18773524D02*
X9142286Y-18764000D01*
X9161333Y-18754476D01*
X9208952Y-18754476D01*
X9228000Y-18764000D01*
X9237524Y-18773524D01*
X9247048Y-18792571D01*
X9247048Y-18811619D01*
X9237524Y-18840190D01*
X9123238Y-18954476D01*
X9247048Y-18954476D01*
X9332762Y-18954476D02*
X9332762Y-18821143D01*
X9332762Y-18840190D02*
X9342286Y-18830667D01*
X9361333Y-18821143D01*
X9389905Y-18821143D01*
X9408952Y-18830667D01*
X9418476Y-18849714D01*
X9418476Y-18954476D01*
X9418476Y-18849714D02*
X9428000Y-18830667D01*
X9447048Y-18821143D01*
X9475619Y-18821143D01*
X9494667Y-18830667D01*
X9504190Y-18849714D01*
X9504190Y-18954476D01*
X9599428Y-18954476D02*
X9599428Y-18821143D01*
X9599428Y-18840190D02*
X9608952Y-18830667D01*
X9628000Y-18821143D01*
X9656571Y-18821143D01*
X9675619Y-18830667D01*
X9685143Y-18849714D01*
X9685143Y-18954476D01*
X9685143Y-18849714D02*
X9694667Y-18830667D01*
X9713714Y-18821143D01*
X9742286Y-18821143D01*
X9761333Y-18830667D01*
X9770857Y-18849714D01*
X9770857Y-18954476D01*
X10161333Y-18744952D02*
X9989905Y-19002095D01*
X10418476Y-18754476D02*
X10437524Y-18754476D01*
X10456571Y-18764000D01*
X10466095Y-18773524D01*
X10475619Y-18792571D01*
X10485143Y-18830667D01*
X10485143Y-18878286D01*
X10475619Y-18916381D01*
X10466095Y-18935429D01*
X10456571Y-18944952D01*
X10437524Y-18954476D01*
X10418476Y-18954476D01*
X10399428Y-18944952D01*
X10389905Y-18935429D01*
X10380381Y-18916381D01*
X10370857Y-18878286D01*
X10370857Y-18830667D01*
X10380381Y-18792571D01*
X10389905Y-18773524D01*
X10399428Y-18764000D01*
X10418476Y-18754476D01*
X10570857Y-18935429D02*
X10580381Y-18944952D01*
X10570857Y-18954476D01*
X10561333Y-18944952D01*
X10570857Y-18935429D01*
X10570857Y-18954476D01*
X10704190Y-18754476D02*
X10723238Y-18754476D01*
X10742286Y-18764000D01*
X10751809Y-18773524D01*
X10761333Y-18792571D01*
X10770857Y-18830667D01*
X10770857Y-18878286D01*
X10761333Y-18916381D01*
X10751809Y-18935429D01*
X10742286Y-18944952D01*
X10723238Y-18954476D01*
X10704190Y-18954476D01*
X10685143Y-18944952D01*
X10675619Y-18935429D01*
X10666095Y-18916381D01*
X10656571Y-18878286D01*
X10656571Y-18830667D01*
X10666095Y-18792571D01*
X10675619Y-18773524D01*
X10685143Y-18764000D01*
X10704190Y-18754476D01*
X10942286Y-18754476D02*
X10904190Y-18754476D01*
X10885143Y-18764000D01*
X10875619Y-18773524D01*
X10856571Y-18802095D01*
X10847048Y-18840190D01*
X10847048Y-18916381D01*
X10856571Y-18935429D01*
X10866095Y-18944952D01*
X10885143Y-18954476D01*
X10923238Y-18954476D01*
X10942286Y-18944952D01*
X10951809Y-18935429D01*
X10961333Y-18916381D01*
X10961333Y-18868762D01*
X10951809Y-18849714D01*
X10942286Y-18840190D01*
X10923238Y-18830667D01*
X10885143Y-18830667D01*
X10866095Y-18840190D01*
X10856571Y-18849714D01*
X10847048Y-18868762D01*
X11028000Y-18754476D02*
X11161333Y-18754476D01*
X11075619Y-18954476D01*
X11275619Y-18754476D02*
X11294666Y-18754476D01*
X11313714Y-18764000D01*
X11323238Y-18773524D01*
X11332762Y-18792571D01*
X11342286Y-18830667D01*
X11342286Y-18878286D01*
X11332762Y-18916381D01*
X11323238Y-18935429D01*
X11313714Y-18944952D01*
X11294666Y-18954476D01*
X11275619Y-18954476D01*
X11256571Y-18944952D01*
X11247047Y-18935429D01*
X11237524Y-18916381D01*
X11228000Y-18878286D01*
X11228000Y-18830667D01*
X11237524Y-18792571D01*
X11247047Y-18773524D01*
X11256571Y-18764000D01*
X11275619Y-18754476D01*
X11418476Y-18754476D02*
X11418476Y-18792571D01*
X11494666Y-18754476D02*
X11494666Y-18792571D01*
X11789905Y-19030667D02*
X11780381Y-19021143D01*
X11761333Y-18992571D01*
X11751809Y-18973524D01*
X11742286Y-18944952D01*
X11732762Y-18897333D01*
X11732762Y-18859238D01*
X11742286Y-18811619D01*
X11751809Y-18783048D01*
X11761333Y-18764000D01*
X11780381Y-18735429D01*
X11789905Y-18725905D01*
X11875619Y-18954476D02*
X11913714Y-18954476D01*
X11932762Y-18944952D01*
X11942286Y-18935429D01*
X11961333Y-18906857D01*
X11970857Y-18868762D01*
X11970857Y-18792571D01*
X11961333Y-18773524D01*
X11951809Y-18764000D01*
X11932762Y-18754476D01*
X11894666Y-18754476D01*
X11875619Y-18764000D01*
X11866095Y-18773524D01*
X11856571Y-18792571D01*
X11856571Y-18840190D01*
X11866095Y-18859238D01*
X11875619Y-18868762D01*
X11894666Y-18878286D01*
X11932762Y-18878286D01*
X11951809Y-18868762D01*
X11961333Y-18859238D01*
X11970857Y-18840190D01*
X12047047Y-18773524D02*
X12056571Y-18764000D01*
X12075619Y-18754476D01*
X12123238Y-18754476D01*
X12142286Y-18764000D01*
X12151809Y-18773524D01*
X12161333Y-18792571D01*
X12161333Y-18811619D01*
X12151809Y-18840190D01*
X12037524Y-18954476D01*
X12161333Y-18954476D01*
X12399428Y-18954476D02*
X12399428Y-18754476D01*
X12485143Y-18954476D02*
X12485143Y-18849714D01*
X12475619Y-18830667D01*
X12456571Y-18821143D01*
X12428000Y-18821143D01*
X12408952Y-18830667D01*
X12399428Y-18840190D01*
X12608952Y-18954476D02*
X12589905Y-18944952D01*
X12580381Y-18935429D01*
X12570857Y-18916381D01*
X12570857Y-18859238D01*
X12580381Y-18840190D01*
X12589905Y-18830667D01*
X12608952Y-18821143D01*
X12637524Y-18821143D01*
X12656571Y-18830667D01*
X12666095Y-18840190D01*
X12675619Y-18859238D01*
X12675619Y-18916381D01*
X12666095Y-18935429D01*
X12656571Y-18944952D01*
X12637524Y-18954476D01*
X12608952Y-18954476D01*
X12789905Y-18954476D02*
X12770857Y-18944952D01*
X12761333Y-18925905D01*
X12761333Y-18754476D01*
X12942286Y-18944952D02*
X12923238Y-18954476D01*
X12885143Y-18954476D01*
X12866095Y-18944952D01*
X12856571Y-18925905D01*
X12856571Y-18849714D01*
X12866095Y-18830667D01*
X12885143Y-18821143D01*
X12923238Y-18821143D01*
X12942286Y-18830667D01*
X12951809Y-18849714D01*
X12951809Y-18868762D01*
X12856571Y-18887810D01*
X13028000Y-18944952D02*
X13047047Y-18954476D01*
X13085143Y-18954476D01*
X13104190Y-18944952D01*
X13113714Y-18925905D01*
X13113714Y-18916381D01*
X13104190Y-18897333D01*
X13085143Y-18887810D01*
X13056571Y-18887810D01*
X13037524Y-18878286D01*
X13028000Y-18859238D01*
X13028000Y-18849714D01*
X13037524Y-18830667D01*
X13056571Y-18821143D01*
X13085143Y-18821143D01*
X13104190Y-18830667D01*
X13180381Y-19030667D02*
X13189905Y-19021143D01*
X13208952Y-18992571D01*
X13218476Y-18973524D01*
X13228000Y-18944952D01*
X13237524Y-18897333D01*
X13237524Y-18859238D01*
X13228000Y-18811619D01*
X13218476Y-18783048D01*
X13208952Y-18764000D01*
X13189905Y-18735429D01*
X13180381Y-18725905D01*
X13542286Y-19030667D02*
X13532762Y-19021143D01*
X13513714Y-18992571D01*
X13504190Y-18973524D01*
X13494666Y-18944952D01*
X13485143Y-18897333D01*
X13485143Y-18859238D01*
X13494666Y-18811619D01*
X13504190Y-18783048D01*
X13513714Y-18764000D01*
X13532762Y-18735429D01*
X13542286Y-18725905D01*
X13618476Y-18821143D02*
X13618476Y-18954476D01*
X13618476Y-18840190D02*
X13628000Y-18830667D01*
X13647047Y-18821143D01*
X13675619Y-18821143D01*
X13694666Y-18830667D01*
X13704190Y-18849714D01*
X13704190Y-18954476D01*
X13828000Y-18954476D02*
X13808952Y-18944952D01*
X13799428Y-18935429D01*
X13789905Y-18916381D01*
X13789905Y-18859238D01*
X13799428Y-18840190D01*
X13808952Y-18830667D01*
X13828000Y-18821143D01*
X13856571Y-18821143D01*
X13875619Y-18830667D01*
X13885143Y-18840190D01*
X13894666Y-18859238D01*
X13894666Y-18916381D01*
X13885143Y-18935429D01*
X13875619Y-18944952D01*
X13856571Y-18954476D01*
X13828000Y-18954476D01*
X13951809Y-18821143D02*
X14028000Y-18821143D01*
X13980381Y-18754476D02*
X13980381Y-18925905D01*
X13989905Y-18944952D01*
X14008952Y-18954476D01*
X14028000Y-18954476D01*
X14247047Y-18821143D02*
X14247047Y-19021143D01*
X14247047Y-18830667D02*
X14266095Y-18821143D01*
X14304190Y-18821143D01*
X14323238Y-18830667D01*
X14332762Y-18840190D01*
X14342286Y-18859238D01*
X14342286Y-18916381D01*
X14332762Y-18935429D01*
X14323238Y-18944952D01*
X14304190Y-18954476D01*
X14266095Y-18954476D01*
X14247047Y-18944952D01*
X14456571Y-18954476D02*
X14437524Y-18944952D01*
X14428000Y-18925905D01*
X14428000Y-18754476D01*
X14618476Y-18954476D02*
X14618476Y-18849714D01*
X14608952Y-18830667D01*
X14589905Y-18821143D01*
X14551809Y-18821143D01*
X14532762Y-18830667D01*
X14618476Y-18944952D02*
X14599428Y-18954476D01*
X14551809Y-18954476D01*
X14532762Y-18944952D01*
X14523238Y-18925905D01*
X14523238Y-18906857D01*
X14532762Y-18887810D01*
X14551809Y-18878286D01*
X14599428Y-18878286D01*
X14618476Y-18868762D01*
X14685143Y-18821143D02*
X14761333Y-18821143D01*
X14713714Y-18754476D02*
X14713714Y-18925905D01*
X14723238Y-18944952D01*
X14742286Y-18954476D01*
X14761333Y-18954476D01*
X14904190Y-18944952D02*
X14885143Y-18954476D01*
X14847047Y-18954476D01*
X14828000Y-18944952D01*
X14818476Y-18925905D01*
X14818476Y-18849714D01*
X14828000Y-18830667D01*
X14847047Y-18821143D01*
X14885143Y-18821143D01*
X14904190Y-18830667D01*
X14913714Y-18849714D01*
X14913714Y-18868762D01*
X14818476Y-18887810D01*
X15085143Y-18954476D02*
X15085143Y-18754476D01*
X15085143Y-18944952D02*
X15066095Y-18954476D01*
X15028000Y-18954476D01*
X15008952Y-18944952D01*
X14999428Y-18935429D01*
X14989905Y-18916381D01*
X14989905Y-18859238D01*
X14999428Y-18840190D01*
X15008952Y-18830667D01*
X15028000Y-18821143D01*
X15066095Y-18821143D01*
X15085143Y-18830667D01*
X15161333Y-19030667D02*
X15170857Y-19021143D01*
X15189905Y-18992571D01*
X15199428Y-18973524D01*
X15208952Y-18944952D01*
X15218476Y-18897333D01*
X15218476Y-18859238D01*
X15208952Y-18811619D01*
X15199428Y-18783048D01*
X15189905Y-18764000D01*
X15170857Y-18735429D01*
X15161333Y-18725905D01*
X8118000Y-19054180D02*
X8118000Y-19254180D01*
X8018000Y-19154180D02*
X8218000Y-19154180D01*
X8456571Y-19044656D02*
X8580381Y-19044656D01*
X8513714Y-19120847D01*
X8542286Y-19120847D01*
X8561333Y-19130370D01*
X8570857Y-19139894D01*
X8580381Y-19158942D01*
X8580381Y-19206561D01*
X8570857Y-19225609D01*
X8561333Y-19235132D01*
X8542286Y-19244656D01*
X8485143Y-19244656D01*
X8466095Y-19235132D01*
X8456571Y-19225609D01*
X8666095Y-19225609D02*
X8675619Y-19235132D01*
X8666095Y-19244656D01*
X8656571Y-19235132D01*
X8666095Y-19225609D01*
X8666095Y-19244656D01*
X8799428Y-19044656D02*
X8818476Y-19044656D01*
X8837524Y-19054180D01*
X8847048Y-19063704D01*
X8856571Y-19082751D01*
X8866095Y-19120847D01*
X8866095Y-19168466D01*
X8856571Y-19206561D01*
X8847048Y-19225609D01*
X8837524Y-19235132D01*
X8818476Y-19244656D01*
X8799428Y-19244656D01*
X8780381Y-19235132D01*
X8770857Y-19225609D01*
X8761333Y-19206561D01*
X8751809Y-19168466D01*
X8751809Y-19120847D01*
X8761333Y-19082751D01*
X8770857Y-19063704D01*
X8780381Y-19054180D01*
X8799428Y-19044656D01*
X8989905Y-19044656D02*
X9008952Y-19044656D01*
X9028000Y-19054180D01*
X9037524Y-19063704D01*
X9047048Y-19082751D01*
X9056571Y-19120847D01*
X9056571Y-19168466D01*
X9047048Y-19206561D01*
X9037524Y-19225609D01*
X9028000Y-19235132D01*
X9008952Y-19244656D01*
X8989905Y-19244656D01*
X8970857Y-19235132D01*
X8961333Y-19225609D01*
X8951809Y-19206561D01*
X8942286Y-19168466D01*
X8942286Y-19120847D01*
X8951809Y-19082751D01*
X8961333Y-19063704D01*
X8970857Y-19054180D01*
X8989905Y-19044656D01*
X9180381Y-19044656D02*
X9199428Y-19044656D01*
X9218476Y-19054180D01*
X9228000Y-19063704D01*
X9237524Y-19082751D01*
X9247048Y-19120847D01*
X9247048Y-19168466D01*
X9237524Y-19206561D01*
X9228000Y-19225609D01*
X9218476Y-19235132D01*
X9199428Y-19244656D01*
X9180381Y-19244656D01*
X9161333Y-19235132D01*
X9151809Y-19225609D01*
X9142286Y-19206561D01*
X9132762Y-19168466D01*
X9132762Y-19120847D01*
X9142286Y-19082751D01*
X9151809Y-19063704D01*
X9161333Y-19054180D01*
X9180381Y-19044656D01*
X9332762Y-19244656D02*
X9332762Y-19111323D01*
X9332762Y-19130370D02*
X9342286Y-19120847D01*
X9361333Y-19111323D01*
X9389905Y-19111323D01*
X9408952Y-19120847D01*
X9418476Y-19139894D01*
X9418476Y-19244656D01*
X9418476Y-19139894D02*
X9428000Y-19120847D01*
X9447048Y-19111323D01*
X9475619Y-19111323D01*
X9494667Y-19120847D01*
X9504190Y-19139894D01*
X9504190Y-19244656D01*
X9599428Y-19244656D02*
X9599428Y-19111323D01*
X9599428Y-19130370D02*
X9608952Y-19120847D01*
X9628000Y-19111323D01*
X9656571Y-19111323D01*
X9675619Y-19120847D01*
X9685143Y-19139894D01*
X9685143Y-19244656D01*
X9685143Y-19139894D02*
X9694667Y-19120847D01*
X9713714Y-19111323D01*
X9742286Y-19111323D01*
X9761333Y-19120847D01*
X9770857Y-19139894D01*
X9770857Y-19244656D01*
X10161333Y-19035132D02*
X9989905Y-19292275D01*
X10418476Y-19044656D02*
X10437524Y-19044656D01*
X10456571Y-19054180D01*
X10466095Y-19063704D01*
X10475619Y-19082751D01*
X10485143Y-19120847D01*
X10485143Y-19168466D01*
X10475619Y-19206561D01*
X10466095Y-19225609D01*
X10456571Y-19235132D01*
X10437524Y-19244656D01*
X10418476Y-19244656D01*
X10399428Y-19235132D01*
X10389905Y-19225609D01*
X10380381Y-19206561D01*
X10370857Y-19168466D01*
X10370857Y-19120847D01*
X10380381Y-19082751D01*
X10389905Y-19063704D01*
X10399428Y-19054180D01*
X10418476Y-19044656D01*
X10570857Y-19225609D02*
X10580381Y-19235132D01*
X10570857Y-19244656D01*
X10561333Y-19235132D01*
X10570857Y-19225609D01*
X10570857Y-19244656D01*
X10770857Y-19244656D02*
X10656571Y-19244656D01*
X10713714Y-19244656D02*
X10713714Y-19044656D01*
X10694667Y-19073228D01*
X10675619Y-19092275D01*
X10656571Y-19101799D01*
X10961333Y-19244656D02*
X10847048Y-19244656D01*
X10904190Y-19244656D02*
X10904190Y-19044656D01*
X10885143Y-19073228D01*
X10866095Y-19092275D01*
X10847048Y-19101799D01*
X11075619Y-19130370D02*
X11056571Y-19120847D01*
X11047048Y-19111323D01*
X11037524Y-19092275D01*
X11037524Y-19082751D01*
X11047048Y-19063704D01*
X11056571Y-19054180D01*
X11075619Y-19044656D01*
X11113714Y-19044656D01*
X11132762Y-19054180D01*
X11142286Y-19063704D01*
X11151809Y-19082751D01*
X11151809Y-19092275D01*
X11142286Y-19111323D01*
X11132762Y-19120847D01*
X11113714Y-19130370D01*
X11075619Y-19130370D01*
X11056571Y-19139894D01*
X11047048Y-19149418D01*
X11037524Y-19168466D01*
X11037524Y-19206561D01*
X11047048Y-19225609D01*
X11056571Y-19235132D01*
X11075619Y-19244656D01*
X11113714Y-19244656D01*
X11132762Y-19235132D01*
X11142286Y-19225609D01*
X11151809Y-19206561D01*
X11151809Y-19168466D01*
X11142286Y-19149418D01*
X11132762Y-19139894D01*
X11113714Y-19130370D01*
X11342286Y-19244656D02*
X11228000Y-19244656D01*
X11285143Y-19244656D02*
X11285143Y-19044656D01*
X11266095Y-19073228D01*
X11247047Y-19092275D01*
X11228000Y-19101799D01*
X11418476Y-19044656D02*
X11418476Y-19082751D01*
X11494666Y-19044656D02*
X11494666Y-19082751D01*
X11789905Y-19320847D02*
X11780381Y-19311323D01*
X11761333Y-19282751D01*
X11751809Y-19263704D01*
X11742286Y-19235132D01*
X11732762Y-19187513D01*
X11732762Y-19149418D01*
X11742286Y-19101799D01*
X11751809Y-19073228D01*
X11761333Y-19054180D01*
X11780381Y-19025609D01*
X11789905Y-19016085D01*
X11875619Y-19244656D02*
X11913714Y-19244656D01*
X11932762Y-19235132D01*
X11942286Y-19225609D01*
X11961333Y-19197037D01*
X11970857Y-19158942D01*
X11970857Y-19082751D01*
X11961333Y-19063704D01*
X11951809Y-19054180D01*
X11932762Y-19044656D01*
X11894666Y-19044656D01*
X11875619Y-19054180D01*
X11866095Y-19063704D01*
X11856571Y-19082751D01*
X11856571Y-19130370D01*
X11866095Y-19149418D01*
X11875619Y-19158942D01*
X11894666Y-19168466D01*
X11932762Y-19168466D01*
X11951809Y-19158942D01*
X11961333Y-19149418D01*
X11970857Y-19130370D01*
X12047047Y-19063704D02*
X12056571Y-19054180D01*
X12075619Y-19044656D01*
X12123238Y-19044656D01*
X12142286Y-19054180D01*
X12151809Y-19063704D01*
X12161333Y-19082751D01*
X12161333Y-19101799D01*
X12151809Y-19130370D01*
X12037524Y-19244656D01*
X12161333Y-19244656D01*
X12399428Y-19244656D02*
X12399428Y-19044656D01*
X12485143Y-19244656D02*
X12485143Y-19139894D01*
X12475619Y-19120847D01*
X12456571Y-19111323D01*
X12428000Y-19111323D01*
X12408952Y-19120847D01*
X12399428Y-19130370D01*
X12608952Y-19244656D02*
X12589905Y-19235132D01*
X12580381Y-19225609D01*
X12570857Y-19206561D01*
X12570857Y-19149418D01*
X12580381Y-19130370D01*
X12589905Y-19120847D01*
X12608952Y-19111323D01*
X12637524Y-19111323D01*
X12656571Y-19120847D01*
X12666095Y-19130370D01*
X12675619Y-19149418D01*
X12675619Y-19206561D01*
X12666095Y-19225609D01*
X12656571Y-19235132D01*
X12637524Y-19244656D01*
X12608952Y-19244656D01*
X12789905Y-19244656D02*
X12770857Y-19235132D01*
X12761333Y-19216085D01*
X12761333Y-19044656D01*
X12942286Y-19235132D02*
X12923238Y-19244656D01*
X12885143Y-19244656D01*
X12866095Y-19235132D01*
X12856571Y-19216085D01*
X12856571Y-19139894D01*
X12866095Y-19120847D01*
X12885143Y-19111323D01*
X12923238Y-19111323D01*
X12942286Y-19120847D01*
X12951809Y-19139894D01*
X12951809Y-19158942D01*
X12856571Y-19177990D01*
X13028000Y-19235132D02*
X13047047Y-19244656D01*
X13085143Y-19244656D01*
X13104190Y-19235132D01*
X13113714Y-19216085D01*
X13113714Y-19206561D01*
X13104190Y-19187513D01*
X13085143Y-19177990D01*
X13056571Y-19177990D01*
X13037524Y-19168466D01*
X13028000Y-19149418D01*
X13028000Y-19139894D01*
X13037524Y-19120847D01*
X13056571Y-19111323D01*
X13085143Y-19111323D01*
X13104190Y-19120847D01*
X13180381Y-19320847D02*
X13189905Y-19311323D01*
X13208952Y-19282751D01*
X13218476Y-19263704D01*
X13228000Y-19235132D01*
X13237524Y-19187513D01*
X13237524Y-19149418D01*
X13228000Y-19101799D01*
X13218476Y-19073228D01*
X13208952Y-19054180D01*
X13189905Y-19025609D01*
X13180381Y-19016085D01*
X13542286Y-19320847D02*
X13532762Y-19311323D01*
X13513714Y-19282751D01*
X13504190Y-19263704D01*
X13494666Y-19235132D01*
X13485143Y-19187513D01*
X13485143Y-19149418D01*
X13494666Y-19101799D01*
X13504190Y-19073228D01*
X13513714Y-19054180D01*
X13532762Y-19025609D01*
X13542286Y-19016085D01*
X13618476Y-19111323D02*
X13618476Y-19244656D01*
X13618476Y-19130370D02*
X13628000Y-19120847D01*
X13647047Y-19111323D01*
X13675619Y-19111323D01*
X13694666Y-19120847D01*
X13704190Y-19139894D01*
X13704190Y-19244656D01*
X13828000Y-19244656D02*
X13808952Y-19235132D01*
X13799428Y-19225609D01*
X13789905Y-19206561D01*
X13789905Y-19149418D01*
X13799428Y-19130370D01*
X13808952Y-19120847D01*
X13828000Y-19111323D01*
X13856571Y-19111323D01*
X13875619Y-19120847D01*
X13885143Y-19130370D01*
X13894666Y-19149418D01*
X13894666Y-19206561D01*
X13885143Y-19225609D01*
X13875619Y-19235132D01*
X13856571Y-19244656D01*
X13828000Y-19244656D01*
X13951809Y-19111323D02*
X14028000Y-19111323D01*
X13980381Y-19044656D02*
X13980381Y-19216085D01*
X13989905Y-19235132D01*
X14008952Y-19244656D01*
X14028000Y-19244656D01*
X14247047Y-19111323D02*
X14247047Y-19311323D01*
X14247047Y-19120847D02*
X14266095Y-19111323D01*
X14304190Y-19111323D01*
X14323238Y-19120847D01*
X14332762Y-19130370D01*
X14342286Y-19149418D01*
X14342286Y-19206561D01*
X14332762Y-19225609D01*
X14323238Y-19235132D01*
X14304190Y-19244656D01*
X14266095Y-19244656D01*
X14247047Y-19235132D01*
X14456571Y-19244656D02*
X14437524Y-19235132D01*
X14428000Y-19216085D01*
X14428000Y-19044656D01*
X14618476Y-19244656D02*
X14618476Y-19139894D01*
X14608952Y-19120847D01*
X14589905Y-19111323D01*
X14551809Y-19111323D01*
X14532762Y-19120847D01*
X14618476Y-19235132D02*
X14599428Y-19244656D01*
X14551809Y-19244656D01*
X14532762Y-19235132D01*
X14523238Y-19216085D01*
X14523238Y-19197037D01*
X14532762Y-19177990D01*
X14551809Y-19168466D01*
X14599428Y-19168466D01*
X14618476Y-19158942D01*
X14685143Y-19111323D02*
X14761333Y-19111323D01*
X14713714Y-19044656D02*
X14713714Y-19216085D01*
X14723238Y-19235132D01*
X14742286Y-19244656D01*
X14761333Y-19244656D01*
X14904190Y-19235132D02*
X14885143Y-19244656D01*
X14847047Y-19244656D01*
X14828000Y-19235132D01*
X14818476Y-19216085D01*
X14818476Y-19139894D01*
X14828000Y-19120847D01*
X14847047Y-19111323D01*
X14885143Y-19111323D01*
X14904190Y-19120847D01*
X14913714Y-19139894D01*
X14913714Y-19158942D01*
X14818476Y-19177990D01*
X15085143Y-19244656D02*
X15085143Y-19044656D01*
X15085143Y-19235132D02*
X15066095Y-19244656D01*
X15028000Y-19244656D01*
X15008952Y-19235132D01*
X14999428Y-19225609D01*
X14989905Y-19206561D01*
X14989905Y-19149418D01*
X14999428Y-19130370D01*
X15008952Y-19120847D01*
X15028000Y-19111323D01*
X15066095Y-19111323D01*
X15085143Y-19120847D01*
X15161333Y-19320847D02*
X15170857Y-19311323D01*
X15189905Y-19282751D01*
X15199428Y-19263704D01*
X15208952Y-19235132D01*
X15218476Y-19187513D01*
X15218476Y-19149418D01*
X15208952Y-19101799D01*
X15199428Y-19073228D01*
X15189905Y-19054180D01*
X15170857Y-19025609D01*
X15161333Y-19016085D01*
X8188711Y-19544891D02*
X8188711Y-19403469D01*
X8047288Y-19403469D01*
X8047288Y-19544891D01*
X8188711Y-19544891D01*
X8456571Y-19364656D02*
X8580381Y-19364656D01*
X8513714Y-19440847D01*
X8542286Y-19440847D01*
X8561333Y-19450370D01*
X8570857Y-19459894D01*
X8580381Y-19478942D01*
X8580381Y-19526561D01*
X8570857Y-19545609D01*
X8561333Y-19555132D01*
X8542286Y-19564656D01*
X8485143Y-19564656D01*
X8466095Y-19555132D01*
X8456571Y-19545609D01*
X8666095Y-19545609D02*
X8675619Y-19555132D01*
X8666095Y-19564656D01*
X8656571Y-19555132D01*
X8666095Y-19545609D01*
X8666095Y-19564656D01*
X8799428Y-19364656D02*
X8818476Y-19364656D01*
X8837524Y-19374180D01*
X8847048Y-19383704D01*
X8856571Y-19402751D01*
X8866095Y-19440847D01*
X8866095Y-19488466D01*
X8856571Y-19526561D01*
X8847048Y-19545609D01*
X8837524Y-19555132D01*
X8818476Y-19564656D01*
X8799428Y-19564656D01*
X8780381Y-19555132D01*
X8770857Y-19545609D01*
X8761333Y-19526561D01*
X8751809Y-19488466D01*
X8751809Y-19440847D01*
X8761333Y-19402751D01*
X8770857Y-19383704D01*
X8780381Y-19374180D01*
X8799428Y-19364656D01*
X9037524Y-19431323D02*
X9037524Y-19564656D01*
X8989905Y-19355132D02*
X8942286Y-19497990D01*
X9066095Y-19497990D01*
X9170857Y-19450370D02*
X9151809Y-19440847D01*
X9142286Y-19431323D01*
X9132762Y-19412275D01*
X9132762Y-19402751D01*
X9142286Y-19383704D01*
X9151809Y-19374180D01*
X9170857Y-19364656D01*
X9208952Y-19364656D01*
X9228000Y-19374180D01*
X9237524Y-19383704D01*
X9247048Y-19402751D01*
X9247048Y-19412275D01*
X9237524Y-19431323D01*
X9228000Y-19440847D01*
X9208952Y-19450370D01*
X9170857Y-19450370D01*
X9151809Y-19459894D01*
X9142286Y-19469418D01*
X9132762Y-19488466D01*
X9132762Y-19526561D01*
X9142286Y-19545609D01*
X9151809Y-19555132D01*
X9170857Y-19564656D01*
X9208952Y-19564656D01*
X9228000Y-19555132D01*
X9237524Y-19545609D01*
X9247048Y-19526561D01*
X9247048Y-19488466D01*
X9237524Y-19469418D01*
X9228000Y-19459894D01*
X9208952Y-19450370D01*
X9332762Y-19564656D02*
X9332762Y-19431323D01*
X9332762Y-19450370D02*
X9342286Y-19440847D01*
X9361333Y-19431323D01*
X9389905Y-19431323D01*
X9408952Y-19440847D01*
X9418476Y-19459894D01*
X9418476Y-19564656D01*
X9418476Y-19459894D02*
X9428000Y-19440847D01*
X9447048Y-19431323D01*
X9475619Y-19431323D01*
X9494667Y-19440847D01*
X9504190Y-19459894D01*
X9504190Y-19564656D01*
X9599428Y-19564656D02*
X9599428Y-19431323D01*
X9599428Y-19450370D02*
X9608952Y-19440847D01*
X9628000Y-19431323D01*
X9656571Y-19431323D01*
X9675619Y-19440847D01*
X9685143Y-19459894D01*
X9685143Y-19564656D01*
X9685143Y-19459894D02*
X9694667Y-19440847D01*
X9713714Y-19431323D01*
X9742286Y-19431323D01*
X9761333Y-19440847D01*
X9770857Y-19459894D01*
X9770857Y-19564656D01*
X10161333Y-19355132D02*
X9989905Y-19612275D01*
X10418476Y-19364656D02*
X10437524Y-19364656D01*
X10456571Y-19374180D01*
X10466095Y-19383704D01*
X10475619Y-19402751D01*
X10485143Y-19440847D01*
X10485143Y-19488466D01*
X10475619Y-19526561D01*
X10466095Y-19545609D01*
X10456571Y-19555132D01*
X10437524Y-19564656D01*
X10418476Y-19564656D01*
X10399428Y-19555132D01*
X10389905Y-19545609D01*
X10380381Y-19526561D01*
X10370857Y-19488466D01*
X10370857Y-19440847D01*
X10380381Y-19402751D01*
X10389905Y-19383704D01*
X10399428Y-19374180D01*
X10418476Y-19364656D01*
X10570857Y-19545609D02*
X10580381Y-19555132D01*
X10570857Y-19564656D01*
X10561333Y-19555132D01*
X10570857Y-19545609D01*
X10570857Y-19564656D01*
X10770857Y-19564656D02*
X10656571Y-19564656D01*
X10713714Y-19564656D02*
X10713714Y-19364656D01*
X10694667Y-19393228D01*
X10675619Y-19412275D01*
X10656571Y-19421799D01*
X10847048Y-19383704D02*
X10856571Y-19374180D01*
X10875619Y-19364656D01*
X10923238Y-19364656D01*
X10942286Y-19374180D01*
X10951809Y-19383704D01*
X10961333Y-19402751D01*
X10961333Y-19421799D01*
X10951809Y-19450370D01*
X10837524Y-19564656D01*
X10961333Y-19564656D01*
X11085143Y-19364656D02*
X11104190Y-19364656D01*
X11123238Y-19374180D01*
X11132762Y-19383704D01*
X11142286Y-19402751D01*
X11151809Y-19440847D01*
X11151809Y-19488466D01*
X11142286Y-19526561D01*
X11132762Y-19545609D01*
X11123238Y-19555132D01*
X11104190Y-19564656D01*
X11085143Y-19564656D01*
X11066095Y-19555132D01*
X11056571Y-19545609D01*
X11047048Y-19526561D01*
X11037524Y-19488466D01*
X11037524Y-19440847D01*
X11047048Y-19402751D01*
X11056571Y-19383704D01*
X11066095Y-19374180D01*
X11085143Y-19364656D01*
X11275619Y-19364656D02*
X11294666Y-19364656D01*
X11313714Y-19374180D01*
X11323238Y-19383704D01*
X11332762Y-19402751D01*
X11342286Y-19440847D01*
X11342286Y-19488466D01*
X11332762Y-19526561D01*
X11323238Y-19545609D01*
X11313714Y-19555132D01*
X11294666Y-19564656D01*
X11275619Y-19564656D01*
X11256571Y-19555132D01*
X11247047Y-19545609D01*
X11237524Y-19526561D01*
X11228000Y-19488466D01*
X11228000Y-19440847D01*
X11237524Y-19402751D01*
X11247047Y-19383704D01*
X11256571Y-19374180D01*
X11275619Y-19364656D01*
X11418476Y-19364656D02*
X11418476Y-19402751D01*
X11494666Y-19364656D02*
X11494666Y-19402751D01*
X11789905Y-19640847D02*
X11780381Y-19631323D01*
X11761333Y-19602751D01*
X11751809Y-19583704D01*
X11742286Y-19555132D01*
X11732762Y-19507513D01*
X11732762Y-19469418D01*
X11742286Y-19421799D01*
X11751809Y-19393228D01*
X11761333Y-19374180D01*
X11780381Y-19345609D01*
X11789905Y-19336085D01*
X11951809Y-19431323D02*
X11951809Y-19564656D01*
X11904190Y-19355132D02*
X11856571Y-19497990D01*
X11980381Y-19497990D01*
X12208952Y-19564656D02*
X12208952Y-19364656D01*
X12294666Y-19564656D02*
X12294666Y-19459894D01*
X12285143Y-19440847D01*
X12266095Y-19431323D01*
X12237524Y-19431323D01*
X12218476Y-19440847D01*
X12208952Y-19450370D01*
X12418476Y-19564656D02*
X12399428Y-19555132D01*
X12389905Y-19545609D01*
X12380381Y-19526561D01*
X12380381Y-19469418D01*
X12389905Y-19450370D01*
X12399428Y-19440847D01*
X12418476Y-19431323D01*
X12447047Y-19431323D01*
X12466095Y-19440847D01*
X12475619Y-19450370D01*
X12485143Y-19469418D01*
X12485143Y-19526561D01*
X12475619Y-19545609D01*
X12466095Y-19555132D01*
X12447047Y-19564656D01*
X12418476Y-19564656D01*
X12599428Y-19564656D02*
X12580381Y-19555132D01*
X12570857Y-19536085D01*
X12570857Y-19364656D01*
X12751809Y-19555132D02*
X12732762Y-19564656D01*
X12694666Y-19564656D01*
X12675619Y-19555132D01*
X12666095Y-19536085D01*
X12666095Y-19459894D01*
X12675619Y-19440847D01*
X12694666Y-19431323D01*
X12732762Y-19431323D01*
X12751809Y-19440847D01*
X12761333Y-19459894D01*
X12761333Y-19478942D01*
X12666095Y-19497990D01*
X12837524Y-19555132D02*
X12856571Y-19564656D01*
X12894666Y-19564656D01*
X12913714Y-19555132D01*
X12923238Y-19536085D01*
X12923238Y-19526561D01*
X12913714Y-19507513D01*
X12894666Y-19497990D01*
X12866095Y-19497990D01*
X12847047Y-19488466D01*
X12837524Y-19469418D01*
X12837524Y-19459894D01*
X12847047Y-19440847D01*
X12866095Y-19431323D01*
X12894666Y-19431323D01*
X12913714Y-19440847D01*
X12989905Y-19640847D02*
X12999428Y-19631323D01*
X13018476Y-19602751D01*
X13028000Y-19583704D01*
X13037524Y-19555132D01*
X13047047Y-19507513D01*
X13047047Y-19469418D01*
X13037524Y-19421799D01*
X13028000Y-19393228D01*
X13018476Y-19374180D01*
X12999428Y-19345609D01*
X12989905Y-19336085D01*
X13351809Y-19640847D02*
X13342286Y-19631323D01*
X13323238Y-19602751D01*
X13313714Y-19583704D01*
X13304190Y-19555132D01*
X13294666Y-19507513D01*
X13294666Y-19469418D01*
X13304190Y-19421799D01*
X13313714Y-19393228D01*
X13323238Y-19374180D01*
X13342286Y-19345609D01*
X13351809Y-19336085D01*
X13428000Y-19431323D02*
X13428000Y-19564656D01*
X13428000Y-19450370D02*
X13437524Y-19440847D01*
X13456571Y-19431323D01*
X13485143Y-19431323D01*
X13504190Y-19440847D01*
X13513714Y-19459894D01*
X13513714Y-19564656D01*
X13637524Y-19564656D02*
X13618476Y-19555132D01*
X13608952Y-19545609D01*
X13599428Y-19526561D01*
X13599428Y-19469418D01*
X13608952Y-19450370D01*
X13618476Y-19440847D01*
X13637524Y-19431323D01*
X13666095Y-19431323D01*
X13685143Y-19440847D01*
X13694666Y-19450370D01*
X13704190Y-19469418D01*
X13704190Y-19526561D01*
X13694666Y-19545609D01*
X13685143Y-19555132D01*
X13666095Y-19564656D01*
X13637524Y-19564656D01*
X13761333Y-19431323D02*
X13837524Y-19431323D01*
X13789905Y-19364656D02*
X13789905Y-19536085D01*
X13799428Y-19555132D01*
X13818476Y-19564656D01*
X13837524Y-19564656D01*
X14056571Y-19431323D02*
X14056571Y-19631323D01*
X14056571Y-19440847D02*
X14075619Y-19431323D01*
X14113714Y-19431323D01*
X14132762Y-19440847D01*
X14142286Y-19450370D01*
X14151809Y-19469418D01*
X14151809Y-19526561D01*
X14142286Y-19545609D01*
X14132762Y-19555132D01*
X14113714Y-19564656D01*
X14075619Y-19564656D01*
X14056571Y-19555132D01*
X14266095Y-19564656D02*
X14247047Y-19555132D01*
X14237524Y-19536085D01*
X14237524Y-19364656D01*
X14428000Y-19564656D02*
X14428000Y-19459894D01*
X14418476Y-19440847D01*
X14399428Y-19431323D01*
X14361333Y-19431323D01*
X14342286Y-19440847D01*
X14428000Y-19555132D02*
X14408952Y-19564656D01*
X14361333Y-19564656D01*
X14342286Y-19555132D01*
X14332762Y-19536085D01*
X14332762Y-19517037D01*
X14342286Y-19497990D01*
X14361333Y-19488466D01*
X14408952Y-19488466D01*
X14428000Y-19478942D01*
X14494666Y-19431323D02*
X14570857Y-19431323D01*
X14523238Y-19364656D02*
X14523238Y-19536085D01*
X14532762Y-19555132D01*
X14551809Y-19564656D01*
X14570857Y-19564656D01*
X14713714Y-19555132D02*
X14694666Y-19564656D01*
X14656571Y-19564656D01*
X14637524Y-19555132D01*
X14628000Y-19536085D01*
X14628000Y-19459894D01*
X14637524Y-19440847D01*
X14656571Y-19431323D01*
X14694666Y-19431323D01*
X14713714Y-19440847D01*
X14723238Y-19459894D01*
X14723238Y-19478942D01*
X14628000Y-19497990D01*
X14894666Y-19564656D02*
X14894666Y-19364656D01*
X14894666Y-19555132D02*
X14875619Y-19564656D01*
X14837524Y-19564656D01*
X14818476Y-19555132D01*
X14808952Y-19545609D01*
X14799428Y-19526561D01*
X14799428Y-19469418D01*
X14808952Y-19450370D01*
X14818476Y-19440847D01*
X14837524Y-19431323D01*
X14875619Y-19431323D01*
X14894666Y-19440847D01*
X14970857Y-19640847D02*
X14980381Y-19631323D01*
X14999428Y-19602751D01*
X15008952Y-19583704D01*
X15018476Y-19555132D01*
X15028000Y-19507513D01*
X15028000Y-19469418D01*
X15018476Y-19421799D01*
X15008952Y-19393228D01*
X14999428Y-19374180D01*
X14980381Y-19345609D01*
X14970857Y-19336085D01*
X8118000Y-19894180D02*
X8218000Y-19794180D01*
X8118000Y-19694180D01*
X8018000Y-19794180D01*
X8118000Y-19894180D01*
X8456571Y-19684656D02*
X8580381Y-19684656D01*
X8513714Y-19760847D01*
X8542286Y-19760847D01*
X8561333Y-19770370D01*
X8570857Y-19779894D01*
X8580381Y-19798942D01*
X8580381Y-19846561D01*
X8570857Y-19865609D01*
X8561333Y-19875132D01*
X8542286Y-19884656D01*
X8485143Y-19884656D01*
X8466095Y-19875132D01*
X8456571Y-19865609D01*
X8666095Y-19865609D02*
X8675619Y-19875132D01*
X8666095Y-19884656D01*
X8656571Y-19875132D01*
X8666095Y-19865609D01*
X8666095Y-19884656D01*
X8770857Y-19884656D02*
X8808952Y-19884656D01*
X8828000Y-19875132D01*
X8837524Y-19865609D01*
X8856571Y-19837037D01*
X8866095Y-19798942D01*
X8866095Y-19722751D01*
X8856571Y-19703704D01*
X8847048Y-19694180D01*
X8828000Y-19684656D01*
X8789905Y-19684656D01*
X8770857Y-19694180D01*
X8761333Y-19703704D01*
X8751809Y-19722751D01*
X8751809Y-19770370D01*
X8761333Y-19789418D01*
X8770857Y-19798942D01*
X8789905Y-19808466D01*
X8828000Y-19808466D01*
X8847048Y-19798942D01*
X8856571Y-19789418D01*
X8866095Y-19770370D01*
X8980381Y-19770370D02*
X8961333Y-19760847D01*
X8951809Y-19751323D01*
X8942286Y-19732275D01*
X8942286Y-19722751D01*
X8951809Y-19703704D01*
X8961333Y-19694180D01*
X8980381Y-19684656D01*
X9018476Y-19684656D01*
X9037524Y-19694180D01*
X9047048Y-19703704D01*
X9056571Y-19722751D01*
X9056571Y-19732275D01*
X9047048Y-19751323D01*
X9037524Y-19760847D01*
X9018476Y-19770370D01*
X8980381Y-19770370D01*
X8961333Y-19779894D01*
X8951809Y-19789418D01*
X8942286Y-19808466D01*
X8942286Y-19846561D01*
X8951809Y-19865609D01*
X8961333Y-19875132D01*
X8980381Y-19884656D01*
X9018476Y-19884656D01*
X9037524Y-19875132D01*
X9047048Y-19865609D01*
X9056571Y-19846561D01*
X9056571Y-19808466D01*
X9047048Y-19789418D01*
X9037524Y-19779894D01*
X9018476Y-19770370D01*
X9170857Y-19770370D02*
X9151809Y-19760847D01*
X9142286Y-19751323D01*
X9132762Y-19732275D01*
X9132762Y-19722751D01*
X9142286Y-19703704D01*
X9151809Y-19694180D01*
X9170857Y-19684656D01*
X9208952Y-19684656D01*
X9228000Y-19694180D01*
X9237524Y-19703704D01*
X9247048Y-19722751D01*
X9247048Y-19732275D01*
X9237524Y-19751323D01*
X9228000Y-19760847D01*
X9208952Y-19770370D01*
X9170857Y-19770370D01*
X9151809Y-19779894D01*
X9142286Y-19789418D01*
X9132762Y-19808466D01*
X9132762Y-19846561D01*
X9142286Y-19865609D01*
X9151809Y-19875132D01*
X9170857Y-19884656D01*
X9208952Y-19884656D01*
X9228000Y-19875132D01*
X9237524Y-19865609D01*
X9247048Y-19846561D01*
X9247048Y-19808466D01*
X9237524Y-19789418D01*
X9228000Y-19779894D01*
X9208952Y-19770370D01*
X9332762Y-19884656D02*
X9332762Y-19751323D01*
X9332762Y-19770370D02*
X9342286Y-19760847D01*
X9361333Y-19751323D01*
X9389905Y-19751323D01*
X9408952Y-19760847D01*
X9418476Y-19779894D01*
X9418476Y-19884656D01*
X9418476Y-19779894D02*
X9428000Y-19760847D01*
X9447048Y-19751323D01*
X9475619Y-19751323D01*
X9494667Y-19760847D01*
X9504190Y-19779894D01*
X9504190Y-19884656D01*
X9599428Y-19884656D02*
X9599428Y-19751323D01*
X9599428Y-19770370D02*
X9608952Y-19760847D01*
X9628000Y-19751323D01*
X9656571Y-19751323D01*
X9675619Y-19760847D01*
X9685143Y-19779894D01*
X9685143Y-19884656D01*
X9685143Y-19779894D02*
X9694667Y-19760847D01*
X9713714Y-19751323D01*
X9742286Y-19751323D01*
X9761333Y-19760847D01*
X9770857Y-19779894D01*
X9770857Y-19884656D01*
X10161333Y-19675132D02*
X9989905Y-19932275D01*
X10418476Y-19684656D02*
X10437524Y-19684656D01*
X10456571Y-19694180D01*
X10466095Y-19703704D01*
X10475619Y-19722751D01*
X10485143Y-19760847D01*
X10485143Y-19808466D01*
X10475619Y-19846561D01*
X10466095Y-19865609D01*
X10456571Y-19875132D01*
X10437524Y-19884656D01*
X10418476Y-19884656D01*
X10399428Y-19875132D01*
X10389905Y-19865609D01*
X10380381Y-19846561D01*
X10370857Y-19808466D01*
X10370857Y-19760847D01*
X10380381Y-19722751D01*
X10389905Y-19703704D01*
X10399428Y-19694180D01*
X10418476Y-19684656D01*
X10570857Y-19865609D02*
X10580381Y-19875132D01*
X10570857Y-19884656D01*
X10561333Y-19875132D01*
X10570857Y-19865609D01*
X10570857Y-19884656D01*
X10770857Y-19884656D02*
X10656571Y-19884656D01*
X10713714Y-19884656D02*
X10713714Y-19684656D01*
X10694667Y-19713228D01*
X10675619Y-19732275D01*
X10656571Y-19741799D01*
X10951809Y-19684656D02*
X10856571Y-19684656D01*
X10847048Y-19779894D01*
X10856571Y-19770370D01*
X10875619Y-19760847D01*
X10923238Y-19760847D01*
X10942286Y-19770370D01*
X10951809Y-19779894D01*
X10961333Y-19798942D01*
X10961333Y-19846561D01*
X10951809Y-19865609D01*
X10942286Y-19875132D01*
X10923238Y-19884656D01*
X10875619Y-19884656D01*
X10856571Y-19875132D01*
X10847048Y-19865609D01*
X11028000Y-19684656D02*
X11161333Y-19684656D01*
X11075619Y-19884656D01*
X11275619Y-19684656D02*
X11294666Y-19684656D01*
X11313714Y-19694180D01*
X11323238Y-19703704D01*
X11332762Y-19722751D01*
X11342286Y-19760847D01*
X11342286Y-19808466D01*
X11332762Y-19846561D01*
X11323238Y-19865609D01*
X11313714Y-19875132D01*
X11294666Y-19884656D01*
X11275619Y-19884656D01*
X11256571Y-19875132D01*
X11247047Y-19865609D01*
X11237524Y-19846561D01*
X11228000Y-19808466D01*
X11228000Y-19760847D01*
X11237524Y-19722751D01*
X11247047Y-19703704D01*
X11256571Y-19694180D01*
X11275619Y-19684656D01*
X11418476Y-19684656D02*
X11418476Y-19722751D01*
X11494666Y-19684656D02*
X11494666Y-19722751D01*
X11789905Y-19960847D02*
X11780381Y-19951323D01*
X11761333Y-19922751D01*
X11751809Y-19903704D01*
X11742286Y-19875132D01*
X11732762Y-19827513D01*
X11732762Y-19789418D01*
X11742286Y-19741799D01*
X11751809Y-19713228D01*
X11761333Y-19694180D01*
X11780381Y-19665609D01*
X11789905Y-19656085D01*
X11961333Y-19684656D02*
X11866095Y-19684656D01*
X11856571Y-19779894D01*
X11866095Y-19770370D01*
X11885143Y-19760847D01*
X11932762Y-19760847D01*
X11951809Y-19770370D01*
X11961333Y-19779894D01*
X11970857Y-19798942D01*
X11970857Y-19846561D01*
X11961333Y-19865609D01*
X11951809Y-19875132D01*
X11932762Y-19884656D01*
X11885143Y-19884656D01*
X11866095Y-19875132D01*
X11856571Y-19865609D01*
X12094666Y-19684656D02*
X12113714Y-19684656D01*
X12132762Y-19694180D01*
X12142286Y-19703704D01*
X12151809Y-19722751D01*
X12161333Y-19760847D01*
X12161333Y-19808466D01*
X12151809Y-19846561D01*
X12142286Y-19865609D01*
X12132762Y-19875132D01*
X12113714Y-19884656D01*
X12094666Y-19884656D01*
X12075619Y-19875132D01*
X12066095Y-19865609D01*
X12056571Y-19846561D01*
X12047047Y-19808466D01*
X12047047Y-19760847D01*
X12056571Y-19722751D01*
X12066095Y-19703704D01*
X12075619Y-19694180D01*
X12094666Y-19684656D01*
X12399428Y-19884656D02*
X12399428Y-19684656D01*
X12485143Y-19884656D02*
X12485143Y-19779894D01*
X12475619Y-19760847D01*
X12456571Y-19751323D01*
X12428000Y-19751323D01*
X12408952Y-19760847D01*
X12399428Y-19770370D01*
X12608952Y-19884656D02*
X12589905Y-19875132D01*
X12580381Y-19865609D01*
X12570857Y-19846561D01*
X12570857Y-19789418D01*
X12580381Y-19770370D01*
X12589905Y-19760847D01*
X12608952Y-19751323D01*
X12637524Y-19751323D01*
X12656571Y-19760847D01*
X12666095Y-19770370D01*
X12675619Y-19789418D01*
X12675619Y-19846561D01*
X12666095Y-19865609D01*
X12656571Y-19875132D01*
X12637524Y-19884656D01*
X12608952Y-19884656D01*
X12789905Y-19884656D02*
X12770857Y-19875132D01*
X12761333Y-19856085D01*
X12761333Y-19684656D01*
X12942286Y-19875132D02*
X12923238Y-19884656D01*
X12885143Y-19884656D01*
X12866095Y-19875132D01*
X12856571Y-19856085D01*
X12856571Y-19779894D01*
X12866095Y-19760847D01*
X12885143Y-19751323D01*
X12923238Y-19751323D01*
X12942286Y-19760847D01*
X12951809Y-19779894D01*
X12951809Y-19798942D01*
X12856571Y-19817990D01*
X13028000Y-19875132D02*
X13047047Y-19884656D01*
X13085143Y-19884656D01*
X13104190Y-19875132D01*
X13113714Y-19856085D01*
X13113714Y-19846561D01*
X13104190Y-19827513D01*
X13085143Y-19817990D01*
X13056571Y-19817990D01*
X13037524Y-19808466D01*
X13028000Y-19789418D01*
X13028000Y-19779894D01*
X13037524Y-19760847D01*
X13056571Y-19751323D01*
X13085143Y-19751323D01*
X13104190Y-19760847D01*
X13180381Y-19960847D02*
X13189905Y-19951323D01*
X13208952Y-19922751D01*
X13218476Y-19903704D01*
X13228000Y-19875132D01*
X13237524Y-19827513D01*
X13237524Y-19789418D01*
X13228000Y-19741799D01*
X13218476Y-19713228D01*
X13208952Y-19694180D01*
X13189905Y-19665609D01*
X13180381Y-19656085D01*
X13542286Y-19960847D02*
X13532762Y-19951323D01*
X13513714Y-19922751D01*
X13504190Y-19903704D01*
X13494666Y-19875132D01*
X13485143Y-19827513D01*
X13485143Y-19789418D01*
X13494666Y-19741799D01*
X13504190Y-19713228D01*
X13513714Y-19694180D01*
X13532762Y-19665609D01*
X13542286Y-19656085D01*
X13618476Y-19751323D02*
X13618476Y-19884656D01*
X13618476Y-19770370D02*
X13628000Y-19760847D01*
X13647047Y-19751323D01*
X13675619Y-19751323D01*
X13694666Y-19760847D01*
X13704190Y-19779894D01*
X13704190Y-19884656D01*
X13828000Y-19884656D02*
X13808952Y-19875132D01*
X13799428Y-19865609D01*
X13789905Y-19846561D01*
X13789905Y-19789418D01*
X13799428Y-19770370D01*
X13808952Y-19760847D01*
X13828000Y-19751323D01*
X13856571Y-19751323D01*
X13875619Y-19760847D01*
X13885143Y-19770370D01*
X13894666Y-19789418D01*
X13894666Y-19846561D01*
X13885143Y-19865609D01*
X13875619Y-19875132D01*
X13856571Y-19884656D01*
X13828000Y-19884656D01*
X13951809Y-19751323D02*
X14028000Y-19751323D01*
X13980381Y-19684656D02*
X13980381Y-19856085D01*
X13989905Y-19875132D01*
X14008952Y-19884656D01*
X14028000Y-19884656D01*
X14247047Y-19751323D02*
X14247047Y-19951323D01*
X14247047Y-19760847D02*
X14266095Y-19751323D01*
X14304190Y-19751323D01*
X14323238Y-19760847D01*
X14332762Y-19770370D01*
X14342286Y-19789418D01*
X14342286Y-19846561D01*
X14332762Y-19865609D01*
X14323238Y-19875132D01*
X14304190Y-19884656D01*
X14266095Y-19884656D01*
X14247047Y-19875132D01*
X14456571Y-19884656D02*
X14437524Y-19875132D01*
X14428000Y-19856085D01*
X14428000Y-19684656D01*
X14618476Y-19884656D02*
X14618476Y-19779894D01*
X14608952Y-19760847D01*
X14589905Y-19751323D01*
X14551809Y-19751323D01*
X14532762Y-19760847D01*
X14618476Y-19875132D02*
X14599428Y-19884656D01*
X14551809Y-19884656D01*
X14532762Y-19875132D01*
X14523238Y-19856085D01*
X14523238Y-19837037D01*
X14532762Y-19817990D01*
X14551809Y-19808466D01*
X14599428Y-19808466D01*
X14618476Y-19798942D01*
X14685143Y-19751323D02*
X14761333Y-19751323D01*
X14713714Y-19684656D02*
X14713714Y-19856085D01*
X14723238Y-19875132D01*
X14742286Y-19884656D01*
X14761333Y-19884656D01*
X14904190Y-19875132D02*
X14885143Y-19884656D01*
X14847047Y-19884656D01*
X14828000Y-19875132D01*
X14818476Y-19856085D01*
X14818476Y-19779894D01*
X14828000Y-19760847D01*
X14847047Y-19751323D01*
X14885143Y-19751323D01*
X14904190Y-19760847D01*
X14913714Y-19779894D01*
X14913714Y-19798942D01*
X14818476Y-19817990D01*
X15085143Y-19884656D02*
X15085143Y-19684656D01*
X15085143Y-19875132D02*
X15066095Y-19884656D01*
X15028000Y-19884656D01*
X15008952Y-19875132D01*
X14999428Y-19865609D01*
X14989905Y-19846561D01*
X14989905Y-19789418D01*
X14999428Y-19770370D01*
X15008952Y-19760847D01*
X15028000Y-19751323D01*
X15066095Y-19751323D01*
X15085143Y-19760847D01*
X15161333Y-19960847D02*
X15170857Y-19951323D01*
X15189905Y-19922751D01*
X15199428Y-19903704D01*
X15208952Y-19875132D01*
X15218476Y-19827513D01*
X15218476Y-19789418D01*
X15208952Y-19741799D01*
X15199428Y-19713228D01*
X15189905Y-19694180D01*
X15170857Y-19665609D01*
X15161333Y-19656085D01*
M02*
