%TF.GenerationSoftware,KiCad,Pcbnew,(5.99.0-9176-ga1730d51ff)*%
%TF.CreationDate,2021-05-08T16:46:04-05:00*%
%TF.ProjectId,prime e clone,7072696d-6520-4652-9063-6c6f6e652e6b,rev?*%
%TF.SameCoordinates,Original*%
%TF.FileFunction,Legend,Top*%
%TF.FilePolarity,Positive*%
%FSLAX46Y46*%
G04 Gerber Fmt 4.6, Leading zero omitted, Abs format (unit mm)*
G04 Created by KiCad (PCBNEW (5.99.0-9176-ga1730d51ff)) date 2021-05-08 16:46:04*
%MOMM*%
%LPD*%
G01*
G04 APERTURE LIST*
%ADD10C,0.150000*%
%ADD11C,1.701800*%
%ADD12C,3.000000*%
%ADD13C,3.987800*%
%ADD14C,3.048000*%
%ADD15C,0.650000*%
%ADD16O,1.300000X1.900000*%
%ADD17O,1.100000X2.200000*%
G04 APERTURE END LIST*
D10*
%TO.C,SW13*%
X334220000Y-94970000D02*
X334220000Y-93970000D01*
X348220000Y-93970000D02*
X347220000Y-93970000D01*
X334220000Y-107970000D02*
X334220000Y-106970000D01*
X347220000Y-107970000D02*
X348220000Y-107970000D01*
X334220000Y-107970000D02*
X335220000Y-107970000D01*
X348220000Y-93970000D02*
X348220000Y-94970000D01*
X348220000Y-106970000D02*
X348220000Y-107970000D01*
X335220000Y-93970000D02*
X334220000Y-93970000D01*
%TO.C,SW33*%
X238313085Y-141292603D02*
X238173912Y-140302335D01*
X240122335Y-154166088D02*
X241112603Y-154026915D01*
X252037665Y-138353912D02*
X252176838Y-139344180D01*
X253846915Y-151227397D02*
X253986088Y-152217665D01*
X240122335Y-154166088D02*
X239983162Y-153175820D01*
X252037665Y-138353912D02*
X251047397Y-138493085D01*
X239164180Y-140163162D02*
X238173912Y-140302335D01*
X252995820Y-152356838D02*
X253986088Y-152217665D01*
%TO.C,SW16*%
X127493162Y-113874180D02*
X127632335Y-112883912D01*
X141496088Y-114832335D02*
X140505820Y-114693162D01*
X125683912Y-126747665D02*
X125823085Y-125757397D01*
X138557397Y-128556915D02*
X139547665Y-128696088D01*
X141496088Y-114832335D02*
X141356915Y-115822603D01*
X125683912Y-126747665D02*
X126674180Y-126886838D01*
X128622603Y-113023085D02*
X127632335Y-112883912D01*
X139686838Y-127705820D02*
X139547665Y-128696088D01*
%TO.C,SW11*%
X310120000Y-106970000D02*
X310120000Y-107970000D01*
X309120000Y-107970000D02*
X310120000Y-107970000D01*
X297120000Y-93970000D02*
X296120000Y-93970000D01*
X310120000Y-93970000D02*
X310120000Y-94970000D01*
X310120000Y-93970000D02*
X309120000Y-93970000D01*
X296120000Y-94970000D02*
X296120000Y-93970000D01*
X296120000Y-107970000D02*
X296120000Y-106970000D01*
X296120000Y-107970000D02*
X297120000Y-107970000D01*
%TO.C,SW41*%
X192786088Y-160532335D02*
X191795820Y-160393162D01*
X189847397Y-174256915D02*
X190837665Y-174396088D01*
X179912603Y-158723085D02*
X178922335Y-158583912D01*
X176973912Y-172447665D02*
X177113085Y-171457397D01*
X190976838Y-173405820D02*
X190837665Y-174396088D01*
X178783162Y-159574180D02*
X178922335Y-158583912D01*
X192786088Y-160532335D02*
X192646915Y-161522603D01*
X176973912Y-172447665D02*
X177964180Y-172586838D01*
%TO.C,SW4*%
X158296088Y-97962335D02*
X157305820Y-97823162D01*
X142483912Y-109877665D02*
X143474180Y-110016838D01*
X145422603Y-96153085D02*
X144432335Y-96013912D01*
X142483912Y-109877665D02*
X142623085Y-108887397D01*
X158296088Y-97962335D02*
X158156915Y-98952603D01*
X144293162Y-97004180D02*
X144432335Y-96013912D01*
X155357397Y-111686915D02*
X156347665Y-111826088D01*
X156486838Y-110835820D02*
X156347665Y-111826088D01*
%TO.C,SW37*%
X351190000Y-132450000D02*
X350190000Y-132450000D01*
X351190000Y-145450000D02*
X351190000Y-146450000D01*
X337190000Y-146450000D02*
X337190000Y-145450000D01*
X351190000Y-132450000D02*
X351190000Y-133450000D01*
X350190000Y-146450000D02*
X351190000Y-146450000D01*
X337190000Y-133450000D02*
X337190000Y-132450000D01*
X338190000Y-132450000D02*
X337190000Y-132450000D01*
X337190000Y-146450000D02*
X338190000Y-146450000D01*
%TO.C,SW7*%
X232577665Y-102613912D02*
X232716838Y-103604180D01*
X233535820Y-116616838D02*
X234526088Y-116477665D01*
X234386915Y-115487397D02*
X234526088Y-116477665D01*
X218853085Y-105552603D02*
X218713912Y-104562335D01*
X220662335Y-118426088D02*
X221652603Y-118286915D01*
X219704180Y-104423162D02*
X218713912Y-104562335D01*
X220662335Y-118426088D02*
X220523162Y-117435820D01*
X232577665Y-102613912D02*
X231587397Y-102753085D01*
%TO.C,SW15*%
X106690000Y-127090000D02*
X107690000Y-127090000D01*
X106690000Y-127090000D02*
X106690000Y-126090000D01*
X106690000Y-114090000D02*
X106690000Y-113090000D01*
X120690000Y-113090000D02*
X120690000Y-114090000D01*
X120690000Y-113090000D02*
X119690000Y-113090000D01*
X119690000Y-127090000D02*
X120690000Y-127090000D01*
X107690000Y-113090000D02*
X106690000Y-113090000D01*
X120690000Y-126090000D02*
X120690000Y-127090000D01*
%TO.C,SW14*%
X99350000Y-113090000D02*
X98350000Y-113090000D01*
X99350000Y-113090000D02*
X99350000Y-114090000D01*
X98350000Y-127090000D02*
X99350000Y-127090000D01*
X86350000Y-113090000D02*
X85350000Y-113090000D01*
X99350000Y-126090000D02*
X99350000Y-127090000D01*
X85350000Y-114090000D02*
X85350000Y-113090000D01*
X85350000Y-127090000D02*
X85350000Y-126090000D01*
X85350000Y-127090000D02*
X86350000Y-127090000D01*
%TO.C,SW21*%
X258817665Y-118163912D02*
X258956838Y-119154180D01*
X259775820Y-132166838D02*
X260766088Y-132027665D01*
X246902335Y-133976088D02*
X247892603Y-133836915D01*
X245944180Y-119973162D02*
X244953912Y-120112335D01*
X260626915Y-131037397D02*
X260766088Y-132027665D01*
X246902335Y-133976088D02*
X246763162Y-132985820D01*
X258817665Y-118163912D02*
X257827397Y-118303085D01*
X245093085Y-121102603D02*
X244953912Y-120112335D01*
%TO.C,SW39*%
X108315000Y-152575000D02*
X108315000Y-151575000D01*
X109315000Y-151575000D02*
X108315000Y-151575000D01*
X108315000Y-165575000D02*
X109315000Y-165575000D01*
X122315000Y-151575000D02*
X121315000Y-151575000D01*
X122315000Y-164575000D02*
X122315000Y-165575000D01*
X121315000Y-165575000D02*
X122315000Y-165575000D01*
X108315000Y-165575000D02*
X108315000Y-164575000D01*
X122315000Y-151575000D02*
X122315000Y-152575000D01*
%TO.C,SW26*%
X87165000Y-133320000D02*
X87165000Y-132320000D01*
X101165000Y-132320000D02*
X100165000Y-132320000D01*
X100165000Y-146320000D02*
X101165000Y-146320000D01*
X101165000Y-145320000D02*
X101165000Y-146320000D01*
X101165000Y-132320000D02*
X101165000Y-133320000D01*
X87165000Y-146320000D02*
X87165000Y-145320000D01*
X88165000Y-132320000D02*
X87165000Y-132320000D01*
X87165000Y-146320000D02*
X88165000Y-146320000D01*
%TO.C,SW36*%
X315740000Y-133450000D02*
X315740000Y-132450000D01*
X315740000Y-146450000D02*
X315740000Y-145450000D01*
X316740000Y-132450000D02*
X315740000Y-132450000D01*
X329740000Y-132450000D02*
X328740000Y-132450000D01*
X315740000Y-146450000D02*
X316740000Y-146450000D01*
X328740000Y-146450000D02*
X329740000Y-146450000D01*
X329740000Y-145450000D02*
X329740000Y-146450000D01*
X329740000Y-132450000D02*
X329740000Y-133450000D01*
%TO.C,SW9*%
X270307665Y-97323912D02*
X269317397Y-97463085D01*
X271265820Y-111326838D02*
X272256088Y-111187665D01*
X258392335Y-113136088D02*
X258253162Y-112145820D01*
X258392335Y-113136088D02*
X259382603Y-112996915D01*
X272116915Y-110197397D02*
X272256088Y-111187665D01*
X270307665Y-97323912D02*
X270446838Y-98314180D01*
X257434180Y-99133162D02*
X256443912Y-99272335D01*
X256583085Y-100262603D02*
X256443912Y-99272335D01*
%TO.C,SW10*%
X276304180Y-96483162D02*
X275313912Y-96622335D01*
X277262335Y-110486088D02*
X278252603Y-110346915D01*
X275453085Y-97612603D02*
X275313912Y-96622335D01*
X277262335Y-110486088D02*
X277123162Y-109495820D01*
X290986915Y-107547397D02*
X291126088Y-108537665D01*
X289177665Y-94673912D02*
X289316838Y-95664180D01*
X289177665Y-94673912D02*
X288187397Y-94813085D01*
X290135820Y-108676838D02*
X291126088Y-108537665D01*
%TO.C,SW45*%
X336070000Y-151700000D02*
X335070000Y-151700000D01*
X349070000Y-151700000D02*
X348070000Y-151700000D01*
X349070000Y-164700000D02*
X349070000Y-165700000D01*
X335070000Y-152700000D02*
X335070000Y-151700000D01*
X349070000Y-151700000D02*
X349070000Y-152700000D01*
X335070000Y-165700000D02*
X336070000Y-165700000D01*
X335070000Y-165700000D02*
X335070000Y-164700000D01*
X348070000Y-165700000D02*
X349070000Y-165700000D01*
%TO.C,SW43*%
X268712335Y-169396088D02*
X268573162Y-168405820D01*
X282436915Y-166457397D02*
X282576088Y-167447665D01*
X268712335Y-169396088D02*
X269702603Y-169256915D01*
X280627665Y-153583912D02*
X279637397Y-153723085D01*
X267754180Y-155393162D02*
X266763912Y-155532335D01*
X280627665Y-153583912D02*
X280766838Y-154574180D01*
X281585820Y-167586838D02*
X282576088Y-167447665D01*
X266903085Y-156522603D02*
X266763912Y-155532335D01*
%TO.C,SW12*%
X315170000Y-107990000D02*
X316170000Y-107990000D01*
X329170000Y-106990000D02*
X329170000Y-107990000D01*
X315170000Y-107990000D02*
X315170000Y-106990000D01*
X329170000Y-93990000D02*
X328170000Y-93990000D01*
X329170000Y-93990000D02*
X329170000Y-94990000D01*
X315170000Y-94990000D02*
X315170000Y-93990000D01*
X328170000Y-107990000D02*
X329170000Y-107990000D01*
X316170000Y-93990000D02*
X315170000Y-93990000D01*
%TO.C,SW27*%
X126350000Y-146320000D02*
X127350000Y-146320000D01*
X113350000Y-146320000D02*
X113350000Y-145320000D01*
X127350000Y-132320000D02*
X126350000Y-132320000D01*
X127350000Y-132320000D02*
X127350000Y-133320000D01*
X113350000Y-133320000D02*
X113350000Y-132320000D01*
X127350000Y-145320000D02*
X127350000Y-146320000D01*
X113350000Y-146320000D02*
X114350000Y-146320000D01*
X114350000Y-132320000D02*
X113350000Y-132320000D01*
%TO.C,SW30*%
X170193912Y-152257665D02*
X171184180Y-152396838D01*
X186006088Y-140342335D02*
X185015820Y-140203162D01*
X172003162Y-139384180D02*
X172142335Y-138393912D01*
X184196838Y-153215820D02*
X184057665Y-154206088D01*
X183067397Y-154066915D02*
X184057665Y-154206088D01*
X170193912Y-152257665D02*
X170333085Y-151267397D01*
X173132603Y-138533085D02*
X172142335Y-138393912D01*
X186006088Y-140342335D02*
X185866915Y-141332603D01*
%TO.C,SW31*%
X191992603Y-141183085D02*
X191002335Y-141043912D01*
X201927397Y-156716915D02*
X202917665Y-156856088D01*
X204866088Y-142992335D02*
X204726915Y-143982603D01*
X189053912Y-154907665D02*
X189193085Y-153917397D01*
X190863162Y-142034180D02*
X191002335Y-141043912D01*
X203056838Y-155865820D02*
X202917665Y-156856088D01*
X189053912Y-154907665D02*
X190044180Y-155046838D01*
X204866088Y-142992335D02*
X203875820Y-142853162D01*
%TO.C,SW40*%
X148138162Y-155249180D02*
X148277335Y-154258912D01*
X146328912Y-168122665D02*
X147319180Y-168261838D01*
X149267603Y-154398085D02*
X148277335Y-154258912D01*
X160331838Y-169080820D02*
X160192665Y-170071088D01*
X162141088Y-156207335D02*
X161150820Y-156068162D01*
X162141088Y-156207335D02*
X162001915Y-157197603D01*
X146328912Y-168122665D02*
X146468085Y-167132397D01*
X159202397Y-169931915D02*
X160192665Y-170071088D01*
%TO.C,SW46*%
X310690000Y-132470000D02*
X309690000Y-132470000D01*
X296690000Y-146470000D02*
X296690000Y-145470000D01*
X309690000Y-146470000D02*
X310690000Y-146470000D01*
X297690000Y-132470000D02*
X296690000Y-132470000D01*
X296690000Y-133470000D02*
X296690000Y-132470000D01*
X310690000Y-132470000D02*
X310690000Y-133470000D01*
X296690000Y-146470000D02*
X297690000Y-146470000D01*
X310690000Y-145470000D02*
X310690000Y-146470000D01*
%TO.C,SW44*%
X325266038Y-151700000D02*
X325266038Y-152700000D01*
X324266038Y-165700000D02*
X325266038Y-165700000D01*
X325266038Y-164700000D02*
X325266038Y-165700000D01*
X325266038Y-151700000D02*
X324266038Y-151700000D01*
X312266038Y-151700000D02*
X311266038Y-151700000D01*
X311266038Y-152700000D02*
X311266038Y-151700000D01*
X311266038Y-165700000D02*
X312266038Y-165700000D01*
X311266038Y-165700000D02*
X311266038Y-164700000D01*
%TO.C,SW2*%
X105590000Y-93850000D02*
X104590000Y-93850000D01*
X104590000Y-107850000D02*
X104590000Y-106850000D01*
X117590000Y-107850000D02*
X118590000Y-107850000D01*
X104590000Y-94850000D02*
X104590000Y-93850000D01*
X118590000Y-93850000D02*
X118590000Y-94850000D01*
X118590000Y-93850000D02*
X117590000Y-93850000D01*
X118590000Y-106850000D02*
X118590000Y-107850000D01*
X104590000Y-107850000D02*
X105590000Y-107850000D01*
%TO.C,SW1*%
X85545000Y-107840000D02*
X86545000Y-107840000D01*
X99545000Y-93840000D02*
X98545000Y-93840000D01*
X99545000Y-93840000D02*
X99545000Y-94840000D01*
X86545000Y-93840000D02*
X85545000Y-93840000D01*
X99545000Y-106840000D02*
X99545000Y-107840000D01*
X98545000Y-107840000D02*
X99545000Y-107840000D01*
X85545000Y-107840000D02*
X85545000Y-106840000D01*
X85545000Y-94840000D02*
X85545000Y-93840000D01*
%TO.C,SW32*%
X221242335Y-156826088D02*
X221103162Y-155835820D01*
X220284180Y-142823162D02*
X219293912Y-142962335D01*
X219433085Y-143952603D02*
X219293912Y-142962335D01*
X221242335Y-156826088D02*
X222232603Y-156686915D01*
X233157665Y-141013912D02*
X233296838Y-142004180D01*
X234966915Y-153887397D02*
X235106088Y-154877665D01*
X233157665Y-141013912D02*
X232167397Y-141153085D01*
X234115820Y-155016838D02*
X235106088Y-154877665D01*
%TO.C,SW20*%
X239947665Y-120823912D02*
X238957397Y-120963085D01*
X226223085Y-123762603D02*
X226083912Y-122772335D01*
X239947665Y-120823912D02*
X240086838Y-121814180D01*
X228032335Y-136636088D02*
X227893162Y-135645820D01*
X241756915Y-133697397D02*
X241896088Y-134687665D01*
X240905820Y-134826838D02*
X241896088Y-134687665D01*
X227074180Y-122633162D02*
X226083912Y-122772335D01*
X228032335Y-136636088D02*
X229022603Y-136496915D01*
%TO.C,SW18*%
X165223162Y-119194180D02*
X165362335Y-118203912D01*
X179226088Y-120152335D02*
X178235820Y-120013162D01*
X177416838Y-133025820D02*
X177277665Y-134016088D01*
X179226088Y-120152335D02*
X179086915Y-121142603D01*
X176287397Y-133876915D02*
X177277665Y-134016088D01*
X163413912Y-132067665D02*
X164404180Y-132206838D01*
X166352603Y-118343085D02*
X165362335Y-118203912D01*
X163413912Y-132067665D02*
X163553085Y-131077397D01*
%TO.C,SW8*%
X251447665Y-99973912D02*
X250457397Y-100113085D01*
X239532335Y-115786088D02*
X240522603Y-115646915D01*
X253256915Y-112847397D02*
X253396088Y-113837665D01*
X239532335Y-115786088D02*
X239393162Y-114795820D01*
X237723085Y-102912603D02*
X237583912Y-101922335D01*
X238574180Y-101783162D02*
X237583912Y-101922335D01*
X251447665Y-99973912D02*
X251586838Y-100964180D01*
X252405820Y-113976838D02*
X253396088Y-113837665D01*
%TO.C,SW34*%
X257163085Y-138642603D02*
X257023912Y-137652335D01*
X271845820Y-149706838D02*
X272836088Y-149567665D01*
X258972335Y-151516088D02*
X259962603Y-151376915D01*
X270887665Y-135703912D02*
X269897397Y-135843085D01*
X258972335Y-151516088D02*
X258833162Y-150525820D01*
X270887665Y-135703912D02*
X271026838Y-136694180D01*
X272696915Y-148577397D02*
X272836088Y-149567665D01*
X258014180Y-137513162D02*
X257023912Y-137652335D01*
%TO.C,SW42*%
X233872623Y-161142603D02*
X233733450Y-160152335D01*
X249406453Y-171077397D02*
X249545626Y-172067665D01*
X248555358Y-172206838D02*
X249545626Y-172067665D01*
X247597203Y-158203912D02*
X247736376Y-159194180D01*
X235681873Y-174016088D02*
X236672141Y-173876915D01*
X247597203Y-158203912D02*
X246606935Y-158343085D01*
X234723718Y-160013162D02*
X233733450Y-160152335D01*
X235681873Y-174016088D02*
X235542700Y-173025820D01*
%TO.C,SW19*%
X182273912Y-134717665D02*
X183264180Y-134856838D01*
X185212603Y-120993085D02*
X184222335Y-120853912D01*
X198086088Y-122802335D02*
X197095820Y-122663162D01*
X184083162Y-121844180D02*
X184222335Y-120853912D01*
X182273912Y-134717665D02*
X182413085Y-133727397D01*
X195147397Y-136526915D02*
X196137665Y-136666088D01*
X198086088Y-122802335D02*
X197946915Y-123792603D01*
X196276838Y-135675820D02*
X196137665Y-136666088D01*
%TO.C,SW29*%
X167146088Y-137682335D02*
X167006915Y-138672603D01*
X164207397Y-151406915D02*
X165197665Y-151546088D01*
X167146088Y-137682335D02*
X166155820Y-137543162D01*
X153143162Y-136724180D02*
X153282335Y-135733912D01*
X154272603Y-135873085D02*
X153282335Y-135733912D01*
X151333912Y-149597665D02*
X152324180Y-149736838D01*
X165336838Y-150555820D02*
X165197665Y-151546088D01*
X151333912Y-149597665D02*
X151473085Y-148607397D01*
%TO.C,SW22*%
X277677665Y-115513912D02*
X277816838Y-116504180D01*
X278635820Y-129516838D02*
X279626088Y-129377665D01*
X264804180Y-117323162D02*
X263813912Y-117462335D01*
X265762335Y-131326088D02*
X266752603Y-131186915D01*
X263953085Y-118452603D02*
X263813912Y-117462335D01*
X277677665Y-115513912D02*
X276687397Y-115653085D01*
X279486915Y-128387397D02*
X279626088Y-129377665D01*
X265762335Y-131326088D02*
X265623162Y-130335820D01*
%TO.C,SW6*%
X194216838Y-116135820D02*
X194077665Y-117126088D01*
X183152603Y-101453085D02*
X182162335Y-101313912D01*
X196026088Y-103262335D02*
X195035820Y-103123162D01*
X180213912Y-115177665D02*
X181204180Y-115316838D01*
X196026088Y-103262335D02*
X195886915Y-104252603D01*
X180213912Y-115177665D02*
X180353085Y-114187397D01*
X182023162Y-102304180D02*
X182162335Y-101313912D01*
X193087397Y-116986915D02*
X194077665Y-117126088D01*
%TO.C,SW23*%
X284622335Y-128686088D02*
X285612603Y-128546915D01*
X282813085Y-115812603D02*
X282673912Y-114822335D01*
X283664180Y-114683162D02*
X282673912Y-114822335D01*
X296537665Y-112873912D02*
X296676838Y-113864180D01*
X296537665Y-112873912D02*
X295547397Y-113013085D01*
X298346915Y-125747397D02*
X298486088Y-126737665D01*
X297495820Y-126876838D02*
X298486088Y-126737665D01*
X284622335Y-128686088D02*
X284483162Y-127695820D01*
%TO.C,SW28*%
X148266088Y-135032335D02*
X147275820Y-134893162D01*
X134263162Y-134074180D02*
X134402335Y-133083912D01*
X145327397Y-148756915D02*
X146317665Y-148896088D01*
X135392603Y-133223085D02*
X134402335Y-133083912D01*
X148266088Y-135032335D02*
X148126915Y-136022603D01*
X146456838Y-147905820D02*
X146317665Y-148896088D01*
X132453912Y-146947665D02*
X132593085Y-145957397D01*
X132453912Y-146947665D02*
X133444180Y-147086838D01*
%TO.C,SW25*%
X329750000Y-114230000D02*
X329750000Y-113230000D01*
X343750000Y-113230000D02*
X343750000Y-114230000D01*
X342750000Y-127230000D02*
X343750000Y-127230000D01*
X330750000Y-113230000D02*
X329750000Y-113230000D01*
X329750000Y-127230000D02*
X330750000Y-127230000D01*
X329750000Y-127230000D02*
X329750000Y-126230000D01*
X343750000Y-126230000D02*
X343750000Y-127230000D01*
X343750000Y-113230000D02*
X342750000Y-113230000D01*
%TO.C,SW35*%
X289747665Y-133063912D02*
X288757397Y-133203085D01*
X290705820Y-147066838D02*
X291696088Y-146927665D01*
X277832335Y-148876088D02*
X278822603Y-148736915D01*
X291556915Y-145937397D02*
X291696088Y-146927665D01*
X276874180Y-134873162D02*
X275883912Y-135012335D01*
X277832335Y-148876088D02*
X277693162Y-147885820D01*
X276023085Y-136002603D02*
X275883912Y-135012335D01*
X289747665Y-133063912D02*
X289886838Y-134054180D01*
%TO.C,SW38*%
X84475000Y-165560000D02*
X85475000Y-165560000D01*
X84475000Y-152560000D02*
X84475000Y-151560000D01*
X84475000Y-165560000D02*
X84475000Y-164560000D01*
X98475000Y-164560000D02*
X98475000Y-165560000D01*
X97475000Y-165560000D02*
X98475000Y-165560000D01*
X98475000Y-151560000D02*
X97475000Y-151560000D01*
X98475000Y-151560000D02*
X98475000Y-152560000D01*
X85475000Y-151560000D02*
X84475000Y-151560000D01*
%TO.C,SW5*%
X163148162Y-99664180D02*
X163287335Y-98673912D01*
X161338912Y-112537665D02*
X162329180Y-112676838D01*
X175341838Y-113495820D02*
X175202665Y-114486088D01*
X177151088Y-100622335D02*
X177011915Y-101612603D01*
X161338912Y-112537665D02*
X161478085Y-111547397D01*
X164277603Y-98813085D02*
X163287335Y-98673912D01*
X177151088Y-100622335D02*
X176160820Y-100483162D01*
X174212397Y-114346915D02*
X175202665Y-114486088D01*
%TO.C,SW3*%
X126552603Y-93513085D02*
X125562335Y-93373912D01*
X139426088Y-95322335D02*
X139286915Y-96312603D01*
X139426088Y-95322335D02*
X138435820Y-95183162D01*
X125423162Y-94364180D02*
X125562335Y-93373912D01*
X136487397Y-109046915D02*
X137477665Y-109186088D01*
X123613912Y-107237665D02*
X123753085Y-106247397D01*
X137616838Y-108195820D02*
X137477665Y-109186088D01*
X123613912Y-107237665D02*
X124604180Y-107376838D01*
%TO.C,SW24*%
X303560000Y-114230000D02*
X303560000Y-113230000D01*
X317560000Y-126230000D02*
X317560000Y-127230000D01*
X317560000Y-113230000D02*
X317560000Y-114230000D01*
X303560000Y-127230000D02*
X304560000Y-127230000D01*
X304560000Y-113230000D02*
X303560000Y-113230000D01*
X303560000Y-127230000D02*
X303560000Y-126230000D01*
X317560000Y-113230000D02*
X316560000Y-113230000D01*
X316560000Y-127230000D02*
X317560000Y-127230000D01*
%TO.C,SW17*%
X147492603Y-115683085D02*
X146502335Y-115543912D01*
X160366088Y-117492335D02*
X160226915Y-118482603D01*
X146363162Y-116534180D02*
X146502335Y-115543912D01*
X158556838Y-130365820D02*
X158417665Y-131356088D01*
X157427397Y-131216915D02*
X158417665Y-131356088D01*
X144553912Y-129407665D02*
X144693085Y-128417397D01*
X144553912Y-129407665D02*
X145544180Y-129546838D01*
X160366088Y-117492335D02*
X159375820Y-117353162D01*
%TD*%
%LPC*%
D11*
%TO.C,SW13*%
X346300000Y-100970000D03*
X336140000Y-100970000D03*
D12*
X338680000Y-106050000D03*
X345030000Y-103510000D03*
D13*
X341220000Y-100970000D03*
%TD*%
D11*
%TO.C,SW33*%
X241049438Y-146966999D03*
D13*
X246080000Y-146260000D03*
D11*
X251110562Y-145553001D03*
D12*
X250206421Y-148245031D03*
X244271718Y-151644061D03*
%TD*%
%TO.C,SW16*%
X130367720Y-125467062D03*
D11*
X128559438Y-120083001D03*
X138620562Y-121496999D03*
D12*
X137009422Y-123835530D03*
D13*
X133590000Y-120790000D03*
%TD*%
D12*
%TO.C,SW11*%
X306930000Y-103510000D03*
D13*
X303120000Y-100970000D03*
D11*
X308200000Y-100970000D03*
X298040000Y-100970000D03*
D12*
X300580000Y-106050000D03*
%TD*%
%TO.C,SW41*%
X181657720Y-171167062D03*
D11*
X179849438Y-165783001D03*
D12*
X188299422Y-169535530D03*
D13*
X184880000Y-166490000D03*
D11*
X189910562Y-167196999D03*
%TD*%
D13*
%TO.C,SW4*%
X150390000Y-103920000D03*
D11*
X155420562Y-104626999D03*
X145359438Y-103213001D03*
D12*
X153809422Y-106965530D03*
X147167720Y-108597062D03*
%TD*%
D11*
%TO.C,SW37*%
X349270000Y-139450000D03*
X339110000Y-139450000D03*
D12*
X341650000Y-144530000D03*
D13*
X344190000Y-139450000D03*
D12*
X348000000Y-141990000D03*
%TD*%
%TO.C,SW7*%
X230746421Y-112505031D03*
D11*
X221589438Y-111226999D03*
D12*
X224811718Y-115904061D03*
D11*
X231650562Y-109813001D03*
D13*
X226620000Y-110520000D03*
%TD*%
D11*
%TO.C,SW15*%
X108610000Y-120090000D03*
D13*
X113690000Y-120090000D03*
D12*
X111150000Y-125170000D03*
D11*
X118770000Y-120090000D03*
D12*
X117500000Y-122630000D03*
%TD*%
D11*
%TO.C,SW14*%
X97430000Y-120090000D03*
D13*
X92350000Y-120090000D03*
D12*
X96160000Y-122630000D03*
D11*
X87270000Y-120090000D03*
D12*
X89810000Y-125170000D03*
%TD*%
%TO.C,SW21*%
X256986421Y-128055031D03*
X251051718Y-131454061D03*
D11*
X257890562Y-125363001D03*
X247829438Y-126776999D03*
D13*
X252860000Y-126070000D03*
%TD*%
D12*
%TO.C,SW39*%
X112775000Y-163655000D03*
D11*
X110235000Y-158575000D03*
D12*
X119125000Y-161115000D03*
D11*
X120395000Y-158575000D03*
D13*
X115315000Y-158575000D03*
%TD*%
D11*
%TO.C,SW26*%
X89085000Y-139320000D03*
D12*
X91625000Y-144400000D03*
D13*
X94165000Y-139320000D03*
D11*
X99245000Y-139320000D03*
D12*
X97975000Y-141860000D03*
%TD*%
D13*
%TO.C,SW36*%
X322740000Y-139450000D03*
D11*
X317660000Y-139450000D03*
D12*
X320200000Y-144530000D03*
X326550000Y-141990000D03*
D11*
X327820000Y-139450000D03*
%TD*%
D13*
%TO.C,SW9*%
X264350000Y-105230000D03*
D12*
X262541718Y-110614061D03*
D11*
X269380562Y-104523001D03*
D12*
X268476421Y-107215031D03*
D11*
X259319438Y-105936999D03*
%TD*%
D12*
%TO.C,SW10*%
X287346421Y-104565031D03*
X281411718Y-107964061D03*
D13*
X283220000Y-102580000D03*
D11*
X278189438Y-103286999D03*
X288250562Y-101873001D03*
%TD*%
D12*
%TO.C,SW45*%
X339530000Y-163780000D03*
D13*
X342070000Y-158700000D03*
D12*
X345880000Y-161240000D03*
D11*
X336990000Y-158700000D03*
X347150000Y-158700000D03*
%TD*%
D13*
%TO.C,SW43*%
X274670000Y-161490000D03*
D11*
X269639438Y-162196999D03*
X279700562Y-160783001D03*
D12*
X278796421Y-163475031D03*
X272861718Y-166874061D03*
%TD*%
%TO.C,SW12*%
X319630000Y-106070000D03*
D11*
X317090000Y-100990000D03*
D12*
X325980000Y-103530000D03*
D13*
X322170000Y-100990000D03*
D11*
X327250000Y-100990000D03*
%TD*%
D13*
%TO.C,SW27*%
X120350000Y-139320000D03*
D12*
X117810000Y-144400000D03*
D11*
X115270000Y-139320000D03*
X125430000Y-139320000D03*
D12*
X124160000Y-141860000D03*
%TD*%
D13*
%TO.C,SW30*%
X178100000Y-146300000D03*
D12*
X174877720Y-150977062D03*
D11*
X173069438Y-145593001D03*
X183130562Y-147006999D03*
D12*
X181519422Y-149345530D03*
%TD*%
%TO.C,SW31*%
X193737720Y-153627062D03*
D13*
X196960000Y-148950000D03*
D11*
X201990562Y-149656999D03*
X191929438Y-148243001D03*
D12*
X200379422Y-151995530D03*
%TD*%
D13*
%TO.C,SW40*%
X154235000Y-162165000D03*
D12*
X151012720Y-166842062D03*
X157654422Y-165210530D03*
D11*
X149204438Y-161458001D03*
X159265562Y-162871999D03*
%TD*%
%TO.C,SW46*%
X298610000Y-139470000D03*
D13*
X303690000Y-139470000D03*
D12*
X307500000Y-142010000D03*
D11*
X308770000Y-139470000D03*
D12*
X301150000Y-144550000D03*
%TD*%
D13*
%TO.C,SW44*%
X318266038Y-158700000D03*
D11*
X323346038Y-158700000D03*
X313186038Y-158700000D03*
D12*
X315726038Y-163780000D03*
X322076038Y-161240000D03*
%TD*%
D11*
%TO.C,SW2*%
X106510000Y-100850000D03*
D12*
X115400000Y-103390000D03*
D13*
X111590000Y-100850000D03*
D11*
X116670000Y-100850000D03*
D12*
X109050000Y-105930000D03*
%TD*%
D11*
%TO.C,SW1*%
X97625000Y-100840000D03*
D13*
X92545000Y-100840000D03*
D11*
X87465000Y-100840000D03*
D12*
X90005000Y-105920000D03*
X96355000Y-103380000D03*
%TD*%
%TO.C,SW32*%
X231326421Y-150905031D03*
D11*
X232230562Y-148213001D03*
X222169438Y-149626999D03*
D13*
X227200000Y-148920000D03*
D12*
X225391718Y-154304061D03*
%TD*%
D11*
%TO.C,SW20*%
X228959438Y-129436999D03*
X239020562Y-128023001D03*
D13*
X233990000Y-128730000D03*
D12*
X238116421Y-130715031D03*
X232181718Y-134114061D03*
%TD*%
D11*
%TO.C,SW18*%
X166289438Y-125403001D03*
X176350562Y-126816999D03*
D12*
X174739422Y-129155530D03*
D13*
X171320000Y-126110000D03*
D12*
X168097720Y-130787062D03*
%TD*%
%TO.C,SW8*%
X249616421Y-109865031D03*
D11*
X240459438Y-108586999D03*
D13*
X245490000Y-107880000D03*
D12*
X243681718Y-113264061D03*
D11*
X250520562Y-107173001D03*
%TD*%
D12*
%TO.C,SW34*%
X263121718Y-148994061D03*
D13*
X264930000Y-143610000D03*
D12*
X269056421Y-145595031D03*
D11*
X269960562Y-142903001D03*
X259899438Y-144316999D03*
%TD*%
D13*
%TO.C,SW42*%
X241639538Y-166110000D03*
D12*
X239831256Y-171494061D03*
D11*
X236608976Y-166816999D03*
X246670100Y-165403001D03*
D12*
X245765959Y-168095031D03*
%TD*%
D11*
%TO.C,SW19*%
X185149438Y-128053001D03*
D13*
X190180000Y-128760000D03*
D12*
X186957720Y-133437062D03*
D11*
X195210562Y-129466999D03*
D12*
X193599422Y-131805530D03*
%TD*%
D13*
%TO.C,SW29*%
X159240000Y-143640000D03*
D11*
X164270562Y-144346999D03*
D12*
X156017720Y-148317062D03*
X162659422Y-146685530D03*
D11*
X154209438Y-142933001D03*
%TD*%
D12*
%TO.C,SW22*%
X269911718Y-128804061D03*
D11*
X276750562Y-122713001D03*
D12*
X275846421Y-125405031D03*
D13*
X271720000Y-123420000D03*
D11*
X266689438Y-124126999D03*
%TD*%
%TO.C,SW6*%
X183089438Y-108513001D03*
D12*
X184897720Y-113897062D03*
D11*
X193150562Y-109926999D03*
D12*
X191539422Y-112265530D03*
D13*
X188120000Y-109220000D03*
%TD*%
D11*
%TO.C,SW23*%
X295610562Y-120073001D03*
D12*
X288771718Y-126164061D03*
D11*
X285549438Y-121486999D03*
D12*
X294706421Y-122765031D03*
D13*
X290580000Y-120780000D03*
%TD*%
D11*
%TO.C,SW28*%
X145390562Y-141696999D03*
D12*
X143779422Y-144035530D03*
D13*
X140360000Y-140990000D03*
D11*
X135329438Y-140283001D03*
D12*
X137137720Y-145667062D03*
%TD*%
D11*
%TO.C,SW25*%
X341830000Y-120230000D03*
X331670000Y-120230000D03*
D12*
X334210000Y-125310000D03*
X340560000Y-122770000D03*
D13*
X336750000Y-120230000D03*
%TD*%
D12*
%TO.C,SW35*%
X281981718Y-146354061D03*
D13*
X283790000Y-140970000D03*
D12*
X287916421Y-142955031D03*
D11*
X278759438Y-141676999D03*
X288820562Y-140263001D03*
%TD*%
D12*
%TO.C,SW38*%
X95285000Y-161100000D03*
X88935000Y-163640000D03*
D11*
X86395000Y-158560000D03*
D13*
X91475000Y-158560000D03*
D11*
X96555000Y-158560000D03*
%TD*%
D12*
%TO.C,SW5*%
X172664422Y-109625530D03*
D11*
X174275562Y-107286999D03*
D13*
X169245000Y-106580000D03*
D11*
X164214438Y-105873001D03*
D12*
X166022720Y-111257062D03*
%TD*%
D14*
%TO.C,S1*%
X230832618Y-174714005D03*
D13*
X228711620Y-159622320D03*
D14*
X254400998Y-171401686D03*
D13*
X252280000Y-156310000D03*
%TD*%
D12*
%TO.C,SW3*%
X134939422Y-104325530D03*
D13*
X131520000Y-101280000D03*
D12*
X128297720Y-105957062D03*
D11*
X126489438Y-100573001D03*
X136550562Y-101986999D03*
%TD*%
D13*
%TO.C,S2*%
X197803064Y-159985268D03*
X174234684Y-156672948D03*
D14*
X195682066Y-175076953D03*
X172113686Y-171764634D03*
%TD*%
D13*
%TO.C,SW24*%
X310560000Y-120230000D03*
D11*
X315640000Y-120230000D03*
D12*
X314370000Y-122770000D03*
D11*
X305480000Y-120230000D03*
D12*
X308020000Y-125310000D03*
%TD*%
%TO.C,SW17*%
X149237720Y-128127062D03*
D11*
X147429438Y-122743001D03*
D13*
X152460000Y-123450000D03*
D12*
X155879422Y-126495530D03*
D11*
X157490562Y-124156999D03*
%TD*%
D15*
%TO.C,J1*%
X99170000Y-89709000D03*
X104950000Y-89709000D03*
D16*
X97760000Y-86060000D03*
D17*
X106360000Y-90260000D03*
D16*
X106360000Y-86060000D03*
D17*
X97760000Y-90260000D03*
%TD*%
M02*
