%TF.GenerationSoftware,KiCad,Pcbnew,(5.99.0-9176-ga1730d51ff)*%
%TF.CreationDate,2021-05-08T16:46:04-05:00*%
%TF.ProjectId,prime e clone,7072696d-6520-4652-9063-6c6f6e652e6b,rev?*%
%TF.SameCoordinates,Original*%
%TF.FileFunction,Soldermask,Bot*%
%TF.FilePolarity,Negative*%
%FSLAX46Y46*%
G04 Gerber Fmt 4.6, Leading zero omitted, Abs format (unit mm)*
G04 Created by KiCad (PCBNEW (5.99.0-9176-ga1730d51ff)) date 2021-05-08 16:46:04*
%MOMM*%
%LPD*%
G01*
G04 APERTURE LIST*
G04 Aperture macros list*
%AMRoundRect*
0 Rectangle with rounded corners*
0 $1 Rounding radius*
0 $2 $3 $4 $5 $6 $7 $8 $9 X,Y pos of 4 corners*
0 Add a 4 corners polygon primitive as box body*
4,1,4,$2,$3,$4,$5,$6,$7,$8,$9,$2,$3,0*
0 Add four circle primitives for the rounded corners*
1,1,$1+$1,$2,$3*
1,1,$1+$1,$4,$5*
1,1,$1+$1,$6,$7*
1,1,$1+$1,$8,$9*
0 Add four rect primitives between the rounded corners*
20,1,$1+$1,$2,$3,$4,$5,0*
20,1,$1+$1,$4,$5,$6,$7,0*
20,1,$1+$1,$6,$7,$8,$9,0*
20,1,$1+$1,$8,$9,$2,$3,0*%
%AMRotRect*
0 Rectangle, with rotation*
0 The origin of the aperture is its center*
0 $1 length*
0 $2 width*
0 $3 Rotation angle, in degrees counterclockwise*
0 Add horizontal line*
21,1,$1,$2,0,0,$3*%
%AMOutline4P*
0 Free polygon, 4 corners , with rotation*
0 The origin of the aperture is its center*
0 number of corners: always 4*
0 $1 to $8 corner X, Y*
0 $9 Rotation angle, in degrees counterclockwise*
0 create outline with 4 corners*
4,1,4,$1,$2,$3,$4,$5,$6,$7,$8,$1,$2,$9*%
G04 Aperture macros list end*
%ADD10R,1.700000X1.000000*%
%ADD11R,1.000000X1.000000*%
%ADD12RotRect,1.000000X1.000000X278.000000*%
%ADD13RotRect,1.000000X1.000000X262.000000*%
%ADD14C,1.701800*%
%ADD15C,3.000000*%
%ADD16C,3.987800*%
%ADD17R,2.550000X2.500000*%
%ADD18RotRect,2.550000X2.500000X188.000000*%
%ADD19RotRect,2.550000X2.500000X172.000000*%
%ADD20C,3.048000*%
%ADD21RoundRect,0.147500X-0.172500X0.147500X-0.172500X-0.147500X0.172500X-0.147500X0.172500X0.147500X0*%
%ADD22RoundRect,0.243750X-0.243750X-0.456250X0.243750X-0.456250X0.243750X0.456250X-0.243750X0.456250X0*%
%ADD23RoundRect,0.243750X0.243750X0.456250X-0.243750X0.456250X-0.243750X-0.456250X0.243750X-0.456250X0*%
%ADD24O,0.550000X1.500000*%
%ADD25Outline4P,-0.750000X-0.250000X0.750000X-0.250000X0.750000X0.250000X-0.750000X0.250000X270.000000*%
%ADD26Outline4P,-0.750000X-0.275000X0.750000X-0.275000X0.750000X0.275000X-0.750000X0.275000X270.000000*%
%ADD27Outline4P,-0.750000X-0.275000X0.750000X-0.275000X0.750000X0.275000X-0.750000X0.275000X180.000000*%
%ADD28Outline4P,-0.750000X-0.250000X0.750000X-0.250000X0.750000X0.250000X-0.750000X0.250000X180.000000*%
%ADD29RoundRect,0.250000X-0.375000X-0.625000X0.375000X-0.625000X0.375000X0.625000X-0.375000X0.625000X0*%
%ADD30RoundRect,0.243750X-0.456250X0.243750X-0.456250X-0.243750X0.456250X-0.243750X0.456250X0.243750X0*%
%ADD31R,1.400000X1.200000*%
%ADD32R,0.900000X1.200000*%
%ADD33RoundRect,0.150000X-0.512500X-0.150000X0.512500X-0.150000X0.512500X0.150000X-0.512500X0.150000X0*%
%ADD34C,0.650000*%
%ADD35RoundRect,0.150000X-0.150000X-0.575000X0.150000X-0.575000X0.150000X0.575000X-0.150000X0.575000X0*%
%ADD36RoundRect,0.075000X-0.075000X-0.650000X0.075000X-0.650000X0.075000X0.650000X-0.075000X0.650000X0*%
%ADD37O,1.300000X1.900000*%
%ADD38O,1.100000X2.200000*%
G04 APERTURE END LIST*
D10*
%TO.C,SW_RESET1*%
X216870000Y-161850000D03*
X210570000Y-161850000D03*
X216870000Y-165650000D03*
X210570000Y-165650000D03*
%TD*%
D11*
%TO.C,D46*%
X311230000Y-136650000D03*
X311230000Y-134150000D03*
%TD*%
%TO.C,D45*%
X349600000Y-155800000D03*
X349600000Y-153300000D03*
%TD*%
%TO.C,D44*%
X325850000Y-155770000D03*
X325850000Y-153270000D03*
%TD*%
D12*
%TO.C,D43*%
X281743966Y-157577835D03*
X281396034Y-155102165D03*
%TD*%
%TO.C,D42*%
X248743966Y-162057835D03*
X248396034Y-159582165D03*
%TD*%
D13*
%TO.C,D41*%
X192796034Y-164717835D03*
X193143966Y-162242165D03*
%TD*%
%TO.C,D40*%
X162156034Y-160227835D03*
X162503966Y-157752165D03*
%TD*%
D11*
%TO.C,D39*%
X122895000Y-155455000D03*
X122895000Y-152955000D03*
%TD*%
%TO.C,D38*%
X99025000Y-155440000D03*
X99025000Y-152940000D03*
%TD*%
%TO.C,D37*%
X351740000Y-136420000D03*
X351740000Y-133920000D03*
%TD*%
%TO.C,D36*%
X330310000Y-136410000D03*
X330310000Y-133910000D03*
%TD*%
D12*
%TO.C,D35*%
X290833966Y-136867835D03*
X290486034Y-134392165D03*
%TD*%
%TO.C,D34*%
X271983966Y-139487835D03*
X271636034Y-137012165D03*
%TD*%
%TO.C,D33*%
X253193966Y-142517835D03*
X252846034Y-140042165D03*
%TD*%
%TO.C,D32*%
X234313966Y-145087835D03*
X233966034Y-142612165D03*
%TD*%
D13*
%TO.C,D31*%
X203636034Y-146927835D03*
X203983966Y-144452165D03*
%TD*%
%TO.C,D30*%
X185956034Y-144527835D03*
X186303966Y-142052165D03*
%TD*%
%TO.C,D29*%
X167096034Y-141897835D03*
X167443966Y-139422165D03*
%TD*%
%TO.C,D28*%
X148216034Y-139197835D03*
X148563966Y-136722165D03*
%TD*%
D11*
%TO.C,D27*%
X127890000Y-136380000D03*
X127890000Y-133880000D03*
%TD*%
%TO.C,D26*%
X101710000Y-136420000D03*
X101710000Y-133920000D03*
%TD*%
%TO.C,D25*%
X344280000Y-117200000D03*
X344280000Y-114700000D03*
%TD*%
%TO.C,D24*%
X318120000Y-117300000D03*
X318120000Y-114800000D03*
%TD*%
D12*
%TO.C,D23*%
X297583966Y-116737835D03*
X297236034Y-114262165D03*
%TD*%
%TO.C,D22*%
X278803966Y-119447835D03*
X278456034Y-116972165D03*
%TD*%
%TO.C,D21*%
X259943966Y-122127835D03*
X259596034Y-119652165D03*
%TD*%
%TO.C,D20*%
X241073966Y-124797835D03*
X240726034Y-122322165D03*
%TD*%
D13*
%TO.C,D19*%
X198072068Y-127375670D03*
X198420000Y-124900000D03*
%TD*%
%TO.C,D18*%
X179196034Y-124417835D03*
X179543966Y-121942165D03*
%TD*%
%TO.C,D17*%
X160326034Y-121647835D03*
X160673966Y-119172165D03*
%TD*%
%TO.C,D16*%
X141476034Y-119157835D03*
X141823966Y-116682165D03*
%TD*%
D11*
%TO.C,D15*%
X121270000Y-117020000D03*
X121270000Y-114520000D03*
%TD*%
%TO.C,D14*%
X99900000Y-117090000D03*
X99900000Y-114590000D03*
%TD*%
%TO.C,D13*%
X348780000Y-97860000D03*
X348780000Y-95360000D03*
%TD*%
%TO.C,D12*%
X329720000Y-97940000D03*
X329720000Y-95440000D03*
%TD*%
%TO.C,D11*%
X310640000Y-97960000D03*
X310640000Y-95460000D03*
%TD*%
D12*
%TO.C,D10*%
X290303966Y-98547835D03*
X289956034Y-96072165D03*
%TD*%
%TO.C,D9*%
X271413966Y-101167835D03*
X271066034Y-98692165D03*
%TD*%
%TO.C,D8*%
X252823966Y-104877835D03*
X252476034Y-102402165D03*
%TD*%
%TO.C,D7*%
X233663966Y-106297835D03*
X233316034Y-103822165D03*
%TD*%
D13*
%TO.C,D6*%
X196066034Y-106967835D03*
X196413966Y-104492165D03*
%TD*%
%TO.C,D5*%
X177206034Y-104425335D03*
X177553966Y-101949665D03*
%TD*%
%TO.C,D4*%
X158366034Y-101237835D03*
X158713966Y-98762165D03*
%TD*%
%TO.C,D3*%
X139526034Y-98869085D03*
X139873966Y-96393415D03*
%TD*%
D11*
%TO.C,D2*%
X119100000Y-98510000D03*
X119100000Y-96010000D03*
%TD*%
%TO.C,D1*%
X100160000Y-98020000D03*
X100160000Y-95520000D03*
%TD*%
D14*
%TO.C,SW13*%
X346300000Y-100970000D03*
X336140000Y-100970000D03*
D15*
X338680000Y-106050000D03*
X345030000Y-103510000D03*
D16*
X341220000Y-100970000D03*
D17*
X334930000Y-106050000D03*
X348780000Y-103510000D03*
%TD*%
D14*
%TO.C,SW33*%
X241049438Y-146966999D03*
D16*
X246080000Y-146260000D03*
D14*
X251110562Y-145553001D03*
D15*
X250206421Y-148245031D03*
X244271718Y-151644061D03*
D18*
X240558213Y-152165961D03*
X253919926Y-147723132D03*
%TD*%
D15*
%TO.C,SW16*%
X130367720Y-125467062D03*
D14*
X128559438Y-120083001D03*
X138620562Y-121496999D03*
D15*
X137009422Y-123835530D03*
D16*
X133590000Y-120790000D03*
D19*
X126654214Y-124945163D03*
X140722927Y-124357430D03*
%TD*%
D15*
%TO.C,SW11*%
X306930000Y-103510000D03*
D16*
X303120000Y-100970000D03*
D14*
X308200000Y-100970000D03*
X298040000Y-100970000D03*
D15*
X300580000Y-106050000D03*
D17*
X296830000Y-106050000D03*
X310680000Y-103510000D03*
%TD*%
D15*
%TO.C,SW41*%
X181657720Y-171167062D03*
D14*
X179849438Y-165783001D03*
D15*
X188299422Y-169535530D03*
D16*
X184880000Y-166490000D03*
D14*
X189910562Y-167196999D03*
D19*
X177944214Y-170645163D03*
X192012927Y-170057430D03*
%TD*%
D16*
%TO.C,SW4*%
X150390000Y-103920000D03*
D14*
X155420562Y-104626999D03*
X145359438Y-103213001D03*
D15*
X153809422Y-106965530D03*
X147167720Y-108597062D03*
D19*
X143454214Y-108075163D03*
X157522927Y-107487430D03*
%TD*%
D14*
%TO.C,SW37*%
X349270000Y-139450000D03*
X339110000Y-139450000D03*
D15*
X341650000Y-144530000D03*
D16*
X344190000Y-139450000D03*
D15*
X348000000Y-141990000D03*
D17*
X337900000Y-144530000D03*
X351750000Y-141990000D03*
%TD*%
D15*
%TO.C,SW7*%
X230746421Y-112505031D03*
D14*
X221589438Y-111226999D03*
D15*
X224811718Y-115904061D03*
D14*
X231650562Y-109813001D03*
D16*
X226620000Y-110520000D03*
D18*
X221098213Y-116425961D03*
X234459926Y-111983132D03*
%TD*%
D14*
%TO.C,SW15*%
X108610000Y-120090000D03*
D16*
X113690000Y-120090000D03*
D15*
X111150000Y-125170000D03*
D14*
X118770000Y-120090000D03*
D15*
X117500000Y-122630000D03*
D17*
X107400000Y-125170000D03*
X121250000Y-122630000D03*
%TD*%
D14*
%TO.C,SW14*%
X97430000Y-120090000D03*
D16*
X92350000Y-120090000D03*
D15*
X96160000Y-122630000D03*
D14*
X87270000Y-120090000D03*
D15*
X89810000Y-125170000D03*
D17*
X86060000Y-125170000D03*
X99910000Y-122630000D03*
%TD*%
D15*
%TO.C,SW21*%
X256986421Y-128055031D03*
X251051718Y-131454061D03*
D14*
X257890562Y-125363001D03*
X247829438Y-126776999D03*
D16*
X252860000Y-126070000D03*
D18*
X247338213Y-131975961D03*
X260699926Y-127533132D03*
%TD*%
D15*
%TO.C,SW39*%
X112775000Y-163655000D03*
D14*
X110235000Y-158575000D03*
D15*
X119125000Y-161115000D03*
D14*
X120395000Y-158575000D03*
D16*
X115315000Y-158575000D03*
D17*
X109025000Y-163655000D03*
X122875000Y-161115000D03*
%TD*%
D14*
%TO.C,SW26*%
X89085000Y-139320000D03*
D15*
X91625000Y-144400000D03*
D16*
X94165000Y-139320000D03*
D14*
X99245000Y-139320000D03*
D15*
X97975000Y-141860000D03*
D17*
X87875000Y-144400000D03*
X101725000Y-141860000D03*
%TD*%
D16*
%TO.C,SW36*%
X322740000Y-139450000D03*
D14*
X317660000Y-139450000D03*
D15*
X320200000Y-144530000D03*
X326550000Y-141990000D03*
D14*
X327820000Y-139450000D03*
D17*
X316450000Y-144530000D03*
X330300000Y-141990000D03*
%TD*%
D16*
%TO.C,SW9*%
X264350000Y-105230000D03*
D15*
X262541718Y-110614061D03*
D14*
X269380562Y-104523001D03*
D15*
X268476421Y-107215031D03*
D14*
X259319438Y-105936999D03*
D18*
X258828213Y-111135961D03*
X272189926Y-106693132D03*
%TD*%
D15*
%TO.C,SW10*%
X287346421Y-104565031D03*
X281411718Y-107964061D03*
D16*
X283220000Y-102580000D03*
D14*
X278189438Y-103286999D03*
X288250562Y-101873001D03*
D18*
X277698213Y-108485961D03*
X291059926Y-104043132D03*
%TD*%
D15*
%TO.C,SW45*%
X339530000Y-163780000D03*
D16*
X342070000Y-158700000D03*
D15*
X345880000Y-161240000D03*
D14*
X336990000Y-158700000D03*
X347150000Y-158700000D03*
D17*
X335780000Y-163780000D03*
X349630000Y-161240000D03*
%TD*%
D16*
%TO.C,SW43*%
X274670000Y-161490000D03*
D14*
X269639438Y-162196999D03*
X279700562Y-160783001D03*
D15*
X278796421Y-163475031D03*
X272861718Y-166874061D03*
D18*
X269148213Y-167395961D03*
X282509926Y-162953132D03*
%TD*%
D15*
%TO.C,SW12*%
X319630000Y-106070000D03*
D14*
X317090000Y-100990000D03*
D15*
X325980000Y-103530000D03*
D16*
X322170000Y-100990000D03*
D14*
X327250000Y-100990000D03*
D17*
X315880000Y-106070000D03*
X329730000Y-103530000D03*
%TD*%
D16*
%TO.C,SW27*%
X120350000Y-139320000D03*
D15*
X117810000Y-144400000D03*
D14*
X115270000Y-139320000D03*
X125430000Y-139320000D03*
D15*
X124160000Y-141860000D03*
D17*
X114060000Y-144400000D03*
X127910000Y-141860000D03*
%TD*%
D16*
%TO.C,SW30*%
X178100000Y-146300000D03*
D15*
X174877720Y-150977062D03*
D14*
X173069438Y-145593001D03*
X183130562Y-147006999D03*
D15*
X181519422Y-149345530D03*
D19*
X171164214Y-150455163D03*
X185232927Y-149867430D03*
%TD*%
D15*
%TO.C,SW31*%
X193737720Y-153627062D03*
D16*
X196960000Y-148950000D03*
D14*
X201990562Y-149656999D03*
X191929438Y-148243001D03*
D15*
X200379422Y-151995530D03*
D19*
X190024214Y-153105163D03*
X204092927Y-152517430D03*
%TD*%
D16*
%TO.C,SW40*%
X154235000Y-162165000D03*
D15*
X151012720Y-166842062D03*
X157654422Y-165210530D03*
D14*
X149204438Y-161458001D03*
X159265562Y-162871999D03*
D19*
X147299214Y-166320163D03*
X161367927Y-165732430D03*
%TD*%
D14*
%TO.C,SW46*%
X298610000Y-139470000D03*
D16*
X303690000Y-139470000D03*
D15*
X307500000Y-142010000D03*
D14*
X308770000Y-139470000D03*
D15*
X301150000Y-144550000D03*
D17*
X297400000Y-144550000D03*
X311250000Y-142010000D03*
%TD*%
D16*
%TO.C,SW44*%
X318266038Y-158700000D03*
D14*
X323346038Y-158700000D03*
X313186038Y-158700000D03*
D15*
X315726038Y-163780000D03*
X322076038Y-161240000D03*
D17*
X311976038Y-163780000D03*
X325826038Y-161240000D03*
%TD*%
D14*
%TO.C,SW2*%
X106510000Y-100850000D03*
D15*
X115400000Y-103390000D03*
D16*
X111590000Y-100850000D03*
D14*
X116670000Y-100850000D03*
D15*
X109050000Y-105930000D03*
D17*
X105300000Y-105930000D03*
X119150000Y-103390000D03*
%TD*%
D14*
%TO.C,SW1*%
X97625000Y-100840000D03*
D16*
X92545000Y-100840000D03*
D14*
X87465000Y-100840000D03*
D15*
X90005000Y-105920000D03*
X96355000Y-103380000D03*
D17*
X86255000Y-105920000D03*
X100105000Y-103380000D03*
%TD*%
D15*
%TO.C,SW32*%
X231326421Y-150905031D03*
D14*
X232230562Y-148213001D03*
X222169438Y-149626999D03*
D16*
X227200000Y-148920000D03*
D15*
X225391718Y-154304061D03*
D18*
X221678213Y-154825961D03*
X235039926Y-150383132D03*
%TD*%
D14*
%TO.C,SW20*%
X228959438Y-129436999D03*
X239020562Y-128023001D03*
D16*
X233990000Y-128730000D03*
D15*
X238116421Y-130715031D03*
X232181718Y-134114061D03*
D18*
X228468213Y-134635961D03*
X241829926Y-130193132D03*
%TD*%
D14*
%TO.C,SW18*%
X166289438Y-125403001D03*
X176350562Y-126816999D03*
D15*
X174739422Y-129155530D03*
D16*
X171320000Y-126110000D03*
D15*
X168097720Y-130787062D03*
D19*
X164384214Y-130265163D03*
X178452927Y-129677430D03*
%TD*%
D15*
%TO.C,SW8*%
X249616421Y-109865031D03*
D14*
X240459438Y-108586999D03*
D16*
X245490000Y-107880000D03*
D15*
X243681718Y-113264061D03*
D14*
X250520562Y-107173001D03*
D18*
X239968213Y-113785961D03*
X253329926Y-109343132D03*
%TD*%
D15*
%TO.C,SW34*%
X263121718Y-148994061D03*
D16*
X264930000Y-143610000D03*
D15*
X269056421Y-145595031D03*
D14*
X269960562Y-142903001D03*
X259899438Y-144316999D03*
D18*
X259408213Y-149515961D03*
X272769926Y-145073132D03*
%TD*%
D16*
%TO.C,SW42*%
X241639538Y-166110000D03*
D15*
X239831256Y-171494061D03*
D14*
X236608976Y-166816999D03*
X246670100Y-165403001D03*
D15*
X245765959Y-168095031D03*
D18*
X236117751Y-172015961D03*
X249479464Y-167573132D03*
%TD*%
D14*
%TO.C,SW19*%
X185149438Y-128053001D03*
D16*
X190180000Y-128760000D03*
D15*
X186957720Y-133437062D03*
D14*
X195210562Y-129466999D03*
D15*
X193599422Y-131805530D03*
D19*
X183244214Y-132915163D03*
X197312927Y-132327430D03*
%TD*%
D16*
%TO.C,SW29*%
X159240000Y-143640000D03*
D14*
X164270562Y-144346999D03*
D15*
X156017720Y-148317062D03*
X162659422Y-146685530D03*
D14*
X154209438Y-142933001D03*
D19*
X152304214Y-147795163D03*
X166372927Y-147207430D03*
%TD*%
D15*
%TO.C,SW22*%
X269911718Y-128804061D03*
D14*
X276750562Y-122713001D03*
D15*
X275846421Y-125405031D03*
D16*
X271720000Y-123420000D03*
D14*
X266689438Y-124126999D03*
D18*
X266198213Y-129325961D03*
X279559926Y-124883132D03*
%TD*%
D14*
%TO.C,SW6*%
X183089438Y-108513001D03*
D15*
X184897720Y-113897062D03*
D14*
X193150562Y-109926999D03*
D15*
X191539422Y-112265530D03*
D16*
X188120000Y-109220000D03*
D19*
X181184214Y-113375163D03*
X195252927Y-112787430D03*
%TD*%
D14*
%TO.C,SW23*%
X295610562Y-120073001D03*
D15*
X288771718Y-126164061D03*
D14*
X285549438Y-121486999D03*
D15*
X294706421Y-122765031D03*
D16*
X290580000Y-120780000D03*
D18*
X285058213Y-126685961D03*
X298419926Y-122243132D03*
%TD*%
D14*
%TO.C,SW28*%
X145390562Y-141696999D03*
D15*
X143779422Y-144035530D03*
D16*
X140360000Y-140990000D03*
D14*
X135329438Y-140283001D03*
D15*
X137137720Y-145667062D03*
D19*
X133424214Y-145145163D03*
X147492927Y-144557430D03*
%TD*%
D14*
%TO.C,SW25*%
X341830000Y-120230000D03*
X331670000Y-120230000D03*
D15*
X334210000Y-125310000D03*
X340560000Y-122770000D03*
D16*
X336750000Y-120230000D03*
D17*
X330460000Y-125310000D03*
X344310000Y-122770000D03*
%TD*%
D15*
%TO.C,SW35*%
X281981718Y-146354061D03*
D16*
X283790000Y-140970000D03*
D15*
X287916421Y-142955031D03*
D14*
X278759438Y-141676999D03*
X288820562Y-140263001D03*
D18*
X278268213Y-146875961D03*
X291629926Y-142433132D03*
%TD*%
D15*
%TO.C,SW38*%
X95285000Y-161100000D03*
X88935000Y-163640000D03*
D14*
X86395000Y-158560000D03*
D16*
X91475000Y-158560000D03*
D14*
X96555000Y-158560000D03*
D17*
X85185000Y-163640000D03*
X99035000Y-161100000D03*
%TD*%
D15*
%TO.C,SW5*%
X172664422Y-109625530D03*
D14*
X174275562Y-107286999D03*
D16*
X169245000Y-106580000D03*
D14*
X164214438Y-105873001D03*
D15*
X166022720Y-111257062D03*
D19*
X162309214Y-110735163D03*
X176377927Y-110147430D03*
%TD*%
D20*
%TO.C,S1*%
X230832618Y-174714005D03*
D16*
X228711620Y-159622320D03*
D20*
X254400998Y-171401686D03*
D16*
X252280000Y-156310000D03*
%TD*%
D15*
%TO.C,SW3*%
X134939422Y-104325530D03*
D16*
X131520000Y-101280000D03*
D15*
X128297720Y-105957062D03*
D14*
X126489438Y-100573001D03*
X136550562Y-101986999D03*
D19*
X124584214Y-105435163D03*
X138652927Y-104847430D03*
%TD*%
D16*
%TO.C,S2*%
X197803064Y-159985268D03*
X174234684Y-156672948D03*
D20*
X195682066Y-175076953D03*
X172113686Y-171764634D03*
%TD*%
D16*
%TO.C,SW24*%
X310560000Y-120230000D03*
D14*
X315640000Y-120230000D03*
D15*
X314370000Y-122770000D03*
D14*
X305480000Y-120230000D03*
D15*
X308020000Y-125310000D03*
D17*
X304270000Y-125310000D03*
X318120000Y-122770000D03*
%TD*%
D15*
%TO.C,SW17*%
X149237720Y-128127062D03*
D14*
X147429438Y-122743001D03*
D16*
X152460000Y-123450000D03*
D15*
X155879422Y-126495530D03*
D14*
X157490562Y-124156999D03*
D19*
X145524214Y-127605163D03*
X159592927Y-127017430D03*
%TD*%
D21*
%TO.C,R4*%
X106150000Y-93095000D03*
X106150000Y-94065000D03*
%TD*%
D22*
%TO.C,R2*%
X213822500Y-159670000D03*
X215697500Y-159670000D03*
%TD*%
%TO.C,C5*%
X212602500Y-141480000D03*
X214477500Y-141480000D03*
%TD*%
%TO.C,R7*%
X121382500Y-94400000D03*
X123257500Y-94400000D03*
%TD*%
D23*
%TO.C,R1*%
X199160000Y-140250000D03*
X197285000Y-140250000D03*
%TD*%
D22*
%TO.C,R6*%
X121382500Y-91940000D03*
X123257500Y-91940000D03*
%TD*%
%TO.C,C2*%
X221040000Y-135310000D03*
X222915000Y-135310000D03*
%TD*%
D24*
%TO.C,U1*%
X205400000Y-126250000D03*
D25*
X206200000Y-126250000D03*
X207000000Y-126250000D03*
D26*
X207800000Y-126250000D03*
X208600000Y-126250000D03*
X209400000Y-126250000D03*
X210200000Y-126250000D03*
X211000000Y-126250000D03*
X211800000Y-126250000D03*
X212600000Y-126250000D03*
X213400000Y-126250000D03*
D27*
X215100000Y-127950000D03*
X215100000Y-128750000D03*
X215100000Y-129550000D03*
X215100000Y-130350000D03*
X215100000Y-131150000D03*
X215100000Y-131950000D03*
X215100000Y-132750000D03*
X215100000Y-133550000D03*
X215100000Y-134350000D03*
X215100000Y-135150000D03*
X215100000Y-135950000D03*
D26*
X213400000Y-137650000D03*
X212600000Y-137650000D03*
X211800000Y-137650000D03*
X211000000Y-137650000D03*
X210200000Y-137650000D03*
X209400000Y-137650000D03*
X208600000Y-137650000D03*
X207800000Y-137650000D03*
X207000000Y-137650000D03*
X206200000Y-137650000D03*
X205400000Y-137650000D03*
D27*
X203700000Y-135950000D03*
X203700000Y-135150000D03*
X203700000Y-134350000D03*
X203700000Y-133550000D03*
X203700000Y-132750000D03*
X203700000Y-131950000D03*
X203700000Y-131150000D03*
X203700000Y-130350000D03*
X203700000Y-129550000D03*
X203700000Y-128750000D03*
D28*
X203700000Y-127950000D03*
%TD*%
D22*
%TO.C,C7*%
X220912500Y-126860000D03*
X222787500Y-126860000D03*
%TD*%
D29*
%TO.C,F1*%
X104615000Y-95730000D03*
X107415000Y-95730000D03*
%TD*%
D30*
%TO.C,R5*%
X94000000Y-95312500D03*
X94000000Y-97187500D03*
%TD*%
D31*
%TO.C,X1*%
X220890000Y-131180000D03*
X223090000Y-131180000D03*
X223090000Y-132880000D03*
X220890000Y-132880000D03*
%TD*%
D30*
%TO.C,C3*%
X209400000Y-121182500D03*
X209400000Y-123057500D03*
%TD*%
%TO.C,C9*%
X95980000Y-95302500D03*
X95980000Y-97177500D03*
%TD*%
D22*
%TO.C,C1*%
X220912500Y-128970000D03*
X222787500Y-128970000D03*
%TD*%
D32*
%TO.C,DS1*%
X107475000Y-98050000D03*
X104175000Y-98050000D03*
%TD*%
D33*
%TO.C,U2*%
X109532500Y-94120000D03*
X109532500Y-93170000D03*
X109532500Y-92220000D03*
X111807500Y-92220000D03*
X111807500Y-93170000D03*
X111807500Y-94120000D03*
%TD*%
D23*
%TO.C,C8*%
X201740000Y-121060000D03*
X199865000Y-121060000D03*
%TD*%
D34*
%TO.C,J1*%
X99170000Y-89709000D03*
X104950000Y-89709000D03*
D35*
X98810000Y-91035000D03*
X99610000Y-91035000D03*
D36*
X100810000Y-91035000D03*
X101806000Y-91035000D03*
X102310000Y-91035000D03*
X103310000Y-91035000D03*
D35*
X105310000Y-91035000D03*
X104510000Y-91035000D03*
D36*
X103810000Y-91035000D03*
X102810000Y-91035000D03*
X101310000Y-91035000D03*
X100310000Y-91035000D03*
D37*
X97760000Y-86060000D03*
D38*
X106360000Y-90260000D03*
D37*
X106360000Y-86060000D03*
D38*
X97760000Y-90260000D03*
%TD*%
D21*
%TO.C,R3*%
X100570000Y-92715000D03*
X100570000Y-93685000D03*
%TD*%
D23*
%TO.C,C6*%
X199170000Y-138040000D03*
X197295000Y-138040000D03*
%TD*%
%TO.C,C4*%
X201750000Y-123150000D03*
X199875000Y-123150000D03*
%TD*%
M02*
