%TF.GenerationSoftware,KiCad,Pcbnew,(5.99.0-9519-ga70106a3bd)*%
%TF.CreationDate,2021-03-14T20:33:52-05:00*%
%TF.ProjectId,Plate,506c6174-652e-46b6-9963-61645f706362,rev?*%
%TF.SameCoordinates,Original*%
%TF.FileFunction,Profile,NP*%
%FSLAX46Y46*%
G04 Gerber Fmt 4.6, Leading zero omitted, Abs format (unit mm)*
G04 Created by KiCad (PCBNEW (5.99.0-9519-ga70106a3bd)) date 2021-03-14 20:33:52*
%MOMM*%
%LPD*%
G01*
G04 APERTURE LIST*
%TA.AperFunction,Profile*%
%ADD10C,0.200000*%
%TD*%
G04 APERTURE END LIST*
D10*
X187612000Y-75460000D02*
X173748000Y-77408400D01*
X104002000Y-44044600D02*
X102054000Y-57908400D01*
X26396000Y-37262300D02*
X26396000Y-51262300D01*
X11326000Y-108982300D02*
X11326000Y-94982300D01*
X244416000Y-70642300D02*
X230416000Y-70642300D01*
X75122100Y-78454600D02*
X73173700Y-92318400D01*
X31436000Y-37272300D02*
X45436000Y-37272300D01*
X64323699Y-52598400D02*
X50459900Y-50650000D01*
X73348300Y-58976200D02*
X87212100Y-60924600D01*
X193610000Y-98954600D02*
X207473999Y-97006200D01*
X218551999Y-90350000D02*
X204688000Y-92298400D01*
X211478000Y-72108400D02*
X209530000Y-58244600D01*
X183878000Y-100327300D02*
X185826000Y-114191300D01*
X238116000Y-109112300D02*
X238116000Y-95112300D01*
X9836000Y-34233700D02*
X280336000Y-34233700D01*
X49156000Y-109002300D02*
X35156000Y-109002300D01*
X256606000Y-75882300D02*
X256606000Y-89882300D01*
X216604000Y-76486200D02*
X218551999Y-90350000D01*
X78179900Y-93020000D02*
X80128300Y-79156200D01*
X109018000Y-44746200D02*
X122882000Y-46694600D01*
X28006000Y-89752300D02*
X14006000Y-89752300D01*
X138608217Y-123466406D02*
X55403882Y-111738192D01*
X31436000Y-51272300D02*
X31436000Y-37272300D01*
X160003999Y-84436200D02*
X161952000Y-98300000D01*
X237546000Y-89892300D02*
X223546000Y-89892300D01*
X183290000Y-42684600D02*
X197154000Y-40736200D01*
X92043700Y-94968400D02*
X78179900Y-93020000D01*
X85142100Y-41394600D02*
X83193700Y-55258400D01*
X159434000Y-46046200D02*
X161382000Y-59910000D01*
X54206000Y-89752300D02*
X40206000Y-89752300D01*
X165030000Y-83724600D02*
X178894000Y-81776200D01*
X236986000Y-51402300D02*
X222986000Y-51402300D01*
X252116000Y-109112300D02*
X238116000Y-109112300D01*
X120934000Y-60558400D02*
X107070000Y-58610000D01*
X9336000Y-111233300D02*
X9336000Y-34733700D01*
X223546000Y-89892300D02*
X223546000Y-75892300D01*
X117848000Y-84466200D02*
X131712000Y-86414600D01*
X12396000Y-51262300D02*
X12396000Y-37262300D01*
X68342100Y-58274600D02*
X66393700Y-72138400D01*
X25326000Y-108982300D02*
X11326000Y-108982300D01*
X90259900Y-75490000D02*
X92208300Y-61626200D01*
X209530000Y-58244600D02*
X223394000Y-56296200D01*
X107070000Y-58610000D02*
X109018000Y-44746200D01*
X49156000Y-95002300D02*
X49156000Y-109002300D01*
X35156000Y-95002300D02*
X49156000Y-95002300D01*
X147518000Y-61858400D02*
X145569999Y-47994600D01*
X26396000Y-51262300D02*
X12396000Y-51262300D01*
X280336000Y-111733300D02*
X222479000Y-111733301D01*
X204108000Y-53888400D02*
X202160000Y-40024600D01*
X73169900Y-111550300D02*
X75118300Y-97686200D01*
X261936000Y-95132300D02*
X275936000Y-95132300D01*
X185238000Y-56548400D02*
X183290000Y-42684600D01*
X199102000Y-54600000D02*
X185238000Y-56548400D01*
X173748000Y-77408400D02*
X171800000Y-63544600D01*
X127112000Y-119153300D02*
X94383900Y-114553300D01*
X124932000Y-66234599D02*
X122984000Y-80098400D01*
X138747409Y-123466459D02*
G75*
G02*
X138608217Y-123466406I-69409J495159D01*
G01*
X14006000Y-89752300D02*
X14006000Y-75752300D01*
X199702000Y-93000000D02*
X185838000Y-94948400D01*
X166794000Y-64246200D02*
X168741999Y-78110000D01*
X280836000Y-111233300D02*
G75*
G02*
X280336000Y-111733300I-500000J0D01*
G01*
X75118300Y-97686200D02*
X88982100Y-99634600D01*
X112862000Y-83744600D02*
X110913999Y-97608400D01*
X171800000Y-63544600D02*
X185664000Y-61596200D01*
X28006000Y-75752300D02*
X28006000Y-89752300D01*
X12396000Y-37262300D02*
X26396000Y-37262300D01*
X161382000Y-59910000D02*
X147518000Y-61858400D01*
X96332300Y-100689300D02*
X129061000Y-105289300D01*
X238116000Y-95112300D02*
X252116000Y-95112300D01*
X50459900Y-50650000D02*
X52408300Y-36786200D01*
X106072000Y-63574600D02*
X104123999Y-77438400D01*
X71399900Y-72840000D02*
X73348300Y-58976200D01*
X225341999Y-70160000D02*
X211478000Y-72108400D01*
X256596000Y-56652300D02*
X270596000Y-56652300D01*
X85263700Y-74788400D02*
X71399900Y-72840000D01*
X256596000Y-70652300D02*
X256596000Y-56652300D01*
X209422000Y-110870300D02*
X195558000Y-112818300D01*
X222986000Y-37402300D02*
X236986000Y-37402300D01*
X261066000Y-51392300D02*
X261066000Y-37392300D01*
X40206000Y-89752300D02*
X40206000Y-75752300D01*
X275936000Y-109132300D02*
X261936000Y-109132300D01*
X88982100Y-99634600D02*
X87033700Y-113498300D01*
X183890000Y-81084600D02*
X197754000Y-79136200D01*
X275066000Y-51392300D02*
X261066000Y-51392300D01*
X61258300Y-76506200D02*
X75122100Y-78454600D01*
X102054000Y-57908400D02*
X88189900Y-55960000D01*
X97049900Y-95660000D02*
X98998300Y-81796200D01*
X197754000Y-79136200D02*
X199702000Y-93000000D01*
X88189900Y-55960000D02*
X90138300Y-42096200D01*
X80128300Y-79156200D02*
X93992100Y-81104600D01*
X33545999Y-56512300D02*
X47546000Y-56512300D01*
X52529900Y-70190000D02*
X54478300Y-56326200D01*
X26206000Y-70512300D02*
X12206000Y-70512300D01*
X280336001Y-34233701D02*
G75*
G02*
X280835999Y-34733701I-1J-499999D01*
G01*
X12206000Y-56512300D02*
X26206000Y-56512300D01*
X83193700Y-55258400D02*
X69329900Y-53310000D01*
X104123999Y-77438400D02*
X90259900Y-75490000D01*
X55334100Y-111733299D02*
X9836000Y-111733300D01*
X71278300Y-39446200D02*
X85142100Y-41394600D01*
X14006000Y-75752300D02*
X28006000Y-75752300D01*
X180241999Y-57270000D02*
X166378000Y-59218400D01*
X275936000Y-95132300D02*
X275936000Y-109132300D01*
X87033700Y-113498300D02*
X73169900Y-111550300D01*
X55334099Y-111733299D02*
G75*
G02*
X55403882Y-111738192I1J-500001D01*
G01*
X217972000Y-51940000D02*
X204108000Y-53888400D01*
X195558000Y-112818300D02*
X193610000Y-98954600D01*
X9836000Y-111733300D02*
G75*
G02*
X9336000Y-111233300I0J500000D01*
G01*
X190670000Y-60894600D02*
X204534000Y-58946200D01*
X69329900Y-53310000D02*
X71278300Y-39446200D01*
X202160000Y-40024600D02*
X216024000Y-38076200D01*
X222409591Y-111738142D02*
G75*
G02*
X222479000Y-111733301I69409J-495157D01*
G01*
X204688000Y-92298400D02*
X202740000Y-78434600D01*
X185826000Y-114191300D02*
X153098000Y-118791300D01*
X54478300Y-56326200D02*
X68342100Y-58274600D01*
X92208300Y-61626200D02*
X106072000Y-63574600D01*
X242026000Y-37412300D02*
X256025999Y-37412300D01*
X54206000Y-75752300D02*
X54206000Y-89752300D01*
X66393700Y-72138400D02*
X52529900Y-70190000D01*
X154878000Y-80058400D02*
X152930000Y-66194600D01*
X66272100Y-38734600D02*
X64323699Y-52598400D01*
X230416000Y-70642300D02*
X230416000Y-56642300D01*
X178294000Y-43406200D02*
X180241999Y-57270000D01*
X237546000Y-75892300D02*
X237546000Y-89892300D01*
X47546000Y-70512300D02*
X33545999Y-70512300D01*
X242026000Y-51412300D02*
X242026000Y-37412300D01*
X230416000Y-56642300D02*
X244416000Y-56642300D01*
X151150000Y-104927300D02*
X183878000Y-100327300D01*
X256025999Y-51412300D02*
X242026000Y-51412300D01*
X261936000Y-109132300D02*
X261936000Y-95132300D01*
X256025999Y-37412300D02*
X256025999Y-51412300D01*
X26206000Y-56512300D02*
X26206000Y-70512300D01*
X98998300Y-81796200D02*
X112862000Y-83744600D01*
X178894000Y-81776200D02*
X180841999Y-95640000D01*
X216024000Y-38076200D02*
X217972000Y-51940000D01*
X192618000Y-74758400D02*
X190670000Y-60894600D01*
X207473999Y-97006200D02*
X209422000Y-110870300D01*
X204534000Y-58946200D02*
X206482000Y-72810000D01*
X180841999Y-95640000D02*
X166978000Y-97588400D01*
X242606000Y-89882300D02*
X242606000Y-75882300D01*
X90138300Y-42096200D02*
X104002000Y-44044600D01*
X9336000Y-34733700D02*
G75*
G02*
X9836000Y-34233700I500000J0D01*
G01*
X12206000Y-70512300D02*
X12206000Y-56512300D01*
X270596000Y-70652300D02*
X256596000Y-70652300D01*
X45436000Y-51272300D02*
X31436000Y-51272300D01*
X236986000Y-37402300D02*
X236986000Y-51402300D01*
X256606000Y-89882300D02*
X242606000Y-89882300D01*
X222409590Y-111738142D02*
X138747409Y-123466458D01*
X115900000Y-98330000D02*
X117848000Y-84466200D01*
X278036000Y-89882300D02*
X264036000Y-89882300D01*
X87212100Y-60924600D02*
X85263700Y-74788400D01*
X161952000Y-98300000D02*
X148088000Y-100248300D01*
X122984000Y-80098400D02*
X109120000Y-78150000D01*
X45436000Y-37272300D02*
X45436000Y-51272300D01*
X145569999Y-47994600D02*
X159434000Y-46046200D01*
X153098000Y-118791300D02*
X151150000Y-104927300D01*
X278036000Y-75882300D02*
X278036000Y-89882300D01*
X11326000Y-94982300D02*
X25326000Y-94982300D01*
X223546000Y-75892300D02*
X237546000Y-75892300D01*
X242606000Y-75882300D02*
X256606000Y-75882300D01*
X166978000Y-97588400D02*
X165030000Y-83724600D01*
X47546000Y-56512300D02*
X47546000Y-70512300D01*
X148088000Y-100248300D02*
X146140000Y-86384600D01*
X109120000Y-78150000D02*
X111068000Y-64286200D01*
X59309900Y-90370000D02*
X61258300Y-76506200D01*
X40206000Y-75752300D02*
X54206000Y-75752300D01*
X73173700Y-92318400D02*
X59309900Y-90370000D01*
X264036000Y-75882300D02*
X278036000Y-75882300D01*
X197154000Y-40736200D02*
X199102000Y-54600000D01*
X94383900Y-114553300D02*
X96332300Y-100689300D01*
X280835999Y-34733701D02*
X280836000Y-111233300D01*
X185838000Y-94948400D02*
X183890000Y-81084600D01*
X131712000Y-86414600D02*
X129764000Y-100278300D01*
X275066000Y-37392300D02*
X275066000Y-51392300D01*
X110913999Y-97608400D02*
X97049900Y-95660000D01*
X111068000Y-64286200D02*
X124932000Y-66234599D01*
X33545999Y-70512300D02*
X33545999Y-56512300D01*
X270596000Y-56652300D02*
X270596000Y-70652300D01*
X185664000Y-61596200D02*
X187612000Y-75460000D01*
X168741999Y-78110000D02*
X154878000Y-80058400D01*
X164430000Y-45354600D02*
X178294000Y-43406200D01*
X122882000Y-46694600D02*
X120934000Y-60558400D01*
X206482000Y-72810000D02*
X192618000Y-74758400D01*
X152930000Y-66194600D02*
X166794000Y-64246200D01*
X166378000Y-59218400D02*
X164430000Y-45354600D01*
X129764000Y-100278300D02*
X115900000Y-98330000D01*
X261066000Y-37392300D02*
X275066000Y-37392300D01*
X146140000Y-86384600D02*
X160003999Y-84436200D01*
X93992100Y-81104600D02*
X92043700Y-94968400D01*
X52408300Y-36786200D02*
X66272100Y-38734600D01*
X25326000Y-94982300D02*
X25326000Y-108982300D01*
X202740000Y-78434600D02*
X216604000Y-76486200D01*
X244416000Y-56642300D02*
X244416000Y-70642300D01*
X264036000Y-89882300D02*
X264036000Y-75882300D01*
X223394000Y-56296200D02*
X225341999Y-70160000D01*
X252116000Y-95112300D02*
X252116000Y-109112300D01*
X35156000Y-109002300D02*
X35156000Y-95002300D01*
X129061000Y-105289300D02*
X127112000Y-119153300D01*
X222986000Y-51402300D02*
X222986000Y-37402300D01*
M02*
