%TF.GenerationSoftware,KiCad,Pcbnew,(5.99.0-9519-ga70106a3bd)*%
%TF.CreationDate,2021-03-14T20:33:52-05:00*%
%TF.ProjectId,Plate,506c6174-652e-46b6-9963-61645f706362,rev?*%
%TF.SameCoordinates,Original*%
%TF.FileFunction,Legend,Bot*%
%TF.FilePolarity,Positive*%
%FSLAX46Y46*%
G04 Gerber Fmt 4.6, Leading zero omitted, Abs format (unit mm)*
G04 Created by KiCad (PCBNEW (5.99.0-9519-ga70106a3bd)) date 2021-03-14 20:33:52*
%MOMM*%
%LPD*%
G01*
G04 APERTURE LIST*
%ADD10C,0.300000*%
G04 APERTURE END LIST*
D10*
X216181428Y-99148571D02*
X216181428Y-100220000D01*
X216110000Y-100434285D01*
X215967142Y-100577142D01*
X215752857Y-100648571D01*
X215610000Y-100648571D01*
X217610000Y-100648571D02*
X216895714Y-100648571D01*
X216895714Y-99148571D01*
X218967142Y-100505714D02*
X218895714Y-100577142D01*
X218681428Y-100648571D01*
X218538571Y-100648571D01*
X218324285Y-100577142D01*
X218181428Y-100434285D01*
X218110000Y-100291428D01*
X218038571Y-100005714D01*
X218038571Y-99791428D01*
X218110000Y-99505714D01*
X218181428Y-99362857D01*
X218324285Y-99220000D01*
X218538571Y-99148571D01*
X218681428Y-99148571D01*
X218895714Y-99220000D01*
X218967142Y-99291428D01*
X220038571Y-99148571D02*
X220038571Y-100220000D01*
X219967142Y-100434285D01*
X219824285Y-100577142D01*
X219610000Y-100648571D01*
X219467142Y-100648571D01*
X221467142Y-100648571D02*
X220752857Y-100648571D01*
X220752857Y-99148571D01*
X222824285Y-100505714D02*
X222752857Y-100577142D01*
X222538571Y-100648571D01*
X222395714Y-100648571D01*
X222181428Y-100577142D01*
X222038571Y-100434285D01*
X221967142Y-100291428D01*
X221895714Y-100005714D01*
X221895714Y-99791428D01*
X221967142Y-99505714D01*
X222038571Y-99362857D01*
X222181428Y-99220000D01*
X222395714Y-99148571D01*
X222538571Y-99148571D01*
X222752857Y-99220000D01*
X222824285Y-99291428D01*
X223895714Y-99148571D02*
X223895714Y-100220000D01*
X223824285Y-100434285D01*
X223681428Y-100577142D01*
X223467142Y-100648571D01*
X223324285Y-100648571D01*
X225324285Y-100648571D02*
X224610000Y-100648571D01*
X224610000Y-99148571D01*
X226681428Y-100505714D02*
X226610000Y-100577142D01*
X226395714Y-100648571D01*
X226252857Y-100648571D01*
X226038571Y-100577142D01*
X225895714Y-100434285D01*
X225824285Y-100291428D01*
X225752857Y-100005714D01*
X225752857Y-99791428D01*
X225824285Y-99505714D01*
X225895714Y-99362857D01*
X226038571Y-99220000D01*
X226252857Y-99148571D01*
X226395714Y-99148571D01*
X226610000Y-99220000D01*
X226681428Y-99291428D01*
X227752857Y-99148571D02*
X227752857Y-100220000D01*
X227681428Y-100434285D01*
X227538571Y-100577142D01*
X227324285Y-100648571D01*
X227181428Y-100648571D01*
X229181428Y-100648571D02*
X228467142Y-100648571D01*
X228467142Y-99148571D01*
X230538571Y-100505714D02*
X230467142Y-100577142D01*
X230252857Y-100648571D01*
X230110000Y-100648571D01*
X229895714Y-100577142D01*
X229752857Y-100434285D01*
X229681428Y-100291428D01*
X229610000Y-100005714D01*
X229610000Y-99791428D01*
X229681428Y-99505714D01*
X229752857Y-99362857D01*
X229895714Y-99220000D01*
X230110000Y-99148571D01*
X230252857Y-99148571D01*
X230467142Y-99220000D01*
X230538571Y-99291428D01*
M02*
