M48
; DRILL file {KiCad (5.99.0-9176-ga1730d51ff)} date 03/31/21 21:37:42
; FORMAT={-:-/ absolute / inch / decimal}
; #@! TF.CreationDate,2021-03-31T21:37:42-05:00
; #@! TF.GenerationSoftware,Kicad,Pcbnew,(5.99.0-9176-ga1730d51ff)
; #@! TF.FileFunction,NonPlated,1,4,NPTH
FMAT,2
INCH
T1C0.0472
T2C0.0670
T3C0.1200
T4C0.1570
T5C0.1575
%
G90
G05
T1
X7.0837Y-2.6399
T2
X2.8594Y-5.2421
X2.8945Y-3.7276
X2.902Y-2.97
X2.965Y-4.485
X3.2594Y-5.2421
X3.2945Y-3.7276
X3.302Y-2.97
X3.365Y-4.485
X3.6516Y-2.9705
X3.7343Y-3.728
X3.7976Y-5.2433
X3.9969Y-4.4854
X4.0516Y-2.9705
X4.1343Y-3.728
X4.1976Y-5.2433
X4.3969Y-4.4854
X4.4386Y-2.9592
X4.5197Y-3.7281
X4.7866Y-4.523
X4.8347Y-3.0148
X4.9158Y-3.7837
X5.1803Y-3.0639
X5.1827Y-4.5786
X5.2638Y-3.8316
X5.3323Y-5.3564
X5.5295Y-4.6273
X5.5764Y-3.1196
X5.6599Y-3.8873
X5.7284Y-5.4121
X5.924Y-3.1678
X5.9256Y-4.683
X6.0059Y-3.9371
X6.2728Y-4.7308
X6.3201Y-3.2235
X6.402Y-3.9928
X6.539Y-5.5265
X6.6673Y-3.2726
X6.6689Y-4.7865
X6.7468Y-4.0422
X6.9351Y-5.5822
X7.0149Y-4.8363
X7.0634Y-3.3282
X7.1429Y-4.0979
X7.411Y-4.892
X8.183Y-3.3794
X8.2047Y-4.8904
X8.472Y-4.0963
X8.5792Y-3.3237
X8.6008Y-4.8348
X8.7736Y-5.568
X8.8681Y-4.0407
X8.9248Y-3.2751
X8.9488Y-4.7865
X9.1697Y-5.5123
X9.2153Y-3.992
X9.3209Y-3.2194
X9.3449Y-4.7308
X9.6114Y-3.9363
X9.6677Y-3.1707
X9.6913Y-4.6822
X9.9582Y-3.8869
X10.0638Y-3.1151
X10.074Y-5.3853
X10.0874Y-4.6265
X10.3544Y-3.8312
X10.411Y-3.066
X10.4334Y-4.5778
X10.4701Y-5.3296
X10.7008Y-3.7833
X10.8071Y-3.0104
X10.8295Y-4.5222
X11.0969Y-3.7277
X11.1933Y-2.9756
X11.215Y-4.4906
X11.4854Y-3.7327
X11.5933Y-2.9756
X11.615Y-4.4906
X11.7886Y-5.2472
X11.8854Y-3.7327
X11.9425Y-2.9764
X11.965Y-4.4909
X12.1886Y-5.2472
X12.3425Y-2.9764
X12.365Y-4.4909
X12.5161Y-3.7339
X12.6917Y-2.9756
X12.7268Y-5.248
X12.8094Y-4.4906
X12.9161Y-3.7339
X13.0917Y-2.9756
X13.1268Y-5.248
X13.2094Y-4.4906
T3
X6.2346Y-5.7618
X7.1625Y-5.8922
X8.5461Y-5.878
X9.474Y-5.7475
T4
X3.0594Y-5.2421
X3.0945Y-3.7276
X3.102Y-2.97
X3.165Y-4.485
X3.8516Y-2.9705
X3.9343Y-3.728
X3.9976Y-5.2433
X4.1969Y-4.4854
X4.6366Y-2.987
X4.7177Y-3.7559
X4.9846Y-4.5508
X5.3783Y-3.0917
X5.4618Y-3.8594
X5.5303Y-5.3843
X5.7276Y-4.6551
X6.122Y-3.1957
X6.2039Y-3.965
X6.3181Y-5.1677
X6.4709Y-4.7587
X6.737Y-5.5543
X6.8654Y-3.3004
X6.9449Y-4.0701
X7.213Y-4.8642
X7.246Y-5.2981
X8.3811Y-3.3516
X8.4028Y-4.8626
X8.4626Y-5.2838
X8.6701Y-4.0685
X8.9717Y-5.5402
X9.1228Y-3.2472
X9.1469Y-4.7587
X9.3904Y-5.1534
X9.4134Y-3.9642
X9.8657Y-3.1429
X9.8894Y-4.6543
X10.1563Y-3.8591
X10.272Y-5.3575
X10.6091Y-3.0382
X10.6315Y-4.55
X10.8988Y-3.7555
X11.3933Y-2.9756
X11.415Y-4.4906
X11.6854Y-3.7327
X11.9886Y-5.2472
X12.1425Y-2.9764
X12.165Y-4.4909
X12.7161Y-3.7339
X12.8917Y-2.9756
X12.9268Y-5.248
X13.0094Y-4.4906
T5
X3.5031Y-3.372
X3.5319Y-4.9268
X6.0252Y-5.0957
X6.4433Y-3.5953
X8.7953Y-3.6492
X9.5673Y-5.0524
X12.1465Y-3.4843
X12.4835Y-4.9224
T0
M30
