M48
; DRILL file {KiCad (5.99.0-9176-ga1730d51ff)} date 03/31/21 21:37:41
; FORMAT={-:-/ absolute / inch / decimal}
; #@! TF.CreationDate,2021-03-31T21:37:41-05:00
; #@! TF.GenerationSoftware,Kicad,Pcbnew,(5.99.0-9176-ga1730d51ff)
; #@! TF.FileFunction,Plated,1,4,PTH
FMAT,2
INCH
T1C0.0118
T2C0.0315
T3C0.0390
T4C0.0394
T5C0.0430
T6C0.0512
T7C0.0590
%
G90
G05
T1
X3.8874Y-3.3664
X3.9087Y-3.3437
X3.9988Y-3.9268
X4.0713Y-4.8374
X4.1126Y-3.928
X4.1972Y-4.887
X4.2496Y-4.1874
X4.5764Y-5.4634
X4.9102Y-3.9575
X4.9941Y-4.1874
X5.1567Y-4.8783
X5.3516Y-4.9689
X5.513Y-3.3024
X5.6299Y-4.0854
X5.7449Y-4.2917
X5.8272Y-4.8413
X5.9125Y-3.3891
X5.9354Y-3.4209
X6.1945Y-3.639
X6.387Y-4.1587
X6.5279Y-3.4867
X6.5528Y-3.5165
X6.663Y-4.9559
X6.6854Y-5.0535
X7.0164Y-3.943
X7.0315Y-4.2303
X7.0461Y-4.0055
X7.0815Y-5.2453
X7.1303Y-4.2976
X7.1339Y-4.0031
X7.2177Y-4.102
X7.3693Y-5.5913
X7.3807Y-5.6878
X7.3824Y-5.7174
X7.9902Y-5.0362
X9.3055Y-4.9432
X9.311Y-5.028
X9.3144Y-5.6561
X9.3634Y-3.5469
X9.652Y-4.1579
X9.8594Y-4.0642
X9.9909Y-3.2583
X10.0091Y-3.3437
X10.0425Y-5.163
X10.2028Y-4.0669
X10.278Y-3.9803
X10.737Y-3.2492
X11.0929Y-3.1642
X11.0961Y-3.0909
X11.1898Y-4.9087
X11.352Y-4.9087
X11.5055Y-3.1646
X11.5106Y-3.0965
X11.5283Y-3.2239
X11.5902Y-3.1713
X11.7756Y-3.1661
X11.8248Y-3.1634
X11.826Y-3.2807
X12.1713Y-3.8484
X12.2039Y-3.8559
X12.2551Y-4.8862
X12.7047Y-4.3559
T2
X3.4252Y-2.8712
X3.4252Y-3.0712
X3.4701Y-3.6279
X3.4701Y-3.8279
X3.4776Y-5.142
X3.4776Y-5.342
X3.526Y-2.8716
X3.526Y-3.0716
X3.5713Y-3.6279
X3.5713Y-3.8279
X3.5787Y-5.142
X3.5787Y-5.342
X3.6004Y-4.3834
X3.6004Y-4.5834
X3.7016Y-4.3838
X3.7016Y-4.5838
X4.2747Y-3.0729
X4.3025Y-2.8748
X4.3558Y-3.8122
X4.3836Y-3.6142
X4.6274Y-4.5859
X4.6553Y-4.3878
X5.0203Y-3.1335
X5.0482Y-2.9354
X5.1054Y-3.8973
X5.1332Y-3.6992
X5.1731Y-5.4193
X5.2009Y-5.2213
X5.3699Y-4.7087
X5.3978Y-4.5106
X5.7621Y-3.23
X5.7899Y-3.0319
X5.8447Y-4.0162
X5.8726Y-3.8181
X6.1144Y-4.7882
X6.1423Y-4.5902
X6.5101Y-3.3508
X6.5379Y-3.1528
X6.5853Y-4.1213
X6.6131Y-3.9232
X6.6743Y-5.1975
X6.8566Y-4.8958
X6.8724Y-5.2253
X6.8844Y-4.6977
X8.6892Y-3.1807
X8.7171Y-3.3788
X8.7211Y-4.7225
X8.749Y-4.9205
X8.8181Y-5.2088
X8.9774Y-3.9268
X9.0053Y-4.1248
X9.0162Y-5.181
X9.4361Y-3.1028
X9.4639Y-3.3008
X9.464Y-4.6158
X9.4919Y-4.8138
X9.7258Y-3.8205
X9.7537Y-4.0185
X10.1047Y-5.0368
X10.1753Y-3.0031
X10.2031Y-3.2012
X10.2062Y-4.5079
X10.234Y-4.7059
X10.3028Y-5.0089
X10.4648Y-3.7244
X10.4927Y-3.9225
X10.9255Y-2.9004
X10.9467Y-4.4039
X10.9533Y-3.0985
X10.9745Y-4.602
X11.2132Y-3.6165
X11.2411Y-3.8146
X11.7228Y-2.8771
X11.7228Y-3.0771
X11.7476Y-4.3932
X11.7476Y-4.5932
X12.0165Y-3.6353
X12.0165Y-3.8353
X12.3366Y-5.1491
X12.3366Y-5.3491
X12.3673Y-3.6342
X12.3673Y-3.8342
X12.4681Y-2.8767
X12.4681Y-3.0767
X12.5382Y-4.3912
X12.5382Y-4.5912
X12.5689Y-2.8767
X12.5689Y-3.0767
X12.5791Y-5.1491
X12.5791Y-5.3491
X12.6394Y-4.3912
X12.6394Y-4.5912
T3
X6.9852Y-2.6875
X7.1821Y-2.6875
T4
X7.5122Y-4.024
X7.6122Y-4.024
X7.7122Y-4.024
X7.8122Y-4.024
T5
X7.3614Y-2.7929
X7.3614Y-2.8929
X7.3614Y-2.9929
X7.3614Y-3.0929
X7.3614Y-3.1929
X7.3614Y-3.2929
X7.3614Y-3.3929
X7.3614Y-3.4929
X7.3614Y-3.5929
X7.3614Y-3.6929
X7.3614Y-3.7929
X7.3614Y-3.8929
X7.9614Y-2.7929
X7.9614Y-2.8929
X7.9614Y-2.9929
X7.9614Y-3.0929
X7.9614Y-3.1929
X7.9614Y-3.2929
X7.9614Y-3.3929
X7.9614Y-3.4929
X7.9614Y-3.5929
X7.9614Y-3.6929
X7.9614Y-3.7929
X7.9614Y-3.8929
T6
X6.9455Y-2.7855
X7.2215Y-2.7855
T7
X2.9094Y-5.1421
X2.9445Y-3.6276
X2.952Y-2.87
X3.015Y-4.385
X3.1594Y-5.0421
X3.1945Y-3.5276
X3.202Y-2.77
X3.265Y-4.285
X3.7016Y-2.8705
X3.7843Y-3.628
X3.8476Y-5.1433
X3.9516Y-2.7705
X4.0343Y-3.528
X4.0469Y-4.3854
X4.0976Y-5.0433
X4.2969Y-4.2854
X4.502Y-2.8671
X4.5831Y-3.636
X4.7635Y-2.8029
X4.8446Y-3.5718
X4.85Y-4.4309
X5.1115Y-4.3667
X5.2437Y-2.9718
X5.3272Y-3.7395
X5.3957Y-5.2643
X5.5052Y-2.9076
X5.5887Y-3.6753
X5.5929Y-4.5352
X5.6572Y-5.2001
X5.8544Y-4.471
X5.9874Y-3.0758
X6.0693Y-3.8451
X6.2489Y-3.0115
X6.3308Y-3.7808
X6.3362Y-4.6388
X6.5977Y-4.5745
X6.6024Y-5.4344
X6.7307Y-3.1805
X6.8103Y-3.9502
X6.8639Y-5.3702
X6.9922Y-3.1163
X7.0717Y-3.8859
X7.0784Y-4.7443
X7.3399Y-4.68
X8.2186Y-3.2734
X8.2403Y-4.7844
X8.4523Y-3.1396
X8.4739Y-4.6506
X8.5076Y-3.9904
X8.7413Y-3.8565
X8.8092Y-5.462
X8.9604Y-3.1691
X8.9844Y-4.6805
X9.0428Y-5.3282
X9.194Y-3.0353
X9.218Y-4.5467
X9.2509Y-3.886
X9.4846Y-3.7522
X9.7033Y-3.0648
X9.7269Y-4.5762
X9.9369Y-2.9309
X9.9606Y-4.4424
X9.9938Y-3.7809
X10.1096Y-5.2793
X10.2275Y-3.6471
X10.3432Y-5.1455
X10.4466Y-2.96
X10.469Y-4.4718
X10.6802Y-2.8262
X10.7027Y-4.338
X10.7364Y-3.6774
X10.97Y-3.5435
X11.2433Y-2.8756
X11.265Y-4.3906
X11.4933Y-2.7756
X11.515Y-4.2906
X11.5354Y-3.6327
X11.7854Y-3.5327
X11.8386Y-5.1472
X11.9925Y-2.8764
X12.015Y-4.3909
X12.0886Y-5.0472
X12.2425Y-2.7764
X12.265Y-4.2909
X12.5661Y-3.6339
X12.7417Y-2.8756
X12.7768Y-5.148
X12.8161Y-3.5339
X12.8594Y-4.3906
X12.9917Y-2.7756
X13.0268Y-5.048
X13.1094Y-4.2906
T0
M30
