%TF.GenerationSoftware,KiCad,Pcbnew,(5.99.0-9176-ga1730d51ff)*%
%TF.CreationDate,2021-11-18T22:53:36-06:00*%
%TF.ProjectId,Base,42617365-2e6b-4696-9361-645f70636258,rev?*%
%TF.SameCoordinates,Original*%
%TF.FileFunction,Profile,NP*%
%FSLAX46Y46*%
G04 Gerber Fmt 4.6, Leading zero omitted, Abs format (unit mm)*
G04 Created by KiCad (PCBNEW (5.99.0-9176-ga1730d51ff)) date 2021-11-18 22:53:36*
%MOMM*%
%LPD*%
G01*
G04 APERTURE LIST*
%TA.AperFunction,Profile*%
%ADD10C,0.264583*%
%TD*%
G04 APERTURE END LIST*
D10*
X243454851Y-91384787D02*
X243403221Y-91389817D01*
X242789158Y-91829253D02*
X242778065Y-91852690D01*
X106222961Y-84167840D02*
X106222961Y-84167840D01*
X102341540Y-124387791D02*
X102320110Y-124340550D01*
X101706063Y-125489249D02*
X101757354Y-125480865D01*
X242903919Y-91657046D02*
X242887143Y-91676915D01*
X100813477Y-124563052D02*
X100809584Y-124589109D01*
X100845362Y-124436405D02*
X100837364Y-124461189D01*
X101157106Y-124029929D02*
X101135318Y-124045063D01*
X262221100Y-129361901D02*
X262219370Y-129308552D01*
X78172226Y-60570000D02*
X194500000Y-60570000D01*
X76195272Y-62265393D02*
X76212860Y-62166905D01*
X105050290Y-84652384D02*
X105043902Y-84677731D01*
X105822740Y-84060540D02*
X105770943Y-84062217D01*
X102048137Y-124029929D02*
X102002838Y-124001702D01*
X100863716Y-124387783D02*
X100854149Y-124411930D01*
X261317626Y-128567857D02*
X261266336Y-128576239D01*
X244295834Y-92316013D02*
X244299728Y-92289958D01*
X101202407Y-124001702D02*
X101179472Y-124015470D01*
X102320122Y-125049807D02*
X102331216Y-125026370D01*
X340135172Y-123897711D02*
X340156605Y-123944953D01*
X106618855Y-84941132D02*
X106621033Y-84914695D01*
X244109392Y-92710722D02*
X244126170Y-92690853D01*
X76329398Y-61791486D02*
X76369449Y-61702894D01*
X244245572Y-91876499D02*
X244224142Y-91829258D01*
X169726221Y-129041977D02*
X169714381Y-129065032D01*
X370570861Y-61155816D02*
X370639248Y-61227679D01*
X340254583Y-123083364D02*
X340238479Y-123103743D01*
X169653018Y-129236099D02*
X169647451Y-129261701D01*
X333324616Y-81825778D02*
X333320723Y-81851835D01*
X243251057Y-92942743D02*
X243301170Y-92957835D01*
X341459397Y-124136512D02*
X341476838Y-124117171D01*
X106458345Y-84374710D02*
X106425463Y-84334462D01*
X244073859Y-92748856D02*
X244091952Y-92730062D01*
X171160459Y-129750857D02*
X171170794Y-129727056D01*
X333646469Y-81307789D02*
X333625270Y-81323578D01*
X181883390Y-90458815D02*
X181878168Y-90406114D01*
X244199722Y-91783547D02*
X244172397Y-91739511D01*
X341646569Y-123381431D02*
X341631369Y-123331571D01*
X214777211Y-155002003D02*
X214359118Y-155023899D01*
X242871061Y-92670471D02*
X242903942Y-92710720D01*
X181881214Y-90591980D02*
X181883392Y-90565544D01*
X181687838Y-91038999D02*
X181704615Y-91019131D01*
X171180361Y-129702909D02*
X171189149Y-129678435D01*
X170226385Y-130193614D02*
X170277170Y-130205352D01*
X244306671Y-92183923D02*
X244306671Y-92183923D01*
X333341305Y-81748989D02*
X333334918Y-81774337D01*
X369156646Y-60570000D02*
X369156646Y-60570000D01*
X341319626Y-124255579D02*
X341341415Y-124240446D01*
X105293688Y-85462160D02*
X105334274Y-85495630D01*
X369922016Y-60722249D02*
X370011216Y-60761773D01*
X333668257Y-81292655D02*
X333646469Y-81307789D01*
X106175899Y-85579921D02*
X106222976Y-85554772D01*
X169631881Y-129419640D02*
X169633608Y-129472995D01*
X181573604Y-89877830D02*
X181530620Y-89846910D01*
X340084913Y-123458204D02*
X340081018Y-123484260D01*
X180596633Y-91146479D02*
X180639619Y-91177398D01*
X76212871Y-140922313D02*
X76195281Y-140823825D01*
X262160003Y-129669301D02*
X262169570Y-129645154D01*
X333760667Y-82676509D02*
X333808923Y-82698304D01*
X334514007Y-82651360D02*
X334536944Y-82637595D01*
X100830177Y-124904064D02*
X100845376Y-124953928D01*
X77484568Y-142397862D02*
X77393746Y-142362052D01*
X262040583Y-129868878D02*
X262056686Y-129848499D01*
X334680963Y-81392929D02*
X334642859Y-81357051D01*
X243018132Y-91549561D02*
X242997536Y-91565988D01*
X76569555Y-61373345D02*
X76628928Y-61297791D01*
X76413631Y-141472554D02*
X76369463Y-141386319D01*
X102238221Y-124208587D02*
X102205340Y-124168339D01*
X106268276Y-85526550D02*
X106290062Y-85511418D01*
X244255156Y-92467131D02*
X244263945Y-92442656D01*
X341129694Y-122831474D02*
X341079584Y-122816382D01*
X106351844Y-85462160D02*
X106371210Y-85444514D01*
X180346198Y-90204754D02*
X180336632Y-90228901D01*
X101249513Y-125413788D02*
X101297768Y-125435588D01*
X370820619Y-61460425D02*
X370872920Y-61543179D01*
X102359907Y-124953948D02*
X102367906Y-124929164D01*
X261116174Y-128621506D02*
X261067918Y-128643302D01*
X334831268Y-81603276D02*
X334806850Y-81557564D01*
X77867633Y-60593015D02*
X77967724Y-60580296D01*
X78172210Y-60569970D02*
X78172210Y-60569970D01*
X260975539Y-128696672D02*
X260953750Y-128711804D01*
X171097611Y-128975290D02*
X171067467Y-128933075D01*
X76975590Y-60967304D02*
X77054002Y-60911543D01*
X105770967Y-85660395D02*
X105822763Y-85662072D01*
X333365289Y-81674656D02*
X333356501Y-81699131D01*
X242708364Y-92237216D02*
X242713587Y-92289917D01*
X260622787Y-129415230D02*
X260628007Y-129467935D01*
X102205340Y-124168339D02*
X102169807Y-124130203D01*
X105023186Y-84834516D02*
X105022766Y-84861260D01*
X244245589Y-92491277D02*
X244255156Y-92467131D01*
X171231872Y-129419701D02*
X171231872Y-129419701D01*
X261165441Y-128603064D02*
X261116174Y-128621506D01*
X213940643Y-155031197D02*
X213522168Y-155023899D01*
X100818212Y-124537214D02*
X100813477Y-124563052D01*
X341274322Y-124283807D02*
X341274322Y-124283807D01*
X76262156Y-141113980D02*
X76235204Y-141019073D01*
X243906891Y-92877343D02*
X243929824Y-92863578D01*
X261421081Y-130162682D02*
X261472878Y-130161006D01*
X369842011Y-142397846D02*
X369749085Y-142429291D01*
X244263945Y-92442656D02*
X244271944Y-92417873D01*
X370634755Y-141863966D02*
X370568535Y-141933423D01*
X244073833Y-91618912D02*
X244035730Y-91583034D01*
X262186358Y-129595896D02*
X262193558Y-129570821D01*
X181764883Y-90934739D02*
X181778186Y-90912503D01*
X333408123Y-81580215D02*
X333396283Y-81603270D01*
X333341310Y-82166790D02*
X333356509Y-82216654D01*
X106615809Y-84755246D02*
X106607177Y-84703349D01*
X100845376Y-124953928D02*
X100863732Y-125002554D01*
X334716498Y-81431065D02*
X334680963Y-81392929D01*
X169738819Y-129819997D02*
X169766142Y-129864034D01*
X180419363Y-90067771D02*
X180405345Y-90089570D01*
X340125595Y-123307087D02*
X340116806Y-123331561D01*
X340116814Y-123849084D02*
X340135172Y-123897711D01*
X261821258Y-128668450D02*
X261774183Y-128643302D01*
X334913368Y-81984684D02*
X334913788Y-81957940D01*
X181885116Y-90512200D02*
X181885116Y-90512170D01*
X105255558Y-84296327D02*
X105237465Y-84315121D01*
X100909580Y-125095509D02*
X100936903Y-125139547D01*
X333356501Y-81699131D02*
X333348503Y-81723914D01*
X169659405Y-129210751D02*
X169653018Y-129236099D01*
X242813591Y-92584218D02*
X242840915Y-92628255D01*
X242749374Y-91925113D02*
X242741375Y-91949897D01*
X261215582Y-130135857D02*
X261266366Y-130147593D01*
X106389930Y-84296327D02*
X106351829Y-84260452D01*
X100830166Y-124486264D02*
X100823779Y-124511611D01*
X333546580Y-81392928D02*
X333528487Y-81411723D01*
X102295704Y-125095517D02*
X102308281Y-125072862D01*
X260853861Y-128796937D02*
X260835768Y-128815731D01*
X243811529Y-91443467D02*
X243762262Y-91425025D01*
X333420715Y-82358235D02*
X333448040Y-82402273D01*
X101808139Y-125469126D02*
X101858250Y-125454034D01*
X340520982Y-124308955D02*
X340569238Y-124330750D01*
X181704615Y-91019131D02*
X181720719Y-90998752D01*
X261020874Y-130055382D02*
X261067949Y-130080531D01*
X334602270Y-81323578D02*
X334559281Y-81292655D01*
X105313646Y-84243407D02*
X105293659Y-84260452D01*
X340156592Y-123235701D02*
X340145499Y-123259139D01*
X180367625Y-90157515D02*
X180356533Y-90180953D01*
X77867650Y-142496175D02*
X77769161Y-142478587D01*
X340618505Y-124349192D02*
X340668615Y-124364281D01*
X171170794Y-129727056D02*
X171180361Y-129702909D01*
X369257276Y-142516614D02*
X369154358Y-142519219D01*
X181869544Y-90670128D02*
X181874280Y-90644291D01*
X169829168Y-129946498D02*
X169864701Y-129984634D01*
X260715404Y-128984222D02*
X260703564Y-129007277D01*
X261472878Y-130161006D02*
X261524506Y-130155976D01*
X369932831Y-142362035D02*
X369842011Y-142397846D01*
X180517945Y-91077132D02*
X180556047Y-91113008D01*
X243859785Y-91465262D02*
X243811529Y-91443467D01*
X261725958Y-130102326D02*
X261774214Y-130080531D01*
X105334244Y-84226981D02*
X105313646Y-84243407D01*
X105038335Y-84703332D02*
X105033600Y-84729170D01*
X102402213Y-124721958D02*
X102402633Y-124695214D01*
X333434003Y-81535325D02*
X333420700Y-81557561D01*
X242717481Y-92051761D02*
X242713586Y-92077818D01*
X334513977Y-81264428D02*
X334466902Y-81239280D01*
X181438258Y-91230769D02*
X181485336Y-91205621D01*
X169864674Y-128854690D02*
X169846581Y-128873484D01*
X101397144Y-125469126D02*
X101447928Y-125480865D01*
X262138561Y-129007283D02*
X262114139Y-128961571D01*
X341362614Y-124224656D02*
X341383213Y-124208229D01*
X77305154Y-142322001D02*
X77218919Y-142277834D01*
X105469636Y-85579921D02*
X105517891Y-85601716D01*
X244291079Y-92025938D02*
X244279125Y-91974985D01*
X106222976Y-85554772D02*
X106245910Y-85541007D01*
X102395690Y-124801249D02*
X102398731Y-124774994D01*
X102400907Y-124641829D02*
X102395685Y-124589130D01*
X243201755Y-91443467D02*
X243153495Y-91465262D01*
X243952190Y-92849121D02*
X243973976Y-92833989D01*
X243454881Y-92982989D02*
X243506679Y-92984666D01*
X371064385Y-141113982D02*
X371032943Y-141206905D01*
X105050301Y-85070189D02*
X105065499Y-85120056D01*
X105422561Y-85554772D02*
X105422561Y-85554772D01*
X243061146Y-92849121D02*
X243106445Y-92877343D01*
X244306640Y-92183892D02*
X244304921Y-92130538D01*
X242789170Y-92538505D02*
X242813591Y-92584218D01*
X171051378Y-129926632D02*
X171067481Y-129906253D01*
X261821258Y-128668450D02*
X261821258Y-128668450D01*
X370964879Y-61715461D02*
X371004402Y-61804662D01*
X340168433Y-123212646D02*
X340156592Y-123235701D01*
X370697613Y-141791399D02*
X370634755Y-141863966D01*
X106331857Y-85479205D02*
X106351844Y-85462160D01*
X100922862Y-124272599D02*
X100909559Y-124294835D01*
X244299706Y-92077838D02*
X244291079Y-92025938D01*
X260818365Y-129888745D02*
X260853900Y-129926881D01*
X242722221Y-92341818D02*
X242734180Y-92392773D01*
X333478187Y-82444488D02*
X333511070Y-82484737D01*
X261774183Y-128643302D02*
X261725928Y-128621506D01*
X76172226Y-62569970D02*
X76174829Y-62467052D01*
X260663796Y-129620660D02*
X260682154Y-129669287D01*
X371154188Y-62470858D02*
X371156646Y-62570031D01*
X334764822Y-82423621D02*
X334779547Y-82402278D01*
X333625270Y-81323578D02*
X333604671Y-81340005D01*
X371039529Y-61895682D02*
X371070193Y-61988360D01*
X261020843Y-128668450D02*
X261020843Y-128668450D01*
X124074173Y-142519219D02*
X124074173Y-142519219D01*
X105129703Y-85261643D02*
X105157027Y-85305682D01*
X261844225Y-130041615D02*
X261866593Y-130027155D01*
X101447928Y-125480865D02*
X101499217Y-125489249D01*
X169642716Y-129287540D02*
X169638823Y-129313596D01*
X242767739Y-92491262D02*
X242789170Y-92538505D01*
X170328434Y-128625596D02*
X170277143Y-128633979D01*
X333546606Y-82522872D02*
X333584710Y-82558748D01*
X102308281Y-125072862D02*
X102320122Y-125049807D01*
X262086831Y-129806285D02*
X262100851Y-129784486D01*
X100863732Y-125002554D02*
X100885161Y-125049796D01*
X243061116Y-91518638D02*
X243039329Y-91533771D01*
X244306671Y-92183923D02*
X244306640Y-92183892D01*
X100951604Y-124229456D02*
X100936880Y-124250800D01*
X105719315Y-84067246D02*
X105668024Y-84075629D01*
X180449531Y-90998747D02*
X180482412Y-91038996D01*
X180367644Y-90866777D02*
X180392063Y-90912492D01*
X180684921Y-91205621D02*
X180731996Y-91230769D01*
X340822318Y-124389430D02*
X340874115Y-124391106D01*
X106351829Y-84260452D02*
X106311244Y-84226981D01*
X334906846Y-82063975D02*
X334909886Y-82037720D01*
X101347005Y-123936316D02*
X101297738Y-123954758D01*
X262114154Y-129762250D02*
X262126732Y-129739595D01*
X371156646Y-62570031D02*
X371154297Y-140519280D01*
X169902803Y-130020510D02*
X169943389Y-130053980D01*
X334913757Y-81957909D02*
X334912038Y-81904555D01*
X169633605Y-129366292D02*
X169632301Y-129392893D01*
X341672378Y-123536976D02*
X341667158Y-123484280D01*
X340081018Y-123484260D02*
X340077975Y-123510515D01*
X242707057Y-92157115D02*
X242706634Y-92183861D01*
X243712152Y-91409936D02*
X243661366Y-91398200D01*
X370764195Y-61380147D02*
X370820619Y-61460425D01*
X170126978Y-128679246D02*
X170078722Y-128701041D01*
X370912918Y-141472544D02*
X370864763Y-141556295D01*
X169714381Y-129065032D02*
X169703289Y-129088469D01*
X181842380Y-90253395D02*
X181824023Y-90204769D01*
X341129725Y-124349192D02*
X341178992Y-124330750D01*
X105043902Y-84677731D02*
X105038335Y-84703332D01*
X261165471Y-130120768D02*
X261215582Y-130135857D01*
X340075795Y-123643654D02*
X340081019Y-123696359D01*
X333320724Y-82063934D02*
X333329354Y-82115835D01*
X243106414Y-91490411D02*
X243106414Y-91490411D01*
X261821289Y-130055382D02*
X261821289Y-130055382D01*
X243762293Y-92942743D02*
X243811560Y-92924297D01*
X244015771Y-92801776D02*
X244035758Y-92784731D01*
X341553881Y-124012910D02*
X341567184Y-123990674D01*
X105024492Y-84914620D02*
X105029713Y-84967325D01*
X101054169Y-124111973D02*
X101035435Y-124130203D01*
X105083855Y-85168684D02*
X105105285Y-85215929D01*
X242826879Y-91761307D02*
X242813575Y-91783543D01*
X76369463Y-141386319D02*
X76329411Y-141297728D01*
X243153495Y-91465262D02*
X243106414Y-91490411D01*
X171204337Y-129210764D02*
X171189139Y-129160902D01*
X261524475Y-128567857D02*
X261472847Y-128562827D01*
X181239837Y-91297831D02*
X181290622Y-91286095D01*
X242813575Y-91783543D02*
X242800998Y-91806198D01*
X262217191Y-129441719D02*
X262219370Y-129415280D01*
X369458933Y-142496167D02*
X369358843Y-142508888D01*
X340116806Y-123331561D02*
X340108807Y-123356344D01*
X100896982Y-124317489D02*
X100885143Y-124340545D01*
X341631382Y-123849104D02*
X341639380Y-123824320D01*
X370498998Y-61087424D02*
X370570861Y-61155816D01*
X214359118Y-155023899D02*
X213940643Y-155031197D01*
X370191406Y-142229658D02*
X370107655Y-142277815D01*
X244109368Y-91657047D02*
X244073833Y-91618912D01*
X243403251Y-92977958D02*
X243454881Y-92982989D01*
X261020874Y-130055382D02*
X261020874Y-130055382D01*
X169964557Y-128769550D02*
X169943359Y-128785340D01*
X76513795Y-61451758D02*
X76569555Y-61373345D01*
X334886264Y-82166816D02*
X334892651Y-82141469D01*
X334061973Y-81158805D02*
X334010345Y-81163834D01*
X102375096Y-124486276D02*
X102359897Y-124436415D01*
X260953750Y-128711804D02*
X260932551Y-128727592D01*
X369830995Y-60687120D02*
X369922016Y-60722249D01*
X180617801Y-89862042D02*
X180596603Y-89877830D01*
X370424167Y-61022952D02*
X370498998Y-61087424D01*
X303806945Y-142519219D02*
X215610717Y-154914422D01*
X180300695Y-90354181D02*
X180295960Y-90380018D01*
X170637366Y-128645715D02*
X170586581Y-128633979D01*
X106425478Y-85388151D02*
X106442255Y-85368282D01*
X341658527Y-123432383D02*
X341646569Y-123381431D01*
X106028244Y-84087365D02*
X105977458Y-84075629D01*
X181824023Y-90204769D02*
X181802592Y-90157526D01*
X334642886Y-82558748D02*
X334662254Y-82541102D01*
X101955775Y-125413788D02*
X102002853Y-125388634D01*
X105874559Y-85660395D02*
X105926186Y-85655366D01*
X261369254Y-128562827D02*
X261317626Y-128567857D01*
X171034601Y-129946500D02*
X171051378Y-129926632D01*
X334852696Y-81650516D02*
X334831268Y-81603276D01*
X340364986Y-122972441D02*
X340344997Y-122989486D01*
X244035730Y-91583034D02*
X243995145Y-91549561D01*
X106571242Y-85144560D02*
X106580030Y-85120086D01*
X334842379Y-82289096D02*
X334852714Y-82265295D01*
X170031646Y-128726189D02*
X170008711Y-128739957D01*
X194500000Y-60570000D02*
X233000000Y-60570000D01*
X102395685Y-124589130D02*
X102387054Y-124537230D01*
X262056686Y-129848499D02*
X262072106Y-129827628D01*
X170960950Y-128818813D02*
X170920364Y-128785340D01*
X181736138Y-90977882D02*
X181750863Y-90956538D01*
X341319591Y-122925096D02*
X341274292Y-122896874D01*
X77393727Y-60727142D02*
X77484549Y-60691331D01*
X340345025Y-124191183D02*
X340385614Y-124224656D01*
X243506679Y-92984666D02*
X243558477Y-92982989D01*
X371146859Y-62372357D02*
X371154188Y-62470858D01*
X370872920Y-61543179D02*
X370921029Y-61628246D01*
X180639619Y-91177398D02*
X180684921Y-91205621D01*
X370011216Y-60761773D02*
X370098432Y-60805625D01*
X261866593Y-130027155D02*
X261888382Y-130012022D01*
X340194315Y-123167756D02*
X340181011Y-123189992D01*
X77218901Y-60811362D02*
X77305136Y-60767194D01*
X244224142Y-91829258D02*
X244199722Y-91783547D01*
X341178961Y-122849921D02*
X341129694Y-122831474D01*
X244055125Y-92767085D02*
X244073859Y-92748856D01*
X100936880Y-124250800D02*
X100922862Y-124272599D01*
X333314201Y-81931132D02*
X333313781Y-81957879D01*
X334913788Y-81957940D02*
X334913757Y-81957909D01*
X76758028Y-141933442D02*
X76691805Y-141863984D01*
X102381493Y-124878743D02*
X102387061Y-124853142D01*
X181874280Y-90644291D02*
X181878173Y-90618235D01*
X215194538Y-154965511D02*
X214777211Y-155002003D01*
X102091121Y-124060852D02*
X102048137Y-124029929D01*
X369354320Y-60579788D02*
X369451984Y-60591920D01*
X243506649Y-91383111D02*
X243454851Y-91384787D01*
X334559281Y-81292655D02*
X334513977Y-81264428D01*
X170176245Y-128660804D02*
X170126978Y-128679246D01*
X370426512Y-142062504D02*
X370350960Y-142121876D01*
X371113666Y-140922324D02*
X371091334Y-141019080D01*
X105065499Y-85120056D02*
X105083855Y-85168684D01*
X181687823Y-89985311D02*
X181652290Y-89947176D01*
X340306894Y-123025361D02*
X340288801Y-123044155D01*
X181750849Y-90067776D02*
X181720704Y-90025560D01*
X171216294Y-129261717D02*
X171204337Y-129210764D01*
X262193558Y-129570821D02*
X262199947Y-129545473D01*
X243661397Y-92969573D02*
X243712182Y-92957835D01*
X340770690Y-124384400D02*
X340822318Y-124389430D01*
X334466902Y-81239280D02*
X334418646Y-81217484D01*
X340074066Y-123590295D02*
X340075795Y-123643654D01*
X340770660Y-122796259D02*
X340719369Y-122804644D01*
X105926186Y-85655366D02*
X105977477Y-85646983D01*
X334217194Y-81163834D02*
X334165566Y-81158805D01*
X169943359Y-128785340D02*
X169922762Y-128801767D01*
X260636638Y-129519838D02*
X260648596Y-129570795D01*
X243558446Y-91384787D02*
X243506649Y-91383111D01*
X370639248Y-61227679D02*
X370703715Y-61302511D01*
X181485321Y-89818688D02*
X181438243Y-89793540D01*
X170960965Y-130020510D02*
X170980332Y-130002864D01*
X262072106Y-129827628D02*
X262086831Y-129806285D01*
X260621063Y-129361871D02*
X260621063Y-129361871D01*
X170031677Y-130113122D02*
X170078752Y-130138276D01*
X180596603Y-89877830D02*
X180576006Y-89894255D01*
X261930180Y-129979805D02*
X261950168Y-129962759D01*
X105129682Y-84460957D02*
X105117106Y-84483612D01*
X100837364Y-124461189D02*
X100830166Y-124486264D01*
X170832092Y-130113122D02*
X170832092Y-130113122D01*
X244285531Y-92367452D02*
X244291098Y-92341850D01*
X180731996Y-91230769D02*
X180780251Y-91252564D01*
X244035758Y-92784731D02*
X244055125Y-92767085D01*
X78172226Y-142519219D02*
X78172226Y-142519219D01*
X260672570Y-129078662D02*
X260663783Y-129103137D01*
X180499825Y-89965969D02*
X180482385Y-89985310D01*
X341622595Y-123873578D02*
X341631382Y-123849104D01*
X242939450Y-91618911D02*
X242921358Y-91637706D01*
X169796262Y-128933073D02*
X169780843Y-128953943D01*
X333315505Y-81904530D02*
X333314201Y-81931132D01*
X77769161Y-142478587D02*
X77672401Y-142456255D01*
X340101607Y-123381418D02*
X340095218Y-123406765D01*
X260622787Y-129308527D02*
X260621483Y-129335126D01*
X262006364Y-129908087D02*
X262023805Y-129888747D01*
X102295690Y-124294839D02*
X102268366Y-124250802D01*
X242749381Y-92442637D02*
X242767739Y-92491262D01*
X334268515Y-82743571D02*
X334319299Y-82731835D01*
X181530635Y-91177398D02*
X181552422Y-91162267D01*
X105617267Y-85635247D02*
X105668051Y-85646983D01*
X371032943Y-141206905D02*
X370997134Y-141297724D01*
X260770028Y-128896189D02*
X260755304Y-128917533D01*
X76235204Y-141019073D02*
X76212871Y-140922313D01*
X370021421Y-142321983D02*
X369932831Y-142362035D01*
X102320110Y-124340550D02*
X102295690Y-124294839D01*
X260932589Y-129996232D02*
X260975574Y-130027155D01*
X333348503Y-81723914D02*
X333341305Y-81748989D01*
X341670201Y-123670143D02*
X341672379Y-123643704D01*
X101550820Y-123896079D02*
X101499192Y-123901108D01*
X171230148Y-129473045D02*
X171231452Y-129446446D01*
X76262144Y-61975237D02*
X76293587Y-61882309D01*
X260785481Y-129848496D02*
X260818365Y-129888745D01*
X369255820Y-60572459D02*
X369354320Y-60579788D01*
X244299728Y-92289958D02*
X244302769Y-92263703D01*
X181614189Y-89911300D02*
X181573604Y-89877830D01*
X169638829Y-129525695D02*
X169647460Y-129577596D01*
X102205355Y-125222013D02*
X102222132Y-125202144D01*
X106078356Y-84102454D02*
X106028244Y-84087365D01*
X370812743Y-141637438D02*
X370756985Y-141715848D01*
X244279125Y-91974985D02*
X244263928Y-91925123D01*
X333908300Y-82731835D02*
X333959085Y-82743571D01*
X340306920Y-124155305D02*
X340345025Y-124191183D01*
X261266366Y-130147593D02*
X261317657Y-130155976D01*
X169674601Y-129160892D02*
X169666603Y-129185676D01*
X170980332Y-130002864D02*
X170999067Y-129984635D01*
X76900037Y-61026678D02*
X76975590Y-60967304D01*
X180879627Y-91286095D02*
X180930410Y-91297831D01*
X180379465Y-90134460D02*
X180367625Y-90157515D01*
X101114150Y-125329493D02*
X101157136Y-125360412D01*
X76569571Y-141715864D02*
X76513810Y-141637452D01*
X171230146Y-129366317D02*
X171224925Y-129313617D01*
X180981700Y-91306214D02*
X181033327Y-91311244D01*
X100874050Y-124363982D02*
X100863716Y-124387783D01*
X242706634Y-92183861D02*
X242708364Y-92237216D01*
X333959054Y-81172217D02*
X333908270Y-81183953D01*
X170877378Y-128754417D02*
X170832077Y-128726189D01*
X102151087Y-125278376D02*
X102169822Y-125260147D01*
X341079614Y-124364281D02*
X341129725Y-124349192D01*
X340428572Y-122925096D02*
X340406784Y-122940228D01*
X333313781Y-81957879D02*
X333313781Y-81957879D01*
X260975574Y-130027155D02*
X261020874Y-130055382D01*
X76461774Y-61532904D02*
X76513795Y-61451758D01*
X260682154Y-129669287D02*
X260703587Y-129716529D01*
X260624964Y-129282090D02*
X260622787Y-129308527D01*
X76758011Y-61155762D02*
X76827469Y-61089539D01*
X341274292Y-122896874D02*
X341227217Y-122871720D01*
X340288801Y-123044155D02*
X340271360Y-123063496D01*
X102002853Y-125388634D02*
X102002853Y-125388634D01*
X105065485Y-84602526D02*
X105057487Y-84627310D01*
X261866563Y-128696672D02*
X261821258Y-128668450D01*
X340406784Y-122940228D02*
X340385585Y-122956016D01*
X244271944Y-92417873D02*
X244279143Y-92392799D01*
X102375105Y-124904090D02*
X102381493Y-124878743D01*
X102253655Y-125160896D02*
X102268380Y-125139552D01*
X334699082Y-82504079D02*
X334716523Y-82484739D01*
X102341551Y-125002569D02*
X102351119Y-124978422D01*
X170832092Y-130113122D02*
X170855027Y-130099357D01*
X262199947Y-129545473D02*
X262205516Y-129519871D01*
X181720704Y-90025560D02*
X181687823Y-89985311D01*
X171149366Y-129774295D02*
X171160459Y-129750857D01*
X340108807Y-123356344D02*
X340101607Y-123381418D01*
X340156605Y-123944953D02*
X340181026Y-123990666D01*
X334418677Y-82698304D02*
X334466932Y-82676509D01*
X370499078Y-141999644D02*
X370426512Y-142062504D01*
X340095218Y-123406765D02*
X340089650Y-123432367D01*
X105024489Y-84807916D02*
X105023186Y-84834516D01*
X170877394Y-130084900D02*
X170899181Y-130069768D01*
X181239818Y-89726477D02*
X181188526Y-89718095D01*
X180434087Y-90046427D02*
X180419363Y-90067771D01*
X102402633Y-124695214D02*
X102402633Y-124695184D01*
X106290062Y-85511418D02*
X106311260Y-85495631D01*
X261575796Y-130147593D02*
X261626581Y-130135857D01*
X170127007Y-130160075D02*
X170176275Y-130178522D01*
X170277143Y-128633979D02*
X170226357Y-128645715D01*
X105142985Y-84438721D02*
X105129682Y-84460957D01*
X105377260Y-85526550D02*
X105422561Y-85554772D01*
X244091952Y-92730062D02*
X244109392Y-92710722D01*
X181883392Y-90565544D02*
X181884696Y-90538944D01*
X102402633Y-124695184D02*
X102400907Y-124641829D01*
X181878168Y-90406114D02*
X181869537Y-90354213D01*
X334779547Y-82402278D02*
X334793566Y-82380479D01*
X243661366Y-91398200D02*
X243610075Y-91389817D01*
X102402633Y-124695214D02*
X102402633Y-124695214D01*
X341341415Y-124240446D02*
X341362614Y-124224656D01*
X333374855Y-81650509D02*
X333365289Y-81674656D01*
X102391797Y-124827304D02*
X102395690Y-124801249D01*
X105874537Y-84062217D02*
X105822740Y-84060540D01*
X341178992Y-124330750D02*
X341227247Y-124308955D01*
X242903942Y-92710720D02*
X242939476Y-92748855D01*
X261774214Y-130080531D02*
X261821289Y-130055382D01*
X105038344Y-85019230D02*
X105050301Y-85070189D01*
X260648587Y-129152994D02*
X260642199Y-129178341D01*
X233000000Y-60570000D02*
X233000000Y-60570000D01*
X340238500Y-124076920D02*
X340271384Y-124117169D01*
X262219370Y-129415280D02*
X262220677Y-129388679D01*
X180482385Y-89985310D02*
X180465609Y-90005178D01*
X370107655Y-142277815D02*
X370021421Y-142321983D01*
X180780221Y-89771744D02*
X180731965Y-89793540D01*
X102131706Y-124094326D02*
X102091121Y-124060852D01*
X341591601Y-123944964D02*
X341602694Y-123921527D01*
X341274292Y-122896874D02*
X341274292Y-122896874D01*
X171137525Y-129797350D02*
X171149366Y-129774295D01*
X341227247Y-124308955D02*
X341274322Y-124283807D01*
X102169822Y-125260147D02*
X102187915Y-125241353D01*
X371154297Y-140519280D02*
X371154297Y-140519280D01*
X260628007Y-129467935D02*
X260636638Y-129519838D01*
X243859815Y-92902497D02*
X243906891Y-92877343D01*
X101858233Y-123936316D02*
X101808121Y-123921227D01*
X102238236Y-125181766D02*
X102253655Y-125160896D01*
X244304921Y-92130538D02*
X244299706Y-92077838D01*
X78069307Y-142516617D02*
X77967740Y-142508894D01*
X102002838Y-124001702D02*
X101955760Y-123976554D01*
X334871067Y-82216674D02*
X334879065Y-82191890D01*
X341639380Y-123824320D02*
X341646578Y-123799245D01*
X242939476Y-92748855D02*
X242977577Y-92784731D01*
X76628928Y-61297791D02*
X76691789Y-61225222D01*
X181136919Y-91311244D02*
X181188546Y-91306214D01*
X101706043Y-123901108D02*
X101654414Y-123896079D01*
X369548648Y-60608787D02*
X369644147Y-60630321D01*
X77577477Y-60659887D02*
X77672384Y-60632936D01*
X242706634Y-92183861D02*
X242706634Y-92183861D01*
X181857588Y-90721076D02*
X181863976Y-90695729D01*
X243301170Y-92957835D02*
X243351958Y-92969573D01*
X333713562Y-81264428D02*
X333690625Y-81278195D01*
X333315505Y-82011233D02*
X333320724Y-82063934D01*
X371156646Y-62570031D02*
X371156646Y-62570031D01*
X243712182Y-92957835D02*
X243762293Y-92942743D01*
X169864701Y-129984634D02*
X169902803Y-130020510D01*
X334369410Y-82716746D02*
X334418677Y-82698304D01*
X180319847Y-90278158D02*
X180312649Y-90303232D01*
X181340716Y-89753302D02*
X181290604Y-89738213D01*
X106371210Y-85444514D02*
X106389945Y-85426285D01*
X101297738Y-123954758D02*
X101249483Y-123976554D01*
X260755304Y-128917533D02*
X260741284Y-128939332D01*
X170999067Y-129984635D02*
X171017160Y-129965841D01*
X106245910Y-85541007D02*
X106268276Y-85526550D01*
X261626581Y-130135857D02*
X261676691Y-130120768D01*
X180684890Y-89818688D02*
X180684890Y-89818688D01*
X101602640Y-125495957D02*
X101654436Y-125494280D01*
X105355442Y-84211194D02*
X105334244Y-84226981D01*
X371070193Y-61988360D02*
X371096326Y-62082530D01*
X106311244Y-84226981D02*
X106268260Y-84196062D01*
X76182553Y-62365484D02*
X76195272Y-62265393D01*
X340719369Y-122804644D02*
X340668584Y-122816382D01*
X181813699Y-90843356D02*
X181824034Y-90819555D01*
X169714400Y-129774284D02*
X169738819Y-129819997D01*
X333690625Y-81278195D02*
X333668257Y-81292655D01*
X371004402Y-61804662D02*
X371039529Y-61895682D01*
X180292073Y-90618174D02*
X180300704Y-90670079D01*
X180465609Y-90005178D02*
X180449506Y-90025557D01*
X169846581Y-128873484D02*
X169829141Y-128892825D01*
X262221100Y-129361932D02*
X262221100Y-129361932D01*
X340385585Y-122956016D02*
X340364986Y-122972441D01*
X340668584Y-122816382D02*
X340618474Y-122831474D01*
X105822763Y-85662072D02*
X105874559Y-85660395D01*
X181340733Y-91271006D02*
X181390001Y-91252564D01*
X261369285Y-130161006D02*
X261421081Y-130162682D01*
X244172417Y-92628260D02*
X244186437Y-92606461D01*
X260818328Y-128835072D02*
X260801551Y-128854940D01*
X242708363Y-92130513D02*
X242707057Y-92157115D01*
X105022766Y-84861260D02*
X105022766Y-84861260D01*
X340223059Y-123124613D02*
X340208334Y-123145957D01*
X242734180Y-92392773D02*
X242749381Y-92442637D01*
X106502523Y-85283891D02*
X106515827Y-85261655D01*
X181720719Y-90998752D02*
X181736138Y-90977882D01*
X181290622Y-91286095D02*
X181340733Y-91271006D01*
X101757335Y-123909491D02*
X101706043Y-123901108D01*
X340271384Y-124117169D02*
X340306920Y-124155305D01*
X169647460Y-129577596D02*
X169659416Y-129628552D01*
X334852714Y-82265295D02*
X334862280Y-82241148D01*
X334268484Y-81172217D02*
X334217194Y-81163834D01*
X333713562Y-81264428D02*
X333713562Y-81264428D01*
X340135163Y-123282940D02*
X340125595Y-123307087D01*
X181594217Y-91130054D02*
X181614204Y-91113009D01*
X261676691Y-130120768D02*
X261725958Y-130102326D01*
X340101612Y-123799219D02*
X340116814Y-123849084D01*
X243153525Y-92902497D02*
X243201786Y-92924297D01*
X340181011Y-123189992D02*
X340168433Y-123212646D01*
X105567158Y-85620158D02*
X105617267Y-85635247D01*
X169647451Y-129261701D02*
X169642716Y-129287540D01*
X106473778Y-85327033D02*
X106488503Y-85305689D01*
X181885116Y-90512200D02*
X181885116Y-90512200D01*
X181878173Y-90618235D02*
X181881214Y-90591980D01*
X333420700Y-81557561D02*
X333408123Y-81580215D01*
X242887143Y-91676915D02*
X242871040Y-91697294D01*
X333959085Y-82743571D02*
X334010375Y-82751954D01*
X369451984Y-60591920D02*
X369548648Y-60608787D01*
X340977539Y-124384400D02*
X341028830Y-124376017D01*
X243201786Y-92924297D02*
X243251057Y-92942743D01*
X333448040Y-82402273D02*
X333478187Y-82444488D01*
X105187146Y-84374708D02*
X105171728Y-84395579D01*
X334898198Y-81799956D02*
X334886246Y-81749002D01*
X261575766Y-128576239D02*
X261524475Y-128567857D01*
X76691789Y-61225222D02*
X76758011Y-61155762D01*
X242722218Y-92025922D02*
X242717481Y-92051761D01*
X105029713Y-84967325D02*
X105038344Y-85019230D01*
X106607177Y-84703349D02*
X106595220Y-84652397D01*
X260892003Y-129962759D02*
X260932589Y-129996232D01*
X370568535Y-141933423D02*
X370499078Y-141999644D01*
X244199741Y-92584225D02*
X244212319Y-92561571D01*
X371134727Y-62274693D02*
X371146859Y-62372357D01*
X101907502Y-123954758D02*
X101858233Y-123936316D01*
X105334274Y-85495630D02*
X105377260Y-85526550D01*
X334892651Y-82141469D02*
X334898218Y-82115868D01*
X334010375Y-82751954D02*
X334062003Y-82756984D01*
X333317683Y-81878092D02*
X333315505Y-81904530D01*
X180405345Y-90089570D02*
X180392042Y-90111806D01*
X242727786Y-92000320D02*
X242722218Y-92025922D01*
X100804366Y-124641804D02*
X100803062Y-124668406D01*
X76329411Y-141297728D02*
X76293600Y-141206906D01*
X76413616Y-61616658D02*
X76461774Y-61532904D01*
X371143971Y-140723755D02*
X371131253Y-140823840D01*
X243973976Y-92833989D02*
X243995174Y-92818201D01*
X334513977Y-81264428D02*
X334513977Y-81264428D01*
X261067918Y-128643302D02*
X261020843Y-128668450D01*
X341539831Y-123145959D02*
X341509684Y-123103744D01*
X340181026Y-123990666D02*
X340208353Y-124034704D01*
X181390001Y-91252564D02*
X181438258Y-91230769D01*
X77769144Y-60610603D02*
X77867633Y-60593015D01*
X101907518Y-125435588D02*
X101955775Y-125413788D01*
X333356509Y-82216654D02*
X333374865Y-82265280D01*
X102069939Y-125345281D02*
X102091136Y-125329493D01*
X341493615Y-124097302D02*
X341509718Y-124076923D01*
X77967740Y-142508894D02*
X77867650Y-142496175D01*
X334319269Y-81183953D02*
X334268484Y-81172217D01*
X180392063Y-90912492D02*
X180419386Y-90956530D01*
X242778065Y-91852690D02*
X242767730Y-91876492D01*
X341422568Y-124173536D02*
X341441304Y-124155306D01*
X77672384Y-60632936D02*
X77769144Y-60610603D01*
X334733300Y-82464870D02*
X334749403Y-82444492D01*
X370756985Y-141715848D02*
X370697613Y-141791399D01*
X181670398Y-91058340D02*
X181687838Y-91038999D01*
X180556018Y-89911300D02*
X180536652Y-89928946D01*
X78069291Y-60572572D02*
X78172210Y-60569970D01*
X77577495Y-142429305D02*
X77484568Y-142397862D01*
X243106414Y-91490411D02*
X243083481Y-91504178D01*
X170687494Y-130178522D02*
X170736761Y-130160075D01*
X262221100Y-129361932D02*
X262221100Y-129361901D01*
X106442255Y-85368282D02*
X106458359Y-85347904D01*
X180327859Y-90770904D02*
X180346215Y-90819533D01*
X106078373Y-85620158D02*
X106127641Y-85601716D01*
X77967724Y-60580296D02*
X78069291Y-60572572D01*
X180300704Y-90670079D02*
X180312660Y-90721038D01*
X369557420Y-142478577D02*
X369458933Y-142496167D01*
X334165596Y-82756984D02*
X334217224Y-82751954D01*
X340325630Y-123007132D02*
X340306894Y-123025361D01*
X340473877Y-122896874D02*
X340450940Y-122910639D01*
X76174829Y-62467052D02*
X76182553Y-62365484D01*
X261472847Y-128562827D02*
X261421051Y-128561150D01*
X170855027Y-130099357D02*
X170877394Y-130084900D01*
X101073564Y-125296022D02*
X101114150Y-125329493D01*
X171227971Y-129499481D02*
X171230148Y-129473045D01*
X341667158Y-123484280D02*
X341658527Y-123432383D01*
X105422531Y-84167840D02*
X105399596Y-84181605D01*
X170328460Y-130213737D02*
X170380088Y-130218768D01*
X371154297Y-140519280D02*
X371151694Y-140622193D01*
X334662254Y-82541102D02*
X334680989Y-82522873D01*
X262086813Y-128917535D02*
X262056665Y-128875320D01*
X333908270Y-81183953D02*
X333858159Y-81199042D01*
X106127641Y-85601716D02*
X106175899Y-85579921D01*
X243018162Y-92818201D02*
X243061146Y-92849121D01*
X181652305Y-91077133D02*
X181670398Y-91058340D01*
X105517861Y-84120896D02*
X105469606Y-84142691D01*
X341674102Y-123590325D02*
X341672378Y-123536976D01*
X169692954Y-129112270D02*
X169683388Y-129136417D01*
X181652290Y-89947176D02*
X181614189Y-89911300D01*
X212686748Y-154965511D02*
X212270569Y-154914422D01*
X243929824Y-92863578D02*
X243952190Y-92849121D01*
X180981674Y-89718095D02*
X180930383Y-89726477D01*
X105105266Y-84506667D02*
X105094173Y-84530104D01*
X170785017Y-130138276D02*
X170832092Y-130113122D01*
X181778186Y-90912503D02*
X181790764Y-90889848D01*
X102400909Y-124748558D02*
X102402213Y-124721958D01*
X106615814Y-84967387D02*
X106618855Y-84941132D01*
X334319299Y-82731835D02*
X334369410Y-82716746D01*
X170431884Y-130220444D02*
X170483681Y-130218768D01*
X170078722Y-128701041D02*
X170031646Y-128726189D01*
X105157027Y-85305682D02*
X105187171Y-85347899D01*
X106622757Y-84861352D02*
X106622757Y-84861291D01*
X333462746Y-81492182D02*
X333448022Y-81513526D01*
X243351958Y-92969573D02*
X243403251Y-92977958D01*
X341613011Y-123282947D02*
X341591579Y-123235707D01*
X105029707Y-84755225D02*
X105026667Y-84781480D01*
X334749381Y-81471313D02*
X334716498Y-81431065D01*
X100804369Y-124748507D02*
X100809590Y-124801208D01*
X370997134Y-141297724D02*
X370957084Y-141386312D01*
X340569238Y-124330750D02*
X340618505Y-124349192D01*
X340089650Y-123432367D02*
X340084913Y-123458204D01*
X261266336Y-128576239D02*
X261215551Y-128587975D01*
X170078752Y-130138276D02*
X170127007Y-130160075D01*
X106127626Y-84120896D02*
X106078356Y-84102454D01*
X171231872Y-129419671D02*
X171230146Y-129366317D01*
X261950168Y-129962759D02*
X261969535Y-129945112D01*
X171017160Y-129965841D02*
X171034601Y-129946500D01*
X169812365Y-128912694D02*
X169796262Y-128933073D01*
X181033327Y-91311244D02*
X181085123Y-91312920D01*
X242767730Y-91876492D02*
X242758162Y-91900639D01*
X261676661Y-128603064D02*
X261626550Y-128587975D01*
X102282400Y-125117753D02*
X102295704Y-125095517D01*
X260741284Y-128939332D02*
X260727981Y-128961568D01*
X101202438Y-125388634D02*
X101202438Y-125388634D01*
X261215551Y-128587975D02*
X261165441Y-128603064D01*
X242741375Y-91949897D02*
X242734175Y-91974972D01*
X101073535Y-124094325D02*
X101054169Y-124111973D01*
X105074273Y-84578052D02*
X105065485Y-84602526D01*
X371117860Y-62178029D02*
X371134727Y-62274693D01*
X242997536Y-91565988D02*
X242977549Y-91583034D01*
X101955760Y-123976554D02*
X101907502Y-123954758D01*
X106595228Y-85070228D02*
X106601617Y-85044881D01*
X262169570Y-129645154D02*
X262178359Y-129620680D01*
X180536652Y-89928946D02*
X180517918Y-89947175D01*
X261950140Y-128761062D02*
X261909552Y-128727592D01*
X77218919Y-142277834D02*
X77135166Y-142229677D01*
X303806945Y-142519219D02*
X303806945Y-142519219D01*
X170637384Y-130193614D02*
X170687494Y-130178522D01*
X76235193Y-62070144D02*
X76262144Y-61975237D01*
X341362576Y-122956016D02*
X341319591Y-122925096D01*
X242840897Y-91739508D02*
X242826879Y-91761307D01*
X100999902Y-124168338D02*
X100983126Y-124188207D01*
X105517891Y-85601716D02*
X105567158Y-85620158D01*
X76513810Y-141637452D02*
X76461788Y-141556307D01*
X106458359Y-85347904D02*
X106473778Y-85327033D01*
X170226357Y-128645715D02*
X170176245Y-128660804D01*
X242958184Y-91600681D02*
X242939450Y-91618911D01*
X171221037Y-129551792D02*
X171224930Y-129525736D01*
X101654436Y-125494280D02*
X101706063Y-125489249D01*
X105926166Y-84067246D02*
X105874537Y-84062217D01*
X341658533Y-123748295D02*
X341663268Y-123722456D01*
X334871050Y-81699140D02*
X334852696Y-81650516D01*
X260621483Y-129335126D02*
X260621063Y-129361871D01*
X244142251Y-91697296D02*
X244109368Y-91657047D01*
X340074488Y-123563550D02*
X340074066Y-123590295D01*
X334912064Y-82011284D02*
X334913368Y-81984684D01*
X180684921Y-91205621D02*
X180684921Y-91205621D01*
X194500000Y-60570000D02*
X194500000Y-60570000D01*
X181614204Y-91113009D02*
X181633570Y-91095363D01*
X77135147Y-60859520D02*
X77218901Y-60811362D01*
X170832077Y-128726189D02*
X170785001Y-128701041D01*
X243811560Y-92924297D02*
X243859815Y-92902497D01*
X171067467Y-128933075D02*
X171034586Y-128892826D01*
X333760637Y-81239280D02*
X333713562Y-81264428D01*
X100803062Y-124668406D02*
X100802642Y-124695153D01*
X341297259Y-124270039D02*
X341319626Y-124255579D01*
X169986375Y-130084900D02*
X170031677Y-130113122D01*
X341602694Y-123921527D02*
X341613029Y-123897726D01*
X171224925Y-129313617D02*
X171216294Y-129261717D01*
X242855621Y-91718165D02*
X242840897Y-91739508D01*
X340473907Y-124283807D02*
X340473907Y-124283807D01*
X260682137Y-129054516D02*
X260672570Y-129078662D01*
X334466932Y-82676509D02*
X334514007Y-82651360D01*
X105057487Y-84627310D02*
X105050290Y-84652384D01*
X169766119Y-128975287D02*
X169752101Y-128997086D01*
X334819446Y-82335588D02*
X334831286Y-82312533D01*
X333494269Y-81450933D02*
X333478166Y-81471312D01*
X101135318Y-124045063D02*
X101114121Y-124060852D01*
X215610717Y-154914422D02*
X215194538Y-154965511D01*
X260642199Y-129178341D02*
X260636633Y-129203943D01*
X341441304Y-124155306D02*
X341459397Y-124136512D01*
X260628005Y-129255835D02*
X260624964Y-129282090D01*
X370098432Y-60805625D02*
X370183499Y-60853737D01*
X105083839Y-84553905D02*
X105074273Y-84578052D01*
X106540233Y-84506672D02*
X106515813Y-84460961D01*
X169738798Y-129019322D02*
X169726221Y-129041977D01*
X101297768Y-125435588D02*
X101347034Y-125454034D01*
X333713592Y-82651360D02*
X333713592Y-82651360D01*
X170380064Y-128620566D02*
X170328434Y-128625596D01*
X333313781Y-81957879D02*
X333315505Y-82011233D01*
X105117106Y-84483612D02*
X105105266Y-84506667D01*
X76172233Y-140519250D02*
X76172226Y-62569970D01*
X334913788Y-81957940D02*
X334913788Y-81957940D01*
X369738317Y-60656455D02*
X369830995Y-60687120D01*
X215610717Y-154914422D02*
X215610717Y-154914422D01*
X243906891Y-92877343D02*
X243906891Y-92877343D01*
X171197148Y-129653652D02*
X171204346Y-129628577D01*
X180306262Y-90328579D02*
X180300695Y-90354181D01*
X333858159Y-81199042D02*
X333808892Y-81217484D01*
X181573619Y-91146479D02*
X181594217Y-91130054D01*
X261067949Y-130080531D02*
X261116204Y-130102326D01*
X340145499Y-123259139D02*
X340135163Y-123282940D01*
X170535289Y-128625596D02*
X170483659Y-128620566D01*
X102091136Y-125329493D02*
X102111734Y-125313068D01*
X212270569Y-154914422D02*
X212270569Y-154914422D01*
X181033303Y-89713065D02*
X180981674Y-89718095D01*
X340822288Y-122791228D02*
X340770660Y-122796259D01*
X261909581Y-129996232D02*
X261930180Y-129979805D01*
X181884696Y-90538944D02*
X181885116Y-90512200D01*
X78172210Y-60569970D02*
X78172226Y-60570000D01*
X170535309Y-130213737D02*
X170586599Y-130205352D01*
X180286849Y-90458765D02*
X180285545Y-90485364D01*
X105719340Y-85655366D02*
X105770967Y-85660395D01*
X171189139Y-129160902D02*
X171170783Y-129112278D01*
X181857579Y-90303258D02*
X181842380Y-90253395D01*
X370703715Y-61302511D02*
X370764195Y-61380147D01*
X76369449Y-61702894D02*
X76413616Y-61616658D01*
X106561663Y-84553913D02*
X106540233Y-84506672D01*
X100885161Y-125049796D02*
X100909580Y-125095509D01*
X101179472Y-124015470D02*
X101157106Y-124029929D01*
X341079584Y-122816382D02*
X341028799Y-122804644D01*
X261524506Y-130155976D02*
X261575796Y-130147593D01*
X169703289Y-129088469D02*
X169692954Y-129112270D01*
X242840915Y-92628255D02*
X242871061Y-92670471D01*
X370921029Y-61628246D02*
X370964879Y-61715461D01*
X180292067Y-90406074D02*
X180289027Y-90432328D01*
X101499192Y-123901108D02*
X101447901Y-123909491D01*
X341441265Y-123025362D02*
X341403162Y-122989486D01*
X105469606Y-84142691D02*
X105422531Y-84167840D01*
X76172226Y-62569970D02*
X76172226Y-62569970D01*
X76172233Y-140519250D02*
X76172233Y-140519250D01*
X101447901Y-123909491D02*
X101397116Y-123921227D01*
X333511046Y-81431064D02*
X333494269Y-81450933D01*
X340569207Y-122849921D02*
X340520952Y-122871720D01*
X242734175Y-91974972D02*
X242727786Y-92000320D01*
X77393746Y-142362052D02*
X77305154Y-142322001D01*
X244279143Y-92392799D02*
X244285531Y-92367452D01*
X170940978Y-130037555D02*
X170960965Y-130020510D01*
X170031677Y-130113122D02*
X170031677Y-130113122D01*
X333625299Y-82592219D02*
X333668288Y-82623138D01*
X243301140Y-91409936D02*
X243251026Y-91425025D01*
X333374865Y-82265280D02*
X333396295Y-82312522D01*
X170586581Y-128633979D02*
X170535289Y-128625596D01*
X180930410Y-91297831D02*
X180981700Y-91306214D01*
X106561675Y-85168707D02*
X106571242Y-85144560D01*
X180392042Y-90111806D02*
X180379465Y-90134460D01*
X370272550Y-142177636D02*
X370191406Y-142229658D01*
X181485321Y-89818688D02*
X181485321Y-89818688D01*
X169922762Y-128801767D02*
X169902774Y-128818813D01*
X334369379Y-81199042D02*
X334319269Y-81183953D01*
X181863976Y-90695729D02*
X181869544Y-90670128D01*
X170380088Y-130218768D02*
X170431884Y-130220444D01*
X333604671Y-81340005D02*
X333584682Y-81357051D01*
X180879599Y-89738213D02*
X180829488Y-89753302D01*
X341667161Y-123696400D02*
X341670201Y-123670143D01*
X100818221Y-124853109D02*
X100830177Y-124904064D01*
X334831286Y-82312533D02*
X334842379Y-82289096D01*
X180556047Y-91113008D02*
X180596633Y-91146479D01*
X334680989Y-82522873D02*
X334699082Y-82504079D01*
X213522168Y-155023899D02*
X213104075Y-155002003D01*
X170431862Y-128618890D02*
X170380064Y-128620566D01*
X77054020Y-142177656D02*
X76975608Y-142121896D01*
X102048152Y-125360412D02*
X102069939Y-125345281D01*
X180286852Y-90565468D02*
X180292073Y-90618174D01*
X181869537Y-90354213D02*
X181857579Y-90303258D01*
X76461788Y-141556307D02*
X76413631Y-141472554D01*
X181530620Y-89846910D02*
X181485321Y-89818688D01*
X341476801Y-123063497D02*
X341441265Y-123025362D01*
X262126732Y-129739595D02*
X262138573Y-129716540D01*
X180930383Y-89726477D02*
X180879599Y-89738213D01*
X262023805Y-129888747D02*
X262040583Y-129868878D01*
X105977458Y-84075629D02*
X105926166Y-84067246D01*
X244304947Y-92237266D02*
X244306251Y-92210667D01*
X334906824Y-81851855D02*
X334898198Y-81799956D01*
X333385190Y-81626708D02*
X333374855Y-81650509D01*
X243106445Y-92877343D02*
X243106445Y-92877343D01*
X242758162Y-91900639D02*
X242749374Y-91925113D01*
X333713592Y-82651360D02*
X333760667Y-82676509D01*
X180295960Y-90380018D02*
X180292067Y-90406074D01*
X170832077Y-128726189D02*
X170832077Y-128726189D01*
X262100851Y-129784486D02*
X262114154Y-129762250D01*
X169902774Y-128818813D02*
X169883408Y-128836460D01*
X76900055Y-142062524D02*
X76827486Y-141999664D01*
X106588029Y-85095302D02*
X106595228Y-85070228D01*
X105026667Y-84781480D02*
X105024489Y-84807916D01*
X243906860Y-91490411D02*
X243906860Y-91490411D01*
X102187915Y-125241353D02*
X102205355Y-125222013D01*
X77305136Y-60767194D02*
X77393727Y-60727142D01*
X340344997Y-122989486D02*
X340325630Y-123007132D01*
X170008711Y-128739957D02*
X169986345Y-128754417D01*
X333808892Y-81217484D02*
X333760637Y-81239280D01*
X242977549Y-91583034D02*
X242958184Y-91600681D01*
X341674102Y-123590356D02*
X341674102Y-123590356D01*
X100999929Y-125222011D02*
X101035463Y-125260146D01*
X341274322Y-124283807D02*
X341297259Y-124270039D01*
X334779526Y-81513528D02*
X334749381Y-81471313D01*
X369154358Y-142519219D02*
X369154358Y-142519219D01*
X260997907Y-128682215D02*
X260975539Y-128696672D01*
X242977577Y-92784731D02*
X243018162Y-92818201D01*
X102222132Y-125202144D02*
X102238236Y-125181766D01*
X106611920Y-84993442D02*
X106615814Y-84967387D01*
X102111734Y-125313068D02*
X102131721Y-125296023D01*
X101757354Y-125480865D02*
X101808139Y-125469126D01*
X262178359Y-129620680D02*
X262186358Y-129595896D01*
X76174837Y-140622168D02*
X76172233Y-140519250D01*
X169638823Y-129313596D02*
X169635783Y-129339853D01*
X333511070Y-82484737D02*
X333546606Y-82522872D01*
X340081019Y-123696359D02*
X340089653Y-123748262D01*
X170483681Y-130218768D02*
X170535309Y-130213737D01*
X101035463Y-125260146D02*
X101073564Y-125296022D01*
X243251026Y-91425025D02*
X243201755Y-91443467D01*
X76212860Y-62166905D02*
X76235193Y-62070144D01*
X340075795Y-123536951D02*
X340074488Y-123563550D01*
X242800998Y-91806198D02*
X242789158Y-91829253D01*
X334536944Y-82637595D02*
X334559311Y-82623138D01*
X261421051Y-128561150D02*
X261369254Y-128562827D01*
X169683388Y-129136417D02*
X169674601Y-129160892D01*
X180780251Y-91252564D02*
X180829517Y-91271006D01*
X101249483Y-123976554D02*
X101202407Y-124001702D01*
X180285125Y-90512109D02*
X180285125Y-90512109D01*
X340077975Y-123510515D02*
X340075795Y-123536951D01*
X105377229Y-84196062D02*
X105355442Y-84211194D01*
X262056665Y-128875320D02*
X262023782Y-128835072D01*
X262205513Y-129203959D02*
X262193553Y-129153007D01*
X101550844Y-125494280D02*
X101602640Y-125495957D01*
X101347034Y-125454034D02*
X101397144Y-125469126D01*
X334862280Y-82241148D02*
X334871067Y-82216674D01*
X170687478Y-128660804D02*
X170637366Y-128645715D01*
X341476838Y-124117171D02*
X341493615Y-124097302D01*
X341646578Y-123799245D02*
X341652966Y-123773897D01*
X334806850Y-81557564D02*
X334779526Y-81513528D01*
X100936903Y-125139547D02*
X100967048Y-125181763D01*
X171149353Y-129065037D02*
X171124935Y-129019326D01*
X100806544Y-124615366D02*
X100804366Y-124641804D01*
X334581100Y-82608006D02*
X334602299Y-82592219D01*
X106311260Y-85495631D02*
X106331857Y-85479205D01*
X169829141Y-128892825D02*
X169812365Y-128912694D01*
X243106445Y-92877343D02*
X243153525Y-92902497D01*
X106268260Y-84196062D02*
X106222961Y-84167840D01*
X180285545Y-90485364D02*
X180285125Y-90512109D01*
X106622337Y-84888096D02*
X106622757Y-84861352D01*
X340428603Y-124255579D02*
X340473907Y-124283807D01*
X334418646Y-81217484D02*
X334369379Y-81199042D01*
X260648596Y-129570795D02*
X260663796Y-129620660D01*
X369749085Y-142429291D02*
X369654179Y-142456243D01*
X369358843Y-142508888D02*
X369257276Y-142516614D01*
X105105285Y-85215929D02*
X105129703Y-85261643D01*
X340874115Y-124391106D02*
X340925911Y-124389430D01*
X262220677Y-129388679D02*
X262221100Y-129361932D01*
X260621063Y-129361871D02*
X260622787Y-129415230D01*
X334062003Y-82756984D02*
X334113800Y-82758660D01*
X105033600Y-84729170D02*
X105029707Y-84755225D01*
X171189149Y-129678435D02*
X171197148Y-129653652D01*
X341663268Y-123722456D02*
X341667161Y-123696400D01*
X340074066Y-123590295D02*
X340074066Y-123590295D01*
X102131721Y-125296023D02*
X102151087Y-125278376D01*
X181824034Y-90819555D02*
X181833602Y-90795408D01*
X169780843Y-128953943D02*
X169766119Y-128975287D01*
X333858190Y-82716746D02*
X333908300Y-82731835D01*
X334165566Y-81158805D02*
X334113769Y-81157128D01*
X105293659Y-84260452D02*
X105274292Y-84278098D01*
X260932551Y-128727592D02*
X260911952Y-128744017D01*
X105274292Y-84278098D02*
X105255558Y-84296327D01*
X180517918Y-89947175D02*
X180499825Y-89965969D01*
X243083481Y-91504178D02*
X243061116Y-91518638D01*
X180661955Y-89832453D02*
X180639589Y-89846910D01*
X243351928Y-91398200D02*
X243301140Y-91409936D01*
X78172226Y-142519219D02*
X78069307Y-142516617D01*
X180576006Y-89894255D02*
X180556018Y-89911300D01*
X180419386Y-90956530D02*
X180449531Y-90998747D01*
X370957084Y-141386312D02*
X370912918Y-141472544D01*
X105668051Y-85646983D02*
X105719340Y-85655366D01*
X341403201Y-124191183D02*
X341422568Y-124173536D01*
X102398731Y-124774994D02*
X102400909Y-124748558D01*
X334602299Y-82592219D02*
X334622898Y-82575793D01*
X106028262Y-85635247D02*
X106078373Y-85620158D01*
X333584682Y-81357051D02*
X333565315Y-81374698D01*
X170277170Y-130205352D02*
X170328460Y-130213737D01*
X169666603Y-129185676D02*
X169659405Y-129210751D01*
X181833602Y-90795408D02*
X181842390Y-90770934D01*
X171124948Y-129820004D02*
X171137525Y-129797350D01*
X333808923Y-82698304D02*
X333858190Y-82716746D01*
X334716523Y-82484739D02*
X334733300Y-82464870D01*
X102169807Y-124130203D02*
X102131706Y-124094326D01*
X171170783Y-129112278D02*
X171149353Y-129065037D01*
X334642859Y-81357051D02*
X334602270Y-81323578D01*
X102268380Y-125139552D02*
X102282400Y-125117753D01*
X105770943Y-84062217D02*
X105719315Y-84067246D01*
X101202438Y-125388634D02*
X101249513Y-125413788D01*
X106580030Y-85120086D02*
X106588029Y-85095302D01*
X213104075Y-155002003D02*
X212686748Y-154965511D01*
X106515827Y-85261655D02*
X106528405Y-85239000D01*
X244306251Y-92210667D02*
X244306671Y-92183923D01*
X181389985Y-89771744D02*
X181340716Y-89753302D01*
X101499217Y-125489249D02*
X101550844Y-125494280D01*
X77484549Y-60691331D02*
X77577477Y-60659887D01*
X261020843Y-128668450D02*
X260997907Y-128682215D01*
X106175883Y-84142691D02*
X106127626Y-84120896D01*
X171067481Y-129906253D02*
X171082901Y-129885383D01*
X180327845Y-90253375D02*
X180319847Y-90278158D01*
X181790764Y-90889848D02*
X181802605Y-90866793D01*
X370864763Y-141556295D02*
X370812743Y-141637438D01*
X76195281Y-140823825D02*
X76182562Y-140723735D01*
X101157136Y-125360412D02*
X101202438Y-125388634D01*
X243610075Y-91389817D02*
X243558446Y-91384787D01*
X76827469Y-61089539D02*
X76900037Y-61026678D01*
X181508270Y-91191856D02*
X181530635Y-91177398D01*
X334806869Y-82358243D02*
X334819446Y-82335588D01*
X100967023Y-124208586D02*
X100951604Y-124229456D01*
X169883408Y-128836460D02*
X169864674Y-128854690D01*
X170999052Y-128854690D02*
X170960950Y-128818813D01*
X242921358Y-91637706D02*
X242903919Y-91657046D01*
X260801551Y-128854940D02*
X260785447Y-128875319D01*
X341674102Y-123590356D02*
X341674102Y-123590325D01*
X101017342Y-124148997D02*
X100999902Y-124168338D01*
X102268366Y-124250802D02*
X102238221Y-124208587D01*
X106551339Y-85192508D02*
X106561675Y-85168707D01*
X262149667Y-129693103D02*
X262160003Y-129669301D01*
X341403162Y-122989486D02*
X341362576Y-122956016D01*
X341631369Y-123331571D02*
X341613011Y-123282947D01*
X341672379Y-123643704D02*
X341673683Y-123617103D01*
X260853900Y-129926881D02*
X260892003Y-129962759D01*
X340473877Y-122896874D02*
X340473877Y-122896874D01*
X244212319Y-92561571D02*
X244224160Y-92538516D01*
X243995145Y-91549561D02*
X243952160Y-91518638D01*
X170176275Y-130178522D02*
X170226385Y-130193614D01*
X77135166Y-142229677D02*
X77054020Y-142177656D01*
X334514007Y-82651360D02*
X334514007Y-82651360D01*
X76975608Y-142121896D02*
X76900055Y-142062524D01*
X244172397Y-91739511D02*
X244142251Y-91697296D01*
X101035435Y-124130203D02*
X101017342Y-124148997D01*
X180639589Y-89846910D02*
X180617801Y-89862042D01*
X260655785Y-129127920D02*
X260648587Y-129152994D01*
X170736761Y-130160075D02*
X170785017Y-130138276D01*
X181485336Y-91205621D02*
X181508270Y-91191856D01*
X333396295Y-82312522D02*
X333420715Y-82358235D01*
X334622898Y-82575793D02*
X334642886Y-82558748D01*
X101114121Y-124060852D02*
X101093523Y-124077279D01*
X102359897Y-124436415D02*
X102341540Y-124387791D01*
X105977477Y-85646983D02*
X106028262Y-85635247D01*
X340089653Y-123748262D02*
X340101612Y-123799219D01*
X100802642Y-124695153D02*
X100802642Y-124695153D01*
X170586599Y-130205352D02*
X170637384Y-130193614D01*
X243762262Y-91425025D02*
X243712152Y-91409936D01*
X106222961Y-84167840D02*
X106175883Y-84142691D01*
X244186437Y-92606461D02*
X244199741Y-92584225D01*
X105617239Y-84087365D02*
X105567129Y-84102454D01*
X102387054Y-124537230D02*
X102375096Y-124486276D01*
X170920364Y-128785340D02*
X170877378Y-128754417D01*
X340925881Y-122791228D02*
X340874084Y-122789551D01*
X105022766Y-84861260D02*
X105024492Y-84914620D01*
X169631881Y-129419640D02*
X169631881Y-129419640D01*
X102387061Y-124853142D02*
X102391797Y-124827304D01*
X370183499Y-60853737D02*
X370266253Y-60906040D01*
X261317657Y-130155976D02*
X261369285Y-130161006D01*
X244291098Y-92341850D02*
X244295834Y-92316013D01*
X180289027Y-90432328D02*
X180286849Y-90458765D01*
X100823779Y-124511611D02*
X100818212Y-124537214D01*
X105567129Y-84102454D02*
X105517861Y-84120896D01*
X100983126Y-124188207D02*
X100967023Y-124208586D01*
X340238479Y-123103743D02*
X340223059Y-123124613D01*
X242713587Y-92289917D02*
X242722221Y-92341818D01*
X243039329Y-91533771D02*
X243018132Y-91549561D01*
X371131253Y-140823840D02*
X371113666Y-140922324D01*
X101602617Y-123894402D02*
X101550820Y-123896079D01*
X169752101Y-128997086D02*
X169738798Y-129019322D01*
X106601617Y-85044881D02*
X106607184Y-85019280D01*
X261969535Y-129945112D02*
X261988271Y-129926882D01*
X105668024Y-84075629D02*
X105617239Y-84087365D01*
X370570861Y-61155816D02*
X370570861Y-61155816D01*
X181750863Y-90956538D02*
X181764883Y-90934739D01*
X341673683Y-123617103D02*
X341674102Y-123590356D01*
X341509684Y-123103744D02*
X341476801Y-123063497D01*
X171224930Y-129525736D02*
X171227971Y-129499481D01*
X76628945Y-141791416D02*
X76569571Y-141715864D01*
X260703587Y-129716529D02*
X260728008Y-129762242D01*
X106607184Y-85019280D02*
X106611920Y-84993442D01*
X341567157Y-123189996D02*
X341539831Y-123145959D01*
X169635783Y-129339853D02*
X169633605Y-129366292D01*
X101397116Y-123921227D02*
X101347005Y-123936316D01*
X105237465Y-84315121D02*
X105220026Y-84334461D01*
X169659416Y-129628552D02*
X169674615Y-129678415D01*
X181885116Y-90512170D02*
X181883390Y-90458815D01*
X170785001Y-128701041D02*
X170736746Y-128679246D01*
X169692971Y-129727041D02*
X169714400Y-129774284D01*
X341591579Y-123235707D02*
X341567157Y-123189996D01*
X260631898Y-129229780D02*
X260628005Y-129255835D01*
X340719400Y-124376017D02*
X340770690Y-124384400D01*
X260891964Y-128761062D02*
X260872597Y-128778708D01*
X243558477Y-92982989D02*
X243610106Y-92977958D01*
X100809590Y-124801208D02*
X100818221Y-124853109D01*
X101093523Y-124077279D02*
X101073535Y-124094325D01*
X100885143Y-124340545D02*
X100874050Y-124363982D01*
X369654179Y-142456243D02*
X369557420Y-142478577D01*
X181850389Y-90746151D02*
X181857588Y-90721076D01*
X340668615Y-124364281D02*
X340719400Y-124376017D01*
X171204346Y-129628577D02*
X171210734Y-129603231D01*
X340271360Y-123063496D02*
X340254583Y-123083364D01*
X333565315Y-81374698D02*
X333546580Y-81392928D01*
X371096326Y-62082530D02*
X371117860Y-62178029D01*
X244224160Y-92538516D02*
X244235253Y-92515079D01*
X180684890Y-89818688D02*
X180661955Y-89832453D01*
X261909552Y-128727592D02*
X261866563Y-128696672D01*
X333584710Y-82558748D02*
X333625299Y-82592219D01*
X105157004Y-84416922D02*
X105142985Y-84438721D01*
X371151694Y-140622193D02*
X371143971Y-140723755D01*
X105220026Y-84334461D02*
X105203249Y-84354330D01*
X76827486Y-141999664D02*
X76758028Y-141933442D01*
X340925911Y-124389430D02*
X340977539Y-124384400D01*
X340208353Y-124034704D02*
X340238500Y-124076920D01*
X260636633Y-129203943D02*
X260631898Y-129229780D01*
X261821289Y-130055382D02*
X261844225Y-130041615D01*
X180731965Y-89793540D02*
X180684890Y-89818688D01*
X333668288Y-82623138D02*
X333713592Y-82651360D01*
X334113769Y-81157128D02*
X334061973Y-81158805D01*
X340977508Y-122796259D02*
X340925881Y-122791228D01*
X212270569Y-154914422D02*
X124074173Y-142519219D01*
X169796287Y-129906250D02*
X169829168Y-129946498D01*
X370350960Y-142121876D02*
X370272550Y-142177636D01*
X106528405Y-85239000D02*
X106540245Y-85215945D01*
X180346215Y-90819533D02*
X180367644Y-90866777D01*
X76691805Y-141863984D02*
X76628945Y-141791416D01*
X100809584Y-124589109D02*
X100806544Y-124615366D01*
X170920380Y-130053980D02*
X170940978Y-130037555D01*
X341028830Y-124376017D02*
X341079614Y-124364281D01*
X101858250Y-125454034D02*
X101907518Y-125435588D01*
X334898218Y-82115868D02*
X334902953Y-82090030D01*
X341567184Y-123990674D02*
X341579761Y-123968019D01*
X169674615Y-129678415D02*
X169692971Y-129727041D01*
X244302769Y-92263703D02*
X244304947Y-92237266D01*
X171210734Y-129603231D02*
X171216301Y-129577629D01*
X333478166Y-81471312D02*
X333462746Y-81492182D01*
X169766142Y-129864034D02*
X169796287Y-129906250D01*
X262023782Y-128835072D02*
X261988245Y-128796938D01*
X340450940Y-122910639D02*
X340428572Y-122925096D01*
X171231872Y-129419701D02*
X171231872Y-129419671D01*
X341579761Y-123968019D02*
X341591601Y-123944964D01*
X106488503Y-85305689D02*
X106502523Y-85283891D01*
X171034586Y-128892826D02*
X170999052Y-128854690D01*
X169943389Y-130053980D02*
X169986375Y-130084900D01*
X106580020Y-84602536D02*
X106561663Y-84553913D01*
X334217224Y-82751954D02*
X334268515Y-82743571D01*
X170899181Y-130069768D02*
X170920380Y-130053980D01*
X262219370Y-129308552D02*
X262214146Y-129255856D01*
X369154358Y-142519219D02*
X303806945Y-142519219D01*
X333320723Y-81851835D02*
X333317683Y-81878092D01*
X333528487Y-81411723D02*
X333511046Y-81431064D01*
X170031646Y-128726189D02*
X170031646Y-128726189D01*
X181438243Y-89793540D02*
X181389985Y-89771744D01*
X77672401Y-142456255D02*
X77577495Y-142429305D01*
X181188526Y-89718095D02*
X181136897Y-89713065D01*
X181136897Y-89713065D02*
X181085100Y-89711388D01*
X101808121Y-123921227D02*
X101757335Y-123909491D01*
X181633570Y-91095363D02*
X181652305Y-91077133D01*
X180482412Y-91038996D02*
X180517945Y-91077132D01*
X181842390Y-90770934D02*
X181850389Y-90746151D01*
X180449506Y-90025557D02*
X180434087Y-90046427D01*
X334912038Y-81904555D02*
X334906824Y-81851855D01*
X260727981Y-128961568D02*
X260715404Y-128984222D01*
X105187171Y-85347899D02*
X105220052Y-85388148D01*
X370266253Y-60906040D02*
X370346530Y-60962468D01*
X244263928Y-91925123D02*
X244245572Y-91876499D01*
X340385614Y-124224656D02*
X340428603Y-124255579D01*
X171216301Y-129577629D02*
X171221037Y-129551792D01*
X334010345Y-81163834D02*
X333959054Y-81172217D01*
X180356533Y-90180953D02*
X180346198Y-90204754D01*
X181802592Y-90157526D02*
X181778173Y-90111813D01*
X181802605Y-90866793D02*
X181813699Y-90843356D01*
X334879065Y-82191890D02*
X334886264Y-82166816D01*
X333329354Y-82115835D02*
X333341310Y-82166790D01*
X334793566Y-82380479D02*
X334806869Y-82358243D01*
X341227217Y-122871720D02*
X341178961Y-122849921D01*
X334113800Y-82758660D02*
X334165596Y-82756984D01*
X124074173Y-142519219D02*
X78172226Y-142519219D01*
X260692472Y-129030715D02*
X260682137Y-129054516D01*
X76293600Y-141206906D02*
X76262156Y-141113980D01*
X340208334Y-123145957D02*
X340194315Y-123167756D01*
X102351119Y-124978422D02*
X102359907Y-124953948D01*
X102002853Y-125388634D02*
X102025787Y-125374870D01*
X261988245Y-128796938D02*
X261950140Y-128761062D01*
X262178352Y-129103147D02*
X262159993Y-129054523D01*
X371091334Y-141019080D02*
X371064385Y-141113982D01*
X102002838Y-124001702D02*
X102002838Y-124001702D01*
X260911952Y-128744017D02*
X260891964Y-128761062D01*
X244126170Y-92690853D02*
X244142273Y-92670474D01*
X262159993Y-129054523D02*
X262138561Y-129007283D01*
X180336632Y-90228901D02*
X180327845Y-90253375D01*
X341383213Y-124208229D02*
X341403201Y-124191183D01*
X77054002Y-60911543D02*
X77135147Y-60859520D01*
X105203249Y-84354330D02*
X105187146Y-84374708D01*
X171111645Y-129842240D02*
X171124948Y-129820004D01*
X341028799Y-122804644D02*
X340977508Y-122796259D01*
X333396283Y-81603270D02*
X333385190Y-81626708D01*
X100909559Y-124294835D02*
X100896982Y-124317489D01*
X341613029Y-123897726D02*
X341622595Y-123873578D01*
X261988271Y-129926882D02*
X262006364Y-129908087D01*
X106621030Y-84807942D02*
X106615809Y-84755246D01*
X105255586Y-85426284D02*
X105293688Y-85462160D01*
X242713586Y-92077818D02*
X242710543Y-92104074D01*
X243995174Y-92818201D02*
X244015771Y-92801776D01*
X106425463Y-84334462D02*
X106389930Y-84296327D01*
X106540245Y-85215945D02*
X106551339Y-85192508D01*
X333329351Y-81799939D02*
X333324616Y-81825778D01*
X334749403Y-82444492D02*
X334764822Y-82423621D01*
X341525137Y-124056053D02*
X341539862Y-124034709D01*
X171231452Y-129446446D02*
X171231872Y-129419701D01*
X334902953Y-82090030D02*
X334906846Y-82063975D01*
X262214148Y-129467975D02*
X262217191Y-129441719D01*
X242871040Y-91697294D02*
X242855621Y-91718165D01*
X181085100Y-89711388D02*
X181033303Y-89713065D01*
X76182562Y-140723735D02*
X76174837Y-140622168D01*
X260663783Y-129103137D02*
X260655785Y-129127920D01*
X243403221Y-91389817D02*
X243351928Y-91398200D01*
X340618474Y-122831474D02*
X340569207Y-122849921D01*
X370346530Y-60962468D02*
X370424167Y-61022952D01*
X102367906Y-124929164D02*
X102375105Y-124904090D01*
X76293587Y-61882309D02*
X76329398Y-61791486D01*
X260755334Y-129806279D02*
X260785481Y-129848496D01*
X340874084Y-122789551D02*
X340822288Y-122791228D01*
X244142273Y-92670474D02*
X244157693Y-92649604D01*
X341539862Y-124034709D02*
X341553881Y-124012910D01*
X341509718Y-124076923D02*
X341525137Y-124056053D01*
X101654414Y-123896079D02*
X101602617Y-123894402D01*
X262214146Y-129255856D02*
X262205513Y-129203959D01*
X100802642Y-124695153D02*
X100804369Y-124748507D01*
X340473907Y-124283807D02*
X340520982Y-124308955D01*
X181085123Y-91312920D02*
X181136919Y-91311244D01*
X105399596Y-84181605D02*
X105377229Y-84196062D01*
X244235253Y-92515079D02*
X244245589Y-92491277D01*
X171082901Y-129885383D02*
X171097625Y-129864039D01*
X340520952Y-122871720D02*
X340473877Y-122896874D01*
X341652966Y-123773897D02*
X341658533Y-123748295D01*
X260703564Y-129007277D02*
X260692472Y-129030715D01*
X106621033Y-84914695D02*
X106622337Y-84888096D01*
X181290604Y-89738213D02*
X181239818Y-89726477D01*
X169632301Y-129392893D02*
X169631881Y-129419640D01*
X260728008Y-129762242D02*
X260755334Y-129806279D01*
X105422561Y-85554772D02*
X105469636Y-85579921D01*
X260835768Y-128815731D02*
X260818328Y-128835072D01*
X243610106Y-92977958D02*
X243661397Y-92969573D01*
X100967048Y-125181763D02*
X100999929Y-125222011D01*
X106622757Y-84861291D02*
X106621030Y-84807942D01*
X260785447Y-128875319D02*
X260770028Y-128896189D01*
X243906860Y-91490411D02*
X243859785Y-91465262D01*
X101202407Y-124001702D02*
X101202407Y-124001702D01*
X106408038Y-85407491D02*
X106425478Y-85388151D01*
X180829488Y-89753302D02*
X180780221Y-89771744D01*
X260872597Y-128778708D02*
X260853861Y-128796937D01*
X169633608Y-129472995D02*
X169638829Y-129525695D01*
X105422531Y-84167840D02*
X105422531Y-84167840D01*
X171124935Y-129019326D02*
X171097611Y-128975290D01*
X333448022Y-81513526D02*
X333434003Y-81535325D01*
X102331216Y-125026370D02*
X102341551Y-125002569D01*
X334559311Y-82623138D02*
X334581100Y-82608006D01*
X169986345Y-128754417D02*
X169964557Y-128769550D01*
X105220052Y-85388148D02*
X105255586Y-85426284D01*
X181485336Y-91205621D02*
X181485336Y-91205621D01*
X106595220Y-84652397D02*
X106580020Y-84602536D01*
X262114139Y-128961571D02*
X262086813Y-128917535D01*
X105171728Y-84395579D02*
X105157004Y-84416922D01*
X181778173Y-90111813D02*
X181750849Y-90067776D01*
X233000000Y-60570000D02*
X369156646Y-60570000D01*
X242710543Y-92104074D02*
X242708363Y-92130513D01*
X102025787Y-125374870D02*
X102048152Y-125360412D01*
X100854149Y-124411930D02*
X100845362Y-124436405D01*
X180312660Y-90721038D02*
X180327859Y-90770904D01*
X261888382Y-130012022D02*
X261909581Y-129996232D01*
X170483659Y-128620566D02*
X170431862Y-128618890D01*
X180312649Y-90303232D02*
X180306262Y-90328579D01*
X369156646Y-60570000D02*
X369255820Y-60572459D01*
X106222976Y-85554772D02*
X106222976Y-85554772D01*
X180285125Y-90512109D02*
X180286852Y-90565468D01*
X261116204Y-130102326D02*
X261165471Y-130120768D01*
X181552422Y-91162267D02*
X181573619Y-91146479D01*
X333334918Y-81774337D02*
X333329351Y-81799939D01*
X181188546Y-91306214D02*
X181239837Y-91297831D01*
X262193553Y-129153007D02*
X262178352Y-129103147D01*
X262210253Y-129494032D02*
X262214148Y-129467975D01*
X106488489Y-84416925D02*
X106458345Y-84374710D01*
X170736746Y-128679246D02*
X170687478Y-128660804D01*
X105094173Y-84530104D02*
X105083839Y-84553905D01*
X244157693Y-92649604D02*
X244172417Y-92628260D01*
X106622757Y-84861352D02*
X106622757Y-84861352D01*
X243952160Y-91518638D02*
X243906860Y-91490411D01*
X261626550Y-128587975D02*
X261575766Y-128576239D01*
X180829517Y-91271006D02*
X180879627Y-91286095D01*
X106515813Y-84460961D02*
X106488489Y-84416925D01*
X262138573Y-129716540D02*
X262149667Y-129693103D01*
X262205516Y-129519871D02*
X262210253Y-129494032D01*
X369644147Y-60630321D02*
X369738317Y-60656455D01*
X106389945Y-85426285D02*
X106408038Y-85407491D01*
X334886246Y-81749002D02*
X334871050Y-81699140D01*
X171097625Y-129864039D02*
X171111645Y-129842240D01*
X261725928Y-128621506D02*
X261676661Y-128603064D01*
X334909886Y-82037720D02*
X334912064Y-82011284D01*
M02*
