M48
; DRILL file {KiCad (5.99.0-9176-ga1730d51ff)} date 03/09/21 20:14:43
; FORMAT={-:-/ absolute / inch / decimal}
; #@! TF.CreationDate,2021-03-09T20:14:43-06:00
; #@! TF.GenerationSoftware,Kicad,Pcbnew,(5.99.0-9176-ga1730d51ff)
; #@! TF.FileFunction,Plated,1,2,PTH
FMAT,2
INCH
T1C0.0120
T2C0.0236
%
G90
G05
T1
X6.2047Y-4.4803
X6.2047Y-4.6063
X6.3937Y-3.7165
X6.3937Y-3.8425
X7.2205Y-3.6929
X7.2205Y-3.8661
X7.2441Y-4.4882
X7.2441Y-4.5906
X7.2756Y-5.2441
X7.2756Y-5.3622
X8.0236Y-3.7244
X8.0236Y-3.8898
X8.0945Y-4.4882
X8.0945Y-4.6142
X8.315Y-5.2362
X8.315Y-5.378
X8.7795Y-3.7638
X8.7795Y-3.9134
X8.8583Y-4.5354
X8.8583Y-4.685
X9.5433Y-3.8898
X9.5433Y-4.0315
X9.5984Y-4.6693
X9.7717Y-5.5906
X9.8268Y-5.4409
X9.8661Y-4.937
X10.2835Y-4.0
X10.2835Y-4.1339
X10.3465Y-4.748
X10.3858Y-4.9134
X10.4636Y-4.0728
X10.6004Y-4.8445
X10.622Y-5.5354
X10.7559Y-5.7953
X11.0472Y-4.1398
X11.1467Y-3.8219
X11.1673Y-3.5787
X11.1946Y-3.5785
X11.2067Y-4.386
X11.2208Y-3.5778
X11.2327Y-4.3851
X11.247Y-3.5772
X11.2587Y-4.3835
X11.273Y-3.5759
X11.2846Y-4.3824
X11.2992Y-3.5752
X11.3106Y-4.3815
X11.3661Y-5.9469
X11.3701Y-4.7953
X11.373Y-4.7687
X11.4062Y-5.125
X11.4187Y-4.6879
X11.4193Y-4.5472
X11.4281Y-4.998
X11.4567Y-4.3898
X11.501Y-3.6211
X11.5561Y-4.2087
X11.5765Y-4.4118
X11.5765Y-4.7995
X11.5807Y-4.9141
X11.5886Y-3.5512
X11.5957Y-3.6646
X11.6145Y-4.4118
X11.627Y-3.572
X11.6407Y-4.7382
X11.6823Y-3.6646
X11.6978Y-4.4528
X11.6992Y-4.6
X11.7261Y-4.6
X11.7362Y-5.7059
X11.7513Y-4.6064
X11.753Y-4.5049
X11.7667Y-4.2087
X11.7904Y-3.5266
X11.8173Y-3.5265
X11.8406Y-5.7157
X11.8435Y-3.5276
X11.8516Y-6.2264
X11.8693Y-4.7323
X11.8695Y-3.5286
X11.8877Y-4.7507
X11.8955Y-3.5296
X11.9016Y-5.0108
X11.9075Y-4.7717
X11.9214Y-3.5305
X11.9284Y-4.7871
X11.9439Y-4.8809
X11.9688Y-5.0625
X12.0689Y-4.9833
X12.2943Y-3.7884
X12.3701Y-3.7854
X12.4803Y-5.5669
X12.4925Y-5.1803
X12.6535Y-4.2953
X12.6579Y-4.5079
X12.7795Y-5.7244
X13.1102Y-3.7008
X13.2104Y-5.0995
X13.3976Y-4.2146
X13.4Y-4.4114
X13.8524Y-3.5886
X13.8728Y-4.9126
X13.9843Y-5.3701
X14.126Y-5.5433
X14.1437Y-4.0945
X14.1441Y-4.3008
X14.5933Y-4.813
X14.5965Y-3.4646
X14.8858Y-4.0039
X14.8858Y-4.198
X15.4094Y-3.4902
X15.7008Y-4.0197
X15.7031Y-4.2161
X16.0079Y-5.4331
X16.1815Y-4.7752
X16.2047Y-5.2362
X16.7323Y-4.0217
X16.7343Y-4.1961
X16.9104Y-3.4341
X16.9449Y-5.4252
X17.0268Y-4.7791
X17.063Y-5.2441
X18.2776Y-5.3028
X18.6888Y-4.7172
X18.6972Y-4.7417
X18.8681Y-6.0091
T2
G00X11.4281Y-3.2499
M15
G01X11.4281Y-3.2735
M16
G05
G00X11.4281Y-3.4054
M15
G01X11.4281Y-3.4487
M16
G05
G00X11.7667Y-3.2499
M15
G01X11.7667Y-3.2735
M16
G05
G00X11.7667Y-3.4054
M15
G01X11.7667Y-3.4487
M16
G05
T0
M30
