%TF.GenerationSoftware,KiCad,Pcbnew,(5.99.0-9176-ga1730d51ff)*%
%TF.CreationDate,2021-03-09T20:14:39-06:00*%
%TF.ProjectId,Fur Elise,46757220-456c-4697-9365-2e6b69636164,rev?*%
%TF.SameCoordinates,Original*%
%TF.FileFunction,Soldermask,Bot*%
%TF.FilePolarity,Negative*%
%FSLAX46Y46*%
G04 Gerber Fmt 4.6, Leading zero omitted, Abs format (unit mm)*
G04 Created by KiCad (PCBNEW (5.99.0-9176-ga1730d51ff)) date 2021-03-09 20:14:39*
%MOMM*%
%LPD*%
G01*
G04 APERTURE LIST*
G04 Aperture macros list*
%AMRoundRect*
0 Rectangle with rounded corners*
0 $1 Rounding radius*
0 $2 $3 $4 $5 $6 $7 $8 $9 X,Y pos of 4 corners*
0 Add a 4 corners polygon primitive as box body*
4,1,4,$2,$3,$4,$5,$6,$7,$8,$9,$2,$3,0*
0 Add four circle primitives for the rounded corners*
1,1,$1+$1,$2,$3*
1,1,$1+$1,$4,$5*
1,1,$1+$1,$6,$7*
1,1,$1+$1,$8,$9*
0 Add four rect primitives between the rounded corners*
20,1,$1+$1,$2,$3,$4,$5,0*
20,1,$1+$1,$4,$5,$6,$7,0*
20,1,$1+$1,$6,$7,$8,$9,0*
20,1,$1+$1,$8,$9,$2,$3,0*%
G04 Aperture macros list end*
%ADD10C,4.089800*%
%ADD11C,1.803800*%
%ADD12C,3.102000*%
%ADD13RoundRect,0.051000X-1.436558X-1.060389X1.088625X-1.415281X1.436558X1.060389X-1.088625X1.415281X0*%
%ADD14RoundRect,0.051000X-1.088625X-1.415281X1.436558X-1.060389X1.088625X1.415281X-1.436558X1.060389X0*%
%ADD15RoundRect,0.051000X-1.275000X-1.250000X1.275000X-1.250000X1.275000X1.250000X-1.275000X1.250000X0*%
%ADD16RoundRect,0.275500X0.333503X-0.325078X0.410188X0.220559X-0.333503X0.325078X-0.410188X-0.220559X0*%
%ADD17RoundRect,0.275500X0.375500X-0.275500X0.375500X0.275500X-0.375500X0.275500X-0.375500X-0.275500X0*%
%ADD18RoundRect,0.272174X0.478826X-0.353826X0.478826X0.353826X-0.478826X0.353826X-0.478826X-0.353826X0*%
%ADD19RoundRect,0.275500X0.275500X0.375500X-0.275500X0.375500X-0.275500X-0.375500X0.275500X-0.375500X0*%
%ADD20RoundRect,0.275500X0.410188X-0.220559X0.333503X0.325078X-0.410188X0.220559X-0.333503X-0.325078X0*%
%ADD21RoundRect,0.272174X0.353826X0.478826X-0.353826X0.478826X-0.353826X-0.478826X0.353826X-0.478826X0*%
%ADD22RoundRect,0.267896X0.658104X-0.495604X0.658104X0.495604X-0.658104X0.495604X-0.658104X-0.495604X0*%
%ADD23C,0.752000*%
%ADD24RoundRect,0.175500X-0.175500X-0.600500X0.175500X-0.600500X0.175500X0.600500X-0.175500X0.600500X0*%
%ADD25RoundRect,0.100500X-0.100500X-0.675500X0.100500X-0.675500X0.100500X0.675500X-0.100500X0.675500X0*%
%ADD26O,1.402000X2.002000*%
%ADD27O,1.202000X2.302000*%
%ADD28RoundRect,0.051000X0.325000X-0.530000X0.325000X0.530000X-0.325000X0.530000X-0.325000X-0.530000X0*%
%ADD29RoundRect,0.173000X-0.198000X0.173000X-0.198000X-0.173000X0.198000X-0.173000X0.198000X0.173000X0*%
%ADD30RoundRect,0.173000X-0.173000X-0.198000X0.173000X-0.198000X0.173000X0.198000X-0.173000X0.198000X0*%
%ADD31RoundRect,0.051000X-0.150000X0.737500X-0.150000X-0.737500X0.150000X-0.737500X0.150000X0.737500X0*%
%ADD32RoundRect,0.201000X0.000000X0.587500X0.000000X-0.587500X0.000000X-0.587500X0.000000X0.587500X0*%
%ADD33RoundRect,0.201000X-0.587500X0.000000X-0.587500X0.000000X0.587500X0.000000X0.587500X0.000000X0*%
%ADD34RoundRect,0.275500X-0.375500X0.275500X-0.375500X-0.275500X0.375500X-0.275500X0.375500X0.275500X0*%
%ADD35RoundRect,0.272174X-0.353826X-0.478826X0.353826X-0.478826X0.353826X0.478826X-0.353826X0.478826X0*%
%ADD36RoundRect,0.173000X0.173000X0.198000X-0.173000X0.198000X-0.173000X-0.198000X0.173000X-0.198000X0*%
%ADD37RoundRect,0.267896X-0.495604X-0.658104X0.495604X-0.658104X0.495604X0.658104X-0.495604X0.658104X0*%
%ADD38RoundRect,0.051000X0.400000X-0.450000X0.400000X0.450000X-0.400000X0.450000X-0.400000X-0.450000X0*%
%ADD39RoundRect,0.272667X-1.478333X0.340833X-1.478333X-0.340833X1.478333X-0.340833X1.478333X0.340833X0*%
%ADD40RoundRect,0.051000X0.450000X0.400000X-0.450000X0.400000X-0.450000X-0.400000X0.450000X-0.400000X0*%
%ADD41RoundRect,0.051000X-0.775000X-0.650000X0.775000X-0.650000X0.775000X0.650000X-0.775000X0.650000X0*%
G04 APERTURE END LIST*
D10*
%TO.C,SW35*%
X280974800Y-138226800D03*
D11*
X286005362Y-138933799D03*
D12*
X277555378Y-135181270D03*
D11*
X275944238Y-137519801D03*
D12*
X284197080Y-133549738D03*
D13*
X287910586Y-134071637D03*
X273841873Y-134659370D03*
%TD*%
D10*
%TO.C,SW48*%
X323646800Y-155346400D03*
D12*
X319520379Y-153361369D03*
D11*
X328677362Y-154639401D03*
D12*
X325455082Y-149962339D03*
D11*
X318616238Y-156053399D03*
D14*
X329168587Y-149440439D03*
X315806874Y-153883268D03*
%TD*%
D11*
%TO.C,SW43*%
X464820000Y-128587500D03*
D12*
X466090000Y-126047500D03*
D11*
X474980000Y-128587500D03*
D12*
X472440000Y-123507500D03*
D10*
X469900000Y-128587500D03*
D15*
X476190000Y-123507500D03*
X462340000Y-126047500D03*
%TD*%
D10*
%TO.C,SW38*%
X346913200Y-132791200D03*
D12*
X342786779Y-130806169D03*
D11*
X351943762Y-132084201D03*
D12*
X348721482Y-127407139D03*
D11*
X341882638Y-133498199D03*
D14*
X352434987Y-126885239D03*
X339073274Y-131328068D03*
%TD*%
D10*
%TO.C,SW36*%
X309186362Y-138074400D03*
D11*
X304155800Y-138781399D03*
X314216924Y-137367401D03*
D12*
X310994644Y-132690339D03*
X305059941Y-136089369D03*
D14*
X314708149Y-132168439D03*
X301346436Y-136611268D03*
%TD*%
D11*
%TO.C,SW19*%
X222606962Y-110790599D03*
X212545838Y-109376601D03*
D10*
X217576400Y-110083600D03*
D12*
X214156978Y-107038070D03*
X220798680Y-105406538D03*
D13*
X224512186Y-105928437D03*
X210443473Y-106516170D03*
%TD*%
D12*
%TO.C,SW49*%
X358475082Y-145288739D03*
X352540379Y-148687769D03*
D11*
X351636238Y-151379799D03*
D10*
X356666800Y-150672800D03*
D11*
X361697362Y-149965801D03*
D14*
X362188587Y-144766839D03*
X348826874Y-149209668D03*
%TD*%
D10*
%TO.C,SW34*%
X262077200Y-135585200D03*
D11*
X257046638Y-134878201D03*
D12*
X258657778Y-132539670D03*
D11*
X267107762Y-136292199D03*
D12*
X265299480Y-130908138D03*
D13*
X269012986Y-131430037D03*
X254944273Y-132017770D03*
%TD*%
D12*
%TO.C,SW20*%
X233003778Y-109679670D03*
D11*
X241453762Y-113432199D03*
D12*
X239645480Y-108048138D03*
D10*
X236423200Y-112725200D03*
D11*
X231392638Y-112018201D03*
D13*
X243358986Y-108570037D03*
X229290273Y-109157770D03*
%TD*%
D11*
%TO.C,SW25*%
X358749312Y-111905501D03*
X348688188Y-113319499D03*
D12*
X355527032Y-107228439D03*
D10*
X353718750Y-112612500D03*
D12*
X349592329Y-110627469D03*
D14*
X359240537Y-106706539D03*
X345878824Y-111149368D03*
%TD*%
D11*
%TO.C,SW2*%
X171450000Y-90170000D03*
D10*
X176530000Y-90170000D03*
D12*
X172720000Y-87630000D03*
X179070000Y-85090000D03*
D11*
X181610000Y-90170000D03*
D15*
X182820000Y-85090000D03*
X168970000Y-87630000D03*
%TD*%
D11*
%TO.C,SW24*%
X329794438Y-115975749D03*
X339855562Y-114561751D03*
D10*
X334825000Y-115268750D03*
D12*
X336633282Y-109884689D03*
X330698579Y-113283719D03*
D14*
X340346787Y-109362789D03*
X326985074Y-113805618D03*
%TD*%
D10*
%TO.C,SW39*%
X365810800Y-130175000D03*
D11*
X370841362Y-129468001D03*
D12*
X367619082Y-124790939D03*
X361684379Y-128189969D03*
D11*
X360780238Y-130881999D03*
D14*
X371332587Y-124269039D03*
X357970874Y-128711868D03*
%TD*%
D10*
%TO.C,SW28*%
X418744400Y-109423200D03*
D12*
X421284400Y-104343200D03*
D11*
X413664400Y-109423200D03*
D12*
X414934400Y-106883200D03*
D11*
X423824400Y-109423200D03*
D15*
X425034400Y-104343200D03*
X411184400Y-106883200D03*
%TD*%
D11*
%TO.C,SW42*%
X421106600Y-128625600D03*
D12*
X422376600Y-126085600D03*
D11*
X431266600Y-128625600D03*
D12*
X428726600Y-123545600D03*
D10*
X426186600Y-128625600D03*
D15*
X432476600Y-123545600D03*
X418626600Y-126085600D03*
%TD*%
D11*
%TO.C,SW27*%
X387482500Y-109387500D03*
D10*
X392562500Y-109387500D03*
D11*
X397642500Y-109387500D03*
D12*
X388752500Y-106847500D03*
X395102500Y-104307500D03*
D15*
X398852500Y-104307500D03*
X385002500Y-106847500D03*
%TD*%
D12*
%TO.C,SW54*%
X491464600Y-142798800D03*
D11*
X483844600Y-147878800D03*
X494004600Y-147878800D03*
D10*
X488924600Y-147878800D03*
D12*
X485114600Y-145338800D03*
D15*
X495214600Y-142798800D03*
X481364600Y-145338800D03*
%TD*%
D11*
%TO.C,SW29*%
X140970000Y-128625600D03*
D10*
X146050000Y-128625600D03*
D11*
X151130000Y-128625600D03*
D12*
X148590000Y-123545600D03*
X142240000Y-126085600D03*
D15*
X152340000Y-123545600D03*
X138490000Y-126085600D03*
%TD*%
D12*
%TO.C,SW10*%
X348129444Y-89002339D03*
D11*
X341290600Y-95093399D03*
D12*
X342194741Y-92401369D03*
D11*
X351351724Y-93679401D03*
D10*
X346321162Y-94386400D03*
D14*
X351842949Y-88480439D03*
X338481236Y-92923268D03*
%TD*%
D12*
%TO.C,SW30*%
X174345600Y-126085600D03*
D11*
X173075600Y-128625600D03*
X183235600Y-128625600D03*
D12*
X180695600Y-123545600D03*
D10*
X178155600Y-128625600D03*
D15*
X184445600Y-123545600D03*
X170595600Y-126085600D03*
%TD*%
D12*
%TO.C,SW17*%
X172516800Y-106883200D03*
D10*
X176326800Y-109423200D03*
D12*
X178866800Y-104343200D03*
D11*
X171246800Y-109423200D03*
X181406800Y-109423200D03*
D15*
X182616800Y-104343200D03*
X168766800Y-106883200D03*
%TD*%
D11*
%TO.C,SW40*%
X380593600Y-128625600D03*
D10*
X385673600Y-128625600D03*
D11*
X390753600Y-128625600D03*
D12*
X381863600Y-126085600D03*
X388213600Y-123545600D03*
D15*
X391963600Y-123545600D03*
X378113600Y-126085600D03*
%TD*%
D10*
%TO.C,SW26*%
X372575000Y-109968750D03*
D11*
X377605562Y-109261751D03*
X367544438Y-110675749D03*
D12*
X374383282Y-104584689D03*
X368448579Y-107983719D03*
D14*
X378096787Y-104062789D03*
X364735074Y-108505618D03*
%TD*%
D10*
%TO.C,SW7*%
X272136962Y-98552000D03*
D11*
X267106400Y-97845001D03*
X277167524Y-99258999D03*
D12*
X268717540Y-95506470D03*
X275359242Y-93874938D03*
D13*
X279072748Y-94396837D03*
X265004035Y-94984570D03*
%TD*%
D11*
%TO.C,SW15*%
X474980000Y-99771200D03*
D12*
X472440000Y-94691200D03*
D10*
X469900000Y-99771200D03*
D12*
X466090000Y-97231200D03*
D11*
X464820000Y-99771200D03*
D15*
X476190000Y-94691200D03*
X462340000Y-97231200D03*
%TD*%
D12*
%TO.C,SW50*%
X396443200Y-145338800D03*
X402793200Y-142798800D03*
D11*
X395173200Y-147878800D03*
D10*
X400253200Y-147878800D03*
D11*
X405333200Y-147878800D03*
D15*
X406543200Y-142798800D03*
X392693200Y-145338800D03*
%TD*%
D11*
%TO.C,SW45*%
X204311250Y-147637500D03*
D12*
X195421250Y-145097500D03*
X201771250Y-142557500D03*
D11*
X194151250Y-147637500D03*
D10*
X199231250Y-147637500D03*
D15*
X205521250Y-142557500D03*
X191671250Y-145097500D03*
%TD*%
D12*
%TO.C,SW13*%
X400354800Y-87630000D03*
D11*
X409244800Y-90170000D03*
X399084800Y-90170000D03*
D12*
X406704800Y-85090000D03*
D10*
X404164800Y-90170000D03*
D15*
X410454800Y-85090000D03*
X396604800Y-87630000D03*
%TD*%
D12*
%TO.C,SW5*%
X230981250Y-90172470D03*
D11*
X239431234Y-93924999D03*
D10*
X234400672Y-93218000D03*
D11*
X229370110Y-92511001D03*
D12*
X237622952Y-88540938D03*
D13*
X241336458Y-89062837D03*
X227267745Y-89650570D03*
%TD*%
D12*
%TO.C,SW14*%
X425754800Y-85090000D03*
D11*
X428294800Y-90170000D03*
X418134800Y-90170000D03*
D10*
X423214800Y-90170000D03*
D12*
X419404800Y-87630000D03*
D15*
X429504800Y-85090000D03*
X415654800Y-87630000D03*
%TD*%
D11*
%TO.C,SW8*%
X303622400Y-100401999D03*
D10*
X308652962Y-99695000D03*
D11*
X313683524Y-98988001D03*
D12*
X304526541Y-97709969D03*
X310461244Y-94310939D03*
D14*
X314174749Y-93789039D03*
X300813036Y-98231868D03*
%TD*%
D11*
%TO.C,SW44*%
X180498750Y-147637500D03*
X170338750Y-147637500D03*
D10*
X175418750Y-147637500D03*
D12*
X177958750Y-142557500D03*
X171608750Y-145097500D03*
D15*
X181708750Y-142557500D03*
X167858750Y-145097500D03*
%TD*%
D10*
%TO.C,SW31*%
X204368400Y-128625600D03*
D11*
X199288400Y-128625600D03*
D12*
X200558400Y-126085600D03*
X206908400Y-123545600D03*
D11*
X209448400Y-128625600D03*
D15*
X210658400Y-123545600D03*
X196808400Y-126085600D03*
%TD*%
D12*
%TO.C,SW9*%
X323322541Y-95042969D03*
D10*
X327448962Y-97028000D03*
D12*
X329257244Y-91643939D03*
D11*
X322418400Y-97734999D03*
X332479524Y-96321001D03*
D14*
X332970749Y-91122039D03*
X319609036Y-95564868D03*
%TD*%
D10*
%TO.C,SW11*%
X365218762Y-91744800D03*
D11*
X360188200Y-92451799D03*
D12*
X367027044Y-86360739D03*
D11*
X370249324Y-91037801D03*
D12*
X361092341Y-89759769D03*
D14*
X370740549Y-85838839D03*
X357378836Y-90281668D03*
%TD*%
D12*
%TO.C,SW12*%
X381304800Y-87630000D03*
D11*
X390194800Y-90170000D03*
D12*
X387654800Y-85090000D03*
D10*
X385114800Y-90170000D03*
D11*
X380034800Y-90170000D03*
D15*
X391404800Y-85090000D03*
X377554800Y-87630000D03*
%TD*%
D11*
%TO.C,SW21*%
X250288876Y-114714802D03*
D12*
X258541718Y-110744739D03*
D10*
X255319438Y-115421801D03*
D11*
X260350000Y-116128800D03*
D12*
X251900016Y-112376271D03*
D13*
X262255224Y-111266638D03*
X248186511Y-111854371D03*
%TD*%
D12*
%TO.C,SW46*%
X234781778Y-148440070D03*
X241423480Y-146808538D03*
D10*
X238201200Y-151485600D03*
D11*
X243231762Y-152192599D03*
X233170638Y-150778601D03*
D13*
X245136986Y-147330437D03*
X231068273Y-147918170D03*
%TD*%
D11*
%TO.C,SW32*%
X229363362Y-131008999D03*
D12*
X220913378Y-127256470D03*
D11*
X219302238Y-129595001D03*
D10*
X224332800Y-130302000D03*
D12*
X227555080Y-125624938D03*
D13*
X231268586Y-126146837D03*
X217199873Y-126734570D03*
%TD*%
D12*
%TO.C,SW18*%
X200183750Y-104343200D03*
D10*
X197643750Y-109423200D03*
D12*
X193833750Y-106883200D03*
D11*
X202723750Y-109423200D03*
X192563750Y-109423200D03*
D15*
X203933750Y-104343200D03*
X190083750Y-106883200D03*
%TD*%
D11*
%TO.C,SW47*%
X273914962Y-156510599D03*
X263853838Y-155096601D03*
D12*
X272106680Y-151126538D03*
X265464978Y-152758070D03*
D10*
X268884400Y-155803600D03*
D13*
X275820186Y-151648437D03*
X261751473Y-152236170D03*
%TD*%
D11*
%TO.C,SW6*%
X258284384Y-96614929D03*
D10*
X253253822Y-95907930D03*
D11*
X248223260Y-95200931D03*
D12*
X249834400Y-92862400D03*
X256476102Y-91230868D03*
D13*
X260189608Y-91752767D03*
X246120895Y-92340500D03*
%TD*%
D12*
%TO.C,SW1*%
X151765000Y-87630000D03*
D11*
X150495000Y-90170000D03*
D10*
X155575000Y-90170000D03*
D11*
X160655000Y-90170000D03*
D12*
X158115000Y-85090000D03*
D15*
X161865000Y-85090000D03*
X148015000Y-87630000D03*
%TD*%
D12*
%TO.C,SW22*%
X270748178Y-115013670D03*
X277389880Y-113382138D03*
D10*
X274167600Y-118059200D03*
D11*
X269137038Y-117352201D03*
X279198162Y-118766199D03*
D13*
X281103386Y-113904037D03*
X267034673Y-114491770D03*
%TD*%
D12*
%TO.C,SW16*%
X147002500Y-106832400D03*
X153352500Y-104292400D03*
D11*
X145732500Y-109372400D03*
D10*
X150812500Y-109372400D03*
D11*
X155892500Y-109372400D03*
D15*
X157102500Y-104292400D03*
X143252500Y-106832400D03*
%TD*%
D11*
%TO.C,SW3*%
X200660000Y-90170000D03*
D10*
X195580000Y-90170000D03*
D12*
X198120000Y-85090000D03*
X191770000Y-87630000D03*
D11*
X190500000Y-90170000D03*
D15*
X201870000Y-85090000D03*
X188020000Y-87630000D03*
%TD*%
D12*
%TO.C,SW33*%
X239810978Y-129898070D03*
D11*
X238199838Y-132236601D03*
X248260962Y-133650599D03*
D12*
X246452680Y-128266538D03*
D10*
X243230400Y-132943600D03*
D13*
X250166186Y-128788437D03*
X236097473Y-129376170D03*
%TD*%
D11*
%TO.C,SW37*%
X323002600Y-136139799D03*
X333063724Y-134725801D03*
D12*
X323906741Y-133447769D03*
D10*
X328033162Y-135432800D03*
D12*
X329841444Y-130048739D03*
D14*
X333554949Y-129526839D03*
X320193236Y-133969668D03*
%TD*%
D12*
%TO.C,SW23*%
X317784703Y-112500970D03*
D10*
X315976421Y-117885031D03*
D12*
X311850000Y-115900000D03*
D11*
X310945859Y-118592030D03*
X321006983Y-117178032D03*
D14*
X321498208Y-111979070D03*
X308136495Y-116421899D03*
%TD*%
D12*
%TO.C,SW4*%
X212099578Y-87505470D03*
D11*
X220549562Y-91257999D03*
D10*
X215519000Y-90551000D03*
D11*
X210488438Y-89844001D03*
D12*
X218741280Y-85873938D03*
D13*
X222454786Y-86395837D03*
X208386073Y-86983570D03*
%TD*%
D12*
%TO.C,SW53*%
X472440000Y-142798800D03*
D11*
X464820000Y-147878800D03*
X474980000Y-147878800D03*
D10*
X469900000Y-147878800D03*
D12*
X466090000Y-145338800D03*
D15*
X476190000Y-142798800D03*
X462340000Y-145338800D03*
%TD*%
D12*
%TO.C,SW41*%
X400939000Y-126085600D03*
D11*
X409829000Y-128625600D03*
D10*
X404749000Y-128625600D03*
D11*
X399669000Y-128625600D03*
D12*
X407289000Y-123545600D03*
D15*
X411039000Y-123545600D03*
X397189000Y-126085600D03*
%TD*%
D10*
%TO.C,SW52*%
X450850000Y-147878800D03*
D12*
X447040000Y-145338800D03*
D11*
X455930000Y-147878800D03*
D12*
X453390000Y-142798800D03*
D11*
X445770000Y-147878800D03*
D15*
X457140000Y-142798800D03*
X443290000Y-145338800D03*
%TD*%
D11*
%TO.C,SW51*%
X429158400Y-147878800D03*
D12*
X426618400Y-142798800D03*
D10*
X424078400Y-147878800D03*
D12*
X420268400Y-145338800D03*
D11*
X418998400Y-147878800D03*
D15*
X430368400Y-142798800D03*
X416518400Y-145338800D03*
%TD*%
D16*
%TO.C,D35*%
X272770364Y-143233942D03*
X273229636Y-139966058D03*
%TD*%
%TO.C,D5*%
X226020364Y-98133942D03*
X226479636Y-94866058D03*
%TD*%
D17*
%TO.C,D14*%
X415800000Y-96250000D03*
X415800000Y-92950000D03*
%TD*%
D16*
%TO.C,D32*%
X215970364Y-135233942D03*
X216429636Y-131966058D03*
%TD*%
D17*
%TO.C,D1*%
X148000000Y-96106250D03*
X148000000Y-92806250D03*
%TD*%
D16*
%TO.C,D47*%
X260570364Y-160833942D03*
X261029636Y-157566058D03*
%TD*%
D17*
%TO.C,D44*%
X167800000Y-153850000D03*
X167800000Y-150550000D03*
%TD*%
D18*
%TO.C,CSI1*%
X291872750Y-103637500D03*
X291872750Y-101587500D03*
%TD*%
D19*
%TO.C,DRST1*%
X296325000Y-153250000D03*
X293025000Y-153250000D03*
%TD*%
D16*
%TO.C,D20*%
X228170364Y-117633942D03*
X228629636Y-114366058D03*
%TD*%
D17*
%TO.C,D53*%
X462400000Y-153850000D03*
X462400000Y-150550000D03*
%TD*%
D20*
%TO.C,D9*%
X320829636Y-104233942D03*
X320370364Y-100966058D03*
%TD*%
D17*
%TO.C,D27*%
X385050000Y-115500000D03*
X385050000Y-112200000D03*
%TD*%
%TO.C,D42*%
X418600000Y-134650000D03*
X418600000Y-131350000D03*
%TD*%
%TO.C,D31*%
X196800000Y-134650000D03*
X196800000Y-131350000D03*
%TD*%
D20*
%TO.C,D36*%
X302629636Y-145233942D03*
X302170364Y-141966058D03*
%TD*%
%TO.C,D37*%
X321429636Y-142633942D03*
X320970364Y-139366058D03*
%TD*%
D16*
%TO.C,D34*%
X253770364Y-140433942D03*
X254229636Y-137166058D03*
%TD*%
%TO.C,D6*%
X244970364Y-100758942D03*
X245429636Y-97491058D03*
%TD*%
D17*
%TO.C,D28*%
X411200000Y-115450000D03*
X411200000Y-112150000D03*
%TD*%
%TO.C,D13*%
X396600000Y-96250000D03*
X396600000Y-92950000D03*
%TD*%
%TO.C,D15*%
X462400000Y-105850000D03*
X462400000Y-102550000D03*
%TD*%
%TO.C,D40*%
X378200000Y-134650000D03*
X378200000Y-131350000D03*
%TD*%
D21*
%TO.C,CRST1*%
X290750000Y-153450000D03*
X288700000Y-153450000D03*
%TD*%
D17*
%TO.C,D16*%
X143250000Y-115400000D03*
X143250000Y-112100000D03*
%TD*%
D22*
%TO.C,RF1*%
X289586750Y-104100000D03*
X289586750Y-101125000D03*
%TD*%
D23*
%TO.C,J1*%
X291685000Y-86496500D03*
X297465000Y-86496500D03*
D24*
X291325000Y-87822500D03*
X292125000Y-87822500D03*
D25*
X293325000Y-87822500D03*
X294321000Y-87822500D03*
X294825000Y-87822500D03*
X295825000Y-87822500D03*
D24*
X297825000Y-87822500D03*
X297025000Y-87822500D03*
D25*
X296325000Y-87822500D03*
X295325000Y-87822500D03*
X293825000Y-87822500D03*
X292825000Y-87822500D03*
D26*
X298875000Y-82847500D03*
D27*
X290275000Y-87047500D03*
X298875000Y-87047500D03*
D26*
X290275000Y-82847500D03*
%TD*%
D20*
%TO.C,D10*%
X339829636Y-101633942D03*
X339370364Y-98366058D03*
%TD*%
D17*
%TO.C,D2*%
X169000000Y-96150000D03*
X169000000Y-92850000D03*
%TD*%
D28*
%TO.C,U2*%
X295475000Y-94275000D03*
X294525000Y-94275000D03*
X293575000Y-94275000D03*
X293575000Y-92075000D03*
X294525000Y-92075000D03*
X295475000Y-92075000D03*
%TD*%
D29*
%TO.C,C3*%
X290275000Y-128140000D03*
X290275000Y-129110000D03*
%TD*%
D30*
%TO.C,C6*%
X296150000Y-115828500D03*
X297120000Y-115828500D03*
%TD*%
D31*
%TO.C,U3*%
X292675000Y-118887500D03*
D32*
X293175000Y-118887500D03*
X293675000Y-118887500D03*
X294175000Y-118887500D03*
X294675000Y-118887500D03*
X295175000Y-118887500D03*
X295675000Y-118887500D03*
X296175000Y-118887500D03*
X296675000Y-118887500D03*
X297175000Y-118887500D03*
X297675000Y-118887500D03*
X298175000Y-118887500D03*
D33*
X299587500Y-120300000D03*
X299587500Y-120800000D03*
X299587500Y-121300000D03*
X299587500Y-121800000D03*
X299587500Y-122300000D03*
X299587500Y-122800000D03*
X299587500Y-123300000D03*
X299587500Y-123800000D03*
X299587500Y-124300000D03*
X299587500Y-124800000D03*
X299587500Y-125300000D03*
X299587500Y-125800000D03*
D32*
X298175000Y-127212500D03*
X297675000Y-127212500D03*
X297175000Y-127212500D03*
X296675000Y-127212500D03*
X296175000Y-127212500D03*
X295675000Y-127212500D03*
X295175000Y-127212500D03*
X294675000Y-127212500D03*
X294175000Y-127212500D03*
X293675000Y-127212500D03*
X293175000Y-127212500D03*
X292675000Y-127212500D03*
D33*
X291262500Y-125800000D03*
X291262500Y-125300000D03*
X291262500Y-124800000D03*
X291262500Y-124300000D03*
X291262500Y-123800000D03*
X291262500Y-123300000D03*
X291262500Y-122800000D03*
X291262500Y-122300000D03*
X291262500Y-121800000D03*
X291262500Y-121300000D03*
X291262500Y-120800000D03*
X291262500Y-120300000D03*
%TD*%
D20*
%TO.C,D25*%
X347129636Y-119933942D03*
X346670364Y-116666058D03*
%TD*%
%TO.C,D26*%
X365929636Y-117158942D03*
X365470364Y-113891058D03*
%TD*%
D17*
%TO.C,D12*%
X377600000Y-96250000D03*
X377600000Y-92950000D03*
%TD*%
D34*
%TO.C,DLD1*%
X288967750Y-106204500D03*
X288967750Y-109504500D03*
%TD*%
D16*
%TO.C,D22*%
X265770364Y-123033942D03*
X266229636Y-119766058D03*
%TD*%
D29*
%TO.C,C4*%
X291450000Y-128140000D03*
X291450000Y-129110000D03*
%TD*%
D17*
%TO.C,D30*%
X170600000Y-134650000D03*
X170600000Y-131350000D03*
%TD*%
D16*
%TO.C,D33*%
X234970364Y-137833942D03*
X235429636Y-134566058D03*
%TD*%
%TO.C,D19*%
X209370364Y-115033942D03*
X209829636Y-111766058D03*
%TD*%
D35*
%TO.C,CRST2*%
X298925000Y-150825000D03*
X300975000Y-150825000D03*
%TD*%
D16*
%TO.C,D21*%
X246970364Y-120433942D03*
X247429636Y-117166058D03*
%TD*%
D36*
%TO.C,C1*%
X290035000Y-118275000D03*
X289065000Y-118275000D03*
%TD*%
D16*
%TO.C,D7*%
X263870364Y-103433942D03*
X264329636Y-100166058D03*
%TD*%
%TO.C,D4*%
X207270364Y-95383942D03*
X207729636Y-92116058D03*
%TD*%
D30*
%TO.C,C5*%
X296150000Y-114685500D03*
X297120000Y-114685500D03*
%TD*%
D20*
%TO.C,D24*%
X328279636Y-122458942D03*
X327820364Y-119191058D03*
%TD*%
D37*
%TO.C,RRST1*%
X298912500Y-153250000D03*
X301887500Y-153250000D03*
%TD*%
D35*
%TO.C,CS1*%
X291117750Y-110140500D03*
X293167750Y-110140500D03*
%TD*%
D30*
%TO.C,C7*%
X300340000Y-127322000D03*
X301310000Y-127322000D03*
%TD*%
D20*
%TO.C,D39*%
X359229636Y-137365192D03*
X358770364Y-134097308D03*
%TD*%
D38*
%TO.C,U1*%
X293031750Y-108219500D03*
X291131750Y-108219500D03*
X292081750Y-106219500D03*
%TD*%
D17*
%TO.C,D54*%
X481400000Y-153850000D03*
X481400000Y-150550000D03*
%TD*%
%TO.C,D17*%
X168750000Y-115400000D03*
X168750000Y-112100000D03*
%TD*%
D29*
%TO.C,R1*%
X293116000Y-89304000D03*
X293116000Y-90274000D03*
%TD*%
D17*
%TO.C,DF1*%
X287046750Y-104239100D03*
X287046750Y-100939100D03*
%TD*%
D20*
%TO.C,D48*%
X317029636Y-162433942D03*
X316570364Y-159166058D03*
%TD*%
D16*
%TO.C,D46*%
X229970364Y-156433942D03*
X230429636Y-153166058D03*
%TD*%
D39*
%TO.C,F1*%
X283617750Y-99967000D03*
X283617750Y-104242000D03*
%TD*%
D20*
%TO.C,D49*%
X350029636Y-157833942D03*
X349570364Y-154566058D03*
%TD*%
D40*
%TO.C,QRST1*%
X290725000Y-155825000D03*
X290725000Y-157725000D03*
X288725000Y-156775000D03*
%TD*%
D17*
%TO.C,D18*%
X190000000Y-115400000D03*
X190000000Y-112100000D03*
%TD*%
%TO.C,D52*%
X443400000Y-153850000D03*
X443400000Y-150550000D03*
%TD*%
D41*
%TO.C,SWRST1*%
X301000000Y-160325000D03*
X293050000Y-160325000D03*
X301000000Y-155825000D03*
X293050000Y-155825000D03*
%TD*%
D17*
%TO.C,D45*%
X191800000Y-153650000D03*
X191800000Y-150350000D03*
%TD*%
D20*
%TO.C,D38*%
X340429636Y-140033942D03*
X339970364Y-136766058D03*
%TD*%
D17*
%TO.C,D43*%
X462400000Y-134650000D03*
X462400000Y-131350000D03*
%TD*%
D20*
%TO.C,D23*%
X309487307Y-125056473D03*
X309028035Y-121788589D03*
%TD*%
D17*
%TO.C,D51*%
X416600000Y-153850000D03*
X416600000Y-150550000D03*
%TD*%
D20*
%TO.C,D8*%
X302029636Y-106833942D03*
X301570364Y-103566058D03*
%TD*%
D17*
%TO.C,D29*%
X138500000Y-134650000D03*
X138500000Y-131350000D03*
%TD*%
D30*
%TO.C,C8*%
X300340000Y-128472000D03*
X301310000Y-128472000D03*
%TD*%
D29*
%TO.C,R2*%
X296164000Y-89304000D03*
X296164000Y-90274000D03*
%TD*%
D36*
%TO.C,C2*%
X290035000Y-117100000D03*
X289065000Y-117100000D03*
%TD*%
D17*
%TO.C,D41*%
X397200000Y-134650000D03*
X397200000Y-131350000D03*
%TD*%
%TO.C,D3*%
X188000000Y-96150000D03*
X188000000Y-92850000D03*
%TD*%
%TO.C,D50*%
X392800000Y-153850000D03*
X392800000Y-150550000D03*
%TD*%
D20*
%TO.C,D11*%
X358629636Y-99033942D03*
X358170364Y-95766058D03*
%TD*%
G36*
X297326728Y-126493781D02*
G01*
X297344138Y-126508389D01*
X297344915Y-126507463D01*
X297346794Y-126506778D01*
X297347827Y-126507300D01*
X297371273Y-126529652D01*
X297439281Y-126542753D01*
X297503755Y-126516934D01*
X297515109Y-126505934D01*
X297517049Y-126505447D01*
X297518441Y-126506883D01*
X297518164Y-126508481D01*
X297491184Y-126548860D01*
X297476000Y-126625194D01*
X297476000Y-127799806D01*
X297491184Y-127876140D01*
X297526221Y-127928576D01*
X297526352Y-127930572D01*
X297524689Y-127931683D01*
X297523272Y-127931219D01*
X297505862Y-127916611D01*
X297505085Y-127917537D01*
X297503206Y-127918222D01*
X297502173Y-127917700D01*
X297478727Y-127895348D01*
X297410719Y-127882247D01*
X297346245Y-127908066D01*
X297334891Y-127919066D01*
X297332951Y-127919553D01*
X297331559Y-127918117D01*
X297331836Y-127916519D01*
X297358816Y-127876140D01*
X297374000Y-127799806D01*
X297374000Y-126625194D01*
X297358816Y-126548860D01*
X297323779Y-126496424D01*
X297323648Y-126494428D01*
X297325311Y-126493317D01*
X297326728Y-126493781D01*
G37*
G36*
X296826728Y-126493781D02*
G01*
X296844138Y-126508389D01*
X296844915Y-126507463D01*
X296846794Y-126506778D01*
X296847827Y-126507300D01*
X296871273Y-126529652D01*
X296939281Y-126542753D01*
X297003755Y-126516934D01*
X297015109Y-126505934D01*
X297017049Y-126505447D01*
X297018441Y-126506883D01*
X297018164Y-126508481D01*
X296991184Y-126548860D01*
X296976000Y-126625194D01*
X296976000Y-127799806D01*
X296991184Y-127876140D01*
X297026221Y-127928576D01*
X297026352Y-127930572D01*
X297024689Y-127931683D01*
X297023272Y-127931219D01*
X297005862Y-127916611D01*
X297005085Y-127917537D01*
X297003206Y-127918222D01*
X297002173Y-127917700D01*
X296978727Y-127895348D01*
X296910719Y-127882247D01*
X296846245Y-127908066D01*
X296834891Y-127919066D01*
X296832951Y-127919553D01*
X296831559Y-127918117D01*
X296831836Y-127916519D01*
X296858816Y-127876140D01*
X296874000Y-127799806D01*
X296874000Y-126625194D01*
X296858816Y-126548860D01*
X296823779Y-126496424D01*
X296823648Y-126494428D01*
X296825311Y-126493317D01*
X296826728Y-126493781D01*
G37*
G36*
X294826728Y-126493781D02*
G01*
X294844138Y-126508389D01*
X294844915Y-126507463D01*
X294846794Y-126506778D01*
X294847827Y-126507300D01*
X294871273Y-126529652D01*
X294939281Y-126542753D01*
X295003755Y-126516934D01*
X295015109Y-126505934D01*
X295017049Y-126505447D01*
X295018441Y-126506883D01*
X295018164Y-126508481D01*
X294991184Y-126548860D01*
X294976000Y-126625194D01*
X294976000Y-127799806D01*
X294991184Y-127876140D01*
X295026221Y-127928576D01*
X295026352Y-127930572D01*
X295024689Y-127931683D01*
X295023272Y-127931219D01*
X295005862Y-127916611D01*
X295005085Y-127917537D01*
X295003206Y-127918222D01*
X295002173Y-127917700D01*
X294978727Y-127895348D01*
X294910719Y-127882247D01*
X294846245Y-127908066D01*
X294834891Y-127919066D01*
X294832951Y-127919553D01*
X294831559Y-127918117D01*
X294831836Y-127916519D01*
X294858816Y-127876140D01*
X294874000Y-127799806D01*
X294874000Y-126625194D01*
X294858816Y-126548860D01*
X294823779Y-126496424D01*
X294823648Y-126494428D01*
X294825311Y-126493317D01*
X294826728Y-126493781D01*
G37*
G36*
X296326728Y-126493781D02*
G01*
X296344138Y-126508389D01*
X296344915Y-126507463D01*
X296346794Y-126506778D01*
X296347827Y-126507300D01*
X296371273Y-126529652D01*
X296439281Y-126542753D01*
X296503755Y-126516934D01*
X296515109Y-126505934D01*
X296517049Y-126505447D01*
X296518441Y-126506883D01*
X296518164Y-126508481D01*
X296491184Y-126548860D01*
X296476000Y-126625194D01*
X296476000Y-127799806D01*
X296491184Y-127876140D01*
X296526221Y-127928576D01*
X296526352Y-127930572D01*
X296524689Y-127931683D01*
X296523272Y-127931219D01*
X296505862Y-127916611D01*
X296505085Y-127917537D01*
X296503206Y-127918222D01*
X296502173Y-127917700D01*
X296478727Y-127895348D01*
X296410719Y-127882247D01*
X296346245Y-127908066D01*
X296334891Y-127919066D01*
X296332951Y-127919553D01*
X296331559Y-127918117D01*
X296331836Y-127916519D01*
X296358816Y-127876140D01*
X296374000Y-127799806D01*
X296374000Y-126625194D01*
X296358816Y-126548860D01*
X296323779Y-126496424D01*
X296323648Y-126494428D01*
X296325311Y-126493317D01*
X296326728Y-126493781D01*
G37*
G36*
X293826728Y-126493781D02*
G01*
X293844138Y-126508389D01*
X293844915Y-126507463D01*
X293846794Y-126506778D01*
X293847827Y-126507300D01*
X293871273Y-126529652D01*
X293939281Y-126542753D01*
X294003755Y-126516934D01*
X294015109Y-126505934D01*
X294017049Y-126505447D01*
X294018441Y-126506883D01*
X294018164Y-126508481D01*
X293991184Y-126548860D01*
X293976000Y-126625194D01*
X293976000Y-127799806D01*
X293991184Y-127876140D01*
X294026221Y-127928576D01*
X294026352Y-127930572D01*
X294024689Y-127931683D01*
X294023272Y-127931219D01*
X294005862Y-127916611D01*
X294005085Y-127917537D01*
X294003206Y-127918222D01*
X294002173Y-127917700D01*
X293978727Y-127895348D01*
X293910719Y-127882247D01*
X293846245Y-127908066D01*
X293834891Y-127919066D01*
X293832951Y-127919553D01*
X293831559Y-127918117D01*
X293831836Y-127916519D01*
X293858816Y-127876140D01*
X293874000Y-127799806D01*
X293874000Y-126625194D01*
X293858816Y-126548860D01*
X293823779Y-126496424D01*
X293823648Y-126494428D01*
X293825311Y-126493317D01*
X293826728Y-126493781D01*
G37*
G36*
X297826728Y-126493781D02*
G01*
X297844138Y-126508389D01*
X297844915Y-126507463D01*
X297846794Y-126506778D01*
X297847827Y-126507300D01*
X297871273Y-126529652D01*
X297939281Y-126542753D01*
X298003755Y-126516934D01*
X298015109Y-126505934D01*
X298017049Y-126505447D01*
X298018441Y-126506883D01*
X298018164Y-126508481D01*
X297991184Y-126548860D01*
X297976000Y-126625194D01*
X297976000Y-127799806D01*
X297991184Y-127876140D01*
X298026221Y-127928576D01*
X298026352Y-127930572D01*
X298024689Y-127931683D01*
X298023272Y-127931219D01*
X298005862Y-127916611D01*
X298005085Y-127917537D01*
X298003206Y-127918222D01*
X298002173Y-127917700D01*
X297978727Y-127895348D01*
X297910719Y-127882247D01*
X297846245Y-127908066D01*
X297834891Y-127919066D01*
X297832951Y-127919553D01*
X297831559Y-127918117D01*
X297831836Y-127916519D01*
X297858816Y-127876140D01*
X297874000Y-127799806D01*
X297874000Y-126625194D01*
X297858816Y-126548860D01*
X297823779Y-126496424D01*
X297823648Y-126494428D01*
X297825311Y-126493317D01*
X297826728Y-126493781D01*
G37*
G36*
X295326728Y-126493781D02*
G01*
X295344138Y-126508389D01*
X295344915Y-126507463D01*
X295346794Y-126506778D01*
X295347827Y-126507300D01*
X295371273Y-126529652D01*
X295439281Y-126542753D01*
X295503755Y-126516934D01*
X295515109Y-126505934D01*
X295517049Y-126505447D01*
X295518441Y-126506883D01*
X295518164Y-126508481D01*
X295491184Y-126548860D01*
X295476000Y-126625194D01*
X295476000Y-127799806D01*
X295491184Y-127876140D01*
X295526221Y-127928576D01*
X295526352Y-127930572D01*
X295524689Y-127931683D01*
X295523272Y-127931219D01*
X295505862Y-127916611D01*
X295505085Y-127917537D01*
X295503206Y-127918222D01*
X295502173Y-127917700D01*
X295478727Y-127895348D01*
X295410719Y-127882247D01*
X295346245Y-127908066D01*
X295334891Y-127919066D01*
X295332951Y-127919553D01*
X295331559Y-127918117D01*
X295331836Y-127916519D01*
X295358816Y-127876140D01*
X295374000Y-127799806D01*
X295374000Y-126625194D01*
X295358816Y-126548860D01*
X295323779Y-126496424D01*
X295323648Y-126494428D01*
X295325311Y-126493317D01*
X295326728Y-126493781D01*
G37*
G36*
X294326728Y-126493781D02*
G01*
X294344138Y-126508389D01*
X294344915Y-126507463D01*
X294346794Y-126506778D01*
X294347827Y-126507300D01*
X294371273Y-126529652D01*
X294439281Y-126542753D01*
X294503755Y-126516934D01*
X294515109Y-126505934D01*
X294517049Y-126505447D01*
X294518441Y-126506883D01*
X294518164Y-126508481D01*
X294491184Y-126548860D01*
X294476000Y-126625194D01*
X294476000Y-127799806D01*
X294491184Y-127876140D01*
X294526221Y-127928576D01*
X294526352Y-127930572D01*
X294524689Y-127931683D01*
X294523272Y-127931219D01*
X294505862Y-127916611D01*
X294505085Y-127917537D01*
X294503206Y-127918222D01*
X294502173Y-127917700D01*
X294478727Y-127895348D01*
X294410719Y-127882247D01*
X294346245Y-127908066D01*
X294334891Y-127919066D01*
X294332951Y-127919553D01*
X294331559Y-127918117D01*
X294331836Y-127916519D01*
X294358816Y-127876140D01*
X294374000Y-127799806D01*
X294374000Y-126625194D01*
X294358816Y-126548860D01*
X294323779Y-126496424D01*
X294323648Y-126494428D01*
X294325311Y-126493317D01*
X294326728Y-126493781D01*
G37*
G36*
X295826728Y-126493781D02*
G01*
X295844138Y-126508389D01*
X295844915Y-126507463D01*
X295846794Y-126506778D01*
X295847827Y-126507300D01*
X295871273Y-126529652D01*
X295939281Y-126542753D01*
X296003755Y-126516934D01*
X296015109Y-126505934D01*
X296017049Y-126505447D01*
X296018441Y-126506883D01*
X296018164Y-126508481D01*
X295991184Y-126548860D01*
X295976000Y-126625194D01*
X295976000Y-127799806D01*
X295991184Y-127876140D01*
X296026221Y-127928576D01*
X296026352Y-127930572D01*
X296024689Y-127931683D01*
X296023272Y-127931219D01*
X296005862Y-127916611D01*
X296005085Y-127917537D01*
X296003206Y-127918222D01*
X296002173Y-127917700D01*
X295978727Y-127895348D01*
X295910719Y-127882247D01*
X295846245Y-127908066D01*
X295834891Y-127919066D01*
X295832951Y-127919553D01*
X295831559Y-127918117D01*
X295831836Y-127916519D01*
X295858816Y-127876140D01*
X295874000Y-127799806D01*
X295874000Y-126625194D01*
X295858816Y-126548860D01*
X295823779Y-126496424D01*
X295823648Y-126494428D01*
X295825311Y-126493317D01*
X295826728Y-126493781D01*
G37*
G36*
X292826728Y-126493781D02*
G01*
X292844138Y-126508389D01*
X292844915Y-126507463D01*
X292846794Y-126506778D01*
X292847827Y-126507300D01*
X292871273Y-126529652D01*
X292939281Y-126542753D01*
X293003755Y-126516934D01*
X293015109Y-126505934D01*
X293017049Y-126505447D01*
X293018441Y-126506883D01*
X293018164Y-126508481D01*
X292991184Y-126548860D01*
X292976000Y-126625194D01*
X292976000Y-127799806D01*
X292991184Y-127876140D01*
X293026221Y-127928576D01*
X293026352Y-127930572D01*
X293024689Y-127931683D01*
X293023272Y-127931219D01*
X293005862Y-127916611D01*
X293005085Y-127917537D01*
X293003206Y-127918222D01*
X293002173Y-127917700D01*
X292978727Y-127895348D01*
X292910719Y-127882247D01*
X292846245Y-127908066D01*
X292834891Y-127919066D01*
X292832951Y-127919553D01*
X292831559Y-127918117D01*
X292831836Y-127916519D01*
X292858816Y-127876140D01*
X292874000Y-127799806D01*
X292874000Y-126625194D01*
X292858816Y-126548860D01*
X292823779Y-126496424D01*
X292823648Y-126494428D01*
X292825311Y-126493317D01*
X292826728Y-126493781D01*
G37*
G36*
X293326728Y-126493781D02*
G01*
X293344138Y-126508389D01*
X293344915Y-126507463D01*
X293346794Y-126506778D01*
X293347827Y-126507300D01*
X293371273Y-126529652D01*
X293439281Y-126542753D01*
X293503755Y-126516934D01*
X293515109Y-126505934D01*
X293517049Y-126505447D01*
X293518441Y-126506883D01*
X293518164Y-126508481D01*
X293491184Y-126548860D01*
X293476000Y-126625194D01*
X293476000Y-127799806D01*
X293491184Y-127876140D01*
X293526221Y-127928576D01*
X293526352Y-127930572D01*
X293524689Y-127931683D01*
X293523272Y-127931219D01*
X293505862Y-127916611D01*
X293505085Y-127917537D01*
X293503206Y-127918222D01*
X293502173Y-127917700D01*
X293478727Y-127895348D01*
X293410719Y-127882247D01*
X293346245Y-127908066D01*
X293334891Y-127919066D01*
X293332951Y-127919553D01*
X293331559Y-127918117D01*
X293331836Y-127916519D01*
X293358816Y-127876140D01*
X293374000Y-127799806D01*
X293374000Y-126625194D01*
X293358816Y-126548860D01*
X293323779Y-126496424D01*
X293323648Y-126494428D01*
X293325311Y-126493317D01*
X293326728Y-126493781D01*
G37*
G36*
X300306681Y-125450312D02*
G01*
X300306217Y-125451729D01*
X300291611Y-125469137D01*
X300292537Y-125469914D01*
X300293222Y-125471793D01*
X300292699Y-125472826D01*
X300270352Y-125496262D01*
X300257245Y-125564270D01*
X300283058Y-125628747D01*
X300294065Y-125640109D01*
X300294552Y-125642049D01*
X300293116Y-125643441D01*
X300291518Y-125643164D01*
X300251140Y-125616184D01*
X300174806Y-125601000D01*
X299000194Y-125601000D01*
X298923860Y-125616184D01*
X298871426Y-125651220D01*
X298869430Y-125651351D01*
X298868319Y-125649688D01*
X298868783Y-125648271D01*
X298883389Y-125630863D01*
X298882463Y-125630086D01*
X298881778Y-125628207D01*
X298882301Y-125627174D01*
X298904648Y-125603738D01*
X298917755Y-125535730D01*
X298891942Y-125471253D01*
X298880935Y-125459891D01*
X298880448Y-125457951D01*
X298881884Y-125456559D01*
X298883482Y-125456836D01*
X298923860Y-125483816D01*
X299000194Y-125499000D01*
X300174806Y-125499000D01*
X300251140Y-125483816D01*
X300303574Y-125448780D01*
X300305570Y-125448649D01*
X300306681Y-125450312D01*
G37*
G36*
X291981681Y-125450312D02*
G01*
X291981217Y-125451729D01*
X291966611Y-125469137D01*
X291967537Y-125469914D01*
X291968222Y-125471793D01*
X291967699Y-125472826D01*
X291945352Y-125496262D01*
X291932245Y-125564270D01*
X291958058Y-125628747D01*
X291969065Y-125640109D01*
X291969552Y-125642049D01*
X291968116Y-125643441D01*
X291966518Y-125643164D01*
X291926140Y-125616184D01*
X291849806Y-125601000D01*
X290675194Y-125601000D01*
X290598860Y-125616184D01*
X290546426Y-125651220D01*
X290544430Y-125651351D01*
X290543319Y-125649688D01*
X290543783Y-125648271D01*
X290558389Y-125630863D01*
X290557463Y-125630086D01*
X290556778Y-125628207D01*
X290557301Y-125627174D01*
X290579648Y-125603738D01*
X290592755Y-125535730D01*
X290566942Y-125471253D01*
X290555935Y-125459891D01*
X290555448Y-125457951D01*
X290556884Y-125456559D01*
X290558482Y-125456836D01*
X290598860Y-125483816D01*
X290675194Y-125499000D01*
X291849806Y-125499000D01*
X291926140Y-125483816D01*
X291978574Y-125448780D01*
X291980570Y-125448649D01*
X291981681Y-125450312D01*
G37*
G36*
X291981681Y-124950312D02*
G01*
X291981217Y-124951729D01*
X291966611Y-124969137D01*
X291967537Y-124969914D01*
X291968222Y-124971793D01*
X291967699Y-124972826D01*
X291945352Y-124996262D01*
X291932245Y-125064270D01*
X291958058Y-125128747D01*
X291969065Y-125140109D01*
X291969552Y-125142049D01*
X291968116Y-125143441D01*
X291966518Y-125143164D01*
X291926140Y-125116184D01*
X291849806Y-125101000D01*
X290675194Y-125101000D01*
X290598860Y-125116184D01*
X290546426Y-125151220D01*
X290544430Y-125151351D01*
X290543319Y-125149688D01*
X290543783Y-125148271D01*
X290558389Y-125130863D01*
X290557463Y-125130086D01*
X290556778Y-125128207D01*
X290557301Y-125127174D01*
X290579648Y-125103738D01*
X290592755Y-125035730D01*
X290566942Y-124971253D01*
X290555935Y-124959891D01*
X290555448Y-124957951D01*
X290556884Y-124956559D01*
X290558482Y-124956836D01*
X290598860Y-124983816D01*
X290675194Y-124999000D01*
X291849806Y-124999000D01*
X291926140Y-124983816D01*
X291978574Y-124948780D01*
X291980570Y-124948649D01*
X291981681Y-124950312D01*
G37*
G36*
X300306681Y-124950312D02*
G01*
X300306217Y-124951729D01*
X300291611Y-124969137D01*
X300292537Y-124969914D01*
X300293222Y-124971793D01*
X300292699Y-124972826D01*
X300270352Y-124996262D01*
X300257245Y-125064270D01*
X300283058Y-125128747D01*
X300294065Y-125140109D01*
X300294552Y-125142049D01*
X300293116Y-125143441D01*
X300291518Y-125143164D01*
X300251140Y-125116184D01*
X300174806Y-125101000D01*
X299000194Y-125101000D01*
X298923860Y-125116184D01*
X298871426Y-125151220D01*
X298869430Y-125151351D01*
X298868319Y-125149688D01*
X298868783Y-125148271D01*
X298883389Y-125130863D01*
X298882463Y-125130086D01*
X298881778Y-125128207D01*
X298882301Y-125127174D01*
X298904648Y-125103738D01*
X298917755Y-125035730D01*
X298891942Y-124971253D01*
X298880935Y-124959891D01*
X298880448Y-124957951D01*
X298881884Y-124956559D01*
X298883482Y-124956836D01*
X298923860Y-124983816D01*
X299000194Y-124999000D01*
X300174806Y-124999000D01*
X300251140Y-124983816D01*
X300303574Y-124948780D01*
X300305570Y-124948649D01*
X300306681Y-124950312D01*
G37*
G36*
X300306681Y-124450312D02*
G01*
X300306217Y-124451729D01*
X300291611Y-124469137D01*
X300292537Y-124469914D01*
X300293222Y-124471793D01*
X300292699Y-124472826D01*
X300270352Y-124496262D01*
X300257245Y-124564270D01*
X300283058Y-124628747D01*
X300294065Y-124640109D01*
X300294552Y-124642049D01*
X300293116Y-124643441D01*
X300291518Y-124643164D01*
X300251140Y-124616184D01*
X300174806Y-124601000D01*
X299000194Y-124601000D01*
X298923860Y-124616184D01*
X298871426Y-124651220D01*
X298869430Y-124651351D01*
X298868319Y-124649688D01*
X298868783Y-124648271D01*
X298883389Y-124630863D01*
X298882463Y-124630086D01*
X298881778Y-124628207D01*
X298882301Y-124627174D01*
X298904648Y-124603738D01*
X298917755Y-124535730D01*
X298891942Y-124471253D01*
X298880935Y-124459891D01*
X298880448Y-124457951D01*
X298881884Y-124456559D01*
X298883482Y-124456836D01*
X298923860Y-124483816D01*
X299000194Y-124499000D01*
X300174806Y-124499000D01*
X300251140Y-124483816D01*
X300303574Y-124448780D01*
X300305570Y-124448649D01*
X300306681Y-124450312D01*
G37*
G36*
X291981681Y-124450312D02*
G01*
X291981217Y-124451729D01*
X291966611Y-124469137D01*
X291967537Y-124469914D01*
X291968222Y-124471793D01*
X291967699Y-124472826D01*
X291945352Y-124496262D01*
X291932245Y-124564270D01*
X291958058Y-124628747D01*
X291969065Y-124640109D01*
X291969552Y-124642049D01*
X291968116Y-124643441D01*
X291966518Y-124643164D01*
X291926140Y-124616184D01*
X291849806Y-124601000D01*
X290675194Y-124601000D01*
X290598860Y-124616184D01*
X290546426Y-124651220D01*
X290544430Y-124651351D01*
X290543319Y-124649688D01*
X290543783Y-124648271D01*
X290558389Y-124630863D01*
X290557463Y-124630086D01*
X290556778Y-124628207D01*
X290557301Y-124627174D01*
X290579648Y-124603738D01*
X290592755Y-124535730D01*
X290566942Y-124471253D01*
X290555935Y-124459891D01*
X290555448Y-124457951D01*
X290556884Y-124456559D01*
X290558482Y-124456836D01*
X290598860Y-124483816D01*
X290675194Y-124499000D01*
X291849806Y-124499000D01*
X291926140Y-124483816D01*
X291978574Y-124448780D01*
X291980570Y-124448649D01*
X291981681Y-124450312D01*
G37*
G36*
X300306681Y-123950312D02*
G01*
X300306217Y-123951729D01*
X300291611Y-123969137D01*
X300292537Y-123969914D01*
X300293222Y-123971793D01*
X300292699Y-123972826D01*
X300270352Y-123996262D01*
X300257245Y-124064270D01*
X300283058Y-124128747D01*
X300294065Y-124140109D01*
X300294552Y-124142049D01*
X300293116Y-124143441D01*
X300291518Y-124143164D01*
X300251140Y-124116184D01*
X300174806Y-124101000D01*
X299000194Y-124101000D01*
X298923860Y-124116184D01*
X298871426Y-124151220D01*
X298869430Y-124151351D01*
X298868319Y-124149688D01*
X298868783Y-124148271D01*
X298883389Y-124130863D01*
X298882463Y-124130086D01*
X298881778Y-124128207D01*
X298882301Y-124127174D01*
X298904648Y-124103738D01*
X298917755Y-124035730D01*
X298891942Y-123971253D01*
X298880935Y-123959891D01*
X298880448Y-123957951D01*
X298881884Y-123956559D01*
X298883482Y-123956836D01*
X298923860Y-123983816D01*
X299000194Y-123999000D01*
X300174806Y-123999000D01*
X300251140Y-123983816D01*
X300303574Y-123948780D01*
X300305570Y-123948649D01*
X300306681Y-123950312D01*
G37*
G36*
X291981681Y-123950312D02*
G01*
X291981217Y-123951729D01*
X291966611Y-123969137D01*
X291967537Y-123969914D01*
X291968222Y-123971793D01*
X291967699Y-123972826D01*
X291945352Y-123996262D01*
X291932245Y-124064270D01*
X291958058Y-124128747D01*
X291969065Y-124140109D01*
X291969552Y-124142049D01*
X291968116Y-124143441D01*
X291966518Y-124143164D01*
X291926140Y-124116184D01*
X291849806Y-124101000D01*
X290675194Y-124101000D01*
X290598860Y-124116184D01*
X290546426Y-124151220D01*
X290544430Y-124151351D01*
X290543319Y-124149688D01*
X290543783Y-124148271D01*
X290558389Y-124130863D01*
X290557463Y-124130086D01*
X290556778Y-124128207D01*
X290557301Y-124127174D01*
X290579648Y-124103738D01*
X290592755Y-124035730D01*
X290566942Y-123971253D01*
X290555935Y-123959891D01*
X290555448Y-123957951D01*
X290556884Y-123956559D01*
X290558482Y-123956836D01*
X290598860Y-123983816D01*
X290675194Y-123999000D01*
X291849806Y-123999000D01*
X291926140Y-123983816D01*
X291978574Y-123948780D01*
X291980570Y-123948649D01*
X291981681Y-123950312D01*
G37*
G36*
X300306681Y-123450312D02*
G01*
X300306217Y-123451729D01*
X300291611Y-123469137D01*
X300292537Y-123469914D01*
X300293222Y-123471793D01*
X300292699Y-123472826D01*
X300270352Y-123496262D01*
X300257245Y-123564270D01*
X300283058Y-123628747D01*
X300294065Y-123640109D01*
X300294552Y-123642049D01*
X300293116Y-123643441D01*
X300291518Y-123643164D01*
X300251140Y-123616184D01*
X300174806Y-123601000D01*
X299000194Y-123601000D01*
X298923860Y-123616184D01*
X298871426Y-123651220D01*
X298869430Y-123651351D01*
X298868319Y-123649688D01*
X298868783Y-123648271D01*
X298883389Y-123630863D01*
X298882463Y-123630086D01*
X298881778Y-123628207D01*
X298882301Y-123627174D01*
X298904648Y-123603738D01*
X298917755Y-123535730D01*
X298891942Y-123471253D01*
X298880935Y-123459891D01*
X298880448Y-123457951D01*
X298881884Y-123456559D01*
X298883482Y-123456836D01*
X298923860Y-123483816D01*
X299000194Y-123499000D01*
X300174806Y-123499000D01*
X300251140Y-123483816D01*
X300303574Y-123448780D01*
X300305570Y-123448649D01*
X300306681Y-123450312D01*
G37*
G36*
X291981681Y-123450312D02*
G01*
X291981217Y-123451729D01*
X291966611Y-123469137D01*
X291967537Y-123469914D01*
X291968222Y-123471793D01*
X291967699Y-123472826D01*
X291945352Y-123496262D01*
X291932245Y-123564270D01*
X291958058Y-123628747D01*
X291969065Y-123640109D01*
X291969552Y-123642049D01*
X291968116Y-123643441D01*
X291966518Y-123643164D01*
X291926140Y-123616184D01*
X291849806Y-123601000D01*
X290675194Y-123601000D01*
X290598860Y-123616184D01*
X290546426Y-123651220D01*
X290544430Y-123651351D01*
X290543319Y-123649688D01*
X290543783Y-123648271D01*
X290558389Y-123630863D01*
X290557463Y-123630086D01*
X290556778Y-123628207D01*
X290557301Y-123627174D01*
X290579648Y-123603738D01*
X290592755Y-123535730D01*
X290566942Y-123471253D01*
X290555935Y-123459891D01*
X290555448Y-123457951D01*
X290556884Y-123456559D01*
X290558482Y-123456836D01*
X290598860Y-123483816D01*
X290675194Y-123499000D01*
X291849806Y-123499000D01*
X291926140Y-123483816D01*
X291978574Y-123448780D01*
X291980570Y-123448649D01*
X291981681Y-123450312D01*
G37*
G36*
X300306681Y-122950312D02*
G01*
X300306217Y-122951729D01*
X300291611Y-122969137D01*
X300292537Y-122969914D01*
X300293222Y-122971793D01*
X300292699Y-122972826D01*
X300270352Y-122996262D01*
X300257245Y-123064270D01*
X300283058Y-123128747D01*
X300294065Y-123140109D01*
X300294552Y-123142049D01*
X300293116Y-123143441D01*
X300291518Y-123143164D01*
X300251140Y-123116184D01*
X300174806Y-123101000D01*
X299000194Y-123101000D01*
X298923860Y-123116184D01*
X298871426Y-123151220D01*
X298869430Y-123151351D01*
X298868319Y-123149688D01*
X298868783Y-123148271D01*
X298883389Y-123130863D01*
X298882463Y-123130086D01*
X298881778Y-123128207D01*
X298882301Y-123127174D01*
X298904648Y-123103738D01*
X298917755Y-123035730D01*
X298891942Y-122971253D01*
X298880935Y-122959891D01*
X298880448Y-122957951D01*
X298881884Y-122956559D01*
X298883482Y-122956836D01*
X298923860Y-122983816D01*
X299000194Y-122999000D01*
X300174806Y-122999000D01*
X300251140Y-122983816D01*
X300303574Y-122948780D01*
X300305570Y-122948649D01*
X300306681Y-122950312D01*
G37*
G36*
X291981681Y-122950312D02*
G01*
X291981217Y-122951729D01*
X291966611Y-122969137D01*
X291967537Y-122969914D01*
X291968222Y-122971793D01*
X291967699Y-122972826D01*
X291945352Y-122996262D01*
X291932245Y-123064270D01*
X291958058Y-123128747D01*
X291969065Y-123140109D01*
X291969552Y-123142049D01*
X291968116Y-123143441D01*
X291966518Y-123143164D01*
X291926140Y-123116184D01*
X291849806Y-123101000D01*
X290675194Y-123101000D01*
X290598860Y-123116184D01*
X290546426Y-123151220D01*
X290544430Y-123151351D01*
X290543319Y-123149688D01*
X290543783Y-123148271D01*
X290558389Y-123130863D01*
X290557463Y-123130086D01*
X290556778Y-123128207D01*
X290557301Y-123127174D01*
X290579648Y-123103738D01*
X290592755Y-123035730D01*
X290566942Y-122971253D01*
X290555935Y-122959891D01*
X290555448Y-122957951D01*
X290556884Y-122956559D01*
X290558482Y-122956836D01*
X290598860Y-122983816D01*
X290675194Y-122999000D01*
X291849806Y-122999000D01*
X291926140Y-122983816D01*
X291978574Y-122948780D01*
X291980570Y-122948649D01*
X291981681Y-122950312D01*
G37*
G36*
X291981681Y-122450312D02*
G01*
X291981217Y-122451729D01*
X291966611Y-122469137D01*
X291967537Y-122469914D01*
X291968222Y-122471793D01*
X291967699Y-122472826D01*
X291945352Y-122496262D01*
X291932245Y-122564270D01*
X291958058Y-122628747D01*
X291969065Y-122640109D01*
X291969552Y-122642049D01*
X291968116Y-122643441D01*
X291966518Y-122643164D01*
X291926140Y-122616184D01*
X291849806Y-122601000D01*
X290675194Y-122601000D01*
X290598860Y-122616184D01*
X290546426Y-122651220D01*
X290544430Y-122651351D01*
X290543319Y-122649688D01*
X290543783Y-122648271D01*
X290558389Y-122630863D01*
X290557463Y-122630086D01*
X290556778Y-122628207D01*
X290557301Y-122627174D01*
X290579648Y-122603738D01*
X290592755Y-122535730D01*
X290566942Y-122471253D01*
X290555935Y-122459891D01*
X290555448Y-122457951D01*
X290556884Y-122456559D01*
X290558482Y-122456836D01*
X290598860Y-122483816D01*
X290675194Y-122499000D01*
X291849806Y-122499000D01*
X291926140Y-122483816D01*
X291978574Y-122448780D01*
X291980570Y-122448649D01*
X291981681Y-122450312D01*
G37*
G36*
X300306681Y-122450312D02*
G01*
X300306217Y-122451729D01*
X300291611Y-122469137D01*
X300292537Y-122469914D01*
X300293222Y-122471793D01*
X300292699Y-122472826D01*
X300270352Y-122496262D01*
X300257245Y-122564270D01*
X300283058Y-122628747D01*
X300294065Y-122640109D01*
X300294552Y-122642049D01*
X300293116Y-122643441D01*
X300291518Y-122643164D01*
X300251140Y-122616184D01*
X300174806Y-122601000D01*
X299000194Y-122601000D01*
X298923860Y-122616184D01*
X298871426Y-122651220D01*
X298869430Y-122651351D01*
X298868319Y-122649688D01*
X298868783Y-122648271D01*
X298883389Y-122630863D01*
X298882463Y-122630086D01*
X298881778Y-122628207D01*
X298882301Y-122627174D01*
X298904648Y-122603738D01*
X298917755Y-122535730D01*
X298891942Y-122471253D01*
X298880935Y-122459891D01*
X298880448Y-122457951D01*
X298881884Y-122456559D01*
X298883482Y-122456836D01*
X298923860Y-122483816D01*
X299000194Y-122499000D01*
X300174806Y-122499000D01*
X300251140Y-122483816D01*
X300303574Y-122448780D01*
X300305570Y-122448649D01*
X300306681Y-122450312D01*
G37*
G36*
X300306681Y-121950312D02*
G01*
X300306217Y-121951729D01*
X300291611Y-121969137D01*
X300292537Y-121969914D01*
X300293222Y-121971793D01*
X300292699Y-121972826D01*
X300270352Y-121996262D01*
X300257245Y-122064270D01*
X300283058Y-122128747D01*
X300294065Y-122140109D01*
X300294552Y-122142049D01*
X300293116Y-122143441D01*
X300291518Y-122143164D01*
X300251140Y-122116184D01*
X300174806Y-122101000D01*
X299000194Y-122101000D01*
X298923860Y-122116184D01*
X298871426Y-122151220D01*
X298869430Y-122151351D01*
X298868319Y-122149688D01*
X298868783Y-122148271D01*
X298883389Y-122130863D01*
X298882463Y-122130086D01*
X298881778Y-122128207D01*
X298882301Y-122127174D01*
X298904648Y-122103738D01*
X298917755Y-122035730D01*
X298891942Y-121971253D01*
X298880935Y-121959891D01*
X298880448Y-121957951D01*
X298881884Y-121956559D01*
X298883482Y-121956836D01*
X298923860Y-121983816D01*
X299000194Y-121999000D01*
X300174806Y-121999000D01*
X300251140Y-121983816D01*
X300303574Y-121948780D01*
X300305570Y-121948649D01*
X300306681Y-121950312D01*
G37*
G36*
X291981681Y-121950312D02*
G01*
X291981217Y-121951729D01*
X291966611Y-121969137D01*
X291967537Y-121969914D01*
X291968222Y-121971793D01*
X291967699Y-121972826D01*
X291945352Y-121996262D01*
X291932245Y-122064270D01*
X291958058Y-122128747D01*
X291969065Y-122140109D01*
X291969552Y-122142049D01*
X291968116Y-122143441D01*
X291966518Y-122143164D01*
X291926140Y-122116184D01*
X291849806Y-122101000D01*
X290675194Y-122101000D01*
X290598860Y-122116184D01*
X290546426Y-122151220D01*
X290544430Y-122151351D01*
X290543319Y-122149688D01*
X290543783Y-122148271D01*
X290558389Y-122130863D01*
X290557463Y-122130086D01*
X290556778Y-122128207D01*
X290557301Y-122127174D01*
X290579648Y-122103738D01*
X290592755Y-122035730D01*
X290566942Y-121971253D01*
X290555935Y-121959891D01*
X290555448Y-121957951D01*
X290556884Y-121956559D01*
X290558482Y-121956836D01*
X290598860Y-121983816D01*
X290675194Y-121999000D01*
X291849806Y-121999000D01*
X291926140Y-121983816D01*
X291978574Y-121948780D01*
X291980570Y-121948649D01*
X291981681Y-121950312D01*
G37*
G36*
X300306681Y-121450312D02*
G01*
X300306217Y-121451729D01*
X300291611Y-121469137D01*
X300292537Y-121469914D01*
X300293222Y-121471793D01*
X300292699Y-121472826D01*
X300270352Y-121496262D01*
X300257245Y-121564270D01*
X300283058Y-121628747D01*
X300294065Y-121640109D01*
X300294552Y-121642049D01*
X300293116Y-121643441D01*
X300291518Y-121643164D01*
X300251140Y-121616184D01*
X300174806Y-121601000D01*
X299000194Y-121601000D01*
X298923860Y-121616184D01*
X298871426Y-121651220D01*
X298869430Y-121651351D01*
X298868319Y-121649688D01*
X298868783Y-121648271D01*
X298883389Y-121630863D01*
X298882463Y-121630086D01*
X298881778Y-121628207D01*
X298882301Y-121627174D01*
X298904648Y-121603738D01*
X298917755Y-121535730D01*
X298891942Y-121471253D01*
X298880935Y-121459891D01*
X298880448Y-121457951D01*
X298881884Y-121456559D01*
X298883482Y-121456836D01*
X298923860Y-121483816D01*
X299000194Y-121499000D01*
X300174806Y-121499000D01*
X300251140Y-121483816D01*
X300303574Y-121448780D01*
X300305570Y-121448649D01*
X300306681Y-121450312D01*
G37*
G36*
X291981681Y-121450312D02*
G01*
X291981217Y-121451729D01*
X291966611Y-121469137D01*
X291967537Y-121469914D01*
X291968222Y-121471793D01*
X291967699Y-121472826D01*
X291945352Y-121496262D01*
X291932245Y-121564270D01*
X291958058Y-121628747D01*
X291969065Y-121640109D01*
X291969552Y-121642049D01*
X291968116Y-121643441D01*
X291966518Y-121643164D01*
X291926140Y-121616184D01*
X291849806Y-121601000D01*
X290675194Y-121601000D01*
X290598860Y-121616184D01*
X290546426Y-121651220D01*
X290544430Y-121651351D01*
X290543319Y-121649688D01*
X290543783Y-121648271D01*
X290558389Y-121630863D01*
X290557463Y-121630086D01*
X290556778Y-121628207D01*
X290557301Y-121627174D01*
X290579648Y-121603738D01*
X290592755Y-121535730D01*
X290566942Y-121471253D01*
X290555935Y-121459891D01*
X290555448Y-121457951D01*
X290556884Y-121456559D01*
X290558482Y-121456836D01*
X290598860Y-121483816D01*
X290675194Y-121499000D01*
X291849806Y-121499000D01*
X291926140Y-121483816D01*
X291978574Y-121448780D01*
X291980570Y-121448649D01*
X291981681Y-121450312D01*
G37*
G36*
X300306681Y-120950312D02*
G01*
X300306217Y-120951729D01*
X300291611Y-120969137D01*
X300292537Y-120969914D01*
X300293222Y-120971793D01*
X300292699Y-120972826D01*
X300270352Y-120996262D01*
X300257245Y-121064270D01*
X300283058Y-121128747D01*
X300294065Y-121140109D01*
X300294552Y-121142049D01*
X300293116Y-121143441D01*
X300291518Y-121143164D01*
X300251140Y-121116184D01*
X300174806Y-121101000D01*
X299000194Y-121101000D01*
X298923860Y-121116184D01*
X298871426Y-121151220D01*
X298869430Y-121151351D01*
X298868319Y-121149688D01*
X298868783Y-121148271D01*
X298883389Y-121130863D01*
X298882463Y-121130086D01*
X298881778Y-121128207D01*
X298882301Y-121127174D01*
X298904648Y-121103738D01*
X298917755Y-121035730D01*
X298891942Y-120971253D01*
X298880935Y-120959891D01*
X298880448Y-120957951D01*
X298881884Y-120956559D01*
X298883482Y-120956836D01*
X298923860Y-120983816D01*
X299000194Y-120999000D01*
X300174806Y-120999000D01*
X300251140Y-120983816D01*
X300303574Y-120948780D01*
X300305570Y-120948649D01*
X300306681Y-120950312D01*
G37*
G36*
X291981681Y-120950312D02*
G01*
X291981217Y-120951729D01*
X291966611Y-120969137D01*
X291967537Y-120969914D01*
X291968222Y-120971793D01*
X291967699Y-120972826D01*
X291945352Y-120996262D01*
X291932245Y-121064270D01*
X291958058Y-121128747D01*
X291969065Y-121140109D01*
X291969552Y-121142049D01*
X291968116Y-121143441D01*
X291966518Y-121143164D01*
X291926140Y-121116184D01*
X291849806Y-121101000D01*
X290675194Y-121101000D01*
X290598860Y-121116184D01*
X290546426Y-121151220D01*
X290544430Y-121151351D01*
X290543319Y-121149688D01*
X290543783Y-121148271D01*
X290558389Y-121130863D01*
X290557463Y-121130086D01*
X290556778Y-121128207D01*
X290557301Y-121127174D01*
X290579648Y-121103738D01*
X290592755Y-121035730D01*
X290566942Y-120971253D01*
X290555935Y-120959891D01*
X290555448Y-120957951D01*
X290556884Y-120956559D01*
X290558482Y-120956836D01*
X290598860Y-120983816D01*
X290675194Y-120999000D01*
X291849806Y-120999000D01*
X291926140Y-120983816D01*
X291978574Y-120948780D01*
X291980570Y-120948649D01*
X291981681Y-120950312D01*
G37*
G36*
X291981681Y-120450312D02*
G01*
X291981217Y-120451729D01*
X291966611Y-120469137D01*
X291967537Y-120469914D01*
X291968222Y-120471793D01*
X291967699Y-120472826D01*
X291945352Y-120496262D01*
X291932245Y-120564270D01*
X291958058Y-120628747D01*
X291969065Y-120640109D01*
X291969552Y-120642049D01*
X291968116Y-120643441D01*
X291966518Y-120643164D01*
X291926140Y-120616184D01*
X291849806Y-120601000D01*
X290675194Y-120601000D01*
X290598860Y-120616184D01*
X290546426Y-120651220D01*
X290544430Y-120651351D01*
X290543319Y-120649688D01*
X290543783Y-120648271D01*
X290558389Y-120630863D01*
X290557463Y-120630086D01*
X290556778Y-120628207D01*
X290557301Y-120627174D01*
X290579648Y-120603738D01*
X290592755Y-120535730D01*
X290566942Y-120471253D01*
X290555935Y-120459891D01*
X290555448Y-120457951D01*
X290556884Y-120456559D01*
X290558482Y-120456836D01*
X290598860Y-120483816D01*
X290675194Y-120499000D01*
X291849806Y-120499000D01*
X291926140Y-120483816D01*
X291978574Y-120448780D01*
X291980570Y-120448649D01*
X291981681Y-120450312D01*
G37*
G36*
X300306681Y-120450312D02*
G01*
X300306217Y-120451729D01*
X300291611Y-120469137D01*
X300292537Y-120469914D01*
X300293222Y-120471793D01*
X300292699Y-120472826D01*
X300270352Y-120496262D01*
X300257245Y-120564270D01*
X300283058Y-120628747D01*
X300294065Y-120640109D01*
X300294552Y-120642049D01*
X300293116Y-120643441D01*
X300291518Y-120643164D01*
X300251140Y-120616184D01*
X300174806Y-120601000D01*
X299000194Y-120601000D01*
X298923860Y-120616184D01*
X298871426Y-120651220D01*
X298869430Y-120651351D01*
X298868319Y-120649688D01*
X298868783Y-120648271D01*
X298883389Y-120630863D01*
X298882463Y-120630086D01*
X298881778Y-120628207D01*
X298882301Y-120627174D01*
X298904648Y-120603738D01*
X298917755Y-120535730D01*
X298891942Y-120471253D01*
X298880935Y-120459891D01*
X298880448Y-120457951D01*
X298881884Y-120456559D01*
X298883482Y-120456836D01*
X298923860Y-120483816D01*
X299000194Y-120499000D01*
X300174806Y-120499000D01*
X300251140Y-120483816D01*
X300303574Y-120448780D01*
X300305570Y-120448649D01*
X300306681Y-120450312D01*
G37*
G36*
X292869716Y-118123433D02*
G01*
X292916770Y-118162756D01*
X292985596Y-118171401D01*
X293027481Y-118156484D01*
X293055980Y-118140030D01*
X293057980Y-118140030D01*
X293058980Y-118141762D01*
X293058091Y-118143425D01*
X293034313Y-118159314D01*
X292991184Y-118223860D01*
X292976000Y-118300194D01*
X292976000Y-119474806D01*
X292991184Y-119551140D01*
X293034313Y-119615686D01*
X293038179Y-119618269D01*
X293039064Y-119620063D01*
X293037953Y-119621726D01*
X293036266Y-119621764D01*
X292984109Y-119598939D01*
X292915703Y-119609886D01*
X292872768Y-119647014D01*
X292870804Y-119647390D01*
X292869496Y-119645878D01*
X292869797Y-119644389D01*
X292870234Y-119643736D01*
X292874000Y-119624801D01*
X292874000Y-118150199D01*
X292870233Y-118131262D01*
X292866770Y-118126079D01*
X292866639Y-118124083D01*
X292868302Y-118122972D01*
X292869716Y-118123433D01*
G37*
G36*
X295826728Y-118168781D02*
G01*
X295844138Y-118183389D01*
X295844915Y-118182463D01*
X295846794Y-118181778D01*
X295847827Y-118182300D01*
X295871273Y-118204652D01*
X295939281Y-118217753D01*
X296003755Y-118191934D01*
X296015109Y-118180934D01*
X296017049Y-118180447D01*
X296018441Y-118181883D01*
X296018164Y-118183481D01*
X295991184Y-118223860D01*
X295976000Y-118300194D01*
X295976000Y-119474806D01*
X295991184Y-119551140D01*
X296026221Y-119603576D01*
X296026352Y-119605572D01*
X296024689Y-119606683D01*
X296023272Y-119606219D01*
X296005862Y-119591611D01*
X296005085Y-119592537D01*
X296003206Y-119593222D01*
X296002173Y-119592700D01*
X295978727Y-119570348D01*
X295910719Y-119557247D01*
X295846245Y-119583066D01*
X295834891Y-119594066D01*
X295832951Y-119594553D01*
X295831559Y-119593117D01*
X295831836Y-119591519D01*
X295858816Y-119551140D01*
X295874000Y-119474806D01*
X295874000Y-118300194D01*
X295858816Y-118223860D01*
X295823779Y-118171424D01*
X295823648Y-118169428D01*
X295825311Y-118168317D01*
X295826728Y-118168781D01*
G37*
G36*
X293326728Y-118168781D02*
G01*
X293344138Y-118183389D01*
X293344915Y-118182463D01*
X293346794Y-118181778D01*
X293347827Y-118182300D01*
X293371273Y-118204652D01*
X293439281Y-118217753D01*
X293503755Y-118191934D01*
X293515109Y-118180934D01*
X293517049Y-118180447D01*
X293518441Y-118181883D01*
X293518164Y-118183481D01*
X293491184Y-118223860D01*
X293476000Y-118300194D01*
X293476000Y-119474806D01*
X293491184Y-119551140D01*
X293526221Y-119603576D01*
X293526352Y-119605572D01*
X293524689Y-119606683D01*
X293523272Y-119606219D01*
X293505862Y-119591611D01*
X293505085Y-119592537D01*
X293503206Y-119593222D01*
X293502173Y-119592700D01*
X293478727Y-119570348D01*
X293410719Y-119557247D01*
X293346245Y-119583066D01*
X293334891Y-119594066D01*
X293332951Y-119594553D01*
X293331559Y-119593117D01*
X293331836Y-119591519D01*
X293358816Y-119551140D01*
X293374000Y-119474806D01*
X293374000Y-118300194D01*
X293358816Y-118223860D01*
X293323779Y-118171424D01*
X293323648Y-118169428D01*
X293325311Y-118168317D01*
X293326728Y-118168781D01*
G37*
G36*
X297826728Y-118168781D02*
G01*
X297844138Y-118183389D01*
X297844915Y-118182463D01*
X297846794Y-118181778D01*
X297847827Y-118182300D01*
X297871273Y-118204652D01*
X297939281Y-118217753D01*
X298003755Y-118191934D01*
X298015109Y-118180934D01*
X298017049Y-118180447D01*
X298018441Y-118181883D01*
X298018164Y-118183481D01*
X297991184Y-118223860D01*
X297976000Y-118300194D01*
X297976000Y-119474806D01*
X297991184Y-119551140D01*
X298026221Y-119603576D01*
X298026352Y-119605572D01*
X298024689Y-119606683D01*
X298023272Y-119606219D01*
X298005862Y-119591611D01*
X298005085Y-119592537D01*
X298003206Y-119593222D01*
X298002173Y-119592700D01*
X297978727Y-119570348D01*
X297910719Y-119557247D01*
X297846245Y-119583066D01*
X297834891Y-119594066D01*
X297832951Y-119594553D01*
X297831559Y-119593117D01*
X297831836Y-119591519D01*
X297858816Y-119551140D01*
X297874000Y-119474806D01*
X297874000Y-118300194D01*
X297858816Y-118223860D01*
X297823779Y-118171424D01*
X297823648Y-118169428D01*
X297825311Y-118168317D01*
X297826728Y-118168781D01*
G37*
G36*
X295326728Y-118168781D02*
G01*
X295344138Y-118183389D01*
X295344915Y-118182463D01*
X295346794Y-118181778D01*
X295347827Y-118182300D01*
X295371273Y-118204652D01*
X295439281Y-118217753D01*
X295503755Y-118191934D01*
X295515109Y-118180934D01*
X295517049Y-118180447D01*
X295518441Y-118181883D01*
X295518164Y-118183481D01*
X295491184Y-118223860D01*
X295476000Y-118300194D01*
X295476000Y-119474806D01*
X295491184Y-119551140D01*
X295526221Y-119603576D01*
X295526352Y-119605572D01*
X295524689Y-119606683D01*
X295523272Y-119606219D01*
X295505862Y-119591611D01*
X295505085Y-119592537D01*
X295503206Y-119593222D01*
X295502173Y-119592700D01*
X295478727Y-119570348D01*
X295410719Y-119557247D01*
X295346245Y-119583066D01*
X295334891Y-119594066D01*
X295332951Y-119594553D01*
X295331559Y-119593117D01*
X295331836Y-119591519D01*
X295358816Y-119551140D01*
X295374000Y-119474806D01*
X295374000Y-118300194D01*
X295358816Y-118223860D01*
X295323779Y-118171424D01*
X295323648Y-118169428D01*
X295325311Y-118168317D01*
X295326728Y-118168781D01*
G37*
G36*
X296326728Y-118168781D02*
G01*
X296344138Y-118183389D01*
X296344915Y-118182463D01*
X296346794Y-118181778D01*
X296347827Y-118182300D01*
X296371273Y-118204652D01*
X296439281Y-118217753D01*
X296503755Y-118191934D01*
X296515109Y-118180934D01*
X296517049Y-118180447D01*
X296518441Y-118181883D01*
X296518164Y-118183481D01*
X296491184Y-118223860D01*
X296476000Y-118300194D01*
X296476000Y-119474806D01*
X296491184Y-119551140D01*
X296526221Y-119603576D01*
X296526352Y-119605572D01*
X296524689Y-119606683D01*
X296523272Y-119606219D01*
X296505862Y-119591611D01*
X296505085Y-119592537D01*
X296503206Y-119593222D01*
X296502173Y-119592700D01*
X296478727Y-119570348D01*
X296410719Y-119557247D01*
X296346245Y-119583066D01*
X296334891Y-119594066D01*
X296332951Y-119594553D01*
X296331559Y-119593117D01*
X296331836Y-119591519D01*
X296358816Y-119551140D01*
X296374000Y-119474806D01*
X296374000Y-118300194D01*
X296358816Y-118223860D01*
X296323779Y-118171424D01*
X296323648Y-118169428D01*
X296325311Y-118168317D01*
X296326728Y-118168781D01*
G37*
G36*
X294826728Y-118168781D02*
G01*
X294844138Y-118183389D01*
X294844915Y-118182463D01*
X294846794Y-118181778D01*
X294847827Y-118182300D01*
X294871273Y-118204652D01*
X294939281Y-118217753D01*
X295003755Y-118191934D01*
X295015109Y-118180934D01*
X295017049Y-118180447D01*
X295018441Y-118181883D01*
X295018164Y-118183481D01*
X294991184Y-118223860D01*
X294976000Y-118300194D01*
X294976000Y-119474806D01*
X294991184Y-119551140D01*
X295026221Y-119603576D01*
X295026352Y-119605572D01*
X295024689Y-119606683D01*
X295023272Y-119606219D01*
X295005862Y-119591611D01*
X295005085Y-119592537D01*
X295003206Y-119593222D01*
X295002173Y-119592700D01*
X294978727Y-119570348D01*
X294910719Y-119557247D01*
X294846245Y-119583066D01*
X294834891Y-119594066D01*
X294832951Y-119594553D01*
X294831559Y-119593117D01*
X294831836Y-119591519D01*
X294858816Y-119551140D01*
X294874000Y-119474806D01*
X294874000Y-118300194D01*
X294858816Y-118223860D01*
X294823779Y-118171424D01*
X294823648Y-118169428D01*
X294825311Y-118168317D01*
X294826728Y-118168781D01*
G37*
G36*
X297326728Y-118168781D02*
G01*
X297344138Y-118183389D01*
X297344915Y-118182463D01*
X297346794Y-118181778D01*
X297347827Y-118182300D01*
X297371273Y-118204652D01*
X297439281Y-118217753D01*
X297503755Y-118191934D01*
X297515109Y-118180934D01*
X297517049Y-118180447D01*
X297518441Y-118181883D01*
X297518164Y-118183481D01*
X297491184Y-118223860D01*
X297476000Y-118300194D01*
X297476000Y-119474806D01*
X297491184Y-119551140D01*
X297526221Y-119603576D01*
X297526352Y-119605572D01*
X297524689Y-119606683D01*
X297523272Y-119606219D01*
X297505862Y-119591611D01*
X297505085Y-119592537D01*
X297503206Y-119593222D01*
X297502173Y-119592700D01*
X297478727Y-119570348D01*
X297410719Y-119557247D01*
X297346245Y-119583066D01*
X297334891Y-119594066D01*
X297332951Y-119594553D01*
X297331559Y-119593117D01*
X297331836Y-119591519D01*
X297358816Y-119551140D01*
X297374000Y-119474806D01*
X297374000Y-118300194D01*
X297358816Y-118223860D01*
X297323779Y-118171424D01*
X297323648Y-118169428D01*
X297325311Y-118168317D01*
X297326728Y-118168781D01*
G37*
G36*
X294326728Y-118168781D02*
G01*
X294344138Y-118183389D01*
X294344915Y-118182463D01*
X294346794Y-118181778D01*
X294347827Y-118182300D01*
X294371273Y-118204652D01*
X294439281Y-118217753D01*
X294503755Y-118191934D01*
X294515109Y-118180934D01*
X294517049Y-118180447D01*
X294518441Y-118181883D01*
X294518164Y-118183481D01*
X294491184Y-118223860D01*
X294476000Y-118300194D01*
X294476000Y-119474806D01*
X294491184Y-119551140D01*
X294526221Y-119603576D01*
X294526352Y-119605572D01*
X294524689Y-119606683D01*
X294523272Y-119606219D01*
X294505862Y-119591611D01*
X294505085Y-119592537D01*
X294503206Y-119593222D01*
X294502173Y-119592700D01*
X294478727Y-119570348D01*
X294410719Y-119557247D01*
X294346245Y-119583066D01*
X294334891Y-119594066D01*
X294332951Y-119594553D01*
X294331559Y-119593117D01*
X294331836Y-119591519D01*
X294358816Y-119551140D01*
X294374000Y-119474806D01*
X294374000Y-118300194D01*
X294358816Y-118223860D01*
X294323779Y-118171424D01*
X294323648Y-118169428D01*
X294325311Y-118168317D01*
X294326728Y-118168781D01*
G37*
G36*
X296826728Y-118168781D02*
G01*
X296844138Y-118183389D01*
X296844915Y-118182463D01*
X296846794Y-118181778D01*
X296847827Y-118182300D01*
X296871273Y-118204652D01*
X296939281Y-118217753D01*
X297003755Y-118191934D01*
X297015109Y-118180934D01*
X297017049Y-118180447D01*
X297018441Y-118181883D01*
X297018164Y-118183481D01*
X296991184Y-118223860D01*
X296976000Y-118300194D01*
X296976000Y-119474806D01*
X296991184Y-119551140D01*
X297026221Y-119603576D01*
X297026352Y-119605572D01*
X297024689Y-119606683D01*
X297023272Y-119606219D01*
X297005862Y-119591611D01*
X297005085Y-119592537D01*
X297003206Y-119593222D01*
X297002173Y-119592700D01*
X296978727Y-119570348D01*
X296910719Y-119557247D01*
X296846245Y-119583066D01*
X296834891Y-119594066D01*
X296832951Y-119594553D01*
X296831559Y-119593117D01*
X296831836Y-119591519D01*
X296858816Y-119551140D01*
X296874000Y-119474806D01*
X296874000Y-118300194D01*
X296858816Y-118223860D01*
X296823779Y-118171424D01*
X296823648Y-118169428D01*
X296825311Y-118168317D01*
X296826728Y-118168781D01*
G37*
G36*
X293826728Y-118168781D02*
G01*
X293844138Y-118183389D01*
X293844915Y-118182463D01*
X293846794Y-118181778D01*
X293847827Y-118182300D01*
X293871273Y-118204652D01*
X293939281Y-118217753D01*
X294003755Y-118191934D01*
X294015109Y-118180934D01*
X294017049Y-118180447D01*
X294018441Y-118181883D01*
X294018164Y-118183481D01*
X293991184Y-118223860D01*
X293976000Y-118300194D01*
X293976000Y-119474806D01*
X293991184Y-119551140D01*
X294026221Y-119603576D01*
X294026352Y-119605572D01*
X294024689Y-119606683D01*
X294023272Y-119606219D01*
X294005862Y-119591611D01*
X294005085Y-119592537D01*
X294003206Y-119593222D01*
X294002173Y-119592700D01*
X293978727Y-119570348D01*
X293910719Y-119557247D01*
X293846245Y-119583066D01*
X293834891Y-119594066D01*
X293832951Y-119594553D01*
X293831559Y-119593117D01*
X293831836Y-119591519D01*
X293858816Y-119551140D01*
X293874000Y-119474806D01*
X293874000Y-118300194D01*
X293858816Y-118223860D01*
X293823779Y-118171424D01*
X293823648Y-118169428D01*
X293825311Y-118168317D01*
X293826728Y-118168781D01*
G37*
G36*
X294899267Y-93728301D02*
G01*
X294950946Y-93771489D01*
X295019661Y-93780120D01*
X295082291Y-93750156D01*
X295100348Y-93729318D01*
X295102238Y-93728664D01*
X295103749Y-93729974D01*
X295103821Y-93731018D01*
X295101000Y-93745199D01*
X295101000Y-94804801D01*
X295103978Y-94819774D01*
X295103335Y-94821668D01*
X295101373Y-94822058D01*
X295100733Y-94821699D01*
X295049054Y-94778511D01*
X294980339Y-94769880D01*
X294917709Y-94799844D01*
X294899652Y-94820682D01*
X294897762Y-94821336D01*
X294896251Y-94820026D01*
X294896179Y-94818982D01*
X294899000Y-94804801D01*
X294899000Y-93745199D01*
X294896022Y-93730226D01*
X294896665Y-93728332D01*
X294898627Y-93727942D01*
X294899267Y-93728301D01*
G37*
G36*
X293949267Y-93728301D02*
G01*
X294000946Y-93771489D01*
X294069661Y-93780120D01*
X294132291Y-93750156D01*
X294150348Y-93729318D01*
X294152238Y-93728664D01*
X294153749Y-93729974D01*
X294153821Y-93731018D01*
X294151000Y-93745199D01*
X294151000Y-94804801D01*
X294153978Y-94819774D01*
X294153335Y-94821668D01*
X294151373Y-94822058D01*
X294150733Y-94821699D01*
X294099054Y-94778511D01*
X294030339Y-94769880D01*
X293967709Y-94799844D01*
X293949652Y-94820682D01*
X293947762Y-94821336D01*
X293946251Y-94820026D01*
X293946179Y-94818982D01*
X293949000Y-94804801D01*
X293949000Y-93745199D01*
X293946022Y-93730226D01*
X293946665Y-93728332D01*
X293948627Y-93727942D01*
X293949267Y-93728301D01*
G37*
G36*
X293949267Y-91528301D02*
G01*
X294000946Y-91571489D01*
X294069661Y-91580120D01*
X294132291Y-91550156D01*
X294150348Y-91529318D01*
X294152238Y-91528664D01*
X294153749Y-91529974D01*
X294153821Y-91531018D01*
X294151000Y-91545199D01*
X294151000Y-92604801D01*
X294153978Y-92619774D01*
X294153335Y-92621668D01*
X294151373Y-92622058D01*
X294150733Y-92621699D01*
X294099054Y-92578511D01*
X294030339Y-92569880D01*
X293967709Y-92599844D01*
X293949652Y-92620682D01*
X293947762Y-92621336D01*
X293946251Y-92620026D01*
X293946179Y-92618982D01*
X293949000Y-92604801D01*
X293949000Y-91545199D01*
X293946022Y-91530226D01*
X293946665Y-91528332D01*
X293948627Y-91527942D01*
X293949267Y-91528301D01*
G37*
G36*
X294899267Y-91528301D02*
G01*
X294950946Y-91571489D01*
X295019661Y-91580120D01*
X295082291Y-91550156D01*
X295100348Y-91529318D01*
X295102238Y-91528664D01*
X295103749Y-91529974D01*
X295103821Y-91531018D01*
X295101000Y-91545199D01*
X295101000Y-92604801D01*
X295103978Y-92619774D01*
X295103335Y-92621668D01*
X295101373Y-92622058D01*
X295100733Y-92621699D01*
X295049054Y-92578511D01*
X294980339Y-92569880D01*
X294917709Y-92599844D01*
X294899652Y-92620682D01*
X294897762Y-92621336D01*
X294896251Y-92620026D01*
X294896179Y-92618982D01*
X294899000Y-92604801D01*
X294899000Y-91545199D01*
X294896022Y-91530226D01*
X294896665Y-91528332D01*
X294898627Y-91527942D01*
X294899267Y-91528301D01*
G37*
G36*
X293993692Y-87086959D02*
G01*
X294004425Y-87094130D01*
X294070788Y-87114911D01*
X294141589Y-87094121D01*
X294152308Y-87086959D01*
X294154304Y-87086828D01*
X294155415Y-87088491D01*
X294155082Y-87089733D01*
X294131476Y-87125061D01*
X294122000Y-87172699D01*
X294122000Y-88472301D01*
X294131476Y-88519939D01*
X294155082Y-88555267D01*
X294155213Y-88557263D01*
X294153550Y-88558374D01*
X294152308Y-88558041D01*
X294141575Y-88550870D01*
X294075212Y-88530089D01*
X294004411Y-88550879D01*
X293993692Y-88558041D01*
X293991696Y-88558172D01*
X293990585Y-88556509D01*
X293990918Y-88555267D01*
X294014524Y-88519939D01*
X294024000Y-88472301D01*
X294024000Y-87172699D01*
X294014524Y-87125061D01*
X293990918Y-87089733D01*
X293990787Y-87087737D01*
X293992450Y-87086626D01*
X293993692Y-87086959D01*
G37*
G36*
X294993693Y-87086960D02*
G01*
X295006425Y-87095467D01*
X295072789Y-87116247D01*
X295143589Y-87095458D01*
X295156307Y-87086960D01*
X295158303Y-87086829D01*
X295159414Y-87088492D01*
X295159081Y-87089734D01*
X295135476Y-87125061D01*
X295126000Y-87172699D01*
X295126000Y-88472301D01*
X295135476Y-88519939D01*
X295159081Y-88555266D01*
X295159212Y-88557262D01*
X295157549Y-88558373D01*
X295156307Y-88558040D01*
X295143575Y-88549533D01*
X295077211Y-88528753D01*
X295006411Y-88549542D01*
X294993693Y-88558040D01*
X294991697Y-88558171D01*
X294990586Y-88556508D01*
X294990919Y-88555266D01*
X295014524Y-88519939D01*
X295024000Y-88472301D01*
X295024000Y-87172699D01*
X295014524Y-87125061D01*
X294990919Y-87089734D01*
X294990788Y-87087738D01*
X294992451Y-87086627D01*
X294993693Y-87086960D01*
G37*
G36*
X295993693Y-87086960D02*
G01*
X296006425Y-87095467D01*
X296072789Y-87116247D01*
X296143589Y-87095458D01*
X296156307Y-87086960D01*
X296158303Y-87086829D01*
X296159414Y-87088492D01*
X296159081Y-87089734D01*
X296135476Y-87125061D01*
X296126000Y-87172699D01*
X296126000Y-88472301D01*
X296135476Y-88519939D01*
X296159081Y-88555266D01*
X296159212Y-88557262D01*
X296157549Y-88558373D01*
X296156307Y-88558040D01*
X296143575Y-88549533D01*
X296077211Y-88528753D01*
X296006411Y-88549542D01*
X295993693Y-88558040D01*
X295991697Y-88558171D01*
X295990586Y-88556508D01*
X295990919Y-88555266D01*
X296014524Y-88519939D01*
X296024000Y-88472301D01*
X296024000Y-87172699D01*
X296014524Y-87125061D01*
X295990919Y-87089734D01*
X295990788Y-87087738D01*
X295992451Y-87086627D01*
X295993693Y-87086960D01*
G37*
G36*
X294489692Y-87086960D02*
G01*
X294504425Y-87096803D01*
X294570789Y-87117583D01*
X294641589Y-87096794D01*
X294656308Y-87086960D01*
X294658304Y-87086829D01*
X294659415Y-87088492D01*
X294659082Y-87089734D01*
X294635476Y-87125061D01*
X294626000Y-87172699D01*
X294626000Y-88472301D01*
X294635476Y-88519939D01*
X294659082Y-88555266D01*
X294659213Y-88557262D01*
X294657550Y-88558373D01*
X294656308Y-88558040D01*
X294641575Y-88548197D01*
X294575211Y-88527417D01*
X294504411Y-88548206D01*
X294489692Y-88558040D01*
X294487696Y-88558171D01*
X294486585Y-88556508D01*
X294486918Y-88555266D01*
X294510524Y-88519939D01*
X294520000Y-88472301D01*
X294520000Y-87172699D01*
X294510524Y-87125061D01*
X294486918Y-87089734D01*
X294486787Y-87087738D01*
X294488450Y-87086627D01*
X294489692Y-87086960D01*
G37*
G36*
X292993693Y-87086960D02*
G01*
X293006425Y-87095467D01*
X293072789Y-87116247D01*
X293143589Y-87095458D01*
X293156307Y-87086960D01*
X293158303Y-87086829D01*
X293159414Y-87088492D01*
X293159081Y-87089734D01*
X293135476Y-87125061D01*
X293126000Y-87172699D01*
X293126000Y-88472301D01*
X293135476Y-88519939D01*
X293159081Y-88555266D01*
X293159212Y-88557262D01*
X293157549Y-88558373D01*
X293156307Y-88558040D01*
X293143575Y-88549533D01*
X293077211Y-88528753D01*
X293006411Y-88549542D01*
X292993693Y-88558040D01*
X292991697Y-88558171D01*
X292990586Y-88556508D01*
X292990919Y-88555266D01*
X293014524Y-88519939D01*
X293024000Y-88472301D01*
X293024000Y-87172699D01*
X293014524Y-87125061D01*
X292990919Y-87089734D01*
X292990788Y-87087738D01*
X292992451Y-87086627D01*
X292993693Y-87086960D01*
G37*
G36*
X295493693Y-87086960D02*
G01*
X295506425Y-87095467D01*
X295572789Y-87116247D01*
X295643589Y-87095458D01*
X295656307Y-87086960D01*
X295658303Y-87086829D01*
X295659414Y-87088492D01*
X295659081Y-87089734D01*
X295635476Y-87125061D01*
X295626000Y-87172699D01*
X295626000Y-88472301D01*
X295635476Y-88519939D01*
X295659081Y-88555266D01*
X295659212Y-88557262D01*
X295657549Y-88558373D01*
X295656307Y-88558040D01*
X295643575Y-88549533D01*
X295577211Y-88528753D01*
X295506411Y-88549542D01*
X295493693Y-88558040D01*
X295491697Y-88558171D01*
X295490586Y-88556508D01*
X295490919Y-88555266D01*
X295514524Y-88519939D01*
X295524000Y-88472301D01*
X295524000Y-87172699D01*
X295514524Y-87125061D01*
X295490919Y-87089734D01*
X295490788Y-87087738D01*
X295492451Y-87086627D01*
X295493693Y-87086960D01*
G37*
G36*
X293493693Y-87086960D02*
G01*
X293506425Y-87095467D01*
X293572789Y-87116247D01*
X293643589Y-87095458D01*
X293656307Y-87086960D01*
X293658303Y-87086829D01*
X293659414Y-87088492D01*
X293659081Y-87089734D01*
X293635476Y-87125061D01*
X293626000Y-87172699D01*
X293626000Y-88472301D01*
X293635476Y-88519939D01*
X293659081Y-88555266D01*
X293659212Y-88557262D01*
X293657549Y-88558373D01*
X293656307Y-88558040D01*
X293643575Y-88549533D01*
X293577211Y-88528753D01*
X293506411Y-88549542D01*
X293493693Y-88558040D01*
X293491697Y-88558171D01*
X293490586Y-88556508D01*
X293490919Y-88555266D01*
X293514524Y-88519939D01*
X293524000Y-88472301D01*
X293524000Y-87172699D01*
X293514524Y-87125061D01*
X293490919Y-87089734D01*
X293490788Y-87087738D01*
X293492451Y-87086627D01*
X293493693Y-87086960D01*
G37*
G36*
X297326728Y-87116282D02*
G01*
X297344136Y-87130889D01*
X297344913Y-87129963D01*
X297346792Y-87129278D01*
X297347825Y-87129800D01*
X297371270Y-87152152D01*
X297439278Y-87165255D01*
X297503753Y-87139438D01*
X297515109Y-87128437D01*
X297517049Y-87127950D01*
X297518441Y-87129386D01*
X297518164Y-87130984D01*
X297491185Y-87171360D01*
X297476000Y-87247699D01*
X297476000Y-88397301D01*
X297491185Y-88473640D01*
X297526221Y-88526074D01*
X297526352Y-88528070D01*
X297524689Y-88529181D01*
X297523272Y-88528717D01*
X297505864Y-88514111D01*
X297505087Y-88515037D01*
X297503208Y-88515722D01*
X297502175Y-88515200D01*
X297478730Y-88492848D01*
X297410722Y-88479745D01*
X297346247Y-88505562D01*
X297334891Y-88516563D01*
X297332951Y-88517050D01*
X297331559Y-88515614D01*
X297331836Y-88514016D01*
X297358815Y-88473640D01*
X297374000Y-88397301D01*
X297374000Y-87247699D01*
X297358815Y-87171360D01*
X297323779Y-87118925D01*
X297323648Y-87116929D01*
X297325311Y-87115818D01*
X297326728Y-87116282D01*
G37*
G36*
X296518276Y-87125683D02*
G01*
X296568449Y-87167614D01*
X296637164Y-87176246D01*
X296699846Y-87146257D01*
X296710662Y-87135068D01*
X296712585Y-87134518D01*
X296714023Y-87135908D01*
X296713763Y-87137569D01*
X296691185Y-87171360D01*
X296676000Y-87247699D01*
X296676000Y-88397301D01*
X296691185Y-88473640D01*
X296726221Y-88526074D01*
X296726352Y-88528070D01*
X296724689Y-88529181D01*
X296723272Y-88528717D01*
X296706464Y-88514614D01*
X296706370Y-88514529D01*
X296672741Y-88482464D01*
X296604734Y-88469356D01*
X296540309Y-88495148D01*
X296518559Y-88518648D01*
X296516648Y-88519240D01*
X296515181Y-88517882D01*
X296515129Y-88516900D01*
X296524000Y-88472301D01*
X296524000Y-87172699D01*
X296515031Y-87127608D01*
X296515674Y-87125714D01*
X296517636Y-87125324D01*
X296518276Y-87125683D01*
G37*
G36*
X291626728Y-87116282D02*
G01*
X291644136Y-87130889D01*
X291644913Y-87129963D01*
X291646792Y-87129278D01*
X291647825Y-87129800D01*
X291671270Y-87152152D01*
X291739278Y-87165255D01*
X291803753Y-87139438D01*
X291815109Y-87128437D01*
X291817049Y-87127950D01*
X291818441Y-87129386D01*
X291818164Y-87130984D01*
X291791185Y-87171360D01*
X291776000Y-87247699D01*
X291776000Y-88397301D01*
X291791185Y-88473640D01*
X291826221Y-88526074D01*
X291826352Y-88528070D01*
X291824689Y-88529181D01*
X291823272Y-88528717D01*
X291805864Y-88514111D01*
X291805087Y-88515037D01*
X291803208Y-88515722D01*
X291802175Y-88515200D01*
X291778730Y-88492848D01*
X291710722Y-88479745D01*
X291646247Y-88505562D01*
X291634891Y-88516563D01*
X291632951Y-88517050D01*
X291631559Y-88515614D01*
X291631836Y-88514016D01*
X291658815Y-88473640D01*
X291674000Y-88397301D01*
X291674000Y-87247699D01*
X291658815Y-87171360D01*
X291623779Y-87118925D01*
X291623648Y-87116929D01*
X291625311Y-87115818D01*
X291626728Y-87116282D01*
G37*
G36*
X292426728Y-87116283D02*
G01*
X292443536Y-87130386D01*
X292443630Y-87130471D01*
X292477259Y-87162536D01*
X292545266Y-87175644D01*
X292609691Y-87149852D01*
X292631441Y-87126352D01*
X292633352Y-87125760D01*
X292634819Y-87127118D01*
X292634871Y-87128100D01*
X292626000Y-87172699D01*
X292626000Y-88472301D01*
X292634969Y-88517392D01*
X292634326Y-88519286D01*
X292632364Y-88519676D01*
X292631724Y-88519317D01*
X292581551Y-88477386D01*
X292512836Y-88468754D01*
X292450154Y-88498743D01*
X292439338Y-88509932D01*
X292437415Y-88510482D01*
X292435977Y-88509092D01*
X292436237Y-88507431D01*
X292458815Y-88473640D01*
X292474000Y-88397301D01*
X292474000Y-87247699D01*
X292458815Y-87171360D01*
X292423779Y-87118926D01*
X292423648Y-87116930D01*
X292425311Y-87115819D01*
X292426728Y-87116283D01*
G37*
G36*
X298275436Y-86973016D02*
G01*
X298276000Y-86974408D01*
X298276000Y-87597368D01*
X298296428Y-87752528D01*
X298356265Y-87896990D01*
X298433565Y-87997728D01*
X298433826Y-87999711D01*
X298432239Y-88000929D01*
X298430603Y-88000398D01*
X298413209Y-87983921D01*
X298412911Y-87983566D01*
X298404017Y-87970000D01*
X298351037Y-87924934D01*
X298282397Y-87915703D01*
X298219662Y-87945048D01*
X298182669Y-88003783D01*
X298177981Y-88037478D01*
X298176752Y-88039055D01*
X298174771Y-88038780D01*
X298174000Y-88037202D01*
X298174000Y-87247699D01*
X298158815Y-87171360D01*
X298115686Y-87106814D01*
X298067465Y-87074593D01*
X298066580Y-87072799D01*
X298067691Y-87071136D01*
X298069260Y-87071051D01*
X298094721Y-87080318D01*
X298095162Y-87079948D01*
X298096312Y-87080085D01*
X298133440Y-87096333D01*
X298201828Y-87085391D01*
X298253452Y-87039205D01*
X298272077Y-86973860D01*
X298273513Y-86972468D01*
X298275436Y-86973016D01*
G37*
G36*
X290877919Y-86976684D02*
G01*
X290897596Y-87043699D01*
X290949939Y-87089054D01*
X291018593Y-87098925D01*
X291061009Y-87084244D01*
X291062973Y-87084622D01*
X291063627Y-87086512D01*
X291062774Y-87087797D01*
X291034314Y-87106814D01*
X290991185Y-87171360D01*
X290976000Y-87247699D01*
X290976000Y-88035625D01*
X290975000Y-88037357D01*
X290973000Y-88037357D01*
X290972081Y-88036188D01*
X290952404Y-87969173D01*
X290900061Y-87923818D01*
X290831508Y-87913961D01*
X290768307Y-87942824D01*
X290755215Y-87956045D01*
X290737074Y-87977398D01*
X290735191Y-87978070D01*
X290733666Y-87976776D01*
X290733963Y-87974885D01*
X290793735Y-87896990D01*
X290853572Y-87752528D01*
X290874000Y-87597368D01*
X290874000Y-86977247D01*
X290875000Y-86975515D01*
X290877000Y-86975515D01*
X290877919Y-86976684D01*
G37*
G36*
X297650957Y-86819450D02*
G01*
X297651737Y-86821291D01*
X297651236Y-86822386D01*
X297609902Y-86868154D01*
X297598640Y-86936490D01*
X297626111Y-87000067D01*
X297683710Y-87038779D01*
X297720942Y-87044523D01*
X297722501Y-87045776D01*
X297722196Y-87047752D01*
X297720637Y-87048500D01*
X297675199Y-87048500D01*
X297598860Y-87063685D01*
X297546427Y-87098720D01*
X297544431Y-87098851D01*
X297543320Y-87097188D01*
X297543784Y-87095771D01*
X297558408Y-87078343D01*
X297557741Y-87076514D01*
X297558264Y-87075481D01*
X297583497Y-87049019D01*
X297596606Y-86981012D01*
X297570867Y-86916714D01*
X297514342Y-86876459D01*
X297476348Y-86869711D01*
X297474200Y-86869672D01*
X297472486Y-86868640D01*
X297472522Y-86866641D01*
X297474095Y-86865677D01*
X297552301Y-86860140D01*
X297648972Y-86819204D01*
X297650957Y-86819450D01*
G37*
G36*
X291436033Y-86773815D02*
G01*
X291531105Y-86837340D01*
X291649806Y-86868813D01*
X291662898Y-86867886D01*
X291664696Y-86868761D01*
X291664837Y-86870756D01*
X291663567Y-86871810D01*
X291605720Y-86887649D01*
X291559415Y-86939151D01*
X291548303Y-87007513D01*
X291575998Y-87071220D01*
X291588895Y-87084149D01*
X291589410Y-87086081D01*
X291587994Y-87087493D01*
X291586368Y-87087224D01*
X291551140Y-87063685D01*
X291474801Y-87048500D01*
X291428462Y-87048500D01*
X291426730Y-87047500D01*
X291426730Y-87045500D01*
X291427899Y-87044581D01*
X291494914Y-87024904D01*
X291540269Y-86972561D01*
X291550126Y-86904008D01*
X291521288Y-86840864D01*
X291496504Y-86819036D01*
X291434126Y-86777514D01*
X291433703Y-86777136D01*
X291433391Y-86776765D01*
X291433042Y-86774796D01*
X291434573Y-86773509D01*
X291436033Y-86773815D01*
G37*
M02*
