%TF.GenerationSoftware,KiCad,Pcbnew,(5.99.0-9176-ga1730d51ff)*%
%TF.CreationDate,2021-03-09T20:14:39-06:00*%
%TF.ProjectId,Fur Elise,46757220-456c-4697-9365-2e6b69636164,rev?*%
%TF.SameCoordinates,Original*%
%TF.FileFunction,Paste,Bot*%
%TF.FilePolarity,Positive*%
%FSLAX46Y46*%
G04 Gerber Fmt 4.6, Leading zero omitted, Abs format (unit mm)*
G04 Created by KiCad (PCBNEW (5.99.0-9176-ga1730d51ff)) date 2021-03-09 20:14:39*
%MOMM*%
%LPD*%
G01*
G04 APERTURE LIST*
G04 Aperture macros list*
%AMRoundRect*
0 Rectangle with rounded corners*
0 $1 Rounding radius*
0 $2 $3 $4 $5 $6 $7 $8 $9 X,Y pos of 4 corners*
0 Add a 4 corners polygon primitive as box body*
4,1,4,$2,$3,$4,$5,$6,$7,$8,$9,$2,$3,0*
0 Add four circle primitives for the rounded corners*
1,1,$1+$1,$2,$3*
1,1,$1+$1,$4,$5*
1,1,$1+$1,$6,$7*
1,1,$1+$1,$8,$9*
0 Add four rect primitives between the rounded corners*
20,1,$1+$1,$2,$3,$4,$5,0*
20,1,$1+$1,$4,$5,$6,$7,0*
20,1,$1+$1,$6,$7,$8,$9,0*
20,1,$1+$1,$8,$9,$2,$3,0*%
%AMRotRect*
0 Rectangle, with rotation*
0 The origin of the aperture is its center*
0 $1 length*
0 $2 width*
0 $3 Rotation angle, in degrees counterclockwise*
0 Add horizontal line*
21,1,$1,$2,0,0,$3*%
G04 Aperture macros list end*
%ADD10RotRect,2.550000X2.500000X352.000000*%
%ADD11RotRect,2.550000X2.500000X8.000000*%
%ADD12R,2.550000X2.500000*%
%ADD13RoundRect,0.250000X0.311801X-0.296278X0.381387X0.198856X-0.311801X0.296278X-0.381387X-0.198856X0*%
%ADD14RoundRect,0.250000X0.350000X-0.250000X0.350000X0.250000X-0.350000X0.250000X-0.350000X-0.250000X0*%
%ADD15RoundRect,0.250000X0.450000X-0.325000X0.450000X0.325000X-0.450000X0.325000X-0.450000X-0.325000X0*%
%ADD16RoundRect,0.250000X0.250000X0.350000X-0.250000X0.350000X-0.250000X-0.350000X0.250000X-0.350000X0*%
%ADD17RoundRect,0.250000X0.381387X-0.198856X0.311801X0.296278X-0.381387X0.198856X-0.311801X-0.296278X0*%
%ADD18RoundRect,0.250000X0.325000X0.450000X-0.325000X0.450000X-0.325000X-0.450000X0.325000X-0.450000X0*%
%ADD19RoundRect,0.250001X0.624999X-0.462499X0.624999X0.462499X-0.624999X0.462499X-0.624999X-0.462499X0*%
%ADD20RoundRect,0.150000X-0.150000X-0.575000X0.150000X-0.575000X0.150000X0.575000X-0.150000X0.575000X0*%
%ADD21RoundRect,0.075000X-0.075000X-0.650000X0.075000X-0.650000X0.075000X0.650000X-0.075000X0.650000X0*%
%ADD22R,0.650000X1.060000*%
%ADD23RoundRect,0.147500X-0.172500X0.147500X-0.172500X-0.147500X0.172500X-0.147500X0.172500X0.147500X0*%
%ADD24RoundRect,0.147500X-0.147500X-0.172500X0.147500X-0.172500X0.147500X0.172500X-0.147500X0.172500X0*%
%ADD25R,0.300000X1.475000*%
%ADD26RoundRect,0.150000X0.000000X0.587500X0.000000X-0.587500X0.000000X-0.587500X0.000000X0.587500X0*%
%ADD27RoundRect,0.150000X-0.587500X0.000000X-0.587500X0.000000X0.587500X0.000000X0.587500X0.000000X0*%
%ADD28RoundRect,0.250000X-0.350000X0.250000X-0.350000X-0.250000X0.350000X-0.250000X0.350000X0.250000X0*%
%ADD29RoundRect,0.250000X-0.325000X-0.450000X0.325000X-0.450000X0.325000X0.450000X-0.325000X0.450000X0*%
%ADD30RoundRect,0.147500X0.147500X0.172500X-0.147500X0.172500X-0.147500X-0.172500X0.147500X-0.172500X0*%
%ADD31RoundRect,0.250001X-0.462499X-0.624999X0.462499X-0.624999X0.462499X0.624999X-0.462499X0.624999X0*%
%ADD32R,0.800000X0.900000*%
%ADD33RoundRect,0.250000X-1.450000X0.312500X-1.450000X-0.312500X1.450000X-0.312500X1.450000X0.312500X0*%
%ADD34R,0.900000X0.800000*%
%ADD35R,1.550000X1.300000*%
G04 APERTURE END LIST*
D10*
%TO.C,SW35*%
X287910586Y-134071637D03*
X273841873Y-134659370D03*
%TD*%
D11*
%TO.C,SW48*%
X329168587Y-149440439D03*
X315806874Y-153883268D03*
%TD*%
D12*
%TO.C,SW43*%
X476190000Y-123507500D03*
X462340000Y-126047500D03*
%TD*%
D11*
%TO.C,SW38*%
X352434987Y-126885239D03*
X339073274Y-131328068D03*
%TD*%
%TO.C,SW36*%
X314708149Y-132168439D03*
X301346436Y-136611268D03*
%TD*%
D10*
%TO.C,SW19*%
X224512186Y-105928437D03*
X210443473Y-106516170D03*
%TD*%
D11*
%TO.C,SW49*%
X362188587Y-144766839D03*
X348826874Y-149209668D03*
%TD*%
D10*
%TO.C,SW34*%
X269012986Y-131430037D03*
X254944273Y-132017770D03*
%TD*%
%TO.C,SW20*%
X243358986Y-108570037D03*
X229290273Y-109157770D03*
%TD*%
D11*
%TO.C,SW25*%
X359240537Y-106706539D03*
X345878824Y-111149368D03*
%TD*%
D12*
%TO.C,SW2*%
X182820000Y-85090000D03*
X168970000Y-87630000D03*
%TD*%
D11*
%TO.C,SW24*%
X340346787Y-109362789D03*
X326985074Y-113805618D03*
%TD*%
%TO.C,SW39*%
X371332587Y-124269039D03*
X357970874Y-128711868D03*
%TD*%
D12*
%TO.C,SW28*%
X425034400Y-104343200D03*
X411184400Y-106883200D03*
%TD*%
%TO.C,SW42*%
X432476600Y-123545600D03*
X418626600Y-126085600D03*
%TD*%
%TO.C,SW27*%
X398852500Y-104307500D03*
X385002500Y-106847500D03*
%TD*%
%TO.C,SW54*%
X495214600Y-142798800D03*
X481364600Y-145338800D03*
%TD*%
%TO.C,SW29*%
X152340000Y-123545600D03*
X138490000Y-126085600D03*
%TD*%
D11*
%TO.C,SW10*%
X351842949Y-88480439D03*
X338481236Y-92923268D03*
%TD*%
D12*
%TO.C,SW30*%
X184445600Y-123545600D03*
X170595600Y-126085600D03*
%TD*%
%TO.C,SW17*%
X182616800Y-104343200D03*
X168766800Y-106883200D03*
%TD*%
%TO.C,SW40*%
X391963600Y-123545600D03*
X378113600Y-126085600D03*
%TD*%
D11*
%TO.C,SW26*%
X378096787Y-104062789D03*
X364735074Y-108505618D03*
%TD*%
D10*
%TO.C,SW7*%
X279072748Y-94396837D03*
X265004035Y-94984570D03*
%TD*%
D12*
%TO.C,SW15*%
X476190000Y-94691200D03*
X462340000Y-97231200D03*
%TD*%
%TO.C,SW50*%
X406543200Y-142798800D03*
X392693200Y-145338800D03*
%TD*%
%TO.C,SW45*%
X205521250Y-142557500D03*
X191671250Y-145097500D03*
%TD*%
%TO.C,SW13*%
X410454800Y-85090000D03*
X396604800Y-87630000D03*
%TD*%
D10*
%TO.C,SW5*%
X241336458Y-89062837D03*
X227267745Y-89650570D03*
%TD*%
D12*
%TO.C,SW14*%
X429504800Y-85090000D03*
X415654800Y-87630000D03*
%TD*%
D11*
%TO.C,SW8*%
X314174749Y-93789039D03*
X300813036Y-98231868D03*
%TD*%
D12*
%TO.C,SW44*%
X181708750Y-142557500D03*
X167858750Y-145097500D03*
%TD*%
%TO.C,SW31*%
X210658400Y-123545600D03*
X196808400Y-126085600D03*
%TD*%
D11*
%TO.C,SW9*%
X332970749Y-91122039D03*
X319609036Y-95564868D03*
%TD*%
%TO.C,SW11*%
X370740549Y-85838839D03*
X357378836Y-90281668D03*
%TD*%
D12*
%TO.C,SW12*%
X391404800Y-85090000D03*
X377554800Y-87630000D03*
%TD*%
D10*
%TO.C,SW21*%
X262255224Y-111266638D03*
X248186511Y-111854371D03*
%TD*%
%TO.C,SW46*%
X245136986Y-147330437D03*
X231068273Y-147918170D03*
%TD*%
%TO.C,SW32*%
X231268586Y-126146837D03*
X217199873Y-126734570D03*
%TD*%
D12*
%TO.C,SW18*%
X203933750Y-104343200D03*
X190083750Y-106883200D03*
%TD*%
D10*
%TO.C,SW47*%
X275820186Y-151648437D03*
X261751473Y-152236170D03*
%TD*%
%TO.C,SW6*%
X260189608Y-91752767D03*
X246120895Y-92340500D03*
%TD*%
D12*
%TO.C,SW1*%
X161865000Y-85090000D03*
X148015000Y-87630000D03*
%TD*%
D10*
%TO.C,SW22*%
X281103386Y-113904037D03*
X267034673Y-114491770D03*
%TD*%
D12*
%TO.C,SW16*%
X157102500Y-104292400D03*
X143252500Y-106832400D03*
%TD*%
%TO.C,SW3*%
X201870000Y-85090000D03*
X188020000Y-87630000D03*
%TD*%
D10*
%TO.C,SW33*%
X250166186Y-128788437D03*
X236097473Y-129376170D03*
%TD*%
D11*
%TO.C,SW37*%
X333554949Y-129526839D03*
X320193236Y-133969668D03*
%TD*%
%TO.C,SW23*%
X321498208Y-111979070D03*
X308136495Y-116421899D03*
%TD*%
D10*
%TO.C,SW4*%
X222454786Y-86395837D03*
X208386073Y-86983570D03*
%TD*%
D12*
%TO.C,SW53*%
X476190000Y-142798800D03*
X462340000Y-145338800D03*
%TD*%
%TO.C,SW41*%
X411039000Y-123545600D03*
X397189000Y-126085600D03*
%TD*%
%TO.C,SW52*%
X457140000Y-142798800D03*
X443290000Y-145338800D03*
%TD*%
%TO.C,SW51*%
X430368400Y-142798800D03*
X416518400Y-145338800D03*
%TD*%
D13*
%TO.C,D35*%
X272770364Y-143233942D03*
X273229636Y-139966058D03*
%TD*%
%TO.C,D5*%
X226020364Y-98133942D03*
X226479636Y-94866058D03*
%TD*%
D14*
%TO.C,D14*%
X415800000Y-96250000D03*
X415800000Y-92950000D03*
%TD*%
D13*
%TO.C,D32*%
X215970364Y-135233942D03*
X216429636Y-131966058D03*
%TD*%
D14*
%TO.C,D1*%
X148000000Y-96106250D03*
X148000000Y-92806250D03*
%TD*%
D13*
%TO.C,D47*%
X260570364Y-160833942D03*
X261029636Y-157566058D03*
%TD*%
D14*
%TO.C,D44*%
X167800000Y-153850000D03*
X167800000Y-150550000D03*
%TD*%
D15*
%TO.C,CSI1*%
X291872750Y-103637500D03*
X291872750Y-101587500D03*
%TD*%
D16*
%TO.C,DRST1*%
X296325000Y-153250000D03*
X293025000Y-153250000D03*
%TD*%
D13*
%TO.C,D20*%
X228170364Y-117633942D03*
X228629636Y-114366058D03*
%TD*%
D14*
%TO.C,D53*%
X462400000Y-153850000D03*
X462400000Y-150550000D03*
%TD*%
D17*
%TO.C,D9*%
X320829636Y-104233942D03*
X320370364Y-100966058D03*
%TD*%
D14*
%TO.C,D27*%
X385050000Y-115500000D03*
X385050000Y-112200000D03*
%TD*%
%TO.C,D42*%
X418600000Y-134650000D03*
X418600000Y-131350000D03*
%TD*%
%TO.C,D31*%
X196800000Y-134650000D03*
X196800000Y-131350000D03*
%TD*%
D17*
%TO.C,D36*%
X302629636Y-145233942D03*
X302170364Y-141966058D03*
%TD*%
%TO.C,D37*%
X321429636Y-142633942D03*
X320970364Y-139366058D03*
%TD*%
D13*
%TO.C,D34*%
X253770364Y-140433942D03*
X254229636Y-137166058D03*
%TD*%
%TO.C,D6*%
X244970364Y-100758942D03*
X245429636Y-97491058D03*
%TD*%
D14*
%TO.C,D28*%
X411200000Y-115450000D03*
X411200000Y-112150000D03*
%TD*%
%TO.C,D13*%
X396600000Y-96250000D03*
X396600000Y-92950000D03*
%TD*%
%TO.C,D15*%
X462400000Y-105850000D03*
X462400000Y-102550000D03*
%TD*%
%TO.C,D40*%
X378200000Y-134650000D03*
X378200000Y-131350000D03*
%TD*%
D18*
%TO.C,CRST1*%
X290750000Y-153450000D03*
X288700000Y-153450000D03*
%TD*%
D14*
%TO.C,D16*%
X143250000Y-115400000D03*
X143250000Y-112100000D03*
%TD*%
D19*
%TO.C,RF1*%
X289586750Y-104100000D03*
X289586750Y-101125000D03*
%TD*%
D20*
%TO.C,J1*%
X291325000Y-87822500D03*
X292125000Y-87822500D03*
D21*
X293325000Y-87822500D03*
X294321000Y-87822500D03*
X294825000Y-87822500D03*
X295825000Y-87822500D03*
D20*
X297825000Y-87822500D03*
X297025000Y-87822500D03*
D21*
X296325000Y-87822500D03*
X295325000Y-87822500D03*
X293825000Y-87822500D03*
X292825000Y-87822500D03*
%TD*%
D17*
%TO.C,D10*%
X339829636Y-101633942D03*
X339370364Y-98366058D03*
%TD*%
D14*
%TO.C,D2*%
X169000000Y-96150000D03*
X169000000Y-92850000D03*
%TD*%
D22*
%TO.C,U2*%
X295475000Y-94275000D03*
X294525000Y-94275000D03*
X293575000Y-94275000D03*
X293575000Y-92075000D03*
X294525000Y-92075000D03*
X295475000Y-92075000D03*
%TD*%
D23*
%TO.C,C3*%
X290275000Y-128140000D03*
X290275000Y-129110000D03*
%TD*%
D24*
%TO.C,C6*%
X296150000Y-115828500D03*
X297120000Y-115828500D03*
%TD*%
D25*
%TO.C,U3*%
X292675000Y-118887500D03*
D26*
X293175000Y-118887500D03*
X293675000Y-118887500D03*
X294175000Y-118887500D03*
X294675000Y-118887500D03*
X295175000Y-118887500D03*
X295675000Y-118887500D03*
X296175000Y-118887500D03*
X296675000Y-118887500D03*
X297175000Y-118887500D03*
X297675000Y-118887500D03*
X298175000Y-118887500D03*
D27*
X299587500Y-120300000D03*
X299587500Y-120800000D03*
X299587500Y-121300000D03*
X299587500Y-121800000D03*
X299587500Y-122300000D03*
X299587500Y-122800000D03*
X299587500Y-123300000D03*
X299587500Y-123800000D03*
X299587500Y-124300000D03*
X299587500Y-124800000D03*
X299587500Y-125300000D03*
X299587500Y-125800000D03*
D26*
X298175000Y-127212500D03*
X297675000Y-127212500D03*
X297175000Y-127212500D03*
X296675000Y-127212500D03*
X296175000Y-127212500D03*
X295675000Y-127212500D03*
X295175000Y-127212500D03*
X294675000Y-127212500D03*
X294175000Y-127212500D03*
X293675000Y-127212500D03*
X293175000Y-127212500D03*
X292675000Y-127212500D03*
D27*
X291262500Y-125800000D03*
X291262500Y-125300000D03*
X291262500Y-124800000D03*
X291262500Y-124300000D03*
X291262500Y-123800000D03*
X291262500Y-123300000D03*
X291262500Y-122800000D03*
X291262500Y-122300000D03*
X291262500Y-121800000D03*
X291262500Y-121300000D03*
X291262500Y-120800000D03*
X291262500Y-120300000D03*
%TD*%
D17*
%TO.C,D25*%
X347129636Y-119933942D03*
X346670364Y-116666058D03*
%TD*%
%TO.C,D26*%
X365929636Y-117158942D03*
X365470364Y-113891058D03*
%TD*%
D14*
%TO.C,D12*%
X377600000Y-96250000D03*
X377600000Y-92950000D03*
%TD*%
D28*
%TO.C,DLD1*%
X288967750Y-106204500D03*
X288967750Y-109504500D03*
%TD*%
D13*
%TO.C,D22*%
X265770364Y-123033942D03*
X266229636Y-119766058D03*
%TD*%
D23*
%TO.C,C4*%
X291450000Y-128140000D03*
X291450000Y-129110000D03*
%TD*%
D14*
%TO.C,D30*%
X170600000Y-134650000D03*
X170600000Y-131350000D03*
%TD*%
D13*
%TO.C,D33*%
X234970364Y-137833942D03*
X235429636Y-134566058D03*
%TD*%
%TO.C,D19*%
X209370364Y-115033942D03*
X209829636Y-111766058D03*
%TD*%
D29*
%TO.C,CRST2*%
X298925000Y-150825000D03*
X300975000Y-150825000D03*
%TD*%
D13*
%TO.C,D21*%
X246970364Y-120433942D03*
X247429636Y-117166058D03*
%TD*%
D30*
%TO.C,C1*%
X290035000Y-118275000D03*
X289065000Y-118275000D03*
%TD*%
D13*
%TO.C,D7*%
X263870364Y-103433942D03*
X264329636Y-100166058D03*
%TD*%
%TO.C,D4*%
X207270364Y-95383942D03*
X207729636Y-92116058D03*
%TD*%
D24*
%TO.C,C5*%
X296150000Y-114685500D03*
X297120000Y-114685500D03*
%TD*%
D17*
%TO.C,D24*%
X328279636Y-122458942D03*
X327820364Y-119191058D03*
%TD*%
D31*
%TO.C,RRST1*%
X298912500Y-153250000D03*
X301887500Y-153250000D03*
%TD*%
D29*
%TO.C,CS1*%
X291117750Y-110140500D03*
X293167750Y-110140500D03*
%TD*%
D24*
%TO.C,C7*%
X300340000Y-127322000D03*
X301310000Y-127322000D03*
%TD*%
D17*
%TO.C,D39*%
X359229636Y-137365192D03*
X358770364Y-134097308D03*
%TD*%
D32*
%TO.C,U1*%
X293031750Y-108219500D03*
X291131750Y-108219500D03*
X292081750Y-106219500D03*
%TD*%
D14*
%TO.C,D54*%
X481400000Y-153850000D03*
X481400000Y-150550000D03*
%TD*%
%TO.C,D17*%
X168750000Y-115400000D03*
X168750000Y-112100000D03*
%TD*%
D23*
%TO.C,R1*%
X293116000Y-89304000D03*
X293116000Y-90274000D03*
%TD*%
D14*
%TO.C,DF1*%
X287046750Y-104239100D03*
X287046750Y-100939100D03*
%TD*%
D17*
%TO.C,D48*%
X317029636Y-162433942D03*
X316570364Y-159166058D03*
%TD*%
D13*
%TO.C,D46*%
X229970364Y-156433942D03*
X230429636Y-153166058D03*
%TD*%
D33*
%TO.C,F1*%
X283617750Y-99967000D03*
X283617750Y-104242000D03*
%TD*%
D17*
%TO.C,D49*%
X350029636Y-157833942D03*
X349570364Y-154566058D03*
%TD*%
D34*
%TO.C,QRST1*%
X290725000Y-155825000D03*
X290725000Y-157725000D03*
X288725000Y-156775000D03*
%TD*%
D14*
%TO.C,D18*%
X190000000Y-115400000D03*
X190000000Y-112100000D03*
%TD*%
%TO.C,D52*%
X443400000Y-153850000D03*
X443400000Y-150550000D03*
%TD*%
D35*
%TO.C,SWRST1*%
X301000000Y-160325000D03*
X293050000Y-160325000D03*
X301000000Y-155825000D03*
X293050000Y-155825000D03*
%TD*%
D14*
%TO.C,D45*%
X191800000Y-153650000D03*
X191800000Y-150350000D03*
%TD*%
D17*
%TO.C,D38*%
X340429636Y-140033942D03*
X339970364Y-136766058D03*
%TD*%
D14*
%TO.C,D43*%
X462400000Y-134650000D03*
X462400000Y-131350000D03*
%TD*%
D17*
%TO.C,D23*%
X309487307Y-125056473D03*
X309028035Y-121788589D03*
%TD*%
D14*
%TO.C,D51*%
X416600000Y-153850000D03*
X416600000Y-150550000D03*
%TD*%
D17*
%TO.C,D8*%
X302029636Y-106833942D03*
X301570364Y-103566058D03*
%TD*%
D14*
%TO.C,D29*%
X138500000Y-134650000D03*
X138500000Y-131350000D03*
%TD*%
D24*
%TO.C,C8*%
X300340000Y-128472000D03*
X301310000Y-128472000D03*
%TD*%
D23*
%TO.C,R2*%
X296164000Y-89304000D03*
X296164000Y-90274000D03*
%TD*%
D30*
%TO.C,C2*%
X290035000Y-117100000D03*
X289065000Y-117100000D03*
%TD*%
D14*
%TO.C,D41*%
X397200000Y-134650000D03*
X397200000Y-131350000D03*
%TD*%
%TO.C,D3*%
X188000000Y-96150000D03*
X188000000Y-92850000D03*
%TD*%
%TO.C,D50*%
X392800000Y-153850000D03*
X392800000Y-150550000D03*
%TD*%
D17*
%TO.C,D11*%
X358629636Y-99033942D03*
X358170364Y-95766058D03*
%TD*%
M02*
