M48
; DRILL file {KiCad (5.99.0-9176-ga1730d51ff)} date 03/09/21 20:14:43
; FORMAT={-:-/ absolute / inch / decimal}
; #@! TF.CreationDate,2021-03-09T20:14:43-06:00
; #@! TF.GenerationSoftware,Kicad,Pcbnew,(5.99.0-9176-ga1730d51ff)
; #@! TF.FileFunction,NonPlated,1,2,NPTH
FMAT,2
INCH
T1C0.0256
T2C0.0670
T3C0.1181
T4C0.1570
%
G90
G05
T1
X11.4837Y-3.4054
X11.7112Y-3.4054
T2
X5.55Y-5.064
X5.7375Y-4.306
X5.925Y-3.55
X5.95Y-5.064
X6.1375Y-4.306
X6.325Y-3.55
X6.7062Y-5.8125
X6.742Y-4.308
X6.75Y-3.55
X6.814Y-5.064
X7.1063Y-5.8125
X7.142Y-4.308
X7.15Y-3.55
X7.214Y-5.064
X7.5Y-3.55
X7.5812Y-4.308
X7.6437Y-5.8125
X7.846Y-5.064
X7.9Y-3.55
X7.9813Y-4.308
X8.0437Y-5.8125
X8.246Y-5.064
X8.2869Y-3.5372
X8.3679Y-4.3062
X8.6339Y-5.1022
X8.6831Y-3.5928
X8.7641Y-4.3618
X9.0301Y-5.1578
X9.0303Y-3.6422
X9.1099Y-4.4102
X9.1799Y-5.9362
X9.3779Y-5.2062
X9.4264Y-3.6978
X9.5061Y-4.4658
X9.5761Y-5.9918
X9.7726Y-3.7481
X9.7741Y-5.2618
X9.8539Y-4.5163
X10.1199Y-5.3102
X10.1687Y-3.8037
X10.25Y-4.572
X10.3879Y-6.1062
X10.516Y-3.8522
X10.5161Y-5.3658
X10.5959Y-4.6202
X10.7841Y-6.1618
X10.8639Y-5.4142
X10.9121Y-3.9078
X10.9921Y-4.6758
X11.2601Y-5.4698
X11.9536Y-3.9528
X11.9746Y-5.4638
X12.242Y-4.669
X12.3497Y-3.8972
X12.3707Y-5.4082
X12.5439Y-6.1438
X12.6381Y-4.6133
X12.6936Y-3.8478
X12.7166Y-5.3598
X12.9401Y-6.0882
X12.984Y-4.566
X13.0897Y-3.7922
X13.1127Y-5.3042
X13.3801Y-4.5103
X13.4366Y-3.7438
X13.4599Y-5.2558
X13.7279Y-4.4614
X13.8327Y-3.6882
X13.8439Y-5.9598
X13.8561Y-5.2002
X14.124Y-4.4057
X14.1806Y-3.6398
X14.2039Y-5.1528
X14.2401Y-5.9042
X14.4703Y-4.3573
X14.5767Y-3.5842
X14.6001Y-5.0972
X14.8664Y-4.3016
X14.962Y-3.55
X14.984Y-5.064
X15.2552Y-4.3066
X15.362Y-3.55
X15.384Y-5.064
X15.558Y-5.822
X15.6552Y-4.3066
X15.712Y-3.55
X15.735Y-5.064
X15.958Y-5.822
X16.112Y-3.55
X16.135Y-5.064
X16.286Y-4.308
X16.462Y-3.55
X16.496Y-5.822
X16.579Y-5.064
X16.686Y-4.308
X16.862Y-3.55
X16.896Y-5.822
X16.979Y-5.064
X17.55Y-5.822
X17.95Y-5.822
X18.3Y-3.928
X18.3Y-5.0625
X18.3Y-5.822
X18.7Y-3.928
X18.7Y-5.0625
X18.7Y-5.822
X19.049Y-5.822
X19.449Y-5.822
T3
X5.6Y-4.964
X5.7875Y-4.206
X5.85Y-4.864
X5.975Y-3.45
X6.0375Y-4.106
X6.225Y-3.35
X6.7562Y-5.7125
X6.792Y-4.208
X6.8Y-3.45
X6.864Y-4.964
X7.0062Y-5.6125
X7.042Y-4.108
X7.05Y-3.35
X7.114Y-4.864
X7.55Y-3.45
X7.6312Y-4.208
X7.6937Y-5.7125
X7.8Y-3.35
X7.8812Y-4.108
X7.896Y-4.964
X7.9437Y-5.6125
X8.146Y-4.864
X8.3504Y-3.4451
X8.4314Y-4.2141
X8.6119Y-3.3809
X8.6929Y-4.1499
X8.6974Y-5.0101
X8.9589Y-4.9459
X9.0938Y-3.5501
X9.1734Y-4.3181
X9.2434Y-5.8441
X9.3552Y-3.4859
X9.4349Y-4.2539
X9.4414Y-5.1141
X9.5049Y-5.7799
X9.7029Y-5.0499
X9.836Y-3.656
X9.9173Y-4.4243
X10.0975Y-3.5918
X10.1788Y-4.36
X10.1834Y-5.2181
X10.4449Y-5.1539
X10.4514Y-6.0141
X10.5794Y-3.7601
X10.6594Y-4.5281
X10.7129Y-5.9499
X10.8409Y-3.6959
X10.9209Y-4.4639
X10.9274Y-5.3221
X11.1889Y-5.2579
X11.9892Y-3.8468
X12.0102Y-5.3578
X12.2229Y-3.713
X12.2439Y-5.224
X12.2776Y-4.563
X12.5112Y-4.4292
X12.5795Y-6.0378
X12.7292Y-3.7418
X12.7522Y-5.2538
X12.8132Y-5.904
X12.9629Y-3.608
X12.9859Y-5.12
X13.0196Y-4.46
X13.2533Y-4.3262
X13.4722Y-3.6378
X13.4955Y-5.1498
X13.7059Y-3.504
X13.7292Y-5.016
X13.7635Y-4.3554
X13.8795Y-5.8538
X13.9971Y-4.2216
X14.1132Y-5.72
X14.2162Y-3.5338
X14.2395Y-5.0468
X14.4499Y-3.4
X14.4732Y-4.913
X14.5058Y-4.2513
X14.7395Y-4.1175
X15.012Y-3.45
X15.034Y-4.964
X15.262Y-3.35
X15.284Y-4.864
X15.3052Y-4.2066
X15.5552Y-4.1066
X15.608Y-5.722
X15.762Y-3.45
X15.785Y-4.964
X15.858Y-5.622
X16.012Y-3.35
X16.035Y-4.864
X16.336Y-4.208
X16.512Y-3.45
X16.546Y-5.722
X16.586Y-4.108
X16.629Y-4.964
X16.762Y-3.35
X16.796Y-5.622
X16.879Y-4.864
X17.6Y-5.722
X17.85Y-5.622
X18.35Y-3.828
X18.35Y-4.9625
X18.35Y-5.722
X18.6Y-3.728
X18.6Y-4.8625
X18.6Y-5.622
X19.099Y-5.722
X19.349Y-5.622
T4
X5.75Y-5.064
X5.9375Y-4.306
X6.125Y-3.55
X6.9062Y-5.8125
X6.942Y-4.308
X6.95Y-3.55
X7.014Y-5.064
X7.7Y-3.55
X7.7812Y-4.308
X7.8438Y-5.8125
X8.046Y-5.064
X8.485Y-3.565
X8.566Y-4.334
X8.832Y-5.13
X9.2284Y-3.67
X9.308Y-4.438
X9.378Y-5.964
X9.576Y-5.234
X9.9706Y-3.7759
X10.0519Y-4.5442
X10.318Y-5.338
X10.586Y-6.134
X10.7141Y-3.88
X10.794Y-4.648
X11.062Y-5.442
X12.1517Y-3.925
X12.1727Y-5.436
X12.44Y-4.6411
X12.742Y-6.116
X12.8917Y-3.82
X12.9147Y-5.332
X13.1821Y-4.5381
X13.6347Y-3.716
X13.658Y-5.228
X13.9259Y-4.4336
X14.042Y-5.932
X14.3787Y-3.612
X14.402Y-5.125
X14.6683Y-4.3295
X15.162Y-3.55
X15.184Y-5.064
X15.4552Y-4.3066
X15.758Y-5.822
X15.912Y-3.55
X15.935Y-5.064
X16.486Y-4.308
X16.662Y-3.55
X16.696Y-5.822
X16.779Y-5.064
X17.75Y-5.822
X18.5Y-3.928
X18.5Y-5.0625
X18.5Y-5.822
X19.249Y-5.822
T0
M30
