<?xml version="1.0" encoding="UTF-8" standalone="no"?>
<svg
   xmlns:dc="http://purl.org/dc/elements/1.1/"
   xmlns:cc="http://creativecommons.org/ns#"
   xmlns:rdf="http://www.w3.org/1999/02/22-rdf-syntax-ns#"
   xmlns:svg="http://www.w3.org/2000/svg"
   xmlns="http://www.w3.org/2000/svg"
   xmlns:sodipodi="http://sodipodi.sourceforge.net/DTD/sodipodi-0.dtd"
   xmlns:inkscape="http://www.inkscape.org/namespaces/inkscape"
   viewBox="0 0 793.7007874015749 1122.5196850393702"
   width="793.7007874015749"
   height="1122.5196850393702"
   version="1.1"
   id="svg38"
   sodipodi:docname="Bottom plate.svg"
   inkscape:version="1.0.2-2 (e86c870879, 2021-01-15)">
  <metadata
     id="metadata42">
    <rdf:RDF>
      <cc:Work
         rdf:about="">
        <dc:format>image/svg+xml</dc:format>
        <dc:type
           rdf:resource="http://purl.org/dc/dcmitype/StillImage" />
        <dc:title></dc:title>
      </cc:Work>
    </rdf:RDF>
  </metadata>
  <sodipodi:namedview
     pagecolor="#ffffff"
     bordercolor="#666666"
     borderopacity="1"
     objecttolerance="10"
     gridtolerance="10"
     guidetolerance="10"
     inkscape:pageopacity="0"
     inkscape:pageshadow="2"
     inkscape:window-width="3440"
     inkscape:window-height="1377"
     id="namedview40"
     showgrid="false"
     inkscape:zoom="1.7959596"
     inkscape:cx="941.09487"
     inkscape:cy="1305.5549"
     inkscape:window-x="-8"
     inkscape:window-y="-8"
     inkscape:window-maximized="1"
     inkscape:current-layer="g34" />
  <defs
     id="defs14">
    <marker
       id="DistanceX"
       orient="auto"
       refX="0.0"
       refY="0.0"
       style="overflow:visible">
      <path
         d="M 3,-3 L -3,3 M 0,-5 L  0,5"
         style="stroke:#000000; stroke-width:0.5"
         id="path2" />
    </marker>
    <pattern
       id="Hatch"
       patternUnits="userSpaceOnUse"
       width="8"
       height="8"
       x="0"
       y="0">
      <path
         d="M8 4 l-4,4"
         stroke="#000000"
         stroke-width="0.25"
         linecap="square"
         id="path5" />
      <path
         d="M6 2 l-4,4"
         stroke="#000000"
         stroke-width="0.25"
         linecap="square"
         id="path7" />
      <path
         d="M4 0 l-4,4"
         stroke="#000000"
         stroke-width="0.25"
         linecap="square"
         id="path9" />
    </pattern>
    <symbol
       id="*MODEL_SPACE" />
    <symbol
       id="*PAPER_SPACE" />
  </defs>
  <g
     inkscape:groupmode="layer"
     inkscape:label="0"
     id="g34">
    <path
       d="M 480.068031,1138.621406 L 919.732050,1138.621406 L 1065.243861,1138.621406 L 1579.851738,1138.621406 A 7.559055,7.559055 0.0 0 1 1587.410794,1146.180691 L 1587.401828,1440.792041 A 7.559055,7.559055 0.0 0 1 1579.842773,1448.350866 L 1332.860713,1448.350866 L 999.520567,1495.198811 A 45.354331,45.354331 0.0 0 1 986.896359,1495.198812 L 653.555730,1448.350866 L 480.068031,1448.350866 A 7.559055,7.559055 0.0 0 1 472.508976,1440.791811 L 472.508976,1146.180461 A 7.559055,7.559055 0.0 0 1 480.068031,1138.621406 z"
       style="fill:none;stroke:#000000"
       id="path16" />
    <path
       d="M 872.053771,1251.788707 A 3.023622,3.023622 -0.000000 1 0 866.006526,1251.788707 3.023622,3.023622 -0.000000 1 0 872.053771,1251.788707 z"
       style="fill:none;stroke:#000000"
       id="path18" />
    <path
       d="M 587.597621,1230.431154 A 3.023622,3.023622 -0.000000 1 0 581.550377,1230.431154 3.023622,3.023622 -0.000000 1 0 587.597621,1230.431154 z"
       style="fill:none;stroke:#000000"
       id="path20" />
    <path
       d="M 571.647536,1380.984395 A 3.023622,3.023622 -0.000000 1 0 565.600292,1380.984395 3.023622,3.023622 -0.000000 1 0 571.647536,1380.984395 z"
       style="fill:none;stroke:#000000"
       id="path22" />
    <path
       d="M 831.789532,1398.840709 A 3.023622,3.023622 -0.000000 1 0 825.742288,1398.840709 3.023622,3.023622 -0.000000 1 0 831.789532,1398.840709 z"
       style="fill:none;stroke:#000000"
       id="path24" />
    <path
       d="M 1175.685741,1398.622447 A 3.023622,3.023622 -0.000000 1 0 1169.638497,1398.622447 3.023622,3.023622 -0.000000 1 0 1175.685741,1398.622447 z"
       style="fill:none;stroke:#000000"
       id="path26" />
    <path
       d="M 1475.980724,1376.808567 A 3.023622,3.023622 -0.000000 1 0 1469.933480,1376.808567 3.023622,3.023622 -0.000000 1 0 1475.980724,1376.808567 z"
       style="fill:none;stroke:#000000"
       id="path28" />
    <path
       d="M 1450.429789,1219.457627 A 3.023622,3.023622 -0.000000 1 0 1444.382545,1219.457627 3.023622,3.023622 -0.000000 1 0 1450.429789,1219.457627 z"
       style="fill:none;stroke:#000000"
       id="path30" />
    <path
       d="M 1107.977721,1258.107059 A 3.023622,3.023622 -0.000000 1 0 1101.930477,1258.107059 3.023622,3.023622 -0.000000 1 0 1107.977721,1258.107059 z"
       style="fill:none;stroke:#000000"
       id="path32" />
  </g>
  <desc
     id="desc36">Bottom plate.dxf - scale = 1.000000, origin = (0.000000, 0.000000), method = manual</desc>
</svg>
