0
SECTION
2
HEADER
9
$INSUNITS
70
4
9
$ACADVER
1
AC1014
9
$HANDSEED
5
FFFF
0
ENDSEC
0
SECTION
2
TABLES
0
TABLE
2
VPORT
5
8
100
AcDbSymbolTable
0
ENDTAB
0
TABLE
2
LTYPE
5
5
100
AcDbSymbolTable
0
LTYPE
5
14
100
AcDbSymbolTableRecord
100
AcDbLinetypeTableRecord
2
BYBLOCK
70
0
0
LTYPE
5
15
100
AcDbSymbolTableRecord
100
AcDbLinetypeTableRecord
2
BYLAYER
70
0
0
ENDTAB
0
TABLE
2
LAYER
5
2
100
AcDbSymbolTable
70
2
0
LAYER
5
50
100
AcDbSymbolTableRecord
100
AcDbLayerTableRecord
2
0
70
0
6
CONTINUOUS
0
ENDTAB
0
TABLE
2
STYLE
5
3
100
AcDbSymbolTable
70
1
0
STYLE
5
11
100
AcDbSymbolTableRecord
100
AcDbTextStyleTableRecord
2
STANDARD
70
0
0
ENDTAB
0
TABLE
2
VIEW
5
6
100
AcDbSymbolTable
70
0
0
ENDTAB
0
TABLE
2
UCS
5
7
100
AcDbSymbolTable
70
0
0
ENDTAB
0
TABLE
2
APPID
5
9
100
AcDbSymbolTable
70
2
0
APPID
5
12
100
AcDbSymbolTableRecord
100
AcDbRegAppTableRecord
2
ACAD
70
0
0
ENDTAB
0
TABLE
2
DIMSTYLE
5
A
100
AcDbSymbolTable
70
1
0
ENDTAB
0
TABLE
2
BLOCK_RECORD
5
1
100
AcDbSymbolTable
70
1
0
BLOCK_RECORD
5
1F
100
AcDbSymbolTableRecord
100
AcDbBlockTableRecord
2
*MODEL_SPACE
0
BLOCK_RECORD
5
1B
100
AcDbSymbolTableRecord
100
AcDbBlockTableRecord
2
*PAPER_SPACE
0
ENDTAB
0
ENDSEC
0
SECTION
2
BLOCKS
0
BLOCK
5
20
100
AcDbEntity
100
AcDbBlockBegin
2
*MODEL_SPACE
0
ENDBLK
5
21
100
AcDbEntity
100
AcDbBlockEnd
0
BLOCK
5
1C
100
AcDbEntity
100
AcDbBlockBegin
2
*PAPER_SPACE
0
ENDBLK
5
1D
100
AcDbEntity
100
AcDbBlockEnd
0
ENDSEC
0
SECTION
2
ENTITIES
0
LWPOLYLINE
5
100
100
AcDbEntity
8
0
100
AcDbPolyline
90
14
70
1
43
0.0
10
-280.83599900000002
20
34.733701000000003
10
-280.83600000000001
20
111.23330000000001
42
-0.41421356237309503
10
-280.33600000000001
20
111.7333
10
-222.47900000000001
20
111.73330100000001
42
0.034831212567894211
10
-222.40959088685003
20
111.7381420804
10
-138.74740907830014
20
123.46645855861991
42
-0.069936499682464834
10
-138.608217
20
123.46640600000001
10
-55.403882000000024
20
111.73819199999988
42
0.035019938054372216
10
-55.334099075259999
20
111.73329854080002
10
-9.8360000000000003
20
111.73330000000001
42
-0.41421356237309503
10
-9.3360000000000003
20
111.23330000000001
10
-9.3360000000000021
20
34.733699999999999
42
-0.41421356237308982
10
-9.8359999999999914
20
34.233699999999999
10
-280.33600000000001
20
34.233700999999009
42
-0.41421414816082724
0
LWPOLYLINE
5
101
100
AcDbEntity
8
0
100
AcDbPolyline
90
4
70
1
43
0.0
10
-12.206000000000001
20
70.51230000000001
10
-26.206
20
70.51230000000001
10
-26.206
20
56.51230000000001
10
-12.206000000000001
20
56.51230000000001
0
LWPOLYLINE
5
102
100
AcDbEntity
8
0
100
AcDbPolyline
90
4
70
1
43
0.0
10
-12.396000000000003
20
37.262300000000003
10
-12.396000000000003
20
51.262300000000003
10
-26.396000000000001
20
51.262300000000003
10
-26.396000000000001
20
37.262300000000003
0
LWPOLYLINE
5
103
100
AcDbEntity
8
0
100
AcDbPolyline
90
4
70
1
43
0.0
10
-45.436000000000007
20
37.272300000000001
10
-31.436
20
37.272300000000001
10
-31.436
20
51.272300000000008
10
-45.436000000000007
20
51.272300000000008
0
LWPOLYLINE
5
104
100
AcDbEntity
8
0
100
AcDbPolyline
90
4
70
1
43
0.0
10
-33.545999000000002
20
56.51230000000001
10
-33.545999000000002
20
70.51230000000001
10
-47.545999999999999
20
70.51230000000001
10
-47.545999999999999
20
56.51230000000001
0
LWPOLYLINE
5
105
100
AcDbEntity
8
0
100
AcDbPolyline
90
4
70
1
43
0.0
10
-66.272099999999995
20
38.7346
10
-52.408299999999997
20
36.786200000000008
10
-50.459899999999998
20
50.650000000000006
10
-64.323699000000005
20
52.598400000000005
0
LWPOLYLINE
5
106
100
AcDbEntity
8
0
100
AcDbPolyline
90
4
70
1
43
0.0
10
-54.478299999999997
20
56.3262
10
-52.529900000000005
20
70.189999999999998
10
-66.393699999999995
20
72.138400000000019
10
-68.342100000000002
20
58.274600000000007
0
LWPOLYLINE
5
107
100
AcDbEntity
8
0
100
AcDbPolyline
90
4
70
1
43
0.0
10
-73.348299999999995
20
58.976199999999999
10
-71.399900000000002
20
72.840000000000003
10
-85.2637
20
74.788399999999996
10
-87.212100000000007
20
60.924599999999998
0
LWPOLYLINE
5
108
100
AcDbEntity
8
0
100
AcDbPolyline
90
4
70
1
43
0.0
10
-71.278300000000002
20
39.446199999999997
10
-69.329900000000009
20
53.310000000000002
10
-83.193700000000007
20
55.258400000000009
10
-85.142099999999999
20
41.394599999999997
0
LWPOLYLINE
5
109
100
AcDbEntity
8
0
100
AcDbPolyline
90
4
70
1
43
0.0
10
-14.006
20
75.75230000000002
10
-14.006
20
89.75230000000002
10
-28.006
20
89.75230000000002
10
-28.006
20
75.75230000000002
0
LWPOLYLINE
5
110
100
AcDbEntity
8
0
100
AcDbPolyline
90
4
70
1
43
0.0
10
-145.569999
20
47.994599999999998
10
-147.518
20
61.858400000000003
10
-161.38200000000001
20
59.909999999999997
10
-159.434
20
46.046199999999999
0
LWPOLYLINE
5
111
100
AcDbEntity
8
0
100
AcDbPolyline
90
4
70
1
43
0.0
10
-90.138300000000001
20
42.096200000000003
10
-88.189899999999994
20
55.960000000000001
10
-102.054
20
57.9084
10
-104.002
20
44.044600000000003
0
LWPOLYLINE
5
112
100
AcDbEntity
8
0
100
AcDbPolyline
90
4
70
1
43
0.0
10
-122.88200000000002
20
46.694600000000001
10
-109.01800000000001
20
44.746200000000009
10
-107.07000000000001
20
58.610000000000007
10
-120.93400000000001
20
60.558399999999999
0
LWPOLYLINE
5
113
100
AcDbEntity
8
0
100
AcDbPolyline
90
4
70
1
43
0.0
10
-166.79400000000001
20
64.246200000000016
10
-152.93000000000001
20
66.194600000000008
10
-154.87799999999999
20
80.058400000000006
10
-168.74199900000002
20
78.109999999999999
0
LWPOLYLINE
5
114
100
AcDbEntity
8
0
100
AcDbPolyline
90
4
70
1
43
0.0
10
-11.326000000000001
20
108.9823
10
-25.326000000000004
20
108.9823
10
-25.326000000000004
20
94.982299999999995
10
-11.326000000000001
20
94.982299999999995
0
LWPOLYLINE
5
115
100
AcDbEntity
8
0
100
AcDbPolyline
90
4
70
1
43
0.0
10
-112.86200000000001
20
83.744600000000005
10
-98.998300000000015
20
81.796199999999999
10
-97.049900000000008
20
95.660000000000011
10
-110.913999
20
97.608400000000017
0
LWPOLYLINE
5
116
100
AcDbEntity
8
0
100
AcDbPolyline
90
4
70
1
43
0.0
10
-124.93200000000002
20
66.234599000000003
10
-111.068
20
64.286199999999994
10
-109.12
20
78.150000000000006
10
-122.98400000000001
20
80.098399999999998
0
LWPOLYLINE
5
117
100
AcDbEntity
8
0
100
AcDbPolyline
90
4
70
1
43
0.0
10
-92.043700000000001
20
94.968400000000003
10
-93.992099999999994
20
81.104600000000019
10
-80.128299999999996
20
79.156200000000013
10
-78.179900000000004
20
93.019999999999996
0
LWPOLYLINE
5
118
100
AcDbEntity
8
0
100
AcDbPolyline
90
4
70
1
43
0.0
10
-104.123999
20
77.438400000000001
10
-106.072
20
63.574599999999997
10
-92.208299999999994
20
61.626200000000004
10
-90.259900000000002
20
75.489999999999995
0
LWPOLYLINE
5
119
100
AcDbEntity
8
0
100
AcDbPolyline
90
4
70
1
43
0.0
10
-73.173699999999997
20
92.318399999999997
10
-75.122100000000003
20
78.454599999999999
10
-61.258300000000006
20
76.506200000000007
10
-59.309900000000006
20
90.370000000000005
0
LWPOLYLINE
5
120
100
AcDbEntity
8
0
100
AcDbPolyline
90
4
70
1
43
0.0
10
-129.06100000000004
20
105.28930000000001
10
-96.332300000000004
20
100.68930000000002
10
-94.383899999999997
20
114.55330000000001
10
-127.11199999999999
20
119.1533
0
LWPOLYLINE
5
121
100
AcDbEntity
8
0
100
AcDbPolyline
90
4
70
1
43
0.0
10
-131.71199999999999
20
86.414600000000007
10
-117.84800000000001
20
84.466200000000015
10
-115.90000000000002
20
98.329999999999998
10
-129.76400000000001
20
100.27830000000002
0
LWPOLYLINE
5
122
100
AcDbEntity
8
0
100
AcDbPolyline
90
4
70
1
43
0.0
10
-49.156000000000006
20
95.002300000000005
10
-35.155999999999999
20
95.002300000000005
10
-35.155999999999999
20
109.00230000000001
10
-49.156000000000006
20
109.00230000000001
0
LWPOLYLINE
5
123
100
AcDbEntity
8
0
100
AcDbPolyline
90
4
70
1
43
0.0
10
-54.206000000000003
20
75.75230000000002
10
-40.20600000000001
20
75.75230000000002
10
-40.20600000000001
20
89.75230000000002
10
-54.206000000000003
20
89.75230000000002
0
LWPOLYLINE
5
124
100
AcDbEntity
8
0
100
AcDbPolyline
90
4
70
1
43
0.0
10
-185.82599999999999
20
114.19130000000001
10
-183.87799999999999
20
100.32730000000001
10
-151.15000000000003
20
104.92730000000002
10
-153.09800000000001
20
118.79130000000002
0
LWPOLYLINE
5
125
100
AcDbEntity
8
0
100
AcDbPolyline
90
4
70
1
43
0.0
10
-161.952
20
98.299999999999997
10
-160.00399900000002
20
84.436200000000014
10
-146.13999999999999
20
86.384600000000006
10
-148.08799999999999
20
100.24830000000001
0
LWPOLYLINE
5
126
100
AcDbEntity
8
0
100
AcDbPolyline
90
4
70
1
43
0.0
10
-237.54599999999999
20
89.892300000000006
10
-237.54599999999999
20
75.892300000000006
10
-223.54600000000002
20
75.892300000000006
10
-223.54600000000002
20
89.892300000000006
0
LWPOLYLINE
5
127
100
AcDbEntity
8
0
100
AcDbPolyline
90
4
70
1
43
0.0
10
-218.55199900000002
20
90.349999999999994
10
-216.60400000000004
20
76.486199999999997
10
-202.74000000000001
20
78.434600000000003
10
-204.68800000000002
20
92.298400000000015
0
LWPOLYLINE
5
128
100
AcDbEntity
8
0
100
AcDbPolyline
90
4
70
1
43
0.0
10
-225.34199900000002
20
70.159999999999997
10
-223.39400000000001
20
56.296199999999999
10
-209.53000000000003
20
58.244600000000005
10
-211.47800000000004
20
72.108400000000017
0
LWPOLYLINE
5
129
100
AcDbEntity
8
0
100
AcDbPolyline
90
4
70
1
43
0.0
10
-204.53400000000002
20
58.946199999999997
10
-190.67000000000002
20
60.894599999999997
10
-192.61799999999999
20
74.758399999999995
10
-206.48200000000003
20
72.810000000000002
0
LWPOLYLINE
5
130
100
AcDbEntity
8
0
100
AcDbPolyline
90
4
70
1
43
0.0
10
-187.61199999999999
20
75.459999999999994
10
-185.66399999999999
20
61.596200000000003
10
-171.80000000000004
20
63.544600000000003
10
-173.74799999999999
20
77.4084
0
LWPOLYLINE
5
131
100
AcDbEntity
8
0
100
AcDbPolyline
90
4
70
1
43
0.0
10
-185.83799999999999
20
94.948400000000021
10
-199.70200000000003
20
93
10
-197.75400000000002
20
79.136200000000002
10
-183.88999999999999
20
81.084599999999995
0
LWPOLYLINE
5
132
100
AcDbEntity
8
0
100
AcDbPolyline
90
4
70
1
43
0.0
10
-166.97800000000001
20
97.588399999999993
10
-180.84199899999999
20
95.640000000000001
10
-178.89400000000001
20
81.776200000000017
10
-165.03
20
83.724600000000009
0
LWPOLYLINE
5
133
100
AcDbEntity
8
0
100
AcDbPolyline
90
4
70
1
43
0.0
10
-183.29000000000002
20
42.684600000000003
10
-185.238
20
56.548400000000001
10
-199.10200000000003
20
54.600000000000009
10
-197.15400000000002
20
40.736199999999997
0
LWPOLYLINE
5
134
100
AcDbEntity
8
0
100
AcDbPolyline
90
4
70
1
43
0.0
10
-178.29400000000004
20
43.406200000000005
10
-164.43000000000001
20
45.354599999999998
10
-166.37799999999999
20
59.218400000000003
10
-180.24199899999999
20
57.270000000000003
0
LWPOLYLINE
5
135
100
AcDbEntity
8
0
100
AcDbPolyline
90
4
70
1
43
0.0
10
-204.108
20
53.888400000000004
10
-217.97200000000004
20
51.939999999999998
10
-216.02400000000003
20
38.0762
10
-202.16000000000003
20
40.0246
0
LWPOLYLINE
5
136
100
AcDbEntity
8
0
100
AcDbPolyline
90
4
70
1
43
0.0
10
-209.422
20
110.8703
10
-207.47399900000002
20
97.006200000000007
10
-193.61000000000004
20
98.954599999999999
10
-195.55800000000002
20
112.81829999999999
0
LWPOLYLINE
5
137
100
AcDbEntity
8
0
100
AcDbPolyline
90
4
70
1
43
0.0
10
-256.596
20
70.652299999999997
10
-270.596
20
70.652299999999997
10
-270.596
20
56.652300000000004
10
-256.596
20
56.652300000000004
0
LWPOLYLINE
5
138
100
AcDbEntity
8
0
100
AcDbPolyline
90
4
70
1
43
0.0
10
-230.41600000000003
20
56.642299999999999
10
-230.41600000000003
20
70.642300000000006
10
-244.416
20
70.642300000000006
10
-244.416
20
56.642299999999999
0
LWPOLYLINE
5
139
100
AcDbEntity
8
0
100
AcDbPolyline
90
4
70
1
43
0.0
10
-264.036
20
75.882300000000001
10
-264.036
20
89.882300000000001
10
-278.03600000000006
20
89.882300000000001
10
-278.03600000000006
20
75.882300000000001
0
LWPOLYLINE
5
140
100
AcDbEntity
8
0
100
AcDbPolyline
90
4
70
1
43
0.0
10
-242.60599999999999
20
89.882300000000001
10
-256.60599999999999
20
89.882300000000001
10
-256.60599999999999
20
75.882300000000001
10
-242.60599999999999
20
75.882300000000001
0
LWPOLYLINE
5
141
100
AcDbEntity
8
0
100
AcDbPolyline
90
4
70
1
43
0.0
10
-275.93599999999998
20
95.132300000000001
10
-261.93599999999998
20
95.132300000000001
10
-261.93599999999998
20
109.1323
10
-275.93599999999998
20
109.1323
0
LWPOLYLINE
5
142
100
AcDbEntity
8
0
100
AcDbPolyline
90
4
70
1
43
0.0
10
-252.11600000000004
20
109.11230000000002
10
-252.11600000000004
20
95.112300000000005
10
-238.11600000000001
20
95.112300000000005
10
-238.11600000000001
20
109.11230000000002
0
LWPOLYLINE
5
143
100
AcDbEntity
8
0
100
AcDbPolyline
90
4
70
1
43
0.0
10
-275.06599999999997
20
51.392300000000006
10
-275.06599999999997
20
37.392299999999999
10
-261.06600000000003
20
37.392299999999999
10
-261.06600000000003
20
51.392300000000006
0
LWPOLYLINE
5
144
100
AcDbEntity
8
0
100
AcDbPolyline
90
4
70
1
43
0.0
10
-222.98599999999999
20
37.402299999999997
10
-222.98599999999999
20
51.402299999999997
10
-236.98599999999999
20
51.402299999999997
10
-236.98599999999999
20
37.402299999999997
0
LWPOLYLINE
5
145
100
AcDbEntity
8
0
100
AcDbPolyline
90
4
70
1
43
0.0
10
-242.02600000000004
20
37.412300000000002
10
-242.02600000000004
20
51.412300000000002
10
-256.02599900000001
20
51.412300000000002
10
-256.02599900000001
20
37.412300000000002
0
LWPOLYLINE
5
146
100
AcDbEntity
8
0
100
AcDbPolyline
90
4
70
1
43
0.0
10
-87.033699999999996
20
113.4983
10
-88.982100000000003
20
99.634600000000006
10
-75.118300000000005
20
97.686199999999999
10
-73.169900000000013
20
111.55029999999999
0
CIRCLE
5
147
100
AcDbEntity
8
0
100
AcDbCircle
10
-29.559999999999999
20
54.490000000000009
30
0
40
1.1499999999999999
210
0
220
0
230
1
0
CIRCLE
5
148
100
AcDbEntity
8
0
100
AcDbCircle
10
-104.26000000000002
20
60.150000000000006
30
0
40
1.1499999999999999
210
0
220
0
230
1
0
CIRCLE
5
149
100
AcDbEntity
8
0
100
AcDbCircle
10
-164.00000000000003
20
61.52000000000001
30
0
40
1.1499999999999999
210
0
220
0
230
1
0
CIRCLE
5
150
100
AcDbEntity
8
0
100
AcDbCircle
10
-93.640000000000015
20
98.260000000000005
30
0
40
1.1499999999999999
210
0
220
0
230
1
0
CIRCLE
5
151
100
AcDbEntity
8
0
100
AcDbCircle
10
-30.300000000000004
20
93.959999999999994
30
0
40
1.1499999999999999
210
0
220
0
230
1
0
CIRCLE
5
152
100
AcDbEntity
8
0
100
AcDbCircle
10
-183.58000000000001
20
97.160000000000011
30
0
40
1.1499999999999999
210
0
220
0
230
1
0
CIRCLE
5
153
100
AcDbEntity
8
0
100
AcDbCircle
10
-249.12000000000003
20
57.330000000000005
30
0
40
1.1499999999999999
210
0
220
0
230
1
0
CIRCLE
5
154
100
AcDbEntity
8
0
100
AcDbCircle
10
-257.68000000000001
20
93.860000000000014
30
0
40
1.1499999999999999
210
0
220
0
230
1
0
LINE
5
155
100
AcDbEntity
8
0
100
AcDbLine
10
-280.83599900000002
20
34.733701000000003
30
0
11
-280.83600000000001
21
111.23329999999999
31
0
0
ARC
5
156
100
AcDbEntity
8
0
100
AcDbCircle
10
-280.33600000000001
20
34.733699999999999
30
0
40
0.49999900000099545
210
0
220
0
230
1
100
AcDbArc
50
179.9998854097085
51
270
0
ARC
5
157
100
AcDbEntity
8
0
100
AcDbCircle
10
-280.33600000000001
20
111.23330000000001
30
0
40
0.50000000000000711
210
0
220
-0
230
1
100
AcDbArc
50
90
51
180
0
LINE
5
158
100
AcDbEntity
8
0
100
AcDbLine
10
-280.33600000000001
20
111.73330000000001
30
0
11
-222.47900000000001
21
111.733301
31
0
0
ARC
5
159
100
AcDbEntity
8
0
100
AcDbCircle
10
-222.47900000000001
20
112.23329900000002
30
0
40
0.49999800000001926
210
0
220
0
230
1
100
AcDbArc
50
270
51
277.97949999982387
0
LINE
5
160
100
AcDbEntity
8
0
100
AcDbLine
10
-222.4095908868517
20
111.73814208041193
30
0
11
-138.74740899998952
21
123.46645799998063
31
0
0
ARC
5
161
100
AcDbEntity
8
0
100
AcDbCircle
10
-138.678
20
122.97130000000001
30
0
40
0.49999961832499396
210
0
220
-0
230
1
100
AcDbArc
50
81.977260511333029
51
97.979469971972577
0
LINE
5
162
100
AcDbEntity
8
0
100
AcDbLine
10
-138.608217
20
123.46640600000015
30
0
11
-55.403881999999278
21
111.73819200000517
31
0
0
ARC
5
163
100
AcDbEntity
8
0
100
AcDbCircle
10
-55.334099999999999
20
112.23330000000001
30
0
40
0.50000145918065342
210
0
220
0
230
1
100
AcDbArc
50
261.97740596712475
51
270.00010596708904
0
LINE
5
164
100
AcDbEntity
8
0
100
AcDbLine
10
-55.334099075259999
20
111.73329854081486
30
0
11
-9.8360000000000092
21
111.73329999998504
31
0
0
ARC
5
165
100
AcDbEntity
8
0
100
AcDbCircle
10
-9.8360000000000003
20
111.23330000000001
30
0
40
0.50000000000000044
210
0
220
0
230
1
100
AcDbArc
50
0
51
90.000000000001009
0
LINE
5
166
100
AcDbEntity
8
0
100
AcDbLine
10
-9.3360000000000003
20
111.23330000000001
30
0
11
-9.3360000000000003
21
34.733700000000013
31
0
0
ARC
5
167
100
AcDbEntity
8
0
100
AcDbCircle
10
-9.8360000000000003
20
34.733699999999999
30
0
40
0.49999999999999822
210
0
220
0
230
1
100
AcDbArc
50
-90
51
0
0
LINE
5
168
100
AcDbEntity
8
0
100
AcDbLine
10
-9.8360000000000003
20
34.233699999999999
30
0
11
-280.33600000000001
21
34.233700999999002
31
0
0
LWPOLYLINE
5
169
100
AcDbEntity
8
0
100
AcDbPolyline
90
4
70
1
43
0.0
10
-180.84199900000073
20
95.639999999999901
10
-178.89400000000001
20
81.776200000000017
10
-165.03
20
83.724600000000009
10
-166.97800000000001
20
97.588399999999993
0
LWPOLYLINE
5
170
100
AcDbEntity
8
0
100
AcDbPolyline
90
4
70
1
43
0.0
10
-197.75399999999934
20
79.136199999995128
10
-183.88999999999999
20
81.084599999999995
10
-185.83799999999999
20
94.948400000000021
10
-199.70200000000003
20
93
0
CIRCLE
5
171
100
AcDbEntity
8
0
100
AcDbCircle
10
-183.58000000000001
20
97.160000000000011
30
0
40
2
210
0
220
0
230
1
0
LWPOLYLINE
5
172
100
AcDbEntity
8
0
100
AcDbPolyline
90
4
70
1
43
0.0
10
-195.55800000000002
20
112.81830000000006
10
-209.422
20
110.8703
10
-207.47399900000002
20
97.006200000000007
10
-193.61000000000004
20
98.954599999999999
0
LWPOLYLINE
5
173
100
AcDbEntity
8
0
100
AcDbPolyline
90
4
70
1
43
0.0
10
-151.14999999999998
20
104.92730000000002
10
-153.09800000000001
20
118.79130000000002
10
-185.82599999999999
20
114.19130000000001
10
-183.87799999999999
20
100.32730000000001
0
LWPOLYLINE
5
174
100
AcDbEntity
8
0
100
AcDbPolyline
90
4
70
1
43
0.0
10
-187.61200000000431
20
75.459999999999383
10
-185.66399999999999
20
61.596200000000003
10
-171.80000000000004
20
63.544600000000003
10
-173.74799999999999
20
77.4084
0
CIRCLE
5
175
100
AcDbEntity
8
0
100
AcDbCircle
10
-164.00000000000003
20
61.52000000000001
30
0
40
2
210
0
220
0
230
1
0
LWPOLYLINE
5
176
100
AcDbEntity
8
0
100
AcDbPolyline
90
4
70
1
43
0.0
10
-168.7419990000007
20
78.1099999999999
10
-166.79400000000001
20
64.246200000000016
10
-152.93000000000001
20
66.194600000000008
10
-154.87799999999999
20
80.058400000000006
0
LWPOLYLINE
5
177
100
AcDbEntity
8
0
100
AcDbPolyline
90
4
70
1
43
0.0
10
-218.55199900000076
20
90.349999999999895
10
-216.60400000000004
20
76.486199999999997
10
-202.74000000000001
20
78.434600000000003
10
-204.68800000000002
20
92.298400000000015
0
LWPOLYLINE
5
178
100
AcDbEntity
8
0
100
AcDbPolyline
90
4
70
1
43
0.0
10
-180.24199900000076
20
57.269999999999897
10
-178.29400000000004
20
43.406200000000005
10
-164.43000000000001
20
45.354599999999998
10
-166.37799999999999
20
59.218400000000003
0
LWPOLYLINE
5
179
100
AcDbEntity
8
0
100
AcDbPolyline
90
4
70
1
43
0.0
10
-183.28999999999567
20
42.684600000000614
10
-185.238
20
56.548400000000001
10
-199.10200000000003
20
54.600000000000009
10
-197.15400000000002
20
40.736199999999997
0
LWPOLYLINE
5
180
100
AcDbEntity
8
0
100
AcDbPolyline
90
4
70
1
43
0.0
10
-204.53399999999934
20
58.946199999995137
10
-190.67000000000002
20
60.894599999999997
10
-192.61799999999999
20
74.758399999999995
10
-206.48200000000003
20
72.810000000000002
0
LWPOLYLINE
5
181
100
AcDbEntity
8
0
100
AcDbPolyline
90
4
70
1
43
0.0
10
-202.15999999999568
20
40.024600000000618
10
-204.108
20
53.888400000000004
10
-217.97200000000004
20
51.939999999999998
10
-216.02400000000003
20
38.0762
0
LWPOLYLINE
5
182
100
AcDbEntity
8
0
100
AcDbPolyline
90
4
70
1
43
0.0
10
-236.98599999999999
20
51.402299999999997
10
-236.98599999999999
20
37.402299999999997
10
-222.98599999999999
20
37.402299999999997
10
-222.98599999999999
20
51.402299999999997
0
LWPOLYLINE
5
183
100
AcDbEntity
8
0
100
AcDbPolyline
90
4
70
1
43
0.0
10
-225.34199900000075
20
70.159999999999897
10
-223.39400000000001
20
56.296199999999999
10
-209.53000000000003
20
58.244600000000005
10
-211.47800000000004
20
72.108400000000017
0
LWPOLYLINE
5
184
100
AcDbEntity
8
0
100
AcDbPolyline
90
4
70
1
43
0.0
10
-264.036
20
89.882300000000001
10
-278.03600000000006
20
89.882300000000001
10
-278.03600000000006
20
75.882300000000001
10
-264.036
20
75.882300000000001
0
LWPOLYLINE
5
185
100
AcDbEntity
8
0
100
AcDbPolyline
90
4
70
1
43
0.0
10
-256.60599999999999
20
75.882300000000001
10
-242.60599999999999
20
75.882300000000001
10
-242.60599999999999
20
89.882300000000001
10
-256.60599999999999
20
89.882300000000001
0
LWPOLYLINE
5
186
100
AcDbEntity
8
0
100
AcDbPolyline
90
4
70
1
43
0.0
10
-256.596
20
56.652300000000004
10
-256.596
20
70.652299999999997
10
-270.596
20
70.652299999999997
10
-270.596
20
56.652300000000004
0
LWPOLYLINE
5
187
100
AcDbEntity
8
0
100
AcDbPolyline
90
4
70
1
43
0.0
10
-244.416
20
70.642300000000006
10
-244.416
20
56.642299999999999
10
-230.41600000000003
20
56.642299999999999
10
-230.41600000000003
20
70.642300000000006
0
LWPOLYLINE
5
188
100
AcDbEntity
8
0
100
AcDbPolyline
90
4
70
1
43
0.0
10
-237.54599999999999
20
75.892300000000006
10
-223.54600000000002
20
75.892300000000006
10
-223.54600000000002
20
89.892300000000006
10
-237.54599999999999
20
89.892300000000006
0
LWPOLYLINE
5
189
100
AcDbEntity
8
0
100
AcDbPolyline
90
4
70
1
43
0.0
10
-275.93599999999998
20
95.132300000000001
10
-261.93599999999998
20
95.132300000000001
10
-261.93599999999998
20
109.1323
10
-275.93599999999998
20
109.1323
0
LWPOLYLINE
5
190
100
AcDbEntity
8
0
100
AcDbPolyline
90
4
70
1
43
0.0
10
-252.11600000000004
20
109.11230000000002
10
-252.11600000000004
20
95.112300000000005
10
-238.11600000000001
20
95.112300000000005
10
-238.11600000000001
20
109.11230000000002
0
CIRCLE
5
191
100
AcDbEntity
8
0
100
AcDbCircle
10
-257.68000000000001
20
93.860000000000014
30
0
40
2
210
0
220
0
230
1
0
LWPOLYLINE
5
192
100
AcDbEntity
8
0
100
AcDbPolyline
90
4
70
1
43
0.0
10
-242.02600000000004
20
51.412300000000002
10
-256.02599900000001
20
51.412300000000002
10
-256.02599900000001
20
37.412300000000002
10
-242.02600000000004
20
37.412300000000002
0
LWPOLYLINE
5
193
100
AcDbEntity
8
0
100
AcDbPolyline
90
4
70
1
43
0.0
10
-275.06599999999997
20
37.392299999999999
10
-261.06600000000003
20
37.392299999999999
10
-261.06600000000003
20
51.392300000000006
10
-275.06599999999997
20
51.392300000000006
0
CIRCLE
5
194
100
AcDbEntity
8
0
100
AcDbCircle
10
-249.12000000000003
20
57.330000000000005
30
0
40
2
210
0
220
0
230
1
0
LWPOLYLINE
5
195
100
AcDbEntity
8
0
100
AcDbPolyline
90
4
70
1
43
0.0
10
-54.206000000000003
20
89.75230000000002
10
-54.206000000000003
20
75.75230000000002
10
-40.20600000000001
20
75.75230000000002
10
-40.20600000000001
20
89.75230000000002
0
LWPOLYLINE
5
196
100
AcDbEntity
8
0
100
AcDbPolyline
90
4
70
1
43
0.0
10
-61.258299999998883
20
76.506199999999865
10
-59.309900000000006
20
90.370000000000005
10
-73.173699999999997
20
92.318399999999997
10
-75.122100000000003
20
78.454599999999999
0
LWPOLYLINE
5
197
100
AcDbEntity
8
0
100
AcDbPolyline
90
4
70
1
43
0.0
10
-92.043700000001124
20
94.968400000000173
10
-93.992099999999994
20
81.104600000000019
10
-80.128299999999996
20
79.156200000000013
10
-78.179900000000004
20
93.019999999999996
0
CIRCLE
5
198
100
AcDbEntity
8
0
100
AcDbCircle
10
-93.640000000000015
20
98.260000000000005
30
0
40
2
210
0
220
0
230
1
0
LWPOLYLINE
5
199
100
AcDbEntity
8
0
100
AcDbPolyline
90
4
70
1
43
0.0
10
-87.033700000006434
20
113.49830000000091
10
-88.982100000000003
20
99.634600000000006
10
-75.118300000000005
20
97.686199999999999
10
-73.169900000000013
20
111.55029999999999
0
LWPOLYLINE
5
200
100
AcDbEntity
8
0
100
AcDbPolyline
90
4
70
1
43
0.0
10
-35.155999999999999
20
95.002300000000005
10
-35.155999999999999
20
109.00230000000001
10
-49.156000000000006
20
109.00230000000001
10
-49.156000000000006
20
95.002300000000005
0
LWPOLYLINE
5
201
100
AcDbEntity
8
0
100
AcDbPolyline
90
4
70
1
43
0.0
10
-129.7639999999958
20
100.2782999999994
10
-131.71199999999999
20
86.414600000000007
10
-117.84800000000001
20
84.466200000000015
10
-115.90000000000002
20
98.329999999999998
0
LWPOLYLINE
5
202
100
AcDbEntity
8
0
100
AcDbPolyline
90
4
70
1
43
0.0
10
-112.86200000000092
20
83.744599999993582
10
-98.998300000000015
20
81.796199999999999
10
-97.049900000000008
20
95.660000000000011
10
-110.913999
20
97.608400000000017
0
LWPOLYLINE
5
203
100
AcDbEntity
8
0
100
AcDbPolyline
90
4
70
1
43
0.0
10
-122.88199999999932
20
46.694600000004868
10
-109.01800000000001
20
44.746200000000009
10
-107.07000000000001
20
58.610000000000007
10
-120.93400000000001
20
60.558399999999999
0
CIRCLE
5
204
100
AcDbEntity
8
0
100
AcDbCircle
10
-104.26000000000002
20
60.150000000000006
30
0
40
2
210
0
220
0
230
1
0
LWPOLYLINE
5
205
100
AcDbEntity
8
0
100
AcDbPolyline
90
4
70
1
43
0.0
10
-90.138299999998864
20
42.09619999999984
10
-88.189899999999994
20
55.960000000000001
10
-102.054
20
57.9084
10
-104.002
20
44.044600000000003
0
LWPOLYLINE
5
206
100
AcDbEntity
8
0
100
AcDbPolyline
90
4
70
1
43
0.0
10
-90.259899999999519
20
75.490000000003462
10
-104.123999
20
77.438400000000001
10
-106.072
20
63.574599999999997
10
-92.208299999999994
20
61.626200000000004
0
LWPOLYLINE
5
207
100
AcDbEntity
8
0
100
AcDbPolyline
90
4
70
1
43
0.0
10
-109.1200000000007
20
78.149999999995146
10
-122.98400000000001
20
80.098399999999998
10
-124.93200000000002
20
66.234599000000003
10
-111.068
20
64.286199999999994
0
LWPOLYLINE
5
208
100
AcDbEntity
8
0
100
AcDbPolyline
90
4
70
1
43
0.0
10
-50.459899999999962
20
50.650000000000304
10
-64.323699000000005
20
52.598400000000005
10
-66.272099999999995
20
38.7346
10
-52.408299999999997
20
36.786200000000008
0
LWPOLYLINE
5
209
100
AcDbEntity
8
0
100
AcDbPolyline
90
4
70
1
43
0.0
10
-69.329899999999839
20
53.310000000001125
10
-83.193700000000007
20
55.258400000000009
10
-85.142099999999999
20
41.394599999999997
10
-71.278300000000002
20
39.446199999999997
0
LWPOLYLINE
5
210
100
AcDbEntity
8
0
100
AcDbPolyline
90
4
70
1
43
0.0
10
-87.212100000000163
20
60.924599999998883
10
-73.348299999999995
20
58.976199999999999
10
-71.399900000000002
20
72.840000000000003
10
-85.2637
20
74.788399999999996
0
LWPOLYLINE
5
211
100
AcDbEntity
8
0
100
AcDbPolyline
90
4
70
1
43
0.0
10
-66.393700000001118
20
72.138400000000175
10
-68.342100000000002
20
58.274600000000007
10
-54.478299999999997
20
56.3262
10
-52.529900000000005
20
70.189999999999998
0
LWPOLYLINE
5
212
100
AcDbEntity
8
0
100
AcDbPolyline
90
4
70
1
43
0.0
10
-33.545999000000002
20
70.51230000000001
10
-47.545999999999999
20
70.51230000000001
10
-47.545999999999999
20
56.51230000000001
10
-33.545999000000002
20
56.51230000000001
0
LWPOLYLINE
5
213
100
AcDbEntity
8
0
100
AcDbPolyline
90
4
70
1
43
0.0
10
-160.00399900000087
20
84.436200000006082
10
-146.13999999999999
20
86.384600000000006
10
-148.08799999999999
20
100.24830000000001
10
-161.952
20
98.299999999999997
0
LWPOLYLINE
5
214
100
AcDbEntity
8
0
100
AcDbPolyline
90
4
70
1
43
0.0
10
-147.51800000000068
20
61.858400000004856
10
-161.38200000000001
20
59.909999999999997
10
-159.434
20
46.046199999999999
10
-145.569999
20
47.994599999999998
0
LWPOLYLINE
5
215
100
AcDbEntity
8
0
100
AcDbPolyline
90
4
70
1
43
0.0
10
-94.383900000000722
20
114.55329999999485
10
-127.11199999999999
20
119.1533
10
-129.06100000000004
20
105.28930000000001
10
-96.332300000000004
20
100.68930000000002
0
LWPOLYLINE
5
216
100
AcDbEntity
8
0
100
AcDbPolyline
90
4
70
1
43
0.0
10
-28.006
20
75.75230000000002
10
-14.006
20
75.75230000000002
10
-14.006
20
89.75230000000002
10
-28.006
20
89.75230000000002
0
CIRCLE
5
217
100
AcDbEntity
8
0
100
AcDbCircle
10
-30.300000000000004
20
93.959999999999994
30
0
40
2
210
0
220
0
230
1
0
LWPOLYLINE
5
218
100
AcDbEntity
8
0
100
AcDbPolyline
90
4
70
1
43
0.0
10
-25.326000000000004
20
94.982299999999995
10
-11.326000000000001
20
94.982299999999995
10
-11.326000000000001
20
108.9823
10
-25.326000000000004
20
108.9823
0
LWPOLYLINE
5
219
100
AcDbEntity
8
0
100
AcDbPolyline
90
4
70
1
43
0.0
10
-26.396000000000001
20
51.262300000000003
10
-26.396000000000001
20
37.262300000000003
10
-12.396000000000003
20
37.262300000000003
10
-12.396000000000003
20
51.262300000000003
0
CIRCLE
5
220
100
AcDbEntity
8
0
100
AcDbCircle
10
-29.559999999999999
20
54.490000000000009
30
0
40
2
210
0
220
0
230
1
0
LWPOLYLINE
5
221
100
AcDbEntity
8
0
100
AcDbPolyline
90
4
70
1
43
0.0
10
-45.436000000000007
20
37.272300000000001
10
-31.436
20
37.272300000000001
10
-31.436
20
51.272300000000008
10
-45.436000000000007
20
51.272300000000008
0
LWPOLYLINE
5
222
100
AcDbEntity
8
0
100
AcDbPolyline
90
4
70
1
43
0.0
10
-26.206
20
56.51230000000001
10
-12.206000000000001
20
56.51230000000001
10
-12.206000000000001
20
70.51230000000001
10
-26.206
20
70.51230000000001
0
ENDSEC
0
SECTION
2
OBJECTS
0
DICTIONARY
5
C
100
AcDbDictionary
3
ACAD_GROUP
350
D
3
ACAD_MLINESTYLE
350
17
0
DICTIONARY
5
D
100
AcDbDictionary
0
DICTIONARY
5
1A
330
C
100
AcDbDictionary
0
DICTIONARY
5
17
100
AcDbDictionary
0
ENDSEC
0
EOF
