%TF.GenerationSoftware,KiCad,Pcbnew,(5.99.0-9176-ga1730d51ff)*%
%TF.CreationDate,2021-03-15T21:55:54-05:00*%
%TF.ProjectId,Back Plate,4261636b-2050-46c6-9174-652e6b696361,rev?*%
%TF.SameCoordinates,Original*%
%TF.FileFunction,Copper,L2,Bot*%
%TF.FilePolarity,Positive*%
%FSLAX46Y46*%
G04 Gerber Fmt 4.6, Leading zero omitted, Abs format (unit mm)*
G04 Created by KiCad (PCBNEW (5.99.0-9176-ga1730d51ff)) date 2021-03-15 21:55:54*
%MOMM*%
%LPD*%
G01*
G04 APERTURE LIST*
%TA.AperFunction,ComponentPad*%
%ADD10C,3.300000*%
%TD*%
G04 APERTURE END LIST*
D10*
X159749803Y-105787321D03*
X149129803Y-143897321D03*
X313169803Y-139497321D03*
X85789803Y-139597321D03*
X219489803Y-107157321D03*
X304609803Y-102967321D03*
X85049803Y-100127321D03*
X239069803Y-142797321D03*
%TA.AperFunction,NonConductor*%
G36*
X200577144Y-80426540D02*
G01*
X335691802Y-80426540D01*
X335759923Y-80446542D01*
X335806416Y-80500198D01*
X335817802Y-80552540D01*
X335817803Y-156784139D01*
X335797801Y-156852260D01*
X335744145Y-156898753D01*
X335691803Y-156910139D01*
X318049906Y-156910139D01*
X278733061Y-156910140D01*
X278060314Y-156910140D01*
X278049640Y-156909687D01*
X278039078Y-156908789D01*
X278013242Y-156906592D01*
X278008255Y-156906067D01*
X277980543Y-156902590D01*
X277975063Y-156902686D01*
X277962184Y-156902251D01*
X277958564Y-156901943D01*
X277958562Y-156901943D01*
X277953718Y-156901531D01*
X277948866Y-156901869D01*
X277947093Y-156901856D01*
X277940765Y-156901973D01*
X277933298Y-156900654D01*
X277918310Y-156902304D01*
X277909315Y-156903294D01*
X277897723Y-156904032D01*
X277891277Y-156904144D01*
X277868961Y-156904533D01*
X277860390Y-156907202D01*
X277855574Y-156907978D01*
X277853212Y-156908336D01*
X277850367Y-156908739D01*
X277845892Y-156909051D01*
X277841504Y-156909995D01*
X277841496Y-156909996D01*
X277840513Y-156910207D01*
X277827812Y-156912267D01*
X277819363Y-156913197D01*
X277814663Y-156914468D01*
X277794321Y-156919969D01*
X277787970Y-156921511D01*
X277737395Y-156932389D01*
X277728420Y-156933981D01*
X194243870Y-168637396D01*
X194229055Y-168638588D01*
X194185174Y-168639517D01*
X194180369Y-168640370D01*
X194179243Y-168640481D01*
X194155468Y-168640399D01*
X194153671Y-168640079D01*
X194104269Y-168638391D01*
X194090985Y-168637231D01*
X118205832Y-157940706D01*
X111055313Y-156932792D01*
X111044850Y-156930863D01*
X111008734Y-156922616D01*
X111003904Y-156921412D01*
X110981082Y-156915243D01*
X110981076Y-156915242D01*
X110976745Y-156914071D01*
X110972208Y-156913516D01*
X110971445Y-156913422D01*
X110958720Y-156911196D01*
X110955312Y-156910418D01*
X110955307Y-156910417D01*
X110950567Y-156909335D01*
X110945708Y-156908994D01*
X110944323Y-156908789D01*
X110937616Y-156907971D01*
X110930479Y-156905646D01*
X110921507Y-156905373D01*
X110909643Y-156905012D01*
X110906186Y-156904907D01*
X110894713Y-156904032D01*
X110874883Y-156901605D01*
X110874880Y-156901605D01*
X110865972Y-156900515D01*
X110857114Y-156901969D01*
X110853594Y-156902041D01*
X110851161Y-156902067D01*
X110847016Y-156902072D01*
X110842555Y-156901759D01*
X110838090Y-156902082D01*
X110838077Y-156902082D01*
X110837190Y-156902146D01*
X110824288Y-156902416D01*
X110820781Y-156902310D01*
X110820780Y-156902310D01*
X110815910Y-156902162D01*
X110811084Y-156902764D01*
X110811077Y-156902764D01*
X110790008Y-156905391D01*
X110783514Y-156906030D01*
X110731288Y-156909809D01*
X110722195Y-156910138D01*
X110483263Y-156910138D01*
X74410396Y-156910139D01*
X65459803Y-156910139D01*
X65391682Y-156890137D01*
X65345189Y-156836481D01*
X65333803Y-156784139D01*
X65333803Y-143874665D01*
X146966422Y-143874665D01*
X146983363Y-144168479D01*
X147040022Y-144457276D01*
X147041408Y-144461324D01*
X147125107Y-144705787D01*
X147135352Y-144735711D01*
X147137279Y-144739542D01*
X147244755Y-144953233D01*
X147267588Y-144998632D01*
X147434282Y-145241174D01*
X147632351Y-145458849D01*
X147635639Y-145461598D01*
X147854838Y-145644877D01*
X147854843Y-145644881D01*
X147858130Y-145647629D01*
X147916206Y-145684060D01*
X148103799Y-145801738D01*
X148103803Y-145801740D01*
X148107439Y-145804021D01*
X148241553Y-145864576D01*
X148371755Y-145923365D01*
X148371759Y-145923367D01*
X148375667Y-145925131D01*
X148379787Y-145926351D01*
X148379786Y-145926351D01*
X148653737Y-146007499D01*
X148653741Y-146007500D01*
X148657850Y-146008717D01*
X148662084Y-146009365D01*
X148662089Y-146009366D01*
X148944524Y-146052584D01*
X148944526Y-146052584D01*
X148948766Y-146053233D01*
X149098567Y-146055586D01*
X149238741Y-146057789D01*
X149238747Y-146057789D01*
X149243032Y-146057856D01*
X149535202Y-146022499D01*
X149819871Y-145947818D01*
X149823831Y-145946178D01*
X149823836Y-145946176D01*
X149970208Y-145885546D01*
X150091771Y-145835193D01*
X150142094Y-145805787D01*
X150158838Y-145796003D01*
X150345870Y-145686710D01*
X150577467Y-145505115D01*
X150782276Y-145293769D01*
X150956506Y-145056582D01*
X151096935Y-144797944D01*
X151200964Y-144522641D01*
X151237848Y-144361598D01*
X151265710Y-144239947D01*
X151265711Y-144239942D01*
X151266667Y-144235767D01*
X151292829Y-143942630D01*
X151293303Y-143897321D01*
X151292050Y-143878945D01*
X151273578Y-143607977D01*
X151273577Y-143607971D01*
X151273286Y-143603700D01*
X151213605Y-143315513D01*
X151115365Y-143038092D01*
X150980384Y-142776570D01*
X150979045Y-142774665D01*
X236906422Y-142774665D01*
X236923363Y-143068479D01*
X236980022Y-143357276D01*
X236981408Y-143361324D01*
X237058175Y-143585540D01*
X237075352Y-143635711D01*
X237207588Y-143898632D01*
X237374282Y-144141174D01*
X237377163Y-144144340D01*
X237464159Y-144239947D01*
X237572351Y-144358849D01*
X237575639Y-144361598D01*
X237794838Y-144544877D01*
X237794843Y-144544881D01*
X237798130Y-144547629D01*
X237856206Y-144584060D01*
X238043799Y-144701738D01*
X238043803Y-144701740D01*
X238047439Y-144704021D01*
X238126109Y-144739542D01*
X238311755Y-144823365D01*
X238311759Y-144823367D01*
X238315667Y-144825131D01*
X238319787Y-144826351D01*
X238319786Y-144826351D01*
X238593737Y-144907499D01*
X238593741Y-144907500D01*
X238597850Y-144908717D01*
X238602084Y-144909365D01*
X238602089Y-144909366D01*
X238884524Y-144952584D01*
X238884526Y-144952584D01*
X238888766Y-144953233D01*
X239038567Y-144955586D01*
X239178741Y-144957789D01*
X239178747Y-144957789D01*
X239183032Y-144957856D01*
X239475202Y-144922499D01*
X239759871Y-144847818D01*
X239763831Y-144846178D01*
X239763836Y-144846176D01*
X239910208Y-144785546D01*
X240031771Y-144735193D01*
X240082094Y-144705787D01*
X240098838Y-144696003D01*
X240285870Y-144586710D01*
X240517467Y-144405115D01*
X240722276Y-144193769D01*
X240896506Y-143956582D01*
X241036935Y-143697944D01*
X241140964Y-143422641D01*
X241165500Y-143315513D01*
X241205710Y-143139947D01*
X241205711Y-143139942D01*
X241206667Y-143135767D01*
X241232829Y-142842630D01*
X241233303Y-142797321D01*
X241231888Y-142776570D01*
X241213578Y-142507977D01*
X241213577Y-142507971D01*
X241213286Y-142503700D01*
X241153605Y-142215513D01*
X241055365Y-141938092D01*
X240920384Y-141676570D01*
X240907185Y-141657789D01*
X240753625Y-141439296D01*
X240753624Y-141439295D01*
X240751158Y-141435786D01*
X240550821Y-141220197D01*
X240535634Y-141207766D01*
X240326396Y-141036508D01*
X240323078Y-141033792D01*
X240072144Y-140880020D01*
X240068208Y-140878292D01*
X239806590Y-140763449D01*
X239806586Y-140763448D01*
X239802662Y-140761725D01*
X239519620Y-140681099D01*
X239515378Y-140680495D01*
X239515372Y-140680494D01*
X239232505Y-140640236D01*
X239228254Y-140639631D01*
X239073117Y-140638819D01*
X238938242Y-140638112D01*
X238938236Y-140638112D01*
X238933956Y-140638090D01*
X238929712Y-140638649D01*
X238929708Y-140638649D01*
X238822123Y-140652813D01*
X238642171Y-140676504D01*
X238638031Y-140677637D01*
X238638029Y-140677637D01*
X238621072Y-140682276D01*
X238358300Y-140754163D01*
X238087595Y-140869628D01*
X237968051Y-140941174D01*
X237838746Y-141018561D01*
X237838742Y-141018564D01*
X237835064Y-141020765D01*
X237605382Y-141204775D01*
X237527629Y-141286710D01*
X237414629Y-141405787D01*
X237402798Y-141418254D01*
X237309697Y-141547818D01*
X237237057Y-141648907D01*
X237231060Y-141657252D01*
X237093347Y-141917346D01*
X236992208Y-142193724D01*
X236929512Y-142481270D01*
X236906422Y-142774665D01*
X150979045Y-142774665D01*
X150976044Y-142770394D01*
X150813625Y-142539296D01*
X150813624Y-142539295D01*
X150811158Y-142535786D01*
X150610821Y-142320197D01*
X150588709Y-142302098D01*
X150386396Y-142136508D01*
X150383078Y-142133792D01*
X150132144Y-141980020D01*
X150128208Y-141978292D01*
X149866590Y-141863449D01*
X149866586Y-141863448D01*
X149862662Y-141861725D01*
X149579620Y-141781099D01*
X149575378Y-141780495D01*
X149575372Y-141780494D01*
X149292505Y-141740236D01*
X149288254Y-141739631D01*
X149133117Y-141738819D01*
X148998242Y-141738112D01*
X148998236Y-141738112D01*
X148993956Y-141738090D01*
X148989712Y-141738649D01*
X148989708Y-141738649D01*
X148883862Y-141752584D01*
X148702171Y-141776504D01*
X148698031Y-141777637D01*
X148698029Y-141777637D01*
X148681072Y-141782276D01*
X148418300Y-141854163D01*
X148147595Y-141969628D01*
X147995219Y-142060824D01*
X147898746Y-142118561D01*
X147898742Y-142118564D01*
X147895064Y-142120765D01*
X147665382Y-142304775D01*
X147545607Y-142430991D01*
X147472551Y-142507977D01*
X147462798Y-142518254D01*
X147291060Y-142757252D01*
X147289051Y-142761047D01*
X147289050Y-142761048D01*
X147268529Y-142799806D01*
X147153347Y-143017346D01*
X147052208Y-143293724D01*
X146989512Y-143581270D01*
X146966422Y-143874665D01*
X65333803Y-143874665D01*
X65333803Y-139574665D01*
X83626422Y-139574665D01*
X83643363Y-139868479D01*
X83700022Y-140157276D01*
X83701408Y-140161324D01*
X83781046Y-140393926D01*
X83795352Y-140435711D01*
X83797279Y-140439542D01*
X83918466Y-140680494D01*
X83927588Y-140698632D01*
X84023127Y-140837643D01*
X84061702Y-140893769D01*
X84094282Y-140941174D01*
X84097163Y-140944340D01*
X84240651Y-141102031D01*
X84292351Y-141158849D01*
X84295639Y-141161598D01*
X84514838Y-141344877D01*
X84514843Y-141344881D01*
X84518130Y-141347629D01*
X84625759Y-141415145D01*
X84763799Y-141501738D01*
X84763803Y-141501740D01*
X84767439Y-141504021D01*
X84860802Y-141546176D01*
X85031755Y-141623365D01*
X85031759Y-141623367D01*
X85035667Y-141625131D01*
X85039787Y-141626351D01*
X85039786Y-141626351D01*
X85313737Y-141707499D01*
X85313741Y-141707500D01*
X85317850Y-141708717D01*
X85322084Y-141709365D01*
X85322089Y-141709366D01*
X85604524Y-141752584D01*
X85604526Y-141752584D01*
X85608766Y-141753233D01*
X85758567Y-141755586D01*
X85898741Y-141757789D01*
X85898747Y-141757789D01*
X85903032Y-141757856D01*
X86195202Y-141722499D01*
X86479871Y-141647818D01*
X86483831Y-141646178D01*
X86483836Y-141646176D01*
X86630208Y-141585546D01*
X86751771Y-141535193D01*
X86766903Y-141526351D01*
X86818838Y-141496003D01*
X87005870Y-141386710D01*
X87237467Y-141205115D01*
X87442276Y-140993769D01*
X87616506Y-140756582D01*
X87756935Y-140497944D01*
X87860964Y-140222641D01*
X87926667Y-139935767D01*
X87952829Y-139642630D01*
X87953303Y-139597321D01*
X87952050Y-139578945D01*
X87944941Y-139474665D01*
X311006422Y-139474665D01*
X311023363Y-139768479D01*
X311080022Y-140057276D01*
X311081408Y-140061324D01*
X311135209Y-140218462D01*
X311175352Y-140335711D01*
X311307588Y-140598632D01*
X311474282Y-140841174D01*
X311477163Y-140844340D01*
X311647514Y-141031553D01*
X311672351Y-141058849D01*
X311675639Y-141061598D01*
X311894838Y-141244877D01*
X311894843Y-141244881D01*
X311898130Y-141247629D01*
X311956206Y-141284060D01*
X312143799Y-141401738D01*
X312143803Y-141401740D01*
X312147439Y-141404021D01*
X312281553Y-141464576D01*
X312411755Y-141523365D01*
X312411759Y-141523367D01*
X312415667Y-141525131D01*
X312483680Y-141545277D01*
X312693737Y-141607499D01*
X312693741Y-141607500D01*
X312697850Y-141608717D01*
X312702084Y-141609365D01*
X312702089Y-141609366D01*
X312984524Y-141652584D01*
X312984526Y-141652584D01*
X312988766Y-141653233D01*
X313138567Y-141655586D01*
X313278741Y-141657789D01*
X313278747Y-141657789D01*
X313283032Y-141657856D01*
X313575202Y-141622499D01*
X313859871Y-141547818D01*
X313863831Y-141546178D01*
X313863836Y-141546176D01*
X314010208Y-141485546D01*
X314131771Y-141435193D01*
X314136132Y-141432645D01*
X314281619Y-141347629D01*
X314385870Y-141286710D01*
X314617467Y-141105115D01*
X314822276Y-140893769D01*
X314996506Y-140656582D01*
X315116429Y-140435711D01*
X315134885Y-140401720D01*
X315134886Y-140401718D01*
X315136935Y-140397944D01*
X315240964Y-140122641D01*
X315284743Y-139931493D01*
X315305710Y-139839947D01*
X315305711Y-139839942D01*
X315306667Y-139835767D01*
X315332829Y-139542630D01*
X315333303Y-139497321D01*
X315332050Y-139478945D01*
X315313578Y-139207977D01*
X315313577Y-139207971D01*
X315313286Y-139203700D01*
X315253605Y-138915513D01*
X315155365Y-138638092D01*
X315020384Y-138376570D01*
X314906933Y-138215145D01*
X314853625Y-138139296D01*
X314853624Y-138139295D01*
X314851158Y-138135786D01*
X314650821Y-137920197D01*
X314628709Y-137902098D01*
X314532615Y-137823447D01*
X314423078Y-137733792D01*
X314172144Y-137580020D01*
X314168208Y-137578292D01*
X313906590Y-137463449D01*
X313906586Y-137463448D01*
X313902662Y-137461725D01*
X313619620Y-137381099D01*
X313615378Y-137380495D01*
X313615372Y-137380494D01*
X313332505Y-137340236D01*
X313328254Y-137339631D01*
X313173117Y-137338819D01*
X313038242Y-137338112D01*
X313038236Y-137338112D01*
X313033956Y-137338090D01*
X313029712Y-137338649D01*
X313029708Y-137338649D01*
X312901377Y-137355544D01*
X312742171Y-137376504D01*
X312738031Y-137377637D01*
X312738029Y-137377637D01*
X312721072Y-137382276D01*
X312458300Y-137454163D01*
X312187595Y-137569628D01*
X312035219Y-137660824D01*
X311938746Y-137718561D01*
X311938742Y-137718564D01*
X311935064Y-137720765D01*
X311705382Y-137904775D01*
X311502798Y-138118254D01*
X311331060Y-138357252D01*
X311193347Y-138617346D01*
X311092208Y-138893724D01*
X311029512Y-139181270D01*
X311006422Y-139474665D01*
X87944941Y-139474665D01*
X87933578Y-139307977D01*
X87933577Y-139307971D01*
X87933286Y-139303700D01*
X87873605Y-139015513D01*
X87775365Y-138738092D01*
X87640384Y-138476570D01*
X87572779Y-138380377D01*
X87473625Y-138239296D01*
X87473624Y-138239295D01*
X87471158Y-138235786D01*
X87270821Y-138020197D01*
X87248709Y-138002098D01*
X87133597Y-137907881D01*
X87043078Y-137833792D01*
X86792144Y-137680020D01*
X86788208Y-137678292D01*
X86526590Y-137563449D01*
X86526586Y-137563448D01*
X86522662Y-137561725D01*
X86239620Y-137481099D01*
X86235378Y-137480495D01*
X86235372Y-137480494D01*
X85952505Y-137440236D01*
X85948254Y-137439631D01*
X85793117Y-137438819D01*
X85658242Y-137438112D01*
X85658236Y-137438112D01*
X85653956Y-137438090D01*
X85649712Y-137438649D01*
X85649708Y-137438649D01*
X85540482Y-137453029D01*
X85362171Y-137476504D01*
X85358031Y-137477637D01*
X85358029Y-137477637D01*
X85341072Y-137482276D01*
X85078300Y-137554163D01*
X84807595Y-137669628D01*
X84704126Y-137731553D01*
X84558746Y-137818561D01*
X84558742Y-137818564D01*
X84555064Y-137820765D01*
X84325382Y-138004775D01*
X84122798Y-138218254D01*
X83951060Y-138457252D01*
X83813347Y-138717346D01*
X83712208Y-138993724D01*
X83649512Y-139281270D01*
X83626422Y-139574665D01*
X65333803Y-139574665D01*
X65333803Y-105764665D01*
X157586422Y-105764665D01*
X157603363Y-106058479D01*
X157660022Y-106347276D01*
X157755352Y-106625711D01*
X157757279Y-106629542D01*
X157877200Y-106867977D01*
X157887588Y-106888632D01*
X158054282Y-107131174D01*
X158252351Y-107348849D01*
X158255639Y-107351598D01*
X158474838Y-107534877D01*
X158474843Y-107534881D01*
X158478130Y-107537629D01*
X158536206Y-107574060D01*
X158723799Y-107691738D01*
X158723803Y-107691740D01*
X158727439Y-107694021D01*
X158861553Y-107754576D01*
X158991755Y-107813365D01*
X158991759Y-107813367D01*
X158995667Y-107815131D01*
X158999787Y-107816351D01*
X158999786Y-107816351D01*
X159273737Y-107897499D01*
X159273741Y-107897500D01*
X159277850Y-107898717D01*
X159282084Y-107899365D01*
X159282089Y-107899366D01*
X159564524Y-107942584D01*
X159564526Y-107942584D01*
X159568766Y-107943233D01*
X159718567Y-107945586D01*
X159858741Y-107947789D01*
X159858747Y-107947789D01*
X159863032Y-107947856D01*
X160155202Y-107912499D01*
X160439871Y-107837818D01*
X160443831Y-107836178D01*
X160443836Y-107836176D01*
X160590208Y-107775546D01*
X160711771Y-107725193D01*
X160725320Y-107717276D01*
X160778838Y-107686003D01*
X160965870Y-107576710D01*
X161197467Y-107395115D01*
X161402276Y-107183769D01*
X161438346Y-107134665D01*
X217326422Y-107134665D01*
X217343363Y-107428479D01*
X217400022Y-107717276D01*
X217401408Y-107721324D01*
X217478968Y-107947856D01*
X217495352Y-107995711D01*
X217627588Y-108258632D01*
X217794282Y-108501174D01*
X217992351Y-108718849D01*
X217995639Y-108721598D01*
X218214838Y-108904877D01*
X218214843Y-108904881D01*
X218218130Y-108907629D01*
X218276206Y-108944060D01*
X218463799Y-109061738D01*
X218463803Y-109061740D01*
X218467439Y-109064021D01*
X218601553Y-109124576D01*
X218731755Y-109183365D01*
X218731759Y-109183367D01*
X218735667Y-109185131D01*
X218739787Y-109186351D01*
X218739786Y-109186351D01*
X219013737Y-109267499D01*
X219013741Y-109267500D01*
X219017850Y-109268717D01*
X219022084Y-109269365D01*
X219022089Y-109269366D01*
X219304524Y-109312584D01*
X219304526Y-109312584D01*
X219308766Y-109313233D01*
X219458567Y-109315586D01*
X219598741Y-109317789D01*
X219598747Y-109317789D01*
X219603032Y-109317856D01*
X219895202Y-109282499D01*
X220179871Y-109207818D01*
X220183831Y-109206178D01*
X220183836Y-109206176D01*
X220330208Y-109145546D01*
X220451771Y-109095193D01*
X220502094Y-109065787D01*
X220518838Y-109056003D01*
X220705870Y-108946710D01*
X220937467Y-108765115D01*
X221142276Y-108553769D01*
X221316506Y-108316582D01*
X221456935Y-108057944D01*
X221560964Y-107782641D01*
X221581784Y-107691738D01*
X221625710Y-107499947D01*
X221625711Y-107499942D01*
X221626667Y-107495767D01*
X221652829Y-107202630D01*
X221653063Y-107180313D01*
X221653277Y-107159806D01*
X221653303Y-107157321D01*
X221652050Y-107138945D01*
X221633578Y-106867977D01*
X221633577Y-106867971D01*
X221633286Y-106863700D01*
X221573605Y-106575513D01*
X221475365Y-106298092D01*
X221340384Y-106036570D01*
X221197053Y-105832630D01*
X221173625Y-105799296D01*
X221173624Y-105799295D01*
X221171158Y-105795786D01*
X220970821Y-105580197D01*
X220948709Y-105562098D01*
X220746396Y-105396508D01*
X220743078Y-105393792D01*
X220492144Y-105240020D01*
X220488208Y-105238292D01*
X220226590Y-105123449D01*
X220226586Y-105123448D01*
X220222662Y-105121725D01*
X219939620Y-105041099D01*
X219935378Y-105040495D01*
X219935372Y-105040494D01*
X219652505Y-105000236D01*
X219648254Y-104999631D01*
X219493117Y-104998819D01*
X219358242Y-104998112D01*
X219358236Y-104998112D01*
X219353956Y-104998090D01*
X219349712Y-104998649D01*
X219349708Y-104998649D01*
X219221377Y-105015544D01*
X219062171Y-105036504D01*
X219058031Y-105037637D01*
X219058029Y-105037637D01*
X219041072Y-105042276D01*
X218778300Y-105114163D01*
X218507595Y-105229628D01*
X218355219Y-105320824D01*
X218258746Y-105378561D01*
X218258742Y-105378564D01*
X218255064Y-105380765D01*
X218025382Y-105564775D01*
X217905607Y-105690991D01*
X217839747Y-105760394D01*
X217822798Y-105778254D01*
X217651060Y-106017252D01*
X217513347Y-106277346D01*
X217412208Y-106553724D01*
X217349512Y-106841270D01*
X217326422Y-107134665D01*
X161438346Y-107134665D01*
X161576506Y-106946582D01*
X161716935Y-106687944D01*
X161820964Y-106412641D01*
X161886667Y-106125767D01*
X161912829Y-105832630D01*
X161913303Y-105787321D01*
X161913134Y-105784840D01*
X161893578Y-105497977D01*
X161893577Y-105497971D01*
X161893286Y-105493700D01*
X161833605Y-105205513D01*
X161735365Y-104928092D01*
X161687849Y-104836031D01*
X161602349Y-104670377D01*
X161602349Y-104670376D01*
X161600384Y-104666570D01*
X161537972Y-104577766D01*
X161433625Y-104429296D01*
X161433624Y-104429295D01*
X161431158Y-104425786D01*
X161230821Y-104210197D01*
X161208709Y-104192098D01*
X161006396Y-104026508D01*
X161003078Y-104023792D01*
X160752144Y-103870020D01*
X160738262Y-103863926D01*
X160486590Y-103753449D01*
X160486586Y-103753448D01*
X160482662Y-103751725D01*
X160199620Y-103671099D01*
X160195378Y-103670495D01*
X160195372Y-103670494D01*
X159912505Y-103630236D01*
X159908254Y-103629631D01*
X159753117Y-103628819D01*
X159618242Y-103628112D01*
X159618236Y-103628112D01*
X159613956Y-103628090D01*
X159609712Y-103628649D01*
X159609708Y-103628649D01*
X159481377Y-103645544D01*
X159322171Y-103666504D01*
X159318031Y-103667637D01*
X159318029Y-103667637D01*
X159301072Y-103672276D01*
X159038300Y-103744163D01*
X158767595Y-103859628D01*
X158615219Y-103950824D01*
X158518746Y-104008561D01*
X158518742Y-104008564D01*
X158515064Y-104010765D01*
X158285382Y-104194775D01*
X158082798Y-104408254D01*
X157911060Y-104647252D01*
X157773347Y-104907346D01*
X157672208Y-105183724D01*
X157609512Y-105471270D01*
X157609176Y-105475540D01*
X157600940Y-105580197D01*
X157586422Y-105764665D01*
X65333803Y-105764665D01*
X65333803Y-102944665D01*
X302446422Y-102944665D01*
X302463363Y-103238479D01*
X302520022Y-103527276D01*
X302521408Y-103531324D01*
X302597459Y-103753449D01*
X302615352Y-103805711D01*
X302747588Y-104068632D01*
X302914282Y-104311174D01*
X303112351Y-104528849D01*
X303115639Y-104531598D01*
X303334838Y-104714877D01*
X303334843Y-104714881D01*
X303338130Y-104717629D01*
X303396206Y-104754060D01*
X303583799Y-104871738D01*
X303583803Y-104871740D01*
X303587439Y-104874021D01*
X303670173Y-104911377D01*
X303851755Y-104993365D01*
X303851759Y-104993367D01*
X303855667Y-104995131D01*
X303923680Y-105015277D01*
X304133737Y-105077499D01*
X304133741Y-105077500D01*
X304137850Y-105078717D01*
X304142084Y-105079365D01*
X304142089Y-105079366D01*
X304424524Y-105122584D01*
X304424526Y-105122584D01*
X304428766Y-105123233D01*
X304578567Y-105125586D01*
X304718741Y-105127789D01*
X304718747Y-105127789D01*
X304723032Y-105127856D01*
X305015202Y-105092499D01*
X305299871Y-105017818D01*
X305303831Y-105016178D01*
X305303836Y-105016176D01*
X305516488Y-104928092D01*
X305571771Y-104905193D01*
X305622094Y-104875787D01*
X305638838Y-104866003D01*
X305825870Y-104756710D01*
X306057467Y-104575115D01*
X306262276Y-104363769D01*
X306436506Y-104126582D01*
X306529308Y-103955662D01*
X306574885Y-103871720D01*
X306574886Y-103871718D01*
X306576935Y-103867944D01*
X306680964Y-103592641D01*
X306746667Y-103305767D01*
X306772829Y-103012630D01*
X306773303Y-102967321D01*
X306772050Y-102948945D01*
X306753578Y-102677977D01*
X306753577Y-102677971D01*
X306753286Y-102673700D01*
X306693605Y-102385513D01*
X306595365Y-102108092D01*
X306460384Y-101846570D01*
X306291158Y-101605786D01*
X306090821Y-101390197D01*
X306068709Y-101372098D01*
X305959623Y-101282813D01*
X305863078Y-101203792D01*
X305612144Y-101050020D01*
X305608208Y-101048292D01*
X305346590Y-100933449D01*
X305346586Y-100933448D01*
X305342662Y-100931725D01*
X305059620Y-100851099D01*
X305055378Y-100850495D01*
X305055372Y-100850494D01*
X304772505Y-100810236D01*
X304768254Y-100809631D01*
X304613117Y-100808819D01*
X304478242Y-100808112D01*
X304478236Y-100808112D01*
X304473956Y-100808090D01*
X304469712Y-100808649D01*
X304469708Y-100808649D01*
X304341377Y-100825544D01*
X304182171Y-100846504D01*
X304178031Y-100847637D01*
X304178029Y-100847637D01*
X304161072Y-100852276D01*
X303898300Y-100924163D01*
X303627595Y-101039628D01*
X303475219Y-101130824D01*
X303378746Y-101188561D01*
X303378742Y-101188564D01*
X303375064Y-101190765D01*
X303145382Y-101374775D01*
X302942798Y-101588254D01*
X302771060Y-101827252D01*
X302633347Y-102087346D01*
X302532208Y-102363724D01*
X302469512Y-102651270D01*
X302446422Y-102944665D01*
X65333803Y-102944665D01*
X65333803Y-100104665D01*
X82886422Y-100104665D01*
X82903363Y-100398479D01*
X82960022Y-100687276D01*
X82961408Y-100691324D01*
X83043314Y-100930550D01*
X83055352Y-100965711D01*
X83057279Y-100969542D01*
X83173969Y-101201553D01*
X83187588Y-101228632D01*
X83354282Y-101471174D01*
X83357163Y-101474340D01*
X83460817Y-101588254D01*
X83552351Y-101688849D01*
X83555639Y-101691598D01*
X83774838Y-101874877D01*
X83774843Y-101874881D01*
X83778130Y-101877629D01*
X83836206Y-101914060D01*
X84023799Y-102031738D01*
X84023803Y-102031740D01*
X84027439Y-102034021D01*
X84137131Y-102083549D01*
X84291755Y-102153365D01*
X84291759Y-102153367D01*
X84295667Y-102155131D01*
X84299787Y-102156351D01*
X84299786Y-102156351D01*
X84573737Y-102237499D01*
X84573741Y-102237500D01*
X84577850Y-102238717D01*
X84582084Y-102239365D01*
X84582089Y-102239366D01*
X84864524Y-102282584D01*
X84864526Y-102282584D01*
X84868766Y-102283233D01*
X85018567Y-102285586D01*
X85158741Y-102287789D01*
X85158747Y-102287789D01*
X85163032Y-102287856D01*
X85455202Y-102252499D01*
X85739871Y-102177818D01*
X85743831Y-102176178D01*
X85743836Y-102176176D01*
X85958289Y-102087346D01*
X86011771Y-102065193D01*
X86062094Y-102035787D01*
X86078838Y-102026003D01*
X86265870Y-101916710D01*
X86497467Y-101735115D01*
X86702276Y-101523769D01*
X86876506Y-101286582D01*
X87016935Y-101027944D01*
X87120964Y-100752641D01*
X87186667Y-100465767D01*
X87212829Y-100172630D01*
X87213303Y-100127321D01*
X87212050Y-100108945D01*
X87193578Y-99837977D01*
X87193577Y-99837971D01*
X87193286Y-99833700D01*
X87133605Y-99545513D01*
X87035365Y-99268092D01*
X86900384Y-99006570D01*
X86731158Y-98765786D01*
X86530821Y-98550197D01*
X86508709Y-98532098D01*
X86306396Y-98366508D01*
X86303078Y-98363792D01*
X86052144Y-98210020D01*
X86048208Y-98208292D01*
X85786590Y-98093449D01*
X85786586Y-98093448D01*
X85782662Y-98091725D01*
X85499620Y-98011099D01*
X85495378Y-98010495D01*
X85495372Y-98010494D01*
X85212505Y-97970236D01*
X85208254Y-97969631D01*
X85053117Y-97968819D01*
X84918242Y-97968112D01*
X84918236Y-97968112D01*
X84913956Y-97968090D01*
X84909712Y-97968649D01*
X84909708Y-97968649D01*
X84781377Y-97985544D01*
X84622171Y-98006504D01*
X84618031Y-98007637D01*
X84618029Y-98007637D01*
X84601072Y-98012276D01*
X84338300Y-98084163D01*
X84067595Y-98199628D01*
X83915219Y-98290824D01*
X83818746Y-98348561D01*
X83818742Y-98348564D01*
X83815064Y-98350765D01*
X83585382Y-98534775D01*
X83382798Y-98748254D01*
X83211060Y-98987252D01*
X83073347Y-99247346D01*
X82972208Y-99523724D01*
X82909512Y-99811270D01*
X82886422Y-100104665D01*
X65333803Y-100104665D01*
X65333803Y-80552539D01*
X65353805Y-80484418D01*
X65407461Y-80437925D01*
X65459803Y-80426539D01*
X200577144Y-80426540D01*
G37*
%TD.AperFunction*%
%TA.AperFunction,NonConductor*%
G36*
X335691802Y-80426540D02*
G01*
X335759923Y-80446542D01*
X335806416Y-80500198D01*
X335817802Y-80552540D01*
X335817803Y-156784139D01*
X335797801Y-156852260D01*
X335744145Y-156898753D01*
X335691803Y-156910139D01*
X318049906Y-156910139D01*
X278733061Y-156910140D01*
X278060314Y-156910140D01*
X278049640Y-156909687D01*
X278039078Y-156908789D01*
X278013242Y-156906592D01*
X278008255Y-156906067D01*
X277980543Y-156902590D01*
X277975063Y-156902686D01*
X277962184Y-156902251D01*
X277958564Y-156901943D01*
X277958562Y-156901943D01*
X277953718Y-156901531D01*
X277948866Y-156901869D01*
X277947093Y-156901856D01*
X277940765Y-156901973D01*
X277933298Y-156900654D01*
X277918310Y-156902304D01*
X277909315Y-156903294D01*
X277897723Y-156904032D01*
X277891277Y-156904144D01*
X277868961Y-156904533D01*
X277860390Y-156907202D01*
X277855574Y-156907978D01*
X277853212Y-156908336D01*
X277850367Y-156908739D01*
X277845892Y-156909051D01*
X277841504Y-156909995D01*
X277841496Y-156909996D01*
X277840513Y-156910207D01*
X277827812Y-156912267D01*
X277819363Y-156913197D01*
X277814663Y-156914468D01*
X277794321Y-156919969D01*
X277787970Y-156921511D01*
X277737395Y-156932389D01*
X277728420Y-156933981D01*
X194243870Y-168637396D01*
X194229055Y-168638588D01*
X194185174Y-168639517D01*
X194180369Y-168640370D01*
X194179243Y-168640481D01*
X194155468Y-168640399D01*
X194153671Y-168640079D01*
X194104269Y-168638391D01*
X194090985Y-168637231D01*
X118205832Y-157940706D01*
X111055313Y-156932792D01*
X111044850Y-156930863D01*
X111008734Y-156922616D01*
X111003904Y-156921412D01*
X110981082Y-156915243D01*
X110981076Y-156915242D01*
X110976745Y-156914071D01*
X110972208Y-156913516D01*
X110971445Y-156913422D01*
X110958720Y-156911196D01*
X110955312Y-156910418D01*
X110955307Y-156910417D01*
X110950567Y-156909335D01*
X110945708Y-156908994D01*
X110944323Y-156908789D01*
X110937616Y-156907971D01*
X110930479Y-156905646D01*
X110921507Y-156905373D01*
X110909643Y-156905012D01*
X110906186Y-156904907D01*
X110894713Y-156904032D01*
X110874883Y-156901605D01*
X110874880Y-156901605D01*
X110865972Y-156900515D01*
X110857114Y-156901969D01*
X110853594Y-156902041D01*
X110851161Y-156902067D01*
X110847016Y-156902072D01*
X110842555Y-156901759D01*
X110838090Y-156902082D01*
X110838077Y-156902082D01*
X110837190Y-156902146D01*
X110824288Y-156902416D01*
X110820781Y-156902310D01*
X110820780Y-156902310D01*
X110815910Y-156902162D01*
X110811084Y-156902764D01*
X110811077Y-156902764D01*
X110790008Y-156905391D01*
X110783514Y-156906030D01*
X110731288Y-156909809D01*
X110722195Y-156910138D01*
X110483059Y-156910138D01*
X74404438Y-156910139D01*
X65459803Y-156910139D01*
X65391682Y-156890137D01*
X65370620Y-156865830D01*
X65375578Y-143874665D01*
X146966422Y-143874665D01*
X146983363Y-144168479D01*
X147040022Y-144457276D01*
X147041408Y-144461324D01*
X147125107Y-144705787D01*
X147135352Y-144735711D01*
X147137279Y-144739542D01*
X147244755Y-144953233D01*
X147267588Y-144998632D01*
X147434282Y-145241174D01*
X147632351Y-145458849D01*
X147635639Y-145461598D01*
X147854838Y-145644877D01*
X147854843Y-145644881D01*
X147858130Y-145647629D01*
X147916206Y-145684060D01*
X148103799Y-145801738D01*
X148103803Y-145801740D01*
X148107439Y-145804021D01*
X148241553Y-145864576D01*
X148371755Y-145923365D01*
X148371759Y-145923367D01*
X148375667Y-145925131D01*
X148379787Y-145926351D01*
X148379786Y-145926351D01*
X148653737Y-146007499D01*
X148653741Y-146007500D01*
X148657850Y-146008717D01*
X148662084Y-146009365D01*
X148662089Y-146009366D01*
X148944524Y-146052584D01*
X148944526Y-146052584D01*
X148948766Y-146053233D01*
X149098567Y-146055586D01*
X149238741Y-146057789D01*
X149238747Y-146057789D01*
X149243032Y-146057856D01*
X149535202Y-146022499D01*
X149819871Y-145947818D01*
X149823831Y-145946178D01*
X149823836Y-145946176D01*
X149970208Y-145885546D01*
X150091771Y-145835193D01*
X150142094Y-145805787D01*
X150158838Y-145796003D01*
X150345870Y-145686710D01*
X150577467Y-145505115D01*
X150782276Y-145293769D01*
X150956506Y-145056582D01*
X151096935Y-144797944D01*
X151200964Y-144522641D01*
X151237848Y-144361598D01*
X151265710Y-144239947D01*
X151265711Y-144239942D01*
X151266667Y-144235767D01*
X151292829Y-143942630D01*
X151293303Y-143897321D01*
X151292050Y-143878945D01*
X151273578Y-143607977D01*
X151273577Y-143607971D01*
X151273286Y-143603700D01*
X151213605Y-143315513D01*
X151115365Y-143038092D01*
X150980384Y-142776570D01*
X150979045Y-142774665D01*
X236906422Y-142774665D01*
X236923363Y-143068479D01*
X236980022Y-143357276D01*
X236981408Y-143361324D01*
X237058175Y-143585540D01*
X237075352Y-143635711D01*
X237207588Y-143898632D01*
X237374282Y-144141174D01*
X237377163Y-144144340D01*
X237464159Y-144239947D01*
X237572351Y-144358849D01*
X237575639Y-144361598D01*
X237794838Y-144544877D01*
X237794843Y-144544881D01*
X237798130Y-144547629D01*
X237856206Y-144584060D01*
X238043799Y-144701738D01*
X238043803Y-144701740D01*
X238047439Y-144704021D01*
X238126109Y-144739542D01*
X238311755Y-144823365D01*
X238311759Y-144823367D01*
X238315667Y-144825131D01*
X238319787Y-144826351D01*
X238319786Y-144826351D01*
X238593737Y-144907499D01*
X238593741Y-144907500D01*
X238597850Y-144908717D01*
X238602084Y-144909365D01*
X238602089Y-144909366D01*
X238884524Y-144952584D01*
X238884526Y-144952584D01*
X238888766Y-144953233D01*
X239038567Y-144955586D01*
X239178741Y-144957789D01*
X239178747Y-144957789D01*
X239183032Y-144957856D01*
X239475202Y-144922499D01*
X239759871Y-144847818D01*
X239763831Y-144846178D01*
X239763836Y-144846176D01*
X239910208Y-144785546D01*
X240031771Y-144735193D01*
X240082094Y-144705787D01*
X240098838Y-144696003D01*
X240285870Y-144586710D01*
X240517467Y-144405115D01*
X240722276Y-144193769D01*
X240896506Y-143956582D01*
X241036935Y-143697944D01*
X241140964Y-143422641D01*
X241165500Y-143315513D01*
X241205710Y-143139947D01*
X241205711Y-143139942D01*
X241206667Y-143135767D01*
X241232829Y-142842630D01*
X241233303Y-142797321D01*
X241231888Y-142776570D01*
X241213578Y-142507977D01*
X241213577Y-142507971D01*
X241213286Y-142503700D01*
X241153605Y-142215513D01*
X241055365Y-141938092D01*
X240920384Y-141676570D01*
X240907185Y-141657789D01*
X240753625Y-141439296D01*
X240753624Y-141439295D01*
X240751158Y-141435786D01*
X240550821Y-141220197D01*
X240535634Y-141207766D01*
X240326396Y-141036508D01*
X240323078Y-141033792D01*
X240072144Y-140880020D01*
X240068208Y-140878292D01*
X239806590Y-140763449D01*
X239806586Y-140763448D01*
X239802662Y-140761725D01*
X239519620Y-140681099D01*
X239515378Y-140680495D01*
X239515372Y-140680494D01*
X239232505Y-140640236D01*
X239228254Y-140639631D01*
X239073117Y-140638819D01*
X238938242Y-140638112D01*
X238938236Y-140638112D01*
X238933956Y-140638090D01*
X238929712Y-140638649D01*
X238929708Y-140638649D01*
X238822123Y-140652813D01*
X238642171Y-140676504D01*
X238638031Y-140677637D01*
X238638029Y-140677637D01*
X238621072Y-140682276D01*
X238358300Y-140754163D01*
X238087595Y-140869628D01*
X237968051Y-140941174D01*
X237838746Y-141018561D01*
X237838742Y-141018564D01*
X237835064Y-141020765D01*
X237605382Y-141204775D01*
X237527629Y-141286710D01*
X237414629Y-141405787D01*
X237402798Y-141418254D01*
X237309697Y-141547818D01*
X237237057Y-141648907D01*
X237231060Y-141657252D01*
X237093347Y-141917346D01*
X236992208Y-142193724D01*
X236929512Y-142481270D01*
X236906422Y-142774665D01*
X150979045Y-142774665D01*
X150976044Y-142770394D01*
X150813625Y-142539296D01*
X150813624Y-142539295D01*
X150811158Y-142535786D01*
X150610821Y-142320197D01*
X150588709Y-142302098D01*
X150386396Y-142136508D01*
X150383078Y-142133792D01*
X150132144Y-141980020D01*
X150128208Y-141978292D01*
X149866590Y-141863449D01*
X149866586Y-141863448D01*
X149862662Y-141861725D01*
X149579620Y-141781099D01*
X149575378Y-141780495D01*
X149575372Y-141780494D01*
X149292505Y-141740236D01*
X149288254Y-141739631D01*
X149133117Y-141738819D01*
X148998242Y-141738112D01*
X148998236Y-141738112D01*
X148993956Y-141738090D01*
X148989712Y-141738649D01*
X148989708Y-141738649D01*
X148883862Y-141752584D01*
X148702171Y-141776504D01*
X148698031Y-141777637D01*
X148698029Y-141777637D01*
X148681072Y-141782276D01*
X148418300Y-141854163D01*
X148147595Y-141969628D01*
X147995219Y-142060824D01*
X147898746Y-142118561D01*
X147898742Y-142118564D01*
X147895064Y-142120765D01*
X147665382Y-142304775D01*
X147545607Y-142430991D01*
X147472551Y-142507977D01*
X147462798Y-142518254D01*
X147291060Y-142757252D01*
X147289051Y-142761047D01*
X147289050Y-142761048D01*
X147268529Y-142799806D01*
X147153347Y-143017346D01*
X147052208Y-143293724D01*
X146989512Y-143581270D01*
X146966422Y-143874665D01*
X65375578Y-143874665D01*
X65377219Y-139574665D01*
X83626422Y-139574665D01*
X83643363Y-139868479D01*
X83700022Y-140157276D01*
X83701408Y-140161324D01*
X83781046Y-140393926D01*
X83795352Y-140435711D01*
X83797279Y-140439542D01*
X83918466Y-140680494D01*
X83927588Y-140698632D01*
X84023127Y-140837643D01*
X84061702Y-140893769D01*
X84094282Y-140941174D01*
X84097163Y-140944340D01*
X84240651Y-141102031D01*
X84292351Y-141158849D01*
X84295639Y-141161598D01*
X84514838Y-141344877D01*
X84514843Y-141344881D01*
X84518130Y-141347629D01*
X84625759Y-141415145D01*
X84763799Y-141501738D01*
X84763803Y-141501740D01*
X84767439Y-141504021D01*
X84860802Y-141546176D01*
X85031755Y-141623365D01*
X85031759Y-141623367D01*
X85035667Y-141625131D01*
X85039787Y-141626351D01*
X85039786Y-141626351D01*
X85313737Y-141707499D01*
X85313741Y-141707500D01*
X85317850Y-141708717D01*
X85322084Y-141709365D01*
X85322089Y-141709366D01*
X85604524Y-141752584D01*
X85604526Y-141752584D01*
X85608766Y-141753233D01*
X85758567Y-141755586D01*
X85898741Y-141757789D01*
X85898747Y-141757789D01*
X85903032Y-141757856D01*
X86195202Y-141722499D01*
X86479871Y-141647818D01*
X86483831Y-141646178D01*
X86483836Y-141646176D01*
X86630208Y-141585546D01*
X86751771Y-141535193D01*
X86766903Y-141526351D01*
X86818838Y-141496003D01*
X87005870Y-141386710D01*
X87237467Y-141205115D01*
X87442276Y-140993769D01*
X87616506Y-140756582D01*
X87756935Y-140497944D01*
X87860964Y-140222641D01*
X87926667Y-139935767D01*
X87952829Y-139642630D01*
X87953303Y-139597321D01*
X87952050Y-139578945D01*
X87944941Y-139474665D01*
X311006422Y-139474665D01*
X311023363Y-139768479D01*
X311080022Y-140057276D01*
X311081408Y-140061324D01*
X311135209Y-140218462D01*
X311175352Y-140335711D01*
X311307588Y-140598632D01*
X311474282Y-140841174D01*
X311477163Y-140844340D01*
X311647514Y-141031553D01*
X311672351Y-141058849D01*
X311675639Y-141061598D01*
X311894838Y-141244877D01*
X311894843Y-141244881D01*
X311898130Y-141247629D01*
X311956206Y-141284060D01*
X312143799Y-141401738D01*
X312143803Y-141401740D01*
X312147439Y-141404021D01*
X312281553Y-141464576D01*
X312411755Y-141523365D01*
X312411759Y-141523367D01*
X312415667Y-141525131D01*
X312483680Y-141545277D01*
X312693737Y-141607499D01*
X312693741Y-141607500D01*
X312697850Y-141608717D01*
X312702084Y-141609365D01*
X312702089Y-141609366D01*
X312984524Y-141652584D01*
X312984526Y-141652584D01*
X312988766Y-141653233D01*
X313138567Y-141655586D01*
X313278741Y-141657789D01*
X313278747Y-141657789D01*
X313283032Y-141657856D01*
X313575202Y-141622499D01*
X313859871Y-141547818D01*
X313863831Y-141546178D01*
X313863836Y-141546176D01*
X314010208Y-141485546D01*
X314131771Y-141435193D01*
X314136132Y-141432645D01*
X314281619Y-141347629D01*
X314385870Y-141286710D01*
X314617467Y-141105115D01*
X314822276Y-140893769D01*
X314996506Y-140656582D01*
X315116429Y-140435711D01*
X315134885Y-140401720D01*
X315134886Y-140401718D01*
X315136935Y-140397944D01*
X315240964Y-140122641D01*
X315284743Y-139931493D01*
X315305710Y-139839947D01*
X315305711Y-139839942D01*
X315306667Y-139835767D01*
X315332829Y-139542630D01*
X315333303Y-139497321D01*
X315332050Y-139478945D01*
X315313578Y-139207977D01*
X315313577Y-139207971D01*
X315313286Y-139203700D01*
X315253605Y-138915513D01*
X315155365Y-138638092D01*
X315020384Y-138376570D01*
X314906933Y-138215145D01*
X314853625Y-138139296D01*
X314853624Y-138139295D01*
X314851158Y-138135786D01*
X314650821Y-137920197D01*
X314628709Y-137902098D01*
X314532615Y-137823447D01*
X314423078Y-137733792D01*
X314172144Y-137580020D01*
X314168208Y-137578292D01*
X313906590Y-137463449D01*
X313906586Y-137463448D01*
X313902662Y-137461725D01*
X313619620Y-137381099D01*
X313615378Y-137380495D01*
X313615372Y-137380494D01*
X313332505Y-137340236D01*
X313328254Y-137339631D01*
X313173117Y-137338819D01*
X313038242Y-137338112D01*
X313038236Y-137338112D01*
X313033956Y-137338090D01*
X313029712Y-137338649D01*
X313029708Y-137338649D01*
X312901377Y-137355544D01*
X312742171Y-137376504D01*
X312738031Y-137377637D01*
X312738029Y-137377637D01*
X312721072Y-137382276D01*
X312458300Y-137454163D01*
X312187595Y-137569628D01*
X312035219Y-137660824D01*
X311938746Y-137718561D01*
X311938742Y-137718564D01*
X311935064Y-137720765D01*
X311705382Y-137904775D01*
X311502798Y-138118254D01*
X311331060Y-138357252D01*
X311193347Y-138617346D01*
X311092208Y-138893724D01*
X311029512Y-139181270D01*
X311006422Y-139474665D01*
X87944941Y-139474665D01*
X87933578Y-139307977D01*
X87933577Y-139307971D01*
X87933286Y-139303700D01*
X87873605Y-139015513D01*
X87775365Y-138738092D01*
X87640384Y-138476570D01*
X87572779Y-138380377D01*
X87473625Y-138239296D01*
X87473624Y-138239295D01*
X87471158Y-138235786D01*
X87270821Y-138020197D01*
X87248709Y-138002098D01*
X87133597Y-137907881D01*
X87043078Y-137833792D01*
X86792144Y-137680020D01*
X86788208Y-137678292D01*
X86526590Y-137563449D01*
X86526586Y-137563448D01*
X86522662Y-137561725D01*
X86239620Y-137481099D01*
X86235378Y-137480495D01*
X86235372Y-137480494D01*
X85952505Y-137440236D01*
X85948254Y-137439631D01*
X85793117Y-137438819D01*
X85658242Y-137438112D01*
X85658236Y-137438112D01*
X85653956Y-137438090D01*
X85649712Y-137438649D01*
X85649708Y-137438649D01*
X85540482Y-137453029D01*
X85362171Y-137476504D01*
X85358031Y-137477637D01*
X85358029Y-137477637D01*
X85341072Y-137482276D01*
X85078300Y-137554163D01*
X84807595Y-137669628D01*
X84704126Y-137731553D01*
X84558746Y-137818561D01*
X84558742Y-137818564D01*
X84555064Y-137820765D01*
X84325382Y-138004775D01*
X84122798Y-138218254D01*
X83951060Y-138457252D01*
X83813347Y-138717346D01*
X83712208Y-138993724D01*
X83649512Y-139281270D01*
X83626422Y-139574665D01*
X65377219Y-139574665D01*
X65390122Y-105764665D01*
X157586422Y-105764665D01*
X157603363Y-106058479D01*
X157660022Y-106347276D01*
X157755352Y-106625711D01*
X157757279Y-106629542D01*
X157877200Y-106867977D01*
X157887588Y-106888632D01*
X158054282Y-107131174D01*
X158252351Y-107348849D01*
X158255639Y-107351598D01*
X158474838Y-107534877D01*
X158474843Y-107534881D01*
X158478130Y-107537629D01*
X158536206Y-107574060D01*
X158723799Y-107691738D01*
X158723803Y-107691740D01*
X158727439Y-107694021D01*
X158861553Y-107754576D01*
X158991755Y-107813365D01*
X158991759Y-107813367D01*
X158995667Y-107815131D01*
X158999787Y-107816351D01*
X158999786Y-107816351D01*
X159273737Y-107897499D01*
X159273741Y-107897500D01*
X159277850Y-107898717D01*
X159282084Y-107899365D01*
X159282089Y-107899366D01*
X159564524Y-107942584D01*
X159564526Y-107942584D01*
X159568766Y-107943233D01*
X159718567Y-107945586D01*
X159858741Y-107947789D01*
X159858747Y-107947789D01*
X159863032Y-107947856D01*
X160155202Y-107912499D01*
X160439871Y-107837818D01*
X160443831Y-107836178D01*
X160443836Y-107836176D01*
X160590208Y-107775546D01*
X160711771Y-107725193D01*
X160725320Y-107717276D01*
X160778838Y-107686003D01*
X160965870Y-107576710D01*
X161197467Y-107395115D01*
X161402276Y-107183769D01*
X161438346Y-107134665D01*
X217326422Y-107134665D01*
X217343363Y-107428479D01*
X217400022Y-107717276D01*
X217401408Y-107721324D01*
X217478968Y-107947856D01*
X217495352Y-107995711D01*
X217627588Y-108258632D01*
X217794282Y-108501174D01*
X217992351Y-108718849D01*
X217995639Y-108721598D01*
X218214838Y-108904877D01*
X218214843Y-108904881D01*
X218218130Y-108907629D01*
X218276206Y-108944060D01*
X218463799Y-109061738D01*
X218463803Y-109061740D01*
X218467439Y-109064021D01*
X218601553Y-109124576D01*
X218731755Y-109183365D01*
X218731759Y-109183367D01*
X218735667Y-109185131D01*
X218739787Y-109186351D01*
X218739786Y-109186351D01*
X219013737Y-109267499D01*
X219013741Y-109267500D01*
X219017850Y-109268717D01*
X219022084Y-109269365D01*
X219022089Y-109269366D01*
X219304524Y-109312584D01*
X219304526Y-109312584D01*
X219308766Y-109313233D01*
X219458567Y-109315586D01*
X219598741Y-109317789D01*
X219598747Y-109317789D01*
X219603032Y-109317856D01*
X219895202Y-109282499D01*
X220179871Y-109207818D01*
X220183831Y-109206178D01*
X220183836Y-109206176D01*
X220330208Y-109145546D01*
X220451771Y-109095193D01*
X220502094Y-109065787D01*
X220518838Y-109056003D01*
X220705870Y-108946710D01*
X220937467Y-108765115D01*
X221142276Y-108553769D01*
X221316506Y-108316582D01*
X221456935Y-108057944D01*
X221560964Y-107782641D01*
X221581784Y-107691738D01*
X221625710Y-107499947D01*
X221625711Y-107499942D01*
X221626667Y-107495767D01*
X221652829Y-107202630D01*
X221653063Y-107180313D01*
X221653277Y-107159806D01*
X221653303Y-107157321D01*
X221652050Y-107138945D01*
X221633578Y-106867977D01*
X221633577Y-106867971D01*
X221633286Y-106863700D01*
X221573605Y-106575513D01*
X221475365Y-106298092D01*
X221340384Y-106036570D01*
X221197053Y-105832630D01*
X221173625Y-105799296D01*
X221173624Y-105799295D01*
X221171158Y-105795786D01*
X220970821Y-105580197D01*
X220948709Y-105562098D01*
X220746396Y-105396508D01*
X220743078Y-105393792D01*
X220492144Y-105240020D01*
X220488208Y-105238292D01*
X220226590Y-105123449D01*
X220226586Y-105123448D01*
X220222662Y-105121725D01*
X219939620Y-105041099D01*
X219935378Y-105040495D01*
X219935372Y-105040494D01*
X219652505Y-105000236D01*
X219648254Y-104999631D01*
X219493117Y-104998819D01*
X219358242Y-104998112D01*
X219358236Y-104998112D01*
X219353956Y-104998090D01*
X219349712Y-104998649D01*
X219349708Y-104998649D01*
X219221377Y-105015544D01*
X219062171Y-105036504D01*
X219058031Y-105037637D01*
X219058029Y-105037637D01*
X219041072Y-105042276D01*
X218778300Y-105114163D01*
X218507595Y-105229628D01*
X218355219Y-105320824D01*
X218258746Y-105378561D01*
X218258742Y-105378564D01*
X218255064Y-105380765D01*
X218025382Y-105564775D01*
X217905607Y-105690991D01*
X217839747Y-105760394D01*
X217822798Y-105778254D01*
X217651060Y-106017252D01*
X217513347Y-106277346D01*
X217412208Y-106553724D01*
X217349512Y-106841270D01*
X217326422Y-107134665D01*
X161438346Y-107134665D01*
X161576506Y-106946582D01*
X161716935Y-106687944D01*
X161820964Y-106412641D01*
X161886667Y-106125767D01*
X161912829Y-105832630D01*
X161913303Y-105787321D01*
X161913134Y-105784840D01*
X161893578Y-105497977D01*
X161893577Y-105497971D01*
X161893286Y-105493700D01*
X161833605Y-105205513D01*
X161735365Y-104928092D01*
X161687849Y-104836031D01*
X161602349Y-104670377D01*
X161602349Y-104670376D01*
X161600384Y-104666570D01*
X161537972Y-104577766D01*
X161433625Y-104429296D01*
X161433624Y-104429295D01*
X161431158Y-104425786D01*
X161230821Y-104210197D01*
X161208709Y-104192098D01*
X161006396Y-104026508D01*
X161003078Y-104023792D01*
X160752144Y-103870020D01*
X160738262Y-103863926D01*
X160486590Y-103753449D01*
X160486586Y-103753448D01*
X160482662Y-103751725D01*
X160199620Y-103671099D01*
X160195378Y-103670495D01*
X160195372Y-103670494D01*
X159912505Y-103630236D01*
X159908254Y-103629631D01*
X159753117Y-103628819D01*
X159618242Y-103628112D01*
X159618236Y-103628112D01*
X159613956Y-103628090D01*
X159609712Y-103628649D01*
X159609708Y-103628649D01*
X159481377Y-103645544D01*
X159322171Y-103666504D01*
X159318031Y-103667637D01*
X159318029Y-103667637D01*
X159301072Y-103672276D01*
X159038300Y-103744163D01*
X158767595Y-103859628D01*
X158615219Y-103950824D01*
X158518746Y-104008561D01*
X158518742Y-104008564D01*
X158515064Y-104010765D01*
X158285382Y-104194775D01*
X158082798Y-104408254D01*
X157911060Y-104647252D01*
X157773347Y-104907346D01*
X157672208Y-105183724D01*
X157609512Y-105471270D01*
X157609176Y-105475540D01*
X157600940Y-105580197D01*
X157586422Y-105764665D01*
X65390122Y-105764665D01*
X65391198Y-102944665D01*
X302446422Y-102944665D01*
X302463363Y-103238479D01*
X302520022Y-103527276D01*
X302521408Y-103531324D01*
X302597459Y-103753449D01*
X302615352Y-103805711D01*
X302747588Y-104068632D01*
X302914282Y-104311174D01*
X303112351Y-104528849D01*
X303115639Y-104531598D01*
X303334838Y-104714877D01*
X303334843Y-104714881D01*
X303338130Y-104717629D01*
X303396206Y-104754060D01*
X303583799Y-104871738D01*
X303583803Y-104871740D01*
X303587439Y-104874021D01*
X303670173Y-104911377D01*
X303851755Y-104993365D01*
X303851759Y-104993367D01*
X303855667Y-104995131D01*
X303923680Y-105015277D01*
X304133737Y-105077499D01*
X304133741Y-105077500D01*
X304137850Y-105078717D01*
X304142084Y-105079365D01*
X304142089Y-105079366D01*
X304424524Y-105122584D01*
X304424526Y-105122584D01*
X304428766Y-105123233D01*
X304578567Y-105125586D01*
X304718741Y-105127789D01*
X304718747Y-105127789D01*
X304723032Y-105127856D01*
X305015202Y-105092499D01*
X305299871Y-105017818D01*
X305303831Y-105016178D01*
X305303836Y-105016176D01*
X305516488Y-104928092D01*
X305571771Y-104905193D01*
X305622094Y-104875787D01*
X305638838Y-104866003D01*
X305825870Y-104756710D01*
X306057467Y-104575115D01*
X306262276Y-104363769D01*
X306436506Y-104126582D01*
X306529308Y-103955662D01*
X306574885Y-103871720D01*
X306574886Y-103871718D01*
X306576935Y-103867944D01*
X306680964Y-103592641D01*
X306746667Y-103305767D01*
X306772829Y-103012630D01*
X306773303Y-102967321D01*
X306772050Y-102948945D01*
X306753578Y-102677977D01*
X306753577Y-102677971D01*
X306753286Y-102673700D01*
X306693605Y-102385513D01*
X306595365Y-102108092D01*
X306460384Y-101846570D01*
X306291158Y-101605786D01*
X306090821Y-101390197D01*
X306068709Y-101372098D01*
X305959623Y-101282813D01*
X305863078Y-101203792D01*
X305612144Y-101050020D01*
X305608208Y-101048292D01*
X305346590Y-100933449D01*
X305346586Y-100933448D01*
X305342662Y-100931725D01*
X305059620Y-100851099D01*
X305055378Y-100850495D01*
X305055372Y-100850494D01*
X304772505Y-100810236D01*
X304768254Y-100809631D01*
X304613117Y-100808819D01*
X304478242Y-100808112D01*
X304478236Y-100808112D01*
X304473956Y-100808090D01*
X304469712Y-100808649D01*
X304469708Y-100808649D01*
X304341377Y-100825544D01*
X304182171Y-100846504D01*
X304178031Y-100847637D01*
X304178029Y-100847637D01*
X304161072Y-100852276D01*
X303898300Y-100924163D01*
X303627595Y-101039628D01*
X303475219Y-101130824D01*
X303378746Y-101188561D01*
X303378742Y-101188564D01*
X303375064Y-101190765D01*
X303145382Y-101374775D01*
X302942798Y-101588254D01*
X302771060Y-101827252D01*
X302633347Y-102087346D01*
X302532208Y-102363724D01*
X302469512Y-102651270D01*
X302446422Y-102944665D01*
X65391198Y-102944665D01*
X65392282Y-100104665D01*
X82886422Y-100104665D01*
X82903363Y-100398479D01*
X82960022Y-100687276D01*
X82961408Y-100691324D01*
X83043314Y-100930550D01*
X83055352Y-100965711D01*
X83057279Y-100969542D01*
X83173969Y-101201553D01*
X83187588Y-101228632D01*
X83354282Y-101471174D01*
X83357163Y-101474340D01*
X83460817Y-101588254D01*
X83552351Y-101688849D01*
X83555639Y-101691598D01*
X83774838Y-101874877D01*
X83774843Y-101874881D01*
X83778130Y-101877629D01*
X83836206Y-101914060D01*
X84023799Y-102031738D01*
X84023803Y-102031740D01*
X84027439Y-102034021D01*
X84137131Y-102083549D01*
X84291755Y-102153365D01*
X84291759Y-102153367D01*
X84295667Y-102155131D01*
X84299787Y-102156351D01*
X84299786Y-102156351D01*
X84573737Y-102237499D01*
X84573741Y-102237500D01*
X84577850Y-102238717D01*
X84582084Y-102239365D01*
X84582089Y-102239366D01*
X84864524Y-102282584D01*
X84864526Y-102282584D01*
X84868766Y-102283233D01*
X85018567Y-102285586D01*
X85158741Y-102287789D01*
X85158747Y-102287789D01*
X85163032Y-102287856D01*
X85455202Y-102252499D01*
X85739871Y-102177818D01*
X85743831Y-102176178D01*
X85743836Y-102176176D01*
X85958289Y-102087346D01*
X86011771Y-102065193D01*
X86062094Y-102035787D01*
X86078838Y-102026003D01*
X86265870Y-101916710D01*
X86497467Y-101735115D01*
X86702276Y-101523769D01*
X86876506Y-101286582D01*
X87016935Y-101027944D01*
X87120964Y-100752641D01*
X87186667Y-100465767D01*
X87212829Y-100172630D01*
X87213303Y-100127321D01*
X87212050Y-100108945D01*
X87193578Y-99837977D01*
X87193577Y-99837971D01*
X87193286Y-99833700D01*
X87133605Y-99545513D01*
X87035365Y-99268092D01*
X86900384Y-99006570D01*
X86731158Y-98765786D01*
X86530821Y-98550197D01*
X86508709Y-98532098D01*
X86306396Y-98366508D01*
X86303078Y-98363792D01*
X86052144Y-98210020D01*
X86048208Y-98208292D01*
X85786590Y-98093449D01*
X85786586Y-98093448D01*
X85782662Y-98091725D01*
X85499620Y-98011099D01*
X85495378Y-98010495D01*
X85495372Y-98010494D01*
X85212505Y-97970236D01*
X85208254Y-97969631D01*
X85053117Y-97968819D01*
X84918242Y-97968112D01*
X84918236Y-97968112D01*
X84913956Y-97968090D01*
X84909712Y-97968649D01*
X84909708Y-97968649D01*
X84781377Y-97985544D01*
X84622171Y-98006504D01*
X84618031Y-98007637D01*
X84618029Y-98007637D01*
X84601072Y-98012276D01*
X84338300Y-98084163D01*
X84067595Y-98199628D01*
X83915219Y-98290824D01*
X83818746Y-98348561D01*
X83818742Y-98348564D01*
X83815064Y-98350765D01*
X83585382Y-98534775D01*
X83382798Y-98748254D01*
X83211060Y-98987252D01*
X83073347Y-99247346D01*
X82972208Y-99523724D01*
X82909512Y-99811270D01*
X82886422Y-100104665D01*
X65392282Y-100104665D01*
X65399785Y-80444576D01*
X65407461Y-80437925D01*
X65459803Y-80426539D01*
X166366572Y-80426539D01*
X335691802Y-80426540D01*
G37*
%TD.AperFunction*%
M02*
