G04 #@! TF.GenerationSoftware,KiCad,Pcbnew,(5.99.0-9176-ga1730d51ff)*
G04 #@! TF.CreationDate,2021-11-19T15:25:31-06:00*
G04 #@! TF.ProjectId,Plate,506c6174-652e-46b6-9963-61645f706362,rev?*
G04 #@! TF.SameCoordinates,Original*
G04 #@! TF.FileFunction,Profile,NP*
%FSLAX46Y46*%
G04 Gerber Fmt 4.6, Leading zero omitted, Abs format (unit mm)*
G04 Created by KiCad (PCBNEW (5.99.0-9176-ga1730d51ff)) date 2021-11-19 15:25:31*
%MOMM*%
%LPD*%
G01*
G04 APERTURE LIST*
G04 #@! TA.AperFunction,Profile*
%ADD10C,0.100000*%
G04 #@! TD*
G04 APERTURE END LIST*
D10*
X187039516Y-176548789D02*
G75*
G02*
X187604237Y-176123240I495135J-69586D01*
G01*
X218881108Y-191327856D02*
G75*
G02*
X218316387Y-190902307I-69586J495135D01*
G01*
X168379329Y-188063856D02*
X170327753Y-174200103D01*
X260110880Y-184523560D02*
X272984364Y-182714309D01*
X287037281Y-122677143D02*
X287037281Y-109677143D01*
X263684437Y-164279201D02*
G75*
G02*
X263258888Y-164843922I-495135J-69586D01*
G01*
X185189963Y-175783937D02*
G75*
G02*
X185615511Y-176348657I-69586J-495134D01*
G01*
X266876039Y-150702893D02*
G75*
G02*
X267301587Y-150138171I495135J69587D01*
G01*
X279588728Y-109936896D02*
G75*
G02*
X280153449Y-110362443I69587J-495134D01*
G01*
X110442032Y-180398642D02*
G75*
G02*
X109942031Y-180898643I-500001J0D01*
G01*
X349019532Y-166898642D02*
G75*
G02*
X349519531Y-167398643I-1J-500000D01*
G01*
X246378760Y-172315899D02*
G75*
G02*
X246943481Y-172741446I69587J-495134D01*
G01*
X183835308Y-156861252D02*
G75*
G02*
X184400029Y-156435703I495135J-69586D01*
G01*
X169562947Y-115876057D02*
G75*
G02*
X169988495Y-116440777I-69586J-495134D01*
G01*
X183806261Y-189222143D02*
G75*
G02*
X183241540Y-189647690I-495134J69587D01*
G01*
X169902205Y-173635383D02*
G75*
G02*
X170327753Y-174200103I-69586J-495134D01*
G01*
X336019531Y-180898643D02*
G75*
G02*
X335519531Y-180398643I0J500000D01*
G01*
X251600886Y-146740218D02*
X249791636Y-133866734D01*
X246378761Y-172315899D02*
X240437152Y-173150937D01*
X171390674Y-132091571D02*
G75*
G03*
X171390674Y-132091571I-800000J0D01*
G01*
X268091522Y-130789939D02*
X255218037Y-132599189D01*
X73129531Y-180898643D02*
G75*
G02*
X72629531Y-180398643I0J500000D01*
G01*
X338923031Y-142417643D02*
X325923031Y-142417642D01*
X219437246Y-151765437D02*
X232310731Y-149956187D01*
X269250011Y-164001924D02*
X282123496Y-162192674D01*
X343899781Y-122677143D02*
G75*
G02*
X343399781Y-123177143I-500000J0D01*
G01*
X164970703Y-154210003D02*
G75*
G02*
X165535423Y-153784455I495134J-69586D01*
G01*
X161872999Y-187654365D02*
X167814609Y-188489404D01*
X119752781Y-147658143D02*
G75*
G02*
X120252781Y-148158143I0J-500000D01*
G01*
X100115781Y-148158143D02*
X100115781Y-162158143D01*
X133898638Y-130100980D02*
G75*
G02*
X134324186Y-130665700I-69586J-495134D01*
G01*
X330399781Y-109177143D02*
X343399781Y-109177143D01*
X119752781Y-161658143D02*
X106752781Y-161658143D01*
X222735120Y-175638796D02*
X216793512Y-176473834D01*
X195889811Y-171683160D02*
X197699060Y-158809674D01*
X293312511Y-184098643D02*
X358659848Y-184098642D01*
X332852531Y-161158143D02*
X332852531Y-148158143D01*
X137260137Y-111841106D02*
X135450887Y-124714591D01*
X150698342Y-113224809D02*
G75*
G02*
X151123890Y-113789529I-69586J-495134D01*
G01*
X139295992Y-163729416D02*
G75*
G02*
X138731270Y-164154964I-495135J69587D01*
G01*
X268091522Y-130789939D02*
G75*
G02*
X268656243Y-131215486I69587J-495134D01*
G01*
X320087280Y-109677143D02*
X320087280Y-122677143D01*
X171751758Y-174400234D02*
X169942508Y-187273719D01*
X248011432Y-153354140D02*
G75*
G02*
X248436980Y-152789418I495135J69587D01*
G01*
X89772781Y-128917643D02*
X89772781Y-141917643D01*
X273409913Y-182149589D02*
G75*
G02*
X272984365Y-182714309I-495134J-69586D01*
G01*
X149314639Y-126663015D02*
G75*
G02*
X148749918Y-127088562I-495134J69587D01*
G01*
X75739781Y-147658143D02*
G75*
G02*
X76239781Y-148158143I0J-500000D01*
G01*
X132514936Y-143539185D02*
X134324186Y-130665700D01*
X335519531Y-180398643D02*
X335519531Y-167398643D01*
X100115780Y-162158143D02*
G75*
G02*
X99615781Y-162658142I-499999J0D01*
G01*
X182451605Y-170299458D02*
G75*
G02*
X182026057Y-169734736I69587J495135D01*
G01*
X300537281Y-109177142D02*
G75*
G02*
X301037280Y-109677143I-1J-500000D01*
G01*
X96128318Y-126440719D02*
G75*
G03*
X96128318Y-126440719I-800000J0D01*
G01*
X222994909Y-117890639D02*
X210121424Y-119699889D01*
X192022970Y-191386753D02*
X193971393Y-177523000D01*
X346352531Y-147658143D02*
G75*
G02*
X346852531Y-148158143I0J-500000D01*
G01*
X229146828Y-156005386D02*
X230956078Y-168878872D01*
X183835309Y-156861251D02*
X182026058Y-169734736D01*
X190492458Y-138054722D02*
G75*
G02*
X190918006Y-138619442I-69586J-495134D01*
G01*
X301037280Y-109677143D02*
X301037280Y-122677143D01*
X222994908Y-117890639D02*
G75*
G02*
X223559629Y-118316186I69587J-495134D01*
G01*
X159544301Y-152942459D02*
G75*
G02*
X159969849Y-153507179I-69586J-495134D01*
G01*
X271035942Y-168850557D02*
X258162456Y-170659807D01*
X96442031Y-167398643D02*
G75*
G02*
X96942031Y-166898643I500000J0D01*
G01*
X346852531Y-161158143D02*
G75*
G02*
X346352531Y-161658143I-500000J0D01*
G01*
X225955223Y-169581696D02*
X224145973Y-156708211D01*
X76272781Y-142417643D02*
G75*
G02*
X75772781Y-141917643I0J500000D01*
G01*
X341361032Y-143417642D02*
G75*
G02*
X340861031Y-142917643I-1J500000D01*
G01*
X307966781Y-142417642D02*
X294966780Y-142417642D01*
X349519531Y-167398643D02*
X349519531Y-180398643D01*
X251600886Y-146740219D02*
G75*
G02*
X251175338Y-147304939I-495134J-69586D01*
G01*
X127241489Y-148907509D02*
X125432238Y-161780994D01*
X339423031Y-141917643D02*
G75*
G02*
X338923031Y-142417643I-500000J0D01*
G01*
X146106095Y-151558757D02*
G75*
G02*
X146670816Y-151133208I495135J-69586D01*
G01*
X263098092Y-125887176D02*
X261288842Y-113013691D01*
X316985031Y-128917643D02*
G75*
G02*
X317485031Y-128417643I500000J0D01*
G01*
X333352531Y-147658143D02*
X346352531Y-147658143D01*
X113085281Y-128417643D02*
G75*
G02*
X113585281Y-128917643I0J-500000D01*
G01*
X91939782Y-109177142D02*
G75*
G02*
X92439781Y-109677143I-1J-500000D01*
G01*
X158189645Y-134019772D02*
G75*
G02*
X158754366Y-133594223I495135J-69586D01*
G01*
X106752781Y-147658143D02*
X119752781Y-147658143D01*
X263098092Y-125887177D02*
G75*
G02*
X262672544Y-126451897I-495134J-69586D01*
G01*
X212069846Y-133563642D02*
G75*
G02*
X211505126Y-133138094I-69586J495134D01*
G01*
X358662219Y-102149390D02*
G75*
G02*
X360662220Y-104149450I1J-2000000D01*
G01*
X195889811Y-171683160D02*
G75*
G02*
X195325090Y-172108707I-495134J69587D01*
G01*
X178408908Y-155593707D02*
X165535424Y-153784456D01*
X244819831Y-166930449D02*
G75*
G02*
X244394283Y-167495169I-495134J-69586D01*
G01*
X97489781Y-109677143D02*
G75*
G02*
X97989781Y-109177143I500000J0D01*
G01*
X187043852Y-131965510D02*
X188853102Y-119092025D01*
X248891905Y-186605199D02*
X246943481Y-172741446D01*
X197273513Y-158244954D02*
G75*
G02*
X197699061Y-158809674I-69586J-495134D01*
G01*
X113585281Y-128917643D02*
X113585281Y-141917643D01*
X286956128Y-128138690D02*
X274082643Y-129947940D01*
X78939781Y-123177143D02*
G75*
G02*
X78439781Y-122677143I0J500000D01*
G01*
X99615781Y-162658142D02*
X93615781Y-162658143D01*
X235927882Y-135815157D02*
G75*
G02*
X236353430Y-135250435I495135J69587D01*
G01*
X254792489Y-133163910D02*
G75*
G02*
X255218037Y-132599188I495135J69587D01*
G01*
X190492459Y-138054722D02*
X177618974Y-136245471D01*
X222735120Y-175638796D02*
G75*
G02*
X223299841Y-176064343I69587J-495134D01*
G01*
X248891905Y-186605200D02*
G75*
G02*
X248466357Y-187169920I-495134J-69586D01*
G01*
X189108756Y-151492927D02*
X190918006Y-138619443D01*
X260110881Y-184523560D02*
G75*
G02*
X259546159Y-184098012I-69587J495135D01*
G01*
X156805943Y-147457977D02*
X169679428Y-149267228D01*
X240011604Y-173715658D02*
G75*
G02*
X240437152Y-173150936I495135J69587D01*
G01*
X247425088Y-114962115D02*
G75*
G02*
X247850636Y-114397393I495135J69587D01*
G01*
X227097817Y-189163244D02*
X239971302Y-187353994D01*
X333352531Y-161658143D02*
G75*
G02*
X332852531Y-161158143I0J500000D01*
G01*
X301108782Y-147658142D02*
G75*
G02*
X301608781Y-148158143I-1J-500000D01*
G01*
X177054252Y-136671020D02*
G75*
G02*
X177618973Y-136245471I495135J-69586D01*
G01*
X97989781Y-123177143D02*
G75*
G02*
X97489781Y-122677143I0J500000D01*
G01*
X89272781Y-142417643D02*
X76272781Y-142417643D01*
X160737427Y-170999080D02*
G75*
G03*
X160737427Y-170999080I-800000J0D01*
G01*
X307158782Y-161658142D02*
G75*
G02*
X306658781Y-161158143I-1J500000D01*
G01*
X110442031Y-167398643D02*
X110442031Y-180398643D01*
X242445860Y-153631416D02*
X229572375Y-155440667D01*
X225248264Y-189928096D02*
X223299841Y-176064343D01*
X254792490Y-133163910D02*
X256601740Y-146037394D01*
X69239781Y-148158143D02*
G75*
G02*
X69739781Y-147658143I500000J0D01*
G01*
X137941337Y-144806731D02*
G75*
G02*
X137515789Y-144242009I69587J495135D01*
G01*
X91908191Y-166274597D02*
G75*
G03*
X91908191Y-166274597I-800000J0D01*
G01*
X153151275Y-184913865D02*
X154960526Y-172040380D01*
X227097817Y-189163245D02*
G75*
G02*
X226533096Y-188737696I-69586J495135D01*
G01*
X248011433Y-153354140D02*
X249820683Y-166227625D01*
X171627852Y-135403475D02*
X158754367Y-133594224D01*
X250385403Y-166653173D02*
G75*
G02*
X249820682Y-166227624I-69586J495135D01*
G01*
X340861031Y-128917643D02*
G75*
G02*
X341361031Y-128417643I500000J0D01*
G01*
X301608781Y-161158143D02*
G75*
G02*
X301108781Y-161658143I-500000J0D01*
G01*
X177054253Y-136671019D02*
X175245003Y-149544504D01*
X273657094Y-130512662D02*
G75*
G02*
X274082642Y-129947940I495135J69587D01*
G01*
X119076730Y-142155482D02*
X131950215Y-143964732D01*
X139295991Y-163729416D02*
X141105241Y-150855932D01*
X319587281Y-123177143D02*
X306587281Y-123177142D01*
X210282220Y-158656635D02*
X212091471Y-171530120D01*
X209695876Y-120264610D02*
G75*
G02*
X210121424Y-119699888I495135J69587D01*
G01*
X320158781Y-161658143D02*
X307158781Y-161658142D01*
X137260135Y-111841106D02*
G75*
G02*
X137824857Y-111415558I495135J-69587D01*
G01*
X316985031Y-142917643D02*
X316985031Y-128917643D01*
X158189646Y-134019772D02*
X156380396Y-146893257D01*
X77677782Y-148158142D02*
G75*
G02*
X78177781Y-147658143I499999J0D01*
G01*
X325923031Y-128417643D02*
X338923031Y-128417643D01*
X189108756Y-151492928D02*
G75*
G02*
X188544035Y-151918475I-495134J69587D01*
G01*
X360659847Y-182098704D02*
G75*
G02*
X358659848Y-184098642I-1999999J61D01*
G01*
X153151275Y-184913865D02*
G75*
G02*
X152586554Y-185339412I-495134J69587D01*
G01*
X193545846Y-176958279D02*
X187604237Y-176123241D01*
X257736908Y-171224526D02*
X259546160Y-184098012D01*
X163395876Y-173225891D02*
X161447453Y-187089644D01*
X244233487Y-128538424D02*
G75*
G02*
X243807939Y-129103144I-495134J-69586D01*
G01*
X159544301Y-152942459D02*
X146670816Y-151133209D01*
X330399781Y-123177143D02*
G75*
G02*
X329899781Y-122677143I0J500000D01*
G01*
X263684436Y-164279200D02*
X261875186Y-151405716D01*
X193545845Y-176958279D02*
G75*
G02*
X193971393Y-177522999I-69586J-495134D01*
G01*
X343399781Y-109177143D02*
G75*
G02*
X343899781Y-109677143I0J-500000D01*
G01*
X282549044Y-161627954D02*
X280739793Y-148754469D01*
X131833734Y-110573562D02*
G75*
G02*
X132259282Y-111138282I-69586J-495134D01*
G01*
X329899781Y-122677143D02*
X329899781Y-109677143D01*
X229146828Y-156005387D02*
G75*
G02*
X229572375Y-155440666I495134J69587D01*
G01*
X144722393Y-164996961D02*
X157595878Y-166806212D01*
X91677781Y-161158143D02*
G75*
G02*
X91177781Y-161658143I-500000J0D01*
G01*
X280175072Y-148328921D02*
G75*
G02*
X280739793Y-148754468I69587J-495134D01*
G01*
X231520798Y-169304421D02*
G75*
G02*
X230956077Y-168878872I-69586J495135D01*
G01*
X156124742Y-114492354D02*
X154315492Y-127365839D01*
X182451606Y-170299457D02*
X195325091Y-172108707D01*
X294466780Y-128917643D02*
G75*
G02*
X294966780Y-128417643I500000J0D01*
G01*
X341361031Y-128417643D02*
X347361031Y-128417643D01*
X324419329Y-123537306D02*
G75*
G03*
X324419329Y-123537306I-800000J0D01*
G01*
X249226915Y-133441186D02*
G75*
G02*
X249791636Y-133866733I69587J-495134D01*
G01*
X307966782Y-128417643D02*
G75*
G02*
X308466780Y-128917643I-1J-499999D01*
G01*
X346852531Y-148158143D02*
X346852531Y-161158143D01*
X347861031Y-128917643D02*
X347861031Y-142917643D01*
X76239780Y-162158143D02*
G75*
G02*
X75739781Y-162658142I-499999J0D01*
G01*
X323485031Y-143417643D02*
X317485031Y-143417642D01*
X169562948Y-115876057D02*
X156689462Y-114066807D01*
X117011826Y-122628065D02*
G75*
G02*
X116586278Y-122063343I69587J495135D01*
G01*
X120460432Y-128717277D02*
G75*
G02*
X121025153Y-128291728I495135J-69586D01*
G01*
X306658781Y-148158143D02*
G75*
G02*
X307158781Y-147658143I500000J0D01*
G01*
X270465493Y-144088971D02*
X268656243Y-131215486D01*
X170244148Y-148841680D02*
G75*
G02*
X169679428Y-149267228I-495134J69586D01*
G01*
X276031066Y-143811695D02*
G75*
G02*
X275466345Y-143386146I-69586J495135D01*
G01*
X111489781Y-109677143D02*
X111489781Y-122677143D01*
X171751757Y-174400235D02*
G75*
G02*
X172316478Y-173974686I495135J-69586D01*
G01*
X320158782Y-147658142D02*
G75*
G02*
X320658781Y-148158143I-1J-500000D01*
G01*
X92439781Y-122677143D02*
G75*
G02*
X91939781Y-123177143I-500000J0D01*
G01*
X268663667Y-125609900D02*
G75*
G02*
X268098946Y-125184351I-69586J495135D01*
G01*
X270465492Y-144088971D02*
G75*
G02*
X270039945Y-144653692I-495134J-69587D01*
G01*
X230934454Y-130912395D02*
G75*
G02*
X230369733Y-130486846I-69586J495135D01*
G01*
X287537281Y-123177143D02*
G75*
G02*
X287037281Y-122677143I0J500000D01*
G01*
X225368880Y-131189672D02*
G75*
G02*
X224943332Y-131754392I-495134J-69586D01*
G01*
X257166460Y-146462943D02*
G75*
G02*
X256601739Y-146037394I-69586J495135D01*
G01*
X130450032Y-124011768D02*
G75*
G02*
X129885311Y-124437315I-495134J69587D01*
G01*
X91677781Y-148158143D02*
X91677781Y-161158143D01*
X217063274Y-138466405D02*
X218872526Y-151339890D01*
X120252781Y-161158143D02*
G75*
G02*
X119752781Y-161658143I-500000J0D01*
G01*
X266289697Y-112310867D02*
X268098947Y-125184352D01*
X151379543Y-146190433D02*
G75*
G02*
X150814822Y-146615980I-495134J69587D01*
G01*
X347861031Y-142917643D02*
G75*
G02*
X347361031Y-143417643I-500000J0D01*
G01*
X149314639Y-126663014D02*
X151123889Y-113789530D01*
X127241488Y-148907509D02*
G75*
G02*
X127806209Y-148481960I495135J-69586D01*
G01*
X343899781Y-109677143D02*
X343899781Y-122677143D01*
X306587281Y-109177143D02*
X319587281Y-109177143D01*
X154534978Y-171475659D02*
G75*
G02*
X154960526Y-172040379I-69586J-495134D01*
G01*
X325207031Y-180898643D02*
X312207031Y-180898642D01*
X131833735Y-110573562D02*
X118960250Y-108764310D01*
X241859516Y-115239391D02*
X228986031Y-117048642D01*
X232736279Y-149391467D02*
G75*
G02*
X232310731Y-149956187I-495134J-69586D01*
G01*
X154741039Y-127930560D02*
X167614524Y-129739810D01*
X225955223Y-169581697D02*
G75*
G02*
X225529675Y-170146417I-495134J-69586D01*
G01*
X106252781Y-161158143D02*
X106252781Y-148158143D01*
X106752781Y-161658143D02*
G75*
G02*
X106252781Y-161158143I0J500000D01*
G01*
X109942031Y-166898643D02*
G75*
G02*
X110442031Y-167398643I0J-500000D01*
G01*
X288108781Y-161658143D02*
G75*
G02*
X287608781Y-161158143I0J500000D01*
G01*
X173605647Y-130581807D02*
X186479131Y-132391057D01*
X69239781Y-162158143D02*
X69239781Y-148158143D01*
X260724121Y-112588144D02*
G75*
G02*
X261288842Y-113013691I69587J-495134D01*
G01*
X75772781Y-141917643D02*
X75772781Y-128917643D01*
X91939781Y-123177143D02*
X78939781Y-123177143D01*
X163395875Y-173225892D02*
G75*
G02*
X163960596Y-172800343I495135J-69586D01*
G01*
X320658781Y-161158143D02*
G75*
G02*
X320158781Y-161658143I-500000J0D01*
G01*
X187039516Y-176548788D02*
X185091093Y-190412541D01*
X301108781Y-161658143D02*
X288108781Y-161658142D01*
X228560483Y-117613362D02*
X230369734Y-130486847D01*
X230362308Y-136092434D02*
X217488823Y-137901684D01*
X86129531Y-166898643D02*
G75*
G02*
X86629531Y-167398643I0J-500000D01*
G01*
X99615781Y-147658143D02*
G75*
G02*
X100115781Y-148158143I0J-500000D01*
G01*
X185516640Y-190977263D02*
G75*
G02*
X185091092Y-190412541I69587J495135D01*
G01*
X125857784Y-162345714D02*
G75*
G02*
X125432237Y-161780993I69587J495134D01*
G01*
X294966781Y-142417642D02*
G75*
G02*
X294466780Y-141917643I-1J500000D01*
G01*
X312207031Y-166898643D02*
X325207031Y-166898643D01*
X232736279Y-149391466D02*
X230927028Y-136517981D01*
X78939781Y-109177143D02*
X91939781Y-109177142D01*
X319587282Y-109177143D02*
G75*
G02*
X320087280Y-109677143I-1J-499999D01*
G01*
X325707032Y-180398642D02*
G75*
G02*
X325207031Y-180898643I-500001J0D01*
G01*
X281962700Y-123235928D02*
X280153449Y-110362444D01*
X163587000Y-167648209D02*
X176460485Y-169457460D01*
X261310465Y-150980169D02*
G75*
G02*
X261875186Y-151405716I69587J-495134D01*
G01*
X177025206Y-169031913D02*
G75*
G02*
X176460485Y-169457460I-495134J69587D01*
G01*
X294466780Y-141917643D02*
X294466780Y-128917643D01*
X77677781Y-161158143D02*
X77677781Y-148158143D01*
X228560483Y-117613363D02*
G75*
G02*
X228986031Y-117048641I495135J69587D01*
G01*
X205116264Y-196493828D02*
G75*
G02*
X201776109Y-196493828I-1670079J11883217D01*
G01*
X347361032Y-128417642D02*
G75*
G02*
X347861031Y-128917643I-1J-500000D01*
G01*
X150698342Y-113224809D02*
X137824857Y-111415559D01*
X273657095Y-130512662D02*
X275466346Y-143386147D01*
X93615781Y-147658143D02*
X99615781Y-147658143D01*
X139325041Y-131368523D02*
X137515790Y-144242009D01*
X209695877Y-120264610D02*
X211505127Y-133138095D01*
X144722393Y-164996963D02*
G75*
G02*
X144296845Y-164432241I69587J495135D01*
G01*
X218881108Y-191327855D02*
X224822717Y-190492817D01*
X170368055Y-187838440D02*
G75*
G02*
X169942507Y-187273718I69587J495135D01*
G01*
X96942031Y-166898643D02*
X109942031Y-166898643D01*
X325207031Y-166898643D02*
G75*
G02*
X325707031Y-167398643I0J-500000D01*
G01*
X65677780Y-104149390D02*
G75*
G02*
X67677780Y-102149390I2000000J0D01*
G01*
X311707031Y-180398643D02*
X311707031Y-167398643D01*
X249799060Y-128261148D02*
G75*
G02*
X249234339Y-127835599I-69586J495135D01*
G01*
X339423031Y-128917643D02*
X339423031Y-141917643D01*
X287608782Y-148158142D02*
G75*
G02*
X288108781Y-147658143I499999J0D01*
G01*
X175670550Y-150109226D02*
G75*
G02*
X175245002Y-149544504I69587J495135D01*
G01*
X106252781Y-148158143D02*
G75*
G02*
X106752781Y-147658143I500000J0D01*
G01*
X146106096Y-151558756D02*
X144296846Y-164432241D01*
X67677780Y-102149390D02*
X358662220Y-102149390D01*
X140679694Y-150291212D02*
X127806209Y-148481961D01*
X331179680Y-165169742D02*
G75*
G03*
X331179680Y-165169742I-800000J0D01*
G01*
X185189964Y-175783936D02*
X172316479Y-173974687D01*
X99585281Y-141917643D02*
X99585281Y-128917643D01*
X257166460Y-146462942D02*
X270039946Y-144653692D01*
X266289696Y-112310867D02*
G75*
G02*
X266715244Y-111746145I495135J69587D01*
G01*
X282549044Y-161627954D02*
G75*
G02*
X282123496Y-162192674I-495134J-69586D01*
G01*
X325423031Y-128917643D02*
G75*
G02*
X325923031Y-128417643I500000J0D01*
G01*
X113085281Y-142417642D02*
X100085281Y-142417643D01*
X154741039Y-127930561D02*
G75*
G02*
X154315491Y-127365839I69587J495135D01*
G01*
X89272782Y-128417642D02*
G75*
G02*
X89772781Y-128917643I-1J-500000D01*
G01*
X97989781Y-109177143D02*
X110989781Y-109177142D01*
X347361031Y-143417643D02*
X341361031Y-143417642D01*
X93115781Y-162158143D02*
X93115781Y-148158143D01*
X168179245Y-129314263D02*
G75*
G02*
X167614524Y-129739810I-495134J69587D01*
G01*
X266876040Y-150702892D02*
X268685291Y-163576377D01*
X75739781Y-162658142D02*
X69739781Y-162658143D01*
X110989781Y-123177143D02*
X97989781Y-123177143D01*
X276031066Y-143811694D02*
X288904551Y-142002444D01*
X141096772Y-170091957D02*
G75*
G02*
X141661493Y-169666408I495135J-69586D01*
G01*
X325423031Y-141917643D02*
X325423031Y-128917643D01*
X139713069Y-183530163D02*
G75*
G02*
X139287521Y-182965441I69587J495135D01*
G01*
X287037282Y-109677142D02*
G75*
G02*
X287537281Y-109177143I499999J0D01*
G01*
X306587281Y-123177143D02*
G75*
G02*
X306087281Y-122677143I0J500000D01*
G01*
X317485032Y-143417642D02*
G75*
G02*
X316985031Y-142917643I-1J500000D01*
G01*
X332852532Y-148158142D02*
G75*
G02*
X333352531Y-147658143I499999J0D01*
G01*
X216367962Y-177038554D02*
G75*
G02*
X216793511Y-176473833I495135J69586D01*
G01*
X306087282Y-109677142D02*
G75*
G02*
X306587281Y-109177143I499999J0D01*
G01*
X323985031Y-128917643D02*
X323985031Y-142917643D01*
X69739781Y-147658143D02*
X75739781Y-147658143D01*
X230934455Y-130912394D02*
X243807939Y-129103144D01*
X192022969Y-191386752D02*
G75*
G02*
X191458249Y-191812300I-495134J69586D01*
G01*
X225248264Y-189928097D02*
G75*
G02*
X224822716Y-190492817I-495134J-69586D01*
G01*
X125857786Y-162345714D02*
X138731270Y-164154964D01*
X67677780Y-184098642D02*
G75*
G02*
X65677781Y-182098643I0J1999999D01*
G01*
X360662220Y-104149450D02*
X360659848Y-182098703D01*
X170244149Y-148841680D02*
X172053399Y-135968195D01*
X96442031Y-180398643D02*
X96442031Y-167398643D01*
X185516641Y-190977262D02*
X191458249Y-191812299D01*
X323985031Y-142917643D02*
G75*
G02*
X323485031Y-143417643I-500000J0D01*
G01*
X289330099Y-141437724D02*
G75*
G02*
X288904551Y-142002444I-495134J-69586D01*
G01*
X251726633Y-170941332D02*
G75*
G03*
X251726633Y-170941332I-800000J0D01*
G01*
X130450032Y-124011767D02*
X132259282Y-111138282D01*
X173605646Y-130581808D02*
G75*
G02*
X173180098Y-130017086I69587J495135D01*
G01*
X183806261Y-189222142D02*
X185615511Y-176348657D01*
X205116264Y-196493828D02*
X293312511Y-184098643D01*
X225368880Y-131189671D02*
X223559629Y-118316186D01*
X118395529Y-109189859D02*
G75*
G02*
X118960250Y-108764310I495135J-69586D01*
G01*
X73129531Y-166898643D02*
X86129531Y-166898643D01*
X135876434Y-125279312D02*
X148749919Y-127088562D01*
X271035941Y-168850557D02*
G75*
G02*
X271600662Y-169276104I69587J-495134D01*
G01*
X139713070Y-183530162D02*
X152586555Y-185339411D01*
X212656191Y-171955667D02*
X225529676Y-170146417D01*
X110989782Y-109177142D02*
G75*
G02*
X111489781Y-109677143I-1J-500000D01*
G01*
X343399781Y-123177143D02*
X330399781Y-123177142D01*
X219437247Y-151765437D02*
G75*
G02*
X218872525Y-151339889I-69587J495135D01*
G01*
X307158781Y-147658143D02*
X320158781Y-147658143D01*
X217063274Y-138466405D02*
G75*
G02*
X217488822Y-137901683I495135J69587D01*
G01*
X132514936Y-143539185D02*
G75*
G02*
X131950215Y-143964732I-495134J69587D01*
G01*
X170368055Y-187838438D02*
X183241539Y-189647690D01*
X96942031Y-180898643D02*
G75*
G02*
X96442031Y-180398643I0J500000D01*
G01*
X212069847Y-133563642D02*
X224943332Y-131754392D01*
X335519531Y-167398643D02*
G75*
G02*
X336019531Y-166898643I500000J0D01*
G01*
X281962700Y-123235929D02*
G75*
G02*
X281537152Y-123800649I-495134J-69586D01*
G01*
X86629531Y-180398643D02*
G75*
G02*
X86129531Y-180898643I-500000J0D01*
G01*
X287608781Y-161158143D02*
X287608781Y-148158143D01*
X240396849Y-186789274D02*
X238587599Y-173915789D01*
X188427554Y-118527304D02*
G75*
G02*
X188853102Y-119092024I-69586J-495134D01*
G01*
X306658781Y-161158143D02*
X306658781Y-148158143D01*
X224723846Y-175864212D02*
G75*
G02*
X225149393Y-175299491I495134J69587D01*
G01*
X92439781Y-109677143D02*
X92439781Y-122677143D01*
X76272781Y-128417643D02*
X89272781Y-128417642D01*
X163587000Y-167648210D02*
G75*
G02*
X163161452Y-167083488I69587J495135D01*
G01*
X188427555Y-118527304D02*
X175554070Y-116718053D01*
X168179245Y-129314262D02*
X169988495Y-116440778D01*
X269250012Y-164001924D02*
G75*
G02*
X268685290Y-163576376I-69587J495135D01*
G01*
X242524749Y-188004958D02*
X248466356Y-187169920D01*
X171627852Y-135403474D02*
G75*
G02*
X172053399Y-135968195I-69587J-495134D01*
G01*
X261310465Y-150980169D02*
X248436980Y-152789419D01*
X294966780Y-128417643D02*
X307966781Y-128417643D01*
X338923031Y-128417643D02*
G75*
G02*
X339423031Y-128917643I0J-500000D01*
G01*
X174989350Y-117143602D02*
X173180099Y-130017086D01*
X86129531Y-180898643D02*
X73129531Y-180898643D01*
X223581253Y-156282664D02*
X210707768Y-158091914D01*
X78177781Y-147658143D02*
X91177781Y-147658143D01*
X230362307Y-136092434D02*
G75*
G02*
X230927028Y-136517981I69587J-495134D01*
G01*
X286956127Y-128138691D02*
G75*
G02*
X287520848Y-128564238I69587J-495134D01*
G01*
X244233487Y-128538424D02*
X242424237Y-115664939D01*
X152763246Y-132752227D02*
X139889761Y-130942977D01*
X93115781Y-148158143D02*
G75*
G02*
X93615781Y-147658143I500000J0D01*
G01*
X287537281Y-109177143D02*
X300537281Y-109177143D01*
X320658781Y-148158143D02*
X320658781Y-161158143D01*
X325707031Y-167398643D02*
X325707031Y-180398643D01*
X301608781Y-148158143D02*
X301608781Y-161158143D01*
X249226915Y-133441186D02*
X236353430Y-135250436D01*
X161873000Y-187654366D02*
G75*
G02*
X161447452Y-187089644I69587J495135D01*
G01*
X119076730Y-142155483D02*
G75*
G02*
X118651182Y-141590761I69587J495135D01*
G01*
X289330099Y-141437723D02*
X287520848Y-128564238D01*
X97489781Y-122677143D02*
X97489781Y-109677143D01*
X311707031Y-167398643D02*
G75*
G02*
X312207031Y-166898643I500000J0D01*
G01*
X233812219Y-133763302D02*
G75*
G03*
X233812219Y-133763302I-800000J0D01*
G01*
X86629531Y-167398643D02*
X86629531Y-180398643D01*
X280175073Y-148328921D02*
X267301588Y-150138172D01*
X273409913Y-182149589D02*
X271600662Y-169276104D01*
X329899782Y-109677142D02*
G75*
G02*
X330399781Y-109177143I499999J0D01*
G01*
X168379329Y-188063856D02*
G75*
G02*
X167814608Y-188489403I-495134J69587D01*
G01*
X242445859Y-153631416D02*
G75*
G02*
X243010580Y-154056963I69587J-495134D01*
G01*
X137941338Y-144806730D02*
X150814822Y-146615979D01*
X91177781Y-161658143D02*
X78177781Y-161658143D01*
X65677781Y-104149390D02*
X65677781Y-182098643D01*
X336019531Y-166898643D02*
X349019531Y-166898643D01*
X151379543Y-146190433D02*
X153188794Y-133316948D01*
X117011827Y-122628064D02*
X129885312Y-124437315D01*
X118395530Y-109189859D02*
X116586279Y-122063344D01*
X247425089Y-114962115D02*
X249234339Y-127835600D01*
X72629531Y-180398643D02*
X72629531Y-167398643D01*
X154534978Y-171475659D02*
X141661493Y-169666409D01*
X323485031Y-128417643D02*
G75*
G02*
X323985031Y-128917643I0J-500000D01*
G01*
X177025206Y-169031912D02*
X178834456Y-156158427D01*
X238022879Y-173490241D02*
X225149393Y-175299492D01*
X308466780Y-141917643D02*
G75*
G02*
X307966781Y-142417642I-499999J0D01*
G01*
X308466780Y-128917643D02*
X308466780Y-141917643D01*
X178408908Y-155593707D02*
G75*
G02*
X178834456Y-156158427I-69586J-495134D01*
G01*
X231520798Y-169304420D02*
X244394283Y-167495169D01*
X212656191Y-171955668D02*
G75*
G02*
X212091470Y-171530119I-69586J495135D01*
G01*
X99585281Y-128917643D02*
G75*
G02*
X100085281Y-128417643I500000J0D01*
G01*
X317485031Y-128417643D02*
X323485031Y-128417643D01*
X260724122Y-112588144D02*
X247850637Y-114397394D01*
X91177781Y-147658143D02*
G75*
G02*
X91677781Y-148158143I0J-500000D01*
G01*
X158160599Y-166380664D02*
G75*
G02*
X157595877Y-166806212I-495135J69587D01*
G01*
X120460433Y-128717277D02*
X118651183Y-141590762D01*
X140679693Y-150291212D02*
G75*
G02*
X141105241Y-150855932I-69586J-495134D01*
G01*
X249799060Y-128261146D02*
X262672545Y-126451897D01*
X187043852Y-131965510D02*
G75*
G02*
X186479131Y-132391057I-495134J69587D01*
G01*
X156124741Y-114492355D02*
G75*
G02*
X156689462Y-114066806I495135J-69586D01*
G01*
X113579734Y-184098643D02*
X67677780Y-184098643D01*
X288108781Y-147658143D02*
X301108781Y-147658143D01*
X175670550Y-150109225D02*
X188544035Y-151918475D01*
X164970703Y-154210004D02*
X163161453Y-167083489D01*
X238301852Y-149114189D02*
G75*
G02*
X237737132Y-148688641I-69586J495134D01*
G01*
X279588729Y-109936896D02*
X266715244Y-111746146D01*
X111489781Y-122677143D02*
G75*
G02*
X110989781Y-123177143I-500000J0D01*
G01*
X240396848Y-186789273D02*
G75*
G02*
X239971301Y-187353994I-495134J-69587D01*
G01*
X72629532Y-167398642D02*
G75*
G02*
X73129531Y-166898643I499999J0D01*
G01*
X78439781Y-109677143D02*
G75*
G02*
X78939781Y-109177143I500000J0D01*
G01*
X135876434Y-125279313D02*
G75*
G02*
X135450886Y-124714591I69587J495135D01*
G01*
X242524748Y-188004959D02*
G75*
G02*
X241960027Y-187579410I-69586J495135D01*
G01*
X100085281Y-128417643D02*
X113085281Y-128417642D01*
X325923032Y-142417642D02*
G75*
G02*
X325423031Y-141917643I-1J500000D01*
G01*
X113579734Y-184098643D02*
X201776109Y-196493828D01*
X349519531Y-180398643D02*
G75*
G02*
X349019531Y-180898643I-500000J0D01*
G01*
X76239781Y-148158143D02*
X76239781Y-162158143D01*
X141096773Y-170091956D02*
X139287522Y-182965441D01*
X346352531Y-161658143D02*
X333352531Y-161658142D01*
X257736908Y-171224528D02*
G75*
G02*
X258162456Y-170659806I495135J69587D01*
G01*
X93615781Y-162658143D02*
G75*
G02*
X93115781Y-162158143I0J500000D01*
G01*
X349019531Y-180898643D02*
X336019531Y-180898642D01*
X89772781Y-141917643D02*
G75*
G02*
X89272781Y-142417643I-500000J0D01*
G01*
X156805943Y-147457978D02*
G75*
G02*
X156380395Y-146893256I69587J495135D01*
G01*
X210282219Y-158656635D02*
G75*
G02*
X210707767Y-158091913I495135J69587D01*
G01*
X320087281Y-122677143D02*
G75*
G02*
X319587281Y-123177143I-500000J0D01*
G01*
X109942031Y-180898643D02*
X96942031Y-180898643D01*
X224723846Y-175864211D02*
X226533097Y-188737697D01*
X235927883Y-135815157D02*
X237737133Y-148688642D01*
X223581252Y-156282664D02*
G75*
G02*
X224145973Y-156708211I69587J-495134D01*
G01*
X197273514Y-158244954D02*
X184400029Y-156435704D01*
X250385404Y-166653172D02*
X263258889Y-164843922D01*
X169902205Y-173635382D02*
X163960597Y-172800344D01*
X340861031Y-142917643D02*
X340861031Y-128917643D01*
X244819831Y-166930449D02*
X243010580Y-154056964D01*
X216367964Y-177038555D02*
X218316388Y-190902308D01*
X306087281Y-122677143D02*
X306087281Y-109677143D01*
X133898639Y-130100980D02*
X121025154Y-128291729D01*
X113585281Y-141917642D02*
G75*
G02*
X113085281Y-142417642I-500000J0D01*
G01*
X100085281Y-142417643D02*
G75*
G02*
X99585281Y-141917643I0J500000D01*
G01*
X139325040Y-131368525D02*
G75*
G02*
X139889761Y-130942976I495135J-69586D01*
G01*
X312207031Y-180898643D02*
G75*
G02*
X311707031Y-180398643I0J500000D01*
G01*
X268663666Y-125609899D02*
X281537152Y-123800649D01*
X240011605Y-173715658D02*
X241960028Y-187579411D01*
X152763246Y-132752227D02*
G75*
G02*
X153188794Y-133316947I-69586J-495134D01*
G01*
X69739781Y-162658143D02*
G75*
G02*
X69239781Y-162158143I0J500000D01*
G01*
X301037280Y-122677142D02*
G75*
G02*
X300537281Y-123177143I-500000J-1D01*
G01*
X158160597Y-166380665D02*
X159969849Y-153507180D01*
X174989349Y-117143602D02*
G75*
G02*
X175554070Y-116718053I495135J-69586D01*
G01*
X120252781Y-148158143D02*
X120252781Y-161158143D01*
X241859516Y-115239391D02*
G75*
G02*
X242424237Y-115664938I69587J-495134D01*
G01*
X75772782Y-128917642D02*
G75*
G02*
X76272781Y-128417643I499999J0D01*
G01*
X238301854Y-149114189D02*
X251175339Y-147304939D01*
X300537281Y-123177143D02*
X287537281Y-123177142D01*
X78177781Y-161658143D02*
G75*
G02*
X77677781Y-161158143I0J500000D01*
G01*
X238022878Y-173490241D02*
G75*
G02*
X238587599Y-173915788I69587J-495134D01*
G01*
X78439781Y-122677143D02*
X78439781Y-109677143D01*
M02*
