M48
; DRILL file {KiCad (5.99.0-9176-ga1730d51ff)} date 07/22/21 23:15:34
; FORMAT={-:-/ absolute / inch / decimal}
; #@! TF.CreationDate,2021-07-22T23:15:34-05:00
; #@! TF.GenerationSoftware,Kicad,Pcbnew,(5.99.0-9176-ga1730d51ff)
; #@! TF.FileFunction,Plated,1,4,PTH
FMAT,2
INCH
T1C0.0118
T2C0.0320
T3C0.0390
T4C0.0512
%
G90
G05
T1
X2.8602Y-3.9181
X2.8787Y-3.2815
X2.8843Y-3.1634
X2.9559Y-4.6744
X3.198Y-3.315
X3.3866Y-3.1665
X3.3929Y-3.9189
X3.4512Y-4.6736
X3.6209Y-3.1705
X3.7228Y-3.9154
X4.0047Y-4.6752
X4.2122Y-3.1004
X4.2201Y-3.915
X4.2445Y-3.1469
X4.3083Y-3.8543
X4.3354Y-3.872
X4.3933Y-3.1492
X4.476Y-3.9134
X4.4898Y-4.698
X4.5055Y-3.4012
X4.544Y-4.9118
X4.6075Y-5.0425
X4.689Y-5.0984
X4.8819Y-5.1071
X4.987Y-3.1929
X5.0713Y-4.011
X5.4752Y-4.8122
X5.5862Y-3.3224
X5.6902Y-4.098
X5.6972Y-3.3413
X5.7665Y-5.4937
X5.8008Y-4.1134
X5.8098Y-3.4346
X5.813Y-5.4957
X5.9697Y-4.1453
X6.0839Y-4.8791
X6.1791Y-3.3571
X6.2276Y-5.5126
X6.2425Y-4.9189
X6.2646Y-3.4563
X6.4291Y-3.361
X6.5394Y-4.2209
X6.7209Y-4.228
X6.8157Y-4.9492
X6.9957Y-5.0283
X7.0488Y-4.0264
X7.7028Y-3.7315
X7.8012Y-3.7543
X8.0555Y-5.1071
X8.0768Y-4.2052
X8.2Y-3.5906
X8.2181Y-5.098
X8.2534Y-4.3194
X8.5138Y-4.2803
X8.7846Y-3.4929
X8.8146Y-5.0055
X8.8587Y-3.5445
X8.9339Y-3.5244
X8.9445Y-4.9976
X9.0736Y-4.2102
X9.1437Y-3.5811
X9.226Y-4.2031
X9.3177Y-3.6075
X9.4969Y-5.3366
X9.5228Y-4.9004
X9.5992Y-3.4547
X9.663Y-3.3858
X9.7106Y-4.8862
X9.7945Y-5.1531
X9.8173Y-4.0941
X9.9567Y-4.0835
X10.2642Y-3.2929
X10.2894Y-4.7929
X10.4122Y-4.948
X10.4311Y-3.1921
X10.5567Y-3.9925
X10.7083Y-3.9839
X11.0165Y-3.1756
X11.1728Y-3.1748
X11.3252Y-3.9346
X11.4768Y-3.9331
X11.55Y-4.7476
X11.5531Y-4.8476
X11.765Y-3.1764
X11.9335Y-4.6913
X12.1945Y-3.2461
X12.3504Y-3.9339
X12.3634Y-3.3087
X12.6319Y-3.3717
X12.6331Y-4.6906
X12.7902Y-4.6894
X13.0602Y-3.3327
X13.1508Y-4.1283
T2
X7.3473Y-2.7767
X7.3473Y-2.8767
X7.3473Y-2.9767
X7.3473Y-3.0767
X7.3473Y-3.1767
X7.3473Y-3.2767
X7.3473Y-3.3767
X7.3473Y-3.4767
X7.3473Y-3.5767
X7.3473Y-3.6767
X7.3473Y-3.7767
X7.3473Y-3.8767
X7.5012Y-4.026
X7.6012Y-4.026
X7.7012Y-4.026
X7.8012Y-4.026
X7.9465Y-2.7767
X7.9465Y-2.8767
X7.9465Y-2.9767
X7.9465Y-3.0767
X7.9465Y-3.1767
X7.9465Y-3.2767
X7.9465Y-3.3767
X7.9465Y-3.4767
X7.9465Y-3.5767
X7.9465Y-3.6767
X7.9465Y-3.7767
X7.9465Y-3.8767
T3
X6.8575Y-2.68
X7.0543Y-2.68
T4
X6.8177Y-2.7781
X7.0937Y-2.7781
T0
M30
