%TF.GenerationSoftware,KiCad,Pcbnew,(5.99.0-9176-ga1730d51ff)*%
%TF.CreationDate,2021-07-22T23:15:28-05:00*%
%TF.ProjectId,Sonata hotswap,536f6e61-7461-4206-986f-74737761702e,rev?*%
%TF.SameCoordinates,Original*%
%TF.FileFunction,Legend,Bot*%
%TF.FilePolarity,Positive*%
%FSLAX46Y46*%
G04 Gerber Fmt 4.6, Leading zero omitted, Abs format (unit mm)*
G04 Created by KiCad (PCBNEW (5.99.0-9176-ga1730d51ff)) date 2021-07-22 23:15:28*
%MOMM*%
%LPD*%
G01*
G04 APERTURE LIST*
%ADD10C,0.304800*%
%ADD11C,0.150000*%
%ADD12C,0.125000*%
%ADD13C,0.120000*%
G04 APERTURE END LIST*
D10*
X289879428Y-134015428D02*
X289879428Y-135104000D01*
X289952000Y-135321714D01*
X290097142Y-135466857D01*
X290314857Y-135539428D01*
X290460000Y-135539428D01*
X288428000Y-135539428D02*
X289153714Y-135539428D01*
X289153714Y-134015428D01*
X287049142Y-135394285D02*
X287121714Y-135466857D01*
X287339428Y-135539428D01*
X287484571Y-135539428D01*
X287702285Y-135466857D01*
X287847428Y-135321714D01*
X287920000Y-135176571D01*
X287992571Y-134886285D01*
X287992571Y-134668571D01*
X287920000Y-134378285D01*
X287847428Y-134233142D01*
X287702285Y-134088000D01*
X287484571Y-134015428D01*
X287339428Y-134015428D01*
X287121714Y-134088000D01*
X287049142Y-134160571D01*
X285960571Y-134015428D02*
X285960571Y-135104000D01*
X286033142Y-135321714D01*
X286178285Y-135466857D01*
X286396000Y-135539428D01*
X286541142Y-135539428D01*
X284509142Y-135539428D02*
X285234857Y-135539428D01*
X285234857Y-134015428D01*
X283130285Y-135394285D02*
X283202857Y-135466857D01*
X283420571Y-135539428D01*
X283565714Y-135539428D01*
X283783428Y-135466857D01*
X283928571Y-135321714D01*
X284001142Y-135176571D01*
X284073714Y-134886285D01*
X284073714Y-134668571D01*
X284001142Y-134378285D01*
X283928571Y-134233142D01*
X283783428Y-134088000D01*
X283565714Y-134015428D01*
X283420571Y-134015428D01*
X283202857Y-134088000D01*
X283130285Y-134160571D01*
X282041714Y-134015428D02*
X282041714Y-135104000D01*
X282114285Y-135321714D01*
X282259428Y-135466857D01*
X282477142Y-135539428D01*
X282622285Y-135539428D01*
X280590285Y-135539428D02*
X281316000Y-135539428D01*
X281316000Y-134015428D01*
X279211428Y-135394285D02*
X279284000Y-135466857D01*
X279501714Y-135539428D01*
X279646857Y-135539428D01*
X279864571Y-135466857D01*
X280009714Y-135321714D01*
X280082285Y-135176571D01*
X280154857Y-134886285D01*
X280154857Y-134668571D01*
X280082285Y-134378285D01*
X280009714Y-134233142D01*
X279864571Y-134088000D01*
X279646857Y-134015428D01*
X279501714Y-134015428D01*
X279284000Y-134088000D01*
X279211428Y-134160571D01*
X278122857Y-134015428D02*
X278122857Y-135104000D01*
X278195428Y-135321714D01*
X278340571Y-135466857D01*
X278558285Y-135539428D01*
X278703428Y-135539428D01*
X276671428Y-135539428D02*
X277397142Y-135539428D01*
X277397142Y-134015428D01*
X275292571Y-135394285D02*
X275365142Y-135466857D01*
X275582857Y-135539428D01*
X275728000Y-135539428D01*
X275945714Y-135466857D01*
X276090857Y-135321714D01*
X276163428Y-135176571D01*
X276236000Y-134886285D01*
X276236000Y-134668571D01*
X276163428Y-134378285D01*
X276090857Y-134233142D01*
X275945714Y-134088000D01*
X275728000Y-134015428D01*
X275582857Y-134015428D01*
X275365142Y-134088000D01*
X275292571Y-134160571D01*
D11*
%TO.C,SW24*%
X298609523Y-86969761D02*
X298466666Y-87017380D01*
X298228571Y-87017380D01*
X298133333Y-86969761D01*
X298085714Y-86922142D01*
X298038095Y-86826904D01*
X298038095Y-86731666D01*
X298085714Y-86636428D01*
X298133333Y-86588809D01*
X298228571Y-86541190D01*
X298419047Y-86493571D01*
X298514285Y-86445952D01*
X298561904Y-86398333D01*
X298609523Y-86303095D01*
X298609523Y-86207857D01*
X298561904Y-86112619D01*
X298514285Y-86065000D01*
X298419047Y-86017380D01*
X298180952Y-86017380D01*
X298038095Y-86065000D01*
X297704761Y-86017380D02*
X297466666Y-87017380D01*
X297276190Y-86303095D01*
X297085714Y-87017380D01*
X296847619Y-86017380D01*
X296514285Y-86112619D02*
X296466666Y-86065000D01*
X296371428Y-86017380D01*
X296133333Y-86017380D01*
X296038095Y-86065000D01*
X295990476Y-86112619D01*
X295942857Y-86207857D01*
X295942857Y-86303095D01*
X295990476Y-86445952D01*
X296561904Y-87017380D01*
X295942857Y-87017380D01*
X295085714Y-86350714D02*
X295085714Y-87017380D01*
X295323809Y-85969761D02*
X295561904Y-86684047D01*
X294942857Y-86684047D01*
%TO.C,SW39*%
X79519523Y-125309761D02*
X79376666Y-125357380D01*
X79138571Y-125357380D01*
X79043333Y-125309761D01*
X78995714Y-125262142D01*
X78948095Y-125166904D01*
X78948095Y-125071666D01*
X78995714Y-124976428D01*
X79043333Y-124928809D01*
X79138571Y-124881190D01*
X79329047Y-124833571D01*
X79424285Y-124785952D01*
X79471904Y-124738333D01*
X79519523Y-124643095D01*
X79519523Y-124547857D01*
X79471904Y-124452619D01*
X79424285Y-124405000D01*
X79329047Y-124357380D01*
X79090952Y-124357380D01*
X78948095Y-124405000D01*
X78614761Y-124357380D02*
X78376666Y-125357380D01*
X78186190Y-124643095D01*
X77995714Y-125357380D01*
X77757619Y-124357380D01*
X77471904Y-124357380D02*
X76852857Y-124357380D01*
X77186190Y-124738333D01*
X77043333Y-124738333D01*
X76948095Y-124785952D01*
X76900476Y-124833571D01*
X76852857Y-124928809D01*
X76852857Y-125166904D01*
X76900476Y-125262142D01*
X76948095Y-125309761D01*
X77043333Y-125357380D01*
X77329047Y-125357380D01*
X77424285Y-125309761D01*
X77471904Y-125262142D01*
X76376666Y-125357380D02*
X76186190Y-125357380D01*
X76090952Y-125309761D01*
X76043333Y-125262142D01*
X75948095Y-125119285D01*
X75900476Y-124928809D01*
X75900476Y-124547857D01*
X75948095Y-124452619D01*
X75995714Y-124405000D01*
X76090952Y-124357380D01*
X76281428Y-124357380D01*
X76376666Y-124405000D01*
X76424285Y-124452619D01*
X76471904Y-124547857D01*
X76471904Y-124785952D01*
X76424285Y-124881190D01*
X76376666Y-124928809D01*
X76281428Y-124976428D01*
X76090952Y-124976428D01*
X75995714Y-124928809D01*
X75948095Y-124881190D01*
X75900476Y-124785952D01*
%TO.C,SW43*%
X228569371Y-132704322D02*
X228434532Y-132771360D01*
X228198753Y-132804496D01*
X228097815Y-132770595D01*
X228044032Y-132730067D01*
X227983622Y-132642383D01*
X227970367Y-132548072D01*
X228004268Y-132447133D01*
X228044797Y-132393350D01*
X228132481Y-132332940D01*
X228314476Y-132259275D01*
X228402160Y-132198865D01*
X228442688Y-132145082D01*
X228476589Y-132044144D01*
X228463334Y-131949832D01*
X228402924Y-131862148D01*
X228349141Y-131821620D01*
X228248203Y-131787719D01*
X228012425Y-131820855D01*
X227877585Y-131887893D01*
X227540868Y-131887128D02*
X227444263Y-132910533D01*
X227156232Y-132229708D01*
X227067018Y-132963551D01*
X226692067Y-132006420D01*
X225936813Y-132449173D02*
X226029595Y-133109352D01*
X226119573Y-132038791D02*
X226454760Y-132712989D01*
X225841737Y-132799144D01*
X225466021Y-132178729D02*
X224852998Y-132264884D01*
X225236106Y-132595738D01*
X225094639Y-132615620D01*
X225006955Y-132676030D01*
X224966427Y-132729813D01*
X224932525Y-132830751D01*
X224965662Y-133066529D01*
X225026072Y-133154213D01*
X225079855Y-133194742D01*
X225180794Y-133228643D01*
X225463727Y-133188879D01*
X225551411Y-133128469D01*
X225591940Y-133074686D01*
%TO.C,SW8*%
X231947815Y-74530595D02*
X231812975Y-74597633D01*
X231577197Y-74630769D01*
X231476259Y-74596868D01*
X231422476Y-74556340D01*
X231362066Y-74468656D01*
X231348811Y-74374345D01*
X231382712Y-74273406D01*
X231423240Y-74219623D01*
X231510924Y-74159213D01*
X231692919Y-74085548D01*
X231780603Y-74025138D01*
X231821132Y-73971355D01*
X231855033Y-73870416D01*
X231841778Y-73776105D01*
X231781368Y-73688421D01*
X231727585Y-73647893D01*
X231626647Y-73613992D01*
X231390868Y-73647128D01*
X231256029Y-73714166D01*
X230919312Y-73713401D02*
X230822707Y-74736806D01*
X230534675Y-74055981D01*
X230445462Y-74789824D01*
X230070511Y-73832692D01*
X229611445Y-74329993D02*
X229699129Y-74269583D01*
X229739657Y-74215800D01*
X229773558Y-74114862D01*
X229766931Y-74067706D01*
X229706521Y-73980022D01*
X229652738Y-73939494D01*
X229551799Y-73905593D01*
X229363177Y-73932102D01*
X229275493Y-73992512D01*
X229234964Y-74046295D01*
X229201063Y-74147233D01*
X229207691Y-74194389D01*
X229268101Y-74282073D01*
X229321884Y-74322601D01*
X229422822Y-74356502D01*
X229611445Y-74329993D01*
X229712383Y-74363894D01*
X229766166Y-74404423D01*
X229826576Y-74492107D01*
X229853086Y-74680729D01*
X229819185Y-74781668D01*
X229778656Y-74835451D01*
X229690972Y-74895861D01*
X229502350Y-74922370D01*
X229401411Y-74888469D01*
X229347628Y-74847941D01*
X229287218Y-74760257D01*
X229260709Y-74571634D01*
X229294610Y-74470696D01*
X229335138Y-74416913D01*
X229422822Y-74356502D01*
%TO.C,SW4*%
X136504848Y-69768950D02*
X136652942Y-69741676D01*
X136888720Y-69774812D01*
X136976404Y-69835222D01*
X137016933Y-69889005D01*
X137050834Y-69989944D01*
X137037579Y-70084255D01*
X136977169Y-70171939D01*
X136923386Y-70212467D01*
X136822447Y-70246369D01*
X136627198Y-70267015D01*
X136526259Y-70300916D01*
X136472476Y-70341444D01*
X136412066Y-70429128D01*
X136398811Y-70523440D01*
X136432712Y-70624378D01*
X136473241Y-70678161D01*
X136560925Y-70738571D01*
X136796703Y-70771708D01*
X136944797Y-70744434D01*
X137268259Y-70837981D02*
X137643210Y-69880849D01*
X137732423Y-70614692D01*
X138020455Y-69933867D01*
X138117060Y-70957272D01*
X138965097Y-70739846D02*
X139057879Y-70079668D01*
X138676300Y-71083955D02*
X138539932Y-70343484D01*
X139152955Y-70429639D01*
%TO.C,SW46*%
X330129523Y-125459761D02*
X329986666Y-125507380D01*
X329748571Y-125507380D01*
X329653333Y-125459761D01*
X329605714Y-125412142D01*
X329558095Y-125316904D01*
X329558095Y-125221666D01*
X329605714Y-125126428D01*
X329653333Y-125078809D01*
X329748571Y-125031190D01*
X329939047Y-124983571D01*
X330034285Y-124935952D01*
X330081904Y-124888333D01*
X330129523Y-124793095D01*
X330129523Y-124697857D01*
X330081904Y-124602619D01*
X330034285Y-124555000D01*
X329939047Y-124507380D01*
X329700952Y-124507380D01*
X329558095Y-124555000D01*
X329224761Y-124507380D02*
X328986666Y-125507380D01*
X328796190Y-124793095D01*
X328605714Y-125507380D01*
X328367619Y-124507380D01*
X327558095Y-124840714D02*
X327558095Y-125507380D01*
X327796190Y-124459761D02*
X328034285Y-125174047D01*
X327415238Y-125174047D01*
X326605714Y-124507380D02*
X326796190Y-124507380D01*
X326891428Y-124555000D01*
X326939047Y-124602619D01*
X327034285Y-124745476D01*
X327081904Y-124935952D01*
X327081904Y-125316904D01*
X327034285Y-125412142D01*
X326986666Y-125459761D01*
X326891428Y-125507380D01*
X326700952Y-125507380D01*
X326605714Y-125459761D01*
X326558095Y-125412142D01*
X326510476Y-125316904D01*
X326510476Y-125078809D01*
X326558095Y-124983571D01*
X326605714Y-124935952D01*
X326700952Y-124888333D01*
X326891428Y-124888333D01*
X326986666Y-124935952D01*
X327034285Y-124983571D01*
X327081904Y-125078809D01*
%TO.C,SW2*%
X99153333Y-67599761D02*
X99010476Y-67647380D01*
X98772380Y-67647380D01*
X98677142Y-67599761D01*
X98629523Y-67552142D01*
X98581904Y-67456904D01*
X98581904Y-67361666D01*
X98629523Y-67266428D01*
X98677142Y-67218809D01*
X98772380Y-67171190D01*
X98962857Y-67123571D01*
X99058095Y-67075952D01*
X99105714Y-67028333D01*
X99153333Y-66933095D01*
X99153333Y-66837857D01*
X99105714Y-66742619D01*
X99058095Y-66695000D01*
X98962857Y-66647380D01*
X98724761Y-66647380D01*
X98581904Y-66695000D01*
X98248571Y-66647380D02*
X98010476Y-67647380D01*
X97820000Y-66933095D01*
X97629523Y-67647380D01*
X97391428Y-66647380D01*
X97058095Y-66742619D02*
X97010476Y-66695000D01*
X96915238Y-66647380D01*
X96677142Y-66647380D01*
X96581904Y-66695000D01*
X96534285Y-66742619D01*
X96486666Y-66837857D01*
X96486666Y-66933095D01*
X96534285Y-67075952D01*
X97105714Y-67647380D01*
X96486666Y-67647380D01*
%TO.C,SW17*%
X138103292Y-89232677D02*
X138251386Y-89205403D01*
X138487164Y-89238539D01*
X138574848Y-89298950D01*
X138615376Y-89352732D01*
X138649277Y-89453671D01*
X138636023Y-89547982D01*
X138575613Y-89635666D01*
X138521830Y-89676195D01*
X138420891Y-89710096D01*
X138225641Y-89730742D01*
X138124703Y-89764643D01*
X138070920Y-89805171D01*
X138010510Y-89892855D01*
X137997255Y-89987167D01*
X138031156Y-90088105D01*
X138071685Y-90141888D01*
X138159369Y-90202298D01*
X138395147Y-90235435D01*
X138543241Y-90208161D01*
X138866703Y-90301708D02*
X139241654Y-89344576D01*
X139330867Y-90078420D01*
X139618899Y-89397594D01*
X139715504Y-90420999D01*
X140750634Y-89556649D02*
X140184766Y-89477122D01*
X140467700Y-89516886D02*
X140328527Y-90507154D01*
X140254098Y-90352432D01*
X140173041Y-90244866D01*
X140085357Y-90184456D01*
X140941550Y-90593308D02*
X141601729Y-90686090D01*
X141316501Y-89636177D01*
%TO.C,SW33*%
X233019371Y-112834322D02*
X232884532Y-112901360D01*
X232648753Y-112934496D01*
X232547815Y-112900595D01*
X232494032Y-112860067D01*
X232433622Y-112772383D01*
X232420367Y-112678072D01*
X232454268Y-112577133D01*
X232494797Y-112523350D01*
X232582481Y-112462940D01*
X232764476Y-112389275D01*
X232852160Y-112328865D01*
X232892688Y-112275082D01*
X232926589Y-112174144D01*
X232913334Y-112079832D01*
X232852924Y-111992148D01*
X232799141Y-111951620D01*
X232698203Y-111917719D01*
X232462425Y-111950855D01*
X232327585Y-112017893D01*
X231990868Y-112017128D02*
X231894263Y-113040533D01*
X231606232Y-112359708D01*
X231517018Y-113093551D01*
X231142067Y-112136420D01*
X230859134Y-112176183D02*
X230246110Y-112262338D01*
X230629218Y-112593192D01*
X230487751Y-112613074D01*
X230400067Y-112673484D01*
X230359539Y-112727267D01*
X230325638Y-112828206D01*
X230358774Y-113063984D01*
X230419185Y-113151668D01*
X230472968Y-113192196D01*
X230573906Y-113226097D01*
X230856840Y-113186333D01*
X230944524Y-113125923D01*
X230985052Y-113072140D01*
X229916021Y-112308729D02*
X229302998Y-112394884D01*
X229686106Y-112725738D01*
X229544639Y-112745620D01*
X229456955Y-112806030D01*
X229416427Y-112859813D01*
X229382525Y-112960751D01*
X229415662Y-113196529D01*
X229476072Y-113284213D01*
X229529855Y-113324742D01*
X229630794Y-113358643D01*
X229913727Y-113318879D01*
X230001411Y-113258469D01*
X230041940Y-113204686D01*
%TO.C,SW7*%
X213087815Y-77170595D02*
X212952975Y-77237633D01*
X212717197Y-77270769D01*
X212616259Y-77236868D01*
X212562476Y-77196340D01*
X212502066Y-77108656D01*
X212488811Y-77014345D01*
X212522712Y-76913406D01*
X212563240Y-76859623D01*
X212650924Y-76799213D01*
X212832919Y-76725548D01*
X212920603Y-76665138D01*
X212961132Y-76611355D01*
X212995033Y-76510416D01*
X212981778Y-76416105D01*
X212921368Y-76328421D01*
X212867585Y-76287893D01*
X212766647Y-76253992D01*
X212530868Y-76287128D01*
X212396029Y-76354166D01*
X212059312Y-76353401D02*
X211962707Y-77376806D01*
X211674675Y-76695981D01*
X211585462Y-77429824D01*
X211210511Y-76472692D01*
X210927577Y-76512456D02*
X210267399Y-76605238D01*
X210830972Y-77535861D01*
%TO.C,SW26*%
X82199523Y-106079761D02*
X82056666Y-106127380D01*
X81818571Y-106127380D01*
X81723333Y-106079761D01*
X81675714Y-106032142D01*
X81628095Y-105936904D01*
X81628095Y-105841666D01*
X81675714Y-105746428D01*
X81723333Y-105698809D01*
X81818571Y-105651190D01*
X82009047Y-105603571D01*
X82104285Y-105555952D01*
X82151904Y-105508333D01*
X82199523Y-105413095D01*
X82199523Y-105317857D01*
X82151904Y-105222619D01*
X82104285Y-105175000D01*
X82009047Y-105127380D01*
X81770952Y-105127380D01*
X81628095Y-105175000D01*
X81294761Y-105127380D02*
X81056666Y-106127380D01*
X80866190Y-105413095D01*
X80675714Y-106127380D01*
X80437619Y-105127380D01*
X80104285Y-105222619D02*
X80056666Y-105175000D01*
X79961428Y-105127380D01*
X79723333Y-105127380D01*
X79628095Y-105175000D01*
X79580476Y-105222619D01*
X79532857Y-105317857D01*
X79532857Y-105413095D01*
X79580476Y-105555952D01*
X80151904Y-106127380D01*
X79532857Y-106127380D01*
X78675714Y-105127380D02*
X78866190Y-105127380D01*
X78961428Y-105175000D01*
X79009047Y-105222619D01*
X79104285Y-105365476D01*
X79151904Y-105555952D01*
X79151904Y-105936904D01*
X79104285Y-106032142D01*
X79056666Y-106079761D01*
X78961428Y-106127380D01*
X78770952Y-106127380D01*
X78675714Y-106079761D01*
X78628095Y-106032142D01*
X78580476Y-105936904D01*
X78580476Y-105698809D01*
X78628095Y-105603571D01*
X78675714Y-105555952D01*
X78770952Y-105508333D01*
X78961428Y-105508333D01*
X79056666Y-105555952D01*
X79104285Y-105603571D01*
X79151904Y-105698809D01*
%TO.C,SW37*%
X332229523Y-106209761D02*
X332086666Y-106257380D01*
X331848571Y-106257380D01*
X331753333Y-106209761D01*
X331705714Y-106162142D01*
X331658095Y-106066904D01*
X331658095Y-105971666D01*
X331705714Y-105876428D01*
X331753333Y-105828809D01*
X331848571Y-105781190D01*
X332039047Y-105733571D01*
X332134285Y-105685952D01*
X332181904Y-105638333D01*
X332229523Y-105543095D01*
X332229523Y-105447857D01*
X332181904Y-105352619D01*
X332134285Y-105305000D01*
X332039047Y-105257380D01*
X331800952Y-105257380D01*
X331658095Y-105305000D01*
X331324761Y-105257380D02*
X331086666Y-106257380D01*
X330896190Y-105543095D01*
X330705714Y-106257380D01*
X330467619Y-105257380D01*
X330181904Y-105257380D02*
X329562857Y-105257380D01*
X329896190Y-105638333D01*
X329753333Y-105638333D01*
X329658095Y-105685952D01*
X329610476Y-105733571D01*
X329562857Y-105828809D01*
X329562857Y-106066904D01*
X329610476Y-106162142D01*
X329658095Y-106209761D01*
X329753333Y-106257380D01*
X330039047Y-106257380D01*
X330134285Y-106209761D01*
X330181904Y-106162142D01*
X329229523Y-105257380D02*
X328562857Y-105257380D01*
X328991428Y-106257380D01*
%TO.C,SW13*%
X329259523Y-67719761D02*
X329116666Y-67767380D01*
X328878571Y-67767380D01*
X328783333Y-67719761D01*
X328735714Y-67672142D01*
X328688095Y-67576904D01*
X328688095Y-67481666D01*
X328735714Y-67386428D01*
X328783333Y-67338809D01*
X328878571Y-67291190D01*
X329069047Y-67243571D01*
X329164285Y-67195952D01*
X329211904Y-67148333D01*
X329259523Y-67053095D01*
X329259523Y-66957857D01*
X329211904Y-66862619D01*
X329164285Y-66815000D01*
X329069047Y-66767380D01*
X328830952Y-66767380D01*
X328688095Y-66815000D01*
X328354761Y-66767380D02*
X328116666Y-67767380D01*
X327926190Y-67053095D01*
X327735714Y-67767380D01*
X327497619Y-66767380D01*
X326592857Y-67767380D02*
X327164285Y-67767380D01*
X326878571Y-67767380D02*
X326878571Y-66767380D01*
X326973809Y-66910238D01*
X327069047Y-67005476D01*
X327164285Y-67053095D01*
X326259523Y-66767380D02*
X325640476Y-66767380D01*
X325973809Y-67148333D01*
X325830952Y-67148333D01*
X325735714Y-67195952D01*
X325688095Y-67243571D01*
X325640476Y-67338809D01*
X325640476Y-67576904D01*
X325688095Y-67672142D01*
X325735714Y-67719761D01*
X325830952Y-67767380D01*
X326116666Y-67767380D01*
X326211904Y-67719761D01*
X326259523Y-67672142D01*
%TO.C,SW31*%
X182603292Y-114722677D02*
X182751386Y-114695403D01*
X182987164Y-114728539D01*
X183074848Y-114788950D01*
X183115376Y-114842732D01*
X183149277Y-114943671D01*
X183136023Y-115037982D01*
X183075613Y-115125666D01*
X183021830Y-115166195D01*
X182920891Y-115200096D01*
X182725641Y-115220742D01*
X182624703Y-115254643D01*
X182570920Y-115295171D01*
X182510510Y-115382855D01*
X182497255Y-115477167D01*
X182531156Y-115578105D01*
X182571685Y-115631888D01*
X182659369Y-115692298D01*
X182895147Y-115725435D01*
X183043241Y-115698161D01*
X183366703Y-115791708D02*
X183741654Y-114834576D01*
X183830867Y-115568420D01*
X184118899Y-114887594D01*
X184215504Y-115910999D01*
X184498438Y-115950763D02*
X185111461Y-116036917D01*
X184834390Y-115613281D01*
X184975857Y-115633163D01*
X185076795Y-115599262D01*
X185130578Y-115558734D01*
X185190988Y-115471050D01*
X185224125Y-115235272D01*
X185190224Y-115134333D01*
X185149695Y-115080550D01*
X185062011Y-115020140D01*
X184779078Y-114980376D01*
X184678139Y-115014277D01*
X184624356Y-115054806D01*
X186193746Y-115179195D02*
X185627879Y-115099668D01*
X185910813Y-115139431D02*
X185771640Y-116129699D01*
X185697210Y-115974978D01*
X185616154Y-115867412D01*
X185528470Y-115807002D01*
%TO.C,SW30*%
X163753292Y-112052677D02*
X163901386Y-112025403D01*
X164137164Y-112058539D01*
X164224848Y-112118950D01*
X164265376Y-112172732D01*
X164299277Y-112273671D01*
X164286023Y-112367982D01*
X164225613Y-112455666D01*
X164171830Y-112496195D01*
X164070891Y-112530096D01*
X163875641Y-112550742D01*
X163774703Y-112584643D01*
X163720920Y-112625171D01*
X163660510Y-112712855D01*
X163647255Y-112807167D01*
X163681156Y-112908105D01*
X163721685Y-112961888D01*
X163809369Y-113022298D01*
X164045147Y-113055435D01*
X164193241Y-113028161D01*
X164516703Y-113121708D02*
X164891654Y-112164576D01*
X164980867Y-112898420D01*
X165268899Y-112217594D01*
X165365504Y-113240999D01*
X165648438Y-113280763D02*
X166261461Y-113366917D01*
X165984390Y-112943281D01*
X166125857Y-112963163D01*
X166226795Y-112929262D01*
X166280578Y-112888734D01*
X166340988Y-112801050D01*
X166374125Y-112565272D01*
X166340224Y-112464333D01*
X166299695Y-112410550D01*
X166212011Y-112350140D01*
X165929078Y-112310376D01*
X165828139Y-112344277D01*
X165774356Y-112384806D01*
X166874484Y-113453072D02*
X166968795Y-113466327D01*
X167069734Y-113432426D01*
X167123517Y-113391897D01*
X167183927Y-113304213D01*
X167257592Y-113122218D01*
X167290728Y-112886440D01*
X167270082Y-112691190D01*
X167236181Y-112590252D01*
X167195652Y-112536469D01*
X167107968Y-112476059D01*
X167013657Y-112462804D01*
X166912719Y-112496705D01*
X166858936Y-112537233D01*
X166798525Y-112624917D01*
X166724861Y-112806913D01*
X166691724Y-113042691D01*
X166712371Y-113237941D01*
X166746272Y-113338879D01*
X166786800Y-113392662D01*
X166874484Y-113453072D01*
%TO.C,SW12*%
X310219523Y-67739761D02*
X310076666Y-67787380D01*
X309838571Y-67787380D01*
X309743333Y-67739761D01*
X309695714Y-67692142D01*
X309648095Y-67596904D01*
X309648095Y-67501666D01*
X309695714Y-67406428D01*
X309743333Y-67358809D01*
X309838571Y-67311190D01*
X310029047Y-67263571D01*
X310124285Y-67215952D01*
X310171904Y-67168333D01*
X310219523Y-67073095D01*
X310219523Y-66977857D01*
X310171904Y-66882619D01*
X310124285Y-66835000D01*
X310029047Y-66787380D01*
X309790952Y-66787380D01*
X309648095Y-66835000D01*
X309314761Y-66787380D02*
X309076666Y-67787380D01*
X308886190Y-67073095D01*
X308695714Y-67787380D01*
X308457619Y-66787380D01*
X307552857Y-67787380D02*
X308124285Y-67787380D01*
X307838571Y-67787380D02*
X307838571Y-66787380D01*
X307933809Y-66930238D01*
X308029047Y-67025476D01*
X308124285Y-67073095D01*
X307171904Y-66882619D02*
X307124285Y-66835000D01*
X307029047Y-66787380D01*
X306790952Y-66787380D01*
X306695714Y-66835000D01*
X306648095Y-66882619D01*
X306600476Y-66977857D01*
X306600476Y-67073095D01*
X306648095Y-67215952D01*
X307219523Y-67787380D01*
X306600476Y-67787380D01*
%TO.C,SW20*%
X220919371Y-95304322D02*
X220784532Y-95371360D01*
X220548753Y-95404496D01*
X220447815Y-95370595D01*
X220394032Y-95330067D01*
X220333622Y-95242383D01*
X220320367Y-95148072D01*
X220354268Y-95047133D01*
X220394797Y-94993350D01*
X220482481Y-94932940D01*
X220664476Y-94859275D01*
X220752160Y-94798865D01*
X220792688Y-94745082D01*
X220826589Y-94644144D01*
X220813334Y-94549832D01*
X220752924Y-94462148D01*
X220699141Y-94421620D01*
X220598203Y-94387719D01*
X220362425Y-94420855D01*
X220227585Y-94487893D01*
X219890868Y-94487128D02*
X219794263Y-95510533D01*
X219506232Y-94829708D01*
X219417018Y-95563551D01*
X219042067Y-94606420D01*
X218725233Y-94747122D02*
X218671450Y-94706593D01*
X218570511Y-94672692D01*
X218334733Y-94705829D01*
X218247049Y-94766239D01*
X218206521Y-94820022D01*
X218172620Y-94920961D01*
X218185874Y-95015272D01*
X218252912Y-95150111D01*
X218898307Y-95636451D01*
X218285284Y-95722606D01*
X217533087Y-94818493D02*
X217438776Y-94831747D01*
X217351092Y-94892158D01*
X217310564Y-94945941D01*
X217276663Y-95046879D01*
X217256016Y-95242129D01*
X217289153Y-95477907D01*
X217362818Y-95659902D01*
X217423228Y-95747586D01*
X217477011Y-95788114D01*
X217577949Y-95822015D01*
X217672260Y-95808761D01*
X217759944Y-95748351D01*
X217800473Y-95694568D01*
X217834374Y-95593629D01*
X217855020Y-95398379D01*
X217821884Y-95162601D01*
X217748219Y-94980606D01*
X217687809Y-94892922D01*
X217634026Y-94852394D01*
X217533087Y-94818493D01*
%TO.C,SW42*%
X170523292Y-132262677D02*
X170671386Y-132235403D01*
X170907164Y-132268539D01*
X170994848Y-132328950D01*
X171035376Y-132382732D01*
X171069277Y-132483671D01*
X171056023Y-132577982D01*
X170995613Y-132665666D01*
X170941830Y-132706195D01*
X170840891Y-132740096D01*
X170645641Y-132760742D01*
X170544703Y-132794643D01*
X170490920Y-132835171D01*
X170430510Y-132922855D01*
X170417255Y-133017167D01*
X170451156Y-133118105D01*
X170491685Y-133171888D01*
X170579369Y-133232298D01*
X170815147Y-133265435D01*
X170963241Y-133238161D01*
X171286703Y-133331708D02*
X171661654Y-132374576D01*
X171750867Y-133108420D01*
X172038899Y-132427594D01*
X172135504Y-133450999D01*
X172983541Y-133233573D02*
X173076323Y-132573395D01*
X172694744Y-133577682D02*
X172558375Y-132837211D01*
X173171399Y-132923366D01*
X173421960Y-133535624D02*
X173462489Y-133589407D01*
X173550173Y-133649818D01*
X173785951Y-133682954D01*
X173886889Y-133649053D01*
X173940672Y-133608525D01*
X174001082Y-133520841D01*
X174014337Y-133426529D01*
X173987063Y-133278435D01*
X173500723Y-132633040D01*
X174113746Y-132719195D01*
%TO.C,SW38*%
X291739523Y-106219761D02*
X291596666Y-106267380D01*
X291358571Y-106267380D01*
X291263333Y-106219761D01*
X291215714Y-106172142D01*
X291168095Y-106076904D01*
X291168095Y-105981666D01*
X291215714Y-105886428D01*
X291263333Y-105838809D01*
X291358571Y-105791190D01*
X291549047Y-105743571D01*
X291644285Y-105695952D01*
X291691904Y-105648333D01*
X291739523Y-105553095D01*
X291739523Y-105457857D01*
X291691904Y-105362619D01*
X291644285Y-105315000D01*
X291549047Y-105267380D01*
X291310952Y-105267380D01*
X291168095Y-105315000D01*
X290834761Y-105267380D02*
X290596666Y-106267380D01*
X290406190Y-105553095D01*
X290215714Y-106267380D01*
X289977619Y-105267380D01*
X289691904Y-105267380D02*
X289072857Y-105267380D01*
X289406190Y-105648333D01*
X289263333Y-105648333D01*
X289168095Y-105695952D01*
X289120476Y-105743571D01*
X289072857Y-105838809D01*
X289072857Y-106076904D01*
X289120476Y-106172142D01*
X289168095Y-106219761D01*
X289263333Y-106267380D01*
X289549047Y-106267380D01*
X289644285Y-106219761D01*
X289691904Y-106172142D01*
X288501428Y-105695952D02*
X288596666Y-105648333D01*
X288644285Y-105600714D01*
X288691904Y-105505476D01*
X288691904Y-105457857D01*
X288644285Y-105362619D01*
X288596666Y-105315000D01*
X288501428Y-105267380D01*
X288310952Y-105267380D01*
X288215714Y-105315000D01*
X288168095Y-105362619D01*
X288120476Y-105457857D01*
X288120476Y-105505476D01*
X288168095Y-105600714D01*
X288215714Y-105648333D01*
X288310952Y-105695952D01*
X288501428Y-105695952D01*
X288596666Y-105743571D01*
X288644285Y-105791190D01*
X288691904Y-105886428D01*
X288691904Y-106076904D01*
X288644285Y-106172142D01*
X288596666Y-106219761D01*
X288501428Y-106267380D01*
X288310952Y-106267380D01*
X288215714Y-106219761D01*
X288168095Y-106172142D01*
X288120476Y-106076904D01*
X288120476Y-105886428D01*
X288168095Y-105791190D01*
X288215714Y-105743571D01*
X288310952Y-105695952D01*
%TO.C,SW44*%
X261599371Y-128064322D02*
X261464532Y-128131360D01*
X261228753Y-128164496D01*
X261127815Y-128130595D01*
X261074032Y-128090067D01*
X261013622Y-128002383D01*
X261000367Y-127908072D01*
X261034268Y-127807133D01*
X261074797Y-127753350D01*
X261162481Y-127692940D01*
X261344476Y-127619275D01*
X261432160Y-127558865D01*
X261472688Y-127505082D01*
X261506589Y-127404144D01*
X261493334Y-127309832D01*
X261432924Y-127222148D01*
X261379141Y-127181620D01*
X261278203Y-127147719D01*
X261042425Y-127180855D01*
X260907585Y-127247893D01*
X260570868Y-127247128D02*
X260474263Y-128270533D01*
X260186232Y-127589708D01*
X260097018Y-128323551D01*
X259722067Y-127366420D01*
X258966813Y-127809173D02*
X259059595Y-128469352D01*
X259149573Y-127398791D02*
X259484760Y-128072989D01*
X258871737Y-128159144D01*
X258023700Y-127941719D02*
X258116482Y-128601897D01*
X258206460Y-127531337D02*
X258541648Y-128205535D01*
X257928624Y-128291690D01*
%TO.C,SW35*%
X270729371Y-107544322D02*
X270594532Y-107611360D01*
X270358753Y-107644496D01*
X270257815Y-107610595D01*
X270204032Y-107570067D01*
X270143622Y-107482383D01*
X270130367Y-107388072D01*
X270164268Y-107287133D01*
X270204797Y-107233350D01*
X270292481Y-107172940D01*
X270474476Y-107099275D01*
X270562160Y-107038865D01*
X270602688Y-106985082D01*
X270636589Y-106884144D01*
X270623334Y-106789832D01*
X270562924Y-106702148D01*
X270509141Y-106661620D01*
X270408203Y-106627719D01*
X270172425Y-106660855D01*
X270037585Y-106727893D01*
X269700868Y-106727128D02*
X269604263Y-107750533D01*
X269316232Y-107069708D01*
X269227018Y-107803551D01*
X268852067Y-106846420D01*
X268569134Y-106886183D02*
X267956110Y-106972338D01*
X268339218Y-107303192D01*
X268197751Y-107323074D01*
X268110067Y-107383484D01*
X268069539Y-107437267D01*
X268035638Y-107538206D01*
X268068774Y-107773984D01*
X268129185Y-107861668D01*
X268182968Y-107902196D01*
X268283906Y-107936097D01*
X268566840Y-107896333D01*
X268654524Y-107835923D01*
X268695052Y-107782140D01*
X267060154Y-107098257D02*
X267531710Y-107031984D01*
X267645138Y-107496913D01*
X267591355Y-107456384D01*
X267490417Y-107422483D01*
X267254639Y-107455620D01*
X267166955Y-107516030D01*
X267126427Y-107569813D01*
X267092525Y-107670751D01*
X267125662Y-107906529D01*
X267186072Y-107994213D01*
X267239855Y-108034742D01*
X267340794Y-108068643D01*
X267576572Y-108035506D01*
X267664256Y-107975096D01*
X267704784Y-107921313D01*
D12*
%TO.C,U1*%
X200173571Y-80908571D02*
X200077857Y-80944285D01*
X199918333Y-80944285D01*
X199854523Y-80908571D01*
X199822619Y-80872857D01*
X199790714Y-80801428D01*
X199790714Y-80730000D01*
X199822619Y-80658571D01*
X199854523Y-80622857D01*
X199918333Y-80587142D01*
X200045952Y-80551428D01*
X200109761Y-80515714D01*
X200141666Y-80480000D01*
X200173571Y-80408571D01*
X200173571Y-80337142D01*
X200141666Y-80265714D01*
X200109761Y-80230000D01*
X200045952Y-80194285D01*
X199886428Y-80194285D01*
X199790714Y-80230000D01*
X199503571Y-80944285D02*
X199503571Y-80194285D01*
X199344047Y-80194285D01*
X199248333Y-80230000D01*
X199184523Y-80301428D01*
X199152619Y-80372857D01*
X199120714Y-80515714D01*
X199120714Y-80622857D01*
X199152619Y-80765714D01*
X199184523Y-80837142D01*
X199248333Y-80908571D01*
X199344047Y-80944285D01*
X199503571Y-80944285D01*
X198865476Y-80730000D02*
X198546428Y-80730000D01*
X198929285Y-80944285D02*
X198705952Y-80194285D01*
X198482619Y-80944285D01*
X197780714Y-80158571D02*
X198355000Y-81122857D01*
X197557380Y-80944285D02*
X197557380Y-80194285D01*
X197397857Y-80194285D01*
X197302142Y-80230000D01*
X197238333Y-80301428D01*
X197206428Y-80372857D01*
X197174523Y-80515714D01*
X197174523Y-80622857D01*
X197206428Y-80765714D01*
X197238333Y-80837142D01*
X197302142Y-80908571D01*
X197397857Y-80944285D01*
X197557380Y-80944285D01*
X196536428Y-80944285D02*
X196919285Y-80944285D01*
X196727857Y-80944285D02*
X196727857Y-80194285D01*
X196791666Y-80301428D01*
X196855476Y-80372857D01*
X196919285Y-80408571D01*
X195770714Y-80158571D02*
X196345000Y-81122857D01*
X195579285Y-80265714D02*
X195547380Y-80230000D01*
X195483571Y-80194285D01*
X195324047Y-80194285D01*
X195260238Y-80230000D01*
X195228333Y-80265714D01*
X195196428Y-80337142D01*
X195196428Y-80408571D01*
X195228333Y-80515714D01*
X195611190Y-80944285D01*
X195196428Y-80944285D01*
X190967619Y-91194285D02*
X191350476Y-91194285D01*
X191159047Y-91194285D02*
X191159047Y-90444285D01*
X191222857Y-90551428D01*
X191286666Y-90622857D01*
X191350476Y-90658571D01*
X190361428Y-90444285D02*
X190680476Y-90444285D01*
X190712380Y-90801428D01*
X190680476Y-90765714D01*
X190616666Y-90730000D01*
X190457142Y-90730000D01*
X190393333Y-90765714D01*
X190361428Y-90801428D01*
X190329523Y-90872857D01*
X190329523Y-91051428D01*
X190361428Y-91122857D01*
X190393333Y-91158571D01*
X190457142Y-91194285D01*
X190616666Y-91194285D01*
X190680476Y-91158571D01*
X190712380Y-91122857D01*
X189563809Y-90408571D02*
X190138095Y-91372857D01*
X189117142Y-90801428D02*
X189021428Y-90837142D01*
X188989523Y-90872857D01*
X188957619Y-90944285D01*
X188957619Y-91051428D01*
X188989523Y-91122857D01*
X189021428Y-91158571D01*
X189085238Y-91194285D01*
X189340476Y-91194285D01*
X189340476Y-90444285D01*
X189117142Y-90444285D01*
X189053333Y-90480000D01*
X189021428Y-90515714D01*
X188989523Y-90587142D01*
X188989523Y-90658571D01*
X189021428Y-90730000D01*
X189053333Y-90765714D01*
X189117142Y-90801428D01*
X189340476Y-90801428D01*
X188319523Y-91194285D02*
X188702380Y-91194285D01*
X188510952Y-91194285D02*
X188510952Y-90444285D01*
X188574761Y-90551428D01*
X188638571Y-90622857D01*
X188702380Y-90658571D01*
X191270714Y-85880000D02*
X190951666Y-85880000D01*
X191334523Y-86094285D02*
X191111190Y-85344285D01*
X190887857Y-86094285D01*
X190313571Y-86094285D02*
X190696428Y-86094285D01*
X190505000Y-86094285D02*
X190505000Y-85344285D01*
X190568809Y-85451428D01*
X190632619Y-85522857D01*
X190696428Y-85558571D01*
X189547857Y-85308571D02*
X190122142Y-86272857D01*
X189101190Y-85701428D02*
X189324523Y-85701428D01*
X189324523Y-86094285D02*
X189324523Y-85344285D01*
X189005476Y-85344285D01*
X188463095Y-85344285D02*
X188590714Y-85344285D01*
X188654523Y-85380000D01*
X188686428Y-85415714D01*
X188750238Y-85522857D01*
X188782142Y-85665714D01*
X188782142Y-85951428D01*
X188750238Y-86022857D01*
X188718333Y-86058571D01*
X188654523Y-86094285D01*
X188526904Y-86094285D01*
X188463095Y-86058571D01*
X188431190Y-86022857D01*
X188399285Y-85951428D01*
X188399285Y-85772857D01*
X188431190Y-85701428D01*
X188463095Y-85665714D01*
X188526904Y-85630000D01*
X188654523Y-85630000D01*
X188718333Y-85665714D01*
X188750238Y-85701428D01*
X188782142Y-85772857D01*
X189745476Y-72680000D02*
X189809285Y-72644285D01*
X189905000Y-72644285D01*
X190000714Y-72680000D01*
X190064523Y-72751428D01*
X190096428Y-72822857D01*
X190128333Y-72965714D01*
X190128333Y-73072857D01*
X190096428Y-73215714D01*
X190064523Y-73287142D01*
X190000714Y-73358571D01*
X189905000Y-73394285D01*
X189841190Y-73394285D01*
X189745476Y-73358571D01*
X189713571Y-73322857D01*
X189713571Y-73072857D01*
X189841190Y-73072857D01*
X189426428Y-73394285D02*
X189426428Y-72644285D01*
X189043571Y-73394285D01*
X189043571Y-72644285D01*
X188724523Y-73394285D02*
X188724523Y-72644285D01*
X188565000Y-72644285D01*
X188469285Y-72680000D01*
X188405476Y-72751428D01*
X188373571Y-72822857D01*
X188341666Y-72965714D01*
X188341666Y-73072857D01*
X188373571Y-73215714D01*
X188405476Y-73287142D01*
X188469285Y-73358571D01*
X188565000Y-73394285D01*
X188724523Y-73394285D01*
D13*
X196626428Y-66394285D02*
X196626428Y-65644285D01*
X196376428Y-66180000D01*
X196126428Y-65644285D01*
X196126428Y-66394285D01*
X195769285Y-66394285D02*
X195769285Y-65894285D01*
X195769285Y-65644285D02*
X195805000Y-65680000D01*
X195769285Y-65715714D01*
X195733571Y-65680000D01*
X195769285Y-65644285D01*
X195769285Y-65715714D01*
X195090714Y-66358571D02*
X195162142Y-66394285D01*
X195305000Y-66394285D01*
X195376428Y-66358571D01*
X195412142Y-66322857D01*
X195447857Y-66251428D01*
X195447857Y-66037142D01*
X195412142Y-65965714D01*
X195376428Y-65930000D01*
X195305000Y-65894285D01*
X195162142Y-65894285D01*
X195090714Y-65930000D01*
X194769285Y-66394285D02*
X194769285Y-65894285D01*
X194769285Y-66037142D02*
X194733571Y-65965714D01*
X194697857Y-65930000D01*
X194626428Y-65894285D01*
X194555000Y-65894285D01*
X194197857Y-66394285D02*
X194269285Y-66358571D01*
X194305000Y-66322857D01*
X194340714Y-66251428D01*
X194340714Y-66037142D01*
X194305000Y-65965714D01*
X194269285Y-65930000D01*
X194197857Y-65894285D01*
X194090714Y-65894285D01*
X194019285Y-65930000D01*
X193983571Y-65965714D01*
X193947857Y-66037142D01*
X193947857Y-66251428D01*
X193983571Y-66322857D01*
X194019285Y-66358571D01*
X194090714Y-66394285D01*
X194197857Y-66394285D01*
X193626428Y-65644285D02*
X193626428Y-66251428D01*
X193590714Y-66322857D01*
X193555000Y-66358571D01*
X193483571Y-66394285D01*
X193340714Y-66394285D01*
X193269285Y-66358571D01*
X193233571Y-66322857D01*
X193197857Y-66251428D01*
X193197857Y-65644285D01*
X192876428Y-66358571D02*
X192769285Y-66394285D01*
X192590714Y-66394285D01*
X192519285Y-66358571D01*
X192483571Y-66322857D01*
X192447857Y-66251428D01*
X192447857Y-66180000D01*
X192483571Y-66108571D01*
X192519285Y-66072857D01*
X192590714Y-66037142D01*
X192733571Y-66001428D01*
X192805000Y-65965714D01*
X192840714Y-65930000D01*
X192876428Y-65858571D01*
X192876428Y-65787142D01*
X192840714Y-65715714D01*
X192805000Y-65680000D01*
X192733571Y-65644285D01*
X192555000Y-65644285D01*
X192447857Y-65680000D01*
X191876428Y-66001428D02*
X191769285Y-66037142D01*
X191733571Y-66072857D01*
X191697857Y-66144285D01*
X191697857Y-66251428D01*
X191733571Y-66322857D01*
X191769285Y-66358571D01*
X191840714Y-66394285D01*
X192126428Y-66394285D01*
X192126428Y-65644285D01*
X191876428Y-65644285D01*
X191805000Y-65680000D01*
X191769285Y-65715714D01*
X191733571Y-65787142D01*
X191733571Y-65858571D01*
X191769285Y-65930000D01*
X191805000Y-65965714D01*
X191876428Y-66001428D01*
X192126428Y-66001428D01*
D12*
X190967619Y-98794285D02*
X191350476Y-98794285D01*
X191159047Y-98794285D02*
X191159047Y-98044285D01*
X191222857Y-98151428D01*
X191286666Y-98222857D01*
X191350476Y-98258571D01*
X190552857Y-98044285D02*
X190489047Y-98044285D01*
X190425238Y-98080000D01*
X190393333Y-98115714D01*
X190361428Y-98187142D01*
X190329523Y-98330000D01*
X190329523Y-98508571D01*
X190361428Y-98651428D01*
X190393333Y-98722857D01*
X190425238Y-98758571D01*
X190489047Y-98794285D01*
X190552857Y-98794285D01*
X190616666Y-98758571D01*
X190648571Y-98722857D01*
X190680476Y-98651428D01*
X190712380Y-98508571D01*
X190712380Y-98330000D01*
X190680476Y-98187142D01*
X190648571Y-98115714D01*
X190616666Y-98080000D01*
X190552857Y-98044285D01*
X189563809Y-98008571D02*
X190138095Y-98972857D01*
X189117142Y-98401428D02*
X189021428Y-98437142D01*
X188989523Y-98472857D01*
X188957619Y-98544285D01*
X188957619Y-98651428D01*
X188989523Y-98722857D01*
X189021428Y-98758571D01*
X189085238Y-98794285D01*
X189340476Y-98794285D01*
X189340476Y-98044285D01*
X189117142Y-98044285D01*
X189053333Y-98080000D01*
X189021428Y-98115714D01*
X188989523Y-98187142D01*
X188989523Y-98258571D01*
X189021428Y-98330000D01*
X189053333Y-98365714D01*
X189117142Y-98401428D01*
X189340476Y-98401428D01*
X188383333Y-98044285D02*
X188510952Y-98044285D01*
X188574761Y-98080000D01*
X188606666Y-98115714D01*
X188670476Y-98222857D01*
X188702380Y-98365714D01*
X188702380Y-98651428D01*
X188670476Y-98722857D01*
X188638571Y-98758571D01*
X188574761Y-98794285D01*
X188447142Y-98794285D01*
X188383333Y-98758571D01*
X188351428Y-98722857D01*
X188319523Y-98651428D01*
X188319523Y-98472857D01*
X188351428Y-98401428D01*
X188383333Y-98365714D01*
X188447142Y-98330000D01*
X188574761Y-98330000D01*
X188638571Y-98365714D01*
X188670476Y-98401428D01*
X188702380Y-98472857D01*
X189697619Y-70844285D02*
X189920952Y-70487142D01*
X190080476Y-70844285D02*
X190080476Y-70094285D01*
X189825238Y-70094285D01*
X189761428Y-70130000D01*
X189729523Y-70165714D01*
X189697619Y-70237142D01*
X189697619Y-70344285D01*
X189729523Y-70415714D01*
X189761428Y-70451428D01*
X189825238Y-70487142D01*
X190080476Y-70487142D01*
X189442380Y-70630000D02*
X189123333Y-70630000D01*
X189506190Y-70844285D02*
X189282857Y-70094285D01*
X189059523Y-70844285D01*
X188900000Y-70094285D02*
X188740476Y-70844285D01*
X188612857Y-70308571D01*
X188485238Y-70844285D01*
X188325714Y-70094285D01*
X200157619Y-83408571D02*
X200061904Y-83444285D01*
X199902380Y-83444285D01*
X199838571Y-83408571D01*
X199806666Y-83372857D01*
X199774761Y-83301428D01*
X199774761Y-83230000D01*
X199806666Y-83158571D01*
X199838571Y-83122857D01*
X199902380Y-83087142D01*
X200030000Y-83051428D01*
X200093809Y-83015714D01*
X200125714Y-82980000D01*
X200157619Y-82908571D01*
X200157619Y-82837142D01*
X200125714Y-82765714D01*
X200093809Y-82730000D01*
X200030000Y-82694285D01*
X199870476Y-82694285D01*
X199774761Y-82730000D01*
X199104761Y-83372857D02*
X199136666Y-83408571D01*
X199232380Y-83444285D01*
X199296190Y-83444285D01*
X199391904Y-83408571D01*
X199455714Y-83337142D01*
X199487619Y-83265714D01*
X199519523Y-83122857D01*
X199519523Y-83015714D01*
X199487619Y-82872857D01*
X199455714Y-82801428D01*
X199391904Y-82730000D01*
X199296190Y-82694285D01*
X199232380Y-82694285D01*
X199136666Y-82730000D01*
X199104761Y-82765714D01*
X198498571Y-83444285D02*
X198817619Y-83444285D01*
X198817619Y-82694285D01*
X197796666Y-82658571D02*
X198370952Y-83622857D01*
X197573333Y-83444285D02*
X197573333Y-82694285D01*
X197413809Y-82694285D01*
X197318095Y-82730000D01*
X197254285Y-82801428D01*
X197222380Y-82872857D01*
X197190476Y-83015714D01*
X197190476Y-83122857D01*
X197222380Y-83265714D01*
X197254285Y-83337142D01*
X197318095Y-83408571D01*
X197413809Y-83444285D01*
X197573333Y-83444285D01*
X196775714Y-82694285D02*
X196711904Y-82694285D01*
X196648095Y-82730000D01*
X196616190Y-82765714D01*
X196584285Y-82837142D01*
X196552380Y-82980000D01*
X196552380Y-83158571D01*
X196584285Y-83301428D01*
X196616190Y-83372857D01*
X196648095Y-83408571D01*
X196711904Y-83444285D01*
X196775714Y-83444285D01*
X196839523Y-83408571D01*
X196871428Y-83372857D01*
X196903333Y-83301428D01*
X196935238Y-83158571D01*
X196935238Y-82980000D01*
X196903333Y-82837142D01*
X196871428Y-82765714D01*
X196839523Y-82730000D01*
X196775714Y-82694285D01*
X195786666Y-82658571D02*
X196360952Y-83622857D01*
X195627142Y-82694285D02*
X195212380Y-82694285D01*
X195435714Y-82980000D01*
X195340000Y-82980000D01*
X195276190Y-83015714D01*
X195244285Y-83051428D01*
X195212380Y-83122857D01*
X195212380Y-83301428D01*
X195244285Y-83372857D01*
X195276190Y-83408571D01*
X195340000Y-83444285D01*
X195531428Y-83444285D01*
X195595238Y-83408571D01*
X195627142Y-83372857D01*
X190967619Y-96294285D02*
X191350476Y-96294285D01*
X191159047Y-96294285D02*
X191159047Y-95544285D01*
X191222857Y-95651428D01*
X191286666Y-95722857D01*
X191350476Y-95758571D01*
X190393333Y-95544285D02*
X190520952Y-95544285D01*
X190584761Y-95580000D01*
X190616666Y-95615714D01*
X190680476Y-95722857D01*
X190712380Y-95865714D01*
X190712380Y-96151428D01*
X190680476Y-96222857D01*
X190648571Y-96258571D01*
X190584761Y-96294285D01*
X190457142Y-96294285D01*
X190393333Y-96258571D01*
X190361428Y-96222857D01*
X190329523Y-96151428D01*
X190329523Y-95972857D01*
X190361428Y-95901428D01*
X190393333Y-95865714D01*
X190457142Y-95830000D01*
X190584761Y-95830000D01*
X190648571Y-95865714D01*
X190680476Y-95901428D01*
X190712380Y-95972857D01*
X189563809Y-95508571D02*
X190138095Y-96472857D01*
X189117142Y-95901428D02*
X189021428Y-95937142D01*
X188989523Y-95972857D01*
X188957619Y-96044285D01*
X188957619Y-96151428D01*
X188989523Y-96222857D01*
X189021428Y-96258571D01*
X189085238Y-96294285D01*
X189340476Y-96294285D01*
X189340476Y-95544285D01*
X189117142Y-95544285D01*
X189053333Y-95580000D01*
X189021428Y-95615714D01*
X188989523Y-95687142D01*
X188989523Y-95758571D01*
X189021428Y-95830000D01*
X189053333Y-95865714D01*
X189117142Y-95901428D01*
X189340476Y-95901428D01*
X188702380Y-95615714D02*
X188670476Y-95580000D01*
X188606666Y-95544285D01*
X188447142Y-95544285D01*
X188383333Y-95580000D01*
X188351428Y-95615714D01*
X188319523Y-95687142D01*
X188319523Y-95758571D01*
X188351428Y-95865714D01*
X188734285Y-96294285D01*
X188319523Y-96294285D01*
X189601904Y-75944285D02*
X189825238Y-75587142D01*
X189984761Y-75944285D02*
X189984761Y-75194285D01*
X189729523Y-75194285D01*
X189665714Y-75230000D01*
X189633809Y-75265714D01*
X189601904Y-75337142D01*
X189601904Y-75444285D01*
X189633809Y-75515714D01*
X189665714Y-75551428D01*
X189729523Y-75587142D01*
X189984761Y-75587142D01*
X189346666Y-75908571D02*
X189250952Y-75944285D01*
X189091428Y-75944285D01*
X189027619Y-75908571D01*
X188995714Y-75872857D01*
X188963809Y-75801428D01*
X188963809Y-75730000D01*
X188995714Y-75658571D01*
X189027619Y-75622857D01*
X189091428Y-75587142D01*
X189219047Y-75551428D01*
X189282857Y-75515714D01*
X189314761Y-75480000D01*
X189346666Y-75408571D01*
X189346666Y-75337142D01*
X189314761Y-75265714D01*
X189282857Y-75230000D01*
X189219047Y-75194285D01*
X189059523Y-75194285D01*
X188963809Y-75230000D01*
X188772380Y-75194285D02*
X188389523Y-75194285D01*
X188580952Y-75944285D02*
X188580952Y-75194285D01*
X190967619Y-93744285D02*
X191350476Y-93744285D01*
X191159047Y-93744285D02*
X191159047Y-92994285D01*
X191222857Y-93101428D01*
X191286666Y-93172857D01*
X191350476Y-93208571D01*
X190393333Y-93244285D02*
X190393333Y-93744285D01*
X190552857Y-92958571D02*
X190712380Y-93494285D01*
X190297619Y-93494285D01*
X189563809Y-92958571D02*
X190138095Y-93922857D01*
X189117142Y-93351428D02*
X189021428Y-93387142D01*
X188989523Y-93422857D01*
X188957619Y-93494285D01*
X188957619Y-93601428D01*
X188989523Y-93672857D01*
X189021428Y-93708571D01*
X189085238Y-93744285D01*
X189340476Y-93744285D01*
X189340476Y-92994285D01*
X189117142Y-92994285D01*
X189053333Y-93030000D01*
X189021428Y-93065714D01*
X188989523Y-93137142D01*
X188989523Y-93208571D01*
X189021428Y-93280000D01*
X189053333Y-93315714D01*
X189117142Y-93351428D01*
X189340476Y-93351428D01*
X188734285Y-92994285D02*
X188319523Y-92994285D01*
X188542857Y-93280000D01*
X188447142Y-93280000D01*
X188383333Y-93315714D01*
X188351428Y-93351428D01*
X188319523Y-93422857D01*
X188319523Y-93601428D01*
X188351428Y-93672857D01*
X188383333Y-93708571D01*
X188447142Y-93744285D01*
X188638571Y-93744285D01*
X188702380Y-93708571D01*
X188734285Y-93672857D01*
X199876190Y-98251428D02*
X199780476Y-98287142D01*
X199748571Y-98322857D01*
X199716666Y-98394285D01*
X199716666Y-98501428D01*
X199748571Y-98572857D01*
X199780476Y-98608571D01*
X199844285Y-98644285D01*
X200099523Y-98644285D01*
X200099523Y-97894285D01*
X199876190Y-97894285D01*
X199812380Y-97930000D01*
X199780476Y-97965714D01*
X199748571Y-98037142D01*
X199748571Y-98108571D01*
X199780476Y-98180000D01*
X199812380Y-98215714D01*
X199876190Y-98251428D01*
X200099523Y-98251428D01*
X199110476Y-97894285D02*
X199429523Y-97894285D01*
X199461428Y-98251428D01*
X199429523Y-98215714D01*
X199365714Y-98180000D01*
X199206190Y-98180000D01*
X199142380Y-98215714D01*
X199110476Y-98251428D01*
X199078571Y-98322857D01*
X199078571Y-98501428D01*
X199110476Y-98572857D01*
X199142380Y-98608571D01*
X199206190Y-98644285D01*
X199365714Y-98644285D01*
X199429523Y-98608571D01*
X199461428Y-98572857D01*
X198312857Y-97858571D02*
X198887142Y-98822857D01*
X198057619Y-98644285D02*
X197930000Y-98644285D01*
X197866190Y-98608571D01*
X197834285Y-98572857D01*
X197770476Y-98465714D01*
X197738571Y-98322857D01*
X197738571Y-98037142D01*
X197770476Y-97965714D01*
X197802380Y-97930000D01*
X197866190Y-97894285D01*
X197993809Y-97894285D01*
X198057619Y-97930000D01*
X198089523Y-97965714D01*
X198121428Y-98037142D01*
X198121428Y-98215714D01*
X198089523Y-98287142D01*
X198057619Y-98322857D01*
X197993809Y-98358571D01*
X197866190Y-98358571D01*
X197802380Y-98322857D01*
X197770476Y-98287142D01*
X197738571Y-98215714D01*
X190128333Y-77644285D02*
X189905000Y-78394285D01*
X189681666Y-77644285D01*
X189075476Y-78322857D02*
X189107380Y-78358571D01*
X189203095Y-78394285D01*
X189266904Y-78394285D01*
X189362619Y-78358571D01*
X189426428Y-78287142D01*
X189458333Y-78215714D01*
X189490238Y-78072857D01*
X189490238Y-77965714D01*
X189458333Y-77822857D01*
X189426428Y-77751428D01*
X189362619Y-77680000D01*
X189266904Y-77644285D01*
X189203095Y-77644285D01*
X189107380Y-77680000D01*
X189075476Y-77715714D01*
X188405476Y-78322857D02*
X188437380Y-78358571D01*
X188533095Y-78394285D01*
X188596904Y-78394285D01*
X188692619Y-78358571D01*
X188756428Y-78287142D01*
X188788333Y-78215714D01*
X188820238Y-78072857D01*
X188820238Y-77965714D01*
X188788333Y-77822857D01*
X188756428Y-77751428D01*
X188692619Y-77680000D01*
X188596904Y-77644285D01*
X188533095Y-77644285D01*
X188437380Y-77680000D01*
X188405476Y-77715714D01*
X191270714Y-80880000D02*
X190951666Y-80880000D01*
X191334523Y-81094285D02*
X191111190Y-80344285D01*
X190887857Y-81094285D01*
X190728333Y-80344285D02*
X190313571Y-80344285D01*
X190536904Y-80630000D01*
X190441190Y-80630000D01*
X190377380Y-80665714D01*
X190345476Y-80701428D01*
X190313571Y-80772857D01*
X190313571Y-80951428D01*
X190345476Y-81022857D01*
X190377380Y-81058571D01*
X190441190Y-81094285D01*
X190632619Y-81094285D01*
X190696428Y-81058571D01*
X190728333Y-81022857D01*
X189547857Y-80308571D02*
X190122142Y-81272857D01*
X189101190Y-80701428D02*
X189324523Y-80701428D01*
X189324523Y-81094285D02*
X189324523Y-80344285D01*
X189005476Y-80344285D01*
X188463095Y-80594285D02*
X188463095Y-81094285D01*
X188622619Y-80308571D02*
X188782142Y-80844285D01*
X188367380Y-80844285D01*
X191270714Y-83380000D02*
X190951666Y-83380000D01*
X191334523Y-83594285D02*
X191111190Y-82844285D01*
X190887857Y-83594285D01*
X190696428Y-82915714D02*
X190664523Y-82880000D01*
X190600714Y-82844285D01*
X190441190Y-82844285D01*
X190377380Y-82880000D01*
X190345476Y-82915714D01*
X190313571Y-82987142D01*
X190313571Y-83058571D01*
X190345476Y-83165714D01*
X190728333Y-83594285D01*
X190313571Y-83594285D01*
X189547857Y-82808571D02*
X190122142Y-83772857D01*
X189101190Y-83201428D02*
X189324523Y-83201428D01*
X189324523Y-83594285D02*
X189324523Y-82844285D01*
X189005476Y-82844285D01*
X188431190Y-82844285D02*
X188750238Y-82844285D01*
X188782142Y-83201428D01*
X188750238Y-83165714D01*
X188686428Y-83130000D01*
X188526904Y-83130000D01*
X188463095Y-83165714D01*
X188431190Y-83201428D01*
X188399285Y-83272857D01*
X188399285Y-83451428D01*
X188431190Y-83522857D01*
X188463095Y-83558571D01*
X188526904Y-83594285D01*
X188686428Y-83594285D01*
X188750238Y-83558571D01*
X188782142Y-83522857D01*
X191270714Y-88430000D02*
X190951666Y-88430000D01*
X191334523Y-88644285D02*
X191111190Y-87894285D01*
X190887857Y-88644285D01*
X190536904Y-87894285D02*
X190473095Y-87894285D01*
X190409285Y-87930000D01*
X190377380Y-87965714D01*
X190345476Y-88037142D01*
X190313571Y-88180000D01*
X190313571Y-88358571D01*
X190345476Y-88501428D01*
X190377380Y-88572857D01*
X190409285Y-88608571D01*
X190473095Y-88644285D01*
X190536904Y-88644285D01*
X190600714Y-88608571D01*
X190632619Y-88572857D01*
X190664523Y-88501428D01*
X190696428Y-88358571D01*
X190696428Y-88180000D01*
X190664523Y-88037142D01*
X190632619Y-87965714D01*
X190600714Y-87930000D01*
X190536904Y-87894285D01*
X189547857Y-87858571D02*
X190122142Y-88822857D01*
X189101190Y-88251428D02*
X189324523Y-88251428D01*
X189324523Y-88644285D02*
X189324523Y-87894285D01*
X189005476Y-87894285D01*
X188814047Y-87894285D02*
X188367380Y-87894285D01*
X188654523Y-88644285D01*
D11*
%TO.C,SW6*%
X174244848Y-75068950D02*
X174392942Y-75041676D01*
X174628720Y-75074812D01*
X174716404Y-75135222D01*
X174756933Y-75189005D01*
X174790834Y-75289944D01*
X174777579Y-75384255D01*
X174717169Y-75471939D01*
X174663386Y-75512467D01*
X174562447Y-75546369D01*
X174367198Y-75567015D01*
X174266259Y-75600916D01*
X174212476Y-75641444D01*
X174152066Y-75729128D01*
X174138811Y-75823440D01*
X174172712Y-75924378D01*
X174213241Y-75978161D01*
X174300925Y-76038571D01*
X174536703Y-76071708D01*
X174684797Y-76044434D01*
X175008259Y-76137981D02*
X175383210Y-75180849D01*
X175472423Y-75914692D01*
X175760455Y-75233867D01*
X175857060Y-76257272D01*
X176658706Y-76369936D02*
X176470083Y-76343427D01*
X176382399Y-76283016D01*
X176341871Y-76229233D01*
X176267442Y-76074512D01*
X176246795Y-75879262D01*
X176299814Y-75502017D01*
X176360224Y-75414333D01*
X176414007Y-75373805D01*
X176514945Y-75339904D01*
X176703568Y-75366413D01*
X176791252Y-75426823D01*
X176831780Y-75480606D01*
X176865681Y-75581545D01*
X176832545Y-75817323D01*
X176772134Y-75905007D01*
X176718351Y-75945535D01*
X176617413Y-75979436D01*
X176428790Y-75952927D01*
X176341106Y-75892517D01*
X176300578Y-75838734D01*
X176266677Y-75737795D01*
%TO.C,SW11*%
X291179523Y-67729761D02*
X291036666Y-67777380D01*
X290798571Y-67777380D01*
X290703333Y-67729761D01*
X290655714Y-67682142D01*
X290608095Y-67586904D01*
X290608095Y-67491666D01*
X290655714Y-67396428D01*
X290703333Y-67348809D01*
X290798571Y-67301190D01*
X290989047Y-67253571D01*
X291084285Y-67205952D01*
X291131904Y-67158333D01*
X291179523Y-67063095D01*
X291179523Y-66967857D01*
X291131904Y-66872619D01*
X291084285Y-66825000D01*
X290989047Y-66777380D01*
X290750952Y-66777380D01*
X290608095Y-66825000D01*
X290274761Y-66777380D02*
X290036666Y-67777380D01*
X289846190Y-67063095D01*
X289655714Y-67777380D01*
X289417619Y-66777380D01*
X288512857Y-67777380D02*
X289084285Y-67777380D01*
X288798571Y-67777380D02*
X288798571Y-66777380D01*
X288893809Y-66920238D01*
X288989047Y-67015476D01*
X289084285Y-67063095D01*
X287560476Y-67777380D02*
X288131904Y-67777380D01*
X287846190Y-67777380D02*
X287846190Y-66777380D01*
X287941428Y-66920238D01*
X288036666Y-67015476D01*
X288131904Y-67063095D01*
%TO.C,SW41*%
X139873292Y-127942677D02*
X140021386Y-127915403D01*
X140257164Y-127948539D01*
X140344848Y-128008950D01*
X140385376Y-128062732D01*
X140419277Y-128163671D01*
X140406023Y-128257982D01*
X140345613Y-128345666D01*
X140291830Y-128386195D01*
X140190891Y-128420096D01*
X139995641Y-128440742D01*
X139894703Y-128474643D01*
X139840920Y-128515171D01*
X139780510Y-128602855D01*
X139767255Y-128697167D01*
X139801156Y-128798105D01*
X139841685Y-128851888D01*
X139929369Y-128912298D01*
X140165147Y-128945435D01*
X140313241Y-128918161D01*
X140636703Y-129011708D02*
X141011654Y-128054576D01*
X141100867Y-128788420D01*
X141388899Y-128107594D01*
X141485504Y-129130999D01*
X142333541Y-128913573D02*
X142426323Y-128253395D01*
X142044744Y-129257682D02*
X141908375Y-128517211D01*
X142521399Y-128603366D01*
X143463746Y-128399195D02*
X142897879Y-128319668D01*
X143180813Y-128359431D02*
X143041640Y-129349699D01*
X142967210Y-129194978D01*
X142886154Y-129087412D01*
X142798470Y-129027002D01*
%TO.C,SW22*%
X258659371Y-90004322D02*
X258524532Y-90071360D01*
X258288753Y-90104496D01*
X258187815Y-90070595D01*
X258134032Y-90030067D01*
X258073622Y-89942383D01*
X258060367Y-89848072D01*
X258094268Y-89747133D01*
X258134797Y-89693350D01*
X258222481Y-89632940D01*
X258404476Y-89559275D01*
X258492160Y-89498865D01*
X258532688Y-89445082D01*
X258566589Y-89344144D01*
X258553334Y-89249832D01*
X258492924Y-89162148D01*
X258439141Y-89121620D01*
X258338203Y-89087719D01*
X258102425Y-89120855D01*
X257967585Y-89187893D01*
X257630868Y-89187128D02*
X257534263Y-90210533D01*
X257246232Y-89529708D01*
X257157018Y-90263551D01*
X256782067Y-89306420D01*
X256465233Y-89447122D02*
X256411450Y-89406593D01*
X256310511Y-89372692D01*
X256074733Y-89405829D01*
X255987049Y-89466239D01*
X255946521Y-89520022D01*
X255912620Y-89620961D01*
X255925874Y-89715272D01*
X255992912Y-89850111D01*
X256638307Y-90336451D01*
X256025284Y-90422606D01*
X255522120Y-89579668D02*
X255468337Y-89539139D01*
X255367399Y-89505238D01*
X255131621Y-89538375D01*
X255043937Y-89598785D01*
X255003408Y-89652568D01*
X254969507Y-89753506D01*
X254982762Y-89847818D01*
X255049799Y-89982657D01*
X255695194Y-90468997D01*
X255082171Y-90555152D01*
%TO.C,SW27*%
X108399523Y-106079761D02*
X108256666Y-106127380D01*
X108018571Y-106127380D01*
X107923333Y-106079761D01*
X107875714Y-106032142D01*
X107828095Y-105936904D01*
X107828095Y-105841666D01*
X107875714Y-105746428D01*
X107923333Y-105698809D01*
X108018571Y-105651190D01*
X108209047Y-105603571D01*
X108304285Y-105555952D01*
X108351904Y-105508333D01*
X108399523Y-105413095D01*
X108399523Y-105317857D01*
X108351904Y-105222619D01*
X108304285Y-105175000D01*
X108209047Y-105127380D01*
X107970952Y-105127380D01*
X107828095Y-105175000D01*
X107494761Y-105127380D02*
X107256666Y-106127380D01*
X107066190Y-105413095D01*
X106875714Y-106127380D01*
X106637619Y-105127380D01*
X106304285Y-105222619D02*
X106256666Y-105175000D01*
X106161428Y-105127380D01*
X105923333Y-105127380D01*
X105828095Y-105175000D01*
X105780476Y-105222619D01*
X105732857Y-105317857D01*
X105732857Y-105413095D01*
X105780476Y-105555952D01*
X106351904Y-106127380D01*
X105732857Y-106127380D01*
X105399523Y-105127380D02*
X104732857Y-105127380D01*
X105161428Y-106127380D01*
%TO.C,SW16*%
X119233292Y-86582677D02*
X119381386Y-86555403D01*
X119617164Y-86588539D01*
X119704848Y-86648950D01*
X119745376Y-86702732D01*
X119779277Y-86803671D01*
X119766023Y-86897982D01*
X119705613Y-86985666D01*
X119651830Y-87026195D01*
X119550891Y-87060096D01*
X119355641Y-87080742D01*
X119254703Y-87114643D01*
X119200920Y-87155171D01*
X119140510Y-87242855D01*
X119127255Y-87337167D01*
X119161156Y-87438105D01*
X119201685Y-87491888D01*
X119289369Y-87552298D01*
X119525147Y-87585435D01*
X119673241Y-87558161D01*
X119996703Y-87651708D02*
X120371654Y-86694576D01*
X120460867Y-87428420D01*
X120748899Y-86747594D01*
X120845504Y-87770999D01*
X121880634Y-86906649D02*
X121314766Y-86827122D01*
X121597700Y-86866886D02*
X121458527Y-87857154D01*
X121384098Y-87702432D01*
X121303041Y-87594866D01*
X121215357Y-87534456D01*
X122590262Y-88016209D02*
X122401640Y-87989699D01*
X122313956Y-87929289D01*
X122273427Y-87875506D01*
X122198998Y-87720785D01*
X122178351Y-87525535D01*
X122231370Y-87148290D01*
X122291780Y-87060606D01*
X122345563Y-87020078D01*
X122446501Y-86986177D01*
X122635124Y-87012686D01*
X122722808Y-87073096D01*
X122763336Y-87126879D01*
X122797237Y-87227818D01*
X122764101Y-87463596D01*
X122703691Y-87551280D01*
X122649908Y-87591808D01*
X122548969Y-87625709D01*
X122360347Y-87599200D01*
X122272663Y-87538790D01*
X122232134Y-87485007D01*
X122198233Y-87384068D01*
%TO.C,SW1*%
X80113333Y-67589761D02*
X79970476Y-67637380D01*
X79732380Y-67637380D01*
X79637142Y-67589761D01*
X79589523Y-67542142D01*
X79541904Y-67446904D01*
X79541904Y-67351666D01*
X79589523Y-67256428D01*
X79637142Y-67208809D01*
X79732380Y-67161190D01*
X79922857Y-67113571D01*
X80018095Y-67065952D01*
X80065714Y-67018333D01*
X80113333Y-66923095D01*
X80113333Y-66827857D01*
X80065714Y-66732619D01*
X80018095Y-66685000D01*
X79922857Y-66637380D01*
X79684761Y-66637380D01*
X79541904Y-66685000D01*
X79208571Y-66637380D02*
X78970476Y-67637380D01*
X78780000Y-66923095D01*
X78589523Y-67637380D01*
X78351428Y-66637380D01*
X77446666Y-67637380D02*
X78018095Y-67637380D01*
X77732380Y-67637380D02*
X77732380Y-66637380D01*
X77827619Y-66780238D01*
X77922857Y-66875476D01*
X78018095Y-66923095D01*
%TO.C,SW3*%
X117634848Y-67108950D02*
X117782942Y-67081676D01*
X118018720Y-67114812D01*
X118106404Y-67175222D01*
X118146933Y-67229005D01*
X118180834Y-67329944D01*
X118167579Y-67424255D01*
X118107169Y-67511939D01*
X118053386Y-67552467D01*
X117952447Y-67586369D01*
X117757198Y-67607015D01*
X117656259Y-67640916D01*
X117602476Y-67681444D01*
X117542066Y-67769128D01*
X117528811Y-67863440D01*
X117562712Y-67964378D01*
X117603241Y-68018161D01*
X117690925Y-68078571D01*
X117926703Y-68111708D01*
X118074797Y-68084434D01*
X118398259Y-68177981D02*
X118773210Y-67220849D01*
X118862423Y-67954692D01*
X119150455Y-67273867D01*
X119247060Y-68297272D01*
X119529994Y-68337036D02*
X120143017Y-68423190D01*
X119865946Y-67999554D01*
X120007413Y-68019436D01*
X120108351Y-67985535D01*
X120162134Y-67945007D01*
X120222545Y-67857323D01*
X120255681Y-67621545D01*
X120221780Y-67520606D01*
X120181252Y-67466823D01*
X120093568Y-67406413D01*
X119810634Y-67366649D01*
X119709695Y-67400550D01*
X119655913Y-67441079D01*
%TO.C,SW34*%
X251879371Y-110194322D02*
X251744532Y-110261360D01*
X251508753Y-110294496D01*
X251407815Y-110260595D01*
X251354032Y-110220067D01*
X251293622Y-110132383D01*
X251280367Y-110038072D01*
X251314268Y-109937133D01*
X251354797Y-109883350D01*
X251442481Y-109822940D01*
X251624476Y-109749275D01*
X251712160Y-109688865D01*
X251752688Y-109635082D01*
X251786589Y-109534144D01*
X251773334Y-109439832D01*
X251712924Y-109352148D01*
X251659141Y-109311620D01*
X251558203Y-109277719D01*
X251322425Y-109310855D01*
X251187585Y-109377893D01*
X250850868Y-109377128D02*
X250754263Y-110400533D01*
X250466232Y-109719708D01*
X250377018Y-110453551D01*
X250002067Y-109496420D01*
X249719134Y-109536183D02*
X249106110Y-109622338D01*
X249489218Y-109953192D01*
X249347751Y-109973074D01*
X249260067Y-110033484D01*
X249219539Y-110087267D01*
X249185638Y-110188206D01*
X249218774Y-110423984D01*
X249279185Y-110511668D01*
X249332968Y-110552196D01*
X249433906Y-110586097D01*
X249716840Y-110546333D01*
X249804524Y-110485923D01*
X249845052Y-110432140D01*
X248303700Y-110071719D02*
X248396482Y-110731897D01*
X248486460Y-109661337D02*
X248821648Y-110335535D01*
X248208624Y-110421690D01*
%TO.C,SW28*%
X126013292Y-106762677D02*
X126161386Y-106735403D01*
X126397164Y-106768539D01*
X126484848Y-106828950D01*
X126525376Y-106882732D01*
X126559277Y-106983671D01*
X126546023Y-107077982D01*
X126485613Y-107165666D01*
X126431830Y-107206195D01*
X126330891Y-107240096D01*
X126135641Y-107260742D01*
X126034703Y-107294643D01*
X125980920Y-107335171D01*
X125920510Y-107422855D01*
X125907255Y-107517167D01*
X125941156Y-107618105D01*
X125981685Y-107671888D01*
X126069369Y-107732298D01*
X126305147Y-107765435D01*
X126453241Y-107738161D01*
X126776703Y-107831708D02*
X127151654Y-106874576D01*
X127240867Y-107608420D01*
X127528899Y-106927594D01*
X127625504Y-107950999D01*
X127968848Y-107903079D02*
X128009376Y-107956862D01*
X128097060Y-108017272D01*
X128332838Y-108050408D01*
X128433777Y-108016507D01*
X128487560Y-107975979D01*
X128547970Y-107888295D01*
X128561225Y-107793984D01*
X128533951Y-107645889D01*
X128047611Y-107000495D01*
X128660634Y-107086649D01*
X129146974Y-107732044D02*
X129046035Y-107765945D01*
X128992252Y-107806474D01*
X128931842Y-107894158D01*
X128925215Y-107941313D01*
X128959116Y-108042252D01*
X128999644Y-108096035D01*
X129087328Y-108156445D01*
X129275951Y-108182954D01*
X129376889Y-108149053D01*
X129430672Y-108108525D01*
X129491082Y-108020841D01*
X129497710Y-107973685D01*
X129463809Y-107872747D01*
X129423280Y-107818964D01*
X129335596Y-107758553D01*
X129146974Y-107732044D01*
X129059290Y-107671634D01*
X129018762Y-107617851D01*
X128984861Y-107516913D01*
X129011370Y-107328290D01*
X129071780Y-107240606D01*
X129125563Y-107200078D01*
X129226501Y-107166177D01*
X129415124Y-107192686D01*
X129502808Y-107253096D01*
X129543336Y-107306879D01*
X129577237Y-107407818D01*
X129550728Y-107596440D01*
X129490318Y-107684124D01*
X129436535Y-107724652D01*
X129335596Y-107758553D01*
%TO.C,SW15*%
X101739523Y-86839761D02*
X101596666Y-86887380D01*
X101358571Y-86887380D01*
X101263333Y-86839761D01*
X101215714Y-86792142D01*
X101168095Y-86696904D01*
X101168095Y-86601666D01*
X101215714Y-86506428D01*
X101263333Y-86458809D01*
X101358571Y-86411190D01*
X101549047Y-86363571D01*
X101644285Y-86315952D01*
X101691904Y-86268333D01*
X101739523Y-86173095D01*
X101739523Y-86077857D01*
X101691904Y-85982619D01*
X101644285Y-85935000D01*
X101549047Y-85887380D01*
X101310952Y-85887380D01*
X101168095Y-85935000D01*
X100834761Y-85887380D02*
X100596666Y-86887380D01*
X100406190Y-86173095D01*
X100215714Y-86887380D01*
X99977619Y-85887380D01*
X99072857Y-86887380D02*
X99644285Y-86887380D01*
X99358571Y-86887380D02*
X99358571Y-85887380D01*
X99453809Y-86030238D01*
X99549047Y-86125476D01*
X99644285Y-86173095D01*
X98168095Y-85887380D02*
X98644285Y-85887380D01*
X98691904Y-86363571D01*
X98644285Y-86315952D01*
X98549047Y-86268333D01*
X98310952Y-86268333D01*
X98215714Y-86315952D01*
X98168095Y-86363571D01*
X98120476Y-86458809D01*
X98120476Y-86696904D01*
X98168095Y-86792142D01*
X98215714Y-86839761D01*
X98310952Y-86887380D01*
X98549047Y-86887380D01*
X98644285Y-86839761D01*
X98691904Y-86792142D01*
%TO.C,SW29*%
X144883292Y-109412677D02*
X145031386Y-109385403D01*
X145267164Y-109418539D01*
X145354848Y-109478950D01*
X145395376Y-109532732D01*
X145429277Y-109633671D01*
X145416023Y-109727982D01*
X145355613Y-109815666D01*
X145301830Y-109856195D01*
X145200891Y-109890096D01*
X145005641Y-109910742D01*
X144904703Y-109944643D01*
X144850920Y-109985171D01*
X144790510Y-110072855D01*
X144777255Y-110167167D01*
X144811156Y-110268105D01*
X144851685Y-110321888D01*
X144939369Y-110382298D01*
X145175147Y-110415435D01*
X145323241Y-110388161D01*
X145646703Y-110481708D02*
X146021654Y-109524576D01*
X146110867Y-110258420D01*
X146398899Y-109577594D01*
X146495504Y-110600999D01*
X146838848Y-110553079D02*
X146879376Y-110606862D01*
X146967060Y-110667272D01*
X147202838Y-110700408D01*
X147303777Y-110666507D01*
X147357560Y-110625979D01*
X147417970Y-110538295D01*
X147431225Y-110443984D01*
X147403951Y-110295889D01*
X146917611Y-109650495D01*
X147530634Y-109736649D01*
X148002190Y-109802922D02*
X148190813Y-109829431D01*
X148278497Y-109889842D01*
X148319025Y-109943625D01*
X148393454Y-110098346D01*
X148414101Y-110293596D01*
X148361082Y-110670841D01*
X148300672Y-110758525D01*
X148246889Y-110799053D01*
X148145951Y-110832954D01*
X147957328Y-110806445D01*
X147869644Y-110746035D01*
X147829116Y-110692252D01*
X147795215Y-110591313D01*
X147828351Y-110355535D01*
X147888762Y-110267851D01*
X147942545Y-110227323D01*
X148043483Y-110193422D01*
X148232106Y-110219931D01*
X148319790Y-110280341D01*
X148360318Y-110334124D01*
X148394219Y-110435063D01*
%TO.C,SW14*%
X80399523Y-86839761D02*
X80256666Y-86887380D01*
X80018571Y-86887380D01*
X79923333Y-86839761D01*
X79875714Y-86792142D01*
X79828095Y-86696904D01*
X79828095Y-86601666D01*
X79875714Y-86506428D01*
X79923333Y-86458809D01*
X80018571Y-86411190D01*
X80209047Y-86363571D01*
X80304285Y-86315952D01*
X80351904Y-86268333D01*
X80399523Y-86173095D01*
X80399523Y-86077857D01*
X80351904Y-85982619D01*
X80304285Y-85935000D01*
X80209047Y-85887380D01*
X79970952Y-85887380D01*
X79828095Y-85935000D01*
X79494761Y-85887380D02*
X79256666Y-86887380D01*
X79066190Y-86173095D01*
X78875714Y-86887380D01*
X78637619Y-85887380D01*
X77732857Y-86887380D02*
X78304285Y-86887380D01*
X78018571Y-86887380D02*
X78018571Y-85887380D01*
X78113809Y-86030238D01*
X78209047Y-86125476D01*
X78304285Y-86173095D01*
X76875714Y-86220714D02*
X76875714Y-86887380D01*
X77113809Y-85839761D02*
X77351904Y-86554047D01*
X76732857Y-86554047D01*
%TO.C,SW5*%
X155364848Y-72418950D02*
X155512942Y-72391676D01*
X155748720Y-72424812D01*
X155836404Y-72485222D01*
X155876933Y-72539005D01*
X155910834Y-72639944D01*
X155897579Y-72734255D01*
X155837169Y-72821939D01*
X155783386Y-72862467D01*
X155682447Y-72896369D01*
X155487198Y-72917015D01*
X155386259Y-72950916D01*
X155332476Y-72991444D01*
X155272066Y-73079128D01*
X155258811Y-73173440D01*
X155292712Y-73274378D01*
X155333241Y-73328161D01*
X155420925Y-73388571D01*
X155656703Y-73421708D01*
X155804797Y-73394434D01*
X156128259Y-73487981D02*
X156503210Y-72530849D01*
X156592423Y-73264692D01*
X156880455Y-72583867D01*
X156977060Y-73607272D01*
X157825861Y-73726563D02*
X157354305Y-73660290D01*
X157373423Y-73182107D01*
X157413951Y-73235889D01*
X157501635Y-73296300D01*
X157737413Y-73329436D01*
X157838351Y-73295535D01*
X157892134Y-73255007D01*
X157952545Y-73167323D01*
X157985681Y-72931545D01*
X157951780Y-72830606D01*
X157911252Y-72776823D01*
X157823568Y-72716413D01*
X157587790Y-72683277D01*
X157486851Y-72717178D01*
X157433068Y-72757706D01*
%TO.C,SW25*%
X324789523Y-86979761D02*
X324646666Y-87027380D01*
X324408571Y-87027380D01*
X324313333Y-86979761D01*
X324265714Y-86932142D01*
X324218095Y-86836904D01*
X324218095Y-86741666D01*
X324265714Y-86646428D01*
X324313333Y-86598809D01*
X324408571Y-86551190D01*
X324599047Y-86503571D01*
X324694285Y-86455952D01*
X324741904Y-86408333D01*
X324789523Y-86313095D01*
X324789523Y-86217857D01*
X324741904Y-86122619D01*
X324694285Y-86075000D01*
X324599047Y-86027380D01*
X324360952Y-86027380D01*
X324218095Y-86075000D01*
X323884761Y-86027380D02*
X323646666Y-87027380D01*
X323456190Y-86313095D01*
X323265714Y-87027380D01*
X323027619Y-86027380D01*
X322694285Y-86122619D02*
X322646666Y-86075000D01*
X322551428Y-86027380D01*
X322313333Y-86027380D01*
X322218095Y-86075000D01*
X322170476Y-86122619D01*
X322122857Y-86217857D01*
X322122857Y-86313095D01*
X322170476Y-86455952D01*
X322741904Y-87027380D01*
X322122857Y-87027380D01*
X321218095Y-86027380D02*
X321694285Y-86027380D01*
X321741904Y-86503571D01*
X321694285Y-86455952D01*
X321599047Y-86408333D01*
X321360952Y-86408333D01*
X321265714Y-86455952D01*
X321218095Y-86503571D01*
X321170476Y-86598809D01*
X321170476Y-86836904D01*
X321218095Y-86932142D01*
X321265714Y-86979761D01*
X321360952Y-87027380D01*
X321599047Y-87027380D01*
X321694285Y-86979761D01*
X321741904Y-86932142D01*
%TO.C,SW19*%
X175823292Y-94542677D02*
X175971386Y-94515403D01*
X176207164Y-94548539D01*
X176294848Y-94608950D01*
X176335376Y-94662732D01*
X176369277Y-94763671D01*
X176356023Y-94857982D01*
X176295613Y-94945666D01*
X176241830Y-94986195D01*
X176140891Y-95020096D01*
X175945641Y-95040742D01*
X175844703Y-95074643D01*
X175790920Y-95115171D01*
X175730510Y-95202855D01*
X175717255Y-95297167D01*
X175751156Y-95398105D01*
X175791685Y-95451888D01*
X175879369Y-95512298D01*
X176115147Y-95545435D01*
X176263241Y-95518161D01*
X176586703Y-95611708D02*
X176961654Y-94654576D01*
X177050867Y-95388420D01*
X177338899Y-94707594D01*
X177435504Y-95730999D01*
X178470634Y-94866649D02*
X177904766Y-94787122D01*
X178187700Y-94826886D02*
X178048527Y-95817154D01*
X177974098Y-95662432D01*
X177893041Y-95554866D01*
X177805357Y-95494456D01*
X178942190Y-94932922D02*
X179130813Y-94959431D01*
X179218497Y-95019842D01*
X179259025Y-95073625D01*
X179333454Y-95228346D01*
X179354101Y-95423596D01*
X179301082Y-95800841D01*
X179240672Y-95888525D01*
X179186889Y-95929053D01*
X179085951Y-95962954D01*
X178897328Y-95936445D01*
X178809644Y-95876035D01*
X178769116Y-95822252D01*
X178735215Y-95721313D01*
X178768351Y-95485535D01*
X178828762Y-95397851D01*
X178882545Y-95357323D01*
X178983483Y-95323422D01*
X179172106Y-95349931D01*
X179259790Y-95410341D01*
X179300318Y-95464124D01*
X179334219Y-95565063D01*
%TO.C,SW21*%
X239789371Y-92654322D02*
X239654532Y-92721360D01*
X239418753Y-92754496D01*
X239317815Y-92720595D01*
X239264032Y-92680067D01*
X239203622Y-92592383D01*
X239190367Y-92498072D01*
X239224268Y-92397133D01*
X239264797Y-92343350D01*
X239352481Y-92282940D01*
X239534476Y-92209275D01*
X239622160Y-92148865D01*
X239662688Y-92095082D01*
X239696589Y-91994144D01*
X239683334Y-91899832D01*
X239622924Y-91812148D01*
X239569141Y-91771620D01*
X239468203Y-91737719D01*
X239232425Y-91770855D01*
X239097585Y-91837893D01*
X238760868Y-91837128D02*
X238664263Y-92860533D01*
X238376232Y-92179708D01*
X238287018Y-92913551D01*
X237912067Y-91956420D01*
X237595233Y-92097122D02*
X237541450Y-92056593D01*
X237440511Y-92022692D01*
X237204733Y-92055829D01*
X237117049Y-92116239D01*
X237076521Y-92170022D01*
X237042620Y-92270961D01*
X237055874Y-92365272D01*
X237122912Y-92500111D01*
X237768307Y-92986451D01*
X237155284Y-93072606D01*
X236212171Y-93205152D02*
X236778039Y-93125624D01*
X236495105Y-93165388D02*
X236355932Y-92175120D01*
X236470125Y-92303332D01*
X236577691Y-92384389D01*
X236678629Y-92418290D01*
%TO.C,SW10*%
X270149371Y-69134322D02*
X270014532Y-69201360D01*
X269778753Y-69234496D01*
X269677815Y-69200595D01*
X269624032Y-69160067D01*
X269563622Y-69072383D01*
X269550367Y-68978072D01*
X269584268Y-68877133D01*
X269624797Y-68823350D01*
X269712481Y-68762940D01*
X269894476Y-68689275D01*
X269982160Y-68628865D01*
X270022688Y-68575082D01*
X270056589Y-68474144D01*
X270043334Y-68379832D01*
X269982924Y-68292148D01*
X269929141Y-68251620D01*
X269828203Y-68217719D01*
X269592425Y-68250855D01*
X269457585Y-68317893D01*
X269120868Y-68317128D02*
X269024263Y-69340533D01*
X268736232Y-68659708D01*
X268647018Y-69393551D01*
X268272067Y-68436420D01*
X267515284Y-69552606D02*
X268081151Y-69473079D01*
X267798217Y-69512842D02*
X267659044Y-68522574D01*
X267773237Y-68650787D01*
X267880803Y-68731843D01*
X267981742Y-68765744D01*
X266763087Y-68648493D02*
X266668776Y-68661747D01*
X266581092Y-68722158D01*
X266540564Y-68775941D01*
X266506663Y-68876879D01*
X266486016Y-69072129D01*
X266519153Y-69307907D01*
X266592818Y-69489902D01*
X266653228Y-69577586D01*
X266707011Y-69618114D01*
X266807949Y-69652015D01*
X266902260Y-69638761D01*
X266989944Y-69578351D01*
X267030473Y-69524568D01*
X267064374Y-69423629D01*
X267085020Y-69228379D01*
X267051884Y-68992601D01*
X266978219Y-68810606D01*
X266917809Y-68722922D01*
X266864026Y-68682394D01*
X266763087Y-68648493D01*
%TO.C,SW23*%
X277519371Y-87354322D02*
X277384532Y-87421360D01*
X277148753Y-87454496D01*
X277047815Y-87420595D01*
X276994032Y-87380067D01*
X276933622Y-87292383D01*
X276920367Y-87198072D01*
X276954268Y-87097133D01*
X276994797Y-87043350D01*
X277082481Y-86982940D01*
X277264476Y-86909275D01*
X277352160Y-86848865D01*
X277392688Y-86795082D01*
X277426589Y-86694144D01*
X277413334Y-86599832D01*
X277352924Y-86512148D01*
X277299141Y-86471620D01*
X277198203Y-86437719D01*
X276962425Y-86470855D01*
X276827585Y-86537893D01*
X276490868Y-86537128D02*
X276394263Y-87560533D01*
X276106232Y-86879708D01*
X276017018Y-87613551D01*
X275642067Y-86656420D01*
X275325233Y-86797122D02*
X275271450Y-86756593D01*
X275170511Y-86722692D01*
X274934733Y-86755829D01*
X274847049Y-86816239D01*
X274806521Y-86870022D01*
X274772620Y-86970961D01*
X274785874Y-87065272D01*
X274852912Y-87200111D01*
X275498307Y-87686451D01*
X274885284Y-87772606D01*
X274416021Y-86828729D02*
X273802998Y-86914884D01*
X274186106Y-87245738D01*
X274044639Y-87265620D01*
X273956955Y-87326030D01*
X273916427Y-87379813D01*
X273882525Y-87480751D01*
X273915662Y-87716529D01*
X273976072Y-87804213D01*
X274029855Y-87844742D01*
X274130794Y-87878643D01*
X274413727Y-87838879D01*
X274501411Y-87778469D01*
X274541940Y-87724686D01*
%TO.C,SW36*%
X310799523Y-106209761D02*
X310656666Y-106257380D01*
X310418571Y-106257380D01*
X310323333Y-106209761D01*
X310275714Y-106162142D01*
X310228095Y-106066904D01*
X310228095Y-105971666D01*
X310275714Y-105876428D01*
X310323333Y-105828809D01*
X310418571Y-105781190D01*
X310609047Y-105733571D01*
X310704285Y-105685952D01*
X310751904Y-105638333D01*
X310799523Y-105543095D01*
X310799523Y-105447857D01*
X310751904Y-105352619D01*
X310704285Y-105305000D01*
X310609047Y-105257380D01*
X310370952Y-105257380D01*
X310228095Y-105305000D01*
X309894761Y-105257380D02*
X309656666Y-106257380D01*
X309466190Y-105543095D01*
X309275714Y-106257380D01*
X309037619Y-105257380D01*
X308751904Y-105257380D02*
X308132857Y-105257380D01*
X308466190Y-105638333D01*
X308323333Y-105638333D01*
X308228095Y-105685952D01*
X308180476Y-105733571D01*
X308132857Y-105828809D01*
X308132857Y-106066904D01*
X308180476Y-106162142D01*
X308228095Y-106209761D01*
X308323333Y-106257380D01*
X308609047Y-106257380D01*
X308704285Y-106209761D01*
X308751904Y-106162142D01*
X307275714Y-105257380D02*
X307466190Y-105257380D01*
X307561428Y-105305000D01*
X307609047Y-105352619D01*
X307704285Y-105495476D01*
X307751904Y-105685952D01*
X307751904Y-106066904D01*
X307704285Y-106162142D01*
X307656666Y-106209761D01*
X307561428Y-106257380D01*
X307370952Y-106257380D01*
X307275714Y-106209761D01*
X307228095Y-106162142D01*
X307180476Y-106066904D01*
X307180476Y-105828809D01*
X307228095Y-105733571D01*
X307275714Y-105685952D01*
X307370952Y-105638333D01*
X307561428Y-105638333D01*
X307656666Y-105685952D01*
X307704285Y-105733571D01*
X307751904Y-105828809D01*
%TO.C,SW32*%
X214129371Y-115494322D02*
X213994532Y-115561360D01*
X213758753Y-115594496D01*
X213657815Y-115560595D01*
X213604032Y-115520067D01*
X213543622Y-115432383D01*
X213530367Y-115338072D01*
X213564268Y-115237133D01*
X213604797Y-115183350D01*
X213692481Y-115122940D01*
X213874476Y-115049275D01*
X213962160Y-114988865D01*
X214002688Y-114935082D01*
X214036589Y-114834144D01*
X214023334Y-114739832D01*
X213962924Y-114652148D01*
X213909141Y-114611620D01*
X213808203Y-114577719D01*
X213572425Y-114610855D01*
X213437585Y-114677893D01*
X213100868Y-114677128D02*
X213004263Y-115700533D01*
X212716232Y-115019708D01*
X212627018Y-115753551D01*
X212252067Y-114796420D01*
X211969134Y-114836183D02*
X211356110Y-114922338D01*
X211739218Y-115253192D01*
X211597751Y-115273074D01*
X211510067Y-115333484D01*
X211469539Y-115387267D01*
X211435638Y-115488206D01*
X211468774Y-115723984D01*
X211529185Y-115811668D01*
X211582968Y-115852196D01*
X211683906Y-115886097D01*
X211966840Y-115846333D01*
X212054524Y-115785923D01*
X212095052Y-115732140D01*
X210992120Y-115069668D02*
X210938337Y-115029139D01*
X210837399Y-114995238D01*
X210601621Y-115028375D01*
X210513937Y-115088785D01*
X210473408Y-115142568D01*
X210439507Y-115243506D01*
X210452762Y-115337818D01*
X210519799Y-115472657D01*
X211165194Y-115958997D01*
X210552171Y-116045152D01*
%TO.C,SW18*%
X158164418Y-92237340D02*
X158312512Y-92210066D01*
X158548290Y-92243202D01*
X158635974Y-92303613D01*
X158676502Y-92357395D01*
X158710403Y-92458334D01*
X158697149Y-92552645D01*
X158636739Y-92640329D01*
X158582956Y-92680858D01*
X158482017Y-92714759D01*
X158286767Y-92735405D01*
X158185829Y-92769306D01*
X158132046Y-92809834D01*
X158071636Y-92897518D01*
X158058381Y-92991830D01*
X158092282Y-93092768D01*
X158132811Y-93146551D01*
X158220495Y-93206961D01*
X158456273Y-93240098D01*
X158604367Y-93212824D01*
X158927829Y-93306371D02*
X159302780Y-92349239D01*
X159391993Y-93083083D01*
X159680025Y-92402257D01*
X159776630Y-93425662D01*
X160811760Y-92561312D02*
X160245892Y-92481785D01*
X160528826Y-92521549D02*
X160389653Y-93511817D01*
X160315224Y-93357095D01*
X160234167Y-93249529D01*
X160146483Y-93189119D01*
X161298100Y-93206707D02*
X161197161Y-93240608D01*
X161143378Y-93281137D01*
X161082968Y-93368821D01*
X161076341Y-93415976D01*
X161110242Y-93516915D01*
X161150770Y-93570698D01*
X161238454Y-93631108D01*
X161427077Y-93657617D01*
X161528015Y-93623716D01*
X161581798Y-93583188D01*
X161642208Y-93495504D01*
X161648836Y-93448348D01*
X161614935Y-93347410D01*
X161574406Y-93293627D01*
X161486722Y-93233216D01*
X161298100Y-93206707D01*
X161210416Y-93146297D01*
X161169888Y-93092514D01*
X161135987Y-92991576D01*
X161162496Y-92802953D01*
X161222906Y-92715269D01*
X161276689Y-92674741D01*
X161377627Y-92640840D01*
X161566250Y-92667349D01*
X161653934Y-92727759D01*
X161694462Y-92781542D01*
X161728363Y-92882481D01*
X161701854Y-93071103D01*
X161641444Y-93158787D01*
X161587661Y-93199315D01*
X161486722Y-93233216D01*
%TO.C,SW40*%
X103349523Y-125329761D02*
X103206666Y-125377380D01*
X102968571Y-125377380D01*
X102873333Y-125329761D01*
X102825714Y-125282142D01*
X102778095Y-125186904D01*
X102778095Y-125091666D01*
X102825714Y-124996428D01*
X102873333Y-124948809D01*
X102968571Y-124901190D01*
X103159047Y-124853571D01*
X103254285Y-124805952D01*
X103301904Y-124758333D01*
X103349523Y-124663095D01*
X103349523Y-124567857D01*
X103301904Y-124472619D01*
X103254285Y-124425000D01*
X103159047Y-124377380D01*
X102920952Y-124377380D01*
X102778095Y-124425000D01*
X102444761Y-124377380D02*
X102206666Y-125377380D01*
X102016190Y-124663095D01*
X101825714Y-125377380D01*
X101587619Y-124377380D01*
X100778095Y-124710714D02*
X100778095Y-125377380D01*
X101016190Y-124329761D02*
X101254285Y-125044047D01*
X100635238Y-125044047D01*
X100063809Y-124377380D02*
X99968571Y-124377380D01*
X99873333Y-124425000D01*
X99825714Y-124472619D01*
X99778095Y-124567857D01*
X99730476Y-124758333D01*
X99730476Y-124996428D01*
X99778095Y-125186904D01*
X99825714Y-125282142D01*
X99873333Y-125329761D01*
X99968571Y-125377380D01*
X100063809Y-125377380D01*
X100159047Y-125329761D01*
X100206666Y-125282142D01*
X100254285Y-125186904D01*
X100301904Y-124996428D01*
X100301904Y-124758333D01*
X100254285Y-124567857D01*
X100206666Y-124472619D01*
X100159047Y-124425000D01*
X100063809Y-124377380D01*
%TO.C,SW9*%
X250807815Y-71860595D02*
X250672975Y-71927633D01*
X250437197Y-71960769D01*
X250336259Y-71926868D01*
X250282476Y-71886340D01*
X250222066Y-71798656D01*
X250208811Y-71704345D01*
X250242712Y-71603406D01*
X250283240Y-71549623D01*
X250370924Y-71489213D01*
X250552919Y-71415548D01*
X250640603Y-71355138D01*
X250681132Y-71301355D01*
X250715033Y-71200416D01*
X250701778Y-71106105D01*
X250641368Y-71018421D01*
X250587585Y-70977893D01*
X250486647Y-70943992D01*
X250250868Y-70977128D01*
X250116029Y-71044166D01*
X249779312Y-71043401D02*
X249682707Y-72066806D01*
X249394675Y-71385981D01*
X249305462Y-72119824D01*
X248930511Y-71162692D01*
X248645284Y-72212606D02*
X248456661Y-72239115D01*
X248355723Y-72205214D01*
X248301940Y-72164686D01*
X248187747Y-72036474D01*
X248114082Y-71854478D01*
X248061063Y-71477233D01*
X248094964Y-71376295D01*
X248135493Y-71322512D01*
X248223177Y-71262102D01*
X248411799Y-71235593D01*
X248512738Y-71269494D01*
X248566521Y-71310022D01*
X248626931Y-71397706D01*
X248660067Y-71633484D01*
X248626166Y-71734423D01*
X248585638Y-71788206D01*
X248497954Y-71848616D01*
X248309332Y-71875125D01*
X248208393Y-71841224D01*
X248154610Y-71800696D01*
X248094200Y-71713012D01*
%TO.C,SW45*%
X306309523Y-125439761D02*
X306166666Y-125487380D01*
X305928571Y-125487380D01*
X305833333Y-125439761D01*
X305785714Y-125392142D01*
X305738095Y-125296904D01*
X305738095Y-125201666D01*
X305785714Y-125106428D01*
X305833333Y-125058809D01*
X305928571Y-125011190D01*
X306119047Y-124963571D01*
X306214285Y-124915952D01*
X306261904Y-124868333D01*
X306309523Y-124773095D01*
X306309523Y-124677857D01*
X306261904Y-124582619D01*
X306214285Y-124535000D01*
X306119047Y-124487380D01*
X305880952Y-124487380D01*
X305738095Y-124535000D01*
X305404761Y-124487380D02*
X305166666Y-125487380D01*
X304976190Y-124773095D01*
X304785714Y-125487380D01*
X304547619Y-124487380D01*
X303738095Y-124820714D02*
X303738095Y-125487380D01*
X303976190Y-124439761D02*
X304214285Y-125154047D01*
X303595238Y-125154047D01*
X302738095Y-124487380D02*
X303214285Y-124487380D01*
X303261904Y-124963571D01*
X303214285Y-124915952D01*
X303119047Y-124868333D01*
X302880952Y-124868333D01*
X302785714Y-124915952D01*
X302738095Y-124963571D01*
X302690476Y-125058809D01*
X302690476Y-125296904D01*
X302738095Y-125392142D01*
X302785714Y-125439761D01*
X302880952Y-125487380D01*
X303119047Y-125487380D01*
X303214285Y-125439761D01*
X303261904Y-125392142D01*
%TO.C,D2*%
X92617380Y-78518904D02*
X91617380Y-78518904D01*
X91617380Y-78757000D01*
X91665000Y-78899857D01*
X91760238Y-78995095D01*
X91855476Y-79042714D01*
X92045952Y-79090333D01*
X92188809Y-79090333D01*
X92379285Y-79042714D01*
X92474523Y-78995095D01*
X92569761Y-78899857D01*
X92617380Y-78757000D01*
X92617380Y-78518904D01*
X91712619Y-79471285D02*
X91665000Y-79518904D01*
X91617380Y-79614142D01*
X91617380Y-79852238D01*
X91665000Y-79947476D01*
X91712619Y-79995095D01*
X91807857Y-80042714D01*
X91903095Y-80042714D01*
X92045952Y-79995095D01*
X92617380Y-79423666D01*
X92617380Y-80042714D01*
%TO.C,D37*%
X325227380Y-116642714D02*
X324227380Y-116642714D01*
X324227380Y-116880809D01*
X324275000Y-117023666D01*
X324370238Y-117118904D01*
X324465476Y-117166523D01*
X324655952Y-117214142D01*
X324798809Y-117214142D01*
X324989285Y-117166523D01*
X325084523Y-117118904D01*
X325179761Y-117023666D01*
X325227380Y-116880809D01*
X325227380Y-116642714D01*
X324227380Y-117547476D02*
X324227380Y-118166523D01*
X324608333Y-117833190D01*
X324608333Y-117976047D01*
X324655952Y-118071285D01*
X324703571Y-118118904D01*
X324798809Y-118166523D01*
X325036904Y-118166523D01*
X325132142Y-118118904D01*
X325179761Y-118071285D01*
X325227380Y-117976047D01*
X325227380Y-117690333D01*
X325179761Y-117595095D01*
X325132142Y-117547476D01*
X324227380Y-118499857D02*
X324227380Y-119166523D01*
X325227380Y-118737952D01*
%TO.C,D44*%
X256113118Y-139475211D02*
X255122850Y-139614384D01*
X255155986Y-139850162D01*
X255223024Y-139985002D01*
X255330590Y-140066058D01*
X255431528Y-140099959D01*
X255626778Y-140120606D01*
X255768245Y-140100724D01*
X255950240Y-140027059D01*
X256037924Y-139966649D01*
X256118981Y-139859083D01*
X256146254Y-139710989D01*
X256113118Y-139475211D01*
X255651758Y-140982662D02*
X256311937Y-140889880D01*
X255241377Y-140799902D02*
X255915574Y-140464714D01*
X256001729Y-141077737D01*
X255784304Y-141925774D02*
X256444483Y-141832992D01*
X255373922Y-141743014D02*
X256048120Y-141407827D01*
X256134275Y-142020850D01*
%TO.C,L1*%
X232525109Y-94580720D02*
X232996666Y-94514447D01*
X232857493Y-93524179D01*
X231676308Y-94700012D02*
X232242176Y-94620484D01*
X231959242Y-94660248D02*
X231820069Y-93669980D01*
X231934262Y-93798192D01*
X232041828Y-93879249D01*
X232142766Y-93913150D01*
X227703089Y-93339739D02*
X228268956Y-93260211D01*
X227986023Y-93299975D02*
X227846850Y-92309707D01*
X227961043Y-92437919D01*
X228068609Y-92518976D01*
X228169547Y-92552877D01*
%TO.C,D1*%
X73537380Y-78318904D02*
X72537380Y-78318904D01*
X72537380Y-78557000D01*
X72585000Y-78699857D01*
X72680238Y-78795095D01*
X72775476Y-78842714D01*
X72965952Y-78890333D01*
X73108809Y-78890333D01*
X73299285Y-78842714D01*
X73394523Y-78795095D01*
X73489761Y-78699857D01*
X73537380Y-78557000D01*
X73537380Y-78318904D01*
X73537380Y-79842714D02*
X73537380Y-79271285D01*
X73537380Y-79557000D02*
X72537380Y-79557000D01*
X72680238Y-79461761D01*
X72775476Y-79366523D01*
X72823095Y-79271285D01*
%TO.C,L7*%
X110506666Y-85242380D02*
X110982857Y-85242380D01*
X110982857Y-84242380D01*
X110268571Y-84242380D02*
X109601904Y-84242380D01*
X110030476Y-85242380D01*
X114204285Y-83622380D02*
X114775714Y-83622380D01*
X114490000Y-83622380D02*
X114490000Y-82622380D01*
X114585238Y-82765238D01*
X114680476Y-82860476D01*
X114775714Y-82908095D01*
%TO.C,D25*%
X317827380Y-97422714D02*
X316827380Y-97422714D01*
X316827380Y-97660809D01*
X316875000Y-97803666D01*
X316970238Y-97898904D01*
X317065476Y-97946523D01*
X317255952Y-97994142D01*
X317398809Y-97994142D01*
X317589285Y-97946523D01*
X317684523Y-97898904D01*
X317779761Y-97803666D01*
X317827380Y-97660809D01*
X317827380Y-97422714D01*
X316922619Y-98375095D02*
X316875000Y-98422714D01*
X316827380Y-98517952D01*
X316827380Y-98756047D01*
X316875000Y-98851285D01*
X316922619Y-98898904D01*
X317017857Y-98946523D01*
X317113095Y-98946523D01*
X317255952Y-98898904D01*
X317827380Y-98327476D01*
X317827380Y-98946523D01*
X316827380Y-99851285D02*
X316827380Y-99375095D01*
X317303571Y-99327476D01*
X317255952Y-99375095D01*
X317208333Y-99470333D01*
X317208333Y-99708428D01*
X317255952Y-99803666D01*
X317303571Y-99851285D01*
X317398809Y-99898904D01*
X317636904Y-99898904D01*
X317732142Y-99851285D01*
X317779761Y-99803666D01*
X317827380Y-99708428D01*
X317827380Y-99470333D01*
X317779761Y-99375095D01*
X317732142Y-99327476D01*
%TO.C,D24*%
X291607380Y-97442714D02*
X290607380Y-97442714D01*
X290607380Y-97680809D01*
X290655000Y-97823666D01*
X290750238Y-97918904D01*
X290845476Y-97966523D01*
X291035952Y-98014142D01*
X291178809Y-98014142D01*
X291369285Y-97966523D01*
X291464523Y-97918904D01*
X291559761Y-97823666D01*
X291607380Y-97680809D01*
X291607380Y-97442714D01*
X290702619Y-98395095D02*
X290655000Y-98442714D01*
X290607380Y-98537952D01*
X290607380Y-98776047D01*
X290655000Y-98871285D01*
X290702619Y-98918904D01*
X290797857Y-98966523D01*
X290893095Y-98966523D01*
X291035952Y-98918904D01*
X291607380Y-98347476D01*
X291607380Y-98966523D01*
X290940714Y-99823666D02*
X291607380Y-99823666D01*
X290559761Y-99585571D02*
X291274047Y-99347476D01*
X291274047Y-99966523D01*
%TO.C,D3*%
X112189487Y-78322936D02*
X111199219Y-78183763D01*
X111166082Y-78419541D01*
X111193356Y-78567635D01*
X111274413Y-78675201D01*
X111362097Y-78735611D01*
X111544092Y-78809276D01*
X111685559Y-78829157D01*
X111880809Y-78808511D01*
X111981747Y-78774610D01*
X112089313Y-78693553D01*
X112156350Y-78558714D01*
X112189487Y-78322936D01*
X111073300Y-79079719D02*
X110987146Y-79692742D01*
X111410782Y-79415671D01*
X111390900Y-79557138D01*
X111424801Y-79658077D01*
X111465329Y-79711860D01*
X111553013Y-79772270D01*
X111788791Y-79805406D01*
X111889730Y-79771505D01*
X111943513Y-79730977D01*
X112003923Y-79643293D01*
X112043687Y-79360359D01*
X112009785Y-79259421D01*
X111969257Y-79205638D01*
%TO.C,D30*%
X158795760Y-122811379D02*
X157805492Y-122672206D01*
X157772355Y-122907984D01*
X157799629Y-123056079D01*
X157880686Y-123163644D01*
X157968370Y-123224055D01*
X158150365Y-123297719D01*
X158291832Y-123317601D01*
X158487082Y-123296955D01*
X158588020Y-123263054D01*
X158695586Y-123181997D01*
X158762623Y-123047158D01*
X158795760Y-122811379D01*
X157679573Y-123568163D02*
X157593418Y-124181186D01*
X158017054Y-123904115D01*
X157997173Y-124045582D01*
X158031074Y-124146521D01*
X158071602Y-124200303D01*
X158159286Y-124260714D01*
X158395064Y-124293850D01*
X158496003Y-124259949D01*
X158549785Y-124219421D01*
X158610196Y-124131737D01*
X158649959Y-123848803D01*
X158616058Y-123747865D01*
X158575530Y-123694082D01*
X157507264Y-124794209D02*
X157494009Y-124888521D01*
X157527910Y-124989459D01*
X157568438Y-125043242D01*
X157656122Y-125103652D01*
X157838118Y-125177317D01*
X158073896Y-125210453D01*
X158269146Y-125189807D01*
X158370084Y-125155906D01*
X158423867Y-125115378D01*
X158484277Y-125027694D01*
X158497532Y-124933382D01*
X158463631Y-124832444D01*
X158423102Y-124778661D01*
X158335418Y-124718251D01*
X158153423Y-124644586D01*
X157917645Y-124611450D01*
X157722395Y-124632096D01*
X157621457Y-124665997D01*
X157567674Y-124706525D01*
X157507264Y-124794209D01*
%TO.C,D15*%
X94757380Y-96982714D02*
X93757380Y-96982714D01*
X93757380Y-97220809D01*
X93805000Y-97363666D01*
X93900238Y-97458904D01*
X93995476Y-97506523D01*
X94185952Y-97554142D01*
X94328809Y-97554142D01*
X94519285Y-97506523D01*
X94614523Y-97458904D01*
X94709761Y-97363666D01*
X94757380Y-97220809D01*
X94757380Y-96982714D01*
X94757380Y-98506523D02*
X94757380Y-97935095D01*
X94757380Y-98220809D02*
X93757380Y-98220809D01*
X93900238Y-98125571D01*
X93995476Y-98030333D01*
X94043095Y-97935095D01*
X93757380Y-99411285D02*
X93757380Y-98935095D01*
X94233571Y-98887476D01*
X94185952Y-98935095D01*
X94138333Y-99030333D01*
X94138333Y-99268428D01*
X94185952Y-99363666D01*
X94233571Y-99411285D01*
X94328809Y-99458904D01*
X94566904Y-99458904D01*
X94662142Y-99411285D01*
X94709761Y-99363666D01*
X94757380Y-99268428D01*
X94757380Y-99030333D01*
X94709761Y-98935095D01*
X94662142Y-98887476D01*
%TO.C,L2*%
X315036666Y-88012380D02*
X315512857Y-88012380D01*
X315512857Y-87012380D01*
X314750952Y-87107619D02*
X314703333Y-87060000D01*
X314608095Y-87012380D01*
X314370000Y-87012380D01*
X314274761Y-87060000D01*
X314227142Y-87107619D01*
X314179523Y-87202857D01*
X314179523Y-87298095D01*
X314227142Y-87440952D01*
X314798571Y-88012380D01*
X314179523Y-88012380D01*
X310434285Y-86112380D02*
X311005714Y-86112380D01*
X310720000Y-86112380D02*
X310720000Y-85112380D01*
X310815238Y-85255238D01*
X310910476Y-85350476D01*
X311005714Y-85398095D01*
%TO.C,D38*%
X284787380Y-116792714D02*
X283787380Y-116792714D01*
X283787380Y-117030809D01*
X283835000Y-117173666D01*
X283930238Y-117268904D01*
X284025476Y-117316523D01*
X284215952Y-117364142D01*
X284358809Y-117364142D01*
X284549285Y-117316523D01*
X284644523Y-117268904D01*
X284739761Y-117173666D01*
X284787380Y-117030809D01*
X284787380Y-116792714D01*
X283787380Y-117697476D02*
X283787380Y-118316523D01*
X284168333Y-117983190D01*
X284168333Y-118126047D01*
X284215952Y-118221285D01*
X284263571Y-118268904D01*
X284358809Y-118316523D01*
X284596904Y-118316523D01*
X284692142Y-118268904D01*
X284739761Y-118221285D01*
X284787380Y-118126047D01*
X284787380Y-117840333D01*
X284739761Y-117745095D01*
X284692142Y-117697476D01*
X284215952Y-118887952D02*
X284168333Y-118792714D01*
X284120714Y-118745095D01*
X284025476Y-118697476D01*
X283977857Y-118697476D01*
X283882619Y-118745095D01*
X283835000Y-118792714D01*
X283787380Y-118887952D01*
X283787380Y-119078428D01*
X283835000Y-119173666D01*
X283882619Y-119221285D01*
X283977857Y-119268904D01*
X284025476Y-119268904D01*
X284120714Y-119221285D01*
X284168333Y-119173666D01*
X284215952Y-119078428D01*
X284215952Y-118887952D01*
X284263571Y-118792714D01*
X284311190Y-118745095D01*
X284406428Y-118697476D01*
X284596904Y-118697476D01*
X284692142Y-118745095D01*
X284739761Y-118792714D01*
X284787380Y-118887952D01*
X284787380Y-119078428D01*
X284739761Y-119173666D01*
X284692142Y-119221285D01*
X284596904Y-119268904D01*
X284406428Y-119268904D01*
X284311190Y-119221285D01*
X284263571Y-119173666D01*
X284215952Y-119078428D01*
%TO.C,D39*%
X72537380Y-135762714D02*
X71537380Y-135762714D01*
X71537380Y-136000809D01*
X71585000Y-136143666D01*
X71680238Y-136238904D01*
X71775476Y-136286523D01*
X71965952Y-136334142D01*
X72108809Y-136334142D01*
X72299285Y-136286523D01*
X72394523Y-136238904D01*
X72489761Y-136143666D01*
X72537380Y-136000809D01*
X72537380Y-135762714D01*
X71537380Y-136667476D02*
X71537380Y-137286523D01*
X71918333Y-136953190D01*
X71918333Y-137096047D01*
X71965952Y-137191285D01*
X72013571Y-137238904D01*
X72108809Y-137286523D01*
X72346904Y-137286523D01*
X72442142Y-137238904D01*
X72489761Y-137191285D01*
X72537380Y-137096047D01*
X72537380Y-136810333D01*
X72489761Y-136715095D01*
X72442142Y-136667476D01*
X72537380Y-137762714D02*
X72537380Y-137953190D01*
X72489761Y-138048428D01*
X72442142Y-138096047D01*
X72299285Y-138191285D01*
X72108809Y-138238904D01*
X71727857Y-138238904D01*
X71632619Y-138191285D01*
X71585000Y-138143666D01*
X71537380Y-138048428D01*
X71537380Y-137857952D01*
X71585000Y-137762714D01*
X71632619Y-137715095D01*
X71727857Y-137667476D01*
X71965952Y-137667476D01*
X72061190Y-137715095D01*
X72108809Y-137762714D01*
X72156428Y-137857952D01*
X72156428Y-138048428D01*
X72108809Y-138143666D01*
X72061190Y-138191285D01*
X71965952Y-138238904D01*
%TO.C,D14*%
X73417380Y-97042714D02*
X72417380Y-97042714D01*
X72417380Y-97280809D01*
X72465000Y-97423666D01*
X72560238Y-97518904D01*
X72655476Y-97566523D01*
X72845952Y-97614142D01*
X72988809Y-97614142D01*
X73179285Y-97566523D01*
X73274523Y-97518904D01*
X73369761Y-97423666D01*
X73417380Y-97280809D01*
X73417380Y-97042714D01*
X73417380Y-98566523D02*
X73417380Y-97995095D01*
X73417380Y-98280809D02*
X72417380Y-98280809D01*
X72560238Y-98185571D01*
X72655476Y-98090333D01*
X72703095Y-97995095D01*
X72750714Y-99423666D02*
X73417380Y-99423666D01*
X72369761Y-99185571D02*
X73084047Y-98947476D01*
X73084047Y-99566523D01*
%TO.C,L8*%
X152345020Y-85312888D02*
X151873464Y-85246615D01*
X151734291Y-86236883D01*
X152737049Y-85945028D02*
X152636110Y-85978929D01*
X152582327Y-86019457D01*
X152521917Y-86107141D01*
X152515290Y-86154297D01*
X152549191Y-86255235D01*
X152589719Y-86309018D01*
X152677403Y-86369429D01*
X152866026Y-86395938D01*
X152966964Y-86362037D01*
X153020747Y-86321508D01*
X153081157Y-86233824D01*
X153087785Y-86186669D01*
X153053884Y-86085730D01*
X153013355Y-86031947D01*
X152925671Y-85971537D01*
X152737049Y-85945028D01*
X152649365Y-85884618D01*
X152608837Y-85830835D01*
X152574935Y-85729896D01*
X152601445Y-85541274D01*
X152661855Y-85453590D01*
X152715638Y-85413062D01*
X152816576Y-85379160D01*
X153005199Y-85405670D01*
X153092883Y-85466080D01*
X153133411Y-85519863D01*
X153167312Y-85620801D01*
X153140803Y-85809424D01*
X153080393Y-85897108D01*
X153026610Y-85937636D01*
X152925671Y-85971537D01*
X156638181Y-87834924D02*
X156072314Y-87755396D01*
X156355248Y-87795160D02*
X156216075Y-88785428D01*
X156141645Y-88630707D01*
X156060589Y-88523141D01*
X155972905Y-88462731D01*
%TO.C,D13*%
X322257380Y-78175214D02*
X321257380Y-78175214D01*
X321257380Y-78413309D01*
X321305000Y-78556166D01*
X321400238Y-78651404D01*
X321495476Y-78699023D01*
X321685952Y-78746642D01*
X321828809Y-78746642D01*
X322019285Y-78699023D01*
X322114523Y-78651404D01*
X322209761Y-78556166D01*
X322257380Y-78413309D01*
X322257380Y-78175214D01*
X322257380Y-79699023D02*
X322257380Y-79127595D01*
X322257380Y-79413309D02*
X321257380Y-79413309D01*
X321400238Y-79318071D01*
X321495476Y-79222833D01*
X321543095Y-79127595D01*
X321257380Y-80032357D02*
X321257380Y-80651404D01*
X321638333Y-80318071D01*
X321638333Y-80460928D01*
X321685952Y-80556166D01*
X321733571Y-80603785D01*
X321828809Y-80651404D01*
X322066904Y-80651404D01*
X322162142Y-80603785D01*
X322209761Y-80556166D01*
X322257380Y-80460928D01*
X322257380Y-80175214D01*
X322209761Y-80079976D01*
X322162142Y-80032357D01*
%TO.C,L5*%
X152310808Y-140474764D02*
X151839252Y-140408491D01*
X151700079Y-141398759D01*
X152973281Y-141577696D02*
X152501724Y-141511423D01*
X152520842Y-141033239D01*
X152561370Y-141087022D01*
X152649054Y-141147432D01*
X152884832Y-141180569D01*
X152985771Y-141146668D01*
X153039553Y-141106139D01*
X153099964Y-141018455D01*
X153133100Y-140782677D01*
X153099199Y-140681739D01*
X153058671Y-140627956D01*
X152970987Y-140567546D01*
X152735209Y-140534409D01*
X152634270Y-140568310D01*
X152580487Y-140608839D01*
X148913603Y-138078646D02*
X148347736Y-137999118D01*
X148630670Y-138038882D02*
X148491497Y-139029150D01*
X148417067Y-138874429D01*
X148336011Y-138766863D01*
X148248327Y-138706453D01*
%TO.C,D26*%
X75237380Y-116255214D02*
X74237380Y-116255214D01*
X74237380Y-116493309D01*
X74285000Y-116636166D01*
X74380238Y-116731404D01*
X74475476Y-116779023D01*
X74665952Y-116826642D01*
X74808809Y-116826642D01*
X74999285Y-116779023D01*
X75094523Y-116731404D01*
X75189761Y-116636166D01*
X75237380Y-116493309D01*
X75237380Y-116255214D01*
X74332619Y-117207595D02*
X74285000Y-117255214D01*
X74237380Y-117350452D01*
X74237380Y-117588547D01*
X74285000Y-117683785D01*
X74332619Y-117731404D01*
X74427857Y-117779023D01*
X74523095Y-117779023D01*
X74665952Y-117731404D01*
X75237380Y-117159976D01*
X75237380Y-117779023D01*
X74237380Y-118636166D02*
X74237380Y-118445690D01*
X74285000Y-118350452D01*
X74332619Y-118302833D01*
X74475476Y-118207595D01*
X74665952Y-118159976D01*
X75046904Y-118159976D01*
X75142142Y-118207595D01*
X75189761Y-118255214D01*
X75237380Y-118350452D01*
X75237380Y-118540928D01*
X75189761Y-118636166D01*
X75142142Y-118683785D01*
X75046904Y-118731404D01*
X74808809Y-118731404D01*
X74713571Y-118683785D01*
X74665952Y-118636166D01*
X74618333Y-118540928D01*
X74618333Y-118350452D01*
X74665952Y-118255214D01*
X74713571Y-118207595D01*
X74808809Y-118159976D01*
%TO.C,D6*%
X168819487Y-86102936D02*
X167829219Y-85963763D01*
X167796082Y-86199541D01*
X167823356Y-86347635D01*
X167904413Y-86455201D01*
X167992097Y-86515611D01*
X168174092Y-86589276D01*
X168315559Y-86609157D01*
X168510809Y-86588511D01*
X168611747Y-86554610D01*
X168719313Y-86473553D01*
X168786350Y-86338714D01*
X168819487Y-86102936D01*
X167630400Y-87378431D02*
X167656909Y-87189809D01*
X167717319Y-87102125D01*
X167771102Y-87061596D01*
X167925824Y-86987167D01*
X168121074Y-86966521D01*
X168498319Y-87019539D01*
X168586003Y-87079949D01*
X168626531Y-87133732D01*
X168660432Y-87234671D01*
X168633923Y-87423293D01*
X168573513Y-87510977D01*
X168519730Y-87551505D01*
X168418791Y-87585406D01*
X168183013Y-87552270D01*
X168095329Y-87491860D01*
X168054801Y-87438077D01*
X168020900Y-87337138D01*
X168047409Y-87148516D01*
X168107819Y-87060832D01*
X168161602Y-87020303D01*
X168262541Y-86986402D01*
%TO.C,RESET1*%
X178428571Y-72422380D02*
X178761904Y-71946190D01*
X179000000Y-72422380D02*
X179000000Y-71422380D01*
X178619047Y-71422380D01*
X178523809Y-71470000D01*
X178476190Y-71517619D01*
X178428571Y-71612857D01*
X178428571Y-71755714D01*
X178476190Y-71850952D01*
X178523809Y-71898571D01*
X178619047Y-71946190D01*
X179000000Y-71946190D01*
X178000000Y-71898571D02*
X177666666Y-71898571D01*
X177523809Y-72422380D02*
X178000000Y-72422380D01*
X178000000Y-71422380D01*
X177523809Y-71422380D01*
X177142857Y-72374761D02*
X177000000Y-72422380D01*
X176761904Y-72422380D01*
X176666666Y-72374761D01*
X176619047Y-72327142D01*
X176571428Y-72231904D01*
X176571428Y-72136666D01*
X176619047Y-72041428D01*
X176666666Y-71993809D01*
X176761904Y-71946190D01*
X176952380Y-71898571D01*
X177047619Y-71850952D01*
X177095238Y-71803333D01*
X177142857Y-71708095D01*
X177142857Y-71612857D01*
X177095238Y-71517619D01*
X177047619Y-71470000D01*
X176952380Y-71422380D01*
X176714285Y-71422380D01*
X176571428Y-71470000D01*
X176142857Y-71898571D02*
X175809523Y-71898571D01*
X175666666Y-72422380D02*
X176142857Y-72422380D01*
X176142857Y-71422380D01*
X175666666Y-71422380D01*
X175380952Y-71422380D02*
X174809523Y-71422380D01*
X175095238Y-72422380D02*
X175095238Y-71422380D01*
X173952380Y-72422380D02*
X174523809Y-72422380D01*
X174238095Y-72422380D02*
X174238095Y-71422380D01*
X174333333Y-71565238D01*
X174428571Y-71660476D01*
X174523809Y-71708095D01*
%TO.C,D5*%
X149919487Y-83592936D02*
X148929219Y-83453763D01*
X148896082Y-83689541D01*
X148923356Y-83837635D01*
X149004413Y-83945201D01*
X149092097Y-84005611D01*
X149274092Y-84079276D01*
X149415559Y-84099157D01*
X149610809Y-84078511D01*
X149711747Y-84044610D01*
X149819313Y-83963553D01*
X149886350Y-83828714D01*
X149919487Y-83592936D01*
X148723773Y-84915587D02*
X148790046Y-84444031D01*
X149268229Y-84463148D01*
X149214446Y-84503676D01*
X149154036Y-84591360D01*
X149120900Y-84827138D01*
X149154801Y-84928077D01*
X149195329Y-84981860D01*
X149283013Y-85042270D01*
X149518791Y-85075406D01*
X149619730Y-85041505D01*
X149673513Y-85000977D01*
X149733923Y-84913293D01*
X149767059Y-84677515D01*
X149733158Y-84576576D01*
X149692630Y-84522793D01*
%TO.C,D17*%
X133185760Y-99941379D02*
X132195492Y-99802206D01*
X132162355Y-100037984D01*
X132189629Y-100186079D01*
X132270686Y-100293644D01*
X132358370Y-100354055D01*
X132540365Y-100427719D01*
X132681832Y-100447601D01*
X132877082Y-100426955D01*
X132978020Y-100393054D01*
X133085586Y-100311997D01*
X133152623Y-100177158D01*
X133185760Y-99941379D01*
X132973687Y-101450359D02*
X133053214Y-100884492D01*
X133013450Y-101167426D02*
X132023182Y-101028252D01*
X132177904Y-100953823D01*
X132285469Y-100872766D01*
X132345880Y-100785082D01*
X131937027Y-101641276D02*
X131844245Y-102301454D01*
X132894159Y-102016227D01*
%TO.C,L3*%
X294346666Y-127532380D02*
X294822857Y-127532380D01*
X294822857Y-126532380D01*
X294108571Y-126532380D02*
X293489523Y-126532380D01*
X293822857Y-126913333D01*
X293680000Y-126913333D01*
X293584761Y-126960952D01*
X293537142Y-127008571D01*
X293489523Y-127103809D01*
X293489523Y-127341904D01*
X293537142Y-127437142D01*
X293584761Y-127484761D01*
X293680000Y-127532380D01*
X293965714Y-127532380D01*
X294060952Y-127484761D01*
X294108571Y-127437142D01*
X289744285Y-125632380D02*
X290315714Y-125632380D01*
X290030000Y-125632380D02*
X290030000Y-124632380D01*
X290125238Y-124775238D01*
X290220476Y-124870476D01*
X290315714Y-124918095D01*
%TO.C,L4*%
X246190897Y-133428844D02*
X246662454Y-133362571D01*
X246523281Y-132372303D01*
X245343625Y-132874702D02*
X245436407Y-133534881D01*
X245526385Y-132464321D02*
X245861573Y-133138519D01*
X245248550Y-133224674D01*
X250116961Y-134795745D02*
X250682828Y-134716217D01*
X250399895Y-134755981D02*
X250260722Y-133765713D01*
X250374915Y-133893925D01*
X250482481Y-133974982D01*
X250583419Y-134008883D01*
%TO.C,D35*%
X265283118Y-118945211D02*
X264292850Y-119084384D01*
X264325986Y-119320162D01*
X264393024Y-119455002D01*
X264500590Y-119536058D01*
X264601528Y-119569959D01*
X264796778Y-119590606D01*
X264938245Y-119570724D01*
X265120240Y-119497059D01*
X265207924Y-119436649D01*
X265288981Y-119329083D01*
X265316254Y-119180989D01*
X265283118Y-118945211D01*
X264418768Y-119980341D02*
X264504923Y-120593364D01*
X264835777Y-120210256D01*
X264855659Y-120351723D01*
X264916069Y-120439407D01*
X264969852Y-120479935D01*
X265070791Y-120513836D01*
X265306569Y-120480700D01*
X265394253Y-120420290D01*
X265434781Y-120366507D01*
X265468682Y-120265568D01*
X265428918Y-119982635D01*
X265368508Y-119894951D01*
X265314725Y-119854422D01*
X264630842Y-121489321D02*
X264564569Y-121017764D01*
X265029498Y-120904336D01*
X264988969Y-120958119D01*
X264955068Y-121059057D01*
X264988205Y-121294836D01*
X265048615Y-121382519D01*
X265102398Y-121423048D01*
X265203337Y-121456949D01*
X265439115Y-121423812D01*
X265526799Y-121363402D01*
X265567327Y-121309619D01*
X265601228Y-121208681D01*
X265568091Y-120972903D01*
X265507681Y-120885219D01*
X265453898Y-120844690D01*
%TO.C,D21*%
X234323118Y-104105211D02*
X233332850Y-104244384D01*
X233365986Y-104480162D01*
X233433024Y-104615002D01*
X233540590Y-104696058D01*
X233641528Y-104729959D01*
X233836778Y-104750606D01*
X233978245Y-104730724D01*
X234160240Y-104657059D01*
X234247924Y-104596649D01*
X234328981Y-104489083D01*
X234356254Y-104340989D01*
X234323118Y-104105211D01*
X233559707Y-105174242D02*
X233519179Y-105228025D01*
X233485278Y-105328963D01*
X233518414Y-105564741D01*
X233578824Y-105652425D01*
X233632607Y-105692954D01*
X233733546Y-105726855D01*
X233827857Y-105713600D01*
X233962697Y-105646563D01*
X234449037Y-105001168D01*
X234535191Y-105614191D01*
X234667737Y-106557303D02*
X234588210Y-105991436D01*
X234627973Y-106274369D02*
X233637705Y-106413543D01*
X233765918Y-106299349D01*
X233846974Y-106191784D01*
X233880875Y-106090845D01*
%TO.C,D32*%
X208643118Y-126875211D02*
X207652850Y-127014384D01*
X207685986Y-127250162D01*
X207753024Y-127385002D01*
X207860590Y-127466058D01*
X207961528Y-127499959D01*
X208156778Y-127520606D01*
X208298245Y-127500724D01*
X208480240Y-127427059D01*
X208567924Y-127366649D01*
X208648981Y-127259083D01*
X208676254Y-127110989D01*
X208643118Y-126875211D01*
X207778768Y-127910341D02*
X207864923Y-128523364D01*
X208195777Y-128140256D01*
X208215659Y-128281723D01*
X208276069Y-128369407D01*
X208329852Y-128409935D01*
X208430791Y-128443836D01*
X208666569Y-128410700D01*
X208754253Y-128350290D01*
X208794781Y-128296507D01*
X208828682Y-128195568D01*
X208788918Y-127912635D01*
X208728508Y-127824951D01*
X208674725Y-127784422D01*
X208012253Y-128887354D02*
X207971724Y-128941137D01*
X207937823Y-129042076D01*
X207970960Y-129277854D01*
X208031370Y-129365538D01*
X208085153Y-129406066D01*
X208186092Y-129439967D01*
X208280403Y-129426713D01*
X208415242Y-129359675D01*
X208901582Y-128714280D01*
X208987737Y-129327303D01*
%TO.C,D36*%
X303757380Y-116665214D02*
X302757380Y-116665214D01*
X302757380Y-116903309D01*
X302805000Y-117046166D01*
X302900238Y-117141404D01*
X302995476Y-117189023D01*
X303185952Y-117236642D01*
X303328809Y-117236642D01*
X303519285Y-117189023D01*
X303614523Y-117141404D01*
X303709761Y-117046166D01*
X303757380Y-116903309D01*
X303757380Y-116665214D01*
X302757380Y-117569976D02*
X302757380Y-118189023D01*
X303138333Y-117855690D01*
X303138333Y-117998547D01*
X303185952Y-118093785D01*
X303233571Y-118141404D01*
X303328809Y-118189023D01*
X303566904Y-118189023D01*
X303662142Y-118141404D01*
X303709761Y-118093785D01*
X303757380Y-117998547D01*
X303757380Y-117712833D01*
X303709761Y-117617595D01*
X303662142Y-117569976D01*
X302757380Y-119046166D02*
X302757380Y-118855690D01*
X302805000Y-118760452D01*
X302852619Y-118712833D01*
X302995476Y-118617595D01*
X303185952Y-118569976D01*
X303566904Y-118569976D01*
X303662142Y-118617595D01*
X303709761Y-118665214D01*
X303757380Y-118760452D01*
X303757380Y-118950928D01*
X303709761Y-119046166D01*
X303662142Y-119093785D01*
X303566904Y-119141404D01*
X303328809Y-119141404D01*
X303233571Y-119093785D01*
X303185952Y-119046166D01*
X303138333Y-118950928D01*
X303138333Y-118760452D01*
X303185952Y-118665214D01*
X303233571Y-118617595D01*
X303328809Y-118569976D01*
%TO.C,D8*%
X226999391Y-86336767D02*
X226009123Y-86475940D01*
X226042259Y-86711718D01*
X226109297Y-86846558D01*
X226216863Y-86927615D01*
X226317801Y-86961516D01*
X226513051Y-86982162D01*
X226654518Y-86962280D01*
X226836513Y-86888615D01*
X226924197Y-86828205D01*
X227005254Y-86720639D01*
X227032527Y-86572545D01*
X226999391Y-86336767D01*
X226592578Y-87548030D02*
X226532168Y-87460346D01*
X226478385Y-87419817D01*
X226377447Y-87385916D01*
X226330291Y-87392543D01*
X226242607Y-87452954D01*
X226202079Y-87506737D01*
X226168178Y-87607675D01*
X226194687Y-87796298D01*
X226255097Y-87883982D01*
X226308880Y-87924510D01*
X226409819Y-87958411D01*
X226456974Y-87951784D01*
X226544658Y-87891373D01*
X226585187Y-87837591D01*
X226619088Y-87736652D01*
X226592578Y-87548030D01*
X226626479Y-87447091D01*
X226667008Y-87393308D01*
X226754692Y-87332898D01*
X226943314Y-87306389D01*
X227044253Y-87340290D01*
X227098036Y-87380818D01*
X227158446Y-87468502D01*
X227184955Y-87657125D01*
X227151054Y-87758063D01*
X227110526Y-87811846D01*
X227022842Y-87872256D01*
X226834219Y-87898765D01*
X226733281Y-87864864D01*
X226679498Y-87824336D01*
X226619088Y-87736652D01*
%TO.C,D11*%
X284197380Y-78125214D02*
X283197380Y-78125214D01*
X283197380Y-78363309D01*
X283245000Y-78506166D01*
X283340238Y-78601404D01*
X283435476Y-78649023D01*
X283625952Y-78696642D01*
X283768809Y-78696642D01*
X283959285Y-78649023D01*
X284054523Y-78601404D01*
X284149761Y-78506166D01*
X284197380Y-78363309D01*
X284197380Y-78125214D01*
X284197380Y-79649023D02*
X284197380Y-79077595D01*
X284197380Y-79363309D02*
X283197380Y-79363309D01*
X283340238Y-79268071D01*
X283435476Y-79172833D01*
X283483095Y-79077595D01*
X284197380Y-80601404D02*
X284197380Y-80029976D01*
X284197380Y-80315690D02*
X283197380Y-80315690D01*
X283340238Y-80220452D01*
X283435476Y-80125214D01*
X283483095Y-80029976D01*
%TO.C,D19*%
X170885760Y-105281379D02*
X169895492Y-105142206D01*
X169862355Y-105377984D01*
X169889629Y-105526079D01*
X169970686Y-105633644D01*
X170058370Y-105694055D01*
X170240365Y-105767719D01*
X170381832Y-105787601D01*
X170577082Y-105766955D01*
X170678020Y-105733054D01*
X170785586Y-105651997D01*
X170852623Y-105517158D01*
X170885760Y-105281379D01*
X170673687Y-106790359D02*
X170753214Y-106224492D01*
X170713450Y-106507426D02*
X169723182Y-106368252D01*
X169877904Y-106293823D01*
X169985469Y-106212766D01*
X170045880Y-106125082D01*
X170607414Y-107261916D02*
X170580904Y-107450538D01*
X170520494Y-107538222D01*
X170466711Y-107578750D01*
X170311990Y-107653180D01*
X170116740Y-107673826D01*
X169739495Y-107620808D01*
X169651811Y-107560398D01*
X169611283Y-107506615D01*
X169577382Y-107405676D01*
X169603891Y-107217054D01*
X169664301Y-107129370D01*
X169718084Y-107088841D01*
X169819023Y-107054940D01*
X170054801Y-107088077D01*
X170142485Y-107148487D01*
X170183013Y-107202270D01*
X170216914Y-107303208D01*
X170190405Y-107491831D01*
X170129995Y-107579515D01*
X170076212Y-107620043D01*
X169975273Y-107653944D01*
%TO.C,D18*%
X152015760Y-102661379D02*
X151025492Y-102522206D01*
X150992355Y-102757984D01*
X151019629Y-102906079D01*
X151100686Y-103013644D01*
X151188370Y-103074055D01*
X151370365Y-103147719D01*
X151511832Y-103167601D01*
X151707082Y-103146955D01*
X151808020Y-103113054D01*
X151915586Y-103031997D01*
X151982623Y-102897158D01*
X152015760Y-102661379D01*
X151803687Y-104170359D02*
X151883214Y-103604492D01*
X151843450Y-103887426D02*
X150853182Y-103748252D01*
X151007904Y-103673823D01*
X151115469Y-103592766D01*
X151175880Y-103505082D01*
X151158292Y-104656699D02*
X151124391Y-104555761D01*
X151083862Y-104501978D01*
X150996178Y-104441568D01*
X150949023Y-104434940D01*
X150848084Y-104468841D01*
X150794301Y-104509370D01*
X150733891Y-104597054D01*
X150707382Y-104785676D01*
X150741283Y-104886615D01*
X150781811Y-104940398D01*
X150869495Y-105000808D01*
X150916651Y-105007435D01*
X151017589Y-104973534D01*
X151071372Y-104933006D01*
X151131782Y-104845322D01*
X151158292Y-104656699D01*
X151218702Y-104569015D01*
X151272485Y-104528487D01*
X151373423Y-104494586D01*
X151562046Y-104521095D01*
X151649730Y-104581505D01*
X151690258Y-104635288D01*
X151724159Y-104736227D01*
X151697650Y-104924849D01*
X151637240Y-105012533D01*
X151583457Y-105053062D01*
X151482518Y-105086963D01*
X151293896Y-105060453D01*
X151206212Y-105000043D01*
X151165683Y-104946260D01*
X151131782Y-104845322D01*
%TO.C,L6*%
X121723430Y-126939110D02*
X122199621Y-126939110D01*
X122199621Y-125939110D01*
X120961525Y-125939110D02*
X121152002Y-125939110D01*
X121247240Y-125986730D01*
X121294859Y-126034349D01*
X121390097Y-126177206D01*
X121437716Y-126367682D01*
X121437716Y-126748634D01*
X121390097Y-126843872D01*
X121342478Y-126891491D01*
X121247240Y-126939110D01*
X121056764Y-126939110D01*
X120961525Y-126891491D01*
X120913906Y-126843872D01*
X120866287Y-126748634D01*
X120866287Y-126510539D01*
X120913906Y-126415301D01*
X120961525Y-126367682D01*
X121056764Y-126320063D01*
X121247240Y-126320063D01*
X121342478Y-126367682D01*
X121390097Y-126415301D01*
X121437716Y-126510539D01*
X117094285Y-128492380D02*
X117665714Y-128492380D01*
X117380000Y-128492380D02*
X117380000Y-127492380D01*
X117475238Y-127635238D01*
X117570476Y-127730476D01*
X117665714Y-127778095D01*
%TO.C,D4*%
X131059487Y-80892936D02*
X130069219Y-80753763D01*
X130036082Y-80989541D01*
X130063356Y-81137635D01*
X130144413Y-81245201D01*
X130232097Y-81305611D01*
X130414092Y-81379276D01*
X130555559Y-81399157D01*
X130750809Y-81378511D01*
X130851747Y-81344610D01*
X130959313Y-81263553D01*
X131026350Y-81128714D01*
X131059487Y-80892936D01*
X130200489Y-82214822D02*
X130860668Y-82307604D01*
X129856381Y-81926026D02*
X130596852Y-81789657D01*
X130510697Y-82402680D01*
%TO.C,D16*%
X114335760Y-97231379D02*
X113345492Y-97092206D01*
X113312355Y-97327984D01*
X113339629Y-97476079D01*
X113420686Y-97583644D01*
X113508370Y-97644055D01*
X113690365Y-97717719D01*
X113831832Y-97737601D01*
X114027082Y-97716955D01*
X114128020Y-97683054D01*
X114235586Y-97601997D01*
X114302623Y-97467158D01*
X114335760Y-97231379D01*
X114123687Y-98740359D02*
X114203214Y-98174492D01*
X114163450Y-98457426D02*
X113173182Y-98318252D01*
X113327904Y-98243823D01*
X113435469Y-98162766D01*
X113495880Y-98075082D01*
X113014127Y-99449987D02*
X113040636Y-99261365D01*
X113101047Y-99173681D01*
X113154830Y-99133153D01*
X113309551Y-99058723D01*
X113504801Y-99038077D01*
X113882046Y-99091095D01*
X113969730Y-99151505D01*
X114010258Y-99205288D01*
X114044159Y-99306227D01*
X114017650Y-99494849D01*
X113957240Y-99582533D01*
X113903457Y-99623062D01*
X113802518Y-99656963D01*
X113566740Y-99623826D01*
X113479056Y-99563416D01*
X113438528Y-99509633D01*
X113404627Y-99408694D01*
X113431136Y-99220072D01*
X113491546Y-99132388D01*
X113545329Y-99091860D01*
X113646268Y-99057959D01*
%TO.C,D23*%
X271983118Y-98585211D02*
X270992850Y-98724384D01*
X271025986Y-98960162D01*
X271093024Y-99095002D01*
X271200590Y-99176058D01*
X271301528Y-99209959D01*
X271496778Y-99230606D01*
X271638245Y-99210724D01*
X271820240Y-99137059D01*
X271907924Y-99076649D01*
X271988981Y-98969083D01*
X272016254Y-98820989D01*
X271983118Y-98585211D01*
X271219707Y-99654242D02*
X271179179Y-99708025D01*
X271145278Y-99808963D01*
X271178414Y-100044741D01*
X271238824Y-100132425D01*
X271292607Y-100172954D01*
X271393546Y-100206855D01*
X271487857Y-100193600D01*
X271622697Y-100126563D01*
X272109037Y-99481168D01*
X272195191Y-100094191D01*
X271251314Y-100563453D02*
X271337469Y-101176476D01*
X271668323Y-100793369D01*
X271688205Y-100934836D01*
X271748615Y-101022519D01*
X271802398Y-101063048D01*
X271903337Y-101096949D01*
X272139115Y-101063812D01*
X272226799Y-101003402D01*
X272267327Y-100949619D01*
X272301228Y-100848681D01*
X272261464Y-100565747D01*
X272201054Y-100478063D01*
X272147271Y-100437535D01*
%TO.C,D10*%
X264683118Y-80585211D02*
X263692850Y-80724384D01*
X263725986Y-80960162D01*
X263793024Y-81095002D01*
X263900590Y-81176058D01*
X264001528Y-81209959D01*
X264196778Y-81230606D01*
X264338245Y-81210724D01*
X264520240Y-81137059D01*
X264607924Y-81076649D01*
X264688981Y-80969083D01*
X264716254Y-80820989D01*
X264683118Y-80585211D01*
X264895191Y-82094191D02*
X264815664Y-81528323D01*
X264855428Y-81811257D02*
X263865159Y-81950430D01*
X263993372Y-81836237D01*
X264074428Y-81728671D01*
X264108329Y-81627733D01*
X263991078Y-82846387D02*
X264004333Y-82940698D01*
X264064743Y-83028382D01*
X264118526Y-83068911D01*
X264219464Y-83102812D01*
X264414714Y-83123458D01*
X264650492Y-83090322D01*
X264832487Y-83016657D01*
X264920171Y-82956247D01*
X264960700Y-82902464D01*
X264994601Y-82801525D01*
X264981346Y-82707214D01*
X264920936Y-82619530D01*
X264867153Y-82579002D01*
X264766214Y-82545101D01*
X264570965Y-82524454D01*
X264335187Y-82557591D01*
X264153191Y-82631255D01*
X264065507Y-82691666D01*
X264024979Y-82745448D01*
X263991078Y-82846387D01*
%TO.C,D27*%
X101437380Y-116225214D02*
X100437380Y-116225214D01*
X100437380Y-116463309D01*
X100485000Y-116606166D01*
X100580238Y-116701404D01*
X100675476Y-116749023D01*
X100865952Y-116796642D01*
X101008809Y-116796642D01*
X101199285Y-116749023D01*
X101294523Y-116701404D01*
X101389761Y-116606166D01*
X101437380Y-116463309D01*
X101437380Y-116225214D01*
X100532619Y-117177595D02*
X100485000Y-117225214D01*
X100437380Y-117320452D01*
X100437380Y-117558547D01*
X100485000Y-117653785D01*
X100532619Y-117701404D01*
X100627857Y-117749023D01*
X100723095Y-117749023D01*
X100865952Y-117701404D01*
X101437380Y-117129976D01*
X101437380Y-117749023D01*
X100437380Y-118082357D02*
X100437380Y-118749023D01*
X101437380Y-118320452D01*
%TO.C,D42*%
X165565760Y-143091379D02*
X164575492Y-142952206D01*
X164542355Y-143187984D01*
X164569629Y-143336079D01*
X164650686Y-143443644D01*
X164738370Y-143504055D01*
X164920365Y-143577719D01*
X165061832Y-143597601D01*
X165257082Y-143576955D01*
X165358020Y-143543054D01*
X165465586Y-143461997D01*
X165532623Y-143327158D01*
X165565760Y-143091379D01*
X164706762Y-144413266D02*
X165366941Y-144506048D01*
X164362654Y-144124470D02*
X165103125Y-143988101D01*
X165016970Y-144601124D01*
X164404711Y-144851686D02*
X164350928Y-144892214D01*
X164290518Y-144979898D01*
X164257382Y-145215676D01*
X164291283Y-145316615D01*
X164331811Y-145370398D01*
X164419495Y-145430808D01*
X164513806Y-145444062D01*
X164661901Y-145416789D01*
X165307295Y-144930449D01*
X165221141Y-145543472D01*
%TO.C,D20*%
X215433118Y-106785211D02*
X214442850Y-106924384D01*
X214475986Y-107160162D01*
X214543024Y-107295002D01*
X214650590Y-107376058D01*
X214751528Y-107409959D01*
X214946778Y-107430606D01*
X215088245Y-107410724D01*
X215270240Y-107337059D01*
X215357924Y-107276649D01*
X215438981Y-107169083D01*
X215466254Y-107020989D01*
X215433118Y-106785211D01*
X214669707Y-107854242D02*
X214629179Y-107908025D01*
X214595278Y-108008963D01*
X214628414Y-108244741D01*
X214688824Y-108332425D01*
X214742607Y-108372954D01*
X214843546Y-108406855D01*
X214937857Y-108393600D01*
X215072697Y-108326563D01*
X215559037Y-107681168D01*
X215645191Y-108294191D01*
X214741078Y-109046387D02*
X214754333Y-109140698D01*
X214814743Y-109228382D01*
X214868526Y-109268911D01*
X214969464Y-109302812D01*
X215164714Y-109323458D01*
X215400492Y-109290322D01*
X215582487Y-109216657D01*
X215670171Y-109156247D01*
X215710700Y-109102464D01*
X215744601Y-109001525D01*
X215731346Y-108907214D01*
X215670936Y-108819530D01*
X215617153Y-108779002D01*
X215516214Y-108745101D01*
X215320965Y-108724454D01*
X215085187Y-108757591D01*
X214903191Y-108831255D01*
X214815507Y-108891666D01*
X214774979Y-108945448D01*
X214741078Y-109046387D01*
%TO.C,D22*%
X253133118Y-101165211D02*
X252142850Y-101304384D01*
X252175986Y-101540162D01*
X252243024Y-101675002D01*
X252350590Y-101756058D01*
X252451528Y-101789959D01*
X252646778Y-101810606D01*
X252788245Y-101790724D01*
X252970240Y-101717059D01*
X253057924Y-101656649D01*
X253138981Y-101549083D01*
X253166254Y-101400989D01*
X253133118Y-101165211D01*
X252369707Y-102234242D02*
X252329179Y-102288025D01*
X252295278Y-102388963D01*
X252328414Y-102624741D01*
X252388824Y-102712425D01*
X252442607Y-102752954D01*
X252543546Y-102786855D01*
X252637857Y-102773600D01*
X252772697Y-102706563D01*
X253259037Y-102061168D01*
X253345191Y-102674191D01*
X252502253Y-103177354D02*
X252461724Y-103231137D01*
X252427823Y-103332076D01*
X252460960Y-103567854D01*
X252521370Y-103655538D01*
X252575153Y-103696066D01*
X252676092Y-103729967D01*
X252770403Y-103716713D01*
X252905242Y-103649675D01*
X253391582Y-103004280D01*
X253477737Y-103617303D01*
%TO.C,D31*%
X177675760Y-125541379D02*
X176685492Y-125402206D01*
X176652355Y-125637984D01*
X176679629Y-125786079D01*
X176760686Y-125893644D01*
X176848370Y-125954055D01*
X177030365Y-126027719D01*
X177171832Y-126047601D01*
X177367082Y-126026955D01*
X177468020Y-125993054D01*
X177575586Y-125911997D01*
X177642623Y-125777158D01*
X177675760Y-125541379D01*
X176559573Y-126298163D02*
X176473418Y-126911186D01*
X176897054Y-126634115D01*
X176877173Y-126775582D01*
X176911074Y-126876521D01*
X176951602Y-126930303D01*
X177039286Y-126990714D01*
X177275064Y-127023850D01*
X177376003Y-126989949D01*
X177429785Y-126949421D01*
X177490196Y-126861737D01*
X177529959Y-126578803D01*
X177496058Y-126477865D01*
X177455530Y-126424082D01*
X177331141Y-127993472D02*
X177410668Y-127427604D01*
X177370904Y-127710538D02*
X176380636Y-127571365D01*
X176535358Y-127496936D01*
X176642924Y-127415879D01*
X176703334Y-127328195D01*
%TO.C,D34*%
X246418276Y-121448836D02*
X245428008Y-121588009D01*
X245461144Y-121823787D01*
X245528182Y-121958627D01*
X245635748Y-122039683D01*
X245736686Y-122073584D01*
X245931936Y-122094231D01*
X246073403Y-122074349D01*
X246255398Y-122000684D01*
X246343082Y-121940274D01*
X246424139Y-121832708D01*
X246451412Y-121684614D01*
X246418276Y-121448836D01*
X245553926Y-122483966D02*
X245640081Y-123096989D01*
X245970935Y-122713881D01*
X245990817Y-122855348D01*
X246051227Y-122943032D01*
X246105010Y-122983560D01*
X246205949Y-123017461D01*
X246441727Y-122984325D01*
X246529411Y-122923915D01*
X246569939Y-122870132D01*
X246603840Y-122769193D01*
X246564076Y-122486260D01*
X246503666Y-122398576D01*
X246449883Y-122358047D01*
X246089462Y-123899399D02*
X246749641Y-123806617D01*
X245679080Y-123716639D02*
X246353278Y-123381452D01*
X246439433Y-123994475D01*
%TO.C,D41*%
X135015760Y-138591379D02*
X134025492Y-138452206D01*
X133992355Y-138687984D01*
X134019629Y-138836079D01*
X134100686Y-138943644D01*
X134188370Y-139004055D01*
X134370365Y-139077719D01*
X134511832Y-139097601D01*
X134707082Y-139076955D01*
X134808020Y-139043054D01*
X134915586Y-138961997D01*
X134982623Y-138827158D01*
X135015760Y-138591379D01*
X134156762Y-139913266D02*
X134816941Y-140006048D01*
X133812654Y-139624470D02*
X134553125Y-139488101D01*
X134466970Y-140101124D01*
X134671141Y-141043472D02*
X134750668Y-140477604D01*
X134710904Y-140760538D02*
X133720636Y-140621365D01*
X133875358Y-140546936D01*
X133982924Y-140465879D01*
X134043334Y-140378195D01*
%TO.C,D33*%
X227503118Y-124105211D02*
X226512850Y-124244384D01*
X226545986Y-124480162D01*
X226613024Y-124615002D01*
X226720590Y-124696058D01*
X226821528Y-124729959D01*
X227016778Y-124750606D01*
X227158245Y-124730724D01*
X227340240Y-124657059D01*
X227427924Y-124596649D01*
X227508981Y-124489083D01*
X227536254Y-124340989D01*
X227503118Y-124105211D01*
X226638768Y-125140341D02*
X226724923Y-125753364D01*
X227055777Y-125370256D01*
X227075659Y-125511723D01*
X227136069Y-125599407D01*
X227189852Y-125639935D01*
X227290791Y-125673836D01*
X227526569Y-125640700D01*
X227614253Y-125580290D01*
X227654781Y-125526507D01*
X227688682Y-125425568D01*
X227648918Y-125142635D01*
X227588508Y-125054951D01*
X227534725Y-125014422D01*
X226771314Y-126083453D02*
X226857469Y-126696476D01*
X227188323Y-126313369D01*
X227208205Y-126454836D01*
X227268615Y-126542519D01*
X227322398Y-126583048D01*
X227423337Y-126616949D01*
X227659115Y-126583812D01*
X227746799Y-126523402D01*
X227787327Y-126469619D01*
X227821228Y-126368681D01*
X227781464Y-126085747D01*
X227721054Y-125998063D01*
X227667271Y-125957535D01*
%TO.C,D43*%
X223123118Y-144225211D02*
X222132850Y-144364384D01*
X222165986Y-144600162D01*
X222233024Y-144735002D01*
X222340590Y-144816058D01*
X222441528Y-144849959D01*
X222636778Y-144870606D01*
X222778245Y-144850724D01*
X222960240Y-144777059D01*
X223047924Y-144716649D01*
X223128981Y-144609083D01*
X223156254Y-144460989D01*
X223123118Y-144225211D01*
X222661758Y-145732662D02*
X223321937Y-145639880D01*
X222251377Y-145549902D02*
X222925574Y-145214714D01*
X223011729Y-145827737D01*
X222391314Y-146203453D02*
X222477469Y-146816476D01*
X222808323Y-146433369D01*
X222828205Y-146574836D01*
X222888615Y-146662519D01*
X222942398Y-146703048D01*
X223043337Y-146736949D01*
X223279115Y-146703812D01*
X223366799Y-146643402D01*
X223407327Y-146589619D01*
X223441228Y-146488681D01*
X223401464Y-146205747D01*
X223341054Y-146118063D01*
X223287271Y-146077535D01*
%TO.C,D46*%
X323057380Y-135932714D02*
X322057380Y-135932714D01*
X322057380Y-136170809D01*
X322105000Y-136313666D01*
X322200238Y-136408904D01*
X322295476Y-136456523D01*
X322485952Y-136504142D01*
X322628809Y-136504142D01*
X322819285Y-136456523D01*
X322914523Y-136408904D01*
X323009761Y-136313666D01*
X323057380Y-136170809D01*
X323057380Y-135932714D01*
X322390714Y-137361285D02*
X323057380Y-137361285D01*
X322009761Y-137123190D02*
X322724047Y-136885095D01*
X322724047Y-137504142D01*
X322057380Y-138313666D02*
X322057380Y-138123190D01*
X322105000Y-138027952D01*
X322152619Y-137980333D01*
X322295476Y-137885095D01*
X322485952Y-137837476D01*
X322866904Y-137837476D01*
X322962142Y-137885095D01*
X323009761Y-137932714D01*
X323057380Y-138027952D01*
X323057380Y-138218428D01*
X323009761Y-138313666D01*
X322962142Y-138361285D01*
X322866904Y-138408904D01*
X322628809Y-138408904D01*
X322533571Y-138361285D01*
X322485952Y-138313666D01*
X322438333Y-138218428D01*
X322438333Y-138027952D01*
X322485952Y-137932714D01*
X322533571Y-137885095D01*
X322628809Y-137837476D01*
%TO.C,D7*%
X208159391Y-88896767D02*
X207169123Y-89035940D01*
X207202259Y-89271718D01*
X207269297Y-89406558D01*
X207376863Y-89487615D01*
X207477801Y-89521516D01*
X207673051Y-89542162D01*
X207814518Y-89522280D01*
X207996513Y-89448615D01*
X208084197Y-89388205D01*
X208165254Y-89280639D01*
X208192527Y-89132545D01*
X208159391Y-88896767D01*
X207295041Y-89931897D02*
X207387823Y-90592076D01*
X208318446Y-90028502D01*
%TO.C,D9*%
X245929391Y-83706767D02*
X244939123Y-83845940D01*
X244972259Y-84081718D01*
X245039297Y-84216558D01*
X245146863Y-84297615D01*
X245247801Y-84331516D01*
X245443051Y-84352162D01*
X245584518Y-84332280D01*
X245766513Y-84258615D01*
X245854197Y-84198205D01*
X245935254Y-84090639D01*
X245962527Y-83942545D01*
X245929391Y-83706767D01*
X246075191Y-84744191D02*
X246101700Y-84932813D01*
X246067799Y-85033752D01*
X246027271Y-85087535D01*
X245899059Y-85201728D01*
X245717064Y-85275393D01*
X245339819Y-85328411D01*
X245238880Y-85294510D01*
X245185097Y-85253982D01*
X245124687Y-85166298D01*
X245098178Y-84977675D01*
X245132079Y-84876737D01*
X245172607Y-84822954D01*
X245260291Y-84762543D01*
X245496069Y-84729407D01*
X245597008Y-84763308D01*
X245650791Y-84803836D01*
X245711201Y-84891520D01*
X245737710Y-85080143D01*
X245703809Y-85181081D01*
X245663281Y-85234864D01*
X245575597Y-85295274D01*
%TO.C,D28*%
X121095760Y-117431379D02*
X120105492Y-117292206D01*
X120072355Y-117527984D01*
X120099629Y-117676079D01*
X120180686Y-117783644D01*
X120268370Y-117844055D01*
X120450365Y-117917719D01*
X120591832Y-117937601D01*
X120787082Y-117916955D01*
X120888020Y-117883054D01*
X120995586Y-117801997D01*
X121062623Y-117667158D01*
X121095760Y-117431379D01*
X120067257Y-118248573D02*
X120013474Y-118289102D01*
X119953064Y-118376786D01*
X119919928Y-118612564D01*
X119953829Y-118713502D01*
X119994357Y-118767285D01*
X120082041Y-118827695D01*
X120176352Y-118840950D01*
X120324446Y-118813676D01*
X120969841Y-118327336D01*
X120883687Y-118940359D01*
X120238292Y-119426699D02*
X120204391Y-119325761D01*
X120163862Y-119271978D01*
X120076178Y-119211568D01*
X120029023Y-119204940D01*
X119928084Y-119238841D01*
X119874301Y-119279370D01*
X119813891Y-119367054D01*
X119787382Y-119555676D01*
X119821283Y-119656615D01*
X119861811Y-119710398D01*
X119949495Y-119770808D01*
X119996651Y-119777435D01*
X120097589Y-119743534D01*
X120151372Y-119703006D01*
X120211782Y-119615322D01*
X120238292Y-119426699D01*
X120298702Y-119339015D01*
X120352485Y-119298487D01*
X120453423Y-119264586D01*
X120642046Y-119291095D01*
X120729730Y-119351505D01*
X120770258Y-119405288D01*
X120804159Y-119506227D01*
X120777650Y-119694849D01*
X120717240Y-119782533D01*
X120663457Y-119823062D01*
X120562518Y-119856963D01*
X120373896Y-119830453D01*
X120286212Y-119770043D01*
X120245683Y-119716260D01*
X120211782Y-119615322D01*
%TO.C,D29*%
X139915760Y-120081379D02*
X138925492Y-119942206D01*
X138892355Y-120177984D01*
X138919629Y-120326079D01*
X139000686Y-120433644D01*
X139088370Y-120494055D01*
X139270365Y-120567719D01*
X139411832Y-120587601D01*
X139607082Y-120566955D01*
X139708020Y-120533054D01*
X139815586Y-120451997D01*
X139882623Y-120317158D01*
X139915760Y-120081379D01*
X138887257Y-120898573D02*
X138833474Y-120939102D01*
X138773064Y-121026786D01*
X138739928Y-121262564D01*
X138773829Y-121363502D01*
X138814357Y-121417285D01*
X138902041Y-121477695D01*
X138996352Y-121490950D01*
X139144446Y-121463676D01*
X139789841Y-120977336D01*
X139703687Y-121590359D01*
X139637414Y-122061916D02*
X139610904Y-122250538D01*
X139550494Y-122338222D01*
X139496711Y-122378750D01*
X139341990Y-122453180D01*
X139146740Y-122473826D01*
X138769495Y-122420808D01*
X138681811Y-122360398D01*
X138641283Y-122306615D01*
X138607382Y-122205676D01*
X138633891Y-122017054D01*
X138694301Y-121929370D01*
X138748084Y-121888841D01*
X138849023Y-121854940D01*
X139084801Y-121888077D01*
X139172485Y-121948487D01*
X139213013Y-122002270D01*
X139246914Y-122103208D01*
X139220405Y-122291831D01*
X139159995Y-122379515D01*
X139106212Y-122420043D01*
X139005273Y-122453944D01*
%TO.C,D45*%
X299257380Y-135892714D02*
X298257380Y-135892714D01*
X298257380Y-136130809D01*
X298305000Y-136273666D01*
X298400238Y-136368904D01*
X298495476Y-136416523D01*
X298685952Y-136464142D01*
X298828809Y-136464142D01*
X299019285Y-136416523D01*
X299114523Y-136368904D01*
X299209761Y-136273666D01*
X299257380Y-136130809D01*
X299257380Y-135892714D01*
X298590714Y-137321285D02*
X299257380Y-137321285D01*
X298209761Y-137083190D02*
X298924047Y-136845095D01*
X298924047Y-137464142D01*
X298257380Y-138321285D02*
X298257380Y-137845095D01*
X298733571Y-137797476D01*
X298685952Y-137845095D01*
X298638333Y-137940333D01*
X298638333Y-138178428D01*
X298685952Y-138273666D01*
X298733571Y-138321285D01*
X298828809Y-138368904D01*
X299066904Y-138368904D01*
X299162142Y-138321285D01*
X299209761Y-138273666D01*
X299257380Y-138178428D01*
X299257380Y-137940333D01*
X299209761Y-137845095D01*
X299162142Y-137797476D01*
%TO.C,D40*%
X96397380Y-135805214D02*
X95397380Y-135805214D01*
X95397380Y-136043309D01*
X95445000Y-136186166D01*
X95540238Y-136281404D01*
X95635476Y-136329023D01*
X95825952Y-136376642D01*
X95968809Y-136376642D01*
X96159285Y-136329023D01*
X96254523Y-136281404D01*
X96349761Y-136186166D01*
X96397380Y-136043309D01*
X96397380Y-135805214D01*
X95730714Y-137233785D02*
X96397380Y-137233785D01*
X95349761Y-136995690D02*
X96064047Y-136757595D01*
X96064047Y-137376642D01*
X95397380Y-137948071D02*
X95397380Y-138043309D01*
X95445000Y-138138547D01*
X95492619Y-138186166D01*
X95587857Y-138233785D01*
X95778333Y-138281404D01*
X96016428Y-138281404D01*
X96206904Y-138233785D01*
X96302142Y-138186166D01*
X96349761Y-138138547D01*
X96397380Y-138043309D01*
X96397380Y-137948071D01*
X96349761Y-137852833D01*
X96302142Y-137805214D01*
X96206904Y-137757595D01*
X96016428Y-137709976D01*
X95778333Y-137709976D01*
X95587857Y-137757595D01*
X95492619Y-137805214D01*
X95445000Y-137852833D01*
X95397380Y-137948071D01*
%TO.C,D12*%
X303157380Y-78292714D02*
X302157380Y-78292714D01*
X302157380Y-78530809D01*
X302205000Y-78673666D01*
X302300238Y-78768904D01*
X302395476Y-78816523D01*
X302585952Y-78864142D01*
X302728809Y-78864142D01*
X302919285Y-78816523D01*
X303014523Y-78768904D01*
X303109761Y-78673666D01*
X303157380Y-78530809D01*
X303157380Y-78292714D01*
X303157380Y-79816523D02*
X303157380Y-79245095D01*
X303157380Y-79530809D02*
X302157380Y-79530809D01*
X302300238Y-79435571D01*
X302395476Y-79340333D01*
X302443095Y-79245095D01*
X302252619Y-80197476D02*
X302205000Y-80245095D01*
X302157380Y-80340333D01*
X302157380Y-80578428D01*
X302205000Y-80673666D01*
X302252619Y-80721285D01*
X302347857Y-80768904D01*
X302443095Y-80768904D01*
X302585952Y-80721285D01*
X303157380Y-80149857D01*
X303157380Y-80768904D01*
%TO.C,SW24*%
X294335838Y-94185000D02*
X292609000Y-94185000D01*
X301880000Y-92280000D02*
X296800000Y-92280000D01*
X290450000Y-90375000D02*
X290450000Y-90756000D01*
X290831000Y-94185000D02*
X290450000Y-94185000D01*
X301880000Y-91264000D02*
X301880000Y-92280000D01*
X292990000Y-87835000D02*
X301880000Y-87835000D01*
X301880000Y-87835000D02*
X301880000Y-88216000D01*
X290450000Y-93804000D02*
X290450000Y-94185000D01*
X294335838Y-94203960D02*
G75*
G02*
X296800000Y-92280000I2464162J-616040D01*
G01*
X290450000Y-90375000D02*
G75*
G02*
X292990000Y-87835000I2540000J0D01*
G01*
%TO.C,SW39*%
X82790000Y-126175000D02*
X82790000Y-126556000D01*
X71360000Y-128715000D02*
X71360000Y-129096000D01*
X82790000Y-130620000D02*
X77710000Y-130620000D01*
X71360000Y-132144000D02*
X71360000Y-132525000D01*
X73900000Y-126175000D02*
X82790000Y-126175000D01*
X82790000Y-129604000D02*
X82790000Y-130620000D01*
X75245838Y-132525000D02*
X73519000Y-132525000D01*
X71741000Y-132525000D02*
X71360000Y-132525000D01*
X75245838Y-132543960D02*
G75*
G02*
X77710000Y-130620000I2464162J-616040D01*
G01*
X71360000Y-128715000D02*
G75*
G02*
X73900000Y-126175000I2540000J0D01*
G01*
%TO.C,SW43*%
X221870715Y-140931904D02*
X221493423Y-140984929D01*
X231928438Y-133105978D02*
X231981463Y-133483270D01*
X220963173Y-137212008D02*
X221016198Y-137589300D01*
X225341444Y-140444125D02*
X223631412Y-140684454D01*
X232547062Y-137507720D02*
X227516500Y-138214719D01*
X221440398Y-140607637D02*
X221493423Y-140984929D01*
X232405662Y-136501607D02*
X232547062Y-137507720D01*
X223124955Y-134343227D02*
X231928438Y-133105978D01*
X225344083Y-140462900D02*
G75*
G02*
X227516500Y-138214719I2525917J-267100D01*
G01*
X220963173Y-137212007D02*
G75*
G02*
X223124955Y-134343227I2515281J353499D01*
G01*
%TO.C,SW8*%
X225290398Y-82367637D02*
X225343423Y-82744929D01*
X236255662Y-78261607D02*
X236397062Y-79267720D01*
X224813173Y-78972008D02*
X224866198Y-79349300D01*
X229191444Y-82204125D02*
X227481412Y-82444454D01*
X236397062Y-79267720D02*
X231366500Y-79974719D01*
X226974955Y-76103227D02*
X235778438Y-74865978D01*
X225720715Y-82691904D02*
X225343423Y-82744929D01*
X235778438Y-74865978D02*
X235831463Y-75243270D01*
X229194083Y-82222900D02*
G75*
G02*
X231366500Y-79974719I2525917J-267100D01*
G01*
X224813173Y-78972007D02*
G75*
G02*
X226974955Y-76103227I2515281J353499D01*
G01*
%TO.C,SW4*%
X142145461Y-75715606D02*
X142004061Y-76721718D01*
X142004061Y-76721718D02*
X136973500Y-76014719D01*
X130473198Y-76640138D02*
X130420173Y-77017431D01*
X130950422Y-73244509D02*
X130897397Y-73621801D01*
X142622686Y-72319977D02*
X142569661Y-72697269D01*
X133819203Y-71082728D02*
X142622686Y-72319977D01*
X134268194Y-77558235D02*
X132558161Y-77317905D01*
X130797465Y-77070456D02*
X130420173Y-77017431D01*
X130950422Y-73244509D02*
G75*
G02*
X133819203Y-71082728I2515281J-353500D01*
G01*
X134265555Y-77577009D02*
G75*
G02*
X136973500Y-76014719I2354445J-952991D01*
G01*
%TO.C,SW46*%
X333400000Y-130770000D02*
X328320000Y-130770000D01*
X322351000Y-132675000D02*
X321970000Y-132675000D01*
X324510000Y-126325000D02*
X333400000Y-126325000D01*
X333400000Y-126325000D02*
X333400000Y-126706000D01*
X325855838Y-132675000D02*
X324129000Y-132675000D01*
X333400000Y-129754000D02*
X333400000Y-130770000D01*
X321970000Y-132294000D02*
X321970000Y-132675000D01*
X321970000Y-128865000D02*
X321970000Y-129246000D01*
X321970000Y-128865000D02*
G75*
G02*
X324510000Y-126325000I2540000J0D01*
G01*
X325855838Y-132693960D02*
G75*
G02*
X328320000Y-130770000I2464162J-616040D01*
G01*
%TO.C,SW2*%
X95355838Y-74815000D02*
X93629000Y-74815000D01*
X102900000Y-72910000D02*
X97820000Y-72910000D01*
X102900000Y-71894000D02*
X102900000Y-72910000D01*
X91470000Y-71005000D02*
X91470000Y-71386000D01*
X102900000Y-68465000D02*
X102900000Y-68846000D01*
X94010000Y-68465000D02*
X102900000Y-68465000D01*
X91470000Y-74434000D02*
X91470000Y-74815000D01*
X91851000Y-74815000D02*
X91470000Y-74815000D01*
X95355838Y-74833960D02*
G75*
G02*
X97820000Y-72910000I2464162J-616040D01*
G01*
X91470000Y-71005000D02*
G75*
G02*
X94010000Y-68465000I2540000J0D01*
G01*
%TO.C,SW17*%
X144215461Y-95245606D02*
X144074061Y-96251718D01*
X135889203Y-90612728D02*
X144692686Y-91849977D01*
X144074061Y-96251718D02*
X139043500Y-95544719D01*
X136338194Y-97088235D02*
X134628161Y-96847905D01*
X144692686Y-91849977D02*
X144639661Y-92227269D01*
X132543198Y-96170138D02*
X132490173Y-96547431D01*
X133020422Y-92774509D02*
X132967397Y-93151801D01*
X132867465Y-96600456D02*
X132490173Y-96547431D01*
X133020422Y-92774509D02*
G75*
G02*
X135889203Y-90612728I2515281J-353500D01*
G01*
X136335555Y-97107009D02*
G75*
G02*
X139043500Y-95544719I2354445J-952991D01*
G01*
%TO.C,SW33*%
X227574955Y-114473227D02*
X236378438Y-113235978D01*
X236855662Y-116631607D02*
X236997062Y-117637720D01*
X225413173Y-117342008D02*
X225466198Y-117719300D01*
X236997062Y-117637720D02*
X231966500Y-118344719D01*
X229791444Y-120574125D02*
X228081412Y-120814454D01*
X236378438Y-113235978D02*
X236431463Y-113613270D01*
X225890398Y-120737637D02*
X225943423Y-121114929D01*
X226320715Y-121061904D02*
X225943423Y-121114929D01*
X229794083Y-120592900D02*
G75*
G02*
X231966500Y-118344719I2525917J-267100D01*
G01*
X225413173Y-117342007D02*
G75*
G02*
X227574955Y-114473227I2515281J353499D01*
G01*
%TO.C,SW7*%
X217395662Y-80901607D02*
X217537062Y-81907720D01*
X205953173Y-81612008D02*
X206006198Y-81989300D01*
X216918438Y-77505978D02*
X216971463Y-77883270D01*
X210331444Y-84844125D02*
X208621412Y-85084454D01*
X206430398Y-85007637D02*
X206483423Y-85384929D01*
X208114955Y-78743227D02*
X216918438Y-77505978D01*
X217537062Y-81907720D02*
X212506500Y-82614719D01*
X206860715Y-85331904D02*
X206483423Y-85384929D01*
X205953173Y-81612007D02*
G75*
G02*
X208114955Y-78743227I2515281J353499D01*
G01*
X210334083Y-84862900D02*
G75*
G02*
X212506500Y-82614719I2525917J-267100D01*
G01*
%TO.C,SW26*%
X74421000Y-113295000D02*
X74040000Y-113295000D01*
X85470000Y-106945000D02*
X85470000Y-107326000D01*
X85470000Y-111390000D02*
X80390000Y-111390000D01*
X74040000Y-109485000D02*
X74040000Y-109866000D01*
X85470000Y-110374000D02*
X85470000Y-111390000D01*
X76580000Y-106945000D02*
X85470000Y-106945000D01*
X74040000Y-112914000D02*
X74040000Y-113295000D01*
X77925838Y-113295000D02*
X76199000Y-113295000D01*
X77925838Y-113313960D02*
G75*
G02*
X80390000Y-111390000I2464162J-616040D01*
G01*
X74040000Y-109485000D02*
G75*
G02*
X76580000Y-106945000I2540000J0D01*
G01*
%TO.C,SW37*%
X335500000Y-111520000D02*
X330420000Y-111520000D01*
X335500000Y-110504000D02*
X335500000Y-111520000D01*
X324070000Y-109615000D02*
X324070000Y-109996000D01*
X324070000Y-113044000D02*
X324070000Y-113425000D01*
X326610000Y-107075000D02*
X335500000Y-107075000D01*
X335500000Y-107075000D02*
X335500000Y-107456000D01*
X324451000Y-113425000D02*
X324070000Y-113425000D01*
X327955838Y-113425000D02*
X326229000Y-113425000D01*
X324070000Y-109615000D02*
G75*
G02*
X326610000Y-107075000I2540000J0D01*
G01*
X327955838Y-113443960D02*
G75*
G02*
X330420000Y-111520000I2464162J-616040D01*
G01*
%TO.C,SW13*%
X332530000Y-72014000D02*
X332530000Y-73030000D01*
X324985838Y-74935000D02*
X323259000Y-74935000D01*
X332530000Y-68585000D02*
X332530000Y-68966000D01*
X332530000Y-73030000D02*
X327450000Y-73030000D01*
X321100000Y-71125000D02*
X321100000Y-71506000D01*
X321100000Y-74554000D02*
X321100000Y-74935000D01*
X323640000Y-68585000D02*
X332530000Y-68585000D01*
X321481000Y-74935000D02*
X321100000Y-74935000D01*
X324985838Y-74953960D02*
G75*
G02*
X327450000Y-73030000I2464162J-616040D01*
G01*
X321100000Y-71125000D02*
G75*
G02*
X323640000Y-68585000I2540000J0D01*
G01*
%TO.C,SW31*%
X180838194Y-122578235D02*
X179128161Y-122337905D01*
X177367465Y-122090456D02*
X176990173Y-122037431D01*
X177043198Y-121660138D02*
X176990173Y-122037431D01*
X188715461Y-120735606D02*
X188574061Y-121741718D01*
X177520422Y-118264509D02*
X177467397Y-118641801D01*
X188574061Y-121741718D02*
X183543500Y-121034719D01*
X180389203Y-116102728D02*
X189192686Y-117339977D01*
X189192686Y-117339977D02*
X189139661Y-117717269D01*
X177520422Y-118264509D02*
G75*
G02*
X180389203Y-116102728I2515281J-353500D01*
G01*
X180835555Y-122597009D02*
G75*
G02*
X183543500Y-121034719I2354445J-952991D01*
G01*
%TO.C,SW30*%
X169865461Y-118065606D02*
X169724061Y-119071718D01*
X158670422Y-115594509D02*
X158617397Y-115971801D01*
X158193198Y-118990138D02*
X158140173Y-119367431D01*
X158517465Y-119420456D02*
X158140173Y-119367431D01*
X161539203Y-113432728D02*
X170342686Y-114669977D01*
X169724061Y-119071718D02*
X164693500Y-118364719D01*
X170342686Y-114669977D02*
X170289661Y-115047269D01*
X161988194Y-119908235D02*
X160278161Y-119667905D01*
X158670422Y-115594509D02*
G75*
G02*
X161539203Y-113432728I2515281J-353500D01*
G01*
X161985555Y-119927009D02*
G75*
G02*
X164693500Y-118364719I2354445J-952991D01*
G01*
%TO.C,SW12*%
X302060000Y-74574000D02*
X302060000Y-74955000D01*
X302441000Y-74955000D02*
X302060000Y-74955000D01*
X302060000Y-71145000D02*
X302060000Y-71526000D01*
X304600000Y-68605000D02*
X313490000Y-68605000D01*
X313490000Y-72034000D02*
X313490000Y-73050000D01*
X313490000Y-73050000D02*
X308410000Y-73050000D01*
X313490000Y-68605000D02*
X313490000Y-68986000D01*
X305945838Y-74955000D02*
X304219000Y-74955000D01*
X302060000Y-71145000D02*
G75*
G02*
X304600000Y-68605000I2540000J0D01*
G01*
X305945838Y-74973960D02*
G75*
G02*
X308410000Y-73050000I2464162J-616040D01*
G01*
%TO.C,SW20*%
X224278438Y-95705978D02*
X224331463Y-96083270D01*
X213313173Y-99812008D02*
X213366198Y-100189300D01*
X224755662Y-99101607D02*
X224897062Y-100107720D01*
X215474955Y-96943227D02*
X224278438Y-95705978D01*
X224897062Y-100107720D02*
X219866500Y-100814719D01*
X213790398Y-103207637D02*
X213843423Y-103584929D01*
X214220715Y-103531904D02*
X213843423Y-103584929D01*
X217691444Y-103044125D02*
X215981412Y-103284454D01*
X213313173Y-99812007D02*
G75*
G02*
X215474955Y-96943227I2515281J353499D01*
G01*
X217694083Y-103062900D02*
G75*
G02*
X219866500Y-100814719I2525917J-267100D01*
G01*
%TO.C,SW42*%
X177112686Y-134879977D02*
X177059661Y-135257269D01*
X165287465Y-139630456D02*
X164910173Y-139577431D01*
X165440422Y-135804509D02*
X165387397Y-136181801D01*
X168758194Y-140118235D02*
X167048161Y-139877905D01*
X164963198Y-139200138D02*
X164910173Y-139577431D01*
X176494061Y-139281718D02*
X171463500Y-138574719D01*
X176635461Y-138275606D02*
X176494061Y-139281718D01*
X168309203Y-133642728D02*
X177112686Y-134879977D01*
X165440422Y-135804509D02*
G75*
G02*
X168309203Y-133642728I2515281J-353500D01*
G01*
X168755555Y-140137009D02*
G75*
G02*
X171463500Y-138574719I2354445J-952991D01*
G01*
%TO.C,SW38*%
X295010000Y-107085000D02*
X295010000Y-107466000D01*
X286120000Y-107085000D02*
X295010000Y-107085000D01*
X295010000Y-110514000D02*
X295010000Y-111530000D01*
X283580000Y-113054000D02*
X283580000Y-113435000D01*
X287465838Y-113435000D02*
X285739000Y-113435000D01*
X283961000Y-113435000D02*
X283580000Y-113435000D01*
X295010000Y-111530000D02*
X289930000Y-111530000D01*
X283580000Y-109625000D02*
X283580000Y-110006000D01*
X283580000Y-109625000D02*
G75*
G02*
X286120000Y-107085000I2540000J0D01*
G01*
X287465838Y-113453960D02*
G75*
G02*
X289930000Y-111530000I2464162J-616040D01*
G01*
%TO.C,SW44*%
X264958438Y-128465978D02*
X265011463Y-128843270D01*
X265435662Y-131861607D02*
X265577062Y-132867720D01*
X265577062Y-132867720D02*
X260546500Y-133574719D01*
X254900715Y-136291904D02*
X254523423Y-136344929D01*
X253993173Y-132572008D02*
X254046198Y-132949300D01*
X258371444Y-135804125D02*
X256661412Y-136044454D01*
X256154955Y-129703227D02*
X264958438Y-128465978D01*
X254470398Y-135967637D02*
X254523423Y-136344929D01*
X253993173Y-132572007D02*
G75*
G02*
X256154955Y-129703227I2515281J353499D01*
G01*
X258374083Y-135822900D02*
G75*
G02*
X260546500Y-133574719I2525917J-267100D01*
G01*
%TO.C,SW35*%
X267501444Y-115284125D02*
X265791412Y-115524454D01*
X263123173Y-112052008D02*
X263176198Y-112429300D01*
X263600398Y-115447637D02*
X263653423Y-115824929D01*
X264030715Y-115771904D02*
X263653423Y-115824929D01*
X274565662Y-111341607D02*
X274707062Y-112347720D01*
X274707062Y-112347720D02*
X269676500Y-113054719D01*
X274088438Y-107945978D02*
X274141463Y-108323270D01*
X265284955Y-109183227D02*
X274088438Y-107945978D01*
X263123173Y-112052007D02*
G75*
G02*
X265284955Y-109183227I2515281J353499D01*
G01*
X267504083Y-115302900D02*
G75*
G02*
X269676500Y-113054719I2525917J-267100D01*
G01*
%TO.C,SW6*%
X168690422Y-78544509D02*
X168637397Y-78921801D01*
X172008194Y-82858235D02*
X170298161Y-82617905D01*
X179744061Y-82021718D02*
X174713500Y-81314719D01*
X168213198Y-81940138D02*
X168160173Y-82317431D01*
X179885461Y-81015606D02*
X179744061Y-82021718D01*
X180362686Y-77619977D02*
X180309661Y-77997269D01*
X171559203Y-76382728D02*
X180362686Y-77619977D01*
X168537465Y-82370456D02*
X168160173Y-82317431D01*
X168690422Y-78544509D02*
G75*
G02*
X171559203Y-76382728I2515281J-353500D01*
G01*
X172005555Y-82877009D02*
G75*
G02*
X174713500Y-81314719I2354445J-952991D01*
G01*
%TO.C,SW11*%
X283401000Y-74945000D02*
X283020000Y-74945000D01*
X294450000Y-68595000D02*
X294450000Y-68976000D01*
X283020000Y-71135000D02*
X283020000Y-71516000D01*
X285560000Y-68595000D02*
X294450000Y-68595000D01*
X294450000Y-73040000D02*
X289370000Y-73040000D01*
X286905838Y-74945000D02*
X285179000Y-74945000D01*
X294450000Y-72024000D02*
X294450000Y-73040000D01*
X283020000Y-74564000D02*
X283020000Y-74945000D01*
X283020000Y-71135000D02*
G75*
G02*
X285560000Y-68595000I2540000J0D01*
G01*
X286905838Y-74963960D02*
G75*
G02*
X289370000Y-73040000I2464162J-616040D01*
G01*
%TO.C,SW41*%
X134790422Y-131484509D02*
X134737397Y-131861801D01*
X137659203Y-129322728D02*
X146462686Y-130559977D01*
X146462686Y-130559977D02*
X146409661Y-130937269D01*
X145844061Y-134961718D02*
X140813500Y-134254719D01*
X134637465Y-135310456D02*
X134260173Y-135257431D01*
X145985461Y-133955606D02*
X145844061Y-134961718D01*
X138108194Y-135798235D02*
X136398161Y-135557905D01*
X134313198Y-134880138D02*
X134260173Y-135257431D01*
X138105555Y-135817009D02*
G75*
G02*
X140813500Y-134254719I2354445J-952991D01*
G01*
X134790422Y-131484509D02*
G75*
G02*
X137659203Y-129322728I2515281J-353500D01*
G01*
%TO.C,SW22*%
X262018438Y-90405978D02*
X262071463Y-90783270D01*
X262495662Y-93801607D02*
X262637062Y-94807720D01*
X251053173Y-94512008D02*
X251106198Y-94889300D01*
X255431444Y-97744125D02*
X253721412Y-97984454D01*
X251530398Y-97907637D02*
X251583423Y-98284929D01*
X251960715Y-98231904D02*
X251583423Y-98284929D01*
X253214955Y-91643227D02*
X262018438Y-90405978D01*
X262637062Y-94807720D02*
X257606500Y-95514719D01*
X255434083Y-97762900D02*
G75*
G02*
X257606500Y-95514719I2525917J-267100D01*
G01*
X251053173Y-94512007D02*
G75*
G02*
X253214955Y-91643227I2515281J353499D01*
G01*
%TO.C,SW27*%
X104125838Y-113295000D02*
X102399000Y-113295000D01*
X111670000Y-111390000D02*
X106590000Y-111390000D01*
X100240000Y-109485000D02*
X100240000Y-109866000D01*
X102780000Y-106945000D02*
X111670000Y-106945000D01*
X100240000Y-112914000D02*
X100240000Y-113295000D01*
X111670000Y-106945000D02*
X111670000Y-107326000D01*
X111670000Y-110374000D02*
X111670000Y-111390000D01*
X100621000Y-113295000D02*
X100240000Y-113295000D01*
X104125838Y-113313960D02*
G75*
G02*
X106590000Y-111390000I2464162J-616040D01*
G01*
X100240000Y-109485000D02*
G75*
G02*
X102780000Y-106945000I2540000J0D01*
G01*
%TO.C,SW16*%
X117468194Y-94438235D02*
X115758161Y-94197905D01*
X125204061Y-93601718D02*
X120173500Y-92894719D01*
X114150422Y-90124509D02*
X114097397Y-90501801D01*
X117019203Y-87962728D02*
X125822686Y-89199977D01*
X113997465Y-93950456D02*
X113620173Y-93897431D01*
X113673198Y-93520138D02*
X113620173Y-93897431D01*
X125822686Y-89199977D02*
X125769661Y-89577269D01*
X125345461Y-92595606D02*
X125204061Y-93601718D01*
X117465555Y-94457009D02*
G75*
G02*
X120173500Y-92894719I2354445J-952991D01*
G01*
X114150422Y-90124509D02*
G75*
G02*
X117019203Y-87962728I2515281J-353500D01*
G01*
%TO.C,SW1*%
X72430000Y-70995000D02*
X72430000Y-71376000D01*
X83860000Y-68455000D02*
X83860000Y-68836000D01*
X83860000Y-71884000D02*
X83860000Y-72900000D01*
X72430000Y-74424000D02*
X72430000Y-74805000D01*
X74970000Y-68455000D02*
X83860000Y-68455000D01*
X76315838Y-74805000D02*
X74589000Y-74805000D01*
X72811000Y-74805000D02*
X72430000Y-74805000D01*
X83860000Y-72900000D02*
X78780000Y-72900000D01*
X76315838Y-74823960D02*
G75*
G02*
X78780000Y-72900000I2464162J-616040D01*
G01*
X72430000Y-70995000D02*
G75*
G02*
X74970000Y-68455000I2540000J0D01*
G01*
%TO.C,SW3*%
X115398194Y-74898235D02*
X113688161Y-74657905D01*
X112080422Y-70584509D02*
X112027397Y-70961801D01*
X114949203Y-68422728D02*
X123752686Y-69659977D01*
X123134061Y-74061718D02*
X118103500Y-73354719D01*
X123275461Y-73055606D02*
X123134061Y-74061718D01*
X111603198Y-73980138D02*
X111550173Y-74357431D01*
X123752686Y-69659977D02*
X123699661Y-70037269D01*
X111927465Y-74410456D02*
X111550173Y-74357431D01*
X115395555Y-74917009D02*
G75*
G02*
X118103500Y-73354719I2354445J-952991D01*
G01*
X112080422Y-70584509D02*
G75*
G02*
X114949203Y-68422728I2515281J-353500D01*
G01*
%TO.C,SW34*%
X246434955Y-111833227D02*
X255238438Y-110595978D01*
X255715662Y-113991607D02*
X255857062Y-114997720D01*
X245180715Y-118421904D02*
X244803423Y-118474929D01*
X255857062Y-114997720D02*
X250826500Y-115704719D01*
X244273173Y-114702008D02*
X244326198Y-115079300D01*
X244750398Y-118097637D02*
X244803423Y-118474929D01*
X255238438Y-110595978D02*
X255291463Y-110973270D01*
X248651444Y-117934125D02*
X246941412Y-118174454D01*
X244273173Y-114702007D02*
G75*
G02*
X246434955Y-111833227I2515281J353499D01*
G01*
X248654083Y-117952900D02*
G75*
G02*
X250826500Y-115704719I2525917J-267100D01*
G01*
%TO.C,SW28*%
X132125461Y-112775606D02*
X131984061Y-113781718D01*
X120930422Y-110304509D02*
X120877397Y-110681801D01*
X124248194Y-114618235D02*
X122538161Y-114377905D01*
X132602686Y-109379977D02*
X132549661Y-109757269D01*
X120777465Y-114130456D02*
X120400173Y-114077431D01*
X123799203Y-108142728D02*
X132602686Y-109379977D01*
X120453198Y-113700138D02*
X120400173Y-114077431D01*
X131984061Y-113781718D02*
X126953500Y-113074719D01*
X120930422Y-110304509D02*
G75*
G02*
X123799203Y-108142728I2515281J-353500D01*
G01*
X124245555Y-114637009D02*
G75*
G02*
X126953500Y-113074719I2354445J-952991D01*
G01*
%TO.C,SW15*%
X93580000Y-93674000D02*
X93580000Y-94055000D01*
X105010000Y-92150000D02*
X99930000Y-92150000D01*
X93580000Y-90245000D02*
X93580000Y-90626000D01*
X105010000Y-91134000D02*
X105010000Y-92150000D01*
X93961000Y-94055000D02*
X93580000Y-94055000D01*
X97465838Y-94055000D02*
X95739000Y-94055000D01*
X96120000Y-87705000D02*
X105010000Y-87705000D01*
X105010000Y-87705000D02*
X105010000Y-88086000D01*
X93580000Y-90245000D02*
G75*
G02*
X96120000Y-87705000I2540000J0D01*
G01*
X97465838Y-94073960D02*
G75*
G02*
X99930000Y-92150000I2464162J-616040D01*
G01*
%TO.C,SW29*%
X139800422Y-112954509D02*
X139747397Y-113331801D01*
X143118194Y-117268235D02*
X141408161Y-117027905D01*
X139647465Y-116780456D02*
X139270173Y-116727431D01*
X139323198Y-116350138D02*
X139270173Y-116727431D01*
X150854061Y-116431718D02*
X145823500Y-115724719D01*
X142669203Y-110792728D02*
X151472686Y-112029977D01*
X150995461Y-115425606D02*
X150854061Y-116431718D01*
X151472686Y-112029977D02*
X151419661Y-112407269D01*
X143115555Y-117287009D02*
G75*
G02*
X145823500Y-115724719I2354445J-952991D01*
G01*
X139800422Y-112954509D02*
G75*
G02*
X142669203Y-110792728I2515281J-353500D01*
G01*
%TO.C,SW14*%
X83670000Y-87705000D02*
X83670000Y-88086000D01*
X72240000Y-93674000D02*
X72240000Y-94055000D01*
X72240000Y-90245000D02*
X72240000Y-90626000D01*
X74780000Y-87705000D02*
X83670000Y-87705000D01*
X76125838Y-94055000D02*
X74399000Y-94055000D01*
X83670000Y-92150000D02*
X78590000Y-92150000D01*
X83670000Y-91134000D02*
X83670000Y-92150000D01*
X72621000Y-94055000D02*
X72240000Y-94055000D01*
X72240000Y-90245000D02*
G75*
G02*
X74780000Y-87705000I2540000J0D01*
G01*
X76125838Y-94073960D02*
G75*
G02*
X78590000Y-92150000I2464162J-616040D01*
G01*
%TO.C,SW5*%
X149333198Y-79290138D02*
X149280173Y-79667431D01*
X149657465Y-79720456D02*
X149280173Y-79667431D01*
X161482686Y-74969977D02*
X161429661Y-75347269D01*
X152679203Y-73732728D02*
X161482686Y-74969977D01*
X161005461Y-78365606D02*
X160864061Y-79371718D01*
X149810422Y-75894509D02*
X149757397Y-76271801D01*
X160864061Y-79371718D02*
X155833500Y-78664719D01*
X153128194Y-80208235D02*
X151418161Y-79967905D01*
X153125555Y-80227009D02*
G75*
G02*
X155833500Y-78664719I2354445J-952991D01*
G01*
X149810422Y-75894509D02*
G75*
G02*
X152679203Y-73732728I2515281J-353500D01*
G01*
%TO.C,SW25*%
X317011000Y-94195000D02*
X316630000Y-94195000D01*
X328060000Y-87845000D02*
X328060000Y-88226000D01*
X316630000Y-93814000D02*
X316630000Y-94195000D01*
X320515838Y-94195000D02*
X318789000Y-94195000D01*
X316630000Y-90385000D02*
X316630000Y-90766000D01*
X328060000Y-92290000D02*
X322980000Y-92290000D01*
X328060000Y-91274000D02*
X328060000Y-92290000D01*
X319170000Y-87845000D02*
X328060000Y-87845000D01*
X316630000Y-90385000D02*
G75*
G02*
X319170000Y-87845000I2540000J0D01*
G01*
X320515838Y-94213960D02*
G75*
G02*
X322980000Y-92290000I2464162J-616040D01*
G01*
%TO.C,SW19*%
X174058194Y-102398235D02*
X172348161Y-102157905D01*
X173609203Y-95922728D02*
X182412686Y-97159977D01*
X182412686Y-97159977D02*
X182359661Y-97537269D01*
X170263198Y-101480138D02*
X170210173Y-101857431D01*
X170587465Y-101910456D02*
X170210173Y-101857431D01*
X170740422Y-98084509D02*
X170687397Y-98461801D01*
X181794061Y-101561718D02*
X176763500Y-100854719D01*
X181935461Y-100555606D02*
X181794061Y-101561718D01*
X170740422Y-98084509D02*
G75*
G02*
X173609203Y-95922728I2515281J-353500D01*
G01*
X174055555Y-102417009D02*
G75*
G02*
X176763500Y-100854719I2354445J-952991D01*
G01*
%TO.C,SW21*%
X236561444Y-100394125D02*
X234851412Y-100634454D01*
X233090715Y-100881904D02*
X232713423Y-100934929D01*
X232183173Y-97162008D02*
X232236198Y-97539300D01*
X234344955Y-94293227D02*
X243148438Y-93055978D01*
X243625662Y-96451607D02*
X243767062Y-97457720D01*
X232660398Y-100557637D02*
X232713423Y-100934929D01*
X243767062Y-97457720D02*
X238736500Y-98164719D01*
X243148438Y-93055978D02*
X243201463Y-93433270D01*
X232183173Y-97162007D02*
G75*
G02*
X234344955Y-94293227I2515281J353499D01*
G01*
X236564083Y-100412900D02*
G75*
G02*
X238736500Y-98164719I2525917J-267100D01*
G01*
%TO.C,SW10*%
X274127062Y-73937720D02*
X269096500Y-74644719D01*
X273985662Y-72931607D02*
X274127062Y-73937720D01*
X264704955Y-70773227D02*
X273508438Y-69535978D01*
X263020398Y-77037637D02*
X263073423Y-77414929D01*
X273508438Y-69535978D02*
X273561463Y-69913270D01*
X266921444Y-76874125D02*
X265211412Y-77114454D01*
X263450715Y-77361904D02*
X263073423Y-77414929D01*
X262543173Y-73642008D02*
X262596198Y-74019300D01*
X262543173Y-73642007D02*
G75*
G02*
X264704955Y-70773227I2515281J353499D01*
G01*
X266924083Y-76892900D02*
G75*
G02*
X269096500Y-74644719I2525917J-267100D01*
G01*
%TO.C,SW23*%
X269913173Y-91862008D02*
X269966198Y-92239300D01*
X272074955Y-88993227D02*
X280878438Y-87755978D01*
X270390398Y-95257637D02*
X270443423Y-95634929D01*
X281497062Y-92157720D02*
X276466500Y-92864719D01*
X280878438Y-87755978D02*
X280931463Y-88133270D01*
X270820715Y-95581904D02*
X270443423Y-95634929D01*
X274291444Y-95094125D02*
X272581412Y-95334454D01*
X281355662Y-91151607D02*
X281497062Y-92157720D01*
X274294083Y-95112900D02*
G75*
G02*
X276466500Y-92864719I2525917J-267100D01*
G01*
X269913173Y-91862007D02*
G75*
G02*
X272074955Y-88993227I2515281J353499D01*
G01*
%TO.C,SW36*%
X302640000Y-109615000D02*
X302640000Y-109996000D01*
X314070000Y-110504000D02*
X314070000Y-111520000D01*
X314070000Y-111520000D02*
X308990000Y-111520000D01*
X302640000Y-113044000D02*
X302640000Y-113425000D01*
X306525838Y-113425000D02*
X304799000Y-113425000D01*
X305180000Y-107075000D02*
X314070000Y-107075000D01*
X303021000Y-113425000D02*
X302640000Y-113425000D01*
X314070000Y-107075000D02*
X314070000Y-107456000D01*
X306525838Y-113443960D02*
G75*
G02*
X308990000Y-111520000I2464162J-616040D01*
G01*
X302640000Y-109615000D02*
G75*
G02*
X305180000Y-107075000I2540000J0D01*
G01*
%TO.C,SW32*%
X208684955Y-117133227D02*
X217488438Y-115895978D01*
X206523173Y-120002008D02*
X206576198Y-120379300D01*
X217965662Y-119291607D02*
X218107062Y-120297720D01*
X207430715Y-123721904D02*
X207053423Y-123774929D01*
X218107062Y-120297720D02*
X213076500Y-121004719D01*
X210901444Y-123234125D02*
X209191412Y-123474454D01*
X207000398Y-123397637D02*
X207053423Y-123774929D01*
X217488438Y-115895978D02*
X217541463Y-116273270D01*
X210904083Y-123252900D02*
G75*
G02*
X213076500Y-121004719I2525917J-267100D01*
G01*
X206523173Y-120002007D02*
G75*
G02*
X208684955Y-117133227I2515281J353499D01*
G01*
%TO.C,SW18*%
X162934061Y-98901718D02*
X157903500Y-98194719D01*
X163552686Y-94499977D02*
X163499661Y-94877269D01*
X163075461Y-97895606D02*
X162934061Y-98901718D01*
X151403198Y-98820138D02*
X151350173Y-99197431D01*
X151880422Y-95424509D02*
X151827397Y-95801801D01*
X155198194Y-99738235D02*
X153488161Y-99497905D01*
X151727465Y-99250456D02*
X151350173Y-99197431D01*
X154749203Y-93262728D02*
X163552686Y-94499977D01*
X151880422Y-95424509D02*
G75*
G02*
X154749203Y-93262728I2515281J-353500D01*
G01*
X155195555Y-99757009D02*
G75*
G02*
X157903500Y-98194719I2354445J-952991D01*
G01*
%TO.C,SW40*%
X97730000Y-126195000D02*
X106620000Y-126195000D01*
X95571000Y-132545000D02*
X95190000Y-132545000D01*
X106620000Y-126195000D02*
X106620000Y-126576000D01*
X95190000Y-128735000D02*
X95190000Y-129116000D01*
X95190000Y-132164000D02*
X95190000Y-132545000D01*
X106620000Y-129624000D02*
X106620000Y-130640000D01*
X99075838Y-132545000D02*
X97349000Y-132545000D01*
X106620000Y-130640000D02*
X101540000Y-130640000D01*
X95190000Y-128735000D02*
G75*
G02*
X97730000Y-126195000I2540000J0D01*
G01*
X99075838Y-132563960D02*
G75*
G02*
X101540000Y-130640000I2464162J-616040D01*
G01*
%TO.C,SW9*%
X255257062Y-76597720D02*
X250226500Y-77304719D01*
X243673173Y-76302008D02*
X243726198Y-76679300D01*
X254638438Y-72195978D02*
X254691463Y-72573270D01*
X245834955Y-73433227D02*
X254638438Y-72195978D01*
X255115662Y-75591607D02*
X255257062Y-76597720D01*
X244580715Y-80021904D02*
X244203423Y-80074929D01*
X248051444Y-79534125D02*
X246341412Y-79774454D01*
X244150398Y-79697637D02*
X244203423Y-80074929D01*
X243673173Y-76302007D02*
G75*
G02*
X245834955Y-73433227I2515281J353499D01*
G01*
X248054083Y-79552900D02*
G75*
G02*
X250226500Y-77304719I2525917J-267100D01*
G01*
%TO.C,SW45*%
X298531000Y-132655000D02*
X298150000Y-132655000D01*
X300690000Y-126305000D02*
X309580000Y-126305000D01*
X302035838Y-132655000D02*
X300309000Y-132655000D01*
X309580000Y-126305000D02*
X309580000Y-126686000D01*
X309580000Y-129734000D02*
X309580000Y-130750000D01*
X309580000Y-130750000D02*
X304500000Y-130750000D01*
X298150000Y-132274000D02*
X298150000Y-132655000D01*
X298150000Y-128845000D02*
X298150000Y-129226000D01*
X302035838Y-132673960D02*
G75*
G02*
X304500000Y-130750000I2464162J-616040D01*
G01*
X298150000Y-128845000D02*
G75*
G02*
X300690000Y-126305000I2540000J0D01*
G01*
D13*
%TO.C,D2*%
X89260000Y-81330000D02*
X89260000Y-77480000D01*
X91260000Y-81330000D02*
X91260000Y-77480000D01*
X91260000Y-81330000D02*
X89260000Y-81330000D01*
%TO.C,D37*%
X323870000Y-119930000D02*
X323870000Y-116080000D01*
X323870000Y-119930000D02*
X321870000Y-119930000D01*
X321870000Y-119930000D02*
X321870000Y-116080000D01*
%TO.C,D44*%
X253245913Y-143197763D02*
X252710096Y-139385231D01*
X255226449Y-142919417D02*
X253245913Y-143197763D01*
X255226449Y-142919417D02*
X254690632Y-139106885D01*
%TO.C,L1*%
X228578248Y-93921219D02*
X235807204Y-92905255D01*
X235041752Y-87458781D02*
X235201801Y-88597589D01*
X227812796Y-88474745D02*
X235041752Y-87458781D01*
%TO.C,D1*%
X70180000Y-81130000D02*
X70180000Y-77280000D01*
X72180000Y-81130000D02*
X70180000Y-81130000D01*
X72180000Y-81130000D02*
X72180000Y-77280000D01*
%TO.C,L7*%
X106690000Y-87520000D02*
X106690000Y-86370000D01*
X113990000Y-87520000D02*
X106690000Y-87520000D01*
X113990000Y-82020000D02*
X106690000Y-82020000D01*
%TO.C,D25*%
X316470000Y-100710000D02*
X316470000Y-96860000D01*
X314470000Y-100710000D02*
X314470000Y-96860000D01*
X316470000Y-100710000D02*
X314470000Y-100710000D01*
%TO.C,D24*%
X290250000Y-100730000D02*
X288250000Y-100730000D01*
X290250000Y-100730000D02*
X290250000Y-96880000D01*
X288250000Y-100730000D02*
X288250000Y-96880000D01*
%TO.C,D3*%
X110454087Y-80917763D02*
X110989904Y-77105231D01*
X108473551Y-80639417D02*
X109009368Y-76826885D01*
X110454087Y-80917763D02*
X108473551Y-80639417D01*
%TO.C,D30*%
X156994087Y-125877763D02*
X155013551Y-125599417D01*
X156994087Y-125877763D02*
X157529904Y-122065231D01*
X155013551Y-125599417D02*
X155549368Y-121786885D01*
%TO.C,D15*%
X93400000Y-100270000D02*
X93400000Y-96420000D01*
X93400000Y-100270000D02*
X91400000Y-100270000D01*
X91400000Y-100270000D02*
X91400000Y-96420000D01*
%TO.C,L2*%
X311220000Y-86810000D02*
X318520000Y-86810000D01*
X318520000Y-81310000D02*
X318520000Y-82460000D01*
X311220000Y-81310000D02*
X318520000Y-81310000D01*
%TO.C,D38*%
X283430000Y-120080000D02*
X281430000Y-120080000D01*
X281430000Y-120080000D02*
X281430000Y-116230000D01*
X283430000Y-120080000D02*
X283430000Y-116230000D01*
%TO.C,D39*%
X69180000Y-139050000D02*
X69180000Y-135200000D01*
X71180000Y-139050000D02*
X69180000Y-139050000D01*
X71180000Y-139050000D02*
X71180000Y-135200000D01*
%TO.C,D14*%
X72060000Y-100330000D02*
X70060000Y-100330000D01*
X72060000Y-100330000D02*
X72060000Y-96480000D01*
X70060000Y-100330000D02*
X70060000Y-96480000D01*
%TO.C,L8*%
X155191752Y-92481219D02*
X147962796Y-91465255D01*
X155957204Y-87034745D02*
X148728248Y-86018781D01*
X147962796Y-91465255D02*
X148122845Y-90326447D01*
%TO.C,D13*%
X320900000Y-81462500D02*
X318900000Y-81462500D01*
X320900000Y-81462500D02*
X320900000Y-77612500D01*
X318900000Y-81462500D02*
X318900000Y-77612500D01*
%TO.C,L5*%
X156897204Y-135264745D02*
X156737155Y-136403553D01*
X149668248Y-134248781D02*
X156897204Y-135264745D01*
X148902796Y-139695255D02*
X156131752Y-140711219D01*
%TO.C,D26*%
X71880000Y-119542500D02*
X71880000Y-115692500D01*
X73880000Y-119542500D02*
X73880000Y-115692500D01*
X73880000Y-119542500D02*
X71880000Y-119542500D01*
%TO.C,D6*%
X167084087Y-88697763D02*
X165103551Y-88419417D01*
X167084087Y-88697763D02*
X167619904Y-84885231D01*
X165103551Y-88419417D02*
X165639368Y-84606885D01*
%TO.C,RESET1*%
X180020000Y-69042500D02*
X180020000Y-69272500D01*
X178380000Y-69042500D02*
X174980000Y-69042500D01*
X180020000Y-69042500D02*
X179480000Y-69042500D01*
X180540000Y-65372500D02*
X180540000Y-69272500D01*
X172820000Y-65372500D02*
X172820000Y-69272500D01*
X180540000Y-65372500D02*
X172820000Y-65372500D01*
X173880000Y-69042500D02*
X173340000Y-69042500D01*
X173340000Y-69042500D02*
X173340000Y-69272500D01*
%TO.C,D5*%
X148184087Y-86187763D02*
X148719904Y-82375231D01*
X148184087Y-86187763D02*
X146203551Y-85909417D01*
X146203551Y-85909417D02*
X146739368Y-82096885D01*
%TO.C,D17*%
X131384087Y-103007763D02*
X129403551Y-102729417D01*
X131384087Y-103007763D02*
X131919904Y-99195231D01*
X129403551Y-102729417D02*
X129939368Y-98916885D01*
%TO.C,L3*%
X297830000Y-120830000D02*
X297830000Y-121980000D01*
X290530000Y-126330000D02*
X297830000Y-126330000D01*
X290530000Y-120830000D02*
X297830000Y-120830000D01*
%TO.C,L4*%
X243218248Y-139701219D02*
X243058199Y-138562411D01*
X249681752Y-133238781D02*
X242452796Y-134254745D01*
X250447204Y-138685255D02*
X243218248Y-139701219D01*
%TO.C,D35*%
X262415913Y-122667763D02*
X261880096Y-118855231D01*
X264396449Y-122389417D02*
X263860632Y-118576885D01*
X264396449Y-122389417D02*
X262415913Y-122667763D01*
%TO.C,D21*%
X231455913Y-107827763D02*
X230920096Y-104015231D01*
X233436449Y-107549417D02*
X232900632Y-103736885D01*
X233436449Y-107549417D02*
X231455913Y-107827763D01*
%TO.C,D32*%
X207756449Y-130319417D02*
X207220632Y-126506885D01*
X205775913Y-130597763D02*
X205240096Y-126785231D01*
X207756449Y-130319417D02*
X205775913Y-130597763D01*
%TO.C,D36*%
X300400000Y-119952500D02*
X300400000Y-116102500D01*
X302400000Y-119952500D02*
X300400000Y-119952500D01*
X302400000Y-119952500D02*
X302400000Y-116102500D01*
%TO.C,D8*%
X226046449Y-89309417D02*
X224065913Y-89587763D01*
X224065913Y-89587763D02*
X223530096Y-85775231D01*
X226046449Y-89309417D02*
X225510632Y-85496885D01*
%TO.C,D11*%
X282840000Y-81412500D02*
X282840000Y-77562500D01*
X282840000Y-81412500D02*
X280840000Y-81412500D01*
X280840000Y-81412500D02*
X280840000Y-77562500D01*
%TO.C,D19*%
X167103551Y-108069417D02*
X167639368Y-104256885D01*
X169084087Y-108347763D02*
X167103551Y-108069417D01*
X169084087Y-108347763D02*
X169619904Y-104535231D01*
%TO.C,D18*%
X150214087Y-105727763D02*
X150749904Y-101915231D01*
X148233551Y-105449417D02*
X148769368Y-101636885D01*
X150214087Y-105727763D02*
X148233551Y-105449417D01*
%TO.C,L6*%
X117880000Y-123690000D02*
X125180000Y-123690000D01*
X117880000Y-129190000D02*
X125180000Y-129190000D01*
X125180000Y-123690000D02*
X125180000Y-124840000D01*
%TO.C,D4*%
X127343551Y-83209417D02*
X127879368Y-79396885D01*
X129324087Y-83487763D02*
X129859904Y-79675231D01*
X129324087Y-83487763D02*
X127343551Y-83209417D01*
%TO.C,D16*%
X112534087Y-100297763D02*
X110553551Y-100019417D01*
X110553551Y-100019417D02*
X111089368Y-96206885D01*
X112534087Y-100297763D02*
X113069904Y-96485231D01*
%TO.C,D23*%
X269115913Y-102307763D02*
X268580096Y-98495231D01*
X271096449Y-102029417D02*
X269115913Y-102307763D01*
X271096449Y-102029417D02*
X270560632Y-98216885D01*
%TO.C,D10*%
X263796449Y-84029417D02*
X263260632Y-80216885D01*
X261815913Y-84307763D02*
X261280096Y-80495231D01*
X263796449Y-84029417D02*
X261815913Y-84307763D01*
%TO.C,D27*%
X98080000Y-119512500D02*
X98080000Y-115662500D01*
X100080000Y-119512500D02*
X100080000Y-115662500D01*
X100080000Y-119512500D02*
X98080000Y-119512500D01*
%TO.C,D42*%
X163764087Y-146157763D02*
X164299904Y-142345231D01*
X161783551Y-145879417D02*
X162319368Y-142066885D01*
X163764087Y-146157763D02*
X161783551Y-145879417D01*
%TO.C,D20*%
X214546449Y-110229417D02*
X212565913Y-110507763D01*
X212565913Y-110507763D02*
X212030096Y-106695231D01*
X214546449Y-110229417D02*
X214010632Y-106416885D01*
%TO.C,D22*%
X252246449Y-104609417D02*
X250265913Y-104887763D01*
X250265913Y-104887763D02*
X249730096Y-101075231D01*
X252246449Y-104609417D02*
X251710632Y-100796885D01*
%TO.C,D31*%
X173893551Y-128329417D02*
X174429368Y-124516885D01*
X175874087Y-128607763D02*
X173893551Y-128329417D01*
X175874087Y-128607763D02*
X176409904Y-124795231D01*
%TO.C,D34*%
X245531607Y-124893042D02*
X244995790Y-121080510D01*
X243551071Y-125171388D02*
X243015254Y-121358856D01*
X245531607Y-124893042D02*
X243551071Y-125171388D01*
%TO.C,D41*%
X133214087Y-141657763D02*
X133749904Y-137845231D01*
X131233551Y-141379417D02*
X131769368Y-137566885D01*
X133214087Y-141657763D02*
X131233551Y-141379417D01*
%TO.C,D33*%
X224635913Y-127827763D02*
X224100096Y-124015231D01*
X226616449Y-127549417D02*
X224635913Y-127827763D01*
X226616449Y-127549417D02*
X226080632Y-123736885D01*
%TO.C,D43*%
X222236449Y-147669417D02*
X220255913Y-147947763D01*
X220255913Y-147947763D02*
X219720096Y-144135231D01*
X222236449Y-147669417D02*
X221700632Y-143856885D01*
%TO.C,D46*%
X321700000Y-139220000D02*
X319700000Y-139220000D01*
X321700000Y-139220000D02*
X321700000Y-135370000D01*
X319700000Y-139220000D02*
X319700000Y-135370000D01*
%TO.C,D7*%
X205225913Y-92147763D02*
X204690096Y-88335231D01*
X207206449Y-91869417D02*
X205225913Y-92147763D01*
X207206449Y-91869417D02*
X206670632Y-88056885D01*
%TO.C,D9*%
X244976449Y-86679417D02*
X242995913Y-86957763D01*
X244976449Y-86679417D02*
X244440632Y-82866885D01*
X242995913Y-86957763D02*
X242460096Y-83145231D01*
%TO.C,D28*%
X117313551Y-120219417D02*
X117849368Y-116406885D01*
X119294087Y-120497763D02*
X119829904Y-116685231D01*
X119294087Y-120497763D02*
X117313551Y-120219417D01*
%TO.C,D29*%
X138114087Y-123147763D02*
X138649904Y-119335231D01*
X136133551Y-122869417D02*
X136669368Y-119056885D01*
X138114087Y-123147763D02*
X136133551Y-122869417D01*
%TO.C,D45*%
X297900000Y-139180000D02*
X297900000Y-135330000D01*
X295900000Y-139180000D02*
X295900000Y-135330000D01*
X297900000Y-139180000D02*
X295900000Y-139180000D01*
%TO.C,D40*%
X95040000Y-139092500D02*
X95040000Y-135242500D01*
X93040000Y-139092500D02*
X93040000Y-135242500D01*
X95040000Y-139092500D02*
X93040000Y-139092500D01*
%TO.C,D12*%
X301800000Y-81580000D02*
X299800000Y-81580000D01*
X301800000Y-81580000D02*
X301800000Y-77730000D01*
X299800000Y-81580000D02*
X299800000Y-77730000D01*
%TD*%
M02*
