M48
; DRILL file {KiCad (5.99.0-9176-ga1730d51ff)} date 07/22/21 23:15:34
; FORMAT={-:-/ absolute / inch / decimal}
; #@! TF.CreationDate,2021-07-22T23:15:34-05:00
; #@! TF.GenerationSoftware,Kicad,Pcbnew,(5.99.0-9176-ga1730d51ff)
; #@! TF.FileFunction,NonPlated,1,4,NPTH
FMAT,2
INCH
T1C0.0472
T2C0.0670
T3C0.1181
T4C0.1200
T5C0.1570
T6C0.1575
%
G90
G05
T1
X6.9559Y-2.6324
T2
X2.8594Y-5.2425
X2.8941Y-3.728
X2.9016Y-2.9701
X2.965Y-4.4854
X3.2594Y-5.2425
X3.2941Y-3.728
X3.3016Y-2.9701
X3.365Y-4.4854
X3.6512Y-2.9705
X3.7343Y-3.728
X3.7976Y-5.2433
X3.9965Y-4.4854
X4.0512Y-2.9705
X4.1343Y-3.728
X4.1976Y-5.2433
X4.3965Y-4.4854
X4.4378Y-2.9592
X4.5193Y-3.7285
X4.7862Y-4.523
X4.8339Y-3.0148
X4.9154Y-3.7841
X5.1807Y-3.0639
X5.1823Y-4.5786
X5.2622Y-3.8328
X5.3319Y-5.3568
X5.5291Y-4.6273
X5.5768Y-3.1196
X5.6583Y-3.8885
X5.728Y-5.4125
X5.9232Y-3.1682
X5.9252Y-4.683
X6.0047Y-3.9371
X6.272Y-4.7312
X6.3193Y-3.2239
X6.4008Y-3.9928
X6.5386Y-5.5269
X6.6665Y-3.2726
X6.6681Y-4.7869
X6.7472Y-4.0419
X6.9347Y-5.5826
X7.0142Y-4.8363
X7.0626Y-3.3282
X7.1433Y-4.0975
X7.4103Y-4.892
X8.1823Y-3.3794
X8.2047Y-4.8908
X8.472Y-4.0959
X8.5784Y-3.3237
X8.6008Y-4.8352
X8.7732Y-5.5684
X8.8681Y-4.0403
X8.9248Y-3.2755
X8.9484Y-4.7861
X9.1693Y-5.5127
X9.2149Y-3.9916
X9.3209Y-3.2198
X9.3445Y-4.7304
X9.611Y-3.9359
X9.6673Y-3.1704
X9.6909Y-4.6822
X9.9579Y-3.8873
X10.0634Y-3.1147
X10.0736Y-5.3857
X10.087Y-4.6265
X10.354Y-3.8316
X10.4102Y-3.0656
X10.433Y-4.5778
X10.4697Y-5.33
X10.7004Y-3.783
X10.8063Y-3.01
X10.8292Y-4.5222
X11.0965Y-3.7273
X11.1925Y-2.9756
X11.2146Y-4.4909
X11.485Y-3.7331
X11.5925Y-2.9756
X11.6146Y-4.4909
X11.7882Y-5.2476
X11.885Y-3.7331
X11.9421Y-2.976
X11.965Y-4.4906
X12.1882Y-5.2476
X12.3421Y-2.976
X12.365Y-4.4906
X12.5157Y-3.7335
X12.6917Y-2.9752
X12.726Y-5.2484
X12.8087Y-4.4906
X12.9157Y-3.7335
X13.0917Y-2.9752
X13.126Y-5.2484
X13.2087Y-4.4906
T3
X2.9094Y-5.1425
X2.9441Y-3.628
X2.9516Y-2.8701
X3.015Y-4.3854
X3.1594Y-5.0425
X3.1941Y-3.528
X3.2016Y-2.7701
X3.265Y-4.2854
X3.7012Y-2.8705
X3.7843Y-3.628
X3.8476Y-5.1433
X3.9512Y-2.7705
X4.0343Y-3.528
X4.0465Y-4.3854
X4.0976Y-5.0433
X4.2965Y-4.2854
X4.5012Y-2.8671
X4.5827Y-3.6364
X4.7627Y-2.8029
X4.8442Y-3.5722
X4.8496Y-4.4309
X5.1111Y-4.3667
X5.2441Y-2.9718
X5.3256Y-3.7407
X5.3953Y-5.2647
X5.5056Y-2.9076
X5.5871Y-3.6765
X5.5925Y-4.5352
X5.6568Y-5.2005
X5.854Y-4.471
X5.9866Y-3.0762
X6.0681Y-3.8451
X6.2481Y-3.0119
X6.3296Y-3.7808
X6.3355Y-4.6392
X6.5969Y-4.5749
X6.602Y-5.4348
X6.7299Y-3.1805
X6.8107Y-3.9498
X6.8635Y-5.3706
X6.9914Y-3.1163
X7.0721Y-3.8855
X7.0776Y-4.7443
X7.3391Y-4.68
X8.2179Y-3.2734
X8.2403Y-4.7848
X8.4515Y-3.1396
X8.4739Y-4.651
X8.5076Y-3.99
X8.7413Y-3.8561
X8.8088Y-5.4624
X8.9604Y-3.1695
X8.984Y-4.6801
X9.0425Y-5.3286
X9.194Y-3.0357
X9.2176Y-4.5463
X9.2505Y-3.8856
X9.4842Y-3.7518
X9.7029Y-3.0644
X9.7265Y-4.5762
X9.9365Y-2.9305
X9.9602Y-4.4424
X9.9934Y-3.7813
X10.1092Y-5.2797
X10.2271Y-3.6475
X10.3428Y-5.1459
X10.4458Y-2.9596
X10.4686Y-4.4718
X10.6795Y-2.8258
X10.7023Y-4.338
X10.736Y-3.677
X10.9696Y-3.5431
X11.2425Y-2.8756
X11.2646Y-4.3909
X11.4925Y-2.7756
X11.5146Y-4.2909
X11.535Y-3.6331
X11.785Y-3.5331
X11.8382Y-5.1476
X11.9921Y-2.876
X12.015Y-4.3906
X12.0882Y-5.0476
X12.2421Y-2.776
X12.265Y-4.2906
X12.5657Y-3.6335
X12.7417Y-2.8752
X12.776Y-5.1484
X12.8157Y-3.5335
X12.8587Y-4.3906
X12.9917Y-2.7752
X13.026Y-5.0484
X13.1087Y-4.2906
T4
X6.2343Y-5.7622
X7.1621Y-5.8926
X8.5457Y-5.8783
X9.4736Y-5.7479
T5
X3.0594Y-5.2425
X3.0941Y-3.728
X3.1016Y-2.9701
X3.165Y-4.4854
X3.8512Y-2.9705
X3.9343Y-3.728
X3.9976Y-5.2433
X4.1965Y-4.4854
X4.6358Y-2.987
X4.7173Y-3.7563
X4.9843Y-4.5508
X5.3787Y-3.0917
X5.4602Y-3.8606
X5.5299Y-5.3846
X5.7272Y-4.6551
X6.1213Y-3.1961
X6.2028Y-3.965
X6.3178Y-5.168
X6.4701Y-4.7591
X6.7366Y-5.5547
X6.8646Y-3.3004
X6.9453Y-4.0697
X7.2122Y-4.8642
X7.2456Y-5.2985
X8.3803Y-3.3516
X8.4028Y-4.863
X8.4622Y-5.2842
X8.6701Y-4.0681
X8.9713Y-5.5406
X9.1228Y-3.2476
X9.1465Y-4.7583
X9.3901Y-5.1538
X9.413Y-3.9638
X9.8654Y-3.1425
X9.889Y-4.6543
X10.1559Y-3.8594
X10.2717Y-5.3579
X10.6083Y-3.0378
X10.6311Y-4.55
X10.8984Y-3.7551
X11.3925Y-2.9756
X11.4146Y-4.4909
X11.685Y-3.7331
X11.9882Y-5.2476
X12.1421Y-2.976
X12.165Y-4.4906
X12.7157Y-3.7335
X12.8917Y-2.9752
X12.926Y-5.2484
X13.0087Y-4.4906
T6
X3.5024Y-3.3724
X3.5311Y-4.9272
X6.0244Y-5.0961
X6.4425Y-3.5957
X8.7945Y-3.6496
X9.5665Y-5.0528
X12.1457Y-3.4846
X12.4827Y-4.9228
T0
M30
