%TF.GenerationSoftware,KiCad,Pcbnew,(5.99.0-9176-ga1730d51ff)*%
%TF.CreationDate,2021-07-22T23:15:28-05:00*%
%TF.ProjectId,Sonata hotswap,536f6e61-7461-4206-986f-74737761702e,rev?*%
%TF.SameCoordinates,Original*%
%TF.FileFunction,Soldermask,Bot*%
%TF.FilePolarity,Negative*%
%FSLAX46Y46*%
G04 Gerber Fmt 4.6, Leading zero omitted, Abs format (unit mm)*
G04 Created by KiCad (PCBNEW (5.99.0-9176-ga1730d51ff)) date 2021-07-22 23:15:28*
%MOMM*%
%LPD*%
G01*
G04 APERTURE LIST*
G04 Aperture macros list*
%AMRotRect*
0 Rectangle, with rotation*
0 The origin of the aperture is its center*
0 $1 length*
0 $2 width*
0 $3 Rotation angle, in degrees counterclockwise*
0 Add horizontal line*
21,1,$1,$2,0,0,$3*%
G04 Aperture macros list end*
%ADD10C,3.987800*%
%ADD11C,3.000000*%
%ADD12C,1.701800*%
%ADD13R,2.550000X2.500000*%
%ADD14C,4.000000*%
%ADD15RotRect,2.550000X2.500000X8.000000*%
%ADD16RotRect,2.550000X2.500000X352.000000*%
%ADD17C,1.524000*%
%ADD18C,3.048000*%
%ADD19C,1.397000*%
%ADD20R,1.100000X1.100000*%
%ADD21RotRect,1.100000X1.100000X98.000000*%
%ADD22RotRect,1.500000X1.000000X8.000000*%
%ADD23R,1.500000X1.000000*%
%ADD24RotRect,1.100000X1.100000X82.000000*%
%ADD25RotRect,1.500000X1.000000X172.000000*%
%ADD26RotRect,1.500000X1.000000X352.000000*%
%ADD27C,1.200000*%
%ADD28C,2.100000*%
%ADD29C,1.750000*%
%ADD30RotRect,1.500000X1.000000X188.000000*%
G04 APERTURE END LIST*
D10*
%TO.C,SW24*%
X296800000Y-94820000D03*
D11*
X292990000Y-92280000D03*
X299340000Y-89740000D03*
D12*
X301880000Y-94820000D03*
X291720000Y-94820000D03*
D13*
X303090000Y-89740000D03*
X289240000Y-92280000D03*
%TD*%
D12*
%TO.C,SW39*%
X82790000Y-133160000D03*
X72630000Y-133160000D03*
D11*
X80250000Y-128080000D03*
X73900000Y-130620000D03*
D10*
X77710000Y-133160000D03*
D13*
X84000000Y-128080000D03*
X70150000Y-130620000D03*
%TD*%
D14*
%TO.C,H4*%
X317060000Y-125040000D03*
%TD*%
D11*
%TO.C,SW43*%
X229678282Y-135345939D03*
X223743579Y-138744969D03*
D12*
X232900562Y-140023001D03*
D10*
X227870000Y-140730000D03*
D12*
X222839438Y-141436999D03*
D15*
X233391787Y-134824039D03*
X220030074Y-139266868D03*
%TD*%
D14*
%TO.C,H1*%
X88960000Y-85660000D03*
%TD*%
D11*
%TO.C,SW8*%
X233528282Y-77105939D03*
D10*
X231720000Y-82490000D03*
D12*
X236750562Y-81783001D03*
X226689438Y-83196999D03*
D11*
X227593579Y-80504969D03*
D15*
X237241787Y-76584039D03*
X223880074Y-81026868D03*
%TD*%
D10*
%TO.C,SW4*%
X136620000Y-78530000D03*
D11*
X139842280Y-73852938D03*
D12*
X131589438Y-77823001D03*
X141650562Y-79236999D03*
D11*
X133200578Y-75484470D03*
D16*
X143555786Y-74374837D03*
X129487073Y-74962570D03*
%TD*%
D12*
%TO.C,SW46*%
X333400000Y-133310000D03*
X323240000Y-133310000D03*
D11*
X330860000Y-128230000D03*
X324510000Y-130770000D03*
D10*
X328320000Y-133310000D03*
D13*
X334610000Y-128230000D03*
X320760000Y-130770000D03*
%TD*%
D12*
%TO.C,SW2*%
X102900000Y-75450000D03*
D11*
X100360000Y-70370000D03*
D10*
X97820000Y-75450000D03*
D11*
X94010000Y-72910000D03*
D12*
X92740000Y-75450000D03*
D13*
X104110000Y-70370000D03*
X90260000Y-72910000D03*
%TD*%
D11*
%TO.C,SW17*%
X141912280Y-93382938D03*
D12*
X133659438Y-97353001D03*
X143720562Y-98766999D03*
D11*
X135270578Y-95014470D03*
D10*
X138690000Y-98060000D03*
D16*
X145625786Y-93904837D03*
X131557073Y-94492570D03*
%TD*%
D10*
%TO.C,SW33*%
X232320000Y-120860000D03*
D12*
X227289438Y-121566999D03*
D11*
X228193579Y-118874969D03*
X234128282Y-115475939D03*
D12*
X237350562Y-120153001D03*
D15*
X237841787Y-114954039D03*
X224480074Y-119396868D03*
%TD*%
D10*
%TO.C,SW7*%
X212860000Y-85130000D03*
D12*
X207829438Y-85836999D03*
D11*
X214668282Y-79745939D03*
D12*
X217890562Y-84423001D03*
D11*
X208733579Y-83144969D03*
D15*
X218381787Y-79224039D03*
X205020074Y-83666868D03*
%TD*%
D11*
%TO.C,SW26*%
X82930000Y-108850000D03*
D12*
X85470000Y-113930000D03*
X75310000Y-113930000D03*
D10*
X80390000Y-113930000D03*
D11*
X76580000Y-111390000D03*
D13*
X86680000Y-108850000D03*
X72830000Y-111390000D03*
%TD*%
D12*
%TO.C,SW37*%
X335500000Y-114060000D03*
D11*
X326610000Y-111520000D03*
D10*
X330420000Y-114060000D03*
D12*
X325340000Y-114060000D03*
D11*
X332960000Y-108980000D03*
D13*
X336710000Y-108980000D03*
X322860000Y-111520000D03*
%TD*%
D12*
%TO.C,SW13*%
X332530000Y-75570000D03*
D11*
X323640000Y-73030000D03*
D12*
X322370000Y-75570000D03*
D11*
X329990000Y-70490000D03*
D10*
X327450000Y-75570000D03*
D13*
X333740000Y-70490000D03*
X319890000Y-73030000D03*
%TD*%
D10*
%TO.C,SW31*%
X183190000Y-123550000D03*
D11*
X186412280Y-118872938D03*
D12*
X178159438Y-122843001D03*
X188220562Y-124256999D03*
D11*
X179770578Y-120504470D03*
D16*
X190125786Y-119394837D03*
X176057073Y-119982570D03*
%TD*%
D12*
%TO.C,SW30*%
X169370562Y-121586999D03*
D10*
X164340000Y-120880000D03*
D11*
X160920578Y-117834470D03*
D12*
X159309438Y-120173001D03*
D11*
X167562280Y-116202938D03*
D16*
X171275786Y-116724837D03*
X157207073Y-117312570D03*
%TD*%
D10*
%TO.C,SW12*%
X308410000Y-75590000D03*
D11*
X310950000Y-70510000D03*
D12*
X303330000Y-75590000D03*
X313490000Y-75590000D03*
D11*
X304600000Y-73050000D03*
D13*
X314700000Y-70510000D03*
X300850000Y-73050000D03*
%TD*%
D10*
%TO.C,SW20*%
X220220000Y-103330000D03*
D12*
X225250562Y-102623001D03*
D11*
X216093579Y-101344969D03*
X222028282Y-97945939D03*
D12*
X215189438Y-104036999D03*
D15*
X225741787Y-97424039D03*
X212380074Y-101866868D03*
%TD*%
D11*
%TO.C,SW42*%
X167690578Y-138044470D03*
D10*
X171110000Y-141090000D03*
D12*
X176140562Y-141796999D03*
D11*
X174332280Y-136412938D03*
D12*
X166079438Y-140383001D03*
D16*
X178045786Y-136934837D03*
X163977073Y-137522570D03*
%TD*%
D11*
%TO.C,SW38*%
X292470000Y-108990000D03*
D12*
X295010000Y-114070000D03*
X284850000Y-114070000D03*
D10*
X289930000Y-114070000D03*
D11*
X286120000Y-111530000D03*
D13*
X296220000Y-108990000D03*
X282370000Y-111530000D03*
%TD*%
D10*
%TO.C,SW44*%
X260900000Y-136090000D03*
D12*
X255869438Y-136796999D03*
D11*
X262708282Y-130705939D03*
D12*
X265930562Y-135383001D03*
D11*
X256773579Y-134104969D03*
D15*
X266421787Y-130184039D03*
X253060074Y-134626868D03*
%TD*%
D11*
%TO.C,SW35*%
X271838282Y-110185939D03*
X265903579Y-113584969D03*
D12*
X264999438Y-116276999D03*
D10*
X270030000Y-115570000D03*
D12*
X275060562Y-114863001D03*
D15*
X275551787Y-109664039D03*
X262190074Y-114106868D03*
%TD*%
D17*
%TO.C,U1*%
X201841400Y-70527000D03*
X201841400Y-73067000D03*
X201841400Y-75607000D03*
X201841400Y-78147000D03*
X201841400Y-80687000D03*
X201841400Y-83227000D03*
X201841400Y-85767000D03*
X201841400Y-88307000D03*
X201841400Y-90847000D03*
X201841400Y-93387000D03*
X201841400Y-95927000D03*
X201841400Y-98467000D03*
X186621400Y-98467000D03*
X186621400Y-95927000D03*
X186621400Y-93387000D03*
X186621400Y-90847000D03*
X186621400Y-88307000D03*
X186621400Y-85767000D03*
X186621400Y-83227000D03*
X186621400Y-80687000D03*
X186621400Y-78147000D03*
X186621400Y-75607000D03*
X186621400Y-73067000D03*
X186621400Y-70527000D03*
%TD*%
D10*
%TO.C,SW6*%
X174360000Y-83830000D03*
D11*
X177582280Y-79152938D03*
D12*
X169329438Y-83123001D03*
D11*
X170940578Y-80784470D03*
D12*
X179390562Y-84536999D03*
D16*
X181295786Y-79674837D03*
X167227073Y-80262570D03*
%TD*%
D12*
%TO.C,SW11*%
X294450000Y-75580000D03*
D11*
X291910000Y-70500000D03*
D10*
X289370000Y-75580000D03*
D12*
X284290000Y-75580000D03*
D11*
X285560000Y-73040000D03*
D13*
X295660000Y-70500000D03*
X281810000Y-73040000D03*
%TD*%
D14*
%TO.C,H3*%
X308500000Y-88510000D03*
%TD*%
D18*
%TO.C,ST1*%
X158350000Y-146360000D03*
D10*
X184039378Y-134580634D03*
D18*
X181918380Y-149672319D03*
D10*
X160470998Y-131268314D03*
%TD*%
D11*
%TO.C,SW41*%
X137040578Y-133724470D03*
D12*
X135429438Y-136063001D03*
D11*
X143682280Y-132092938D03*
D12*
X145490562Y-137476999D03*
D10*
X140460000Y-136770000D03*
D16*
X147395786Y-132614837D03*
X133327073Y-133202570D03*
%TD*%
D18*
%TO.C,ST2*%
X240628380Y-145997681D03*
X217060000Y-149310000D03*
D10*
X238507382Y-130905995D03*
X214939002Y-134218315D03*
%TD*%
D19*
%TO.C,J1*%
X190530000Y-102260000D03*
X193070000Y-102260000D03*
X195610000Y-102260000D03*
X198150000Y-102260000D03*
%TD*%
D12*
%TO.C,SW22*%
X262990562Y-97323001D03*
D11*
X253833579Y-96044969D03*
D10*
X257960000Y-98030000D03*
D12*
X252929438Y-98736999D03*
D11*
X259768282Y-92645939D03*
D15*
X263481787Y-92124039D03*
X250120074Y-96566868D03*
%TD*%
D12*
%TO.C,SW27*%
X101510000Y-113930000D03*
D11*
X102780000Y-111390000D03*
D12*
X111670000Y-113930000D03*
D10*
X106590000Y-113930000D03*
D11*
X109130000Y-108850000D03*
D13*
X112880000Y-108850000D03*
X99030000Y-111390000D03*
%TD*%
D11*
%TO.C,SW16*%
X116400578Y-92364470D03*
D10*
X119820000Y-95410000D03*
D12*
X114789438Y-94703001D03*
X124850562Y-96116999D03*
D11*
X123042280Y-90732938D03*
D16*
X126755786Y-91254837D03*
X112687073Y-91842570D03*
%TD*%
D11*
%TO.C,SW1*%
X74970000Y-72900000D03*
D12*
X83860000Y-75440000D03*
X73700000Y-75440000D03*
D11*
X81320000Y-70360000D03*
D10*
X78780000Y-75440000D03*
D13*
X85070000Y-70360000D03*
X71220000Y-72900000D03*
%TD*%
D12*
%TO.C,SW3*%
X112719438Y-75163001D03*
D11*
X120972280Y-71192938D03*
D12*
X122780562Y-76576999D03*
D10*
X117750000Y-75870000D03*
D11*
X114330578Y-72824470D03*
D16*
X124685786Y-71714837D03*
X110617073Y-72302570D03*
%TD*%
D11*
%TO.C,SW34*%
X252988282Y-112835939D03*
D12*
X246149438Y-118926999D03*
D10*
X251180000Y-118220000D03*
D11*
X247053579Y-116234969D03*
D12*
X256210562Y-117513001D03*
D15*
X256701787Y-112314039D03*
X243340074Y-116756868D03*
%TD*%
D11*
%TO.C,SW28*%
X123180578Y-112544470D03*
D12*
X121569438Y-114883001D03*
X131630562Y-116296999D03*
D11*
X129822280Y-110912938D03*
D10*
X126600000Y-115590000D03*
D16*
X133535786Y-111434837D03*
X119467073Y-112022570D03*
%TD*%
D12*
%TO.C,SW15*%
X94850000Y-94690000D03*
D10*
X99930000Y-94690000D03*
D11*
X102470000Y-89610000D03*
D12*
X105010000Y-94690000D03*
D11*
X96120000Y-92150000D03*
D13*
X106220000Y-89610000D03*
X92370000Y-92150000D03*
%TD*%
D12*
%TO.C,SW29*%
X150500562Y-118946999D03*
D10*
X145470000Y-118240000D03*
D12*
X140439438Y-117533001D03*
D11*
X148692280Y-113562938D03*
X142050578Y-115194470D03*
D16*
X152405786Y-114084837D03*
X138337073Y-114672570D03*
%TD*%
D10*
%TO.C,SW14*%
X78590000Y-94690000D03*
D11*
X74780000Y-92150000D03*
X81130000Y-89610000D03*
D12*
X83670000Y-94690000D03*
X73510000Y-94690000D03*
D13*
X84880000Y-89610000D03*
X71030000Y-92150000D03*
%TD*%
D12*
%TO.C,SW5*%
X160510562Y-81886999D03*
X150449438Y-80473001D03*
D11*
X152060578Y-78134470D03*
D10*
X155480000Y-81180000D03*
D11*
X158702280Y-76502938D03*
D16*
X162415786Y-77024837D03*
X148347073Y-77612570D03*
%TD*%
D12*
%TO.C,SW25*%
X328060000Y-94830000D03*
D11*
X325520000Y-89750000D03*
D12*
X317900000Y-94830000D03*
D10*
X322980000Y-94830000D03*
D11*
X319170000Y-92290000D03*
D13*
X329270000Y-89750000D03*
X315420000Y-92290000D03*
%TD*%
D11*
%TO.C,SW19*%
X179632280Y-98692938D03*
D10*
X176410000Y-103370000D03*
D12*
X181440562Y-104076999D03*
X171379438Y-102663001D03*
D11*
X172990578Y-100324470D03*
D16*
X183345786Y-99214837D03*
X169277073Y-99802570D03*
%TD*%
D10*
%TO.C,SW21*%
X239090000Y-100680000D03*
D12*
X234059438Y-101386999D03*
X244120562Y-99973001D03*
D11*
X234963579Y-98694969D03*
X240898282Y-95295939D03*
D15*
X244611787Y-94774039D03*
X231250074Y-99216868D03*
%TD*%
D14*
%TO.C,H7*%
X242990000Y-128340000D03*
%TD*%
D11*
%TO.C,SW10*%
X265323579Y-75174969D03*
D12*
X274480562Y-76453001D03*
X264419438Y-77866999D03*
D11*
X271258282Y-71775939D03*
D10*
X269450000Y-77160000D03*
D15*
X274971787Y-71254039D03*
X261610074Y-75696868D03*
%TD*%
D11*
%TO.C,SW23*%
X272693579Y-93394969D03*
X278628282Y-89995939D03*
D12*
X281850562Y-94673001D03*
X271789438Y-96086999D03*
D10*
X276820000Y-95380000D03*
D15*
X282341787Y-89474039D03*
X268980074Y-93916868D03*
%TD*%
D11*
%TO.C,SW36*%
X305180000Y-111520000D03*
D12*
X303910000Y-114060000D03*
D11*
X311530000Y-108980000D03*
D12*
X314070000Y-114060000D03*
D10*
X308990000Y-114060000D03*
D13*
X315280000Y-108980000D03*
X301430000Y-111520000D03*
%TD*%
D14*
%TO.C,H5*%
X163640000Y-91330000D03*
%TD*%
D11*
%TO.C,SW32*%
X209303579Y-121534969D03*
D12*
X218460562Y-122813001D03*
D11*
X215238282Y-118135939D03*
D10*
X213430000Y-123520000D03*
D12*
X208399438Y-124226999D03*
D15*
X218951787Y-117614039D03*
X205590074Y-122056868D03*
%TD*%
D14*
%TO.C,H6*%
X153020000Y-129440000D03*
%TD*%
D11*
%TO.C,SW18*%
X154130578Y-97664470D03*
D12*
X152519438Y-100003001D03*
D10*
X157550000Y-100710000D03*
D12*
X162580562Y-101416999D03*
D11*
X160772280Y-96032938D03*
D16*
X164485786Y-96554837D03*
X150417073Y-97142570D03*
%TD*%
D14*
%TO.C,H2*%
X89690000Y-125150000D03*
%TD*%
D12*
%TO.C,SW40*%
X106620000Y-133180000D03*
D10*
X101540000Y-133180000D03*
D12*
X96460000Y-133180000D03*
D11*
X104080000Y-128100000D03*
X97730000Y-130640000D03*
D13*
X107830000Y-128100000D03*
X93980000Y-130640000D03*
%TD*%
D12*
%TO.C,SW9*%
X255610562Y-79113001D03*
D11*
X246453579Y-77834969D03*
D12*
X245549438Y-80526999D03*
D11*
X252388282Y-74435939D03*
D10*
X250580000Y-79820000D03*
D15*
X256101787Y-73914039D03*
X242740074Y-78356868D03*
%TD*%
D14*
%TO.C,H8*%
X223380000Y-92700000D03*
%TD*%
D11*
%TO.C,SW45*%
X300690000Y-130750000D03*
D12*
X309580000Y-133290000D03*
X299420000Y-133290000D03*
D11*
X307040000Y-128210000D03*
D10*
X304500000Y-133290000D03*
D13*
X310790000Y-128210000D03*
X296940000Y-130750000D03*
%TD*%
D20*
%TO.C,D2*%
X90260000Y-80530000D03*
X90260000Y-77730000D03*
%TD*%
%TO.C,D37*%
X322870000Y-119130000D03*
X322870000Y-116330000D03*
%TD*%
D21*
%TO.C,D44*%
X254124842Y-142266375D03*
X253735158Y-139493625D03*
%TD*%
D22*
%TO.C,L1*%
X229606520Y-92615403D03*
X229161166Y-89446545D03*
X234013480Y-88764597D03*
X234458834Y-91933455D03*
%TD*%
D20*
%TO.C,D1*%
X71180000Y-80330000D03*
X71180000Y-77530000D03*
%TD*%
D23*
%TO.C,L7*%
X112790000Y-83170000D03*
X112790000Y-86370000D03*
X107890000Y-86370000D03*
X107890000Y-83170000D03*
%TD*%
D20*
%TO.C,D25*%
X315470000Y-99910000D03*
X315470000Y-97110000D03*
%TD*%
%TO.C,D24*%
X289250000Y-99930000D03*
X289250000Y-97130000D03*
%TD*%
D24*
%TO.C,D3*%
X109575158Y-79986375D03*
X109964842Y-77213625D03*
%TD*%
%TO.C,D30*%
X156115158Y-124946375D03*
X156504842Y-122173625D03*
%TD*%
D20*
%TO.C,D15*%
X92400000Y-99470000D03*
X92400000Y-96670000D03*
%TD*%
D23*
%TO.C,L2*%
X312420000Y-85660000D03*
X312420000Y-82460000D03*
X317320000Y-82460000D03*
X317320000Y-85660000D03*
%TD*%
D20*
%TO.C,D38*%
X282430000Y-119280000D03*
X282430000Y-116480000D03*
%TD*%
%TO.C,D39*%
X70180000Y-138250000D03*
X70180000Y-135450000D03*
%TD*%
%TO.C,D14*%
X71060000Y-99530000D03*
X71060000Y-96730000D03*
%TD*%
D25*
%TO.C,L8*%
X154608834Y-88006545D03*
X154163480Y-91175403D03*
X149311166Y-90493455D03*
X149756520Y-87324597D03*
%TD*%
D20*
%TO.C,D13*%
X319900000Y-80662500D03*
X319900000Y-77862500D03*
%TD*%
D26*
%TO.C,L5*%
X150251166Y-138723455D03*
X150696520Y-135554597D03*
X155548834Y-136236545D03*
X155103480Y-139405403D03*
%TD*%
D20*
%TO.C,D26*%
X72880000Y-118742500D03*
X72880000Y-115942500D03*
%TD*%
D24*
%TO.C,D6*%
X166205158Y-87766375D03*
X166594842Y-84993625D03*
%TD*%
D27*
%TO.C,RESET1*%
X176680000Y-66862500D03*
D28*
X180180000Y-70562500D03*
X173170000Y-70562500D03*
D29*
X179180000Y-68072500D03*
X174180000Y-68072500D03*
%TD*%
D24*
%TO.C,D5*%
X147305158Y-85256375D03*
X147694842Y-82483625D03*
%TD*%
%TO.C,D17*%
X130505158Y-102076375D03*
X130894842Y-99303625D03*
%TD*%
D23*
%TO.C,L3*%
X291730000Y-125180000D03*
X291730000Y-121980000D03*
X296630000Y-121980000D03*
X296630000Y-125180000D03*
%TD*%
D30*
%TO.C,L4*%
X248653480Y-134544597D03*
X249098834Y-137713455D03*
X244246520Y-138395403D03*
X243801166Y-135226545D03*
%TD*%
D21*
%TO.C,D35*%
X263294842Y-121736375D03*
X262905158Y-118963625D03*
%TD*%
%TO.C,D21*%
X232334842Y-106896375D03*
X231945158Y-104123625D03*
%TD*%
%TO.C,D32*%
X206654842Y-129666375D03*
X206265158Y-126893625D03*
%TD*%
D20*
%TO.C,D36*%
X301400000Y-119152500D03*
X301400000Y-116352500D03*
%TD*%
D21*
%TO.C,D8*%
X224944842Y-88656375D03*
X224555158Y-85883625D03*
%TD*%
D20*
%TO.C,D11*%
X281840000Y-80612500D03*
X281840000Y-77812500D03*
%TD*%
D24*
%TO.C,D19*%
X168205158Y-107416375D03*
X168594842Y-104643625D03*
%TD*%
%TO.C,D18*%
X149335158Y-104796375D03*
X149724842Y-102023625D03*
%TD*%
D23*
%TO.C,L6*%
X119080000Y-128040000D03*
X119080000Y-124840000D03*
X123980000Y-124840000D03*
X123980000Y-128040000D03*
%TD*%
D24*
%TO.C,D4*%
X128445158Y-82556375D03*
X128834842Y-79783625D03*
%TD*%
%TO.C,D16*%
X111655158Y-99366375D03*
X112044842Y-96593625D03*
%TD*%
D21*
%TO.C,D23*%
X269994842Y-101376375D03*
X269605158Y-98603625D03*
%TD*%
%TO.C,D10*%
X262694842Y-83376375D03*
X262305158Y-80603625D03*
%TD*%
D20*
%TO.C,D27*%
X99080000Y-118712500D03*
X99080000Y-115912500D03*
%TD*%
D24*
%TO.C,D42*%
X162885158Y-145226375D03*
X163274842Y-142453625D03*
%TD*%
D21*
%TO.C,D20*%
X213444842Y-109576375D03*
X213055158Y-106803625D03*
%TD*%
%TO.C,D22*%
X251144842Y-103956375D03*
X250755158Y-101183625D03*
%TD*%
D24*
%TO.C,D31*%
X174995158Y-127676375D03*
X175384842Y-124903625D03*
%TD*%
D21*
%TO.C,D34*%
X244430000Y-124240000D03*
X244040316Y-121467250D03*
%TD*%
D24*
%TO.C,D41*%
X132335158Y-140726375D03*
X132724842Y-137953625D03*
%TD*%
D21*
%TO.C,D33*%
X225514842Y-126896375D03*
X225125158Y-124123625D03*
%TD*%
%TO.C,D43*%
X221134842Y-147016375D03*
X220745158Y-144243625D03*
%TD*%
D20*
%TO.C,D46*%
X320700000Y-138420000D03*
X320700000Y-135620000D03*
%TD*%
D21*
%TO.C,D7*%
X206104842Y-91216375D03*
X205715158Y-88443625D03*
%TD*%
%TO.C,D9*%
X243874842Y-86026375D03*
X243485158Y-83253625D03*
%TD*%
D24*
%TO.C,D28*%
X118415158Y-119566375D03*
X118804842Y-116793625D03*
%TD*%
%TO.C,D29*%
X137235158Y-122216375D03*
X137624842Y-119443625D03*
%TD*%
D20*
%TO.C,D45*%
X296900000Y-138380000D03*
X296900000Y-135580000D03*
%TD*%
%TO.C,D40*%
X94040000Y-138292500D03*
X94040000Y-135492500D03*
%TD*%
%TO.C,D12*%
X300800000Y-80780000D03*
X300800000Y-77980000D03*
%TD*%
M02*
