%TF.GenerationSoftware,KiCad,Pcbnew,(5.99.0-9176-ga1730d51ff)*%
%TF.CreationDate,2021-07-22T23:15:28-05:00*%
%TF.ProjectId,Sonata hotswap,536f6e61-7461-4206-986f-74737761702e,rev?*%
%TF.SameCoordinates,Original*%
%TF.FileFunction,Legend,Top*%
%TF.FilePolarity,Positive*%
%FSLAX46Y46*%
G04 Gerber Fmt 4.6, Leading zero omitted, Abs format (unit mm)*
G04 Created by KiCad (PCBNEW (5.99.0-9176-ga1730d51ff)) date 2021-07-22 23:15:28*
%MOMM*%
%LPD*%
G01*
G04 APERTURE LIST*
%ADD10C,0.150000*%
%ADD11C,0.071989*%
%ADD12C,0.264583*%
%ADD13C,0.282310*%
%ADD14C,1.397000*%
G04 APERTURE END LIST*
D10*
%TO.C,J1*%
X192887619Y-100162380D02*
X193078095Y-100162380D01*
X193173333Y-100210000D01*
X193268571Y-100305238D01*
X193316190Y-100495714D01*
X193316190Y-100829047D01*
X193268571Y-101019523D01*
X193173333Y-101114761D01*
X193078095Y-101162380D01*
X192887619Y-101162380D01*
X192792380Y-101114761D01*
X192697142Y-101019523D01*
X192649523Y-100829047D01*
X192649523Y-100495714D01*
X192697142Y-100305238D01*
X192792380Y-100210000D01*
X192887619Y-100162380D01*
X194220952Y-101162380D02*
X193744761Y-101162380D01*
X193744761Y-100162380D01*
X194554285Y-100638571D02*
X194887619Y-100638571D01*
X195030476Y-101162380D02*
X194554285Y-101162380D01*
X194554285Y-100162380D01*
X195030476Y-100162380D01*
X195459047Y-101162380D02*
X195459047Y-100162380D01*
X195697142Y-100162380D01*
X195840000Y-100210000D01*
X195935238Y-100305238D01*
X195982857Y-100400476D01*
X196030476Y-100590952D01*
X196030476Y-100733809D01*
X195982857Y-100924285D01*
X195935238Y-101019523D01*
X195840000Y-101114761D01*
X195697142Y-101162380D01*
X195459047Y-101162380D01*
%TO.C,SW24*%
X303800000Y-87820000D02*
X302800000Y-87820000D01*
X290800000Y-87820000D02*
X289800000Y-87820000D01*
X302800000Y-101820000D02*
X303800000Y-101820000D01*
X303800000Y-100820000D02*
X303800000Y-101820000D01*
X289800000Y-88820000D02*
X289800000Y-87820000D01*
X289800000Y-101820000D02*
X289800000Y-100820000D01*
X289800000Y-101820000D02*
X290800000Y-101820000D01*
X303800000Y-87820000D02*
X303800000Y-88820000D01*
%TO.C,SW39*%
X71710000Y-126160000D02*
X70710000Y-126160000D01*
X70710000Y-140160000D02*
X71710000Y-140160000D01*
X70710000Y-140160000D02*
X70710000Y-139160000D01*
X84710000Y-139160000D02*
X84710000Y-140160000D01*
X70710000Y-127160000D02*
X70710000Y-126160000D01*
X84710000Y-126160000D02*
X83710000Y-126160000D01*
X83710000Y-140160000D02*
X84710000Y-140160000D01*
X84710000Y-126160000D02*
X84710000Y-127160000D01*
%TO.C,SW43*%
X234785820Y-146826838D02*
X235776088Y-146687665D01*
X221912335Y-148636088D02*
X221773162Y-147645820D01*
X220954180Y-134633162D02*
X219963912Y-134772335D01*
X220103085Y-135762603D02*
X219963912Y-134772335D01*
X233827665Y-132823912D02*
X232837397Y-132963085D01*
X233827665Y-132823912D02*
X233966838Y-133814180D01*
X221912335Y-148636088D02*
X222902603Y-148496915D01*
X235636915Y-145697397D02*
X235776088Y-146687665D01*
%TO.C,SW8*%
X225762335Y-90396088D02*
X225623162Y-89405820D01*
X237677665Y-74583912D02*
X237816838Y-75574180D01*
X225762335Y-90396088D02*
X226752603Y-90256915D01*
X238635820Y-88586838D02*
X239626088Y-88447665D01*
X237677665Y-74583912D02*
X236687397Y-74723085D01*
X224804180Y-76393162D02*
X223813912Y-76532335D01*
X223953085Y-77522603D02*
X223813912Y-76532335D01*
X239486915Y-87457397D02*
X239626088Y-88447665D01*
%TO.C,SW4*%
X131652603Y-70763085D02*
X130662335Y-70623912D01*
X128713912Y-84487665D02*
X128853085Y-83497397D01*
X144526088Y-72572335D02*
X143535820Y-72433162D01*
X130523162Y-71614180D02*
X130662335Y-70623912D01*
X128713912Y-84487665D02*
X129704180Y-84626838D01*
X142716838Y-85445820D02*
X142577665Y-86436088D01*
X144526088Y-72572335D02*
X144386915Y-73562603D01*
X141587397Y-86296915D02*
X142577665Y-86436088D01*
%TO.C,SW46*%
X322320000Y-126310000D02*
X321320000Y-126310000D01*
X334320000Y-140310000D02*
X335320000Y-140310000D01*
X321320000Y-140310000D02*
X322320000Y-140310000D01*
X321320000Y-140310000D02*
X321320000Y-139310000D01*
X335320000Y-139310000D02*
X335320000Y-140310000D01*
X335320000Y-126310000D02*
X335320000Y-127310000D01*
X335320000Y-126310000D02*
X334320000Y-126310000D01*
X321320000Y-127310000D02*
X321320000Y-126310000D01*
%TO.C,SW2*%
X104820000Y-68450000D02*
X104820000Y-69450000D01*
X104820000Y-81450000D02*
X104820000Y-82450000D01*
X90820000Y-82450000D02*
X91820000Y-82450000D01*
X90820000Y-69450000D02*
X90820000Y-68450000D01*
X104820000Y-68450000D02*
X103820000Y-68450000D01*
X90820000Y-82450000D02*
X90820000Y-81450000D01*
X103820000Y-82450000D02*
X104820000Y-82450000D01*
X91820000Y-68450000D02*
X90820000Y-68450000D01*
%TO.C,SW17*%
X144786838Y-104975820D02*
X144647665Y-105966088D01*
X132593162Y-91144180D02*
X132732335Y-90153912D01*
X130783912Y-104017665D02*
X131774180Y-104156838D01*
X146596088Y-92102335D02*
X146456915Y-93092603D01*
X143657397Y-105826915D02*
X144647665Y-105966088D01*
X130783912Y-104017665D02*
X130923085Y-103027397D01*
X146596088Y-92102335D02*
X145605820Y-91963162D01*
X133722603Y-90293085D02*
X132732335Y-90153912D01*
%TO.C,SW33*%
X238277665Y-112953912D02*
X237287397Y-113093085D01*
X224553085Y-115892603D02*
X224413912Y-114902335D01*
X226362335Y-128766088D02*
X227352603Y-128626915D01*
X238277665Y-112953912D02*
X238416838Y-113944180D01*
X240086915Y-125827397D02*
X240226088Y-126817665D01*
X226362335Y-128766088D02*
X226223162Y-127775820D01*
X225404180Y-114763162D02*
X224413912Y-114902335D01*
X239235820Y-126956838D02*
X240226088Y-126817665D01*
%TO.C,SW7*%
X218817665Y-77223912D02*
X217827397Y-77363085D01*
X218817665Y-77223912D02*
X218956838Y-78214180D01*
X206902335Y-93036088D02*
X206763162Y-92045820D01*
X206902335Y-93036088D02*
X207892603Y-92896915D01*
X205944180Y-79033162D02*
X204953912Y-79172335D01*
X219775820Y-91226838D02*
X220766088Y-91087665D01*
X220626915Y-90097397D02*
X220766088Y-91087665D01*
X205093085Y-80162603D02*
X204953912Y-79172335D01*
%TO.C,SW26*%
X74390000Y-106930000D02*
X73390000Y-106930000D01*
X87390000Y-119930000D02*
X87390000Y-120930000D01*
X86390000Y-120930000D02*
X87390000Y-120930000D01*
X73390000Y-120930000D02*
X73390000Y-119930000D01*
X87390000Y-106930000D02*
X86390000Y-106930000D01*
X73390000Y-107930000D02*
X73390000Y-106930000D01*
X73390000Y-120930000D02*
X74390000Y-120930000D01*
X87390000Y-106930000D02*
X87390000Y-107930000D01*
%TO.C,SW37*%
X323420000Y-121060000D02*
X324420000Y-121060000D01*
X337420000Y-120060000D02*
X337420000Y-121060000D01*
X337420000Y-107060000D02*
X336420000Y-107060000D01*
X323420000Y-108060000D02*
X323420000Y-107060000D01*
X336420000Y-121060000D02*
X337420000Y-121060000D01*
X324420000Y-107060000D02*
X323420000Y-107060000D01*
X323420000Y-121060000D02*
X323420000Y-120060000D01*
X337420000Y-107060000D02*
X337420000Y-108060000D01*
%TO.C,SW13*%
X320450000Y-82570000D02*
X320450000Y-81570000D01*
X320450000Y-69570000D02*
X320450000Y-68570000D01*
X334450000Y-81570000D02*
X334450000Y-82570000D01*
X333450000Y-82570000D02*
X334450000Y-82570000D01*
X321450000Y-68570000D02*
X320450000Y-68570000D01*
X320450000Y-82570000D02*
X321450000Y-82570000D01*
X334450000Y-68570000D02*
X333450000Y-68570000D01*
X334450000Y-68570000D02*
X334450000Y-69570000D01*
%TO.C,SW31*%
X189286838Y-130465820D02*
X189147665Y-131456088D01*
X191096088Y-117592335D02*
X190105820Y-117453162D01*
X178222603Y-115783085D02*
X177232335Y-115643912D01*
X188157397Y-131316915D02*
X189147665Y-131456088D01*
X177093162Y-116634180D02*
X177232335Y-115643912D01*
X175283912Y-129507665D02*
X176274180Y-129646838D01*
X175283912Y-129507665D02*
X175423085Y-128517397D01*
X191096088Y-117592335D02*
X190956915Y-118582603D01*
%TO.C,SW30*%
X159372603Y-113113085D02*
X158382335Y-112973912D01*
X169307397Y-128646915D02*
X170297665Y-128786088D01*
X170436838Y-127795820D02*
X170297665Y-128786088D01*
X156433912Y-126837665D02*
X157424180Y-126976838D01*
X172246088Y-114922335D02*
X171255820Y-114783162D01*
X158243162Y-113964180D02*
X158382335Y-112973912D01*
X156433912Y-126837665D02*
X156573085Y-125847397D01*
X172246088Y-114922335D02*
X172106915Y-115912603D01*
%TO.C,SW12*%
X315410000Y-68590000D02*
X314410000Y-68590000D01*
X315410000Y-81590000D02*
X315410000Y-82590000D01*
X315410000Y-68590000D02*
X315410000Y-69590000D01*
X302410000Y-68590000D02*
X301410000Y-68590000D01*
X301410000Y-82590000D02*
X301410000Y-81590000D01*
X301410000Y-69590000D02*
X301410000Y-68590000D01*
X314410000Y-82590000D02*
X315410000Y-82590000D01*
X301410000Y-82590000D02*
X302410000Y-82590000D01*
%TO.C,SW20*%
X214262335Y-111236088D02*
X215252603Y-111096915D01*
X213304180Y-97233162D02*
X212313912Y-97372335D01*
X214262335Y-111236088D02*
X214123162Y-110245820D01*
X227135820Y-109426838D02*
X228126088Y-109287665D01*
X226177665Y-95423912D02*
X225187397Y-95563085D01*
X212453085Y-98362603D02*
X212313912Y-97372335D01*
X226177665Y-95423912D02*
X226316838Y-96414180D01*
X227986915Y-108297397D02*
X228126088Y-109287665D01*
%TO.C,SW42*%
X179016088Y-135132335D02*
X178025820Y-134993162D01*
X177206838Y-148005820D02*
X177067665Y-148996088D01*
X165013162Y-134174180D02*
X165152335Y-133183912D01*
X163203912Y-147047665D02*
X164194180Y-147186838D01*
X166142603Y-133323085D02*
X165152335Y-133183912D01*
X176077397Y-148856915D02*
X177067665Y-148996088D01*
X163203912Y-147047665D02*
X163343085Y-146057397D01*
X179016088Y-135132335D02*
X178876915Y-136122603D01*
%TO.C,SW38*%
X295930000Y-121070000D02*
X296930000Y-121070000D01*
X282930000Y-121070000D02*
X283930000Y-121070000D01*
X296930000Y-107070000D02*
X296930000Y-108070000D01*
X296930000Y-107070000D02*
X295930000Y-107070000D01*
X283930000Y-107070000D02*
X282930000Y-107070000D01*
X282930000Y-121070000D02*
X282930000Y-120070000D01*
X282930000Y-108070000D02*
X282930000Y-107070000D01*
X296930000Y-120070000D02*
X296930000Y-121070000D01*
%TO.C,SW44*%
X254942335Y-143996088D02*
X254803162Y-143005820D01*
X267815820Y-142186838D02*
X268806088Y-142047665D01*
X254942335Y-143996088D02*
X255932603Y-143856915D01*
X266857665Y-128183912D02*
X265867397Y-128323085D01*
X253133085Y-131122603D02*
X252993912Y-130132335D01*
X268666915Y-141057397D02*
X268806088Y-142047665D01*
X253984180Y-129993162D02*
X252993912Y-130132335D01*
X266857665Y-128183912D02*
X266996838Y-129174180D01*
%TO.C,SW35*%
X275987665Y-107663912D02*
X274997397Y-107803085D01*
X264072335Y-123476088D02*
X265062603Y-123336915D01*
X264072335Y-123476088D02*
X263933162Y-122485820D01*
X276945820Y-121666838D02*
X277936088Y-121527665D01*
X263114180Y-109473162D02*
X262123912Y-109612335D01*
X277796915Y-120537397D02*
X277936088Y-121527665D01*
X275987665Y-107663912D02*
X276126838Y-108654180D01*
X262263085Y-110602603D02*
X262123912Y-109612335D01*
%TO.C,U1*%
X185480000Y-99605000D02*
X186330000Y-99605000D01*
X193880000Y-64305000D02*
X194580000Y-64305000D01*
X202980000Y-69405000D02*
X202980000Y-70255000D01*
X185480000Y-69405000D02*
X186330000Y-69405000D01*
X202980000Y-98755000D02*
X202980000Y-99605000D01*
X193730000Y-64155000D02*
X194730000Y-64155000D01*
X197980000Y-65105000D02*
X197980000Y-63805000D01*
X197980000Y-63805000D02*
X190480000Y-63805000D01*
X194730000Y-64155000D02*
X194230000Y-64805000D01*
X185480000Y-69405000D02*
X185480000Y-70255000D01*
X194080000Y-64605000D02*
X194380000Y-64605000D01*
X190480000Y-63805000D02*
X190480000Y-65105000D01*
X202980000Y-99605000D02*
X202120000Y-99605000D01*
X185480000Y-98705000D02*
X185480000Y-99605000D01*
X193980000Y-64455000D02*
X194480000Y-64455000D01*
X190480000Y-65105000D02*
X197980000Y-65105000D01*
X202980000Y-69405000D02*
X202180000Y-69405000D01*
X194230000Y-64805000D02*
X193730000Y-64155000D01*
%TO.C,SW6*%
X166453912Y-89787665D02*
X166593085Y-88797397D01*
X182266088Y-77872335D02*
X181275820Y-77733162D01*
X166453912Y-89787665D02*
X167444180Y-89926838D01*
X168263162Y-76914180D02*
X168402335Y-75923912D01*
X169392603Y-76063085D02*
X168402335Y-75923912D01*
X180456838Y-90745820D02*
X180317665Y-91736088D01*
X179327397Y-91596915D02*
X180317665Y-91736088D01*
X182266088Y-77872335D02*
X182126915Y-78862603D01*
%TO.C,SW11*%
X296370000Y-68580000D02*
X296370000Y-69580000D01*
X282370000Y-82580000D02*
X282370000Y-81580000D01*
X282370000Y-82580000D02*
X283370000Y-82580000D01*
X296370000Y-81580000D02*
X296370000Y-82580000D01*
X282370000Y-69580000D02*
X282370000Y-68580000D01*
X295370000Y-82580000D02*
X296370000Y-82580000D01*
X296370000Y-68580000D02*
X295370000Y-68580000D01*
X283370000Y-68580000D02*
X282370000Y-68580000D01*
%TO.C,SW41*%
X146556838Y-143685820D02*
X146417665Y-144676088D01*
X148366088Y-130812335D02*
X147375820Y-130673162D01*
X148366088Y-130812335D02*
X148226915Y-131802603D01*
X132553912Y-142727665D02*
X132693085Y-141737397D01*
X145427397Y-144536915D02*
X146417665Y-144676088D01*
X132553912Y-142727665D02*
X133544180Y-142866838D01*
X134363162Y-129854180D02*
X134502335Y-128863912D01*
X135492603Y-129003085D02*
X134502335Y-128863912D01*
%TO.C,SW22*%
X252002335Y-105936088D02*
X252992603Y-105796915D01*
X250193085Y-93062603D02*
X250053912Y-92072335D01*
X263917665Y-90123912D02*
X262927397Y-90263085D01*
X264875820Y-104126838D02*
X265866088Y-103987665D01*
X252002335Y-105936088D02*
X251863162Y-104945820D01*
X251044180Y-91933162D02*
X250053912Y-92072335D01*
X265726915Y-102997397D02*
X265866088Y-103987665D01*
X263917665Y-90123912D02*
X264056838Y-91114180D01*
%TO.C,SW27*%
X99590000Y-107930000D02*
X99590000Y-106930000D01*
X113590000Y-106930000D02*
X112590000Y-106930000D01*
X99590000Y-120930000D02*
X100590000Y-120930000D01*
X100590000Y-106930000D02*
X99590000Y-106930000D01*
X112590000Y-120930000D02*
X113590000Y-120930000D01*
X113590000Y-119930000D02*
X113590000Y-120930000D01*
X113590000Y-106930000D02*
X113590000Y-107930000D01*
X99590000Y-120930000D02*
X99590000Y-119930000D01*
%TO.C,SW16*%
X113723162Y-88494180D02*
X113862335Y-87503912D01*
X127726088Y-89452335D02*
X127586915Y-90442603D01*
X127726088Y-89452335D02*
X126735820Y-89313162D01*
X114852603Y-87643085D02*
X113862335Y-87503912D01*
X125916838Y-102325820D02*
X125777665Y-103316088D01*
X124787397Y-103176915D02*
X125777665Y-103316088D01*
X111913912Y-101367665D02*
X112904180Y-101506838D01*
X111913912Y-101367665D02*
X112053085Y-100377397D01*
%TO.C,SW1*%
X71780000Y-82440000D02*
X71780000Y-81440000D01*
X85780000Y-81440000D02*
X85780000Y-82440000D01*
X85780000Y-68440000D02*
X84780000Y-68440000D01*
X71780000Y-69440000D02*
X71780000Y-68440000D01*
X85780000Y-68440000D02*
X85780000Y-69440000D01*
X71780000Y-82440000D02*
X72780000Y-82440000D01*
X72780000Y-68440000D02*
X71780000Y-68440000D01*
X84780000Y-82440000D02*
X85780000Y-82440000D01*
%TO.C,SW3*%
X123846838Y-82785820D02*
X123707665Y-83776088D01*
X125656088Y-69912335D02*
X124665820Y-69773162D01*
X109843912Y-81827665D02*
X109983085Y-80837397D01*
X112782603Y-68103085D02*
X111792335Y-67963912D01*
X122717397Y-83636915D02*
X123707665Y-83776088D01*
X125656088Y-69912335D02*
X125516915Y-70902603D01*
X109843912Y-81827665D02*
X110834180Y-81966838D01*
X111653162Y-68954180D02*
X111792335Y-67963912D01*
%TO.C,SW34*%
X245222335Y-126126088D02*
X246212603Y-125986915D01*
X244264180Y-112123162D02*
X243273912Y-112262335D01*
X258946915Y-123187397D02*
X259086088Y-124177665D01*
X257137665Y-110313912D02*
X256147397Y-110453085D01*
X258095820Y-124316838D02*
X259086088Y-124177665D01*
X243413085Y-113252603D02*
X243273912Y-112262335D01*
X245222335Y-126126088D02*
X245083162Y-125135820D01*
X257137665Y-110313912D02*
X257276838Y-111304180D01*
%TO.C,SW28*%
X118693912Y-121547665D02*
X119684180Y-121686838D01*
X131567397Y-123356915D02*
X132557665Y-123496088D01*
X132696838Y-122505820D02*
X132557665Y-123496088D01*
X134506088Y-109632335D02*
X133515820Y-109493162D01*
X134506088Y-109632335D02*
X134366915Y-110622603D01*
X121632603Y-107823085D02*
X120642335Y-107683912D01*
X120503162Y-108674180D02*
X120642335Y-107683912D01*
X118693912Y-121547665D02*
X118833085Y-120557397D01*
%TO.C,SW15*%
X92930000Y-101690000D02*
X92930000Y-100690000D01*
X105930000Y-101690000D02*
X106930000Y-101690000D01*
X106930000Y-87690000D02*
X106930000Y-88690000D01*
X92930000Y-101690000D02*
X93930000Y-101690000D01*
X106930000Y-87690000D02*
X105930000Y-87690000D01*
X106930000Y-100690000D02*
X106930000Y-101690000D01*
X92930000Y-88690000D02*
X92930000Y-87690000D01*
X93930000Y-87690000D02*
X92930000Y-87690000D01*
%TO.C,SW29*%
X151566838Y-125155820D02*
X151427665Y-126146088D01*
X139373162Y-111324180D02*
X139512335Y-110333912D01*
X153376088Y-112282335D02*
X153236915Y-113272603D01*
X140502603Y-110473085D02*
X139512335Y-110333912D01*
X153376088Y-112282335D02*
X152385820Y-112143162D01*
X137563912Y-124197665D02*
X137703085Y-123207397D01*
X150437397Y-126006915D02*
X151427665Y-126146088D01*
X137563912Y-124197665D02*
X138554180Y-124336838D01*
%TO.C,SW14*%
X85590000Y-87690000D02*
X84590000Y-87690000D01*
X85590000Y-87690000D02*
X85590000Y-88690000D01*
X84590000Y-101690000D02*
X85590000Y-101690000D01*
X71590000Y-101690000D02*
X71590000Y-100690000D01*
X71590000Y-88690000D02*
X71590000Y-87690000D01*
X71590000Y-101690000D02*
X72590000Y-101690000D01*
X85590000Y-100690000D02*
X85590000Y-101690000D01*
X72590000Y-87690000D02*
X71590000Y-87690000D01*
%TO.C,SW5*%
X160447397Y-88946915D02*
X161437665Y-89086088D01*
X147573912Y-87137665D02*
X148564180Y-87276838D01*
X149383162Y-74264180D02*
X149522335Y-73273912D01*
X150512603Y-73413085D02*
X149522335Y-73273912D01*
X163386088Y-75222335D02*
X163246915Y-76212603D01*
X161576838Y-88095820D02*
X161437665Y-89086088D01*
X147573912Y-87137665D02*
X147713085Y-86147397D01*
X163386088Y-75222335D02*
X162395820Y-75083162D01*
%TO.C,SW25*%
X329980000Y-87830000D02*
X328980000Y-87830000D01*
X315980000Y-88830000D02*
X315980000Y-87830000D01*
X329980000Y-100830000D02*
X329980000Y-101830000D01*
X328980000Y-101830000D02*
X329980000Y-101830000D01*
X316980000Y-87830000D02*
X315980000Y-87830000D01*
X329980000Y-87830000D02*
X329980000Y-88830000D01*
X315980000Y-101830000D02*
X315980000Y-100830000D01*
X315980000Y-101830000D02*
X316980000Y-101830000D01*
%TO.C,SW19*%
X171442603Y-95603085D02*
X170452335Y-95463912D01*
X184316088Y-97412335D02*
X183325820Y-97273162D01*
X168503912Y-109327665D02*
X169494180Y-109466838D01*
X170313162Y-96454180D02*
X170452335Y-95463912D01*
X182506838Y-110285820D02*
X182367665Y-111276088D01*
X184316088Y-97412335D02*
X184176915Y-98402603D01*
X181377397Y-111136915D02*
X182367665Y-111276088D01*
X168503912Y-109327665D02*
X168643085Y-108337397D01*
%TO.C,SW21*%
X233132335Y-108586088D02*
X232993162Y-107595820D01*
X246005820Y-106776838D02*
X246996088Y-106637665D01*
X246856915Y-105647397D02*
X246996088Y-106637665D01*
X231323085Y-95712603D02*
X231183912Y-94722335D01*
X245047665Y-92773912D02*
X245186838Y-93764180D01*
X232174180Y-94583162D02*
X231183912Y-94722335D01*
X245047665Y-92773912D02*
X244057397Y-92913085D01*
X233132335Y-108586088D02*
X234122603Y-108446915D01*
%TO.C,SW10*%
X275407665Y-69253912D02*
X274417397Y-69393085D01*
X263492335Y-85066088D02*
X264482603Y-84926915D01*
X261683085Y-72192603D02*
X261543912Y-71202335D01*
X276365820Y-83256838D02*
X277356088Y-83117665D01*
X262534180Y-71063162D02*
X261543912Y-71202335D01*
X263492335Y-85066088D02*
X263353162Y-84075820D01*
X275407665Y-69253912D02*
X275546838Y-70244180D01*
X277216915Y-82127397D02*
X277356088Y-83117665D01*
D11*
%TO.C,G1*%
X284926460Y-131423634D02*
X285014080Y-131593565D01*
X285014080Y-131593565D02*
X285057440Y-131783467D01*
X285057440Y-131783467D02*
X285045524Y-131972402D01*
X285045524Y-131972402D02*
X284984314Y-132123595D01*
X284984314Y-132123595D02*
X284885071Y-132236594D01*
X284885071Y-132236594D02*
X284759062Y-132310949D01*
X284759062Y-132310949D02*
X284617548Y-132346207D01*
X284617548Y-132346207D02*
X284471794Y-132341920D01*
X284471794Y-132341920D02*
X284333064Y-132297634D01*
X284333064Y-132297634D02*
X284212621Y-132212901D01*
X284212621Y-132212901D02*
X284121729Y-132087268D01*
X284121729Y-132087268D02*
X284071653Y-131920285D01*
X284071653Y-131920285D02*
X284073655Y-131711500D01*
X284073655Y-131711500D02*
X284138317Y-131505433D01*
X284138317Y-131505433D02*
X284260121Y-131347858D01*
X284260121Y-131347858D02*
X284427225Y-131232362D01*
X284427225Y-131232362D02*
X284627789Y-131152530D01*
X284627789Y-131152530D02*
X284849972Y-131101946D01*
X284849972Y-131101946D02*
X285081935Y-131074195D01*
X285081935Y-131074195D02*
X285311836Y-131062864D01*
X285311836Y-131062864D02*
X285527836Y-131061538D01*
X285527836Y-131061538D02*
X285718094Y-131063800D01*
X285718094Y-131063800D02*
X285986860Y-131077914D01*
X285986860Y-131077914D02*
X286230923Y-131113599D01*
X286230923Y-131113599D02*
X286450557Y-131171138D01*
X286450557Y-131171138D02*
X286365794Y-132934934D01*
X286365794Y-132934934D02*
X286111313Y-132986975D01*
X286111313Y-132986975D02*
X285855820Y-133031729D01*
X285855820Y-133031729D02*
X285603431Y-133088358D01*
X285603431Y-133088358D02*
X285358260Y-133176022D01*
X285358260Y-133176022D02*
X285138672Y-133295487D01*
X285138672Y-133295487D02*
X284946611Y-133453813D01*
X284946611Y-133453813D02*
X284813186Y-133643442D01*
X284813186Y-133643442D02*
X284744251Y-133849603D01*
X284744251Y-133849603D02*
X284741326Y-134057164D01*
X284741326Y-134057164D02*
X284805929Y-134250991D01*
X284805929Y-134250991D02*
X284939581Y-134415951D01*
X284939581Y-134415951D02*
X285143800Y-134536912D01*
X285143800Y-134536912D02*
X285351976Y-134588165D01*
X285351976Y-134588165D02*
X285562104Y-134585110D01*
X285562104Y-134585110D02*
X285765120Y-134533097D01*
X285765120Y-134533097D02*
X285951958Y-134437476D01*
X285951958Y-134437476D02*
X286113556Y-134303597D01*
X286113556Y-134303597D02*
X286240849Y-134136811D01*
X286240849Y-134136811D02*
X286324773Y-133942467D01*
X286324773Y-133942467D02*
X286356079Y-133732212D01*
X286356079Y-133732212D02*
X286367413Y-133452194D01*
X286367413Y-133452194D02*
X286367683Y-133165429D01*
X286367683Y-133165429D02*
X286365794Y-132934934D01*
X286365794Y-132934934D02*
X286450557Y-131171138D01*
X286450557Y-131171138D02*
X286646038Y-131250813D01*
X286646038Y-131250813D02*
X286817639Y-131352908D01*
X286817639Y-131352908D02*
X286965637Y-131477704D01*
X286965637Y-131477704D02*
X287090305Y-131625484D01*
X287090305Y-131625484D02*
X287191918Y-131796531D01*
X287191918Y-131796531D02*
X287270753Y-131991127D01*
X287270753Y-131991127D02*
X287327083Y-132209554D01*
X287327083Y-132209554D02*
X287361183Y-132452095D01*
X287361183Y-132452095D02*
X287373328Y-132719034D01*
X287373328Y-132719034D02*
X287371969Y-132908746D01*
X287371969Y-132908746D02*
X287368997Y-133186257D01*
X287368997Y-133186257D02*
X287368190Y-133503830D01*
X287368190Y-133503830D02*
X287373322Y-133813727D01*
X287373322Y-133813727D02*
X287388169Y-134068209D01*
X287388169Y-134068209D02*
X287416508Y-134219539D01*
X287416508Y-134219539D02*
X287544361Y-134361808D01*
X287544361Y-134361808D02*
X287731526Y-134455232D01*
X287731526Y-134455232D02*
X287913993Y-134532145D01*
X287913993Y-134532145D02*
X288027753Y-134624878D01*
X288027753Y-134624878D02*
X288008794Y-134765766D01*
X288008794Y-134765766D02*
X287857104Y-134855964D01*
X287857104Y-134855964D02*
X287635846Y-134879473D01*
X287635846Y-134879473D02*
X287445295Y-134878034D01*
X287445295Y-134878034D02*
X287184599Y-134879894D01*
X287184599Y-134879894D02*
X286984015Y-134872226D01*
X286984015Y-134872226D02*
X286826291Y-134836431D01*
X286826291Y-134836431D02*
X286694175Y-134753906D01*
X286694175Y-134753906D02*
X286570416Y-134606052D01*
X286570416Y-134606052D02*
X286437761Y-134374267D01*
X286437761Y-134374267D02*
X286337327Y-134535499D01*
X286337327Y-134535499D02*
X286232576Y-134655150D01*
X286232576Y-134655150D02*
X286075049Y-134767925D01*
X286075049Y-134767925D02*
X285885133Y-134856161D01*
X285885133Y-134856161D02*
X285661395Y-134916849D01*
X285661395Y-134916849D02*
X285414048Y-134950533D01*
X285414048Y-134950533D02*
X285153302Y-134957759D01*
X285153302Y-134957759D02*
X284889370Y-134939070D01*
X284889370Y-134939070D02*
X284632463Y-134895012D01*
X284632463Y-134895012D02*
X284392792Y-134826131D01*
X284392792Y-134826131D02*
X284180569Y-134732970D01*
X284180569Y-134732970D02*
X284006006Y-134616075D01*
X284006006Y-134616075D02*
X283843734Y-134441899D01*
X283843734Y-134441899D02*
X283745799Y-134254668D01*
X283745799Y-134254668D02*
X283706118Y-134060039D01*
X283706118Y-134060039D02*
X283718609Y-133863669D01*
X283718609Y-133863669D02*
X283777189Y-133671214D01*
X283777189Y-133671214D02*
X283875773Y-133488331D01*
X283875773Y-133488331D02*
X284008280Y-133320676D01*
X284008280Y-133320676D02*
X284168625Y-133173906D01*
X284168625Y-133173906D02*
X284350727Y-133053679D01*
X284350727Y-133053679D02*
X284538683Y-132961618D01*
X284538683Y-132961618D02*
X284736018Y-132885547D01*
X284736018Y-132885547D02*
X284938616Y-132824454D01*
X284938616Y-132824454D02*
X285142360Y-132777327D01*
X285142360Y-132777327D02*
X285362590Y-132738908D01*
X285362590Y-132738908D02*
X285617778Y-132704013D01*
X285617778Y-132704013D02*
X285885195Y-132675301D01*
X285885195Y-132675301D02*
X286142110Y-132655432D01*
X286142110Y-132655432D02*
X286365794Y-132647067D01*
X286365794Y-132647067D02*
X286356832Y-132411306D01*
X286356832Y-132411306D02*
X286327199Y-132178964D01*
X286327199Y-132178964D02*
X286266300Y-131959695D01*
X286266300Y-131959695D02*
X286163541Y-131763156D01*
X286163541Y-131763156D02*
X286008326Y-131599002D01*
X286008326Y-131599002D02*
X285790061Y-131476889D01*
X285790061Y-131476889D02*
X285605533Y-131437296D01*
X285605533Y-131437296D02*
X285369595Y-131422464D01*
X285369595Y-131422464D02*
X285127989Y-131421531D01*
X285127989Y-131421531D02*
X284926460Y-131423634D01*
X284926460Y-131423634D02*
X284926460Y-131423634D01*
G36*
X286817639Y-131352908D02*
G01*
X286965637Y-131477704D01*
X287090305Y-131625484D01*
X287191918Y-131796531D01*
X287270753Y-131991127D01*
X287327083Y-132209554D01*
X287361183Y-132452095D01*
X287373328Y-132719034D01*
X287371969Y-132908746D01*
X287368997Y-133186257D01*
X287368190Y-133503830D01*
X287373322Y-133813727D01*
X287388169Y-134068209D01*
X287416508Y-134219539D01*
X287544361Y-134361808D01*
X287731526Y-134455232D01*
X287913993Y-134532145D01*
X288027753Y-134624878D01*
X288008794Y-134765766D01*
X287857104Y-134855964D01*
X287635846Y-134879473D01*
X287445295Y-134878034D01*
X287184599Y-134879894D01*
X286984015Y-134872226D01*
X286826291Y-134836431D01*
X286694175Y-134753906D01*
X286570416Y-134606052D01*
X286437761Y-134374267D01*
X286337327Y-134535499D01*
X286232576Y-134655150D01*
X286075049Y-134767925D01*
X285885133Y-134856161D01*
X285661395Y-134916849D01*
X285414048Y-134950533D01*
X285153302Y-134957759D01*
X284889370Y-134939070D01*
X284632463Y-134895012D01*
X284392792Y-134826131D01*
X284180569Y-134732970D01*
X284006006Y-134616075D01*
X283843734Y-134441899D01*
X283745799Y-134254668D01*
X283706118Y-134060039D01*
X283706301Y-134057164D01*
X284741326Y-134057164D01*
X284805929Y-134250991D01*
X284939581Y-134415951D01*
X285143800Y-134536912D01*
X285351976Y-134588165D01*
X285562104Y-134585110D01*
X285765120Y-134533097D01*
X285951958Y-134437476D01*
X286113556Y-134303597D01*
X286240849Y-134136811D01*
X286324773Y-133942467D01*
X286356079Y-133732212D01*
X286367413Y-133452194D01*
X286367683Y-133165429D01*
X286365794Y-132934934D01*
X286111313Y-132986975D01*
X285855820Y-133031729D01*
X285603431Y-133088358D01*
X285358260Y-133176022D01*
X285138672Y-133295487D01*
X284946611Y-133453813D01*
X284813186Y-133643442D01*
X284744251Y-133849603D01*
X284741326Y-134057164D01*
X283706301Y-134057164D01*
X283718609Y-133863669D01*
X283777189Y-133671214D01*
X283875773Y-133488331D01*
X284008280Y-133320676D01*
X284168625Y-133173906D01*
X284350727Y-133053679D01*
X284538683Y-132961618D01*
X284736018Y-132885547D01*
X284938616Y-132824454D01*
X285142360Y-132777327D01*
X285362590Y-132738908D01*
X285617778Y-132704013D01*
X285885195Y-132675301D01*
X286142110Y-132655432D01*
X286365794Y-132647067D01*
X286356832Y-132411306D01*
X286327199Y-132178964D01*
X286266300Y-131959695D01*
X286163541Y-131763156D01*
X286008326Y-131599002D01*
X285790061Y-131476889D01*
X285605533Y-131437296D01*
X285369595Y-131422464D01*
X285127989Y-131421531D01*
X284926460Y-131423634D01*
X285014080Y-131593565D01*
X285057440Y-131783467D01*
X285045524Y-131972402D01*
X284984314Y-132123595D01*
X284885071Y-132236594D01*
X284759062Y-132310949D01*
X284617548Y-132346207D01*
X284471794Y-132341920D01*
X284333064Y-132297634D01*
X284212621Y-132212901D01*
X284121729Y-132087268D01*
X284071653Y-131920285D01*
X284073655Y-131711500D01*
X284138317Y-131505433D01*
X284260121Y-131347858D01*
X284427225Y-131232362D01*
X284627789Y-131152530D01*
X284849972Y-131101946D01*
X285081935Y-131074195D01*
X285311836Y-131062864D01*
X285527836Y-131061538D01*
X285718094Y-131063800D01*
X285986860Y-131077914D01*
X286230923Y-131113599D01*
X286450557Y-131171138D01*
X286646038Y-131250813D01*
X286817639Y-131352908D01*
G37*
X286817639Y-131352908D02*
X286965637Y-131477704D01*
X287090305Y-131625484D01*
X287191918Y-131796531D01*
X287270753Y-131991127D01*
X287327083Y-132209554D01*
X287361183Y-132452095D01*
X287373328Y-132719034D01*
X287371969Y-132908746D01*
X287368997Y-133186257D01*
X287368190Y-133503830D01*
X287373322Y-133813727D01*
X287388169Y-134068209D01*
X287416508Y-134219539D01*
X287544361Y-134361808D01*
X287731526Y-134455232D01*
X287913993Y-134532145D01*
X288027753Y-134624878D01*
X288008794Y-134765766D01*
X287857104Y-134855964D01*
X287635846Y-134879473D01*
X287445295Y-134878034D01*
X287184599Y-134879894D01*
X286984015Y-134872226D01*
X286826291Y-134836431D01*
X286694175Y-134753906D01*
X286570416Y-134606052D01*
X286437761Y-134374267D01*
X286337327Y-134535499D01*
X286232576Y-134655150D01*
X286075049Y-134767925D01*
X285885133Y-134856161D01*
X285661395Y-134916849D01*
X285414048Y-134950533D01*
X285153302Y-134957759D01*
X284889370Y-134939070D01*
X284632463Y-134895012D01*
X284392792Y-134826131D01*
X284180569Y-134732970D01*
X284006006Y-134616075D01*
X283843734Y-134441899D01*
X283745799Y-134254668D01*
X283706118Y-134060039D01*
X283706301Y-134057164D01*
X284741326Y-134057164D01*
X284805929Y-134250991D01*
X284939581Y-134415951D01*
X285143800Y-134536912D01*
X285351976Y-134588165D01*
X285562104Y-134585110D01*
X285765120Y-134533097D01*
X285951958Y-134437476D01*
X286113556Y-134303597D01*
X286240849Y-134136811D01*
X286324773Y-133942467D01*
X286356079Y-133732212D01*
X286367413Y-133452194D01*
X286367683Y-133165429D01*
X286365794Y-132934934D01*
X286111313Y-132986975D01*
X285855820Y-133031729D01*
X285603431Y-133088358D01*
X285358260Y-133176022D01*
X285138672Y-133295487D01*
X284946611Y-133453813D01*
X284813186Y-133643442D01*
X284744251Y-133849603D01*
X284741326Y-134057164D01*
X283706301Y-134057164D01*
X283718609Y-133863669D01*
X283777189Y-133671214D01*
X283875773Y-133488331D01*
X284008280Y-133320676D01*
X284168625Y-133173906D01*
X284350727Y-133053679D01*
X284538683Y-132961618D01*
X284736018Y-132885547D01*
X284938616Y-132824454D01*
X285142360Y-132777327D01*
X285362590Y-132738908D01*
X285617778Y-132704013D01*
X285885195Y-132675301D01*
X286142110Y-132655432D01*
X286365794Y-132647067D01*
X286356832Y-132411306D01*
X286327199Y-132178964D01*
X286266300Y-131959695D01*
X286163541Y-131763156D01*
X286008326Y-131599002D01*
X285790061Y-131476889D01*
X285605533Y-131437296D01*
X285369595Y-131422464D01*
X285127989Y-131421531D01*
X284926460Y-131423634D01*
X285014080Y-131593565D01*
X285057440Y-131783467D01*
X285045524Y-131972402D01*
X284984314Y-132123595D01*
X284885071Y-132236594D01*
X284759062Y-132310949D01*
X284617548Y-132346207D01*
X284471794Y-132341920D01*
X284333064Y-132297634D01*
X284212621Y-132212901D01*
X284121729Y-132087268D01*
X284071653Y-131920285D01*
X284073655Y-131711500D01*
X284138317Y-131505433D01*
X284260121Y-131347858D01*
X284427225Y-131232362D01*
X284627789Y-131152530D01*
X284849972Y-131101946D01*
X285081935Y-131074195D01*
X285311836Y-131062864D01*
X285527836Y-131061538D01*
X285718094Y-131063800D01*
X285986860Y-131077914D01*
X286230923Y-131113599D01*
X286450557Y-131171138D01*
X286646038Y-131250813D01*
X286817639Y-131352908D01*
D12*
X284118393Y-139550541D02*
X284134931Y-139161936D01*
X284134931Y-139161936D02*
X284306083Y-139133575D01*
X284306083Y-139133575D02*
X284439202Y-139048495D01*
X284439202Y-139048495D02*
X284534287Y-138906695D01*
X284534287Y-138906695D02*
X284591337Y-138708175D01*
X284591337Y-138708175D02*
X284610354Y-138452934D01*
X284610354Y-138452934D02*
X284597722Y-138254497D01*
X284597722Y-138254497D02*
X284559826Y-138086376D01*
X284559826Y-138086376D02*
X284496667Y-137948572D01*
X284496667Y-137948572D02*
X284352490Y-137809045D01*
X284352490Y-137809045D02*
X284147335Y-137762537D01*
X284147335Y-137762537D02*
X283934944Y-137810596D01*
X283934944Y-137810596D02*
X283785599Y-137954775D01*
X283785599Y-137954775D02*
X283720142Y-138095565D01*
X283720142Y-138095565D02*
X283680868Y-138264374D01*
X283680868Y-138264374D02*
X283667777Y-138461203D01*
X283667777Y-138461203D02*
X283681557Y-138670665D01*
X283681557Y-138670665D02*
X283722898Y-138844298D01*
X283722898Y-138844298D02*
X283791799Y-138982101D01*
X283791799Y-138982101D02*
X283940628Y-139116977D01*
X283940628Y-139116977D02*
X284134931Y-139161936D01*
X284134931Y-139161936D02*
X284118393Y-139550541D01*
X284118393Y-139550541D02*
X283900576Y-139529742D01*
X283900576Y-139529742D02*
X283710148Y-139467342D01*
X283710148Y-139467342D02*
X283547109Y-139363343D01*
X283547109Y-139363343D02*
X283411460Y-139217745D01*
X283411460Y-139217745D02*
X283304747Y-139045276D01*
X283304747Y-139045276D02*
X283228525Y-138860663D01*
X283228525Y-138860663D02*
X283182791Y-138663905D01*
X283182791Y-138663905D02*
X283167546Y-138455003D01*
X283167546Y-138455003D02*
X283184341Y-138233181D01*
X283184341Y-138233181D02*
X283234726Y-138030738D01*
X283234726Y-138030738D02*
X283318700Y-137847674D01*
X283318700Y-137847674D02*
X283436264Y-137683989D01*
X283436264Y-137683989D02*
X283582379Y-137549243D01*
X283582379Y-137549243D02*
X283749939Y-137452997D01*
X283749939Y-137452997D02*
X283938946Y-137395249D01*
X283938946Y-137395249D02*
X284149398Y-137375999D01*
X284149398Y-137375999D02*
X284349774Y-137394732D01*
X284349774Y-137394732D02*
X284531288Y-137450930D01*
X284531288Y-137450930D02*
X284693939Y-137544594D01*
X284693939Y-137544594D02*
X284837729Y-137675722D01*
X284837729Y-137675722D02*
X284956197Y-137836823D01*
X284956197Y-137836823D02*
X285040817Y-138020404D01*
X285040817Y-138020404D02*
X285091589Y-138226464D01*
X285091589Y-138226464D02*
X285108513Y-138455003D01*
X285108513Y-138455003D02*
X285090943Y-138690001D01*
X285090943Y-138690001D02*
X285038234Y-138900970D01*
X285038234Y-138900970D02*
X284950384Y-139087909D01*
X284950384Y-139087909D02*
X284827395Y-139250819D01*
X284827395Y-139250819D02*
X284678437Y-139381947D01*
X284678437Y-139381947D02*
X284510618Y-139475611D01*
X284510618Y-139475611D02*
X284323936Y-139531809D01*
X284323936Y-139531809D02*
X284118393Y-139550541D01*
X284118393Y-139550541D02*
X284118393Y-139550541D01*
G36*
X283710148Y-139467342D02*
G01*
X283547109Y-139363343D01*
X283411460Y-139217745D01*
X283304747Y-139045276D01*
X283228525Y-138860663D01*
X283182791Y-138663905D01*
X283167998Y-138461203D01*
X283667777Y-138461203D01*
X283681557Y-138670665D01*
X283722898Y-138844298D01*
X283791799Y-138982101D01*
X283940628Y-139116977D01*
X284134931Y-139161936D01*
X284306083Y-139133575D01*
X284439202Y-139048495D01*
X284534287Y-138906695D01*
X284591337Y-138708175D01*
X284610354Y-138452934D01*
X284597722Y-138254497D01*
X284559826Y-138086376D01*
X284496667Y-137948572D01*
X284352490Y-137809045D01*
X284147335Y-137762537D01*
X283934944Y-137810596D01*
X283785599Y-137954775D01*
X283720142Y-138095565D01*
X283680868Y-138264374D01*
X283667777Y-138461203D01*
X283167998Y-138461203D01*
X283167546Y-138455003D01*
X283184341Y-138233181D01*
X283234726Y-138030738D01*
X283318700Y-137847674D01*
X283436264Y-137683989D01*
X283582379Y-137549243D01*
X283749939Y-137452997D01*
X283938946Y-137395249D01*
X284149398Y-137375999D01*
X284349774Y-137394732D01*
X284531288Y-137450930D01*
X284693939Y-137544594D01*
X284837729Y-137675722D01*
X284956197Y-137836823D01*
X285040817Y-138020404D01*
X285091589Y-138226464D01*
X285108513Y-138455003D01*
X285090943Y-138690001D01*
X285038234Y-138900970D01*
X284950384Y-139087909D01*
X284827395Y-139250819D01*
X284678437Y-139381947D01*
X284510618Y-139475611D01*
X284323936Y-139531809D01*
X284118393Y-139550541D01*
X283900576Y-139529742D01*
X283710148Y-139467342D01*
G37*
X283710148Y-139467342D02*
X283547109Y-139363343D01*
X283411460Y-139217745D01*
X283304747Y-139045276D01*
X283228525Y-138860663D01*
X283182791Y-138663905D01*
X283167998Y-138461203D01*
X283667777Y-138461203D01*
X283681557Y-138670665D01*
X283722898Y-138844298D01*
X283791799Y-138982101D01*
X283940628Y-139116977D01*
X284134931Y-139161936D01*
X284306083Y-139133575D01*
X284439202Y-139048495D01*
X284534287Y-138906695D01*
X284591337Y-138708175D01*
X284610354Y-138452934D01*
X284597722Y-138254497D01*
X284559826Y-138086376D01*
X284496667Y-137948572D01*
X284352490Y-137809045D01*
X284147335Y-137762537D01*
X283934944Y-137810596D01*
X283785599Y-137954775D01*
X283720142Y-138095565D01*
X283680868Y-138264374D01*
X283667777Y-138461203D01*
X283167998Y-138461203D01*
X283167546Y-138455003D01*
X283184341Y-138233181D01*
X283234726Y-138030738D01*
X283318700Y-137847674D01*
X283436264Y-137683989D01*
X283582379Y-137549243D01*
X283749939Y-137452997D01*
X283938946Y-137395249D01*
X284149398Y-137375999D01*
X284349774Y-137394732D01*
X284531288Y-137450930D01*
X284693939Y-137544594D01*
X284837729Y-137675722D01*
X284956197Y-137836823D01*
X285040817Y-138020404D01*
X285091589Y-138226464D01*
X285108513Y-138455003D01*
X285090943Y-138690001D01*
X285038234Y-138900970D01*
X284950384Y-139087909D01*
X284827395Y-139250819D01*
X284678437Y-139381947D01*
X284510618Y-139475611D01*
X284323936Y-139531809D01*
X284118393Y-139550541D01*
X283900576Y-139529742D01*
X283710148Y-139467342D01*
X273309746Y-139507136D02*
X273791369Y-137870024D01*
X273791369Y-137870024D02*
X274411485Y-137870024D01*
X274411485Y-137870024D02*
X274581502Y-137841602D01*
X274581502Y-137841602D02*
X274711211Y-137756336D01*
X274711211Y-137756336D02*
X274794925Y-137627145D01*
X274794925Y-137627145D02*
X274822830Y-137466948D01*
X274822830Y-137466948D02*
X274791308Y-137298483D01*
X274791308Y-137298483D02*
X274696742Y-137181695D01*
X274696742Y-137181695D02*
X274559798Y-137111932D01*
X274559798Y-137111932D02*
X274401150Y-137088677D01*
X274401150Y-137088677D02*
X273791369Y-137088677D01*
X273791369Y-137088677D02*
X273791369Y-137870024D01*
X273791369Y-137870024D02*
X273309746Y-139507136D01*
X273309746Y-139507136D02*
X273309746Y-136685602D01*
X273309746Y-136685602D02*
X274409419Y-136685602D01*
X274409419Y-136685602D02*
X274664702Y-136700071D01*
X274664702Y-136700071D02*
X274872442Y-136743477D01*
X274872442Y-136743477D02*
X274775290Y-138386790D01*
X274775290Y-138386790D02*
X274633179Y-138301524D01*
X274633179Y-138301524D02*
X274450759Y-138273102D01*
X274450759Y-138273102D02*
X273791369Y-138273102D01*
X273791369Y-138273102D02*
X273791369Y-139083387D01*
X273791369Y-139083387D02*
X274448693Y-139083387D01*
X274448693Y-139083387D02*
X274635246Y-139055999D01*
X274635246Y-139055999D02*
X274777356Y-138973834D01*
X274777356Y-138973834D02*
X274868823Y-138845159D01*
X274868823Y-138845159D02*
X274899312Y-138678243D01*
X274899312Y-138678243D02*
X274868307Y-138516497D01*
X274868307Y-138516497D02*
X274775290Y-138386790D01*
X274775290Y-138386790D02*
X274872442Y-136743477D01*
X274872442Y-136743477D02*
X275044007Y-136832878D01*
X275044007Y-136832878D02*
X275190769Y-136985325D01*
X275190769Y-136985325D02*
X275291537Y-137185312D01*
X275291537Y-137185312D02*
X275325126Y-137417339D01*
X275325126Y-137417339D02*
X275291020Y-137635931D01*
X275291020Y-137635931D02*
X275188700Y-137824549D01*
X275188700Y-137824549D02*
X275026436Y-137965109D01*
X275026436Y-137965109D02*
X274812495Y-138043658D01*
X274812495Y-138043658D02*
X274994856Y-138093496D01*
X274994856Y-138093496D02*
X275145062Y-138174111D01*
X275145062Y-138174111D02*
X275263114Y-138285503D01*
X275263114Y-138285503D02*
X275377835Y-138493242D01*
X275377835Y-138493242D02*
X275416075Y-138736121D01*
X275416075Y-138736121D02*
X275392190Y-138942368D01*
X275392190Y-138942368D02*
X275320533Y-139125647D01*
X275320533Y-139125647D02*
X275201104Y-139285958D01*
X275201104Y-139285958D02*
X275033442Y-139408835D01*
X275033442Y-139408835D02*
X274814333Y-139482560D01*
X274814333Y-139482560D02*
X274543777Y-139507136D01*
X274543777Y-139507136D02*
X273309746Y-139507136D01*
X273309746Y-139507136D02*
X273309746Y-139507136D01*
G36*
X273309746Y-136685602D02*
G01*
X274409419Y-136685602D01*
X274664702Y-136700071D01*
X274872442Y-136743477D01*
X275044007Y-136832878D01*
X275190769Y-136985325D01*
X275291537Y-137185312D01*
X275325126Y-137417339D01*
X275291020Y-137635931D01*
X275188700Y-137824549D01*
X275026436Y-137965109D01*
X274812495Y-138043658D01*
X274994856Y-138093496D01*
X275145062Y-138174111D01*
X275263114Y-138285503D01*
X275377835Y-138493242D01*
X275416075Y-138736121D01*
X275392190Y-138942368D01*
X275320533Y-139125647D01*
X275201104Y-139285958D01*
X275033442Y-139408835D01*
X274814333Y-139482560D01*
X274543777Y-139507136D01*
X273309746Y-139507136D01*
X273309746Y-138273102D01*
X273791369Y-138273102D01*
X273791369Y-139083387D01*
X274448693Y-139083387D01*
X274635246Y-139055999D01*
X274777356Y-138973834D01*
X274868823Y-138845159D01*
X274899312Y-138678243D01*
X274868307Y-138516497D01*
X274775290Y-138386790D01*
X274633179Y-138301524D01*
X274450759Y-138273102D01*
X273791369Y-138273102D01*
X273309746Y-138273102D01*
X273309746Y-137088677D01*
X273791369Y-137088677D01*
X273791369Y-137870024D01*
X274411485Y-137870024D01*
X274581502Y-137841602D01*
X274711211Y-137756336D01*
X274794925Y-137627145D01*
X274822830Y-137466948D01*
X274791308Y-137298483D01*
X274696742Y-137181695D01*
X274559798Y-137111932D01*
X274401150Y-137088677D01*
X273791369Y-137088677D01*
X273309746Y-137088677D01*
X273309746Y-136685602D01*
G37*
X273309746Y-136685602D02*
X274409419Y-136685602D01*
X274664702Y-136700071D01*
X274872442Y-136743477D01*
X275044007Y-136832878D01*
X275190769Y-136985325D01*
X275291537Y-137185312D01*
X275325126Y-137417339D01*
X275291020Y-137635931D01*
X275188700Y-137824549D01*
X275026436Y-137965109D01*
X274812495Y-138043658D01*
X274994856Y-138093496D01*
X275145062Y-138174111D01*
X275263114Y-138285503D01*
X275377835Y-138493242D01*
X275416075Y-138736121D01*
X275392190Y-138942368D01*
X275320533Y-139125647D01*
X275201104Y-139285958D01*
X275033442Y-139408835D01*
X274814333Y-139482560D01*
X274543777Y-139507136D01*
X273309746Y-139507136D01*
X273309746Y-138273102D01*
X273791369Y-138273102D01*
X273791369Y-139083387D01*
X274448693Y-139083387D01*
X274635246Y-139055999D01*
X274777356Y-138973834D01*
X274868823Y-138845159D01*
X274899312Y-138678243D01*
X274868307Y-138516497D01*
X274775290Y-138386790D01*
X274633179Y-138301524D01*
X274450759Y-138273102D01*
X273791369Y-138273102D01*
X273309746Y-138273102D01*
X273309746Y-137088677D01*
X273791369Y-137088677D01*
X273791369Y-137870024D01*
X274411485Y-137870024D01*
X274581502Y-137841602D01*
X274711211Y-137756336D01*
X274794925Y-137627145D01*
X274822830Y-137466948D01*
X274791308Y-137298483D01*
X274696742Y-137181695D01*
X274559798Y-137111932D01*
X274401150Y-137088677D01*
X273791369Y-137088677D01*
X273309746Y-137088677D01*
X273309746Y-136685602D01*
X297227677Y-137328456D02*
X296797728Y-137411139D01*
X296797728Y-137411139D02*
X296689323Y-137190653D01*
X296689323Y-137190653D02*
X296523958Y-137058361D01*
X296523958Y-137058361D02*
X296301635Y-137014264D01*
X296301635Y-137014264D02*
X296085741Y-137048944D01*
X296085741Y-137048944D02*
X295917620Y-137152986D01*
X295917620Y-137152986D02*
X295797272Y-137326388D01*
X295797272Y-137326388D02*
X295718035Y-137536999D01*
X295718035Y-137536999D02*
X295670493Y-137755418D01*
X295670493Y-137755418D02*
X295654646Y-137981646D01*
X295654646Y-137981646D02*
X295656621Y-138118072D01*
X295656621Y-138118072D02*
X296274761Y-138091201D01*
X296274761Y-138091201D02*
X296058237Y-138130992D01*
X296058237Y-138130992D02*
X295888221Y-138250363D01*
X295888221Y-138250363D02*
X295778152Y-138427615D01*
X295778152Y-138427615D02*
X295741463Y-138641038D01*
X295741463Y-138641038D02*
X295779186Y-138853944D01*
X295779186Y-138853944D02*
X295892356Y-139025509D01*
X295892356Y-139025509D02*
X296068056Y-139138681D01*
X296068056Y-139138681D02*
X296293366Y-139176405D01*
X296293366Y-139176405D02*
X296502656Y-139142299D01*
X296502656Y-139142299D02*
X296675771Y-139039979D01*
X296675771Y-139039979D02*
X296793593Y-138865313D01*
X296793593Y-138865313D02*
X296832867Y-138618299D01*
X296832867Y-138618299D02*
X296795661Y-138432265D01*
X296795661Y-138432265D02*
X296684040Y-138258633D01*
X296684040Y-138258633D02*
X296508340Y-138133059D01*
X296508340Y-138133059D02*
X296274761Y-138091201D01*
X296274761Y-138091201D02*
X295656621Y-138118072D01*
X295656621Y-138118072D02*
X295781161Y-137932683D01*
X295781161Y-137932683D02*
X295943943Y-137800263D01*
X295943943Y-137800263D02*
X296144964Y-137720810D01*
X296144964Y-137720810D02*
X296384227Y-137694326D01*
X296384227Y-137694326D02*
X296636867Y-137722576D01*
X296636867Y-137722576D02*
X296860109Y-137807324D01*
X296860109Y-137807324D02*
X297053952Y-137948572D01*
X297053952Y-137948572D02*
X297203240Y-138132770D01*
X297203240Y-138132770D02*
X297292812Y-138346366D01*
X297292812Y-138346366D02*
X297322670Y-138589360D01*
X297322670Y-138589360D02*
X297304712Y-138785731D01*
X297304712Y-138785731D02*
X297250840Y-138965565D01*
X297250840Y-138965565D02*
X297161053Y-139128863D01*
X297161053Y-139128863D02*
X297035351Y-139275623D01*
X297035351Y-139275623D02*
X296882388Y-139395900D01*
X296882388Y-139395900D02*
X296710822Y-139481812D01*
X296710822Y-139481812D02*
X296520652Y-139533359D01*
X296520652Y-139533359D02*
X296311879Y-139550541D01*
X296311879Y-139550541D02*
X296054530Y-139526641D01*
X296054530Y-139526641D02*
X295826120Y-139454940D01*
X295826120Y-139454940D02*
X295626649Y-139335438D01*
X295626649Y-139335438D02*
X295456116Y-139168136D01*
X295456116Y-139168136D02*
X295344495Y-139003020D01*
X295344495Y-139003020D02*
X295257679Y-138815249D01*
X295257679Y-138815249D02*
X295195668Y-138604823D01*
X295195668Y-138604823D02*
X295158461Y-138371742D01*
X295158461Y-138371742D02*
X295146058Y-138116006D01*
X295146058Y-138116006D02*
X295158213Y-137863742D01*
X295158213Y-137863742D02*
X295194676Y-137631156D01*
X295194676Y-137631156D02*
X295255447Y-137418249D01*
X295255447Y-137418249D02*
X295340527Y-137225020D01*
X295340527Y-137225020D02*
X295449916Y-137051469D01*
X295449916Y-137051469D02*
X295615797Y-136872411D01*
X295615797Y-136872411D02*
X295807516Y-136744512D01*
X295807516Y-136744512D02*
X296025074Y-136667773D01*
X296025074Y-136667773D02*
X296268471Y-136642193D01*
X296268471Y-136642193D02*
X296509283Y-136661256D01*
X296509283Y-136661256D02*
X296717711Y-136718445D01*
X296717711Y-136718445D02*
X296893755Y-136813759D01*
X296893755Y-136813759D02*
X297037416Y-136947199D01*
X297037416Y-136947199D02*
X297148693Y-137118765D01*
X297148693Y-137118765D02*
X297227586Y-137328456D01*
X297227586Y-137328456D02*
X297227677Y-137328456D01*
X297227677Y-137328456D02*
X297227677Y-137328456D01*
G36*
X295943943Y-137800263D02*
G01*
X296144964Y-137720810D01*
X296384227Y-137694326D01*
X296636867Y-137722576D01*
X296860109Y-137807324D01*
X297053952Y-137948572D01*
X297203240Y-138132770D01*
X297292812Y-138346366D01*
X297322670Y-138589360D01*
X297304712Y-138785731D01*
X297250840Y-138965565D01*
X297161053Y-139128863D01*
X297035351Y-139275623D01*
X296882388Y-139395900D01*
X296710822Y-139481812D01*
X296520652Y-139533359D01*
X296311879Y-139550541D01*
X296054530Y-139526641D01*
X295826120Y-139454940D01*
X295626649Y-139335438D01*
X295456116Y-139168136D01*
X295344495Y-139003020D01*
X295257679Y-138815249D01*
X295206340Y-138641038D01*
X295741463Y-138641038D01*
X295779186Y-138853944D01*
X295892356Y-139025509D01*
X296068056Y-139138681D01*
X296293366Y-139176405D01*
X296502656Y-139142299D01*
X296675771Y-139039979D01*
X296793593Y-138865313D01*
X296832867Y-138618299D01*
X296795661Y-138432265D01*
X296684040Y-138258633D01*
X296508340Y-138133059D01*
X296274761Y-138091201D01*
X296058237Y-138130992D01*
X295888221Y-138250363D01*
X295778152Y-138427615D01*
X295741463Y-138641038D01*
X295206340Y-138641038D01*
X295195668Y-138604823D01*
X295158461Y-138371742D01*
X295146058Y-138116006D01*
X295158213Y-137863742D01*
X295194676Y-137631156D01*
X295255447Y-137418249D01*
X295340527Y-137225020D01*
X295449916Y-137051469D01*
X295615797Y-136872411D01*
X295807516Y-136744512D01*
X296025074Y-136667773D01*
X296268471Y-136642193D01*
X296509283Y-136661256D01*
X296717711Y-136718445D01*
X296893755Y-136813759D01*
X297037416Y-136947199D01*
X297148693Y-137118765D01*
X297227586Y-137328456D01*
X297227677Y-137328456D01*
X296797728Y-137411139D01*
X296689323Y-137190653D01*
X296523958Y-137058361D01*
X296301635Y-137014264D01*
X296085741Y-137048944D01*
X295917620Y-137152986D01*
X295797272Y-137326388D01*
X295718035Y-137536999D01*
X295670493Y-137755418D01*
X295654646Y-137981646D01*
X295656621Y-138118072D01*
X295781161Y-137932683D01*
X295943943Y-137800263D01*
G37*
X295943943Y-137800263D02*
X296144964Y-137720810D01*
X296384227Y-137694326D01*
X296636867Y-137722576D01*
X296860109Y-137807324D01*
X297053952Y-137948572D01*
X297203240Y-138132770D01*
X297292812Y-138346366D01*
X297322670Y-138589360D01*
X297304712Y-138785731D01*
X297250840Y-138965565D01*
X297161053Y-139128863D01*
X297035351Y-139275623D01*
X296882388Y-139395900D01*
X296710822Y-139481812D01*
X296520652Y-139533359D01*
X296311879Y-139550541D01*
X296054530Y-139526641D01*
X295826120Y-139454940D01*
X295626649Y-139335438D01*
X295456116Y-139168136D01*
X295344495Y-139003020D01*
X295257679Y-138815249D01*
X295206340Y-138641038D01*
X295741463Y-138641038D01*
X295779186Y-138853944D01*
X295892356Y-139025509D01*
X296068056Y-139138681D01*
X296293366Y-139176405D01*
X296502656Y-139142299D01*
X296675771Y-139039979D01*
X296793593Y-138865313D01*
X296832867Y-138618299D01*
X296795661Y-138432265D01*
X296684040Y-138258633D01*
X296508340Y-138133059D01*
X296274761Y-138091201D01*
X296058237Y-138130992D01*
X295888221Y-138250363D01*
X295778152Y-138427615D01*
X295741463Y-138641038D01*
X295206340Y-138641038D01*
X295195668Y-138604823D01*
X295158461Y-138371742D01*
X295146058Y-138116006D01*
X295158213Y-137863742D01*
X295194676Y-137631156D01*
X295255447Y-137418249D01*
X295340527Y-137225020D01*
X295449916Y-137051469D01*
X295615797Y-136872411D01*
X295807516Y-136744512D01*
X296025074Y-136667773D01*
X296268471Y-136642193D01*
X296509283Y-136661256D01*
X296717711Y-136718445D01*
X296893755Y-136813759D01*
X297037416Y-136947199D01*
X297148693Y-137118765D01*
X297227586Y-137328456D01*
X297227677Y-137328456D01*
X296797728Y-137411139D01*
X296689323Y-137190653D01*
X296523958Y-137058361D01*
X296301635Y-137014264D01*
X296085741Y-137048944D01*
X295917620Y-137152986D01*
X295797272Y-137326388D01*
X295718035Y-137536999D01*
X295670493Y-137755418D01*
X295654646Y-137981646D01*
X295656621Y-138118072D01*
X295781161Y-137932683D01*
X295943943Y-137800263D01*
X291179463Y-139507136D02*
X290708174Y-139507136D01*
X290708174Y-139507136D02*
X290708174Y-136685602D01*
X290708174Y-136685602D02*
X291179463Y-136685602D01*
X291179463Y-136685602D02*
X291179463Y-139507136D01*
X291179463Y-139507136D02*
X291179463Y-139507136D01*
G36*
X291179463Y-139507136D02*
G01*
X290708174Y-139507136D01*
X290708174Y-136685602D01*
X291179463Y-136685602D01*
X291179463Y-139507136D01*
G37*
X291179463Y-139507136D02*
X290708174Y-139507136D01*
X290708174Y-136685602D01*
X291179463Y-136685602D01*
X291179463Y-139507136D01*
D11*
X275570790Y-131240838D02*
X275786690Y-131597793D01*
X275786690Y-131597793D02*
X275569164Y-131690310D01*
X275569164Y-131690310D02*
X275401855Y-131814013D01*
X275401855Y-131814013D02*
X275267810Y-132005844D01*
X275267810Y-132005844D02*
X275191388Y-132169648D01*
X275191388Y-132169648D02*
X275132536Y-132377716D01*
X275132536Y-132377716D02*
X275091033Y-132618911D01*
X275091033Y-132618911D02*
X275066660Y-132882099D01*
X275066660Y-132882099D02*
X275059196Y-133156141D01*
X275059196Y-133156141D02*
X275068422Y-133429903D01*
X275068422Y-133429903D02*
X275094116Y-133692248D01*
X275094116Y-133692248D02*
X275136059Y-133932040D01*
X275136059Y-133932040D02*
X275194030Y-134138144D01*
X275194030Y-134138144D02*
X275267810Y-134299422D01*
X275267810Y-134299422D02*
X275416219Y-134469330D01*
X275416219Y-134469330D02*
X275590401Y-134594845D01*
X275590401Y-134594845D02*
X275786982Y-134677719D01*
X275786982Y-134677719D02*
X276002590Y-134719707D01*
X276002590Y-134719707D02*
X276261286Y-134724737D01*
X276261286Y-134724737D02*
X276478434Y-134686568D01*
X276478434Y-134686568D02*
X276657631Y-134610008D01*
X276657631Y-134610008D02*
X276802477Y-134499867D01*
X276802477Y-134499867D02*
X276916570Y-134360955D01*
X276916570Y-134360955D02*
X277003509Y-134198080D01*
X277003509Y-134198080D02*
X277066893Y-134016052D01*
X277066893Y-134016052D02*
X277110320Y-133819681D01*
X277110320Y-133819681D02*
X277137389Y-133613776D01*
X277137389Y-133613776D02*
X277151699Y-133403146D01*
X277151699Y-133403146D02*
X277156847Y-133192601D01*
X277156847Y-133192601D02*
X277156434Y-132986949D01*
X277156434Y-132986949D02*
X277154057Y-132791000D01*
X277154057Y-132791000D02*
X277138894Y-132522262D01*
X277138894Y-132522262D02*
X277099593Y-132287545D01*
X277099593Y-132287545D02*
X277035075Y-132086542D01*
X277035075Y-132086542D02*
X276944260Y-131918949D01*
X276944260Y-131918949D02*
X276826069Y-131784457D01*
X276826069Y-131784457D02*
X276679422Y-131682760D01*
X276679422Y-131682760D02*
X276503241Y-131613552D01*
X276503241Y-131613552D02*
X276296444Y-131576525D01*
X276296444Y-131576525D02*
X276057954Y-131571375D01*
X276057954Y-131571375D02*
X275786690Y-131597793D01*
X275786690Y-131597793D02*
X275570790Y-131240838D01*
X275570790Y-131240838D02*
X275799969Y-131214819D01*
X275799969Y-131214819D02*
X276033389Y-131200711D01*
X276033389Y-131200711D02*
X276268520Y-131200883D01*
X276268520Y-131200883D02*
X276502834Y-131217706D01*
X276502834Y-131217706D02*
X276733802Y-131253548D01*
X276733802Y-131253548D02*
X276958894Y-131310779D01*
X276958894Y-131310779D02*
X277175581Y-131391768D01*
X277175581Y-131391768D02*
X277381334Y-131498884D01*
X277381334Y-131498884D02*
X277573623Y-131634496D01*
X277573623Y-131634496D02*
X277736666Y-131789094D01*
X277736666Y-131789094D02*
X277877648Y-131966969D01*
X277877648Y-131966969D02*
X277996205Y-132164411D01*
X277996205Y-132164411D02*
X278091976Y-132377708D01*
X278091976Y-132377708D02*
X278164600Y-132603151D01*
X278164600Y-132603151D02*
X278213713Y-132837028D01*
X278213713Y-132837028D02*
X278238955Y-133075628D01*
X278238955Y-133075628D02*
X278239963Y-133315243D01*
X278239963Y-133315243D02*
X278216376Y-133552160D01*
X278216376Y-133552160D02*
X278167831Y-133782670D01*
X278167831Y-133782670D02*
X278093966Y-134003061D01*
X278093966Y-134003061D02*
X277994420Y-134209623D01*
X277994420Y-134209623D02*
X277868831Y-134398645D01*
X277868831Y-134398645D02*
X277716837Y-134566418D01*
X277716837Y-134566418D02*
X277533697Y-134716423D01*
X277533697Y-134716423D02*
X277337561Y-134836473D01*
X277337561Y-134836473D02*
X277130478Y-134929535D01*
X277130478Y-134929535D02*
X276914498Y-134998578D01*
X276914498Y-134998578D02*
X276691670Y-135046571D01*
X276691670Y-135046571D02*
X276464043Y-135076482D01*
X276464043Y-135076482D02*
X276233666Y-135091280D01*
X276233666Y-135091280D02*
X276002590Y-135093934D01*
X276002590Y-135093934D02*
X275748507Y-135080681D01*
X275748507Y-135080681D02*
X275491937Y-135044426D01*
X275491937Y-135044426D02*
X275240065Y-134981333D01*
X275240065Y-134981333D02*
X275000077Y-134887566D01*
X275000077Y-134887566D02*
X274779156Y-134759289D01*
X274779156Y-134759289D02*
X274621566Y-134634595D01*
X274621566Y-134634595D02*
X274480670Y-134494499D01*
X274480670Y-134494499D02*
X274356730Y-134340808D01*
X274356730Y-134340808D02*
X274250007Y-134175328D01*
X274250007Y-134175328D02*
X274160762Y-133999867D01*
X274160762Y-133999867D02*
X274089256Y-133816231D01*
X274089256Y-133816231D02*
X274035750Y-133626227D01*
X274035750Y-133626227D02*
X274000506Y-133431663D01*
X274000506Y-133431663D02*
X273983784Y-133234346D01*
X273983784Y-133234346D02*
X273985846Y-133036082D01*
X273985846Y-133036082D02*
X274006953Y-132838678D01*
X274006953Y-132838678D02*
X274047367Y-132643942D01*
X274047367Y-132643942D02*
X274107347Y-132453681D01*
X274107347Y-132453681D02*
X274187156Y-132269701D01*
X274187156Y-132269701D02*
X274287055Y-132093810D01*
X274287055Y-132093810D02*
X274407304Y-131927814D01*
X274407304Y-131927814D02*
X274548165Y-131773521D01*
X274548165Y-131773521D02*
X274709899Y-131632737D01*
X274709899Y-131632737D02*
X274892768Y-131507270D01*
X274892768Y-131507270D02*
X275097032Y-131398927D01*
X275097032Y-131398927D02*
X275322952Y-131309514D01*
X275322952Y-131309514D02*
X275570790Y-131240838D01*
X275570790Y-131240838D02*
X275570790Y-131240838D01*
G36*
X276033389Y-131200711D02*
G01*
X276268520Y-131200883D01*
X276502834Y-131217706D01*
X276733802Y-131253548D01*
X276958894Y-131310779D01*
X277175581Y-131391768D01*
X277381334Y-131498884D01*
X277573623Y-131634496D01*
X277736666Y-131789094D01*
X277877648Y-131966969D01*
X277996205Y-132164411D01*
X278091976Y-132377708D01*
X278164600Y-132603151D01*
X278213713Y-132837028D01*
X278238955Y-133075628D01*
X278239963Y-133315243D01*
X278216376Y-133552160D01*
X278167831Y-133782670D01*
X278093966Y-134003061D01*
X277994420Y-134209623D01*
X277868831Y-134398645D01*
X277716837Y-134566418D01*
X277533697Y-134716423D01*
X277337561Y-134836473D01*
X277130478Y-134929535D01*
X276914498Y-134998578D01*
X276691670Y-135046571D01*
X276464043Y-135076482D01*
X276233666Y-135091280D01*
X276002590Y-135093934D01*
X275748507Y-135080681D01*
X275491937Y-135044426D01*
X275240065Y-134981333D01*
X275000077Y-134887566D01*
X274779156Y-134759289D01*
X274621566Y-134634595D01*
X274480670Y-134494499D01*
X274356730Y-134340808D01*
X274250007Y-134175328D01*
X274160762Y-133999867D01*
X274089256Y-133816231D01*
X274035750Y-133626227D01*
X274000506Y-133431663D01*
X273983784Y-133234346D01*
X273984597Y-133156141D01*
X275059196Y-133156141D01*
X275068422Y-133429903D01*
X275094116Y-133692248D01*
X275136059Y-133932040D01*
X275194030Y-134138144D01*
X275267810Y-134299422D01*
X275416219Y-134469330D01*
X275590401Y-134594845D01*
X275786982Y-134677719D01*
X276002590Y-134719707D01*
X276261286Y-134724737D01*
X276478434Y-134686568D01*
X276657631Y-134610008D01*
X276802477Y-134499867D01*
X276916570Y-134360955D01*
X277003509Y-134198080D01*
X277066893Y-134016052D01*
X277110320Y-133819681D01*
X277137389Y-133613776D01*
X277151699Y-133403146D01*
X277156847Y-133192601D01*
X277156434Y-132986949D01*
X277154057Y-132791000D01*
X277138894Y-132522262D01*
X277099593Y-132287545D01*
X277035075Y-132086542D01*
X276944260Y-131918949D01*
X276826069Y-131784457D01*
X276679422Y-131682760D01*
X276503241Y-131613552D01*
X276296444Y-131576525D01*
X276057954Y-131571375D01*
X275786690Y-131597793D01*
X275569164Y-131690310D01*
X275401855Y-131814013D01*
X275267810Y-132005844D01*
X275191388Y-132169648D01*
X275132536Y-132377716D01*
X275091033Y-132618911D01*
X275066660Y-132882099D01*
X275059196Y-133156141D01*
X273984597Y-133156141D01*
X273985846Y-133036082D01*
X274006953Y-132838678D01*
X274047367Y-132643942D01*
X274107347Y-132453681D01*
X274187156Y-132269701D01*
X274287055Y-132093810D01*
X274407304Y-131927814D01*
X274548165Y-131773521D01*
X274709899Y-131632737D01*
X274892768Y-131507270D01*
X275097032Y-131398927D01*
X275322952Y-131309514D01*
X275570790Y-131240838D01*
X275799969Y-131214819D01*
X276033389Y-131200711D01*
G37*
X276033389Y-131200711D02*
X276268520Y-131200883D01*
X276502834Y-131217706D01*
X276733802Y-131253548D01*
X276958894Y-131310779D01*
X277175581Y-131391768D01*
X277381334Y-131498884D01*
X277573623Y-131634496D01*
X277736666Y-131789094D01*
X277877648Y-131966969D01*
X277996205Y-132164411D01*
X278091976Y-132377708D01*
X278164600Y-132603151D01*
X278213713Y-132837028D01*
X278238955Y-133075628D01*
X278239963Y-133315243D01*
X278216376Y-133552160D01*
X278167831Y-133782670D01*
X278093966Y-134003061D01*
X277994420Y-134209623D01*
X277868831Y-134398645D01*
X277716837Y-134566418D01*
X277533697Y-134716423D01*
X277337561Y-134836473D01*
X277130478Y-134929535D01*
X276914498Y-134998578D01*
X276691670Y-135046571D01*
X276464043Y-135076482D01*
X276233666Y-135091280D01*
X276002590Y-135093934D01*
X275748507Y-135080681D01*
X275491937Y-135044426D01*
X275240065Y-134981333D01*
X275000077Y-134887566D01*
X274779156Y-134759289D01*
X274621566Y-134634595D01*
X274480670Y-134494499D01*
X274356730Y-134340808D01*
X274250007Y-134175328D01*
X274160762Y-133999867D01*
X274089256Y-133816231D01*
X274035750Y-133626227D01*
X274000506Y-133431663D01*
X273983784Y-133234346D01*
X273984597Y-133156141D01*
X275059196Y-133156141D01*
X275068422Y-133429903D01*
X275094116Y-133692248D01*
X275136059Y-133932040D01*
X275194030Y-134138144D01*
X275267810Y-134299422D01*
X275416219Y-134469330D01*
X275590401Y-134594845D01*
X275786982Y-134677719D01*
X276002590Y-134719707D01*
X276261286Y-134724737D01*
X276478434Y-134686568D01*
X276657631Y-134610008D01*
X276802477Y-134499867D01*
X276916570Y-134360955D01*
X277003509Y-134198080D01*
X277066893Y-134016052D01*
X277110320Y-133819681D01*
X277137389Y-133613776D01*
X277151699Y-133403146D01*
X277156847Y-133192601D01*
X277156434Y-132986949D01*
X277154057Y-132791000D01*
X277138894Y-132522262D01*
X277099593Y-132287545D01*
X277035075Y-132086542D01*
X276944260Y-131918949D01*
X276826069Y-131784457D01*
X276679422Y-131682760D01*
X276503241Y-131613552D01*
X276296444Y-131576525D01*
X276057954Y-131571375D01*
X275786690Y-131597793D01*
X275569164Y-131690310D01*
X275401855Y-131814013D01*
X275267810Y-132005844D01*
X275191388Y-132169648D01*
X275132536Y-132377716D01*
X275091033Y-132618911D01*
X275066660Y-132882099D01*
X275059196Y-133156141D01*
X273984597Y-133156141D01*
X273985846Y-133036082D01*
X274006953Y-132838678D01*
X274047367Y-132643942D01*
X274107347Y-132453681D01*
X274187156Y-132269701D01*
X274287055Y-132093810D01*
X274407304Y-131927814D01*
X274548165Y-131773521D01*
X274709899Y-131632737D01*
X274892768Y-131507270D01*
X275097032Y-131398927D01*
X275322952Y-131309514D01*
X275570790Y-131240838D01*
X275799969Y-131214819D01*
X276033389Y-131200711D01*
D12*
X294755474Y-139066852D02*
X294755474Y-139507136D01*
X294755474Y-139507136D02*
X292676015Y-139507136D01*
X292676015Y-139507136D02*
X292676015Y-139013108D01*
X292676015Y-139013108D02*
X293540044Y-138438465D01*
X293540044Y-138438465D02*
X293779364Y-138266211D01*
X293779364Y-138266211D02*
X293959888Y-138107736D01*
X293959888Y-138107736D02*
X294081614Y-137963041D01*
X294081614Y-137963041D02*
X294185484Y-137763055D01*
X294185484Y-137763055D02*
X294220107Y-137580636D01*
X294220107Y-137580636D02*
X294185484Y-137388401D01*
X294185484Y-137388401D02*
X294081614Y-137229238D01*
X294081614Y-137229238D02*
X293922451Y-137122266D01*
X293922451Y-137122266D02*
X293721945Y-137086609D01*
X293721945Y-137086609D02*
X293544923Y-137110173D01*
X293544923Y-137110173D02*
X293400808Y-137180867D01*
X293400808Y-137180867D02*
X293289600Y-137298690D01*
X293289600Y-137298690D02*
X293211300Y-137463641D01*
X293211300Y-137463641D02*
X293165907Y-137675722D01*
X293165907Y-137675722D02*
X292676015Y-137553766D01*
X292676015Y-137553766D02*
X292737796Y-137315135D01*
X292737796Y-137315135D02*
X292848728Y-137100850D01*
X292848728Y-137100850D02*
X293008811Y-136910911D01*
X293008811Y-136910911D02*
X293159061Y-136793347D01*
X293159061Y-136793347D02*
X293330756Y-136709373D01*
X293330756Y-136709373D02*
X293523896Y-136658988D01*
X293523896Y-136658988D02*
X293738483Y-136642193D01*
X293738483Y-136642193D02*
X293960304Y-136658859D01*
X293960304Y-136658859D02*
X294158612Y-136708856D01*
X294158612Y-136708856D02*
X294333407Y-136792184D01*
X294333407Y-136792184D02*
X294484690Y-136908843D01*
X294484690Y-136908843D02*
X294606776Y-137050178D01*
X294606776Y-137050178D02*
X294693980Y-137209600D01*
X294693980Y-137209600D02*
X294746302Y-137387109D01*
X294746302Y-137387109D02*
X294763743Y-137582705D01*
X294763743Y-137582705D02*
X294736182Y-137815364D01*
X294736182Y-137815364D02*
X294653499Y-138031027D01*
X294653499Y-138031027D02*
X294515695Y-138229693D01*
X294515695Y-138229693D02*
X294412630Y-138331611D01*
X294412630Y-138331611D02*
X294268797Y-138448572D01*
X294268797Y-138448572D02*
X294084198Y-138580577D01*
X294084198Y-138580577D02*
X293858831Y-138727625D01*
X293858831Y-138727625D02*
X293592697Y-138889717D01*
X293592697Y-138889717D02*
X293285795Y-139066852D01*
X293285795Y-139066852D02*
X294755474Y-139066852D01*
X294755474Y-139066852D02*
X294755474Y-139066852D01*
G36*
X293960304Y-136658859D02*
G01*
X294158612Y-136708856D01*
X294333407Y-136792184D01*
X294484690Y-136908843D01*
X294606776Y-137050178D01*
X294693980Y-137209600D01*
X294746302Y-137387109D01*
X294763743Y-137582705D01*
X294736182Y-137815364D01*
X294653499Y-138031027D01*
X294515695Y-138229693D01*
X294412630Y-138331611D01*
X294268797Y-138448572D01*
X294084198Y-138580577D01*
X293858831Y-138727625D01*
X293592697Y-138889717D01*
X293285795Y-139066852D01*
X294755474Y-139066852D01*
X294755474Y-139507136D01*
X292676015Y-139507136D01*
X292676015Y-139013108D01*
X293540044Y-138438465D01*
X293779364Y-138266211D01*
X293959888Y-138107736D01*
X294081614Y-137963041D01*
X294185484Y-137763055D01*
X294220107Y-137580636D01*
X294185484Y-137388401D01*
X294081614Y-137229238D01*
X293922451Y-137122266D01*
X293721945Y-137086609D01*
X293544923Y-137110173D01*
X293400808Y-137180867D01*
X293289600Y-137298690D01*
X293211300Y-137463641D01*
X293165907Y-137675722D01*
X292676015Y-137553766D01*
X292737796Y-137315135D01*
X292848728Y-137100850D01*
X293008811Y-136910911D01*
X293159061Y-136793347D01*
X293330756Y-136709373D01*
X293523896Y-136658988D01*
X293738483Y-136642193D01*
X293960304Y-136658859D01*
G37*
X293960304Y-136658859D02*
X294158612Y-136708856D01*
X294333407Y-136792184D01*
X294484690Y-136908843D01*
X294606776Y-137050178D01*
X294693980Y-137209600D01*
X294746302Y-137387109D01*
X294763743Y-137582705D01*
X294736182Y-137815364D01*
X294653499Y-138031027D01*
X294515695Y-138229693D01*
X294412630Y-138331611D01*
X294268797Y-138448572D01*
X294084198Y-138580577D01*
X293858831Y-138727625D01*
X293592697Y-138889717D01*
X293285795Y-139066852D01*
X294755474Y-139066852D01*
X294755474Y-139507136D01*
X292676015Y-139507136D01*
X292676015Y-139013108D01*
X293540044Y-138438465D01*
X293779364Y-138266211D01*
X293959888Y-138107736D01*
X294081614Y-137963041D01*
X294185484Y-137763055D01*
X294220107Y-137580636D01*
X294185484Y-137388401D01*
X294081614Y-137229238D01*
X293922451Y-137122266D01*
X293721945Y-137086609D01*
X293544923Y-137110173D01*
X293400808Y-137180867D01*
X293289600Y-137298690D01*
X293211300Y-137463641D01*
X293165907Y-137675722D01*
X292676015Y-137553766D01*
X292737796Y-137315135D01*
X292848728Y-137100850D01*
X293008811Y-136910911D01*
X293159061Y-136793347D01*
X293330756Y-136709373D01*
X293523896Y-136658988D01*
X293738483Y-136642193D01*
X293960304Y-136658859D01*
D11*
X292204452Y-131279700D02*
X292283289Y-131466060D01*
X292283289Y-131466060D02*
X292327245Y-131660854D01*
X292327245Y-131660854D02*
X292309805Y-131855242D01*
X292309805Y-131855242D02*
X292204452Y-132040388D01*
X292204452Y-132040388D02*
X292051261Y-132155794D01*
X292051261Y-132155794D02*
X291852541Y-132204530D01*
X291852541Y-132204530D02*
X291644632Y-132176923D01*
X291644632Y-132176923D02*
X291463875Y-132063302D01*
X291463875Y-132063302D02*
X291346609Y-131853994D01*
X291346609Y-131853994D02*
X291307747Y-131637555D01*
X291307747Y-131637555D02*
X291346609Y-131426512D01*
X291346609Y-131426512D02*
X291469868Y-131250572D01*
X291469868Y-131250572D02*
X291633835Y-131120350D01*
X291633835Y-131120350D02*
X291828551Y-131029075D01*
X291828551Y-131029075D02*
X292044056Y-130969974D01*
X292044056Y-130969974D02*
X292270390Y-130936275D01*
X292270390Y-130936275D02*
X292497593Y-130921205D01*
X292497593Y-130921205D02*
X292715704Y-130917993D01*
X292715704Y-130917993D02*
X292914763Y-130919867D01*
X292914763Y-130919867D02*
X293192175Y-130932744D01*
X293192175Y-130932744D02*
X293444518Y-130965168D01*
X293444518Y-130965168D02*
X293672033Y-131018096D01*
X293672033Y-131018096D02*
X293634430Y-132862967D01*
X293634430Y-132862967D02*
X293425525Y-132864089D01*
X293425525Y-132864089D02*
X293236455Y-132872640D01*
X293236455Y-132872640D02*
X293048464Y-132898305D01*
X293048464Y-132898305D02*
X292842797Y-132950766D01*
X292842797Y-132950766D02*
X292669624Y-133014097D01*
X292669624Y-133014097D02*
X292497090Y-133097099D01*
X292497090Y-133097099D02*
X292342628Y-133196892D01*
X292342628Y-133196892D02*
X292183781Y-133340056D01*
X292183781Y-133340056D02*
X292073439Y-133484360D01*
X292073439Y-133484360D02*
X292007480Y-133627346D01*
X292007480Y-133627346D02*
X291981780Y-133766556D01*
X291981780Y-133766556D02*
X291992216Y-133899532D01*
X291992216Y-133899532D02*
X292034664Y-134023816D01*
X292034664Y-134023816D02*
X292105002Y-134136949D01*
X292105002Y-134136949D02*
X292199105Y-134236474D01*
X292199105Y-134236474D02*
X292312852Y-134319932D01*
X292312852Y-134319932D02*
X292442118Y-134384866D01*
X292442118Y-134384866D02*
X292582780Y-134428816D01*
X292582780Y-134428816D02*
X292730715Y-134449326D01*
X292730715Y-134449326D02*
X292881800Y-134443936D01*
X292881800Y-134443936D02*
X293031911Y-134410189D01*
X293031911Y-134410189D02*
X293176925Y-134345627D01*
X293176925Y-134345627D02*
X293312719Y-134247791D01*
X293312719Y-134247791D02*
X293435170Y-134114224D01*
X293435170Y-134114224D02*
X293540154Y-133942467D01*
X293540154Y-133942467D02*
X293608416Y-133733444D01*
X293608416Y-133733444D02*
X293631418Y-133514825D01*
X293631418Y-133514825D02*
X293634430Y-133294767D01*
X293634430Y-133294767D02*
X293634430Y-133078867D01*
X293634430Y-133078867D02*
X293634430Y-132862967D01*
X293634430Y-132862967D02*
X293672033Y-131018096D01*
X293672033Y-131018096D02*
X293874959Y-131092487D01*
X293874959Y-131092487D02*
X294053536Y-131189296D01*
X294053536Y-131189296D02*
X294208005Y-131309482D01*
X294208005Y-131309482D02*
X294338604Y-131454001D01*
X294338604Y-131454001D02*
X294445575Y-131623811D01*
X294445575Y-131623811D02*
X294529156Y-131819868D01*
X294529156Y-131819868D02*
X294589588Y-132043131D01*
X294589588Y-132043131D02*
X294627111Y-132294556D01*
X294627111Y-132294556D02*
X294641964Y-132575100D01*
X294641964Y-132575100D02*
X294640965Y-132766515D01*
X294640965Y-132766515D02*
X294637806Y-133043950D01*
X294637806Y-133043950D02*
X294636567Y-133360527D01*
X294636567Y-133360527D02*
X294641324Y-133669367D01*
X294641324Y-133669367D02*
X294656158Y-133923592D01*
X294656158Y-133923592D02*
X294685144Y-134076325D01*
X294685144Y-134076325D02*
X294810516Y-134220402D01*
X294810516Y-134220402D02*
X294991020Y-134314909D01*
X294991020Y-134314909D02*
X295166411Y-134392143D01*
X295166411Y-134392143D02*
X295276446Y-134484405D01*
X295276446Y-134484405D02*
X295260878Y-134623991D01*
X295260878Y-134623991D02*
X295114919Y-134714269D01*
X295114919Y-134714269D02*
X294899711Y-134736419D01*
X294899711Y-134736419D02*
X294713931Y-134734100D01*
X294713931Y-134734100D02*
X294481355Y-134736810D01*
X294481355Y-134736810D02*
X294278985Y-134731012D01*
X294278985Y-134731012D02*
X294107162Y-134697085D01*
X294107162Y-134697085D02*
X293966223Y-134615410D01*
X293966223Y-134615410D02*
X293856511Y-134466366D01*
X293856511Y-134466366D02*
X293778364Y-134230334D01*
X293778364Y-134230334D02*
X293622063Y-134393778D01*
X293622063Y-134393778D02*
X293462563Y-134538511D01*
X293462563Y-134538511D02*
X293271718Y-134662134D01*
X293271718Y-134662134D02*
X293085496Y-134735921D01*
X293085496Y-134735921D02*
X292866163Y-134784331D01*
X292866163Y-134784331D02*
X292624802Y-134808638D01*
X292624802Y-134808638D02*
X292372494Y-134810115D01*
X292372494Y-134810115D02*
X292120321Y-134790036D01*
X292120321Y-134790036D02*
X291879365Y-134749674D01*
X291879365Y-134749674D02*
X291660707Y-134690303D01*
X291660707Y-134690303D02*
X291475429Y-134613196D01*
X291475429Y-134613196D02*
X291275900Y-134481402D01*
X291275900Y-134481402D02*
X291128308Y-134325289D01*
X291128308Y-134325289D02*
X291031003Y-134150764D01*
X291031003Y-134150764D02*
X290982337Y-133963735D01*
X290982337Y-133963735D02*
X290980658Y-133770107D01*
X290980658Y-133770107D02*
X291024319Y-133575788D01*
X291024319Y-133575788D02*
X291111670Y-133386686D01*
X291111670Y-133386686D02*
X291241060Y-133208706D01*
X291241060Y-133208706D02*
X291410841Y-133047757D01*
X291410841Y-133047757D02*
X291619363Y-132909745D01*
X291619363Y-132909745D02*
X291850403Y-132803288D01*
X291850403Y-132803288D02*
X292093117Y-132721619D01*
X292093117Y-132721619D02*
X292339030Y-132656423D01*
X292339030Y-132656423D02*
X292557279Y-132613744D01*
X292557279Y-132613744D02*
X292833666Y-132573552D01*
X292833666Y-132573552D02*
X293130468Y-132539370D01*
X293130468Y-132539370D02*
X293409963Y-132514723D01*
X293409963Y-132514723D02*
X293634430Y-132503134D01*
X293634430Y-132503134D02*
X293625468Y-132267373D01*
X293625468Y-132267373D02*
X293595835Y-132035030D01*
X293595835Y-132035030D02*
X293534936Y-131815762D01*
X293534936Y-131815762D02*
X293432177Y-131619223D01*
X293432177Y-131619223D02*
X293276962Y-131455069D01*
X293276962Y-131455069D02*
X293058697Y-131332956D01*
X293058697Y-131332956D02*
X292874316Y-131293363D01*
X292874316Y-131293363D02*
X292639401Y-131278531D01*
X292639401Y-131278531D02*
X292400573Y-131277598D01*
X292400573Y-131277598D02*
X292204452Y-131279700D01*
X292204452Y-131279700D02*
X292204452Y-131279700D01*
G36*
X294053536Y-131189296D02*
G01*
X294208005Y-131309482D01*
X294338604Y-131454001D01*
X294445575Y-131623811D01*
X294529156Y-131819868D01*
X294589588Y-132043131D01*
X294627111Y-132294556D01*
X294641964Y-132575100D01*
X294640965Y-132766515D01*
X294637806Y-133043950D01*
X294636567Y-133360527D01*
X294641324Y-133669367D01*
X294656158Y-133923592D01*
X294685144Y-134076325D01*
X294810516Y-134220402D01*
X294991020Y-134314909D01*
X295166411Y-134392143D01*
X295276446Y-134484405D01*
X295260878Y-134623991D01*
X295114919Y-134714269D01*
X294899711Y-134736419D01*
X294713931Y-134734100D01*
X294481355Y-134736810D01*
X294278985Y-134731012D01*
X294107162Y-134697085D01*
X293966223Y-134615410D01*
X293856511Y-134466366D01*
X293778364Y-134230334D01*
X293622063Y-134393778D01*
X293462563Y-134538511D01*
X293271718Y-134662134D01*
X293085496Y-134735921D01*
X292866163Y-134784331D01*
X292624802Y-134808638D01*
X292372494Y-134810115D01*
X292120321Y-134790036D01*
X291879365Y-134749674D01*
X291660707Y-134690303D01*
X291475429Y-134613196D01*
X291275900Y-134481402D01*
X291128308Y-134325289D01*
X291031003Y-134150764D01*
X290982337Y-133963735D01*
X290980658Y-133770107D01*
X290981456Y-133766556D01*
X291981780Y-133766556D01*
X291992216Y-133899532D01*
X292034664Y-134023816D01*
X292105002Y-134136949D01*
X292199105Y-134236474D01*
X292312852Y-134319932D01*
X292442118Y-134384866D01*
X292582780Y-134428816D01*
X292730715Y-134449326D01*
X292881800Y-134443936D01*
X293031911Y-134410189D01*
X293176925Y-134345627D01*
X293312719Y-134247791D01*
X293435170Y-134114224D01*
X293540154Y-133942467D01*
X293608416Y-133733444D01*
X293631418Y-133514825D01*
X293634430Y-133294767D01*
X293634430Y-132862967D01*
X293425525Y-132864089D01*
X293236455Y-132872640D01*
X293048464Y-132898305D01*
X292842797Y-132950766D01*
X292669624Y-133014097D01*
X292497090Y-133097099D01*
X292342628Y-133196892D01*
X292183781Y-133340056D01*
X292073439Y-133484360D01*
X292007480Y-133627346D01*
X291981780Y-133766556D01*
X290981456Y-133766556D01*
X291024319Y-133575788D01*
X291111670Y-133386686D01*
X291241060Y-133208706D01*
X291410841Y-133047757D01*
X291619363Y-132909745D01*
X291850403Y-132803288D01*
X292093117Y-132721619D01*
X292339030Y-132656423D01*
X292557279Y-132613744D01*
X292833666Y-132573552D01*
X293130468Y-132539370D01*
X293409963Y-132514723D01*
X293634430Y-132503134D01*
X293625468Y-132267373D01*
X293595835Y-132035030D01*
X293534936Y-131815762D01*
X293432177Y-131619223D01*
X293276962Y-131455069D01*
X293058697Y-131332956D01*
X292874316Y-131293363D01*
X292639401Y-131278531D01*
X292400573Y-131277598D01*
X292204452Y-131279700D01*
X292283289Y-131466060D01*
X292327245Y-131660854D01*
X292309805Y-131855242D01*
X292204452Y-132040388D01*
X292051261Y-132155794D01*
X291852541Y-132204530D01*
X291644632Y-132176923D01*
X291463875Y-132063302D01*
X291346609Y-131853994D01*
X291307747Y-131637555D01*
X291346609Y-131426512D01*
X291469868Y-131250572D01*
X291633835Y-131120350D01*
X291828551Y-131029075D01*
X292044056Y-130969974D01*
X292270390Y-130936275D01*
X292497593Y-130921205D01*
X292715704Y-130917993D01*
X292914763Y-130919867D01*
X293192175Y-130932744D01*
X293444518Y-130965168D01*
X293672033Y-131018096D01*
X293874959Y-131092487D01*
X294053536Y-131189296D01*
G37*
X294053536Y-131189296D02*
X294208005Y-131309482D01*
X294338604Y-131454001D01*
X294445575Y-131623811D01*
X294529156Y-131819868D01*
X294589588Y-132043131D01*
X294627111Y-132294556D01*
X294641964Y-132575100D01*
X294640965Y-132766515D01*
X294637806Y-133043950D01*
X294636567Y-133360527D01*
X294641324Y-133669367D01*
X294656158Y-133923592D01*
X294685144Y-134076325D01*
X294810516Y-134220402D01*
X294991020Y-134314909D01*
X295166411Y-134392143D01*
X295276446Y-134484405D01*
X295260878Y-134623991D01*
X295114919Y-134714269D01*
X294899711Y-134736419D01*
X294713931Y-134734100D01*
X294481355Y-134736810D01*
X294278985Y-134731012D01*
X294107162Y-134697085D01*
X293966223Y-134615410D01*
X293856511Y-134466366D01*
X293778364Y-134230334D01*
X293622063Y-134393778D01*
X293462563Y-134538511D01*
X293271718Y-134662134D01*
X293085496Y-134735921D01*
X292866163Y-134784331D01*
X292624802Y-134808638D01*
X292372494Y-134810115D01*
X292120321Y-134790036D01*
X291879365Y-134749674D01*
X291660707Y-134690303D01*
X291475429Y-134613196D01*
X291275900Y-134481402D01*
X291128308Y-134325289D01*
X291031003Y-134150764D01*
X290982337Y-133963735D01*
X290980658Y-133770107D01*
X290981456Y-133766556D01*
X291981780Y-133766556D01*
X291992216Y-133899532D01*
X292034664Y-134023816D01*
X292105002Y-134136949D01*
X292199105Y-134236474D01*
X292312852Y-134319932D01*
X292442118Y-134384866D01*
X292582780Y-134428816D01*
X292730715Y-134449326D01*
X292881800Y-134443936D01*
X293031911Y-134410189D01*
X293176925Y-134345627D01*
X293312719Y-134247791D01*
X293435170Y-134114224D01*
X293540154Y-133942467D01*
X293608416Y-133733444D01*
X293631418Y-133514825D01*
X293634430Y-133294767D01*
X293634430Y-132862967D01*
X293425525Y-132864089D01*
X293236455Y-132872640D01*
X293048464Y-132898305D01*
X292842797Y-132950766D01*
X292669624Y-133014097D01*
X292497090Y-133097099D01*
X292342628Y-133196892D01*
X292183781Y-133340056D01*
X292073439Y-133484360D01*
X292007480Y-133627346D01*
X291981780Y-133766556D01*
X290981456Y-133766556D01*
X291024319Y-133575788D01*
X291111670Y-133386686D01*
X291241060Y-133208706D01*
X291410841Y-133047757D01*
X291619363Y-132909745D01*
X291850403Y-132803288D01*
X292093117Y-132721619D01*
X292339030Y-132656423D01*
X292557279Y-132613744D01*
X292833666Y-132573552D01*
X293130468Y-132539370D01*
X293409963Y-132514723D01*
X293634430Y-132503134D01*
X293625468Y-132267373D01*
X293595835Y-132035030D01*
X293534936Y-131815762D01*
X293432177Y-131619223D01*
X293276962Y-131455069D01*
X293058697Y-131332956D01*
X292874316Y-131293363D01*
X292639401Y-131278531D01*
X292400573Y-131277598D01*
X292204452Y-131279700D01*
X292283289Y-131466060D01*
X292327245Y-131660854D01*
X292309805Y-131855242D01*
X292204452Y-132040388D01*
X292051261Y-132155794D01*
X291852541Y-132204530D01*
X291644632Y-132176923D01*
X291463875Y-132063302D01*
X291346609Y-131853994D01*
X291307747Y-131637555D01*
X291346609Y-131426512D01*
X291469868Y-131250572D01*
X291633835Y-131120350D01*
X291828551Y-131029075D01*
X292044056Y-130969974D01*
X292270390Y-130936275D01*
X292497593Y-130921205D01*
X292715704Y-130917993D01*
X292914763Y-130919867D01*
X293192175Y-130932744D01*
X293444518Y-130965168D01*
X293672033Y-131018096D01*
X293874959Y-131092487D01*
X294053536Y-131189296D01*
D13*
X271828522Y-135597700D02*
X270375458Y-127851422D01*
X270375458Y-127851422D02*
X270423462Y-128094186D01*
X270423462Y-128094186D02*
X270494810Y-128328449D01*
X270494810Y-128328449D02*
X270605088Y-128544967D01*
X270605088Y-128544967D02*
X270673197Y-128440184D01*
X270673197Y-128440184D02*
X270835611Y-128190315D01*
X270835611Y-128190315D02*
X271029461Y-127892085D01*
X271029461Y-127892085D02*
X271191875Y-127642217D01*
X271191875Y-127642217D02*
X271259985Y-127537434D01*
X271259985Y-127537434D02*
X271372190Y-127318060D01*
X271372190Y-127318060D02*
X271470864Y-127096548D01*
X271470864Y-127096548D02*
X271555327Y-126873136D01*
X271555327Y-126873136D02*
X271624897Y-126648061D01*
X271624897Y-126648061D02*
X271678895Y-126421561D01*
X271678895Y-126421561D02*
X271716641Y-126193873D01*
X271716641Y-126193873D02*
X271737456Y-125965237D01*
X271737456Y-125965237D02*
X271740658Y-125735889D01*
X271740658Y-125735889D02*
X271725568Y-125506067D01*
X271725568Y-125506067D02*
X271691506Y-125276010D01*
X271691506Y-125276010D02*
X271637792Y-125045954D01*
X271637792Y-125045954D02*
X271563746Y-124816138D01*
X271563746Y-124816138D02*
X271468688Y-124586800D01*
X271468688Y-124586800D02*
X271275861Y-124698248D01*
X271275861Y-124698248D02*
X271097573Y-124840516D01*
X271097573Y-124840516D02*
X270934448Y-125009402D01*
X270934448Y-125009402D02*
X270787110Y-125200703D01*
X270787110Y-125200703D02*
X270656185Y-125410215D01*
X270656185Y-125410215D02*
X270542297Y-125633735D01*
X270542297Y-125633735D02*
X270446070Y-125867061D01*
X270446070Y-125867061D02*
X270368131Y-126105990D01*
X270368131Y-126105990D02*
X270309102Y-126346318D01*
X270309102Y-126346318D02*
X270269610Y-126583842D01*
X270269610Y-126583842D02*
X270250278Y-126814359D01*
X270250278Y-126814359D02*
X270251731Y-127033667D01*
X270251731Y-127033667D02*
X270273375Y-127182931D01*
X270273375Y-127182931D02*
X270313569Y-127460136D01*
X270313569Y-127460136D02*
X270335213Y-127609400D01*
X270335213Y-127609400D02*
X270375458Y-127851422D01*
X270375458Y-127851422D02*
X271828522Y-135597700D01*
X271828522Y-135597700D02*
X271588106Y-135599920D01*
X271588106Y-135599920D02*
X270182020Y-135081605D01*
X270182020Y-135081605D02*
X270393669Y-135143500D01*
X270393669Y-135143500D02*
X270610914Y-135186528D01*
X270610914Y-135186528D02*
X270833054Y-135214094D01*
X270833054Y-135214094D02*
X271059389Y-135229604D01*
X271059389Y-135229604D02*
X271289218Y-135236465D01*
X271289218Y-135236465D02*
X271521840Y-135238084D01*
X271521840Y-135238084D02*
X271756555Y-135237867D01*
X271756555Y-135237867D02*
X271740710Y-135158891D01*
X271740710Y-135158891D02*
X271698247Y-134947236D01*
X271698247Y-134947236D02*
X271636770Y-134640810D01*
X271636770Y-134640810D02*
X271563886Y-134277522D01*
X271563886Y-134277522D02*
X271487198Y-133895279D01*
X271487198Y-133895279D02*
X271414313Y-133531990D01*
X271414313Y-133531990D02*
X271352837Y-133225564D01*
X271352837Y-133225564D02*
X271310373Y-133013909D01*
X271310373Y-133013909D02*
X271294529Y-132934934D01*
X271294529Y-132934934D02*
X271258860Y-132749001D01*
X271258860Y-132749001D02*
X271203491Y-132529671D01*
X271203491Y-132529671D02*
X271108720Y-132345830D01*
X271108720Y-132345830D02*
X270954846Y-132266363D01*
X270954846Y-132266363D02*
X270820195Y-132285610D01*
X270820195Y-132285610D02*
X270678027Y-132346759D01*
X270678027Y-132346759D02*
X270537578Y-132445206D01*
X270537578Y-132445206D02*
X270408083Y-132576350D01*
X270408083Y-132576350D02*
X270298779Y-132735586D01*
X270298779Y-132735586D02*
X270218903Y-132918312D01*
X270218903Y-132918312D02*
X270177690Y-133119925D01*
X270177690Y-133119925D02*
X270184376Y-133335823D01*
X270184376Y-133335823D02*
X270248198Y-133561401D01*
X270248198Y-133561401D02*
X270378393Y-133792057D01*
X270378393Y-133792057D02*
X270573636Y-134001000D01*
X270573636Y-134001000D02*
X270753366Y-134157168D01*
X270753366Y-134157168D02*
X270848335Y-134303740D01*
X270848335Y-134303740D02*
X270773760Y-134434719D01*
X270773760Y-134434719D02*
X270603648Y-134429681D01*
X270603648Y-134429681D02*
X270396885Y-134340592D01*
X270396885Y-134340592D02*
X270213062Y-134208044D01*
X270213062Y-134208044D02*
X270053423Y-134039809D01*
X270053423Y-134039809D02*
X269919213Y-133843657D01*
X269919213Y-133843657D02*
X269811674Y-133627362D01*
X269811674Y-133627362D02*
X269732052Y-133398692D01*
X269732052Y-133398692D02*
X269681589Y-133165420D01*
X269681589Y-133165420D02*
X269661530Y-132935318D01*
X269661530Y-132935318D02*
X269673119Y-132716155D01*
X269673119Y-132716155D02*
X269729742Y-132467548D01*
X269729742Y-132467548D02*
X269827819Y-132237732D01*
X269827819Y-132237732D02*
X269961993Y-132027365D01*
X269961993Y-132027365D02*
X270126912Y-131837102D01*
X270126912Y-131837102D02*
X270317221Y-131667601D01*
X270317221Y-131667601D02*
X270488475Y-131556079D01*
X270488475Y-131556079D02*
X270684518Y-131433682D01*
X270684518Y-131433682D02*
X270813071Y-131316403D01*
X270813071Y-131316403D02*
X270838496Y-131176132D01*
X270838496Y-131176132D02*
X270816883Y-130965233D01*
X270816883Y-130965233D02*
X270765484Y-130715752D01*
X270765484Y-130715752D02*
X270701550Y-130459733D01*
X270701550Y-130459733D02*
X270642334Y-130229224D01*
X270642334Y-130229224D02*
X270605088Y-130056267D01*
X270605088Y-130056267D02*
X270405857Y-130176428D01*
X270405857Y-130176428D02*
X270234672Y-130324036D01*
X270234672Y-130324036D02*
X270084679Y-130492835D01*
X270084679Y-130492835D02*
X269949018Y-130676566D01*
X269949018Y-130676566D02*
X269820834Y-130868974D01*
X269820834Y-130868974D02*
X269693270Y-131063800D01*
X269693270Y-131063800D02*
X269567621Y-131259355D01*
X269567621Y-131259355D02*
X269446088Y-131463866D01*
X269446088Y-131463866D02*
X269330866Y-131676100D01*
X269330866Y-131676100D02*
X269224148Y-131894824D01*
X269224148Y-131894824D02*
X269128128Y-132118807D01*
X269128128Y-132118807D02*
X269045000Y-132346816D01*
X269045000Y-132346816D02*
X268976958Y-132577618D01*
X268976958Y-132577618D02*
X268926195Y-132809982D01*
X268926195Y-132809982D02*
X268894905Y-133042674D01*
X268894905Y-133042674D02*
X268885282Y-133274463D01*
X268885282Y-133274463D02*
X268899520Y-133504116D01*
X268899520Y-133504116D02*
X268939812Y-133730401D01*
X268939812Y-133730401D02*
X269008353Y-133952086D01*
X269008353Y-133952086D02*
X269107336Y-134167938D01*
X269107336Y-134167938D02*
X269238954Y-134376724D01*
X269238954Y-134376724D02*
X269405403Y-134577213D01*
X269405403Y-134577213D02*
X269587659Y-134748645D01*
X269587659Y-134748645D02*
X269778315Y-134887583D01*
X269778315Y-134887583D02*
X269976669Y-134997435D01*
X269976669Y-134997435D02*
X270182020Y-135081605D01*
X270182020Y-135081605D02*
X271588106Y-135599920D01*
X271588106Y-135599920D02*
X271349437Y-135603446D01*
X271349437Y-135603446D02*
X271112572Y-135603583D01*
X271112572Y-135603583D02*
X270877572Y-135595631D01*
X270877572Y-135595631D02*
X270644494Y-135574894D01*
X270644494Y-135574894D02*
X270413398Y-135536675D01*
X270413398Y-135536675D02*
X270184343Y-135476275D01*
X270184343Y-135476275D02*
X269957387Y-135388997D01*
X269957387Y-135388997D02*
X269731741Y-135274644D01*
X269731741Y-135274644D02*
X269523031Y-135144540D01*
X269523031Y-135144540D02*
X269331170Y-134999775D01*
X269331170Y-134999775D02*
X269156070Y-134841440D01*
X269156070Y-134841440D02*
X268997644Y-134670623D01*
X268997644Y-134670623D02*
X268855805Y-134488415D01*
X268855805Y-134488415D02*
X268730465Y-134295906D01*
X268730465Y-134295906D02*
X268621536Y-134094184D01*
X268621536Y-134094184D02*
X268528932Y-133884340D01*
X268528932Y-133884340D02*
X268452564Y-133667464D01*
X268452564Y-133667464D02*
X268392346Y-133444646D01*
X268392346Y-133444646D02*
X268348189Y-133216974D01*
X268348189Y-133216974D02*
X268320007Y-132985539D01*
X268320007Y-132985539D02*
X268307712Y-132751431D01*
X268307712Y-132751431D02*
X268311217Y-132515739D01*
X268311217Y-132515739D02*
X268330434Y-132279553D01*
X268330434Y-132279553D02*
X268365275Y-132043964D01*
X268365275Y-132043964D02*
X268415654Y-131810059D01*
X268415654Y-131810059D02*
X268481482Y-131578931D01*
X268481482Y-131578931D02*
X268562673Y-131351667D01*
X268562673Y-131351667D02*
X268660231Y-131126934D01*
X268660231Y-131126934D02*
X268771680Y-130908847D01*
X268771680Y-130908847D02*
X268894784Y-130696630D01*
X268894784Y-130696630D02*
X269027308Y-130489506D01*
X269027308Y-130489506D02*
X269167017Y-130286701D01*
X269167017Y-130286701D02*
X269311678Y-130087438D01*
X269311678Y-130087438D02*
X269459053Y-129890940D01*
X269459053Y-129890940D02*
X269606910Y-129696434D01*
X269606910Y-129696434D02*
X269748099Y-129520520D01*
X269748099Y-129520520D02*
X269921404Y-129304395D01*
X269921404Y-129304395D02*
X270078516Y-129086381D01*
X270078516Y-129086381D02*
X270171129Y-128904800D01*
X270171129Y-128904800D02*
X270181058Y-128694646D01*
X270181058Y-128694646D02*
X270140453Y-128412638D01*
X270140453Y-128412638D02*
X270079742Y-128124828D01*
X270079742Y-128124828D02*
X270029354Y-127897267D01*
X270029354Y-127897267D02*
X269977867Y-127633953D01*
X269977867Y-127633953D02*
X269933481Y-127390037D01*
X269933481Y-127390037D02*
X269896146Y-127158737D01*
X269896146Y-127158737D02*
X269865810Y-126933273D01*
X269865810Y-126933273D02*
X269842423Y-126706865D01*
X269842423Y-126706865D02*
X269825936Y-126472732D01*
X269825936Y-126472732D02*
X269816296Y-126224093D01*
X269816296Y-126224093D02*
X269813454Y-125954167D01*
X269813454Y-125954167D02*
X269819958Y-125701160D01*
X269819958Y-125701160D02*
X269839362Y-125459218D01*
X269839362Y-125459218D02*
X269872947Y-125226717D01*
X269872947Y-125226717D02*
X269921991Y-125002035D01*
X269921991Y-125002035D02*
X269987773Y-124783549D01*
X269987773Y-124783549D02*
X270071575Y-124569635D01*
X270071575Y-124569635D02*
X270174674Y-124358671D01*
X270174674Y-124358671D02*
X270298350Y-124149034D01*
X270298350Y-124149034D02*
X270443882Y-123939100D01*
X270443882Y-123939100D02*
X270556162Y-123795538D01*
X270556162Y-123795538D02*
X270703592Y-123634771D01*
X270703592Y-123634771D02*
X270869239Y-123503826D01*
X270869239Y-123503826D02*
X271036168Y-123449727D01*
X271036168Y-123449727D02*
X271227413Y-123524999D01*
X271227413Y-123524999D02*
X271390671Y-123693028D01*
X271390671Y-123693028D02*
X271514747Y-123867134D01*
X271514747Y-123867134D02*
X271629524Y-124047210D01*
X271629524Y-124047210D02*
X271741557Y-124244633D01*
X271741557Y-124244633D02*
X271848454Y-124454105D01*
X271848454Y-124454105D02*
X271947823Y-124670324D01*
X271947823Y-124670324D02*
X272037271Y-124887990D01*
X272037271Y-124887990D02*
X272114408Y-125101805D01*
X272114408Y-125101805D02*
X272176840Y-125306467D01*
X272176840Y-125306467D02*
X272238092Y-125558790D01*
X272238092Y-125558790D02*
X272283571Y-125811350D01*
X272283571Y-125811350D02*
X272313127Y-126063725D01*
X272313127Y-126063725D02*
X272326611Y-126315493D01*
X272326611Y-126315493D02*
X272323872Y-126566231D01*
X272323872Y-126566231D02*
X272304761Y-126815518D01*
X272304761Y-126815518D02*
X272269128Y-127062931D01*
X272269128Y-127062931D02*
X272216822Y-127308047D01*
X272216822Y-127308047D02*
X272147694Y-127550444D01*
X272147694Y-127550444D02*
X272061594Y-127789700D01*
X272061594Y-127789700D02*
X271958371Y-128025393D01*
X271958371Y-128025393D02*
X271837877Y-128257100D01*
X271837877Y-128257100D02*
X271725087Y-128434554D01*
X271725087Y-128434554D02*
X271570652Y-128654596D01*
X271570652Y-128654596D02*
X271396025Y-128899362D01*
X271396025Y-128899362D02*
X271222656Y-129150989D01*
X271222656Y-129150989D02*
X271071998Y-129391614D01*
X271071998Y-129391614D02*
X270965502Y-129603372D01*
X270965502Y-129603372D02*
X270924620Y-129768400D01*
X270924620Y-129768400D02*
X270946790Y-129926590D01*
X270946790Y-129926590D02*
X272044422Y-135093934D01*
X272044422Y-135093934D02*
X272239306Y-135012126D01*
X272239306Y-135012126D02*
X272410974Y-134909193D01*
X272410974Y-134909193D02*
X272559582Y-134787599D01*
X272559582Y-134787599D02*
X272685284Y-134649806D01*
X272685284Y-134649806D02*
X272788238Y-134498276D01*
X272788238Y-134498276D02*
X272868598Y-134335472D01*
X272868598Y-134335472D02*
X272926520Y-134163858D01*
X272926520Y-134163858D02*
X272962161Y-133985895D01*
X272962161Y-133985895D02*
X272975675Y-133804048D01*
X272975675Y-133804048D02*
X272967219Y-133620777D01*
X272967219Y-133620777D02*
X272936948Y-133438547D01*
X272936948Y-133438547D02*
X272885018Y-133259820D01*
X272885018Y-133259820D02*
X272811585Y-133087059D01*
X272811585Y-133087059D02*
X272716804Y-132922726D01*
X272716804Y-132922726D02*
X272600831Y-132769284D01*
X272600831Y-132769284D02*
X272463823Y-132629197D01*
X272463823Y-132629197D02*
X272305933Y-132504926D01*
X272305933Y-132504926D02*
X272127320Y-132398935D01*
X272127320Y-132398935D02*
X271928137Y-132313686D01*
X271928137Y-132313686D02*
X271708541Y-132251643D01*
X271708541Y-132251643D02*
X271468688Y-132215267D01*
X271468688Y-132215267D02*
X271480016Y-132271907D01*
X271480016Y-132271907D02*
X271511335Y-132428502D01*
X271511335Y-132428502D02*
X271558646Y-132665059D01*
X271558646Y-132665059D02*
X271617952Y-132961588D01*
X271617952Y-132961588D02*
X271685255Y-133298099D01*
X271685255Y-133298099D02*
X271756555Y-133654600D01*
X271756555Y-133654600D02*
X271827855Y-134011102D01*
X271827855Y-134011102D02*
X271895157Y-134347613D01*
X271895157Y-134347613D02*
X271954463Y-134644142D01*
X271954463Y-134644142D02*
X272001775Y-134880699D01*
X272001775Y-134880699D02*
X272033094Y-135037293D01*
X272033094Y-135037293D02*
X272044422Y-135093934D01*
X272044422Y-135093934D02*
X270946790Y-129926590D01*
X270946790Y-129926590D02*
X271004823Y-130186633D01*
X271004823Y-130186633D02*
X271084926Y-130495534D01*
X271084926Y-130495534D02*
X271173305Y-130800296D01*
X271173305Y-130800296D02*
X271256166Y-131047924D01*
X271256166Y-131047924D02*
X271319717Y-131185424D01*
X271319717Y-131185424D02*
X271508616Y-131317096D01*
X271508616Y-131317096D02*
X271738936Y-131358890D01*
X271738936Y-131358890D02*
X271972455Y-131389809D01*
X271972455Y-131389809D02*
X272183778Y-131454591D01*
X272183778Y-131454591D02*
X272391931Y-131548046D01*
X272391931Y-131548046D02*
X272588074Y-131664576D01*
X272588074Y-131664576D02*
X272763369Y-131798580D01*
X272763369Y-131798580D02*
X272931165Y-131962290D01*
X272931165Y-131962290D02*
X273076255Y-132139934D01*
X273076255Y-132139934D02*
X273199086Y-132329474D01*
X273199086Y-132329474D02*
X273300110Y-132528874D01*
X273300110Y-132528874D02*
X273379774Y-132736097D01*
X273379774Y-132736097D02*
X273438530Y-132949107D01*
X273438530Y-132949107D02*
X273476825Y-133165867D01*
X273476825Y-133165867D02*
X273495111Y-133384340D01*
X273495111Y-133384340D02*
X273493835Y-133602491D01*
X273493835Y-133602491D02*
X273473448Y-133818281D01*
X273473448Y-133818281D02*
X273434399Y-134029676D01*
X273434399Y-134029676D02*
X273377138Y-134234637D01*
X273377138Y-134234637D02*
X273302114Y-134431129D01*
X273302114Y-134431129D02*
X273209776Y-134617114D01*
X273209776Y-134617114D02*
X273100574Y-134790557D01*
X273100574Y-134790557D02*
X272974957Y-134949421D01*
X272974957Y-134949421D02*
X272833376Y-135091669D01*
X272833376Y-135091669D02*
X272676279Y-135215264D01*
X272676279Y-135215264D02*
X272504115Y-135318169D01*
X272504115Y-135318169D02*
X272317336Y-135398349D01*
X272317336Y-135398349D02*
X272116388Y-135453767D01*
X272116388Y-135453767D02*
X272166231Y-135674678D01*
X272166231Y-135674678D02*
X272208464Y-135904637D01*
X272208464Y-135904637D02*
X272241293Y-136141259D01*
X272241293Y-136141259D02*
X272262923Y-136382158D01*
X272262923Y-136382158D02*
X272271563Y-136624948D01*
X272271563Y-136624948D02*
X272265416Y-136867245D01*
X272265416Y-136867245D02*
X272242690Y-137106661D01*
X272242690Y-137106661D02*
X272201590Y-137340813D01*
X272201590Y-137340813D02*
X272140323Y-137567313D01*
X272140323Y-137567313D02*
X272057095Y-137783777D01*
X272057095Y-137783777D02*
X271950111Y-137987819D01*
X271950111Y-137987819D02*
X271817578Y-138177053D01*
X271817578Y-138177053D02*
X271657701Y-138349094D01*
X271657701Y-138349094D02*
X271468688Y-138501555D01*
X271468688Y-138501555D02*
X271290000Y-138606471D01*
X271290000Y-138606471D02*
X271098932Y-138683501D01*
X271098932Y-138683501D02*
X270898627Y-138733445D01*
X270898627Y-138733445D02*
X270692231Y-138757103D01*
X270692231Y-138757103D02*
X270482885Y-138755278D01*
X270482885Y-138755278D02*
X270273735Y-138728768D01*
X270273735Y-138728768D02*
X270067923Y-138678376D01*
X270067923Y-138678376D02*
X269868594Y-138604901D01*
X269868594Y-138604901D02*
X269678892Y-138509145D01*
X269678892Y-138509145D02*
X269501960Y-138391908D01*
X269501960Y-138391908D02*
X269340942Y-138253990D01*
X269340942Y-138253990D02*
X269198982Y-138096192D01*
X269198982Y-138096192D02*
X269079224Y-137919316D01*
X269079224Y-137919316D02*
X268984811Y-137724161D01*
X268984811Y-137724161D02*
X268918887Y-137511529D01*
X268918887Y-137511529D02*
X268884597Y-137282219D01*
X268884597Y-137282219D02*
X268885084Y-137037034D01*
X268885084Y-137037034D02*
X268919602Y-136834700D01*
X268919602Y-136834700D02*
X268987636Y-136659084D01*
X268987636Y-136659084D02*
X269084074Y-136510368D01*
X269084074Y-136510368D02*
X269203806Y-136388738D01*
X269203806Y-136388738D02*
X269341721Y-136294378D01*
X269341721Y-136294378D02*
X269492708Y-136227472D01*
X269492708Y-136227472D02*
X269651656Y-136188205D01*
X269651656Y-136188205D02*
X269813454Y-136176762D01*
X269813454Y-136176762D02*
X269972992Y-136193327D01*
X269972992Y-136193327D02*
X270125160Y-136238084D01*
X270125160Y-136238084D02*
X270264846Y-136311218D01*
X270264846Y-136311218D02*
X270386939Y-136412914D01*
X270386939Y-136412914D02*
X270486329Y-136543355D01*
X270486329Y-136543355D02*
X270557905Y-136702727D01*
X270557905Y-136702727D02*
X270596556Y-136891214D01*
X270596556Y-136891214D02*
X270597171Y-137109000D01*
X270597171Y-137109000D02*
X270551829Y-137348073D01*
X270551829Y-137348073D02*
X270463766Y-137529712D01*
X270463766Y-137529712D02*
X270335842Y-137661255D01*
X270335842Y-137661255D02*
X270170915Y-137750037D01*
X270170915Y-137750037D02*
X269971844Y-137803395D01*
X269971844Y-137803395D02*
X269741487Y-137828667D01*
X269741487Y-137828667D02*
X269914264Y-137996867D01*
X269914264Y-137996867D02*
X270099252Y-138156835D01*
X270099252Y-138156835D02*
X270303266Y-138285498D01*
X270303266Y-138285498D02*
X270533121Y-138359781D01*
X270533121Y-138359781D02*
X270758457Y-138357462D01*
X270758457Y-138357462D02*
X270979474Y-138293252D01*
X270979474Y-138293252D02*
X271180821Y-138189220D01*
X271180821Y-138189220D02*
X271384607Y-138039609D01*
X271384607Y-138039609D02*
X271546517Y-137875835D01*
X271546517Y-137875835D02*
X271670974Y-137699500D01*
X271670974Y-137699500D02*
X271762401Y-137512207D01*
X271762401Y-137512207D02*
X271825220Y-137315555D01*
X271825220Y-137315555D02*
X271863852Y-137111149D01*
X271863852Y-137111149D02*
X271882720Y-136900589D01*
X271882720Y-136900589D02*
X271886246Y-136685476D01*
X271886246Y-136685476D02*
X271878852Y-136467414D01*
X271878852Y-136467414D02*
X271864960Y-136248003D01*
X271864960Y-136248003D02*
X271848993Y-136028846D01*
X271848993Y-136028846D02*
X271835373Y-135811545D01*
X271835373Y-135811545D02*
X271828522Y-135597700D01*
X271828522Y-135597700D02*
X271828522Y-135597700D01*
G36*
X271349437Y-135603446D02*
G01*
X271112572Y-135603583D01*
X270877572Y-135595631D01*
X270644494Y-135574894D01*
X270413398Y-135536675D01*
X270184343Y-135476275D01*
X269957387Y-135388997D01*
X269731741Y-135274644D01*
X269523031Y-135144540D01*
X269331170Y-134999775D01*
X269156070Y-134841440D01*
X268997644Y-134670623D01*
X268855805Y-134488415D01*
X268730465Y-134295906D01*
X268621536Y-134094184D01*
X268528932Y-133884340D01*
X268452564Y-133667464D01*
X268392346Y-133444646D01*
X268359339Y-133274463D01*
X268885282Y-133274463D01*
X268899520Y-133504116D01*
X268939812Y-133730401D01*
X269008353Y-133952086D01*
X269107336Y-134167938D01*
X269238954Y-134376724D01*
X269405403Y-134577213D01*
X269587659Y-134748645D01*
X269778315Y-134887583D01*
X269976669Y-134997435D01*
X270182020Y-135081605D01*
X270393669Y-135143500D01*
X270610914Y-135186528D01*
X270833054Y-135214094D01*
X271059389Y-135229604D01*
X271289218Y-135236465D01*
X271521840Y-135238084D01*
X271756555Y-135237867D01*
X271740710Y-135158891D01*
X271698247Y-134947236D01*
X271636770Y-134640810D01*
X271563886Y-134277522D01*
X271487198Y-133895279D01*
X271414313Y-133531990D01*
X271352837Y-133225564D01*
X271310373Y-133013909D01*
X271294529Y-132934934D01*
X271258860Y-132749001D01*
X271203491Y-132529671D01*
X271108720Y-132345830D01*
X270954846Y-132266363D01*
X270820195Y-132285610D01*
X270678027Y-132346759D01*
X270537578Y-132445206D01*
X270408083Y-132576350D01*
X270298779Y-132735586D01*
X270218903Y-132918312D01*
X270177690Y-133119925D01*
X270184376Y-133335823D01*
X270248198Y-133561401D01*
X270378393Y-133792057D01*
X270573636Y-134001000D01*
X270753366Y-134157168D01*
X270848335Y-134303740D01*
X270773760Y-134434719D01*
X270603648Y-134429681D01*
X270396885Y-134340592D01*
X270213062Y-134208044D01*
X270053423Y-134039809D01*
X269919213Y-133843657D01*
X269811674Y-133627362D01*
X269732052Y-133398692D01*
X269681589Y-133165420D01*
X269661530Y-132935318D01*
X269673119Y-132716155D01*
X269729742Y-132467548D01*
X269827819Y-132237732D01*
X269842147Y-132215267D01*
X271468688Y-132215267D01*
X271511335Y-132428502D01*
X271558646Y-132665059D01*
X271617952Y-132961588D01*
X271685255Y-133298099D01*
X271756555Y-133654600D01*
X271827855Y-134011102D01*
X271895157Y-134347613D01*
X271954463Y-134644142D01*
X272001775Y-134880699D01*
X272033094Y-135037293D01*
X272044422Y-135093934D01*
X272239306Y-135012126D01*
X272410974Y-134909193D01*
X272559582Y-134787599D01*
X272685284Y-134649806D01*
X272788238Y-134498276D01*
X272868598Y-134335472D01*
X272926520Y-134163858D01*
X272962161Y-133985895D01*
X272975675Y-133804048D01*
X272967219Y-133620777D01*
X272936948Y-133438547D01*
X272885018Y-133259820D01*
X272811585Y-133087059D01*
X272716804Y-132922726D01*
X272600831Y-132769284D01*
X272463823Y-132629197D01*
X272305933Y-132504926D01*
X272127320Y-132398935D01*
X271928137Y-132313686D01*
X271708541Y-132251643D01*
X271468688Y-132215267D01*
X269842147Y-132215267D01*
X269961993Y-132027365D01*
X270126912Y-131837102D01*
X270317221Y-131667601D01*
X270488475Y-131556079D01*
X270684518Y-131433682D01*
X270813071Y-131316403D01*
X270838496Y-131176132D01*
X270816883Y-130965233D01*
X270765484Y-130715752D01*
X270701550Y-130459733D01*
X270642334Y-130229224D01*
X270605088Y-130056267D01*
X270405857Y-130176428D01*
X270234672Y-130324036D01*
X270084679Y-130492835D01*
X269949018Y-130676566D01*
X269820834Y-130868974D01*
X269693270Y-131063800D01*
X269567621Y-131259355D01*
X269446088Y-131463866D01*
X269330866Y-131676100D01*
X269224148Y-131894824D01*
X269128128Y-132118807D01*
X269045000Y-132346816D01*
X268976958Y-132577618D01*
X268926195Y-132809982D01*
X268894905Y-133042674D01*
X268885282Y-133274463D01*
X268359339Y-133274463D01*
X268348189Y-133216974D01*
X268320007Y-132985539D01*
X268307712Y-132751431D01*
X268311217Y-132515739D01*
X268330434Y-132279553D01*
X268365275Y-132043964D01*
X268415654Y-131810059D01*
X268481482Y-131578931D01*
X268562673Y-131351667D01*
X268660231Y-131126934D01*
X268771680Y-130908847D01*
X268894784Y-130696630D01*
X269027308Y-130489506D01*
X269167017Y-130286701D01*
X269311678Y-130087438D01*
X269459053Y-129890940D01*
X269606910Y-129696434D01*
X269748099Y-129520520D01*
X269921404Y-129304395D01*
X270078516Y-129086381D01*
X270171129Y-128904800D01*
X270181058Y-128694646D01*
X270140453Y-128412638D01*
X270079742Y-128124828D01*
X270029354Y-127897267D01*
X269977867Y-127633953D01*
X269933481Y-127390037D01*
X269896146Y-127158737D01*
X269865810Y-126933273D01*
X269853527Y-126814359D01*
X270250278Y-126814359D01*
X270251731Y-127033667D01*
X270273375Y-127182931D01*
X270313569Y-127460136D01*
X270335213Y-127609400D01*
X270375458Y-127851422D01*
X270423462Y-128094186D01*
X270494810Y-128328449D01*
X270605088Y-128544967D01*
X270673197Y-128440184D01*
X270835611Y-128190315D01*
X271029461Y-127892085D01*
X271191875Y-127642217D01*
X271259985Y-127537434D01*
X271372190Y-127318060D01*
X271470864Y-127096548D01*
X271555327Y-126873136D01*
X271624897Y-126648061D01*
X271678895Y-126421561D01*
X271716641Y-126193873D01*
X271737456Y-125965237D01*
X271740658Y-125735889D01*
X271725568Y-125506067D01*
X271691506Y-125276010D01*
X271637792Y-125045954D01*
X271563746Y-124816138D01*
X271468688Y-124586800D01*
X271275861Y-124698248D01*
X271097573Y-124840516D01*
X270934448Y-125009402D01*
X270787110Y-125200703D01*
X270656185Y-125410215D01*
X270542297Y-125633735D01*
X270446070Y-125867061D01*
X270368131Y-126105990D01*
X270309102Y-126346318D01*
X270269610Y-126583842D01*
X270250278Y-126814359D01*
X269853527Y-126814359D01*
X269842423Y-126706865D01*
X269825936Y-126472732D01*
X269816296Y-126224093D01*
X269813454Y-125954167D01*
X269819958Y-125701160D01*
X269839362Y-125459218D01*
X269872947Y-125226717D01*
X269921991Y-125002035D01*
X269987773Y-124783549D01*
X270071575Y-124569635D01*
X270174674Y-124358671D01*
X270298350Y-124149034D01*
X270443882Y-123939100D01*
X270556162Y-123795538D01*
X270703592Y-123634771D01*
X270869239Y-123503826D01*
X271036168Y-123449727D01*
X271227413Y-123524999D01*
X271390671Y-123693028D01*
X271514747Y-123867134D01*
X271629524Y-124047210D01*
X271741557Y-124244633D01*
X271848454Y-124454105D01*
X271947823Y-124670324D01*
X272037271Y-124887990D01*
X272114408Y-125101805D01*
X272176840Y-125306467D01*
X272238092Y-125558790D01*
X272283571Y-125811350D01*
X272313127Y-126063725D01*
X272326611Y-126315493D01*
X272323872Y-126566231D01*
X272304761Y-126815518D01*
X272269128Y-127062931D01*
X272216822Y-127308047D01*
X272147694Y-127550444D01*
X272061594Y-127789700D01*
X271958371Y-128025393D01*
X271837877Y-128257100D01*
X271725087Y-128434554D01*
X271570652Y-128654596D01*
X271396025Y-128899362D01*
X271222656Y-129150989D01*
X271071998Y-129391614D01*
X270965502Y-129603372D01*
X270924620Y-129768400D01*
X270946790Y-129926590D01*
X271004823Y-130186633D01*
X271084926Y-130495534D01*
X271173305Y-130800296D01*
X271256166Y-131047924D01*
X271319717Y-131185424D01*
X271508616Y-131317096D01*
X271738936Y-131358890D01*
X271972455Y-131389809D01*
X272183778Y-131454591D01*
X272391931Y-131548046D01*
X272588074Y-131664576D01*
X272763369Y-131798580D01*
X272931165Y-131962290D01*
X273076255Y-132139934D01*
X273199086Y-132329474D01*
X273300110Y-132528874D01*
X273379774Y-132736097D01*
X273438530Y-132949107D01*
X273476825Y-133165867D01*
X273495111Y-133384340D01*
X273493835Y-133602491D01*
X273473448Y-133818281D01*
X273434399Y-134029676D01*
X273377138Y-134234637D01*
X273302114Y-134431129D01*
X273209776Y-134617114D01*
X273100574Y-134790557D01*
X272974957Y-134949421D01*
X272833376Y-135091669D01*
X272676279Y-135215264D01*
X272504115Y-135318169D01*
X272317336Y-135398349D01*
X272116388Y-135453767D01*
X272166231Y-135674678D01*
X272208464Y-135904637D01*
X272241293Y-136141259D01*
X272262923Y-136382158D01*
X272271563Y-136624948D01*
X272265416Y-136867245D01*
X272242690Y-137106661D01*
X272201590Y-137340813D01*
X272140323Y-137567313D01*
X272057095Y-137783777D01*
X271950111Y-137987819D01*
X271817578Y-138177053D01*
X271657701Y-138349094D01*
X271468688Y-138501555D01*
X271290000Y-138606471D01*
X271098932Y-138683501D01*
X270898627Y-138733445D01*
X270692231Y-138757103D01*
X270482885Y-138755278D01*
X270273735Y-138728768D01*
X270067923Y-138678376D01*
X269868594Y-138604901D01*
X269678892Y-138509145D01*
X269501960Y-138391908D01*
X269340942Y-138253990D01*
X269198982Y-138096192D01*
X269079224Y-137919316D01*
X268984811Y-137724161D01*
X268918887Y-137511529D01*
X268884597Y-137282219D01*
X268885084Y-137037034D01*
X268919602Y-136834700D01*
X268987636Y-136659084D01*
X269084074Y-136510368D01*
X269203806Y-136388738D01*
X269341721Y-136294378D01*
X269492708Y-136227472D01*
X269651656Y-136188205D01*
X269813454Y-136176762D01*
X269972992Y-136193327D01*
X270125160Y-136238084D01*
X270264846Y-136311218D01*
X270386939Y-136412914D01*
X270486329Y-136543355D01*
X270557905Y-136702727D01*
X270596556Y-136891214D01*
X270597171Y-137109000D01*
X270551829Y-137348073D01*
X270463766Y-137529712D01*
X270335842Y-137661255D01*
X270170915Y-137750037D01*
X269971844Y-137803395D01*
X269741487Y-137828667D01*
X269914264Y-137996867D01*
X270099252Y-138156835D01*
X270303266Y-138285498D01*
X270533121Y-138359781D01*
X270758457Y-138357462D01*
X270979474Y-138293252D01*
X271180821Y-138189220D01*
X271384607Y-138039609D01*
X271546517Y-137875835D01*
X271670974Y-137699500D01*
X271762401Y-137512207D01*
X271825220Y-137315555D01*
X271863852Y-137111149D01*
X271882720Y-136900589D01*
X271886246Y-136685476D01*
X271878852Y-136467414D01*
X271864960Y-136248003D01*
X271848993Y-136028846D01*
X271835373Y-135811545D01*
X271828522Y-135597700D01*
X271588106Y-135599920D01*
X271349437Y-135603446D01*
G37*
X271349437Y-135603446D02*
X271112572Y-135603583D01*
X270877572Y-135595631D01*
X270644494Y-135574894D01*
X270413398Y-135536675D01*
X270184343Y-135476275D01*
X269957387Y-135388997D01*
X269731741Y-135274644D01*
X269523031Y-135144540D01*
X269331170Y-134999775D01*
X269156070Y-134841440D01*
X268997644Y-134670623D01*
X268855805Y-134488415D01*
X268730465Y-134295906D01*
X268621536Y-134094184D01*
X268528932Y-133884340D01*
X268452564Y-133667464D01*
X268392346Y-133444646D01*
X268359339Y-133274463D01*
X268885282Y-133274463D01*
X268899520Y-133504116D01*
X268939812Y-133730401D01*
X269008353Y-133952086D01*
X269107336Y-134167938D01*
X269238954Y-134376724D01*
X269405403Y-134577213D01*
X269587659Y-134748645D01*
X269778315Y-134887583D01*
X269976669Y-134997435D01*
X270182020Y-135081605D01*
X270393669Y-135143500D01*
X270610914Y-135186528D01*
X270833054Y-135214094D01*
X271059389Y-135229604D01*
X271289218Y-135236465D01*
X271521840Y-135238084D01*
X271756555Y-135237867D01*
X271740710Y-135158891D01*
X271698247Y-134947236D01*
X271636770Y-134640810D01*
X271563886Y-134277522D01*
X271487198Y-133895279D01*
X271414313Y-133531990D01*
X271352837Y-133225564D01*
X271310373Y-133013909D01*
X271294529Y-132934934D01*
X271258860Y-132749001D01*
X271203491Y-132529671D01*
X271108720Y-132345830D01*
X270954846Y-132266363D01*
X270820195Y-132285610D01*
X270678027Y-132346759D01*
X270537578Y-132445206D01*
X270408083Y-132576350D01*
X270298779Y-132735586D01*
X270218903Y-132918312D01*
X270177690Y-133119925D01*
X270184376Y-133335823D01*
X270248198Y-133561401D01*
X270378393Y-133792057D01*
X270573636Y-134001000D01*
X270753366Y-134157168D01*
X270848335Y-134303740D01*
X270773760Y-134434719D01*
X270603648Y-134429681D01*
X270396885Y-134340592D01*
X270213062Y-134208044D01*
X270053423Y-134039809D01*
X269919213Y-133843657D01*
X269811674Y-133627362D01*
X269732052Y-133398692D01*
X269681589Y-133165420D01*
X269661530Y-132935318D01*
X269673119Y-132716155D01*
X269729742Y-132467548D01*
X269827819Y-132237732D01*
X269842147Y-132215267D01*
X271468688Y-132215267D01*
X271511335Y-132428502D01*
X271558646Y-132665059D01*
X271617952Y-132961588D01*
X271685255Y-133298099D01*
X271756555Y-133654600D01*
X271827855Y-134011102D01*
X271895157Y-134347613D01*
X271954463Y-134644142D01*
X272001775Y-134880699D01*
X272033094Y-135037293D01*
X272044422Y-135093934D01*
X272239306Y-135012126D01*
X272410974Y-134909193D01*
X272559582Y-134787599D01*
X272685284Y-134649806D01*
X272788238Y-134498276D01*
X272868598Y-134335472D01*
X272926520Y-134163858D01*
X272962161Y-133985895D01*
X272975675Y-133804048D01*
X272967219Y-133620777D01*
X272936948Y-133438547D01*
X272885018Y-133259820D01*
X272811585Y-133087059D01*
X272716804Y-132922726D01*
X272600831Y-132769284D01*
X272463823Y-132629197D01*
X272305933Y-132504926D01*
X272127320Y-132398935D01*
X271928137Y-132313686D01*
X271708541Y-132251643D01*
X271468688Y-132215267D01*
X269842147Y-132215267D01*
X269961993Y-132027365D01*
X270126912Y-131837102D01*
X270317221Y-131667601D01*
X270488475Y-131556079D01*
X270684518Y-131433682D01*
X270813071Y-131316403D01*
X270838496Y-131176132D01*
X270816883Y-130965233D01*
X270765484Y-130715752D01*
X270701550Y-130459733D01*
X270642334Y-130229224D01*
X270605088Y-130056267D01*
X270405857Y-130176428D01*
X270234672Y-130324036D01*
X270084679Y-130492835D01*
X269949018Y-130676566D01*
X269820834Y-130868974D01*
X269693270Y-131063800D01*
X269567621Y-131259355D01*
X269446088Y-131463866D01*
X269330866Y-131676100D01*
X269224148Y-131894824D01*
X269128128Y-132118807D01*
X269045000Y-132346816D01*
X268976958Y-132577618D01*
X268926195Y-132809982D01*
X268894905Y-133042674D01*
X268885282Y-133274463D01*
X268359339Y-133274463D01*
X268348189Y-133216974D01*
X268320007Y-132985539D01*
X268307712Y-132751431D01*
X268311217Y-132515739D01*
X268330434Y-132279553D01*
X268365275Y-132043964D01*
X268415654Y-131810059D01*
X268481482Y-131578931D01*
X268562673Y-131351667D01*
X268660231Y-131126934D01*
X268771680Y-130908847D01*
X268894784Y-130696630D01*
X269027308Y-130489506D01*
X269167017Y-130286701D01*
X269311678Y-130087438D01*
X269459053Y-129890940D01*
X269606910Y-129696434D01*
X269748099Y-129520520D01*
X269921404Y-129304395D01*
X270078516Y-129086381D01*
X270171129Y-128904800D01*
X270181058Y-128694646D01*
X270140453Y-128412638D01*
X270079742Y-128124828D01*
X270029354Y-127897267D01*
X269977867Y-127633953D01*
X269933481Y-127390037D01*
X269896146Y-127158737D01*
X269865810Y-126933273D01*
X269853527Y-126814359D01*
X270250278Y-126814359D01*
X270251731Y-127033667D01*
X270273375Y-127182931D01*
X270313569Y-127460136D01*
X270335213Y-127609400D01*
X270375458Y-127851422D01*
X270423462Y-128094186D01*
X270494810Y-128328449D01*
X270605088Y-128544967D01*
X270673197Y-128440184D01*
X270835611Y-128190315D01*
X271029461Y-127892085D01*
X271191875Y-127642217D01*
X271259985Y-127537434D01*
X271372190Y-127318060D01*
X271470864Y-127096548D01*
X271555327Y-126873136D01*
X271624897Y-126648061D01*
X271678895Y-126421561D01*
X271716641Y-126193873D01*
X271737456Y-125965237D01*
X271740658Y-125735889D01*
X271725568Y-125506067D01*
X271691506Y-125276010D01*
X271637792Y-125045954D01*
X271563746Y-124816138D01*
X271468688Y-124586800D01*
X271275861Y-124698248D01*
X271097573Y-124840516D01*
X270934448Y-125009402D01*
X270787110Y-125200703D01*
X270656185Y-125410215D01*
X270542297Y-125633735D01*
X270446070Y-125867061D01*
X270368131Y-126105990D01*
X270309102Y-126346318D01*
X270269610Y-126583842D01*
X270250278Y-126814359D01*
X269853527Y-126814359D01*
X269842423Y-126706865D01*
X269825936Y-126472732D01*
X269816296Y-126224093D01*
X269813454Y-125954167D01*
X269819958Y-125701160D01*
X269839362Y-125459218D01*
X269872947Y-125226717D01*
X269921991Y-125002035D01*
X269987773Y-124783549D01*
X270071575Y-124569635D01*
X270174674Y-124358671D01*
X270298350Y-124149034D01*
X270443882Y-123939100D01*
X270556162Y-123795538D01*
X270703592Y-123634771D01*
X270869239Y-123503826D01*
X271036168Y-123449727D01*
X271227413Y-123524999D01*
X271390671Y-123693028D01*
X271514747Y-123867134D01*
X271629524Y-124047210D01*
X271741557Y-124244633D01*
X271848454Y-124454105D01*
X271947823Y-124670324D01*
X272037271Y-124887990D01*
X272114408Y-125101805D01*
X272176840Y-125306467D01*
X272238092Y-125558790D01*
X272283571Y-125811350D01*
X272313127Y-126063725D01*
X272326611Y-126315493D01*
X272323872Y-126566231D01*
X272304761Y-126815518D01*
X272269128Y-127062931D01*
X272216822Y-127308047D01*
X272147694Y-127550444D01*
X272061594Y-127789700D01*
X271958371Y-128025393D01*
X271837877Y-128257100D01*
X271725087Y-128434554D01*
X271570652Y-128654596D01*
X271396025Y-128899362D01*
X271222656Y-129150989D01*
X271071998Y-129391614D01*
X270965502Y-129603372D01*
X270924620Y-129768400D01*
X270946790Y-129926590D01*
X271004823Y-130186633D01*
X271084926Y-130495534D01*
X271173305Y-130800296D01*
X271256166Y-131047924D01*
X271319717Y-131185424D01*
X271508616Y-131317096D01*
X271738936Y-131358890D01*
X271972455Y-131389809D01*
X272183778Y-131454591D01*
X272391931Y-131548046D01*
X272588074Y-131664576D01*
X272763369Y-131798580D01*
X272931165Y-131962290D01*
X273076255Y-132139934D01*
X273199086Y-132329474D01*
X273300110Y-132528874D01*
X273379774Y-132736097D01*
X273438530Y-132949107D01*
X273476825Y-133165867D01*
X273495111Y-133384340D01*
X273493835Y-133602491D01*
X273473448Y-133818281D01*
X273434399Y-134029676D01*
X273377138Y-134234637D01*
X273302114Y-134431129D01*
X273209776Y-134617114D01*
X273100574Y-134790557D01*
X272974957Y-134949421D01*
X272833376Y-135091669D01*
X272676279Y-135215264D01*
X272504115Y-135318169D01*
X272317336Y-135398349D01*
X272116388Y-135453767D01*
X272166231Y-135674678D01*
X272208464Y-135904637D01*
X272241293Y-136141259D01*
X272262923Y-136382158D01*
X272271563Y-136624948D01*
X272265416Y-136867245D01*
X272242690Y-137106661D01*
X272201590Y-137340813D01*
X272140323Y-137567313D01*
X272057095Y-137783777D01*
X271950111Y-137987819D01*
X271817578Y-138177053D01*
X271657701Y-138349094D01*
X271468688Y-138501555D01*
X271290000Y-138606471D01*
X271098932Y-138683501D01*
X270898627Y-138733445D01*
X270692231Y-138757103D01*
X270482885Y-138755278D01*
X270273735Y-138728768D01*
X270067923Y-138678376D01*
X269868594Y-138604901D01*
X269678892Y-138509145D01*
X269501960Y-138391908D01*
X269340942Y-138253990D01*
X269198982Y-138096192D01*
X269079224Y-137919316D01*
X268984811Y-137724161D01*
X268918887Y-137511529D01*
X268884597Y-137282219D01*
X268885084Y-137037034D01*
X268919602Y-136834700D01*
X268987636Y-136659084D01*
X269084074Y-136510368D01*
X269203806Y-136388738D01*
X269341721Y-136294378D01*
X269492708Y-136227472D01*
X269651656Y-136188205D01*
X269813454Y-136176762D01*
X269972992Y-136193327D01*
X270125160Y-136238084D01*
X270264846Y-136311218D01*
X270386939Y-136412914D01*
X270486329Y-136543355D01*
X270557905Y-136702727D01*
X270596556Y-136891214D01*
X270597171Y-137109000D01*
X270551829Y-137348073D01*
X270463766Y-137529712D01*
X270335842Y-137661255D01*
X270170915Y-137750037D01*
X269971844Y-137803395D01*
X269741487Y-137828667D01*
X269914264Y-137996867D01*
X270099252Y-138156835D01*
X270303266Y-138285498D01*
X270533121Y-138359781D01*
X270758457Y-138357462D01*
X270979474Y-138293252D01*
X271180821Y-138189220D01*
X271384607Y-138039609D01*
X271546517Y-137875835D01*
X271670974Y-137699500D01*
X271762401Y-137512207D01*
X271825220Y-137315555D01*
X271863852Y-137111149D01*
X271882720Y-136900589D01*
X271886246Y-136685476D01*
X271878852Y-136467414D01*
X271864960Y-136248003D01*
X271848993Y-136028846D01*
X271835373Y-135811545D01*
X271828522Y-135597700D01*
X271588106Y-135599920D01*
X271349437Y-135603446D01*
D12*
X288163627Y-137419405D02*
X287551777Y-139507136D01*
X287551777Y-139507136D02*
X287128029Y-139507136D01*
X287128029Y-139507136D02*
X286751823Y-138043658D01*
X286751823Y-138043658D02*
X286377687Y-139507136D01*
X286377687Y-139507136D02*
X285941538Y-139507136D01*
X285941538Y-139507136D02*
X285298683Y-137419405D01*
X285298683Y-137419405D02*
X285798911Y-137419405D01*
X285798911Y-137419405D02*
X286210256Y-138822939D01*
X286210256Y-138822939D02*
X286569923Y-137419405D01*
X286569923Y-137419405D02*
X286997806Y-137419405D01*
X286997806Y-137419405D02*
X287363673Y-138822939D01*
X287363673Y-138822939D02*
X287766751Y-137419405D01*
X287766751Y-137419405D02*
X288163627Y-137419405D01*
X288163627Y-137419405D02*
X288163627Y-137419405D01*
G36*
X286210256Y-138822939D02*
G01*
X286569923Y-137419405D01*
X286997806Y-137419405D01*
X287363673Y-138822939D01*
X287766751Y-137419405D01*
X288163627Y-137419405D01*
X287551777Y-139507136D01*
X287128029Y-139507136D01*
X286751823Y-138043658D01*
X286377687Y-139507136D01*
X285941538Y-139507136D01*
X285298683Y-137419405D01*
X285798911Y-137419405D01*
X286210256Y-138822939D01*
G37*
X286210256Y-138822939D02*
X286569923Y-137419405D01*
X286997806Y-137419405D01*
X287363673Y-138822939D01*
X287766751Y-137419405D01*
X288163627Y-137419405D01*
X287551777Y-139507136D01*
X287128029Y-139507136D01*
X286751823Y-138043658D01*
X286377687Y-139507136D01*
X285941538Y-139507136D01*
X285298683Y-137419405D01*
X285798911Y-137419405D01*
X286210256Y-138822939D01*
D11*
X278449458Y-131639534D02*
X278457009Y-131442435D01*
X278457009Y-131442435D02*
X278520705Y-131260989D01*
X278520705Y-131260989D02*
X278658128Y-131184245D01*
X278658128Y-131184245D02*
X278885789Y-131142164D01*
X278885789Y-131142164D02*
X279163187Y-131125512D01*
X279163187Y-131125512D02*
X279449821Y-131125052D01*
X279449821Y-131125052D02*
X279705190Y-131131549D01*
X279705190Y-131131549D02*
X279888791Y-131135767D01*
X279888791Y-131135767D02*
X279900036Y-131259460D01*
X279900036Y-131259460D02*
X279924775Y-131531584D01*
X279924775Y-131531584D02*
X279949513Y-131803708D01*
X279949513Y-131803708D02*
X279960758Y-131927400D01*
X279960758Y-131927400D02*
X280065811Y-131722895D01*
X280065811Y-131722895D02*
X280203135Y-131549523D01*
X280203135Y-131549523D02*
X280367374Y-131406387D01*
X280367374Y-131406387D02*
X280553172Y-131292587D01*
X280553172Y-131292587D02*
X280755172Y-131207226D01*
X280755172Y-131207226D02*
X280968017Y-131149405D01*
X280968017Y-131149405D02*
X281186351Y-131118225D01*
X281186351Y-131118225D02*
X281404817Y-131112788D01*
X281404817Y-131112788D02*
X281618059Y-131132195D01*
X281618059Y-131132195D02*
X281820720Y-131175548D01*
X281820720Y-131175548D02*
X282007443Y-131241948D01*
X282007443Y-131241948D02*
X282172872Y-131330497D01*
X282172872Y-131330497D02*
X282311650Y-131440295D01*
X282311650Y-131440295D02*
X282418421Y-131570446D01*
X282418421Y-131570446D02*
X282507389Y-131772620D01*
X282507389Y-131772620D02*
X282566580Y-132025263D01*
X282566580Y-132025263D02*
X282601798Y-132298875D01*
X282601798Y-132298875D02*
X282618845Y-132563954D01*
X282618845Y-132563954D02*
X282623526Y-132791000D01*
X282623526Y-132791000D02*
X282623526Y-132886676D01*
X282623526Y-132886676D02*
X282623526Y-133133419D01*
X282623526Y-133133419D02*
X282623526Y-133470802D01*
X282623526Y-133470802D02*
X282623526Y-133838399D01*
X282623526Y-133838399D02*
X282623526Y-134175782D01*
X282623526Y-134175782D02*
X282623526Y-134422525D01*
X282623526Y-134422525D02*
X282623526Y-134518200D01*
X282623526Y-134518200D02*
X282772790Y-134518200D01*
X282772790Y-134518200D02*
X283049995Y-134518200D01*
X283049995Y-134518200D02*
X283199259Y-134518200D01*
X283199259Y-134518200D02*
X283199259Y-134734100D01*
X283199259Y-134734100D02*
X283199259Y-134950000D01*
X283199259Y-134950000D02*
X283125220Y-134950000D01*
X283125220Y-134950000D02*
X282926793Y-134950000D01*
X282926793Y-134950000D02*
X282639519Y-134950000D01*
X282639519Y-134950000D02*
X282298935Y-134950000D01*
X282298935Y-134950000D02*
X281940583Y-134950000D01*
X281940583Y-134950000D02*
X281600000Y-134950000D01*
X281600000Y-134950000D02*
X281312725Y-134950000D01*
X281312725Y-134950000D02*
X281114298Y-134950000D01*
X281114298Y-134950000D02*
X281040259Y-134950000D01*
X281040259Y-134950000D02*
X281040259Y-134734100D01*
X281040259Y-134734100D02*
X281040259Y-134518200D01*
X281040259Y-134518200D02*
X281189523Y-134518200D01*
X281189523Y-134518200D02*
X281466728Y-134518200D01*
X281466728Y-134518200D02*
X281615992Y-134518200D01*
X281615992Y-134518200D02*
X281615992Y-134444161D01*
X281615992Y-134444161D02*
X281615992Y-134245734D01*
X281615992Y-134245734D02*
X281615992Y-133958460D01*
X281615992Y-133958460D02*
X281615992Y-133617877D01*
X281615992Y-133617877D02*
X281615992Y-133259524D01*
X281615992Y-133259524D02*
X281615992Y-132918941D01*
X281615992Y-132918941D02*
X281615992Y-132631667D01*
X281615992Y-132631667D02*
X281615992Y-132433240D01*
X281615992Y-132433240D02*
X281615992Y-132359200D01*
X281615992Y-132359200D02*
X281607533Y-132156839D01*
X281607533Y-132156839D02*
X281575791Y-131954208D01*
X281575791Y-131954208D02*
X281503159Y-131766960D01*
X281503159Y-131766960D02*
X281372025Y-131610747D01*
X281372025Y-131610747D02*
X281182439Y-131519396D01*
X281182439Y-131519396D02*
X280978980Y-131520442D01*
X280978980Y-131520442D02*
X280774162Y-131591496D01*
X280774162Y-131591496D02*
X280580498Y-131710168D01*
X280580498Y-131710168D02*
X280410503Y-131854068D01*
X280410503Y-131854068D02*
X280276692Y-132000806D01*
X280276692Y-132000806D02*
X280172333Y-132165896D01*
X280172333Y-132165896D02*
X280092016Y-132361929D01*
X280092016Y-132361929D02*
X280032770Y-132582841D01*
X280032770Y-132582841D02*
X279991624Y-132822569D01*
X279991624Y-132822569D02*
X279965605Y-133075051D01*
X279965605Y-133075051D02*
X279951742Y-133334222D01*
X279951742Y-133334222D02*
X279947063Y-133594019D01*
X279947063Y-133594019D02*
X279948597Y-133848378D01*
X279948597Y-133848378D02*
X279953372Y-134091237D01*
X279953372Y-134091237D02*
X279958416Y-134316533D01*
X279958416Y-134316533D02*
X279960758Y-134518200D01*
X279960758Y-134518200D02*
X280110022Y-134518200D01*
X280110022Y-134518200D02*
X280387227Y-134518200D01*
X280387227Y-134518200D02*
X280536492Y-134518200D01*
X280536492Y-134518200D02*
X280536492Y-134734100D01*
X280536492Y-134734100D02*
X280536492Y-134950000D01*
X280536492Y-134950000D02*
X280446814Y-134950000D01*
X280446814Y-134950000D02*
X280210393Y-134950000D01*
X280210393Y-134950000D02*
X279876141Y-134950000D01*
X279876141Y-134950000D02*
X279492975Y-134950000D01*
X279492975Y-134950000D02*
X279109808Y-134950000D01*
X279109808Y-134950000D02*
X278775557Y-134950000D01*
X278775557Y-134950000D02*
X278539135Y-134950000D01*
X278539135Y-134950000D02*
X278449458Y-134950000D01*
X278449458Y-134950000D02*
X278449458Y-134734100D01*
X278449458Y-134734100D02*
X278449458Y-134518200D01*
X278449458Y-134518200D02*
X278598722Y-134518200D01*
X278598722Y-134518200D02*
X278875927Y-134518200D01*
X278875927Y-134518200D02*
X279025191Y-134518200D01*
X279025191Y-134518200D02*
X279025191Y-134434708D01*
X279025191Y-134434708D02*
X279025191Y-134214591D01*
X279025191Y-134214591D02*
X279025191Y-133903391D01*
X279025191Y-133903391D02*
X279025191Y-133546650D01*
X279025191Y-133546650D02*
X279025191Y-133189909D01*
X279025191Y-133189909D02*
X279025191Y-132878710D01*
X279025191Y-132878710D02*
X279025191Y-132658593D01*
X279025191Y-132658593D02*
X279025191Y-132575100D01*
X279025191Y-132575100D02*
X279027890Y-132395690D01*
X279027890Y-132395690D02*
X279026271Y-132175595D01*
X279026271Y-132175595D02*
X279005760Y-131962923D01*
X279005760Y-131962923D02*
X278951785Y-131805777D01*
X278951785Y-131805777D02*
X278810997Y-131687351D01*
X278810997Y-131687351D02*
X278635345Y-131647130D01*
X278635345Y-131647130D02*
X278449458Y-131639534D01*
X278449458Y-131639534D02*
X278449458Y-131639534D01*
G36*
X281618059Y-131132195D02*
G01*
X281820720Y-131175548D01*
X282007443Y-131241948D01*
X282172872Y-131330497D01*
X282311650Y-131440295D01*
X282418421Y-131570446D01*
X282507389Y-131772620D01*
X282566580Y-132025263D01*
X282601798Y-132298875D01*
X282618845Y-132563954D01*
X282623526Y-132791000D01*
X282623526Y-134518200D01*
X283199259Y-134518200D01*
X283199259Y-134950000D01*
X281040259Y-134950000D01*
X281040259Y-134518200D01*
X281615992Y-134518200D01*
X281615992Y-132359200D01*
X281607533Y-132156839D01*
X281575791Y-131954208D01*
X281503159Y-131766960D01*
X281372025Y-131610747D01*
X281182439Y-131519396D01*
X280978980Y-131520442D01*
X280774162Y-131591496D01*
X280580498Y-131710168D01*
X280410503Y-131854068D01*
X280276692Y-132000806D01*
X280172333Y-132165896D01*
X280092016Y-132361929D01*
X280032770Y-132582841D01*
X279991624Y-132822569D01*
X279965605Y-133075051D01*
X279951742Y-133334222D01*
X279947063Y-133594019D01*
X279948597Y-133848378D01*
X279953372Y-134091237D01*
X279958416Y-134316533D01*
X279960758Y-134518200D01*
X280536492Y-134518200D01*
X280536492Y-134950000D01*
X278449458Y-134950000D01*
X278449458Y-134518200D01*
X279025191Y-134518200D01*
X279025191Y-132575100D01*
X279027890Y-132395690D01*
X279026271Y-132175595D01*
X279005760Y-131962923D01*
X278951785Y-131805777D01*
X278810997Y-131687351D01*
X278635345Y-131647130D01*
X278449458Y-131639534D01*
X278457009Y-131442435D01*
X278520705Y-131260989D01*
X278658128Y-131184245D01*
X278885789Y-131142164D01*
X279163187Y-131125512D01*
X279449821Y-131125052D01*
X279705190Y-131131549D01*
X279888791Y-131135767D01*
X279900036Y-131259460D01*
X279924775Y-131531584D01*
X279949513Y-131803708D01*
X279960758Y-131927400D01*
X280065811Y-131722895D01*
X280203135Y-131549523D01*
X280367374Y-131406387D01*
X280553172Y-131292587D01*
X280755172Y-131207226D01*
X280968017Y-131149405D01*
X281186351Y-131118225D01*
X281404817Y-131112788D01*
X281618059Y-131132195D01*
G37*
X281618059Y-131132195D02*
X281820720Y-131175548D01*
X282007443Y-131241948D01*
X282172872Y-131330497D01*
X282311650Y-131440295D01*
X282418421Y-131570446D01*
X282507389Y-131772620D01*
X282566580Y-132025263D01*
X282601798Y-132298875D01*
X282618845Y-132563954D01*
X282623526Y-132791000D01*
X282623526Y-134518200D01*
X283199259Y-134518200D01*
X283199259Y-134950000D01*
X281040259Y-134950000D01*
X281040259Y-134518200D01*
X281615992Y-134518200D01*
X281615992Y-132359200D01*
X281607533Y-132156839D01*
X281575791Y-131954208D01*
X281503159Y-131766960D01*
X281372025Y-131610747D01*
X281182439Y-131519396D01*
X280978980Y-131520442D01*
X280774162Y-131591496D01*
X280580498Y-131710168D01*
X280410503Y-131854068D01*
X280276692Y-132000806D01*
X280172333Y-132165896D01*
X280092016Y-132361929D01*
X280032770Y-132582841D01*
X279991624Y-132822569D01*
X279965605Y-133075051D01*
X279951742Y-133334222D01*
X279947063Y-133594019D01*
X279948597Y-133848378D01*
X279953372Y-134091237D01*
X279958416Y-134316533D01*
X279960758Y-134518200D01*
X280536492Y-134518200D01*
X280536492Y-134950000D01*
X278449458Y-134950000D01*
X278449458Y-134518200D01*
X279025191Y-134518200D01*
X279025191Y-132575100D01*
X279027890Y-132395690D01*
X279026271Y-132175595D01*
X279005760Y-131962923D01*
X278951785Y-131805777D01*
X278810997Y-131687351D01*
X278635345Y-131647130D01*
X278449458Y-131639534D01*
X278457009Y-131442435D01*
X278520705Y-131260989D01*
X278658128Y-131184245D01*
X278885789Y-131142164D01*
X279163187Y-131125512D01*
X279449821Y-131125052D01*
X279705190Y-131131549D01*
X279888791Y-131135767D01*
X279900036Y-131259460D01*
X279924775Y-131531584D01*
X279949513Y-131803708D01*
X279960758Y-131927400D01*
X280065811Y-131722895D01*
X280203135Y-131549523D01*
X280367374Y-131406387D01*
X280553172Y-131292587D01*
X280755172Y-131207226D01*
X280968017Y-131149405D01*
X281186351Y-131118225D01*
X281404817Y-131112788D01*
X281618059Y-131132195D01*
X287733161Y-131207734D02*
X287962036Y-131142615D01*
X287962036Y-131142615D02*
X288164072Y-131060338D01*
X288164072Y-131060338D02*
X288341509Y-130957491D01*
X288341509Y-130957491D02*
X288496587Y-130830662D01*
X288496587Y-130830662D02*
X288631549Y-130676439D01*
X288631549Y-130676439D02*
X288748634Y-130491411D01*
X288748634Y-130491411D02*
X288850084Y-130272167D01*
X288850084Y-130272167D02*
X288921703Y-130034036D01*
X288921703Y-130034036D02*
X288959924Y-129829302D01*
X288959924Y-129829302D02*
X289000978Y-129666264D01*
X289000978Y-129666264D02*
X289081098Y-129553220D01*
X289081098Y-129553220D02*
X289238132Y-129486114D01*
X289238132Y-129486114D02*
X289344469Y-129539333D01*
X289344469Y-129539333D02*
X289409985Y-129671515D01*
X289409985Y-129671515D02*
X289444556Y-129841300D01*
X289444556Y-129841300D02*
X289458056Y-130007326D01*
X289458056Y-130007326D02*
X289460362Y-130128234D01*
X289460362Y-130128234D02*
X289460362Y-130285661D01*
X289460362Y-130285661D02*
X289460362Y-130632000D01*
X289460362Y-130632000D02*
X289460362Y-130978340D01*
X289460362Y-130978340D02*
X289460362Y-131135767D01*
X289460362Y-131135767D02*
X289580115Y-131135767D01*
X289580115Y-131135767D02*
X289865678Y-131135767D01*
X289865678Y-131135767D02*
X290206513Y-131135767D01*
X290206513Y-131135767D02*
X290492077Y-131135767D01*
X290492077Y-131135767D02*
X290611829Y-131135767D01*
X290611829Y-131135767D02*
X290611829Y-131351667D01*
X290611829Y-131351667D02*
X290611829Y-131567567D01*
X290611829Y-131567567D02*
X290492077Y-131567567D01*
X290492077Y-131567567D02*
X290206513Y-131567567D01*
X290206513Y-131567567D02*
X289865678Y-131567567D01*
X289865678Y-131567567D02*
X289580115Y-131567567D01*
X289580115Y-131567567D02*
X289460362Y-131567567D01*
X289460362Y-131567567D02*
X289460362Y-131641607D01*
X289460362Y-131641607D02*
X289460362Y-131840033D01*
X289460362Y-131840033D02*
X289460362Y-132127308D01*
X289460362Y-132127308D02*
X289460362Y-132467891D01*
X289460362Y-132467891D02*
X289460362Y-132826243D01*
X289460362Y-132826243D02*
X289460362Y-133166826D01*
X289460362Y-133166826D02*
X289460362Y-133454101D01*
X289460362Y-133454101D02*
X289460362Y-133652527D01*
X289460362Y-133652527D02*
X289460362Y-133726567D01*
X289460362Y-133726567D02*
X289464733Y-133944986D01*
X289464733Y-133944986D02*
X289503542Y-134156928D01*
X289503542Y-134156928D02*
X289616147Y-134345829D01*
X289616147Y-134345829D02*
X289775036Y-134460177D01*
X289775036Y-134460177D02*
X289959563Y-134472378D01*
X289959563Y-134472378D02*
X290149083Y-134354836D01*
X290149083Y-134354836D02*
X290256210Y-134195421D01*
X290256210Y-134195421D02*
X290326444Y-133996143D01*
X290326444Y-133996143D02*
X290367799Y-133777761D01*
X290367799Y-133777761D02*
X290388289Y-133561038D01*
X290388289Y-133561038D02*
X290395929Y-133366734D01*
X290395929Y-133366734D02*
X290575846Y-133366734D01*
X290575846Y-133366734D02*
X290755763Y-133366734D01*
X290755763Y-133366734D02*
X290760368Y-133617644D01*
X290760368Y-133617644D02*
X290761520Y-133872216D01*
X290761520Y-133872216D02*
X290740218Y-134122885D01*
X290740218Y-134122885D02*
X290677463Y-134362084D01*
X290677463Y-134362084D02*
X290554256Y-134582251D01*
X290554256Y-134582251D02*
X290403496Y-134732177D01*
X290403496Y-134732177D02*
X290218862Y-134842154D01*
X290218862Y-134842154D02*
X290009313Y-134913510D01*
X290009313Y-134913510D02*
X289783809Y-134947576D01*
X289783809Y-134947576D02*
X289551310Y-134945682D01*
X289551310Y-134945682D02*
X289320775Y-134909158D01*
X289320775Y-134909158D02*
X289101165Y-134839333D01*
X289101165Y-134839333D02*
X288901440Y-134737537D01*
X288901440Y-134737537D02*
X288730559Y-134605102D01*
X288730559Y-134605102D02*
X288597481Y-134443355D01*
X288597481Y-134443355D02*
X288494409Y-134212102D01*
X288494409Y-134212102D02*
X288458026Y-133977971D01*
X288458026Y-133977971D02*
X288452828Y-133726567D01*
X288452828Y-133726567D02*
X288452828Y-133652527D01*
X288452828Y-133652527D02*
X288452828Y-133454101D01*
X288452828Y-133454101D02*
X288452828Y-133166826D01*
X288452828Y-133166826D02*
X288452828Y-132826243D01*
X288452828Y-132826243D02*
X288452828Y-132467891D01*
X288452828Y-132467891D02*
X288452828Y-132127308D01*
X288452828Y-132127308D02*
X288452828Y-131840033D01*
X288452828Y-131840033D02*
X288452828Y-131641607D01*
X288452828Y-131641607D02*
X288452828Y-131567567D01*
X288452828Y-131567567D02*
X288266248Y-131567567D01*
X288266248Y-131567567D02*
X287919742Y-131567567D01*
X287919742Y-131567567D02*
X287733161Y-131567567D01*
X287733161Y-131567567D02*
X287733161Y-131387650D01*
X287733161Y-131387650D02*
X287733161Y-131207734D01*
X287733161Y-131207734D02*
X287733161Y-131207734D01*
G36*
X289344469Y-129539333D02*
G01*
X289409985Y-129671515D01*
X289444556Y-129841300D01*
X289458056Y-130007326D01*
X289460362Y-130128234D01*
X289460362Y-131135767D01*
X290611829Y-131135767D01*
X290611829Y-131567567D01*
X289460362Y-131567567D01*
X289460362Y-133726567D01*
X289464733Y-133944986D01*
X289503542Y-134156928D01*
X289616147Y-134345829D01*
X289775036Y-134460177D01*
X289959563Y-134472378D01*
X290149083Y-134354836D01*
X290256210Y-134195421D01*
X290326444Y-133996143D01*
X290367799Y-133777761D01*
X290388289Y-133561038D01*
X290395929Y-133366734D01*
X290755763Y-133366734D01*
X290760368Y-133617644D01*
X290761520Y-133872216D01*
X290740218Y-134122885D01*
X290677463Y-134362084D01*
X290554256Y-134582251D01*
X290403496Y-134732177D01*
X290218862Y-134842154D01*
X290009313Y-134913510D01*
X289783809Y-134947576D01*
X289551310Y-134945682D01*
X289320775Y-134909158D01*
X289101165Y-134839333D01*
X288901440Y-134737537D01*
X288730559Y-134605102D01*
X288597481Y-134443355D01*
X288494409Y-134212102D01*
X288458026Y-133977971D01*
X288452828Y-133726567D01*
X288452828Y-131567567D01*
X287733161Y-131567567D01*
X287733161Y-131207734D01*
X287962036Y-131142615D01*
X288164072Y-131060338D01*
X288341509Y-130957491D01*
X288496587Y-130830662D01*
X288631549Y-130676439D01*
X288748634Y-130491411D01*
X288850084Y-130272167D01*
X288921703Y-130034036D01*
X288959924Y-129829302D01*
X289000978Y-129666264D01*
X289081098Y-129553220D01*
X289238132Y-129486114D01*
X289344469Y-129539333D01*
G37*
X289344469Y-129539333D02*
X289409985Y-129671515D01*
X289444556Y-129841300D01*
X289458056Y-130007326D01*
X289460362Y-130128234D01*
X289460362Y-131135767D01*
X290611829Y-131135767D01*
X290611829Y-131567567D01*
X289460362Y-131567567D01*
X289460362Y-133726567D01*
X289464733Y-133944986D01*
X289503542Y-134156928D01*
X289616147Y-134345829D01*
X289775036Y-134460177D01*
X289959563Y-134472378D01*
X290149083Y-134354836D01*
X290256210Y-134195421D01*
X290326444Y-133996143D01*
X290367799Y-133777761D01*
X290388289Y-133561038D01*
X290395929Y-133366734D01*
X290755763Y-133366734D01*
X290760368Y-133617644D01*
X290761520Y-133872216D01*
X290740218Y-134122885D01*
X290677463Y-134362084D01*
X290554256Y-134582251D01*
X290403496Y-134732177D01*
X290218862Y-134842154D01*
X290009313Y-134913510D01*
X289783809Y-134947576D01*
X289551310Y-134945682D01*
X289320775Y-134909158D01*
X289101165Y-134839333D01*
X288901440Y-134737537D01*
X288730559Y-134605102D01*
X288597481Y-134443355D01*
X288494409Y-134212102D01*
X288458026Y-133977971D01*
X288452828Y-133726567D01*
X288452828Y-131567567D01*
X287733161Y-131567567D01*
X287733161Y-131207734D01*
X287962036Y-131142615D01*
X288164072Y-131060338D01*
X288341509Y-130957491D01*
X288496587Y-130830662D01*
X288631549Y-130676439D01*
X288748634Y-130491411D01*
X288850084Y-130272167D01*
X288921703Y-130034036D01*
X288959924Y-129829302D01*
X289000978Y-129666264D01*
X289081098Y-129553220D01*
X289238132Y-129486114D01*
X289344469Y-129539333D01*
D12*
X289817272Y-138841543D02*
X290243086Y-138899421D01*
X290243086Y-138899421D02*
X290170509Y-139077187D01*
X290170509Y-139077187D02*
X290063022Y-139232905D01*
X290063022Y-139232905D02*
X289920624Y-139366575D01*
X289920624Y-139366575D02*
X289747221Y-139468779D01*
X289747221Y-139468779D02*
X289546716Y-139530101D01*
X289546716Y-139530101D02*
X289319110Y-139550541D01*
X289319110Y-139550541D02*
X289112663Y-139532326D01*
X289112663Y-139532326D02*
X288927403Y-139477678D01*
X288927403Y-139477678D02*
X288763331Y-139386599D01*
X288763331Y-139386599D02*
X288845755Y-138217290D01*
X288845755Y-138217290D02*
X289788333Y-138217290D01*
X289788333Y-138217290D02*
X289753238Y-138012651D01*
X289753238Y-138012651D02*
X289651906Y-137849354D01*
X289651906Y-137849354D02*
X289503595Y-137742384D01*
X289503595Y-137742384D02*
X289323244Y-137706727D01*
X289323244Y-137706727D02*
X289144962Y-137740317D01*
X289144962Y-137740317D02*
X288998717Y-137841085D01*
X288998717Y-137841085D02*
X288895363Y-138001282D01*
X288895363Y-138001282D02*
X288845755Y-138217290D01*
X288845755Y-138217290D02*
X288763331Y-139386599D01*
X288763331Y-139386599D02*
X288620446Y-139259088D01*
X288620446Y-139259088D02*
X288504691Y-139100441D01*
X288504691Y-139100441D02*
X288422008Y-138915956D01*
X288422008Y-138915956D02*
X288372399Y-138705633D01*
X288372399Y-138705633D02*
X288355862Y-138469472D01*
X288355862Y-138469472D02*
X288372528Y-138243000D01*
X288372528Y-138243000D02*
X288422525Y-138036940D01*
X288422525Y-138036940D02*
X288505853Y-137851292D01*
X288505853Y-137851292D02*
X288622512Y-137686057D01*
X288622512Y-137686057D02*
X288767723Y-137550407D01*
X288767723Y-137550407D02*
X288936706Y-137453514D01*
X288936706Y-137453514D02*
X289129459Y-137395378D01*
X289129459Y-137395378D02*
X289345983Y-137375999D01*
X289345983Y-137375999D02*
X289556564Y-137395120D01*
X289556564Y-137395120D02*
X289741824Y-137452480D01*
X289741824Y-137452480D02*
X289901763Y-137548081D01*
X289901763Y-137548081D02*
X290036381Y-137681923D01*
X290036381Y-137681923D02*
X290143093Y-137845736D01*
X290143093Y-137845736D02*
X290219316Y-138031255D01*
X290219316Y-138031255D02*
X290265050Y-138238477D01*
X290265050Y-138238477D02*
X290280294Y-138467404D01*
X290280294Y-138467404D02*
X290278319Y-138521147D01*
X290278319Y-138521147D02*
X288845848Y-138521147D01*
X288845848Y-138521147D02*
X288855667Y-138712868D01*
X288855667Y-138712868D02*
X288885122Y-138862213D01*
X288885122Y-138862213D02*
X288946100Y-138982101D01*
X288946100Y-138982101D02*
X289046353Y-139085453D01*
X289046353Y-139085453D02*
X289181228Y-139156768D01*
X289181228Y-139156768D02*
X289346076Y-139180540D01*
X289346076Y-139180540D02*
X289553700Y-139142873D01*
X289553700Y-139142873D02*
X289710796Y-139029874D01*
X289710796Y-139029874D02*
X289817365Y-138841543D01*
X289817365Y-138841543D02*
X289817272Y-138841543D01*
X289817272Y-138841543D02*
X289817272Y-138841543D01*
G36*
X288504691Y-139100441D02*
G01*
X288422008Y-138915956D01*
X288372399Y-138705633D01*
X288355862Y-138469472D01*
X288372528Y-138243000D01*
X288378766Y-138217290D01*
X288845755Y-138217290D01*
X289788333Y-138217290D01*
X289753238Y-138012651D01*
X289651906Y-137849354D01*
X289503595Y-137742384D01*
X289323244Y-137706727D01*
X289144962Y-137740317D01*
X288998717Y-137841085D01*
X288895363Y-138001282D01*
X288845755Y-138217290D01*
X288378766Y-138217290D01*
X288422525Y-138036940D01*
X288505853Y-137851292D01*
X288622512Y-137686057D01*
X288767723Y-137550407D01*
X288936706Y-137453514D01*
X289129459Y-137395378D01*
X289345983Y-137375999D01*
X289556564Y-137395120D01*
X289741824Y-137452480D01*
X289901763Y-137548081D01*
X290036381Y-137681923D01*
X290143093Y-137845736D01*
X290219316Y-138031255D01*
X290265050Y-138238477D01*
X290280294Y-138467404D01*
X290278319Y-138521147D01*
X288845848Y-138521147D01*
X288855667Y-138712868D01*
X288885122Y-138862213D01*
X288946100Y-138982101D01*
X289046353Y-139085453D01*
X289181228Y-139156768D01*
X289346076Y-139180540D01*
X289553700Y-139142873D01*
X289710796Y-139029874D01*
X289817358Y-138841555D01*
X289817272Y-138841543D01*
X289817365Y-138841543D01*
X289817358Y-138841555D01*
X290243086Y-138899421D01*
X290170509Y-139077187D01*
X290063022Y-139232905D01*
X289920624Y-139366575D01*
X289747221Y-139468779D01*
X289546716Y-139530101D01*
X289319110Y-139550541D01*
X289112663Y-139532326D01*
X288927403Y-139477678D01*
X288763331Y-139386599D01*
X288620446Y-139259088D01*
X288504691Y-139100441D01*
G37*
X288504691Y-139100441D02*
X288422008Y-138915956D01*
X288372399Y-138705633D01*
X288355862Y-138469472D01*
X288372528Y-138243000D01*
X288378766Y-138217290D01*
X288845755Y-138217290D01*
X289788333Y-138217290D01*
X289753238Y-138012651D01*
X289651906Y-137849354D01*
X289503595Y-137742384D01*
X289323244Y-137706727D01*
X289144962Y-137740317D01*
X288998717Y-137841085D01*
X288895363Y-138001282D01*
X288845755Y-138217290D01*
X288378766Y-138217290D01*
X288422525Y-138036940D01*
X288505853Y-137851292D01*
X288622512Y-137686057D01*
X288767723Y-137550407D01*
X288936706Y-137453514D01*
X289129459Y-137395378D01*
X289345983Y-137375999D01*
X289556564Y-137395120D01*
X289741824Y-137452480D01*
X289901763Y-137548081D01*
X290036381Y-137681923D01*
X290143093Y-137845736D01*
X290219316Y-138031255D01*
X290265050Y-138238477D01*
X290280294Y-138467404D01*
X290278319Y-138521147D01*
X288845848Y-138521147D01*
X288855667Y-138712868D01*
X288885122Y-138862213D01*
X288946100Y-138982101D01*
X289046353Y-139085453D01*
X289181228Y-139156768D01*
X289346076Y-139180540D01*
X289553700Y-139142873D01*
X289710796Y-139029874D01*
X289817358Y-138841555D01*
X289817272Y-138841543D01*
X289817365Y-138841543D01*
X289817358Y-138841555D01*
X290243086Y-138899421D01*
X290170509Y-139077187D01*
X290063022Y-139232905D01*
X289920624Y-139366575D01*
X289747221Y-139468779D01*
X289546716Y-139530101D01*
X289319110Y-139550541D01*
X289112663Y-139532326D01*
X288927403Y-139477678D01*
X288763331Y-139386599D01*
X288620446Y-139259088D01*
X288504691Y-139100441D01*
X292215061Y-139507136D02*
X291743772Y-139507136D01*
X291743772Y-139507136D02*
X291743772Y-136685602D01*
X291743772Y-136685602D02*
X292215061Y-136685602D01*
X292215061Y-136685602D02*
X292215061Y-139507136D01*
X292215061Y-139507136D02*
X292215061Y-139507136D01*
G36*
X292215061Y-139507136D02*
G01*
X291743772Y-139507136D01*
X291743772Y-136685602D01*
X292215061Y-136685602D01*
X292215061Y-139507136D01*
G37*
X292215061Y-139507136D02*
X291743772Y-139507136D01*
X291743772Y-136685602D01*
X292215061Y-136685602D01*
X292215061Y-139507136D01*
X281501497Y-140212000D02*
X281021940Y-140212000D01*
X281021940Y-140212000D02*
X281501497Y-138651373D01*
X281501497Y-138651373D02*
X281535087Y-138859628D01*
X281535087Y-138859628D02*
X281635855Y-139029644D01*
X281635855Y-139029644D02*
X281779516Y-139141264D01*
X281779516Y-139141264D02*
X281937647Y-139178471D01*
X281937647Y-139178471D02*
X282132467Y-139129378D01*
X282132467Y-139129378D02*
X282266309Y-138982101D01*
X282266309Y-138982101D02*
X282345373Y-138757309D01*
X282345373Y-138757309D02*
X282371727Y-138479807D01*
X282371727Y-138479807D02*
X282360014Y-138280910D01*
X282360014Y-138280910D02*
X282324874Y-138108655D01*
X282324874Y-138108655D02*
X282266309Y-137963041D01*
X282266309Y-137963041D02*
X282135050Y-137812663D01*
X282135050Y-137812663D02*
X281952116Y-137762537D01*
X281952116Y-137762537D02*
X281777965Y-137803362D01*
X281777965Y-137803362D02*
X281631720Y-137925836D01*
X281631720Y-137925836D02*
X281534053Y-138114454D01*
X281534053Y-138114454D02*
X281501497Y-138353716D01*
X281501497Y-138353716D02*
X281501497Y-138651373D01*
X281501497Y-138651373D02*
X281021940Y-140212000D01*
X281021940Y-140212000D02*
X281021940Y-137419405D01*
X281021940Y-137419405D02*
X281472558Y-137419405D01*
X281472558Y-137419405D02*
X281472558Y-137783209D01*
X281472558Y-137783209D02*
X281593868Y-137605055D01*
X281593868Y-137605055D02*
X281740758Y-137477802D01*
X281740758Y-137477802D02*
X281913228Y-137401450D01*
X281913228Y-137401450D02*
X282111278Y-137375999D01*
X282111278Y-137375999D02*
X282327171Y-137409532D01*
X282327171Y-137409532D02*
X282511828Y-137510128D01*
X282511828Y-137510128D02*
X282665250Y-137677788D01*
X282665250Y-137677788D02*
X282755683Y-137839148D01*
X282755683Y-137839148D02*
X282820279Y-138021437D01*
X282820279Y-138021437D02*
X282859036Y-138224655D01*
X282859036Y-138224655D02*
X282871955Y-138448802D01*
X282871955Y-138448802D02*
X282859553Y-138663775D01*
X282859553Y-138663775D02*
X282822346Y-138864279D01*
X282822346Y-138864279D02*
X282760335Y-139050314D01*
X282760335Y-139050314D02*
X282673519Y-139221880D01*
X282673519Y-139221880D02*
X282521016Y-139404469D01*
X282521016Y-139404469D02*
X282325334Y-139514023D01*
X282325334Y-139514023D02*
X282086474Y-139550541D01*
X282086474Y-139550541D02*
X281842332Y-139513335D01*
X281842332Y-139513335D02*
X281647340Y-139401714D01*
X281647340Y-139401714D02*
X281501497Y-139215679D01*
X281501497Y-139215679D02*
X281501497Y-140212000D01*
X281501497Y-140212000D02*
X281501497Y-140212000D01*
G36*
X281472558Y-137419405D02*
G01*
X281472558Y-137783209D01*
X281593868Y-137605055D01*
X281740758Y-137477802D01*
X281913228Y-137401450D01*
X282111278Y-137375999D01*
X282327171Y-137409532D01*
X282511828Y-137510128D01*
X282665250Y-137677788D01*
X282755683Y-137839148D01*
X282820279Y-138021437D01*
X282859036Y-138224655D01*
X282871955Y-138448802D01*
X282859553Y-138663775D01*
X282822346Y-138864279D01*
X282760335Y-139050314D01*
X282673519Y-139221880D01*
X282521016Y-139404469D01*
X282325334Y-139514023D01*
X282086474Y-139550541D01*
X281842332Y-139513335D01*
X281647340Y-139401714D01*
X281501497Y-139215679D01*
X281501497Y-140212000D01*
X281021940Y-140212000D01*
X281021940Y-138353716D01*
X281501497Y-138353716D01*
X281501497Y-138651373D01*
X281535087Y-138859628D01*
X281635855Y-139029644D01*
X281779516Y-139141264D01*
X281937647Y-139178471D01*
X282132467Y-139129378D01*
X282266309Y-138982101D01*
X282345373Y-138757309D01*
X282371727Y-138479807D01*
X282360014Y-138280910D01*
X282324874Y-138108655D01*
X282266309Y-137963041D01*
X282135050Y-137812663D01*
X281952116Y-137762537D01*
X281777965Y-137803362D01*
X281631720Y-137925836D01*
X281534053Y-138114454D01*
X281501497Y-138353716D01*
X281021940Y-138353716D01*
X281021940Y-137419405D01*
X281472558Y-137419405D01*
G37*
X281472558Y-137419405D02*
X281472558Y-137783209D01*
X281593868Y-137605055D01*
X281740758Y-137477802D01*
X281913228Y-137401450D01*
X282111278Y-137375999D01*
X282327171Y-137409532D01*
X282511828Y-137510128D01*
X282665250Y-137677788D01*
X282755683Y-137839148D01*
X282820279Y-138021437D01*
X282859036Y-138224655D01*
X282871955Y-138448802D01*
X282859553Y-138663775D01*
X282822346Y-138864279D01*
X282760335Y-139050314D01*
X282673519Y-139221880D01*
X282521016Y-139404469D01*
X282325334Y-139514023D01*
X282086474Y-139550541D01*
X281842332Y-139513335D01*
X281647340Y-139401714D01*
X281501497Y-139215679D01*
X281501497Y-140212000D01*
X281021940Y-140212000D01*
X281021940Y-138353716D01*
X281501497Y-138353716D01*
X281501497Y-138651373D01*
X281535087Y-138859628D01*
X281635855Y-139029644D01*
X281779516Y-139141264D01*
X281937647Y-139178471D01*
X282132467Y-139129378D01*
X282266309Y-138982101D01*
X282345373Y-138757309D01*
X282371727Y-138479807D01*
X282360014Y-138280910D01*
X282324874Y-138108655D01*
X282266309Y-137963041D01*
X282135050Y-137812663D01*
X281952116Y-137762537D01*
X281777965Y-137803362D01*
X281631720Y-137925836D01*
X281534053Y-138114454D01*
X281501497Y-138353716D01*
X281021940Y-138353716D01*
X281021940Y-137419405D01*
X281472558Y-137419405D01*
X277412855Y-137419405D02*
X276600501Y-139796524D01*
X276600501Y-139796524D02*
X276512135Y-139990826D01*
X276512135Y-139990826D02*
X276395864Y-140135520D01*
X276395864Y-140135520D02*
X276240833Y-140226988D01*
X276240833Y-140226988D02*
X276032060Y-140257477D01*
X276032060Y-140257477D02*
X275917855Y-140253858D01*
X275917855Y-140253858D02*
X275761276Y-140242999D01*
X275761276Y-140242999D02*
X275761276Y-139868860D01*
X275761276Y-139868860D02*
X275986585Y-139873009D01*
X275986585Y-139873009D02*
X276205694Y-139823400D01*
X276205694Y-139823400D02*
X276319382Y-139651834D01*
X276319382Y-139651834D02*
X276360722Y-139507141D01*
X276360722Y-139507141D02*
X276317313Y-139378981D01*
X276317313Y-139378981D02*
X275600045Y-137419411D01*
X275600045Y-137419411D02*
X276094072Y-137419411D01*
X276094072Y-137419411D02*
X276600501Y-138796071D01*
X276600501Y-138796071D02*
X277036650Y-137419411D01*
X277036650Y-137419411D02*
X277412855Y-137419405D01*
X277412855Y-137419405D02*
X277412855Y-137419405D01*
G36*
X276600501Y-139796524D02*
G01*
X276512135Y-139990826D01*
X276395864Y-140135520D01*
X276240833Y-140226988D01*
X276032060Y-140257477D01*
X275917855Y-140253858D01*
X275761276Y-140242999D01*
X275761276Y-139868860D01*
X275986585Y-139873009D01*
X276205694Y-139823400D01*
X276319382Y-139651834D01*
X276360722Y-139507141D01*
X276317313Y-139378981D01*
X275600045Y-137419411D01*
X276094072Y-137419411D01*
X276600501Y-138796071D01*
X277036650Y-137419411D01*
X277412855Y-137419405D01*
X276600501Y-139796524D01*
G37*
X276600501Y-139796524D02*
X276512135Y-139990826D01*
X276395864Y-140135520D01*
X276240833Y-140226988D01*
X276032060Y-140257477D01*
X275917855Y-140253858D01*
X275761276Y-140242999D01*
X275761276Y-139868860D01*
X275986585Y-139873009D01*
X276205694Y-139823400D01*
X276319382Y-139651834D01*
X276360722Y-139507141D01*
X276317313Y-139378981D01*
X275600045Y-137419411D01*
X276094072Y-137419411D01*
X276600501Y-138796071D01*
X277036650Y-137419411D01*
X277412855Y-137419405D01*
X276600501Y-139796524D01*
X279599804Y-139550541D02*
X279616343Y-139161936D01*
X279616343Y-139161936D02*
X279787495Y-139133575D01*
X279787495Y-139133575D02*
X279920613Y-139048495D01*
X279920613Y-139048495D02*
X280015698Y-138906695D01*
X280015698Y-138906695D02*
X280072749Y-138708175D01*
X280072749Y-138708175D02*
X280091766Y-138452934D01*
X280091766Y-138452934D02*
X280079134Y-138254497D01*
X280079134Y-138254497D02*
X280041238Y-138086376D01*
X280041238Y-138086376D02*
X279978078Y-137948572D01*
X279978078Y-137948572D02*
X279833901Y-137809045D01*
X279833901Y-137809045D02*
X279628743Y-137762537D01*
X279628743Y-137762537D02*
X279416355Y-137810596D01*
X279416355Y-137810596D02*
X279267011Y-137954775D01*
X279267011Y-137954775D02*
X279201554Y-138095565D01*
X279201554Y-138095565D02*
X279162280Y-138264374D01*
X279162280Y-138264374D02*
X279149188Y-138461203D01*
X279149188Y-138461203D02*
X279162969Y-138670665D01*
X279162969Y-138670665D02*
X279204310Y-138844298D01*
X279204310Y-138844298D02*
X279273211Y-138982101D01*
X279273211Y-138982101D02*
X279422039Y-139116977D01*
X279422039Y-139116977D02*
X279616343Y-139161936D01*
X279616343Y-139161936D02*
X279599804Y-139550541D01*
X279599804Y-139550541D02*
X279381987Y-139529742D01*
X279381987Y-139529742D02*
X279191559Y-139467342D01*
X279191559Y-139467342D02*
X279028519Y-139363343D01*
X279028519Y-139363343D02*
X278892868Y-139217745D01*
X278892868Y-139217745D02*
X278786156Y-139045276D01*
X278786156Y-139045276D02*
X278709933Y-138860663D01*
X278709933Y-138860663D02*
X278664199Y-138663905D01*
X278664199Y-138663905D02*
X278648955Y-138455003D01*
X278648955Y-138455003D02*
X278665750Y-138233181D01*
X278665750Y-138233181D02*
X278716134Y-138030738D01*
X278716134Y-138030738D02*
X278800109Y-137847674D01*
X278800109Y-137847674D02*
X278917673Y-137683989D01*
X278917673Y-137683989D02*
X279063789Y-137549243D01*
X279063789Y-137549243D02*
X279231350Y-137452997D01*
X279231350Y-137452997D02*
X279420357Y-137395249D01*
X279420357Y-137395249D02*
X279630809Y-137375999D01*
X279630809Y-137375999D02*
X279831185Y-137394732D01*
X279831185Y-137394732D02*
X280012698Y-137450930D01*
X280012698Y-137450930D02*
X280175349Y-137544594D01*
X280175349Y-137544594D02*
X280319138Y-137675722D01*
X280319138Y-137675722D02*
X280437607Y-137836823D01*
X280437607Y-137836823D02*
X280522228Y-138020404D01*
X280522228Y-138020404D02*
X280573001Y-138226464D01*
X280573001Y-138226464D02*
X280589925Y-138455003D01*
X280589925Y-138455003D02*
X280572355Y-138690001D01*
X280572355Y-138690001D02*
X280519644Y-138900970D01*
X280519644Y-138900970D02*
X280431794Y-139087909D01*
X280431794Y-139087909D02*
X280308803Y-139250819D01*
X280308803Y-139250819D02*
X280159846Y-139381947D01*
X280159846Y-139381947D02*
X279992027Y-139475611D01*
X279992027Y-139475611D02*
X279805346Y-139531809D01*
X279805346Y-139531809D02*
X279599804Y-139550541D01*
X279599804Y-139550541D02*
X279599804Y-139550541D01*
G36*
X279191559Y-139467342D02*
G01*
X279028519Y-139363343D01*
X278892868Y-139217745D01*
X278786156Y-139045276D01*
X278709933Y-138860663D01*
X278664199Y-138663905D01*
X278649407Y-138461203D01*
X279149188Y-138461203D01*
X279162969Y-138670665D01*
X279204310Y-138844298D01*
X279273211Y-138982101D01*
X279422039Y-139116977D01*
X279616343Y-139161936D01*
X279787495Y-139133575D01*
X279920613Y-139048495D01*
X280015698Y-138906695D01*
X280072749Y-138708175D01*
X280091766Y-138452934D01*
X280079134Y-138254497D01*
X280041238Y-138086376D01*
X279978078Y-137948572D01*
X279833901Y-137809045D01*
X279628743Y-137762537D01*
X279416355Y-137810596D01*
X279267011Y-137954775D01*
X279201554Y-138095565D01*
X279162280Y-138264374D01*
X279149188Y-138461203D01*
X278649407Y-138461203D01*
X278648955Y-138455003D01*
X278665750Y-138233181D01*
X278716134Y-138030738D01*
X278800109Y-137847674D01*
X278917673Y-137683989D01*
X279063789Y-137549243D01*
X279231350Y-137452997D01*
X279420357Y-137395249D01*
X279630809Y-137375999D01*
X279831185Y-137394732D01*
X280012698Y-137450930D01*
X280175349Y-137544594D01*
X280319138Y-137675722D01*
X280437607Y-137836823D01*
X280522228Y-138020404D01*
X280573001Y-138226464D01*
X280589925Y-138455003D01*
X280572355Y-138690001D01*
X280519644Y-138900970D01*
X280431794Y-139087909D01*
X280308803Y-139250819D01*
X280159846Y-139381947D01*
X279992027Y-139475611D01*
X279805346Y-139531809D01*
X279599804Y-139550541D01*
X279381987Y-139529742D01*
X279191559Y-139467342D01*
G37*
X279191559Y-139467342D02*
X279028519Y-139363343D01*
X278892868Y-139217745D01*
X278786156Y-139045276D01*
X278709933Y-138860663D01*
X278664199Y-138663905D01*
X278649407Y-138461203D01*
X279149188Y-138461203D01*
X279162969Y-138670665D01*
X279204310Y-138844298D01*
X279273211Y-138982101D01*
X279422039Y-139116977D01*
X279616343Y-139161936D01*
X279787495Y-139133575D01*
X279920613Y-139048495D01*
X280015698Y-138906695D01*
X280072749Y-138708175D01*
X280091766Y-138452934D01*
X280079134Y-138254497D01*
X280041238Y-138086376D01*
X279978078Y-137948572D01*
X279833901Y-137809045D01*
X279628743Y-137762537D01*
X279416355Y-137810596D01*
X279267011Y-137954775D01*
X279201554Y-138095565D01*
X279162280Y-138264374D01*
X279149188Y-138461203D01*
X278649407Y-138461203D01*
X278648955Y-138455003D01*
X278665750Y-138233181D01*
X278716134Y-138030738D01*
X278800109Y-137847674D01*
X278917673Y-137683989D01*
X279063789Y-137549243D01*
X279231350Y-137452997D01*
X279420357Y-137395249D01*
X279630809Y-137375999D01*
X279831185Y-137394732D01*
X280012698Y-137450930D01*
X280175349Y-137544594D01*
X280319138Y-137675722D01*
X280437607Y-137836823D01*
X280522228Y-138020404D01*
X280573001Y-138226464D01*
X280589925Y-138455003D01*
X280572355Y-138690001D01*
X280519644Y-138900970D01*
X280431794Y-139087909D01*
X280308803Y-139250819D01*
X280159846Y-139381947D01*
X279992027Y-139475611D01*
X279805346Y-139531809D01*
X279599804Y-139550541D01*
X279381987Y-139529742D01*
X279191559Y-139467342D01*
D10*
%TO.C,SW23*%
X269904180Y-89283162D02*
X268913912Y-89422335D01*
X270862335Y-103286088D02*
X271852603Y-103146915D01*
X270862335Y-103286088D02*
X270723162Y-102295820D01*
X282777665Y-87473912D02*
X281787397Y-87613085D01*
X282777665Y-87473912D02*
X282916838Y-88464180D01*
X269053085Y-90412603D02*
X268913912Y-89422335D01*
X283735820Y-101476838D02*
X284726088Y-101337665D01*
X284586915Y-100347397D02*
X284726088Y-101337665D01*
%TO.C,SW36*%
X315990000Y-107060000D02*
X314990000Y-107060000D01*
X301990000Y-121060000D02*
X301990000Y-120060000D01*
X301990000Y-108060000D02*
X301990000Y-107060000D01*
X315990000Y-107060000D02*
X315990000Y-108060000D01*
X314990000Y-121060000D02*
X315990000Y-121060000D01*
X315990000Y-120060000D02*
X315990000Y-121060000D01*
X302990000Y-107060000D02*
X301990000Y-107060000D01*
X301990000Y-121060000D02*
X302990000Y-121060000D01*
%TO.C,SW32*%
X221196915Y-128487397D02*
X221336088Y-129477665D01*
X206514180Y-117423162D02*
X205523912Y-117562335D01*
X207472335Y-131426088D02*
X207333162Y-130435820D01*
X219387665Y-115613912D02*
X219526838Y-116604180D01*
X220345820Y-129616838D02*
X221336088Y-129477665D01*
X207472335Y-131426088D02*
X208462603Y-131286915D01*
X205663085Y-118552603D02*
X205523912Y-117562335D01*
X219387665Y-115613912D02*
X218397397Y-115753085D01*
%TO.C,SW18*%
X163646838Y-107625820D02*
X163507665Y-108616088D01*
X149643912Y-106667665D02*
X149783085Y-105677397D01*
X165456088Y-94752335D02*
X165316915Y-95742603D01*
X151453162Y-93794180D02*
X151592335Y-92803912D01*
X152582603Y-92943085D02*
X151592335Y-92803912D01*
X162517397Y-108476915D02*
X163507665Y-108616088D01*
X165456088Y-94752335D02*
X164465820Y-94613162D01*
X149643912Y-106667665D02*
X150634180Y-106806838D01*
%TO.C,SW40*%
X95540000Y-126180000D02*
X94540000Y-126180000D01*
X108540000Y-126180000D02*
X108540000Y-127180000D01*
X107540000Y-140180000D02*
X108540000Y-140180000D01*
X94540000Y-127180000D02*
X94540000Y-126180000D01*
X94540000Y-140180000D02*
X95540000Y-140180000D01*
X108540000Y-139180000D02*
X108540000Y-140180000D01*
X94540000Y-140180000D02*
X94540000Y-139180000D01*
X108540000Y-126180000D02*
X107540000Y-126180000D01*
%TO.C,SW9*%
X244622335Y-87726088D02*
X244483162Y-86735820D01*
X243664180Y-73723162D02*
X242673912Y-73862335D01*
X256537665Y-71913912D02*
X256676838Y-72904180D01*
X258346915Y-84787397D02*
X258486088Y-85777665D01*
X257495820Y-85916838D02*
X258486088Y-85777665D01*
X256537665Y-71913912D02*
X255547397Y-72053085D01*
X244622335Y-87726088D02*
X245612603Y-87586915D01*
X242813085Y-74852603D02*
X242673912Y-73862335D01*
%TO.C,SW45*%
X311500000Y-126290000D02*
X310500000Y-126290000D01*
X297500000Y-127290000D02*
X297500000Y-126290000D01*
X311500000Y-139290000D02*
X311500000Y-140290000D01*
X310500000Y-140290000D02*
X311500000Y-140290000D01*
X298500000Y-126290000D02*
X297500000Y-126290000D01*
X297500000Y-140290000D02*
X297500000Y-139290000D01*
X297500000Y-140290000D02*
X298500000Y-140290000D01*
X311500000Y-126290000D02*
X311500000Y-127290000D01*
%TD*%
D14*
%TO.C,J1*%
X190530000Y-102260000D03*
X193070000Y-102260000D03*
X195610000Y-102260000D03*
X198150000Y-102260000D03*
%TD*%
M02*
