0
SECTION
2
HEADER
9
$INSUNITS
70
4
9
$ACADVER
1
AC1014
9
$HANDSEED
5
FFFF
0
ENDSEC
0
SECTION
2
TABLES
0
TABLE
2
VPORT
5
8
100
AcDbSymbolTable
0
ENDTAB
0
TABLE
2
LTYPE
5
5
100
AcDbSymbolTable
0
LTYPE
5
14
100
AcDbSymbolTableRecord
100
AcDbLinetypeTableRecord
2
BYBLOCK
70
0
0
LTYPE
5
15
100
AcDbSymbolTableRecord
100
AcDbLinetypeTableRecord
2
BYLAYER
70
0
0
ENDTAB
0
TABLE
2
LAYER
5
2
100
AcDbSymbolTable
70
2
0
LAYER
5
50
100
AcDbSymbolTableRecord
100
AcDbLayerTableRecord
2
0
70
0
6
CONTINUOUS
0
ENDTAB
0
TABLE
2
STYLE
5
3
100
AcDbSymbolTable
70
1
0
STYLE
5
11
100
AcDbSymbolTableRecord
100
AcDbTextStyleTableRecord
2
STANDARD
70
0
0
ENDTAB
0
TABLE
2
VIEW
5
6
100
AcDbSymbolTable
70
0
0
ENDTAB
0
TABLE
2
UCS
5
7
100
AcDbSymbolTable
70
0
0
ENDTAB
0
TABLE
2
APPID
5
9
100
AcDbSymbolTable
70
2
0
APPID
5
12
100
AcDbSymbolTableRecord
100
AcDbRegAppTableRecord
2
ACAD
70
0
0
ENDTAB
0
TABLE
2
DIMSTYLE
5
A
100
AcDbSymbolTable
70
1
0
ENDTAB
0
TABLE
2
BLOCK_RECORD
5
1
100
AcDbSymbolTable
70
1
0
BLOCK_RECORD
5
1F
100
AcDbSymbolTableRecord
100
AcDbBlockTableRecord
2
*MODEL_SPACE
0
BLOCK_RECORD
5
1B
100
AcDbSymbolTableRecord
100
AcDbBlockTableRecord
2
*PAPER_SPACE
0
ENDTAB
0
ENDSEC
0
SECTION
2
BLOCKS
0
BLOCK
5
20
100
AcDbEntity
100
AcDbBlockBegin
2
*MODEL_SPACE
0
ENDBLK
5
21
100
AcDbEntity
100
AcDbBlockEnd
0
BLOCK
5
1C
100
AcDbEntity
100
AcDbBlockBegin
2
*PAPER_SPACE
0
ENDBLK
5
1D
100
AcDbEntity
100
AcDbBlockEnd
0
ENDSEC
0
SECTION
2
ENTITIES
0
CIRCLE
5
100
100
AcDbEntity
8
0
100
AcDbCircle
10
341.5858356755615
20
120.64761182442652
30
0
40
0.49999999999999983
210
0
220
0
230
1
0
LWPOLYLINE
5
101
100
AcDbEntity
8
0
100
AcDbPolyline
90
32
70
1
43
0.0
10
338.50733567556182
20
47.030001355500204
42
0.41421356237304013
10
339.64483567556169
20
48.167501355500448
10
339.64483567556181
20
66.268901355500418
10
340.60633567556181
20
66.268901355500418
42
0.41421356237309503
10
341.74383567556185
20
67.406401355500449
10
341.74383567556168
20
85.282101355500401
42
0.41421356237309503
10
340.60633567556175
20
86.419601355500504
10
339.07683567556199
20
86.419601355500504
10
339.07683567556199
20
104.52360135550023
42
0.41421356237302187
10
337.93933567556189
20
105.66110135550019
10
336.40983567556185
20
105.66110135550019
10
336.40983567556191
20
123.7638013555005
42
0.41421356237311335
10
335.27233567556203
20
124.90130135550032
10
278.88191148251786
20
124.90130135550032
42
0.034999104755910622
10
278.72324956204511
20
124.89018168424892
10
201.4747633160772
20
114.00896077815079
42
0.4141357481619718
10
200.5070027939957
20
112.72421779310321
10
202.99550632931351
20
95.023667069416291
42
0.41419851103849109
10
204.28023354252309
20
94.055599146590296
10
207.8686755255201
20
94.559906731679177
10
210.36892857726639
20
76.784902589416831
10
202.06204523301085
20
75.616555720823214
42
0.41420662318541263
10
201.09378017964775
20
74.331682126389722
10
206.23330760541052
20
37.766895710273658
42
0.41430598681781133
10
207.51873076842728
20
36.798327741465172
10
272.38020161536059
20
45.91501501273207
42
0.41418548636456376
10
273.34831198142922
20
47.199609662075588
10
270.85598899997331
20
64.93812376377025
10
280.32469900656361
20
66.268901355500418
10
290.92183567556185
20
66.268901355500418
10
290.92183567556185
20
48.167501355500448
42
0.41421356237303103
10
292.0593356755619
20
47.030001355500346
0
LWPOLYLINE
5
102
100
AcDbEntity
8
0
100
AcDbPolyline
90
23
70
1
43
0.0
10
61.586835675561829
20
37.13181135550046
42
-0.41421356237309503
10
55.586835675561829
20
43.131811355500467
10
55.586835675561844
20
45.138556849569831
10
55.586835675561787
20
126.44161182442637
42
-0.41421356237309986
10
61.586835675561815
20
132.44161182442662
10
342.1938356755615
20
132.44161182442653
42
-0.41421356237309503
10
348.19383567556167
20
126.44161182442637
10
348.1938356755615
20
42.980001355500349
42
-0.41421356237308116
10
342.1938356755615
20
36.980001355500335
10
318.0780627941229
20
36.980001355500335
42
0.052407779283039004
10
309.76159516141234
20
36.105905384852484
10
272.84996395811652
20
28.260095970647832
42
-0.052407779283045949
10
264.53349632540596
20
27.385999999999989
10
234.68617354730594
20
27.386000000000035
42
0.12306625207479323
10
215.86812002279626
20
22.68303757469257
42
-0.24991798383218217
10
178.23195950811231
20
22.683066079092917
42
0.12307240298178752
10
159.41294364574924
20
27.386056998480505
10
135.55896445021159
20
27.385514993011803
42
-0.052662990002670558
10
127.20264961546455
20
28.267907806362217
10
89.835512383341552
20
36.24941853182434
42
0.052657293798961564
10
81.480106420803864
20
37.131811355500503
10
64.999999999999986
20
37.131811355500474
10
62.121733258958834
20
37.131811355500474
0
CIRCLE
5
103
100
AcDbEntity
8
0
100
AcDbCircle
10
330.00000491738319
20
42.00000062584877
30
0
40
1.575
210
0
220
0
230
1
0
LWPOLYLINE
5
104
100
AcDbEntity
8
0
100
AcDbPolyline
90
31
70
1
43
0.0
10
64.13283567556185
20
66.420711355500472
10
64.132835675561907
20
48.319311355500432
42
0.41421356237307905
10
65.27033567556181
20
47.181811355500471
10
111.71833567556179
20
47.181811355500471
42
0.41421356237310875
10
112.85583567556181
20
48.319311355500432
10
112.85583567556181
20
66.435573040808507
10
128.23495956686389
20
64.273753901703941
10
125.74120619586024
20
46.535850611081983
42
0.41423679960349141
10
126.70932490635658
20
45.250973696959406
10
186.85588028519004
20
36.79838015358812
42
0.41398504629992239
10
188.14007099162569
20
37.76614046919557
10
193.27703527493767
20
74.330703498848251
42
0.41411690813499397
10
192.3102745380925
20
75.615040562075848
10
184.00593533323629
20
76.783274689958759
10
186.49851499487914
20
94.521920021447471
42
0.41420498351682505
10
185.53039732885989
20
95.806632002480612
10
181.95376205118438
20
96.309316571118302
10
184.43666413113422
20
114.06509471507519
42
0.41407102073682872
10
183.46820438083392
20
115.34908799549562
10
109.03777607485765
20
125.79409825765237
42
0.3550011273746711
10
107.80950286616729
20
125.05311135550052
10
68.699335675561812
20
125.05311135550048
42
0.41421356237314766
10
67.561835675561809
20
123.91561135550042
10
67.561835675561809
20
105.81291135550032
10
66.126335675561862
20
105.81291135550033
42
0.41421356237317508
10
64.988835675561859
20
104.67541135550022
10
64.988835675561845
20
86.571411355500416
10
63.174335675561828
20
86.571411355500459
42
0.41421356237311102
10
62.036835675561846
20
85.433911355500527
10
62.036835675561839
20
67.558211355500504
42
0.41421356237312018
10
63.174335675561828
20
66.420711355500472
0
CIRCLE
5
105
100
AcDbEntity
8
0
100
AcDbCircle
10
73.586835675561872
20
42.15181135550047
30
0
40
1.575
210
0
220
0
230
1
0
CIRCLE
5
106
100
AcDbEntity
8
0
100
AcDbCircle
10
197.18675489105362
20
23.000308597095902
30
0
40
1.575
210
0
220
0
230
1
0
CIRCLE
5
107
100
AcDbEntity
8
0
100
AcDbCircle
10
198.60683567556183
20
128.74161182442657
30
0
40
1.575
210
0
220
0
230
1
0
CIRCLE
5
108
100
AcDbEntity
8
0
100
AcDbCircle
10
330.19383567556162
20
128.74161182442654
30
0
40
1.575
210
0
220
0
230
1
0
CIRCLE
5
109
100
AcDbEntity
8
0
100
AcDbCircle
10
341.5858356755615
20
109.14761182442653
30
0
40
0.5000000000000081
210
0
220
0
230
1
0
CIRCLE
5
110
100
AcDbEntity
8
0
100
AcDbCircle
10
73.586835675561815
20
128.7416118244266
30
0
40
1.575
210
0
220
0
230
1
0
CIRCLE
5
111
100
AcDbEntity
8
0
100
AcDbCircle
10
341.5858356755615
20
114.89761182442663
30
0
40
0.50000000000000255
210
0
220
0
230
1
0
LWPOLYLINE
5
112
100
AcDbEntity
8
0
100
AcDbPolyline
90
23
70
1
43
0.0
10
309.76159516141234
20
154.56790538485248
42
-0.05240777928303883
10
318.0780627941229
20
155.44200135550034
10
342.1938356755615
20
155.44200135550034
42
0.41421356237308116
10
348.1938356755615
20
161.44200135550028
10
348.19383567556167
20
244.90361182442632
42
0.41421356237309503
10
342.1938356755615
20
250.90361182442649
10
61.586835675561822
20
250.90361182442655
42
0.41421356237309986
10
55.586835675561787
20
244.90361182442632
10
55.586835675561844
20
163.60055684956984
10
55.586835675561829
20
161.59381135550041
42
0.41421356237309503
10
61.586835675561829
20
155.59381135550046
10
62.121733258958834
20
155.59381135550046
10
64.999999999999986
20
155.59381135550046
10
81.480106420803864
20
155.59381135550052
42
-0.052657293798961523
10
89.835512383341552
20
154.71141853182434
10
127.20264961546455
20
146.72990780636221
42
0.052662990002670607
10
135.55896445021159
20
145.84751499301021
10
159.41294364574924
20
145.84805699848476
42
-0.12307240298178762
10
178.23195950811231
20
141.14506607909291
42
0.24991798383218247
10
215.86812002279956
20
141.14503757468631
42
-0.12306625207479316
10
234.68617354730594
20
145.84800000000004
10
264.53349632540596
20
145.84799999999998
42
0.052407779283045956
10
272.84996395811652
20
146.72209597064781
0
CIRCLE
5
113
100
AcDbEntity
8
0
100
AcDbCircle
10
73.586835675561815
20
247.20361182442659
30
0
40
1.575
210
0
220
0
230
1
0
CIRCLE
5
114
100
AcDbEntity
8
0
100
AcDbCircle
10
198.79999999999998
20
170.91199999999992
30
0
40
1.162500000000015
210
0
220
0
230
1
0
CIRCLE
5
115
100
AcDbEntity
8
0
100
AcDbCircle
10
198.60683567556183
20
247.2036118244265
30
0
40
1.575
210
0
220
0
230
1
0
CIRCLE
5
116
100
AcDbEntity
8
0
100
AcDbCircle
10
197.18675489105362
20
141.4623085970959
30
0
40
1.575
210
0
220
0
230
1
0
CIRCLE
5
117
100
AcDbEntity
8
0
100
AcDbCircle
10
341.5858356755615
20
239.10961182442648
30
0
40
0.49999999999999983
210
0
220
0
230
1
0
CIRCLE
5
118
100
AcDbEntity
8
0
100
AcDbCircle
10
73.586835675561872
20
160.61381135550045
30
0
40
1.575
210
0
220
0
230
1
0
CIRCLE
5
119
100
AcDbEntity
8
0
100
AcDbCircle
10
330.19383567556162
20
247.2036118244265
30
0
40
1.575
210
0
220
0
230
1
0
CIRCLE
5
120
100
AcDbEntity
8
0
100
AcDbCircle
10
341.5858356755615
20
227.60961182442651
30
0
40
0.5000000000000081
210
0
220
0
230
1
0
CIRCLE
5
121
100
AcDbEntity
8
0
100
AcDbCircle
10
330.00000491738319
20
160.46200062584873
30
0
40
1.575
210
0
220
0
230
1
0
CIRCLE
5
122
100
AcDbEntity
8
0
100
AcDbCircle
10
341.5858356755615
20
233.35961182442659
30
0
40
0.50000000000000255
210
0
220
0
230
1
0
LWPOLYLINE
5
123
100
AcDbEntity
8
0
100
AcDbPolyline
90
80
70
1
43
0.0
10
66.224999999999994
20
289.29900008940695
10
66.224999999999994
20
359.29900113248823
10
66.225000000000037
20
359.25900000000001
42
-0.41421356237309764
10
67.22499999999998
20
360.2589999999999
10
68.000001013278961
20
360.25900000000001
10
76.000001132488251
20
360.25900000000001
10
80.664999999999992
20
360.25900000000001
10
80.664999999999992
20
360.92400184774397
10
80.664999999999992
20
366.92400193715093
10
80.664999999999992
20
369.36561182442659
10
61.586835675561822
20
369.36561182442659
42
0.41421356237309986
10
55.586835675561787
20
363.36561182442637
10
55.586835675561844
20
282.06255684956983
10
55.586835675561829
20
280.05581135550045
42
0.41421356237309503
10
61.586835675561829
20
274.05581135550045
10
62.121733258958834
20
274.05581135550045
10
64.999999999999986
20
274.05581135550045
10
81.480106420803864
20
274.05581135550051
42
-0.052657293798961523
10
89.835512383341552
20
273.17341853182432
10
127.20264961546455
20
265.19190780636222
42
0.052662990002670607
10
135.55896445021159
20
264.30951499301023
10
159.41294364574924
20
264.31005699848481
42
-0.12307240298178762
10
178.23195950811231
20
259.60706607909293
42
0.24991798383218222
10
215.86812002279956
20
259.60703757468627
42
-0.12306625207479327
10
234.68617354730594
20
264.31
10
264.53349632540596
20
264.30999999999995
42
0.052407779283045956
10
272.84996395811652
20
265.18409597064783
10
309.76159516141234
20
273.02990538485244
42
-0.05240777928303883
10
318.0780627941229
20
273.90400135550033
10
342.1938356755615
20
273.90400135550033
42
0.41421356237308116
10
348.1938356755615
20
279.90400135550033
10
348.19383567556167
20
363.36561182442637
42
0.41421356237309503
10
342.1938356755615
20
369.36561182442654
10
93.684999999999988
20
369.36561182442659
10
93.684999999999988
20
367.92400195205209
10
93.684999999999988
20
363.92400189244745
10
93.684999999999988
20
363.25899999999996
10
95.000001415610313
20
363.25899999999996
10
168.00000250339508
20
363.25899999999996
10
193.51209091500994
20
363.25899999999996
42
-0.24487259035090625
10
194.33161974172253
20
362.83203795876631
42
0.52098477480818128
10
202.80987815951983
20
362.83203795876631
42
-0.24487259035090625
10
203.62940698623245
20
363.25899999999996
10
280.00000417232513
20
363.25899999999996
10
326.49982178629557
20
363.25899999999996
42
-0.26713754931084771
10
327.36432836395005
20
362.76162150490421
42
0.57533222759881253
10
334.7961938372635
20
362.76162150490421
42
-0.26713754931084771
10
335.66070041491798
20
363.25899999999996
10
344.05000000000001
20
363.25899999999996
10
343.89383567556166
20
363.25899999999996
42
-0.41421356237311585
10
344.89383567556172
20
362.25899999999996
10
344.89383567556166
20
360.62372564591612
10
344.89383567556166
20
343.24029479083549
10
344.89383567556166
20
340.48900000000003
42
-0.41421356237313667
10
343.89383567556166
20
339.48900000000003
10
341.37500000000023
20
339.48899999999992
42
0.41421356237311585
10
340.37500000000023
20
338.48900000000003
10
340.37500000000011
20
303.92400099837778
10
340.37500000000011
20
303.1929013555004
10
340.375
20
285.09150135550044
10
340.375
20
284.29899999999992
42
-0.4142135623730846
10
339.375
20
283.29899999999998
10
335.000004991889
20
283.29899999999998
10
291.00000433623791
20
283.29899999999998
10
276.375
20
283.29899999999998
42
0.41421356237306384
10
275.375
20
282.29899999999998
10
275.375
20
275.29900004470346
10
275.37499999999994
20
273.29899999999998
42
-0.41421356237306384
10
274.375
20
272.29899999999998
10
212.00000315904617
20
272.29899999999998
10
211.00000314414501
20
272.29899999999998
10
129.00000192224979
20
272.29899999999998
10
125.72499999999999
20
272.29899999999998
42
-0.41421356237309503
10
124.72499999999999
20
273.29899999999998
10
124.72499999999999
20
273.92400055134294
10
124.72499999999999
20
282.29899999999998
42
0.41421356237309503
10
123.72500000000001
20
283.29899999999998
10
111.71833567556179
20
283.29899999999998
10
67.22499999999998
20
283.29899999999998
42
-0.41421356237309503
10
66.224999999999994
20
284.29899999999998
0
CIRCLE
5
124
100
AcDbEntity
8
0
100
AcDbCircle
10
331.04999999999995
20
365.66561182442655
30
0
40
1.5750000000000091
210
0
220
0
230
1
0
CIRCLE
5
125
100
AcDbEntity
8
0
100
AcDbCircle
10
197.18675489105362
20
259.92430859709589
30
0
40
1.575
210
0
220
0
230
1
0
CIRCLE
5
126
100
AcDbEntity
8
0
100
AcDbCircle
10
198.60683567556183
20
365.66561182442655
30
0
40
1.575
210
0
220
0
230
1
0
CIRCLE
5
127
100
AcDbEntity
8
0
100
AcDbCircle
10
73.586835675561815
20
365.66561182442661
30
0
40
1.575
210
0
220
0
230
1
0
CIRCLE
5
128
100
AcDbEntity
8
0
100
AcDbCircle
10
73.586835675561872
20
279.07581135550049
30
0
40
1.575
210
0
220
0
230
1
0
CIRCLE
5
129
100
AcDbEntity
8
0
100
AcDbCircle
10
330.00000491738319
20
278.92400062584875
30
0
40
1.575
210
0
220
0
230
1
0
LWPOLYLINE
5
130
100
AcDbEntity
8
0
100
AcDbPolyline
90
80
70
1
43
0.0
10
275.37499999999994
20
391.76099999999997
42
-0.4142135623730534
10
274.375
20
390.76100000000002
10
212.00000315904617
20
390.76100000000002
10
211.00000314414501
20
390.76100000000002
10
129.00000192224979
20
390.76100000000002
10
125.72499999999999
20
390.76099999999997
42
-0.41421356237309503
10
124.72499999999999
20
391.76099999999997
10
124.72499999999999
20
392.38600055134299
10
124.72499999999999
20
400.76100000000002
42
0.41421356237309503
10
123.72500000000001
20
401.76099999999997
10
111.71833567556179
20
401.76099999999997
10
67.22499999999998
20
401.76099999999997
42
-0.41421356237309503
10
66.224999999999994
20
402.76099999999997
10
66.224999999999994
20
407.76100008940693
10
66.224999999999994
20
477.76100113248822
10
66.225000000000037
20
477.721
42
-0.41421356237309764
10
67.22499999999998
20
478.72099999999995
10
68.000001013278961
20
478.721
10
76.000001132488251
20
478.721
10
80.664999999999992
20
478.721
10
80.664999999999992
20
479.38600184774401
10
80.664999999999992
20
485.38600193715098
10
80.664999999999992
20
487.82761182442664
10
61.586835675561822
20
487.82761182442664
42
0.41421356237309986
10
55.586835675561787
20
481.82761182442641
10
55.586835675561844
20
400.52455684956988
10
55.586835675561829
20
398.5178113555005
42
0.41421356237309503
10
61.586835675561829
20
392.5178113555005
10
62.121733258958834
20
392.51781135550056
10
64.999999999999986
20
392.51781135550056
10
81.480106420803864
20
392.51781135550056
42
-0.052657293798961523
10
89.835512383341552
20
391.63541853182437
10
127.20264961546455
20
383.65390780636227
42
0.052662990002670738
10
135.55896445021159
20
382.77151499301021
10
159.41294364574924
20
382.77205699848474
42
-0.12307240298178762
10
178.23195950811231
20
378.06906607909292
42
0.24991798383218211
10
215.86812002279959
20
378.06903757468626
42
-0.12306625207479327
10
234.68617354730594
20
382.77199999999999
10
264.53349632540596
20
382.77199999999999
42
0.052407779283045693
10
272.84996395811652
20
383.64609597064782
10
309.76159516141234
20
391.49190538485249
42
-0.05240777928303883
10
318.0780627941229
20
392.36600135550032
10
342.1938356755615
20
392.36600135550032
42
0.41421356237308116
10
348.1938356755615
20
398.36600135550037
10
348.19383567556167
20
481.82761182442641
42
0.41421356237309503
10
342.1938356755615
20
487.82761182442653
10
93.684999999999988
20
487.82761182442664
10
93.684999999999988
20
486.38600195205214
10
93.684999999999988
20
482.3860018924475
10
93.684999999999988
20
481.721
10
95.000001415610313
20
481.721
10
168.00000250339508
20
481.721
10
193.51209091500994
20
481.721
42
-0.24487259035090625
10
194.33161974172253
20
481.29403795876635
42
0.52098477480818128
10
202.80987815951983
20
481.29403795876635
42
-0.24487259035090625
10
203.62940698623245
20
481.721
10
280.00000417232513
20
481.721
10
326.49982178629557
20
481.721
42
-0.26713754931084771
10
327.36432836395005
20
481.22362150490426
42
0.57533222759881253
10
334.7961938372635
20
481.22362150490426
42
-0.26713754931084771
10
335.66070041491798
20
481.721
10
344.05000000000001
20
481.721
10
343.89383567556166
20
481.721
42
-0.41421356237311585
10
344.89383567556172
20
480.721
10
344.89383567556166
20
479.08572564591617
10
344.89383567556166
20
461.70229479083554
10
344.89383567556166
20
458.95100000000008
42
-0.41421356237313667
10
343.89383567556166
20
457.95100000000002
10
341.37500000000023
20
457.95099999999996
42
0.41421356237311585
10
340.37500000000023
20
456.95100000000002
10
340.37500000000011
20
422.38600099837782
10
340.37500000000011
20
421.65490135550044
10
340.375
20
403.55350135550049
10
340.375
20
402.76099999999991
42
-0.41421356237307422
10
339.375
20
401.76099999999997
10
335.000004991889
20
401.76099999999997
10
291.00000433623791
20
401.76099999999997
10
276.375
20
401.76099999999997
42
0.41421356237304302
10
275.375
20
400.76100000000002
10
275.375
20
393.76100004470351
0
CIRCLE
5
131
100
AcDbEntity
8
0
100
AcDbCircle
10
197.18675489105362
20
378.38630859709588
30
0
40
1.575
210
0
220
0
230
1
0
CIRCLE
5
132
100
AcDbEntity
8
0
100
AcDbCircle
10
330.00000491738319
20
397.38600062584879
30
0
40
1.575
210
0
220
0
230
1
0
CIRCLE
5
133
100
AcDbEntity
8
0
100
AcDbCircle
10
198.60683567556183
20
484.12761182442659
30
0
40
1.575
210
0
220
0
230
1
0
CIRCLE
5
134
100
AcDbEntity
8
0
100
AcDbCircle
10
331.04999999999995
20
484.12761182442659
30
0
40
1.5750000000000091
210
0
220
0
230
1
0
CIRCLE
5
135
100
AcDbEntity
8
0
100
AcDbCircle
10
73.586835675561815
20
484.12761182442665
30
0
40
1.575
210
0
220
0
230
1
0
CIRCLE
5
136
100
AcDbEntity
8
0
100
AcDbCircle
10
73.586835675561872
20
397.53781135550048
30
0
40
1.575
210
0
220
0
230
1
0
LWPOLYLINE
5
137
100
AcDbEntity
8
0
100
AcDbPolyline
90
32
70
1
43
0.0
10
280.32469900656361
20
-52.193098644499585
10
290.92183567556185
20
-52.193098644499585
10
290.92183567556185
20
-70.294498644499555
42
0.41421356237303103
10
292.0593356755619
20
-71.431998644499657
10
338.50733567556182
20
-71.431998644499799
42
0.41421356237304013
10
339.64483567556169
20
-70.294498644499555
10
339.64483567556181
20
-52.193098644499585
10
340.60633567556181
20
-52.193098644499585
42
0.41421356237309503
10
341.74383567556185
20
-51.055598644499554
10
341.74383567556168
20
-33.179898644499602
42
0.41421356237309503
10
340.60633567556175
20
-32.042398644499499
10
339.07683567556199
20
-32.042398644499499
10
339.07683567556199
20
-13.938398644499772
42
0.41421356237302187
10
337.93933567556189
20
-12.800898644499812
10
336.40983567556185
20
-12.800898644499812
10
336.40983567556191
20
5.3018013555004995
42
0.41421356237311335
10
335.27233567556203
20
6.4393013555003176
10
278.88191148251786
20
6.4393013555003193
42
0.034999104755910622
10
278.72324956204511
20
6.4281816842489103
10
201.4747633160772
20
-4.4530392218492043
42
0.4141357481619718
10
200.5070027939957
20
-5.7377822068967976
10
202.99550632931351
20
-23.438332930583719
42
0.41419851103849109
10
204.28023354252309
20
-24.406400853409707
10
207.8686755255201
20
-23.902093268320826
10
210.36892857726639
20
-41.67709741058318
10
202.06204523301085
20
-42.845444279176775
42
0.41420662318541457
10
201.09378017964775
20
-44.130317873610288
10
206.23330760541052
20
-80.695104289726331
42
0.41430598681781439
10
207.51873076842728
20
-81.663672258534845
10
272.38020161536059
20
-72.546984987267933
42
0.41418548636456409
10
273.34831198142922
20
-71.262390337924415
10
270.85598899997331
20
-53.523876236229746
0
LWPOLYLINE
5
138
100
AcDbEntity
8
0
100
AcDbPolyline
90
31
70
1
43
0.0
10
62.036835675561846
20
-33.028088644499476
10
62.036835675561839
20
-50.9037886444995
42
0.41421356237312018
10
63.174335675561828
20
-52.041288644499531
10
64.13283567556185
20
-52.041288644499531
10
64.132835675561907
20
-70.142688644499572
42
0.41421356237307905
10
65.27033567556181
20
-71.280188644499532
10
111.71833567556179
20
-71.280188644499532
42
0.41421356237310875
10
112.85583567556181
20
-70.142688644499572
10
112.85583567556181
20
-52.026426959191497
10
128.23495956686389
20
-54.188246098296069
10
125.74120619586024
20
-71.926149388918034
42
0.41423679960348914
10
126.70932490635658
20
-73.211026303040597
10
186.85588028519004
20
-81.663619846411905
42
0.41398504629992217
10
188.14007099162569
20
-80.695859530804455
10
193.27703527493767
20
-44.131296501151766
42
0.4141169081349943
10
192.3102745380925
20
-42.846959437924149
10
184.00593533323629
20
-41.678725310041258
10
186.49851499487914
20
-23.940079978552532
42
0.41420498351682505
10
185.53039732885989
20
-22.655367997519392
10
181.95376205118438
20
-22.152683428881701
10
184.43666413113422
20
-4.3969052849248111
42
0.41407102073682872
10
183.46820438083392
20
-3.1129120045043823
10
109.03777607485765
20
7.3320982576523566
42
0.3550011273746711
10
107.80950286616729
20
6.5911113555005141
10
68.699335675561812
20
6.5911113555004874
42
0.41421356237314766
10
67.561835675561809
20
5.4536113555004118
10
67.561835675561809
20
-12.649088644499686
10
66.126335675561862
20
-12.649088644499669
42
0.41421356237317508
10
64.988835675561859
20
-13.786588644499789
10
64.988835675561845
20
-31.890588644499587
10
63.174335675561828
20
-31.890588644499562
42
0.41421356237311102
0
CIRCLE
5
139
100
AcDbEntity
8
0
100
AcDbCircle
10
330.00000491738319
20
-76.461999374151233
30
0
40
1.575
210
0
220
0
230
1
0
LWPOLYLINE
5
140
100
AcDbEntity
8
0
100
AcDbPolyline
90
23
70
1
43
0.0
10
318.0780627941229
20
-81.481998644499669
10
342.1938356755615
20
-81.481998644499669
42
0.41421356237308116
10
348.1938356755615
20
-75.481998644499654
10
348.19383567556167
20
7.9796118244263692
42
0.41421356237309503
10
342.1938356755615
20
13.979611824426526
10
61.586835675561822
20
13.979611824426597
42
0.41421356237309986
10
55.586835675561787
20
7.9796118244263692
10
55.586835675561844
20
-73.32344315043018
10
55.586835675561829
20
-75.330188644499543
42
0.41421356237309503
10
61.586835675561829
20
-81.330188644499543
10
62.121733258958834
20
-81.330188644499515
10
64.999999999999986
20
-81.330188644499515
10
81.480106420803864
20
-81.330188644499486
42
-0.052657293798961523
10
89.835512383341552
20
-82.212581468175642
10
127.20264961546455
20
-90.1940921936378
42
0.052662990002670607
10
135.55896445021159
20
-91.076485006989785
10
159.41294364574924
20
-91.075943001515213
42
-0.12307240298178762
10
178.23195950811231
20
-95.778933920907079
42
0.24991798383218228
10
215.86812002279956
20
-95.778962425313722
42
-0.12306625207479327
10
234.68617354730594
20
-91.075999999999979
10
264.53349632540596
20
-91.076000000000022
42
0.052407779283045956
10
272.84996395811652
20
-90.201904029352164
10
309.76159516141234
20
-82.356094615147526
42
-0.05240777928303883
0
CIRCLE
5
141
100
AcDbEntity
8
0
100
AcDbCircle
10
197.18675489105362
20
-95.461691402904094
30
0
40
1.575
210
0
220
0
230
1
0
CIRCLE
5
142
100
AcDbEntity
8
0
100
AcDbCircle
10
198.60683567556183
20
10.279611824426569
30
0
40
1.575
210
0
220
0
230
1
0
CIRCLE
5
143
100
AcDbEntity
8
0
100
AcDbCircle
10
330.19383567556162
20
10.279611824426533
30
0
40
1.575
210
0
220
0
230
1
0
CIRCLE
5
144
100
AcDbEntity
8
0
100
AcDbCircle
10
341.5858356755615
20
2.1856118244265144
30
0
40
0.49999999999999983
210
0
220
0
230
1
0
CIRCLE
5
145
100
AcDbEntity
8
0
100
AcDbCircle
10
73.586835675561815
20
10.279611824426604
30
0
40
1.575
210
0
220
0
230
1
0
CIRCLE
5
146
100
AcDbEntity
8
0
100
AcDbCircle
10
341.5858356755615
20
-3.564388175573372
30
0
40
0.50000000000000255
210
0
220
0
230
1
0
CIRCLE
5
147
100
AcDbEntity
8
0
100
AcDbCircle
10
341.5858356755615
20
-9.3143881755734714
30
0
40
0.5000000000000081
210
0
220
0
230
1
0
CIRCLE
5
148
100
AcDbEntity
8
0
100
AcDbCircle
10
73.586835675561872
20
-76.310188644499533
30
0
40
1.575
210
0
220
0
230
1
0
ENDSEC
0
SECTION
2
OBJECTS
0
DICTIONARY
5
C
100
AcDbDictionary
3
ACAD_GROUP
350
D
3
ACAD_MLINESTYLE
350
17
0
DICTIONARY
5
D
100
AcDbDictionary
0
DICTIONARY
5
1A
330
C
100
AcDbDictionary
0
DICTIONARY
5
17
100
AcDbDictionary
0
ENDSEC
0
EOF
