0
SECTION
2
HEADER
9
$INSUNITS
70
4
9
$ACADVER
1
AC1014
9
$HANDSEED
5
FFFF
0
ENDSEC
0
SECTION
2
TABLES
0
TABLE
2
VPORT
5
8
100
AcDbSymbolTable
0
ENDTAB
0
TABLE
2
LTYPE
5
5
100
AcDbSymbolTable
0
LTYPE
5
14
100
AcDbSymbolTableRecord
100
AcDbLinetypeTableRecord
2
BYBLOCK
70
0
0
LTYPE
5
15
100
AcDbSymbolTableRecord
100
AcDbLinetypeTableRecord
2
BYLAYER
70
0
0
ENDTAB
0
TABLE
2
LAYER
5
2
100
AcDbSymbolTable
70
2
0
LAYER
5
50
100
AcDbSymbolTableRecord
100
AcDbLayerTableRecord
2
0
70
0
6
CONTINUOUS
0
ENDTAB
0
TABLE
2
STYLE
5
3
100
AcDbSymbolTable
70
1
0
STYLE
5
11
100
AcDbSymbolTableRecord
100
AcDbTextStyleTableRecord
2
STANDARD
70
0
0
ENDTAB
0
TABLE
2
VIEW
5
6
100
AcDbSymbolTable
70
0
0
ENDTAB
0
TABLE
2
UCS
5
7
100
AcDbSymbolTable
70
0
0
ENDTAB
0
TABLE
2
APPID
5
9
100
AcDbSymbolTable
70
2
0
APPID
5
12
100
AcDbSymbolTableRecord
100
AcDbRegAppTableRecord
2
ACAD
70
0
0
ENDTAB
0
TABLE
2
DIMSTYLE
5
A
100
AcDbSymbolTable
70
1
0
ENDTAB
0
TABLE
2
BLOCK_RECORD
5
1
100
AcDbSymbolTable
70
1
0
BLOCK_RECORD
5
1F
100
AcDbSymbolTableRecord
100
AcDbBlockTableRecord
2
*MODEL_SPACE
0
BLOCK_RECORD
5
1B
100
AcDbSymbolTableRecord
100
AcDbBlockTableRecord
2
*PAPER_SPACE
0
ENDTAB
0
ENDSEC
0
SECTION
2
BLOCKS
0
BLOCK
5
20
100
AcDbEntity
100
AcDbBlockBegin
2
*MODEL_SPACE
0
ENDBLK
5
21
100
AcDbEntity
100
AcDbBlockEnd
0
BLOCK
5
1C
100
AcDbEntity
100
AcDbBlockBegin
2
*PAPER_SPACE
0
ENDBLK
5
1D
100
AcDbEntity
100
AcDbBlockEnd
0
ENDSEC
0
SECTION
2
ENTITIES
0
LWPOLYLINE
5
100
100
AcDbEntity
8
0
100
AcDbPolyline
90
20
70
1
43
0.0
10
62.121733258958834
20
37.131811355500474
10
61.586835675561829
20
37.13181135550046
42
-0.41421356237309503
10
55.586835675561829
20
43.131811355500467
10
55.586835675561844
20
45.138556849569831
10
55.586835675561787
20
126.44161182442637
42
-0.41421356237309986
10
61.586835675561815
20
132.44161182442662
10
342.1938356755615
20
132.44161182442653
42
-0.41421356237309503
10
348.19383567556167
20
126.44161182442637
10
348.1938356755615
20
42.980001355500349
42
-0.41421356237308116
10
342.1938356755615
20
36.980001355500335
10
318.0780627941229
20
36.980001355500335
42
0.061511510998473143
10
308.34723498839929
20
35.778338822659649
10
280.93804328562015
20
28.903968884013558
42
-0.06151151099847553
10
271.20721547989803
20
27.702306351170321
10
211.18266966125015
20
27.702306351170321
10
126.67092296386423
20
27.702306351170325
42
-0.066919240618725589
10
116.10662237849802
20
29.122576529124814
10
92.044407006168271
20
35.711541177546351
42
0.066919240618730225
10
81.480106420803864
20
37.131811355500503
10
64.999999999999986
20
37.131811355500474
0
LWPOLYLINE
5
101
100
AcDbEntity
8
0
100
AcDbPolyline
90
32
70
1
43
0.0
10
341.74383567556185
20
67.406401355500449
10
341.74383567556168
20
85.282101355500401
42
0.41421356237309503
10
340.60633567556175
20
86.419601355500504
10
339.07683567556199
20
86.419601355500504
10
339.07683567556199
20
104.52360135550023
42
0.41421356237302187
10
337.93933567556189
20
105.66110135550019
10
336.40983567556185
20
105.66110135550019
10
336.40983567556191
20
123.7638013555005
42
0.41421356237311335
10
335.27233567556203
20
124.90130135550032
10
278.88191148251786
20
124.90130135550032
42
0.034999104755910622
10
278.72324956204511
20
124.89018168424892
10
201.4747633160772
20
114.00896077815079
42
0.4141357481619718
10
200.5070027939957
20
112.72421779310321
10
202.99550632931351
20
95.023667069416291
42
0.41419851103849109
10
204.28023354252309
20
94.055599146590296
10
207.8686755255201
20
94.559906731679177
10
210.36892857726639
20
76.784902589416831
10
202.06204523301085
20
75.616555720823214
42
0.41420662318541263
10
201.09378017964775
20
74.331682126389722
10
206.23330760541052
20
37.766895710273658
42
0.41430598681781133
10
207.51873076842728
20
36.798327741465172
10
272.38020161536059
20
45.91501501273207
42
0.41418548636456376
10
273.34831198142922
20
47.199609662075588
10
270.85598899997331
20
64.93812376377025
10
280.32469900656361
20
66.268901355500418
10
290.92183567556185
20
66.268901355500418
10
290.92183567556185
20
48.167501355500448
42
0.41421356237303103
10
292.0593356755619
20
47.030001355500346
10
338.50733567556182
20
47.030001355500204
42
0.41421356237304013
10
339.64483567556169
20
48.167501355500448
10
339.64483567556181
20
66.268901355500418
10
340.60633567556181
20
66.268901355500418
42
0.41421356237309503
0
LWPOLYLINE
5
102
100
AcDbEntity
8
0
100
AcDbPolyline
90
31
70
1
43
0.0
10
188.14007099162569
20
37.76614046919557
10
193.27703527493767
20
74.330703498848251
42
0.41411690813499397
10
192.3102745380925
20
75.615040562075848
10
184.00593533323629
20
76.783274689958759
10
186.49851499487914
20
94.521920021447471
42
0.41420498351682505
10
185.53039732885989
20
95.806632002480612
10
181.95376205118438
20
96.309316571118302
10
184.43666413113422
20
114.06509471507519
42
0.41407102073682872
10
183.46820438083392
20
115.34908799549562
10
109.03777607485765
20
125.79409825765237
42
0.3550011273746711
10
107.80950286616729
20
125.05311135550052
10
68.699335675561812
20
125.05311135550048
42
0.41421356237314766
10
67.561835675561809
20
123.91561135550042
10
67.561835675561809
20
105.81291135550032
10
66.126335675561862
20
105.81291135550033
42
0.41421356237317508
10
64.988835675561859
20
104.67541135550022
10
64.988835675561845
20
86.571411355500416
10
63.174335675561828
20
86.571411355500459
42
0.41421356237311102
10
62.036835675561846
20
85.433911355500527
10
62.036835675561839
20
67.558211355500504
42
0.41421356237312018
10
63.174335675561828
20
66.420711355500472
10
64.13283567556185
20
66.420711355500472
10
64.132835675561907
20
48.319311355500432
42
0.41421356237307905
10
65.27033567556181
20
47.181811355500471
10
111.71833567556179
20
47.181811355500471
42
0.41421356237310875
10
112.85583567556181
20
48.319311355500432
10
112.85583567556181
20
66.435573040808507
10
128.23495956686389
20
64.273753901703941
10
125.74120619586024
20
46.535850611081983
42
0.41423679960349141
10
126.70932490635658
20
45.250973696959406
10
186.85588028519004
20
36.79838015358812
42
0.41398504629992239
0
CIRCLE
5
103
100
AcDbEntity
8
0
100
AcDbCircle
10
341.5858356755615
20
120.64761182442652
30
0
40
0.49999999999999983
210
0
220
0
230
1
0
CIRCLE
5
104
100
AcDbEntity
8
0
100
AcDbCircle
10
198.60683567556183
20
128.74161182442657
30
0
40
1.575
210
0
220
0
230
1
0
CIRCLE
5
105
100
AcDbEntity
8
0
100
AcDbCircle
10
341.5858356755615
20
109.14761182442653
30
0
40
0.5000000000000081
210
0
220
0
230
1
0
CIRCLE
5
106
100
AcDbEntity
8
0
100
AcDbCircle
10
330.19383567556162
20
128.74161182442654
30
0
40
1.575
210
0
220
0
230
1
0
CIRCLE
5
107
100
AcDbEntity
8
0
100
AcDbCircle
10
341.5858356755615
20
114.89761182442663
30
0
40
0.50000000000000255
210
0
220
0
230
1
0
CIRCLE
5
108
100
AcDbEntity
8
0
100
AcDbCircle
10
73.586835675561815
20
128.7416118244266
30
0
40
1.575
210
0
220
0
230
1
0
CIRCLE
5
109
100
AcDbEntity
8
0
100
AcDbCircle
10
73.586835675561872
20
42.15181135550047
30
0
40
1.575
210
0
220
0
230
1
0
CIRCLE
5
110
100
AcDbEntity
8
0
100
AcDbCircle
10
197.18684423212508
20
32.722387453238021
30
0
40
1.5750000000000144
210
0
220
0
230
1
0
CIRCLE
5
111
100
AcDbEntity
8
0
100
AcDbCircle
10
330.00000491738319
20
42.00000062584877
30
0
40
1.575
210
0
220
0
230
1
0
LWPOLYLINE
5
112
100
AcDbEntity
8
0
100
AcDbPolyline
90
20
70
1
43
0.0
10
62.121733258958834
20
147.13181135550047
10
61.586835675561829
20
147.13181135550045
42
-0.41421356237309503
10
55.586835675561829
20
153.13181135550047
10
55.586835675561844
20
155.13855684956982
10
55.586835675561787
20
236.44161182442639
42
-0.41421356237309986
10
61.586835675561815
20
242.44161182442662
10
342.1938356755615
20
242.44161182442653
42
-0.41421356237309503
10
348.19383567556167
20
236.44161182442639
10
348.1938356755615
20
152.98000135550035
42
-0.41421356237308116
10
342.1938356755615
20
146.98000135550035
10
318.0780627941229
20
146.98000135550035
42
0.061511510998473025
10
308.34723498839929
20
145.77833882265966
10
280.9380432856201
20
138.90396888401355
42
-0.061511510998475308
10
271.20721547989803
20
137.70230635117034
10
211.18266966125015
20
137.70230635117034
10
126.67092296386426
20
137.70230635117034
42
-0.066919240618725701
10
116.10662237849802
20
139.12257652912481
10
92.044407006168271
20
145.71154117754634
42
0.066919240618730225
10
81.480106420803864
20
147.1318113555005
10
64.999999999999986
20
147.13181135550047
0
LWPOLYLINE
5
113
100
AcDbEntity
8
0
100
AcDbPolyline
90
32
70
1
43
0.0
10
341.74383567556185
20
177.40640135550046
10
341.74383567556168
20
195.2821013555004
42
0.41421356237309503
10
340.60633567556175
20
196.4196013555005
10
339.07683567556199
20
196.4196013555005
10
339.07683567556199
20
214.52360135550023
42
0.41421356237302187
10
337.93933567556189
20
215.66110135550019
10
336.40983567556185
20
215.66110135550019
10
336.40983567556191
20
233.7638013555005
42
0.41421356237311335
10
335.27233567556203
20
234.90130135550032
10
278.88191148251786
20
234.90130135550032
42
0.034999104755910622
10
278.72324956204511
20
234.89018168424892
10
201.4747633160772
20
224.00896077815079
42
0.4141357481619718
10
200.5070027939957
20
222.72421779310321
10
202.99550632931351
20
205.02366706941629
42
0.41419851103849109
10
204.28023354252309
20
204.05559914659028
10
207.8686755255201
20
204.55990673167918
10
210.36892857726639
20
186.78490258941682
10
202.06204523301085
20
185.61655572082321
42
0.41420662318541457
10
201.09378017964775
20
184.33168212638972
10
206.23330760541052
20
147.76689571027367
42
0.41430598681780989
10
207.51873076842728
20
146.79832774146516
10
272.38020161536059
20
155.91501501273206
42
0.41418548636456409
10
273.34831198142922
20
157.1996096620756
10
270.85598899997331
20
174.93812376377025
10
280.32469900656361
20
176.26890135550042
10
290.92183567556185
20
176.26890135550042
10
290.92183567556185
20
158.16750135550046
42
0.41421356237303103
10
292.0593356755619
20
157.03000135550036
10
338.50733567556182
20
157.03000135550019
42
0.41421356237304013
10
339.64483567556169
20
158.16750135550046
10
339.64483567556181
20
176.26890135550042
10
340.60633567556181
20
176.26890135550042
42
0.41421356237309503
0
LWPOLYLINE
5
114
100
AcDbEntity
8
0
100
AcDbPolyline
90
31
70
1
43
0.0
10
188.14007099162569
20
147.76614046919556
10
193.27703527493767
20
184.33070349884827
42
0.4141169081349943
10
192.3102745380925
20
185.61504056207585
10
184.00593533323629
20
186.78327468995874
10
186.49851499487914
20
204.5219200214475
42
0.41420498351682117
10
185.53039732885989
20
205.80663200248063
10
181.95376205118438
20
206.3093165711183
10
184.43666413113422
20
224.06509471507519
42
0.41407102073682872
10
183.46820438083392
20
225.34908799549561
10
109.03777607485765
20
235.79409825765237
42
0.3550011273746711
10
107.80950286616729
20
235.0531113555005
10
68.699335675561812
20
235.05311135550048
42
0.41421356237314766
10
67.561835675561809
20
233.9156113555004
10
67.561835675561809
20
215.81291135550032
10
66.126335675561862
20
215.81291135550032
42
0.41421356237317508
10
64.988835675561859
20
214.67541135550022
10
64.988835675561845
20
196.5714113555004
10
63.174335675561828
20
196.57141135550046
42
0.41421356237311102
10
62.036835675561846
20
195.43391135550053
10
62.036835675561839
20
177.5582113555005
42
0.41421356237312018
10
63.174335675561828
20
176.42071135550049
10
64.13283567556185
20
176.42071135550049
10
64.132835675561907
20
158.31931135550042
42
0.41421356237307905
10
65.27033567556181
20
157.18181135550049
10
111.71833567556179
20
157.18181135550049
42
0.41421356237310875
10
112.85583567556181
20
158.31931135550042
10
112.85583567556181
20
176.43557304080849
10
128.23495956686389
20
174.27375390170394
10
125.74120619586024
20
156.53585061108197
42
0.41423679960348914
10
126.70932490635658
20
155.25097369695939
10
186.85588028519004
20
146.79838015358811
42
0.41398504629992156
0
CIRCLE
5
115
100
AcDbEntity
8
0
100
AcDbCircle
10
341.5858356755615
20
230.64761182442652
30
0
40
0.49999999999999983
210
0
220
0
230
1
0
CIRCLE
5
116
100
AcDbEntity
8
0
100
AcDbCircle
10
198.60683567556183
20
238.74161182442657
30
0
40
1.575
210
0
220
0
230
1
0
CIRCLE
5
117
100
AcDbEntity
8
0
100
AcDbCircle
10
341.5858356755615
20
219.14761182442652
30
0
40
0.5000000000000081
210
0
220
0
230
1
0
CIRCLE
5
118
100
AcDbEntity
8
0
100
AcDbCircle
10
330.19383567556162
20
238.74161182442657
30
0
40
1.575
210
0
220
0
230
1
0
CIRCLE
5
119
100
AcDbEntity
8
0
100
AcDbCircle
10
341.5858356755615
20
224.89761182442663
30
0
40
0.50000000000000255
210
0
220
0
230
1
0
CIRCLE
5
120
100
AcDbEntity
8
0
100
AcDbCircle
10
73.586835675561815
20
238.74161182442663
30
0
40
1.575
210
0
220
0
230
1
0
CIRCLE
5
121
100
AcDbEntity
8
0
100
AcDbCircle
10
73.586835675561872
20
152.15181135550046
30
0
40
1.575
210
0
220
0
230
1
0
CIRCLE
5
122
100
AcDbEntity
8
0
100
AcDbCircle
10
197.18684423212508
20
142.72238745323801
30
0
40
1.5750000000000144
210
0
220
0
230
1
0
CIRCLE
5
123
100
AcDbEntity
8
0
100
AcDbCircle
10
330.00000491738319
20
152.00000062584877
30
0
40
1.575
210
0
220
0
230
1
0
LWPOLYLINE
5
124
100
AcDbEntity
8
0
100
AcDbPolyline
90
20
70
1
43
0.0
10
348.19383567556167
20
346.44161182442639
10
348.19383567546885
20
262.98000135550035
42
-0.41421432208457953
10
342.19383257497185
20
256.97998889326527
10
318.0780627941229
20
256.98000135550035
42
0.061511510998473025
10
308.34723498839929
20
255.77833882265963
10
280.9380432856201
20
248.90396888401355
42
-0.061511510998475419
10
271.20721547989803
20
247.70230635117031
10
211.18266966125015
20
247.70230635117031
10
126.67092296386421
20
247.70230635117031
42
-0.066919240618725478
10
116.10662237849802
20
249.12257652912479
10
92.044407006168271
20
255.71154117754634
42
0.066919240618730017
10
81.480106420803878
20
257.13181135550047
10
64.999999999999986
20
257.13181135550047
10
62.121733258958834
20
257.13181135550047
10
61.586835675561829
20
257.13181135550042
42
-0.41421356237309503
10
55.586835675561829
20
263.13181135550047
10
55.586835675561844
20
265.13855684956985
10
55.586835675561787
20
346.44161182442639
42
-0.41421356237309986
10
61.586835675561815
20
352.44161182442662
10
342.1938356755615
20
352.44161182442656
42
-0.41421356237309503
0
CIRCLE
5
125
100
AcDbEntity
8
0
100
AcDbCircle
10
73.586835675561815
20
348.74161182442663
30
0
40
1.575
210
0
220
0
230
1
0
CIRCLE
5
126
100
AcDbEntity
8
0
100
AcDbCircle
10
341.5858356755615
20
329.14761182442652
30
0
40
0.5000000000000081
210
0
220
0
230
1
0
CIRCLE
5
127
100
AcDbEntity
8
0
100
AcDbCircle
10
330.19383567556162
20
348.74161182442657
30
0
40
1.575
210
0
220
0
230
1
0
CIRCLE
5
128
100
AcDbEntity
8
0
100
AcDbCircle
10
198.60683567556183
20
348.74161182442657
30
0
40
1.575
210
0
220
0
230
1
0
CIRCLE
5
129
100
AcDbEntity
8
0
100
AcDbCircle
10
341.5858356755615
20
340.64761182442652
30
0
40
0.49999999999999983
210
0
220
0
230
1
0
CIRCLE
5
130
100
AcDbEntity
8
0
100
AcDbCircle
10
341.5858356755615
20
334.89761182442663
30
0
40
0.50000000000000255
210
0
220
0
230
1
0
CIRCLE
5
131
100
AcDbEntity
8
0
100
AcDbCircle
10
330.00000491738319
20
262.00000062584877
30
0
40
1.575
210
0
220
0
230
1
0
CIRCLE
5
132
100
AcDbEntity
8
0
100
AcDbCircle
10
73.586835675561872
20
262.15181135550046
30
0
40
1.575
210
0
220
0
230
1
0
CIRCLE
5
133
100
AcDbEntity
8
0
100
AcDbCircle
10
197.18684423212508
20
252.72238745323801
30
0
40
1.5750000000000144
210
0
220
-0
230
1
0
CIRCLE
5
134
100
AcDbEntity
8
0
100
AcDbCircle
10
198.79999999999998
20
272.44999999999999
30
0
40
1.162500000000015
210
0
220
0
230
1
0
LWPOLYLINE
5
135
100
AcDbEntity
8
0
100
AcDbPolyline
90
77
70
1
43
0.0
10
80.664999999999992
20
462.44161182442662
10
61.586835675561822
20
462.44161182442662
42
0.41421356237309986
10
55.586835675561787
20
456.44161182442639
10
55.586835675561844
20
375.13855684956985
10
55.586835675561829
20
373.13181135550047
42
0.41421356237309503
10
61.586835675561829
20
367.13181135550042
10
62.121733258958834
20
367.13181135550042
10
64.999999999999986
20
367.13181135550042
10
81.48010642080385
20
367.13181135550053
42
-0.066919251560036253
10
92.044407006168271
20
365.71154117754639
10
116.10662237849802
20
359.12257652912479
42
0.066919240618725465
10
126.67092296386421
20
357.70230635117031
10
211.18266966125015
20
357.70230635117031
10
271.20721547989803
20
357.70230635117031
42
0.061511510998475204
10
280.9380432856201
20
358.90396888401358
10
308.34723498839901
20
365.77833882266077
42
-0.061511422653440229
10
318.0780627941229
20
366.98000135550035
10
342.1938356755615
20
366.98000135550035
42
0.41421356237308116
10
348.1938356755615
20
372.98000135550035
10
348.19383567556167
20
456.44161182442639
42
0.41421356237309503
10
342.1938356755615
20
462.44161182442656
10
93.684999999999988
20
462.44161182442662
10
93.684999999999988
20
461.00000195205212
10
93.684999999999988
20
457.00000189244747
10
93.684999999999988
20
456.33499999999998
10
95.000001415610313
20
456.33499999999998
10
168.00000250339508
20
456.33499999999998
10
193.51209091500994
20
456.33499999999998
42
-0.24487259035090625
10
194.33161974172253
20
455.90803795876633
42
0.5209847748081885
10
202.80987815951983
20
455.90803795876633
42
-0.24487259035090625
10
203.62940698623245
20
456.33499999999998
10
280.00000417232513
20
456.33499999999998
10
326.49982178629557
20
456.33499999999998
42
-0.26713754931088052
10
327.36432836395005
20
455.83762150490418
42
0.57533222759881253
10
334.7961938372635
20
455.83762150490418
42
-0.26713754931088052
10
335.66070041491798
20
456.33499999999998
10
344.05000000000001
20
456.33499999999998
10
343.89383567556166
20
456.33499999999998
42
-0.41421356237311585
10
344.89383567556172
20
455.33499999999998
10
344.89383567556166
20
453.69972564591603
10
344.89383567556166
20
436.3162947908354
10
344.89383567556166
20
433.56499999999994
42
-0.41421356237311585
10
343.89383567556166
20
432.56500000000005
10
341.37500000000023
20
432.56499999999994
42
0.41421356237313667
10
340.37500000000023
20
431.56499999999994
10
340.37500000000011
20
397.0000009983778
10
340.37500000000011
20
396.26890135550042
10
340.375
20
378.16750135550046
10
340.375
20
377.375
42
-0.41421356237309503
10
339.375
20
376.37499999999994
10
335.000004991889
20
376.37499999999994
10
291.00000433623791
20
376.37499999999994
10
276.375
20
376.37499999999994
42
0.4142135623730846
10
275.375
20
375.37499999999994
10
275.375
20
368.37500004470348
10
275.37499999999994
20
366.375
42
-0.41421356237307422
10
274.375
20
365.375
10
212.00000315904617
20
365.375
10
211.00000314414501
20
365.375
10
129.00000192224979
20
365.375
10
125.72499999999999
20
365.375
42
-0.41421356237309503
10
124.72499999999999
20
366.375
10
124.72499999999999
20
367.00000055134296
10
124.72499999999999
20
375.37499999999994
42
0.41421356237309503
10
123.72500000000001
20
376.37499999999994
10
111.71833567556179
20
376.37499999999994
10
67.22499999999998
20
376.37499999999994
42
-0.41421356237309503
10
66.224999999999994
20
377.375
10
66.224999999999994
20
382.37500008940691
10
66.224999999999994
20
452.37500113248819
10
66.224999999999966
20
452.33499999999998
42
-0.41421356237309764
10
67.22499999999998
20
453.33500000000004
10
68.000001013278961
20
453.33500000000004
10
76.000001132488251
20
453.33500000000004
10
80.664999999999992
20
453.33500000000004
10
80.664999999999992
20
454.00000184774399
10
80.664999999999992
20
460.00000193715096
0
CIRCLE
5
136
100
AcDbEntity
8
0
100
AcDbCircle
10
197.18684423212508
20
362.72238745323807
30
0
40
1.5750000000000144
210
0
220
-0
230
1
0
CIRCLE
5
137
100
AcDbEntity
8
0
100
AcDbCircle
10
331.04999999999995
20
458.74161182442657
30
0
40
1.5750000000000091
210
0
220
0
230
1
0
CIRCLE
5
138
100
AcDbEntity
8
0
100
AcDbCircle
10
198.60683567556183
20
458.74161182442657
30
0
40
1.575
210
0
220
0
230
1
0
CIRCLE
5
139
100
AcDbEntity
8
0
100
AcDbCircle
10
73.586835675561815
20
458.74161182442663
30
0
40
1.575
210
0
220
0
230
1
0
CIRCLE
5
140
100
AcDbEntity
8
0
100
AcDbCircle
10
73.586835675561872
20
372.15181135550046
30
0
40
1.575
210
0
220
0
230
1
0
CIRCLE
5
141
100
AcDbEntity
8
0
100
AcDbCircle
10
330.00000491738319
20
372.00000062584877
30
0
40
1.575
210
0
220
0
230
1
0
LWPOLYLINE
5
142
100
AcDbEntity
8
0
100
AcDbPolyline
90
77
70
1
43
0.0
10
80.664999999999992
20
572.44161182442656
10
61.586835675561822
20
572.44161182442656
42
0.41421356237309986
10
55.586835675561787
20
566.44161182442633
10
55.586835675561844
20
485.13855684956985
10
55.586835675561829
20
483.13181135550047
42
0.41421356237309503
10
61.586835675561829
20
477.13181135550042
10
62.121733258958834
20
477.13181135550042
10
64.999999999999986
20
477.13181135550042
10
81.48010642080385
20
477.13181135550053
42
-0.066919251560036253
10
92.044407006168271
20
475.71154117754639
10
116.10662237849802
20
469.12257652912479
42
0.066919240618725465
10
126.67092296386421
20
467.70230635117031
10
211.18266966125015
20
467.70230635117031
10
271.20721547989803
20
467.70230635117031
42
0.061511510998475204
10
280.9380432856201
20
468.90396888401358
10
308.34723498839901
20
475.77833882266077
42
-0.061511422653440229
10
318.0780627941229
20
476.98000135550035
10
342.1938356755615
20
476.98000135550035
42
0.41421356237308116
10
348.1938356755615
20
482.98000135550035
10
348.19383567556167
20
566.44161182442633
42
0.41421356237309503
10
342.1938356755615
20
572.44161182442656
10
93.684999999999988
20
572.44161182442656
10
93.684999999999988
20
571.00000195205212
10
93.684999999999988
20
567.00000189244747
10
93.684999999999988
20
566.33500000000004
10
95.000001415610313
20
566.33500000000004
10
168.00000250339508
20
566.33500000000004
10
193.51209091500994
20
566.33500000000004
42
-0.24487259035090625
10
194.33161974172253
20
565.90803795876627
42
0.5209847748081885
10
202.80987815951983
20
565.90803795876627
42
-0.24487259035090625
10
203.62940698623245
20
566.33500000000004
10
280.00000417232513
20
566.33500000000004
10
326.49982178629557
20
566.33500000000004
42
-0.26713754931088052
10
327.36432836395005
20
565.83762150490418
42
0.57533222759881253
10
334.7961938372635
20
565.83762150490418
42
-0.26713754931088052
10
335.66070041491798
20
566.33500000000004
10
344.05000000000001
20
566.33500000000004
10
343.89383567556166
20
566.33500000000004
42
-0.41421356237311585
10
344.89383567556172
20
565.33499999999992
10
344.89383567556166
20
563.69972564591603
10
344.89383567556166
20
546.3162947908354
10
344.89383567556166
20
543.56499999999994
42
-0.41421356237311585
10
343.89383567556166
20
542.56500000000005
10
341.37500000000023
20
542.56499999999994
42
0.41421356237313667
10
340.37500000000023
20
541.56499999999994
10
340.37500000000011
20
507.0000009983778
10
340.37500000000011
20
506.26890135550042
10
340.375
20
488.16750135550046
10
340.375
20
487.375
42
-0.41421356237309503
10
339.375
20
486.37499999999994
10
335.000004991889
20
486.37499999999994
10
291.00000433623791
20
486.37499999999994
10
276.375
20
486.37499999999994
42
0.4142135623730846
10
275.375
20
485.37499999999994
10
275.375
20
478.37500004470348
10
275.37499999999994
20
476.375
42
-0.41421356237307422
10
274.375
20
475.375
10
212.00000315904617
20
475.375
10
211.00000314414501
20
475.375
10
129.00000192224979
20
475.375
10
125.72499999999999
20
475.375
42
-0.41421356237309503
10
124.72499999999999
20
476.375
10
124.72499999999999
20
477.00000055134296
10
124.72499999999999
20
485.37499999999994
42
0.41421356237309503
10
123.72500000000001
20
486.37499999999994
10
111.71833567556179
20
486.37499999999994
10
67.22499999999998
20
486.37499999999994
42
-0.41421356237309503
10
66.224999999999994
20
487.375
10
66.224999999999994
20
492.37500008940691
10
66.224999999999994
20
562.37500113248825
10
66.224999999999966
20
562.33500000000004
42
-0.41421356237309764
10
67.22499999999998
20
563.33500000000004
10
68.000001013278961
20
563.33500000000004
10
76.000001132488251
20
563.33500000000004
10
80.664999999999992
20
563.33500000000004
10
80.664999999999992
20
564.00000184774399
10
80.664999999999992
20
570.00000193715096
0
CIRCLE
5
143
100
AcDbEntity
8
0
100
AcDbCircle
10
197.18684423212508
20
472.72238745323807
30
0
40
1.5750000000000144
210
0
220
-0
230
1
0
CIRCLE
5
144
100
AcDbEntity
8
0
100
AcDbCircle
10
331.04999999999995
20
568.74161182442651
30
0
40
1.5750000000000091
210
0
220
0
230
1
0
CIRCLE
5
145
100
AcDbEntity
8
0
100
AcDbCircle
10
198.60683567556183
20
568.74161182442651
30
0
40
1.575
210
0
220
0
230
1
0
CIRCLE
5
146
100
AcDbEntity
8
0
100
AcDbCircle
10
73.586835675561815
20
568.74161182442663
30
0
40
1.575
210
0
220
0
230
1
0
CIRCLE
5
147
100
AcDbEntity
8
0
100
AcDbCircle
10
73.586835675561872
20
482.15181135550046
30
0
40
1.575
210
0
220
0
230
1
0
CIRCLE
5
148
100
AcDbEntity
8
0
100
AcDbCircle
10
330.00000491738319
20
482.00000062584877
30
0
40
1.575
210
0
220
0
230
1
0
ENDSEC
0
SECTION
2
OBJECTS
0
DICTIONARY
5
C
100
AcDbDictionary
3
ACAD_GROUP
350
D
3
ACAD_MLINESTYLE
350
17
0
DICTIONARY
5
D
100
AcDbDictionary
0
DICTIONARY
5
1A
330
C
100
AcDbDictionary
0
DICTIONARY
5
17
100
AcDbDictionary
0
ENDSEC
0
EOF
