0
SECTION
2
HEADER
9
$INSUNITS
70
4
9
$ACADVER
1
AC1014
9
$HANDSEED
5
FFFF
0
ENDSEC
0
SECTION
2
TABLES
0
TABLE
2
VPORT
5
8
100
AcDbSymbolTable
0
ENDTAB
0
TABLE
2
LTYPE
5
5
100
AcDbSymbolTable
0
LTYPE
5
14
100
AcDbSymbolTableRecord
100
AcDbLinetypeTableRecord
2
BYBLOCK
70
0
0
LTYPE
5
15
100
AcDbSymbolTableRecord
100
AcDbLinetypeTableRecord
2
BYLAYER
70
0
0
ENDTAB
0
TABLE
2
LAYER
5
2
100
AcDbSymbolTable
70
2
0
LAYER
5
50
100
AcDbSymbolTableRecord
100
AcDbLayerTableRecord
2
0
70
0
6
CONTINUOUS
0
ENDTAB
0
TABLE
2
STYLE
5
3
100
AcDbSymbolTable
70
1
0
STYLE
5
11
100
AcDbSymbolTableRecord
100
AcDbTextStyleTableRecord
2
STANDARD
70
0
0
ENDTAB
0
TABLE
2
VIEW
5
6
100
AcDbSymbolTable
70
0
0
ENDTAB
0
TABLE
2
UCS
5
7
100
AcDbSymbolTable
70
0
0
ENDTAB
0
TABLE
2
APPID
5
9
100
AcDbSymbolTable
70
2
0
APPID
5
12
100
AcDbSymbolTableRecord
100
AcDbRegAppTableRecord
2
ACAD
70
0
0
ENDTAB
0
TABLE
2
DIMSTYLE
5
A
100
AcDbSymbolTable
70
1
0
ENDTAB
0
TABLE
2
BLOCK_RECORD
5
1
100
AcDbSymbolTable
70
1
0
BLOCK_RECORD
5
1F
100
AcDbSymbolTableRecord
100
AcDbBlockTableRecord
2
*MODEL_SPACE
0
BLOCK_RECORD
5
1B
100
AcDbSymbolTableRecord
100
AcDbBlockTableRecord
2
*PAPER_SPACE
0
ENDTAB
0
ENDSEC
0
SECTION
2
BLOCKS
0
BLOCK
5
20
100
AcDbEntity
100
AcDbBlockBegin
2
*MODEL_SPACE
0
ENDBLK
5
21
100
AcDbEntity
100
AcDbBlockEnd
0
BLOCK
5
1C
100
AcDbEntity
100
AcDbBlockBegin
2
*PAPER_SPACE
0
ENDBLK
5
1D
100
AcDbEntity
100
AcDbBlockEnd
0
ENDSEC
0
SECTION
2
ENTITIES
0
LWPOLYLINE
5
100
100
AcDbEntity
8
0
100
AcDbPolyline
90
16
70
1
43
0.0
10
314.51624545642642
20
109.79215808189454
42
-0.13815573891789582
10
314.28283567556184
20
110.62076892447476
10
314.28283567556196
20
119.03117829828912
42
-0.13815573891780125
10
314.5162454564267
20
119.85978914086922
42
0.78781039474447234
10
312.31640417533083
20
122.05970521959843
42
-0.13814707648488916
10
311.48783937337919
20
121.82632361138201
10
303.07783197774484
20
121.82632361138202
42
-0.13814707648489027
10
302.24926717579319
20
122.05970521959843
42
0.78781039474455317
10
300.04942589469755
20
119.85978914086925
42
-0.13815573891796631
10
300.28283567556196
20
119.03117829828912
10
300.28283567556196
20
110.6207689244751
42
-0.1381557389179206
10
300.04942589469738
20
109.79215808189497
42
0.787810394744483
10
302.24926717579308
20
107.59224200316558
42
-0.13814707648493227
10
303.07783197774449
20
107.82562361138201
10
311.48783937337919
20
107.82562361138201
42
-0.13814707648488916
10
312.31640417533083
20
107.59224200316558
42
0.78781039474452885
0
LWPOLYLINE
5
101
100
AcDbEntity
8
0
100
AcDbPolyline
90
16
70
1
43
0.0
10
161.55200557032998
20
96.071475051519542
10
153.22348980157722
20
97.242116906580833
42
-0.13813916284787151
10
152.43551297419566
20
97.588523335008489
42
0.78779933497265975
10
149.95091999130634
20
95.716180815400818
42
-0.13816083751084959
10
150.06672209924886
20
94.863116587888044
10
148.89593799645976
20
86.534570567815933
42
-0.13815613709404848
10
148.54945153986688
20
85.746517713422492
42
0.78780987172934835
10
150.42162631741118
20
83.261786136455214
42
-0.13814654518649616
10
151.2746089398303
20
83.377552132812667
10
159.60213794755441
20
82.206904471393742
42
-0.1381421109871222
10
160.39012306278065
20
81.860472959032379
42
0.78776345229462152
10
162.87482598317655
20
83.732614454479204
42
-0.13814875598829576
10
162.759113329808
20
84.585617696028066
10
163.93051139390826
20
92.914318003476922
42
-0.13816821858333411
10
164.27710065833304
20
93.702404806591701
42
0.7878689225141976
10
162.40500307412077
20
96.187262876071117
42
-0.13814949331751541
0
LWPOLYLINE
5
102
100
AcDbEntity
8
0
100
AcDbPolyline
90
16
70
1
43
0.0
10
236.58400746714744
20
101.46542028735212
42
0.78779045841262718
10
238.45632133566841
20
103.95002458573327
42
-0.13814913882765936
10
238.10990736794093
20
104.73806345808623
10
236.93977612947918
20
113.06539732457496
42
-0.13815421321150084
10
237.05561026821127
20
113.91841710850832
42
0.78783033148787818
10
234.57098047781329
20
115.79075839227767
42
-0.1381536765958776
10
233.78292992252071
20
115.44430337267283
10
225.45565498813161
20
114.27393170116136
42
-0.13814860217955671
10
224.60266388397642
20
114.38972693541173
42
0.78779045841267248
10
222.73035001545537
20
111.90512263703097
42
-0.13814913882747348
10
223.07676398318293
20
111.11708376467777
10
224.24689522164459
20
102.7897498981888
42
-0.13815421321161717
10
224.13106108291245
20
101.93673011425571
42
0.78783033148779757
10
226.61569087331046
20
100.06438883048634
42
-0.13815367659609573
10
227.4037414286031
20
100.41084385009111
10
235.73101636299216
20
101.5812155216025
42
-0.13814860217962391
0
LWPOLYLINE
5
103
100
AcDbEntity
8
0
100
AcDbPolyline
90
16
70
1
43
0.0
10
123.82179769798681
20
101.37385279581042
10
115.49454203917898
20
102.54356100791421
42
-0.13814019545915893
10
114.70652938551864
20
102.88990132289213
42
0.78772921992159817
10
112.22198538083192
20
101.01760153274978
42
-0.13814195788120961
10
112.3377287792444
20
100.16464360915666
10
111.16699491653924
20
91.837295937495014
42
-0.13816381511593018
10
110.82046707894099
20
91.049210973163213
42
0.78784537478757488
10
112.69266099414928
20
88.564452728928529
42
-0.13814790351653389
10
113.5456469536288
20
88.680254709608846
10
121.87395539446952
20
87.509822210608831
42
-0.13815195425831567
10
122.66200110839108
20
87.163381846205141
42
0.78783100654982885
10
125.14659856601273
20
89.035767072085264
42
-0.13815610736723394
10
125.03075040151597
20
89.888796416091282
10
126.20093636750289
20
98.217180538081138
42
-0.13814966567035067
10
126.5473438060213
20
99.00522573222861
42
0.78783598187565229
10
124.67484300524981
20
101.48974184692423
42
-0.13815966228195156
0
LWPOLYLINE
5
104
100
AcDbEntity
8
0
100
AcDbPolyline
90
16
70
1
43
0.0
10
143.53976542360041
20
98.838487639270653
42
-0.13816468454631017
10
142.6866961741629
20
98.722551073280556
10
134.35755579261081
20
99.892175041753831
42
-0.13814006523347039
10
133.56952953542648
20
100.23848246223396
42
0.78779754769853183
10
131.08517086944391
20
98.36583179016489
42
-0.13815948021173416
10
131.20107841924178
20
97.512790098239719
10
130.03154967755322
20
89.185469143486358
42
-0.13814140074068476
10
129.68522209595756
20
88.397442997193195
42
0.78774231019554675
10
131.55761275080326
20
85.912952310057463
42
-0.13814408468156575
10
132.41057803315209
20
86.028736337377126
10
140.7378108785698
20
84.858370581334867
42
-0.13816066512882808
10
141.52589505221169
20
84.511887883922412
42
0.78779165800633344
10
144.01063700265976
20
86.384020913892272
42
-0.13813738119870514
10
143.89489308245015
20
87.236951065360245
10
145.06571572452339
20
95.565771240333788
42
-0.13816349972065786
10
145.41223134182945
20
96.353859511523595
42
0.78791007000126301
0
LWPOLYLINE
5
105
100
AcDbEntity
8
0
100
AcDbPolyline
90
16
70
1
43
0.0
10
181.74061026821136
20
81.083040114255994
42
-0.13815421321145085
10
181.62477612947893
20
81.936059898188802
10
182.79490916010622
20
90.263406518767397
42
-0.13814839011895422
10
183.14132016282056
20
91.051441789263436
42
0.78779045841247974
10
181.2689989926817
20
93.536040585375247
42
-0.13814935088824981
10
180.41600360896592
20
93.420243493698678
10
172.08874142860299
20
94.590613372672919
42
-0.13815367659594049
10
171.30069087331037
20
94.937068392277808
42
0.78774351634425654
10
168.81592460085099
20
93.065041616256508
42
-0.1381321158321128
10
168.93159513656519
20
92.21213337911604
10
167.760168146051
20
83.883287476559929
42
-0.13817048736459825
10
167.41356911069064
20
83.095190105589282
42
0.78795821921411835
10
169.28596553212941
20
80.610453916710568
42
-0.13816995071259153
10
170.13906487992526
20
80.726403552897182
10
178.46823461445706
20
79.556775462515759
42
-0.13813307664703875
10
179.2562272473188
20
79.210495713493657
42
0.78774939914482045
0
LWPOLYLINE
5
106
100
AcDbEntity
8
0
100
AcDbPolyline
90
16
70
1
43
0.0
10
296.37783567556198
20
61.309076084538354
10
296.37783567556193
20
52.899817682968795
42
-0.1381353206832554
10
296.1444922980931
20
52.071315364531571
42
0.78781039449913459
10
298.34450988019483
20
49.871575595264623
42
-0.13816749463022462
10
299.1731832024056
20
50.105023611381903
10
307.46844930425101
20
50.105023611381903
42
-0.17852820212436857
10
308.49921811739614
20
49.724864451346882
42
0.92308315271701447
10
310.75748264887784
20
51.977623978553524
42
-0.1778986509829904
10
310.37983567556188
20
53.005442981989255
10
310.37983567556205
20
61.309629539795303
42
-0.1381353206833561
10
310.61317905303093
20
62.138131858232306
42
0.78781039449910939
10
308.4131614709292
20
64.337871627499638
42
-0.13816749463017847
10
307.58448814871815
20
64.10442361138206
10
299.17262974714862
20
64.104423611381975
42
-0.13813532068341355
10
298.34412742871172
20
64.337766988850888
42
0.78781039449915291
10
296.14438765944448
20
62.137749406749201
42
-0.13816749463020722
0
LWPOLYLINE
5
107
100
AcDbEntity
8
0
100
AcDbPolyline
90
16
70
1
43
0.0
10
280.99943796910645
20
109.7907139513774
42
0.78781039476325232
10
283.19931130730282
20
107.59082992910167
42
-0.13815078903459987
10
284.0278958415002
20
107.824223611382
10
292.43977550962347
20
107.82422361138205
42
-0.1381507890346208
10
293.26836004382079
20
107.59082992910173
42
0.78781039476338677
10
295.46823338201739
20
109.79071395137738
42
-0.13815202637491619
10
295.23483567556184
20
110.61930506200898
10
295.23483567556184
20
119.03124216075472
42
-0.13815202637503837
10
295.46823338201779
20
119.85983327138652
42
0.78781039476328152
10
293.26836004382108
20
122.05971729366223
42
-0.13815078903460665
10
292.4397755096237
20
121.82632361138192
10
284.0278958415002
20
121.82632361138192
42
-0.13815078903460665
10
283.19931130730282
20
122.0597172936622
42
0.78781039476331438
10
280.9994379691064
20
119.85983327138649
42
-0.13815202637486709
10
281.23283567556211
20
119.03124216075494
10
281.23283567556211
20
110.6193050620092
42
-0.13815202637495091
0
LWPOLYLINE
5
108
100
AcDbEntity
8
0
100
AcDbPolyline
90
16
70
1
43
0.0
10
263.19019332018019
20
119.58222977114134
42
-0.13815559096820146
10
262.33696192685125
20
119.69655700287488
42
0.78784537485208317
10
260.46904658655711
20
117.20858074287929
42
-0.13815612768782098
10
260.81692330650606
20
116.42114067753698
10
262.00225508480963
20
108.09572479591918
42
-0.13814195788119435
10
261.88800538143244
20
107.24256551479118
42
0.78778218239177822
10
264.37598520335831
20
105.3747522104272
42
-0.13815367659590835
10
265.16342791260843
20
105.72258656461781
10
273.4885510872881
20
106.90752462020566
42
-0.13815386863164791
10
274.34177376502367
20
106.79321012641408
42
0.78779045838716188
10
276.20978568265321
20
109.28105039806294
42
-0.13814387236621808
10
275.86201330093388
20
110.06845619695153
10
274.67729004571288
20
118.39381810567841
42
-0.13815421321148558
10
274.79163038095413
20
119.24703940593653
42
0.78782356457792435
10
272.30374655638519
20
121.11504428720662
42
-0.13815195425829574
10
271.51630866283762
20
120.76722459667226
0
LWPOLYLINE
5
109
100
AcDbEntity
8
0
100
AcDbPolyline
90
16
70
1
43
0.0
10
242.52773810033202
20
75.377388463422818
10
243.69792796576658
20
67.048796374449637
42
-0.13815662390377453
10
243.58207597638855
20
66.195764423452943
42
0.78785424831768425
10
246.06673491170818
20
64.323425087368406
42
-0.13815735320673611
10
246.85479580080798
20
64.669911391520827
10
255.18221820896716
20
65.840483998228038
42
-0.13813723794090285
10
256.03514681173942
20
65.724735055380933
42
0.78777804355228698
10
257.90732828445681
20
68.209424745884618
42
-0.13815734304835076
10
257.56087947592272
20
68.997502053044315
10
256.39078314675459
20
77.32440728507288
42
-0.13815369657215701
10
256.5066134599511
20
78.17742446141115
42
0.78776089209113076
10
254.02218601145705
20
80.049927573617026
42
-0.1381365187227587
10
253.23418369760688
20
79.703618540251682
10
244.90685482169039
20
78.534080249736846
42
-0.13815807241917921
10
244.05382106094356
20
78.649983458437973
42
0.78784839813431107
10
242.18131420034524
20
76.165457541681121
42
-0.13815441571754414
0
LWPOLYLINE
5
110
100
AcDbEntity
8
0
100
AcDbPolyline
90
15
70
1
43
0.0
10
72.022425894697221
20
81.529899140869134
42
-0.13815573891781571
10
72.255835675561798
20
80.701288298288915
10
72.255835675561755
20
72.290878924475123
42
-0.13815573891787172
10
72.022425894697278
20
71.462268081894933
42
0.78781039474448888
10
74.22226717579278
20
69.262352003165716
42
-0.13814707648488214
10
75.050831977744508
20
69.495733611382036
10
83.460839373379144
20
69.495733611382022
42
-0.13814707648491936
10
84.28940417533056
20
69.262352003165702
42
0.78781039474439485
10
86.489245456426232
20
71.462268081894933
42
-0.13815573891790103
10
86.255835675561784
20
72.290878924475123
10
86.255835675561755
20
80.701288298288915
42
-0.13815573891780725
10
86.489245456426275
20
81.529899140869176
42
0.88832821521719085
10
83.993150543600194
20
83.496433611382031
10
75.05083197774438
20
83.496433611382031
42
-0.13814707648490182
10
74.222267175792808
20
83.729815219598166
42
0.78781039474454739
0
LWPOLYLINE
5
111
100
AcDbEntity
8
0
100
AcDbPolyline
90
24
70
1
43
0.0
10
239.41134904104061
20
59.218430746914414
42
0.15238236643912395
10
238.47822603410685
20
59.371961633174628
10
236.2541235255643
20
59.059977649701203
42
0.20356626006047387
10
235.19017079074129
20
58.420752208503366
42
-0.20349213363738439
10
234.1266656446854
20
57.781589617389777
10
217.43516325312825
20
55.435358128273805
42
-0.20352501698445802
10
216.23650656546658
20
55.756686914457809
42
0.20343670031831762
10
215.03838316194415
20
56.078090569186436
10
212.81646046692359
20
55.766535855524246
42
0.1526239188539065
10
211.96046798340552
20
55.361226805412912
42
-0.20382937040848353
10
210.79015930043496
20
54.943316145249227
42
0.65469972402625565
10
209.46025080252244
20
52.329233623676963
42
-0.13815140770481441
10
209.80666595679097
20
51.541180408151739
10
210.97692833664124
20
43.212315108580228
42
-0.13815140770482517
10
210.8610927171965
20
42.359312506664999
42
0.78785881805568658
10
213.3458114401904
20
40.487045496201233
42
-0.13816373247314781
10
214.13389929726574
20
40.833565523521251
10
241.32667470769007
20
44.656308568682839
42
-0.13814892633686499
10
242.17967136423908
20
44.540539785549917
42
0.78780064589810683
10
244.05188343337943
20
47.025232585469709
42
-0.13815140770476192
10
243.70542350614915
20
47.813266118024025
10
242.53490027206456
20
56.140554214502352
42
-0.13815140770490267
10
242.65068742767966
20
56.99356339628234
42
0.65479486193332825
10
240.65137778426288
20
59.139686572859311
42
-0.20380069638137505
0
LWPOLYLINE
5
112
100
AcDbEntity
8
0
100
AcDbPolyline
90
16
70
1
43
0.0
10
175.71192794241799
20
72.022220753209723
10
174.54171002987121
20
63.69330889895604
42
-0.13814498598063144
10
174.19532503899435
20
62.905284496809706
42
0.78778158664590459
10
176.06768677717636
20
60.420726542451646
42
-0.13815049686164074
10
176.9206883790628
20
60.536528923501756
10
185.24897072797791
20
59.366040020092861
42
-0.13815121563921187
10
186.03701043822537
20
59.01959700686615
42
0.78787585501409663
10
188.52154518090029
20
60.892134312708031
42
-0.1381682606685298
10
188.40561668787049
20
61.74522630456881
10
189.57513266487001
20
70.07239630412937
42
-0.13813565755121632
10
189.92143828833392
20
70.860394474669391
42
0.7876563275388998
10
188.04930562007172
20
73.344979983238389
42
-0.13812794050773797
10
187.19641788879909
20
73.229344595133313
10
178.8690341652227
20
74.40081280098471
42
-0.13817377179787427
10
178.0809310729183
20
74.74744775691282
42
0.78792782972545494
10
175.59606852976134
20
72.875265668185676
42
-0.13815893231972751
0
LWPOLYLINE
5
113
100
AcDbEntity
8
0
100
AcDbPolyline
90
16
70
1
43
0.0
10
226.61295846025584
20
83.884179336028069
10
225.44274716668599
20
92.212923935463039
42
-0.13815820382755822
10
225.5586030762824
20
93.065964916863322
42
0.78784071318492777
10
223.07399701561846
20
94.938353633146235
42
-0.13815232834238367
10
222.28595340946788
20
94.591902899377772
10
213.95669898778266
20
93.421241659454381
42
-0.13815121566817457
10
213.10369279030638
20
93.537042236769267
42
0.78788584813242524
10
211.23159619337486
20
91.052163842433743
42
-0.13817080398513498
10
211.57820745956471
20
90.264069776094573
10
212.74955858717701
20
81.936604228811547
42
-0.13813128267850525
10
212.63390199688902
20
81.083699143326967
42
0.78768107637678109
10
215.11851007179604
20
79.211558375373158
42
-0.13813861552473983
10
215.9065151242196
20
79.557892434174391
10
224.23370799432419
20
80.727591826510377
42
-0.13816492842143499
10
225.08678340062835
20
80.61168970707881
42
0.78783395234471099
10
226.95934064937518
20
83.096160928833157
42
-0.13814388296216321
0
LWPOLYLINE
5
114
100
AcDbEntity
8
0
100
AcDbPolyline
90
24
70
1
43
0.0
10
179.29471871687494
20
55.103343149542177
10
162.60310777641399
20
57.448802273072388
42
-0.20352501698448497
10
161.53945523295633
20
58.088077886952959
42
0.20343670031834468
10
160.4763359516821
20
58.727278476067291
10
158.25461601907361
20
59.040237004682695
42
0.15262403830333413
10
157.32006425555278
20
58.88657211157966
42
-0.20382984172500965
10
156.07989688331381
20
58.807431767435418
42
0.654700203740328
10
154.08096596389925
20
56.661187544745431
42
-0.1381514077047713
10
154.19674467801985
20
55.808177217162545
10
153.02595618229606
20
47.479599947299214
42
-0.13816373247315764
10
152.67943964312497
20
46.69151055650368
42
0.78785881805561564
10
154.5517176511531
20
44.206800120351879
42
-0.13815140770480866
10
155.4047197403616
20
44.322639515259716
10
182.5979516074961
20
40.501927707962906
42
-0.13815140770477843
10
183.38600635627739
20
40.155516041690319
42
0.78780064589803356
10
185.8705844945757
20
42.02788027348344
42
-0.13814892633683012
10
185.75476347291666
20
42.880869838586086
10
186.92490193538276
20
51.20825511528782
42
-0.13815140770484202
10
187.27132488831049
20
51.996304902605679
42
0.65479534283912577
10
185.94101467704689
20
54.610375202646068
42
-0.20380116949466434
10
184.770724697357
20
55.027867584316503
42
0.15238248682700639
10
183.91606759140342
20
55.43265500909893
10
181.69213398442037
20
55.745801732651742
42
0.20356626006044429
10
180.49320256376345
20
55.42460391949956
42
-0.20349213363736693
0
LWPOLYLINE
5
115
100
AcDbEntity
8
0
100
AcDbPolyline
90
15
70
1
43
0.0
10
218.66111296416025
20
72.023382052384363
42
-0.13814630501929626
10
218.77681784146461
20
72.876371513950346
42
0.78781024582338732
10
216.29195052610334
20
74.748366701970042
42
-0.13815647247815549
10
215.50392083574056
20
74.401822568701192
10
207.17651550306789
20
73.230591600105342
42
-0.13814267616263279
10
206.32354681015559
20
73.346287663814678
42
0.78777119957083075
10
204.45148845642248
20
70.861513132259944
42
-0.13815016279215575
10
204.79796222185558
20
70.073493840254912
10
205.9686943852634
20
61.746158255576908
42
-0.1381563193627785
10
205.85291536166577
20
60.893118241407493
42
0.88828809348503579
10
208.59839276786079
20
59.293120141556805
10
217.45381546460735
20
60.537695381358773
42
-0.13816033039973258
10
218.30687327345959
20
60.421868603334907
42
0.78787990673102071
10
220.17908413143616
20
62.906654036241775
42
-0.1381601771213315
10
219.83252515183261
20
63.694701470454511
0
LWPOLYLINE
5
116
100
AcDbEntity
8
0
100
AcDbPolyline
90
16
70
1
43
0.0
10
166.87049076613275
20
111.7414390091626
10
165.70574213941254
20
103.41206574208019
42
-0.1381582336330964
10
165.35981828334312
20
102.62375203464902
42
0.78783590088638888
10
167.23386614721517
20
100.1404027416105
42
-0.13815107370693266
10
168.08678611912694
20
100.25683041128997
10
176.41587395525511
20
99.092439897443285
42
-0.13814458149095782
10
177.2041349095372
20
98.746599599541739
42
0.78778488922567391
10
179.68739389421418
20
100.620688850487
42
-0.13815174197099761
10
179.57099652371181
20
101.47361700301627
10
180.73574515043197
20
109.8029902700988
42
-0.13815823363320751
10
181.08166900650136
20
110.59130397752975
42
0.78783590088647981
10
179.20762114262931
20
113.07465327056833
42
-0.13815107370698154
10
178.35470117071733
20
112.95822560088882
10
170.02561333458939
20
114.12261611473548
42
-0.13814458149088474
10
169.23735238030747
20
114.46845641263687
42
0.78778488922561174
10
166.75409339563029
20
112.59436716169193
42
-0.1381517419709252
0
LWPOLYLINE
5
117
100
AcDbEntity
8
0
100
AcDbPolyline
90
16
70
1
43
0.0
10
253.63584407564858
20
84.859909732161498
10
261.96418851080568
20
86.031188293880206
42
-0.13814053145070607
10
262.81714379306544
20
85.915489064058249
42
0.78777797078801237
10
264.6891889512633
20
88.400281375692231
42
-0.13815403102357252
10
264.3426998654316
20
89.188319275525998
10
263.1719602287767
20
97.515708016886407
42
-0.13814933056420514
10
263.2877219153545
20
98.368708083205291
42
0.78779662700224251
10
260.80302656191827
20
100.24091058975026
42
-0.13814998054578323
10
260.01500113883253
20
99.894453485022268
10
251.68770953029568
20
98.723899264611276
42
-0.13815228868342408
10
250.83469489712604
20
98.839685542735964
42
0.78776857229081565
10
248.96234287217544
20
96.355135335489791
42
-0.13813988152646217
10
249.30871156503298
20
95.567137211584196
10
250.47890330398604
20
87.23871200255283
42
-0.13816348001149628
10
250.36303684570834
20
86.385640518714283
42
0.78789841392851345
10
252.84778561138125
20
84.513352582975926
42
-0.13816173773710302
0
LWPOLYLINE
5
118
100
AcDbEntity
8
0
100
AcDbPolyline
90
16
70
1
43
0.0
10
117.60149574222066
20
70.859533195478093
42
0.78782619351358962
10
119.47375449945257
20
68.37484600662566
42
-0.13815755466696403
10
120.32679923250313
20
68.490645348854969
10
128.65399460275773
20
67.320104656507766
42
-0.13815036424015725
10
129.44202187162017
20
66.973646032180582
42
0.78774848037505463
10
131.9267957293919
20
68.845670368753346
42
-0.1381366917589073
10
131.81112572527442
20
69.698606374546699
10
132.98248733311777
20
78.026146428747836
42
-0.13816102008875508
10
133.32905984377066
20
78.814193435425338
42
0.78789352581228522
10
131.4568400126883
20
81.298987862755212
42
-0.13816295360395586
10
130.6037680295309
20
81.183148542248034
10
122.27559690106833
20
82.353561743827456
42
-0.13814496527770698
10
121.48758480894956
20
82.69997443006929
42
0.78777338508974148
10
119.00294811382014
20
80.827729782913622
42
-0.1381484299741132
10
119.11870502150991
20
79.974734519030875
10
117.94796836998472
20
71.647547216434006
42
-0.13814928192825518
0
LWPOLYLINE
5
119
100
AcDbEntity
8
0
100
AcDbPolyline
90
16
70
1
43
0.0
10
137.9827442553439
20
77.323753689564001
10
136.81198230534102
20
68.996206234928195
42
-0.13815854897408103
10
136.46547532551486
20
68.208146602160127
42
0.78784732646304012
10
138.33772767001292
20
65.723430125377405
42
-0.1381536664024228
10
139.19074623739243
20
65.83924884905062
10
147.51985266662291
20
64.668728554975232
42
-0.13815791941582528
10
148.30792806972786
20
64.322266825767997
42
0.78782973143771651
10
150.79256600314886
20
66.194596382004079
42
-0.13814981766344628
10
150.67673259667362
20
67.047589660340179
10
151.84695213487029
20
75.376272793513238
42
-0.13814422731882833
10
152.19333725390939
20
76.164292168902364
42
0.78784206859249872
10
150.3207589024787
20
78.648756878602939
42
-0.13816664981626342
10
149.46767480913647
20
78.532842011208118
10
141.139626657729
20
79.7025771644998
42
-0.13814493595990504
10
140.35158775594562
20
80.048928421270006
42
0.78772245730568735
10
137.86701688494676
20
78.176674675909908
42
-0.1381354959616905
0
LWPOLYLINE
5
120
100
AcDbEntity
8
0
100
AcDbPolyline
90
16
70
1
43
0.0
10
312.88933062550421
20
83.578025342558931
42
-0.13815326387349455
10
312.06073293761762
20
83.344623611381905
10
303.64993841350622
20
83.344623611381905
42
-0.13815326387368307
10
302.82134072561973
20
83.578025342559101
42
0.78781039476022374
10
300.62144601794569
20
81.378162689868788
42
-0.13814955153483477
10
300.85483567556184
20
80.549584732975859
10
300.85483567556184
20
72.138962489788241
42
-0.13814955153484812
10
300.6214460179458
20
71.310384532895227
42
0.78781039476014969
10
302.82134072561973
20
69.110521880204885
42
-0.13815326387366167
10
303.64993841350639
20
69.343923611381911
10
312.06073293761762
20
69.343923611381911
42
-0.13815326387349455
10
312.88933062550421
20
69.1105218802049
42
0.78781039476019299
10
315.08922533317804
20
71.310384532895242
42
-0.13814955153479472
10
314.85583567556193
20
72.138962489788298
10
314.85583567556193
20
80.549584732975717
42
-0.13814955153482866
10
315.08922533317821
20
81.378162689868759
42
0.78781039476013293
0
LWPOLYLINE
5
121
100
AcDbEntity
8
0
100
AcDbPolyline
90
16
70
1
43
0.0
10
333.33483567556198
20
110.62076892447476
10
333.33483567556209
20
119.03117829828912
42
-0.13815573891793895
10
333.56824545642638
20
119.85978914086917
42
0.78781039474447312
10
331.36840417533074
20
122.05970521959844
42
-0.13814707648489061
10
330.53983937337921
20
121.82632361138201
10
322.12983197774463
20
121.82632361138201
42
-0.13814707648490068
10
321.30126717579299
20
122.0597052195984
42
0.78781039474446701
10
319.1014258946974
20
119.85978914086925
42
-0.13815573891788316
10
319.33483567556198
20
119.03117829828912
10
319.33483567556203
20
110.62076892447476
42
-0.13815573891789334
10
319.10142589469751
20
109.79215808189454
42
0.78781039474445513
10
321.30126717579293
20
107.59224200316569
42
-0.13814707648490068
10
322.12983197774463
20
107.82562361138201
10
330.53983937337904
20
107.82562361138203
42
-0.1381470764848475
10
331.3684041753308
20
107.59224200316565
42
0.78781039474456938
10
333.56824545642615
20
109.7921580818946
42
-0.13815573891782784
0
LWPOLYLINE
5
122
100
AcDbEntity
8
0
100
AcDbPolyline
90
16
70
1
43
0.0
10
204.21096389556155
20
108.46558193530188
10
205.38172785889029
20
100.13802016002062
42
-0.13814234217233129
10
205.26598350726084
20
99.28506003977914
42
0.78777541580235666
10
207.75066554520563
20
97.412872448132816
42
-0.13815156996848735
10
208.53870941045042
20
97.759311290627238
10
216.8668037432048
20
98.929713699595695
42
-0.13816085698182121
10
217.71986374258688
20
98.813879581182363
42
0.78778775386148747
10
219.59232860766465
20
101.29836695552241
42
-0.13813619561113102
10
219.2459768600512
20
102.08634837916878
10
218.07574430510186
20
110.4152443022154
42
-0.13815700819283713
10
218.19159724800011
20
111.26827844970367
42
0.78789367239957409
10
215.70682095742399
20
113.14052257654488
42
-0.13816700280475358
10
214.9187337207905
20
112.79395241113588
10
206.58957005767888
20
111.62264312081221
42
-0.13814542411019201
10
205.73658795892243
20
111.73836296971686
42
0.78778474116167196
10
203.86448736221385
20
109.25360458919994
42
-0.13815086166488183
0
LWPOLYLINE
5
123
100
AcDbEntity
8
0
100
AcDbPolyline
90
21
70
1
43
0.0
10
61.586835671341298
20
132.4416095022371
10
342.01542176738627
20
132.44132245291593
42
-0.4229413492240075
10
348.19498061206872
20
126.44157169567619
10
348.19383567499699
20
42.979919046772821
42
-0.4142095444341069
10
342.1938356755615
20
36.980001355500306
10
318.0780627941229
20
36.980001355500335
42
0.05240777928303151
10
309.76159516141234
20
36.105905384852484
10
272.84996395818052
20
28.260095970346551
42
-0.052407779282810603
10
264.53349632540596
20
27.385999999999989
10
234.68617354730594
20
27.386000000000038
42
0.12306625207573549
10
215.86812002132854
20
22.683037577445649
42
-0.24991798381690844
10
178.23195951506466
20
22.683066092133366
42
0.12307240301202142
10
159.41294364574875
20
27.386057019416178
10
135.55896445021111
20
27.385515012753142
42
-0.052662989993745329
10
127.20264962012087
20
28.26790782815214
10
89.835512391038606
20
36.249418567853212
42
0.052657293826127598
10
81.480106420803864
20
37.131811398165055
10
64.999568304954494
20
37.131811405241095
10
61.586835675561815
20
37.1318114039316
42
-0.41421355055243414
10
55.586837379691865
20
43.131811355500496
10
55.586844322180994
20
126.44161182266679
42
-0.41410547910683115
0
LWPOLYLINE
5
124
100
AcDbEntity
8
0
100
AcDbPolyline
90
16
70
1
43
0.0
10
105.78083567556179
20
91.531234354783038
10
105.78083567556183
20
99.942532867981242
42
-0.13817058846412988
10
106.01429375478017
20
100.77122263307174
42
0.78781039438769185
10
103.81458070198192
20
102.97126692779852
42
-0.13813222680889534
10
102.9860948281903
20
102.73793361138229
10
94.57657652293328
20
102.73793361138226
42
-0.13813222680890327
10
93.74809064914173
20
102.97126692779852
42
0.78781039438765632
10
91.548377596343414
20
100.77122263307172
42
-0.13817058846404592
10
91.781835675561808
20
99.9425328679811
10
91.781835675561808
20
91.531234354783038
42
-0.13817058846412694
10
91.548377596343414
20
90.702544589692394
42
0.78781039438770351
10
93.74809064914173
20
88.502500294965586
42
-0.13813222680890327
10
94.57657652293328
20
88.73583361138185
10
102.9860948281903
20
88.735833611382105
42
-0.1381322268088897
10
103.81458070198192
20
88.502500294965614
42
0.78781039438760547
10
106.0142937547802
20
90.702544589692423
42
-0.13817058846416744
0
LWPOLYLINE
5
125
100
AcDbEntity
8
0
100
AcDbPolyline
90
16
70
1
43
0.0
10
69.355452055620788
20
52.223272464718605
42
0.78781039474965286
10
71.555362793237762
20
50.023425842335698
42
-0.1381551203458927
10
72.383970348158016
20
50.256833611382028
10
80.791705033591811
20
50.256833611382028
42
-0.13827117836856312
10
81.620929332362522
20
50.023048246128887
42
0.78781038010364868
10
83.821841968331682
20
52.22189246527779
42
-0.13803163171228788
10
83.588835675561825
20
53.049843579217786
10
83.588835675561796
20
61.461226668353284
42
-0.13814769505860891
10
83.822219295502833
20
62.289794758045375
42
0.78781039474963876
10
81.622308557885773
20
64.489641380428509
42
-0.13815512034606253
10
80.793701002965491
20
64.256233611381901
10
72.383842618590378
20
64.256233611382243
42
-0.13814769505870236
10
71.555274528898408
20
64.489617231322882
42
0.78781039474957204
10
69.355427906515558
20
62.289706493706127
42
-0.13815512034597313
10
69.588835675561796
20
61.461098938785703
10
69.588835675561924
20
53.05184055441071
42
-0.13814769505858887
0
LWPOLYLINE
5
126
100
AcDbEntity
8
0
100
AcDbPolyline
90
16
70
1
43
0.0
10
261.39097650683448
20
78.027492232204281
10
262.56174551669983
20
69.699894561264728
42
-0.13813496929978528
10
262.44601945258461
20
68.846976585414296
42
0.78778218225809959
10
264.93077629891206
20
66.974877883922389
42
-0.13816066512893929
10
265.7188604725539
20
67.321360581335227
10
274.04592665130798
20
68.491702912914278
42
-0.13815386863159834
10
274.89894785796457
20
68.375894613180392
42
0.78774231007083961
10
276.77143392333056
20
70.86031339291776
42
-0.13813161674520139
10
276.42514508255249
20
71.648292466003227
10
275.25559293188189
20
79.975780098239653
42
-0.13815948021178348
10
275.37150048167985
20
80.828821790164767
42
0.7878649502530517
10
272.8869363097354
20
82.701303305734854
42
-0.13815722070511124
10
272.09886181742053
20
82.354849917533784
10
263.76981110689843
20
81.184397526305489
42
-0.13815731305987031
10
262.91677251512857
20
81.30023133084849
42
0.78785214094198797
10
261.04447911690681
20
78.815540217775421
42
-0.13815612768783062
0
LWPOLYLINE
5
127
100
AcDbEntity
8
0
100
AcDbPolyline
90
16
70
1
43
0.0
10
322.28583567556194
20
80.549691162747223
10
322.285835675562
20
72.138856060016792
42
-0.13814336457964424
10
322.05246613903819
20
71.310310987081408
42
0.78781039469758196
10
324.25241426812602
20
69.110501757962894
42
-0.13815945080620154
10
325.0810448389791
20
69.343923611381911
10
333.49262651214423
20
69.343923611381925
42
-0.13815945080618355
10
334.32125708299742
20
69.110501757962894
42
0.78781039469740266
10
336.52120521208525
20
71.310310987081252
42
-0.13814336457942225
10
336.28783567556172
20
72.138856060016792
10
336.28783567556155
20
80.549691162747223
42
-0.13814336457940515
10
336.52120521208531
20
81.378236235682522
42
0.78781039469753822
10
334.32125708299736
20
83.578045464801136
42
-0.13815945080611883
10
333.49262651214423
20
83.344623611381905
10
325.0810448389791
20
83.344623611381905
42
-0.13815945080606112
10
324.25241426812613
20
83.578045464801221
42
0.78781039469741121
10
322.05246613903807
20
81.378236235682536
42
-0.13814336457947837
0
LWPOLYLINE
5
128
100
AcDbEntity
8
0
100
AcDbPolyline
90
16
70
1
43
0.0
10
245.47177237184914
20
102.71091756003402
42
-0.13814507741287149
10
246.25997141432012
20
103.05690633705265
10
254.5879498069981
20
104.22272005714041
42
-0.13814461224287322
10
255.44085448130201
20
104.10646698071061
42
0.78778513084004964
10
257.31450506365559
20
106.59005724293618
42
-0.13815177271818035
10
256.96851904500409
20
107.37830135083061
10
255.80286319380804
20
115.70740362648212
42
-0.13816416839919404
10
255.91919650991696
20
116.56041573722848
42
0.78783371073442621
10
253.43567143855026
20
118.43422728911381
42
-0.1381445814909843
10
252.64747379254032
20
118.08824273089937
10
244.31849757115046
20
116.92231363528533
42
-0.13814510816479519
10
243.4655903956172
20
117.03857038489723
42
0.7878359008065261
10
241.59205521794945
20
114.55483427876575
42
-0.13816419914613215
10
241.93814695584643
20
113.76655518606174
10
243.10440576039764
20
105.43749685212373
42
-0.1381517419709648
10
242.98816449322453
20
104.58454741104129
42
0.78778683757902013
0
LWPOLYLINE
5
129
100
AcDbEntity
8
0
100
AcDbPolyline
90
16
70
1
43
0.0
10
124.13591417836599
20
117.74414223162114
42
-0.13814629366360442
10
124.48231687881416
20
118.53216741652477
42
0.78779045840584583
10
122.60997526355112
20
121.01675080564786
42
-0.13815144734110629
10
121.75696789670471
20
120.90094851294194
10
113.42974142860299
20
122.07131337267269
42
-0.13815367659585812
10
112.6416908733104
20
122.41776839227805
42
0.78774148506891017
10
110.15692140815246
20
120.54574897568483
42
-0.13813159878123424
10
110.272588116262
20
119.69284334900078
10
109.10117262340934
20
111.36425941258634
42
-0.13816890797046777
10
108.75457749234316
20
110.5761706727032
42
0.78794580570328832
10
110.62693694314051
20
108.09142098014289
42
-0.13816837096637613
10
111.4800297220831
20
108.20734859394318
10
119.80918023394069
20
107.0375429832873
42
-0.13813675287835664
10
120.59718320632534
20
106.69123195775481
42
0.7877638417109365
10
123.08161026821131
20
108.56374011425589
42
-0.13815421321145888
10
122.96577612947901
20
109.41675989818907
0
LWPOLYLINE
5
130
100
AcDbEntity
8
0
100
AcDbPolyline
90
16
70
1
43
0.0
10
82.670507141941258
20
107.74268017229249
42
0.78781039459116597
10
84.870273628369986
20
109.9426710404023
42
-0.13816440067334934
10
84.636835675561755
20
110.77132791894417
10
84.636835675561798
20
119.18283930381986
42
-0.13816440067345118
10
84.870273628370114
20
120.0114961823617
42
0.78781039459111224
10
82.670507141941243
20
122.21148705047131
42
-0.13813841467363094
10
81.841988378379483
20
121.97813361138199
10
73.431682972743999
20
121.97813361138199
42
-0.13813841467370877
10
72.603164209182225
20
122.21148705047116
42
0.78781039459109381
10
70.40339772275351
20
120.01149618236175
42
-0.13816440067335342
10
70.63683567556167
20
119.18283930381986
10
70.63683567556177
20
110.77132791894417
42
-0.13816440067345073
10
70.403397722753411
20
109.94267104040232
42
0.78781039459112912
10
72.603164209182268
20
107.74268017229249
42
-0.13813841467363477
10
73.431682972743999
20
107.97603361138184
10
81.841988378379483
20
107.97603361138198
42
-0.13813841467361487
0
LWPOLYLINE
5
131
100
AcDbEntity
8
0
100
AcDbPolyline
90
16
70
1
43
0.0
10
129.02132133329258
20
117.89443497331061
42
-0.13814234217244534
10
129.13711899457894
20
117.0414820887402
10
127.96688141868835
20
108.71388924035659
42
-0.13815333212652242
10
127.62044435362651
20
107.92583304868916
42
0.78778474114160402
10
129.49267615055044
20
105.44117352428339
42
-0.13814295364135537
10
130.34563689392223
20
105.5569405558735
10
138.67491583177039
20
104.38614592381771
42
-0.1381670028047649
10
139.46302472744941
20
104.03962501442328
42
0.78793911793400706
10
141.94761252101816
20
105.91218903399468
42
-0.13816857413142092
10
141.83162060978046
20
106.76527430274166
10
143.0006962779949
20
115.0937493371963
42
-0.13812710001898681
10
143.34691015903886
20
115.88173175838816
42
0.78771629019530398
10
141.47429436218746
20
118.36602262049556
42
-0.13815176204725568
10
140.62128915806971
20
118.25019036983772
10
132.29404984641494
20
119.4202665755675
42
-0.13815819444870867
10
131.50596570720916
20
119.76671253155401
42
0.78780144182099932
0
LWPOLYLINE
5
132
100
AcDbEntity
8
0
100
AcDbPolyline
90
16
70
1
43
0.0
10
283.77134072561955
20
83.578025342558931
42
0.7878103947601176
10
281.57144601794573
20
81.378162689868788
42
-0.13814955153479472
10
281.80483567556183
20
80.549584732975717
10
281.80483567556189
20
72.138962489788298
42
-0.13814955153479178
10
281.57144601794579
20
71.310384532895227
42
0.78781039476013881
10
283.77134072561961
20
69.110521880204885
42
-0.13815326387366167
10
284.59993841350627
20
69.343923611381911
10
293.01073293761766
20
69.343923611381896
42
-0.13815326387366292
10
293.83933062550426
20
69.110521880204928
42
0.78781039476015902
10
296.03922533317814
20
71.310384532895227
42
-0.1381495515348351
10
295.80583567556198
20
72.138962489788298
10
295.80583567556198
20
80.549584732975717
42
-0.13814955153482866
10
296.03922533317819
20
81.378162689868788
42
0.78781039476015124
10
293.8393306255042
20
83.578025342559016
42
-0.13815326387366925
10
293.01073293761766
20
83.34462361138182
10
284.59993841350627
20
83.34462361138192
42
-0.13815326387364776
0
LWPOLYLINE
5
133
100
AcDbEntity
8
0
100
AcDbPolyline
90
16
70
1
43
0.0
10
253.4227255191272
20
49.17821683798774
42
-0.13814216987592348
10
253.30698244311847
20
48.325257587506023
42
0.78777955337278982
10
255.79168022405969
20
46.453084532515064
42
-0.13815279542442718
10
256.57972753402163
20
46.799533802251112
10
264.90780356000181
20
47.969993708239357
42
-0.13816102927423801
10
265.76086536346952
20
47.854165196230639
42
0.78778361576617761
10
267.63332472069226
20
50.338651931034619
42
-0.13813497003105454
10
267.2869770431335
20
51.126627114175243
10
266.11674664380212
20
59.455447621613438
42
-0.13815683601647516
10
266.23259831175216
20
60.308480900120969
42
0.78789781042886087
10
263.74780628186403
20
62.180710491189011
42
-0.13816822813445281
10
262.9597156025614
20
61.834129898411057
10
254.63057024184351
20
60.662763108734453
42
-0.13814559652289848
10
253.7775863391347
20
60.778477352524021
42
0.7877806040351768
10
251.90549124973617
20
58.293719611653252
42
-0.13814963621075266
10
252.25196371329091
20
57.505703197304889
0
LWPOLYLINE
5
134
100
AcDbEntity
8
0
100
AcDbPolyline
90
16
70
1
43
0.0
10
161.86645085961291
20
112.44460996396211
42
-0.13814913882747801
10
162.2127282893033
20
113.23270884295049
42
0.78779722511062877
10
160.33995946387688
20
115.71697806986572
42
-0.13815032451947321
10
159.4869797434805
20
115.60102229691938
10
151.15862893257881
20
116.76998934669075
42
-0.13815894279557761
10
150.37048958380481
20
117.11632084332339
42
0.78787171646878407
10
147.88622923830843
20
115.24342586752792
42
-0.13815948021168292
10
148.00228458136411
20
114.39040427013938
10
146.83418782444926
20
106.06280385174901
42
-0.13813688323055373
10
146.48801466271385
20
105.27473945153747
42
0.78774231016224516
10
148.36087979157668
20
102.79060641409433
42
-0.13814860217967506
10
149.2138508206553
20
102.90654943283923
10
157.54120935768447
20
101.73763724382025
42
-0.13816066512879924
10
158.32935354986921
20
101.39129109229413
42
0.78783033144173553
10
160.81371027802689
20
103.26399467942009
42
-0.13814722466184143
10
160.69774569566027
20
104.11695443917222
0
LWPOLYLINE
5
135
100
AcDbEntity
8
0
100
AcDbPolyline
90
16
70
1
43
0.0
10
300.69743358922142
20
102.81949717242614
42
-0.1381446020823183
10
299.86888193885767
20
102.58612361138208
10
291.45802355219917
20
102.58612361138211
42
-0.1381582133103019
10
290.62939955847708
20
102.81954143993582
42
0.78781039471628378
10
288.42946211451783
20
100.61972152504114
42
-0.13814460208222859
10
288.66283567556201
20
99.791169874677507
10
288.66283567556201
20
91.379211488019763
42
-0.13815821331038358
10
288.42941784700781
20
90.550587494297318
42
0.78781039471641645
10
290.62923776190263
20
88.350650050337947
42
-0.13814460208217313
10
291.45778941226627
20
88.584023611382008
10
299.87254385962461
20
88.584023611382008
42
-0.13793181337487664
10
300.69996420093332
20
88.351341617163115
42
0.7878103454893246
10
302.89794597520762
20
90.553115504764193
42
-0.13837098412367546
10
302.66383567556198
20
91.382870028086927
10
302.66383567556198
20
99.790935734744323
42
-0.13815821331035621
10
302.89725350411595
20
100.61955972846678
42
0.787810394716287
0
LWPOLYLINE
5
136
100
AcDbEntity
8
0
100
AcDbPolyline
90
16
70
1
43
0.0
10
329.09122935784194
20
100.61964797964086
42
0.78781039476325732
10
326.89134533556683
20
102.81952131783777
42
-0.1381520263748181
10
326.06275422493519
20
102.58612361138222
10
317.65089584150053
20
102.58612361138185
42
-0.13815078903471234
10
316.82231130730321
20
102.81951729366207
42
0.78781039476324255
10
314.62243796910639
20
100.61963327138639
42
-0.13815202637495533
10
314.85583567556193
20
99.791042160754813
10
314.85583567556199
20
91.379437796981307
42
-0.13817136995447046
10
314.62237505441328
20
90.550743878504903
42
0.78781039435642897
10
316.82208135867739
20
88.350692836321628
42
-0.13813144530708582
10
317.65056307858816
20
88.584023611382008
10
326.06277550962369
20
88.584023611382023
42
-0.13815078903466571
10
326.89136004382107
20
88.350629929101729
42
0.78781039476334103
10
329.09123338201761
20
90.550513951377326
42
-0.13815202637479457
10
328.85783567556189
20
91.379105062009216
10
328.85783567556183
20
99.79106344544337
42
-0.13815078903458064
0
LWPOLYLINE
5
137
100
AcDbEntity
8
0
100
AcDbPolyline
90
16
70
1
43
0.0
10
331.39380744552398
20
64.10442361138206
10
322.98486390559981
20
64.104423611382032
42
-0.13814893251953678
10
322.15628923877762
20
64.337811255814557
42
0.78781039475736836
10
319.95643193115075
20
62.137911203171711
42
-0.13815388288780653
10
320.18983567556182
20
61.309310225257754
10
320.18983567556182
20
52.900136997506408
42
-0.13815388288783823
10
319.95643193115092
20
52.071536019592216
42
0.78781039475736958
10
322.15628923877767
20
49.871635966949285
42
-0.13814893251961746
10
322.98486390559981
20
50.105023611381903
10
331.39380744552386
20
50.105023611381803
42
-0.13814893251943303
10
332.22238211234594
20
49.871635966949242
42
0.78781039475723047
10
334.42223941997275
20
52.071536019592308
42
-0.13815388288793076
10
334.18883567556185
20
52.900136997506415
10
334.18883567556202
20
61.309310225257398
42
-0.13815388288779273
10
334.42223941997298
20
62.137911203171619
42
0.78781039475759596
10
332.22238211234605
20
64.337811255814302
42
-0.13814893251955229
0
LWPOLYLINE
5
138
100
AcDbEntity
8
0
100
AcDbPolyline
90
16
70
1
43
0.0
10
227.98970959338462
20
62.018531280804829
10
236.31779165535772
20
63.188992035114893
42
-0.13816172815273345
10
237.17085745345855
20
63.073161789100226
42
0.78778226287482134
10
239.04332702130645
20
65.557639262280077
42
-0.13813392679245506
10
238.69698504095936
20
66.345610114722831
10
237.526744487077
20
74.674623042524814
42
-0.13815823355887391
10
237.64260131817539
20
75.52766407872565
42
0.78791360716412484
10
235.15777512955228
20
77.399872585555755
42
-0.13817085091924514
10
234.36967918875641
20
77.053264882166957
10
226.04051126796367
20
75.881714699755662
42
-0.13814261939881961
10
225.18754192824716
20
75.997403461701069
42
0.78776683900948519
10
223.31549404306014
20
73.512626091086986
42
-0.13814910962759314
10
223.66196520473949
20
72.724612554410413
10
224.83272065695985
20
64.397231457137309
42
-0.13814305077514144
10
224.71697624418073
20
63.5442670562405
42
0.78777887646874456
10
227.20166734991423
20
61.672086182096379
42
-0.13815174223014698
0
LWPOLYLINE
5
139
100
AcDbEntity
8
0
100
AcDbPolyline
90
16
70
1
43
0.0
10
134.18183458375108
20
47.305980313206497
10
142.5090398231103
20
46.135558369262917
42
-0.13814738652777739
10
143.29705766875082
20
45.789122686262246
42
0.78773817388978962
10
145.7817993617889
20
47.661173876102332
42
-0.13813704601467161
10
145.66612932778438
20
48.514112022029003
10
146.83748249153911
20
56.841531975429866
42
-0.13816189134733389
10
147.18405923739792
20
57.629582828017085
42
0.78788457315965166
10
145.3118828043244
20
60.114399597175741
42
-0.13815980382466073
10
144.45882718603042
20
59.998580159470656
10
136.1306241781075
20
61.169117982698992
42
-0.13814688955729701
10
135.34260772948596
20
61.515549437144813
42
0.78778504479838773
10
132.85794873886627
20
59.643316465329228
42
-0.13814947350445067
10
132.97371078002323
20
58.790315581961288
10
131.80296054813476
20
50.462851477449853
42
-0.13814946391481717
10
131.45648955062526
20
49.674835547366868
42
0.78783379274359577
10
133.32878147381859
20
47.190164555453116
42
-0.138159306856387
0
LWPOLYLINE
5
140
100
AcDbEntity
8
0
100
AcDbPolyline
90
16
70
1
43
0.0
10
89.453397722753635
20
109.94267104040227
42
0.78781039459108559
10
91.653164209182421
20
107.74268017229258
42
-0.13813841467369781
10
92.481682972744196
20
107.97603361138184
10
100.89198837837948
20
107.97603361138184
42
-0.13813841467363455
10
101.72050714194125
20
107.74268017229258
42
0.78781039459108959
10
103.92027362836998
20
109.94267104040232
42
-0.13816440067334945
10
103.68683567556181
20
110.77132791894417
10
103.68683567556181
20
119.18283930381986
42
-0.13816440067337379
10
103.92027362836998
20
120.01149618236171
42
0.78781039459109925
10
101.72050714194121
20
122.21148705047131
42
-0.13813841467363455
10
100.89198837837948
20
121.97813361138199
10
92.481682972744125
20
121.97813361138199
42
-0.13813841467362664
10
91.653164209182293
20
122.21148705047126
42
0.78781039459106583
10
89.45339772275355
20
120.01149618236173
42
-0.13816440067343375
10
89.686835675561696
20
119.18283930381986
10
89.686835675561824
20
110.77132791894383
42
-0.13816440067339597
0
LWPOLYLINE
5
141
100
AcDbEntity
8
0
100
AcDbPolyline
90
16
70
1
43
0.0
10
281.68018877720039
20
88.565716845490812
42
0.78770884576952216
10
283.55247288972868
20
91.05024906907326
42
-0.1381426776184965
10
283.20614886331839
20
91.838285143126541
10
282.03660282593023
20
100.16639000782004
42
-0.13817626113518058
10
282.1525613456692
20
101.01952634338367
42
0.78787915484269222
10
279.66809766971556
20
102.89216300443299
42
-0.13814405499392535
10
278.8800899567496
20
102.54575392308612
10
270.55155723735334
20
101.37528990473126
42
-0.13814263691880541
10
269.69860138143258
20
101.49107881995087
42
0.78783522171460352
10
267.82643334535101
20
99.006312825697847
42
-0.13816649754313548
10
268.172960052647
20
98.21820978966042
10
269.34374495659648
20
89.889597999358955
42
-0.13815244129673843
10
269.22796283027282
20
89.036581878925631
42
0.78781836368082714
10
271.71267366869444
20
87.164366533816235
42
-0.13815240241482279
10
272.50070484586843
20
87.510846641182411
10
280.8272750586778
20
88.681443959803261
42
-0.13813428946754264
0
LWPOLYLINE
5
142
100
AcDbEntity
8
0
100
AcDbPolyline
90
16
70
1
43
0.0
10
245.82348405812496
20
85.747274993513415
42
-0.13814478461116037
10
245.4771548197651
20
86.535322580709078
10
244.30757675726869
20
94.863895772947842
42
-0.13816996119268951
10
244.42352303010745
20
95.716995641301821
42
0.78788185970185365
10
241.93901224303659
20
97.589573949804873
42
-0.13815104336900536
10
241.15097091107208
20
97.243137192806131
10
232.82250961764419
20
96.072683212417161
42
-0.13813984154985134
10
231.96956974001387
20
96.188465193085534
42
0.78778707750980703
10
230.09730812264368
20
93.703825434556876
42
-0.13815703889759776
10
230.44374162784308
20
92.915743392696982
10
231.61392812436472
20
84.587115210113211
42
-0.13815770696500815
10
231.49807259989771
20
83.734077183771305
42
0.78784047941966684
10
233.98267973873087
20
81.861690257170608
42
-0.13815276570707929
10
234.77072591213144
20
82.208141669300858
10
243.09819494107856
20
83.378540620177702
42
-0.1381381192032764
10
243.95112612468068
20
83.262771391232619
42
0.78773216819097769
0
LWPOLYLINE
5
143
100
AcDbEntity
8
0
100
AcDbPolyline
90
16
70
1
43
0.0
10
110.48340417533063
20
69.262352003165631
42
0.78781039474441494
10
112.68324545642621
20
71.462268081894919
42
-0.13815573891786076
10
112.44983567556179
20
72.290878924475123
10
112.44983567556179
20
80.701291214342376
42
-0.13815556939659784
10
112.68324490508149
20
81.529901155931384
42
0.78781039474595815
10
110.48340216019072
20
83.729815770916062
42
-0.1381472460067189
10
109.65483645722472
20
83.496433611382031
10
101.24483197774452
20
83.496433611382031
42
-0.13814707648483393
10
100.41626717579304
20
83.72981521959808
42
0.78781039474453729
10
98.216425894697338
20
81.529899140869134
42
-0.13815573891779886
10
98.449835675561843
20
80.701288298288915
10
98.449835675561843
20
72.29092450572611
42
-0.13815838874277578
10
98.216417276428203
20
71.462299579601705
42
0.78781039471385528
10
100.41623567646731
20
69.262360620871959
42
-0.13814442664882265
10
101.24478639438941
20
69.495733611382036
10
109.65483937337922
20
69.495733611382036
42
-0.13814707648492422
0
LWPOLYLINE
5
144
100
AcDbEntity
8
0
100
AcDbPolyline
90
16
70
1
43
0.0
10
81.651775509623207
20
102.73793361138229
10
73.239895841500186
20
102.73793361138229
42
-0.13815078903477998
10
72.411311307302796
20
102.97132729366227
42
0.78781039476325831
10
70.211437969106129
20
100.77144327138666
42
-0.13815202637481538
10
70.444835675561819
20
99.942852160755223
10
70.444835675561791
20
91.530915062008916
42
-0.13815202637485746
10
70.2114379691061
20
90.702323951377494
42
0.78781039476323222
10
72.411311307302782
20
88.502439929101769
42
-0.13815078903470904
10
73.239895841500186
20
88.73583361138185
10
81.65177550962332
20
88.735833611381764
42
-0.13815078903470193
10
82.480360043820795
20
88.502439929101726
42
0.78781039476330006
10
84.680233382017249
20
90.702323951377195
42
-0.13815202637494164
10
84.446835675561843
20
91.53091506200883
10
84.446835675561857
20
99.942852160755223
42
-0.13815202637484481
10
84.680233382017391
20
100.7714432713867
42
0.78781039476322934
10
82.480360043820781
20
102.97132729366228
42
-0.13815078903459002
0
LWPOLYLINE
5
145
100
AcDbEntity
8
0
100
AcDbPolyline
90
16
70
1
43
0.0
10
104.60480744552379
20
64.256233611381901
10
96.195863905599737
20
64.256233611381901
42
-0.1381489325195257
10
95.36728923877763
20
64.48962125581447
42
0.7878103947573275
10
93.167431931150645
20
62.289721203171773
42
-0.13815388288794672
10
93.400835675561794
20
61.461120225257737
10
93.400835675561808
20
53.051946997506327
42
-0.13815388288788663
10
93.167431931150716
20
52.223346019592441
42
0.78781039475735715
10
95.367289238777573
20
50.023445966949716
42
-0.138148932519611
10
96.195863905599737
20
50.256833611382028
10
104.60480744552379
20
50.256833611382028
42
-0.13814893251952071
10
105.43338211234598
20
50.023445966949225
42
0.78781039475735515
10
107.6332394199728
20
52.223346019592221
42
-0.13815388288790428
10
107.39983567556169
20
53.051946997506327
10
107.3998356755618
20
61.461120225257737
42
-0.13815388288794875
10
107.63323941997288
20
62.289721203171744
42
0.78781039475739356
10
105.433382112346
20
64.489621255814399
42
-0.13814893251951144
0
LWPOLYLINE
5
146
100
AcDbEntity
8
0
100
AcDbPolyline
90
14
70
1
43
0.0
10
157.52949129081654
20
63.261984355673739
10
166.91106688139055
20
61.943298775655379
42
0.88836864481046618
10
169.65661177158407
20
63.543248526062925
42
-0.13815491206578642
10
169.54077505102387
20
64.396272189360843
10
170.71091220422406
20
72.723708217208809
42
-0.13814826772131891
10
171.05732193894031
20
73.511743243199447
42
0.78778978184491055
10
169.1849995564796
20
75.996340342546162
42
-0.1381493010772471
10
168.33200445747903
20
75.880543374442738
10
160.00473245748819
20
77.050914633534092
42
-0.13815314994969918
10
159.21668443566185
20
77.397367567412317
42
0.78782965488505441
10
156.73205745173615
20
75.52502359852167
42
-0.13815456764700182
10
156.84789162197654
20
74.672001673572225
10
155.67776547364792
20
66.344764099507245
42
-0.13814861214092947
10
155.33135280839412
20
65.556728105244531
42
0.88829613539635877
0
CIRCLE
5
147
100
AcDbEntity
8
0
100
AcDbCircle
10
341.5858356755615
20
114.89763408030822
30
0
40
1.4999999999999956
210
0
220
0
230
1
0
CIRCLE
5
148
100
AcDbEntity
8
0
100
AcDbCircle
10
341.5858356755615
20
109.14763408030819
30
0
40
1.499999999999988
210
0
220
0
230
1
0
CIRCLE
5
149
100
AcDbEntity
8
0
100
AcDbCircle
10
341.5858356755615
20
120.64763408030825
30
0
40
1.4999999999999922
210
0
220
0
230
1
0
ENDSEC
0
SECTION
2
OBJECTS
0
DICTIONARY
5
C
100
AcDbDictionary
3
ACAD_GROUP
350
D
3
ACAD_MLINESTYLE
350
17
0
DICTIONARY
5
D
100
AcDbDictionary
0
DICTIONARY
5
1A
330
C
100
AcDbDictionary
0
DICTIONARY
5
17
100
AcDbDictionary
0
ENDSEC
0
EOF
