G04 #@! TF.GenerationSoftware,KiCad,Pcbnew,(5.99.0-9176-ga1730d51ff)*
G04 #@! TF.CreationDate,2021-11-18T23:05:27-06:00*
G04 #@! TF.ProjectId,Concerto,436f6e63-6572-4746-9f2e-6b696361645f,rev?*
G04 #@! TF.SameCoordinates,Original*
G04 #@! TF.FileFunction,Paste,Bot*
G04 #@! TF.FilePolarity,Positive*
%FSLAX46Y46*%
G04 Gerber Fmt 4.6, Leading zero omitted, Abs format (unit mm)*
G04 Created by KiCad (PCBNEW (5.99.0-9176-ga1730d51ff)) date 2021-11-18 23:05:27*
%MOMM*%
%LPD*%
G01*
G04 APERTURE LIST*
G04 Aperture macros list*
%AMRotRect*
0 Rectangle, with rotation*
0 The origin of the aperture is its center*
0 $1 length*
0 $2 width*
0 $3 Rotation angle, in degrees counterclockwise*
0 Add horizontal line*
21,1,$1,$2,0,0,$3*%
G04 Aperture macros list end*
%ADD10R,2.550000X2.500000*%
%ADD11RotRect,2.550000X2.500000X352.000000*%
%ADD12RotRect,2.550000X2.500000X8.000000*%
%ADD13RotRect,1.200000X1.400000X98.000000*%
%ADD14R,1.400000X1.200000*%
%ADD15RotRect,1.200000X1.400000X188.000000*%
%ADD16RotRect,1.200000X1.400000X82.000000*%
%ADD17R,1.200000X1.400000*%
%ADD18RotRect,1.200000X1.400000X172.000000*%
G04 APERTURE END LIST*
D10*
X300790000Y-113160000D03*
X286940000Y-115700000D03*
D11*
X152225786Y-98184837D03*
X138157073Y-98772570D03*
X168955786Y-81314837D03*
X154887073Y-81902570D03*
D12*
X242371787Y-119124039D03*
X229010074Y-123566868D03*
D10*
X112790000Y-93920000D03*
X98940000Y-96460000D03*
D12*
X237538147Y-139126389D03*
X225090451Y-143440761D03*
D10*
X85820000Y-132390000D03*
X71970000Y-134930000D03*
D11*
X196685786Y-123704837D03*
X182617073Y-124292570D03*
D12*
X268081787Y-96304039D03*
X254720074Y-100746868D03*
D11*
X189895786Y-103534837D03*
X175827073Y-104122570D03*
D12*
X249211787Y-98974039D03*
X235850074Y-103416868D03*
X223531787Y-121794039D03*
X210170074Y-126236868D03*
D10*
X110680000Y-74670000D03*
X96830000Y-77210000D03*
D11*
X177835786Y-121024837D03*
X163767073Y-121612570D03*
X158955786Y-118394837D03*
X144887073Y-118982570D03*
D12*
X286901787Y-93664039D03*
X273540074Y-98106868D03*
D10*
X119460000Y-113160000D03*
X105610000Y-115700000D03*
X348730000Y-132410000D03*
X334880000Y-134950000D03*
D11*
X187835786Y-83974837D03*
X173767073Y-84562570D03*
X140085786Y-115744837D03*
X126017073Y-116332570D03*
D12*
X271011787Y-134374040D03*
X257650074Y-138816869D03*
D11*
X133325786Y-95554837D03*
X119257073Y-96142570D03*
D12*
X230331787Y-101624039D03*
X216970074Y-106066868D03*
D11*
X150065786Y-78674837D03*
X135997073Y-79262570D03*
D10*
X109650000Y-132390000D03*
X95800000Y-134930000D03*
X319290000Y-74690000D03*
X305440000Y-77230000D03*
D12*
X241801787Y-80769070D03*
X228440074Y-85211899D03*
D10*
X300260000Y-74670000D03*
X286410000Y-77210000D03*
D12*
X222961787Y-83419070D03*
X209600074Y-87861899D03*
D11*
X131225786Y-76014837D03*
X117157073Y-76602570D03*
X171075786Y-100864837D03*
X157007073Y-101452570D03*
D10*
X324900000Y-132390000D03*
X311050000Y-134930000D03*
D12*
X261291787Y-116504039D03*
X247930074Y-120946868D03*
D11*
X153945786Y-136924837D03*
X139877073Y-137512570D03*
D12*
X279551787Y-75459070D03*
X266190074Y-79901899D03*
D10*
X343095000Y-74690000D03*
X329245000Y-77230000D03*
D11*
X184202145Y-141182487D03*
X171047450Y-141898678D03*
D10*
X307620000Y-93950000D03*
X293770000Y-96490000D03*
D12*
X260671787Y-78119070D03*
X247310074Y-82561899D03*
D10*
X88980000Y-93940000D03*
X75130000Y-96480000D03*
X91660000Y-74660000D03*
X77810000Y-77200000D03*
X338192000Y-93945550D03*
X325265000Y-96485550D03*
X346040000Y-113180000D03*
X332190000Y-115720000D03*
D12*
X280141787Y-113854039D03*
X266780074Y-118296868D03*
D10*
X90442000Y-113205550D03*
X77515000Y-115745550D03*
X319840000Y-113170000D03*
X305990000Y-115710000D03*
D13*
X229496844Y-131601931D03*
X229023656Y-128235019D03*
D14*
X305370000Y-123807500D03*
X305370000Y-120407500D03*
D13*
X236316844Y-111381931D03*
X235843656Y-108015019D03*
D15*
X232723456Y-136543406D03*
X229356544Y-137016594D03*
D16*
X137523157Y-144911931D03*
X137996345Y-141545019D03*
D13*
X267316844Y-126331931D03*
X266843656Y-122965019D03*
X247756844Y-90581931D03*
X247283656Y-87215019D03*
D16*
X124063406Y-124343456D03*
X124536594Y-120976544D03*
X115303157Y-84291931D03*
X115776345Y-80925019D03*
D14*
X293130000Y-104487500D03*
X293130000Y-101087500D03*
D16*
X155093157Y-109331931D03*
X155566345Y-105965019D03*
D14*
X96030000Y-85267500D03*
X96030000Y-81867500D03*
D16*
X180933157Y-131781931D03*
X181406345Y-128415019D03*
D17*
X85830000Y-126680000D03*
X82430000Y-126680000D03*
D14*
X94560000Y-142997500D03*
X94560000Y-139597500D03*
D13*
X210646844Y-134351931D03*
X210173656Y-130985019D03*
X217436844Y-114241931D03*
X216963656Y-110875019D03*
D16*
X134113157Y-87021931D03*
X134586345Y-83655019D03*
X171903157Y-92451931D03*
X172376345Y-89085019D03*
D14*
X77050000Y-85217500D03*
X77050000Y-81817500D03*
X286330000Y-123747500D03*
X286330000Y-120347500D03*
X73990000Y-104617500D03*
X73990000Y-101217500D03*
X310400000Y-142977500D03*
X310400000Y-139577500D03*
X304600000Y-85407500D03*
X304600000Y-82007500D03*
D13*
X266656844Y-88081931D03*
X266183656Y-84715019D03*
D16*
X152993157Y-89421931D03*
X153466345Y-86055019D03*
D13*
X273996844Y-106171931D03*
X273523656Y-102805019D03*
D14*
X334210000Y-143027500D03*
X334210000Y-139627500D03*
X285250000Y-85197500D03*
X285250000Y-81797500D03*
D15*
X220653456Y-97793406D03*
X217286544Y-98266594D03*
D17*
X336900000Y-109460000D03*
X340300000Y-109460000D03*
D14*
X98100000Y-104527500D03*
X98100000Y-101127500D03*
D13*
X228966844Y-93531931D03*
X228493656Y-90165019D03*
D14*
X311930000Y-104970000D03*
X311930000Y-101570000D03*
D16*
X161933157Y-128961931D03*
X162406345Y-125595019D03*
D14*
X104710000Y-123747500D03*
X104710000Y-120347500D03*
D13*
X255146844Y-108761931D03*
X254673656Y-105395019D03*
X248426844Y-128841931D03*
X247953656Y-125475019D03*
D16*
X117333157Y-103951931D03*
X117806345Y-100585019D03*
X173933157Y-111941931D03*
X174406345Y-108575019D03*
D13*
X258256843Y-148081931D03*
X257783655Y-144715019D03*
D14*
X327960000Y-86060000D03*
X327960000Y-82660000D03*
X70800000Y-142887500D03*
X70800000Y-139487500D03*
D18*
X179403456Y-137286594D03*
X176036544Y-136813406D03*
D16*
X143003157Y-126861931D03*
X143476345Y-123495019D03*
X136213157Y-106451931D03*
X136686345Y-103085019D03*
M02*
