M48
; DRILL file {KiCad (5.99.0-9176-ga1730d51ff)} date 11/18/21 23:05:29
; FORMAT={-:-/ absolute / metric / decimal}
; #@! TF.CreationDate,2021-11-18T23:05:29-06:00
; #@! TF.GenerationSoftware,Kicad,Pcbnew,(5.99.0-9176-ga1730d51ff)
; #@! TF.FileFunction,NonPlated,1,2,NPTH
FMAT,2
METRIC
T1C1.200
T2C1.702
T3C1.750
T4C3.000
T5C3.048
T6C3.988
%
G90
G05
T1
X183.525Y-68.412
T2
X74.45Y-137.47
X77.61Y-99.02
X80.29Y-79.74
X84.61Y-137.47
X87.77Y-99.02
X90.45Y-79.74
X98.28Y-137.47
X99.31Y-79.75
X101.42Y-99.0
X108.09Y-118.24
X108.44Y-137.47
X109.47Y-79.75
X111.58Y-99.0
X118.25Y-118.24
X119.259Y-79.463
X121.359Y-99.003
X128.119Y-119.193
X129.321Y-80.877
X131.421Y-100.417
X138.099Y-82.123
X138.181Y-120.607
X140.259Y-101.633
X141.979Y-140.373
X146.989Y-121.843
X148.161Y-83.537
X150.321Y-103.047
X152.041Y-141.787
X156.989Y-84.763
X157.051Y-123.257
X159.109Y-104.313
X165.869Y-124.473
X167.051Y-86.177
X169.171Y-105.727
X175.869Y-87.423
X175.931Y-125.887
X177.929Y-106.983
X184.719Y-127.153
X185.931Y-88.837
X187.991Y-108.397
X194.781Y-128.567
X212.409Y-90.032
X212.979Y-128.407
X219.779Y-108.237
X222.471Y-88.618
X223.041Y-126.993
X229.841Y-106.823
X231.249Y-87.382
X231.819Y-125.737
X238.659Y-105.587
X241.311Y-85.968
X241.881Y-124.323
X248.721Y-104.173
X250.119Y-84.732
X250.739Y-123.117
X257.529Y-102.917
X260.181Y-83.318
X260.459Y-140.987
X260.801Y-121.703
X267.591Y-101.503
X268.999Y-82.072
X269.589Y-120.467
X270.521Y-139.573
X276.349Y-100.277
X279.061Y-80.658
X279.651Y-119.053
X286.411Y-98.863
X288.89Y-79.75
X289.42Y-118.24
X296.25Y-99.03
X299.05Y-79.75
X299.58Y-118.24
X306.41Y-99.03
X307.92Y-79.77
X308.47Y-118.25
X313.53Y-137.47
X318.08Y-79.77
X318.63Y-118.25
X323.69Y-137.47
X331.725Y-79.77
X334.67Y-118.26
X337.36Y-137.49
X341.885Y-79.77
X344.83Y-118.26
X347.52Y-137.49
T3
X79.52Y-118.286
X89.68Y-118.286
X172.679Y-144.693
X182.741Y-146.107
X227.429Y-145.677
X237.491Y-144.263
X327.27Y-99.026
X337.43Y-99.026
T4
X75.72Y-134.93
X78.88Y-96.48
X80.79Y-115.746
X81.56Y-77.2
X82.07Y-132.39
X85.23Y-93.94
X87.14Y-113.206
X87.91Y-74.66
X99.55Y-134.93
X100.58Y-77.21
X102.69Y-96.46
X105.9Y-132.39
X106.93Y-74.67
X109.04Y-93.92
X109.36Y-115.7
X115.71Y-113.16
X120.871Y-77.124
X122.971Y-96.664
X127.512Y-75.493
X129.612Y-95.033
X129.731Y-116.854
X136.372Y-115.223
X139.711Y-79.784
X141.871Y-99.294
X143.591Y-138.034
X146.352Y-78.153
X148.512Y-97.663
X148.601Y-119.504
X150.232Y-136.403
X155.242Y-117.873
X158.601Y-82.424
X160.721Y-101.974
X165.242Y-80.793
X167.362Y-100.343
X167.481Y-122.134
X174.122Y-120.503
X174.291Y-142.354
X177.481Y-85.084
X179.541Y-104.644
X180.932Y-140.723
X184.122Y-83.453
X186.182Y-103.013
X186.331Y-124.814
X192.972Y-123.183
X213.314Y-87.34
X213.884Y-125.715
X219.248Y-83.941
X219.818Y-122.316
X220.684Y-105.545
X226.618Y-102.146
X228.334Y-142.985
X232.154Y-84.69
X232.724Y-123.045
X234.268Y-139.586
X238.088Y-81.291
X238.658Y-119.646
X239.564Y-102.895
X245.498Y-99.496
X251.024Y-82.04
X251.644Y-120.425
X256.958Y-78.641
X257.578Y-117.026
X258.434Y-100.225
X261.364Y-138.295
X264.368Y-96.826
X267.298Y-134.896
X269.904Y-79.38
X270.494Y-117.775
X275.838Y-75.981
X276.428Y-114.376
X277.254Y-97.585
X283.188Y-94.186
X290.16Y-77.21
X290.69Y-115.7
X296.51Y-74.67
X297.04Y-113.16
X297.52Y-96.49
X303.87Y-93.95
X309.19Y-77.23
X309.74Y-115.71
X314.8Y-134.93
X315.54Y-74.69
X316.09Y-113.17
X321.15Y-132.39
X328.54Y-96.486
X332.995Y-77.23
X334.89Y-93.946
X335.94Y-115.72
X338.63Y-134.95
X339.345Y-74.69
X342.29Y-113.18
X344.98Y-132.41
T5
X72.662Y-111.301
X96.538Y-111.301
X166.86Y-136.822
X190.504Y-140.144
X219.666Y-139.714
X243.31Y-136.392
X320.412Y-92.041
X344.288Y-92.041
T6
X72.662Y-126.541
X79.53Y-137.47
X82.69Y-99.02
X84.6Y-118.286
X85.37Y-79.74
X96.538Y-126.541
X103.36Y-137.47
X104.39Y-79.75
X106.5Y-99.0
X113.17Y-118.24
X124.29Y-80.17
X126.39Y-99.71
X133.15Y-119.9
X143.13Y-82.83
X145.29Y-102.34
X147.01Y-141.08
X152.02Y-122.55
X162.02Y-85.47
X164.14Y-105.02
X164.739Y-151.913
X170.9Y-125.18
X177.71Y-145.4
X180.9Y-88.13
X182.96Y-107.69
X188.383Y-155.236
X189.75Y-127.86
X217.44Y-89.325
X218.01Y-127.7
X221.787Y-154.806
X224.81Y-107.53
X232.46Y-144.97
X236.28Y-86.675
X236.85Y-125.03
X243.69Y-104.88
X245.431Y-151.483
X255.15Y-84.025
X255.77Y-122.41
X262.56Y-102.21
X265.49Y-140.28
X274.03Y-81.365
X274.62Y-119.76
X281.38Y-99.57
X293.97Y-79.75
X294.5Y-118.24
X301.33Y-99.03
X313.0Y-79.77
X313.55Y-118.25
X318.61Y-137.47
X320.412Y-107.281
X332.35Y-99.026
X336.805Y-79.77
X339.75Y-118.26
X342.44Y-137.49
X344.288Y-107.281
T0
M30
