G04 #@! TF.GenerationSoftware,KiCad,Pcbnew,(5.99.0-9176-ga1730d51ff)*
G04 #@! TF.CreationDate,2021-11-18T23:05:27-06:00*
G04 #@! TF.ProjectId,Concerto,436f6e63-6572-4746-9f2e-6b696361645f,rev?*
G04 #@! TF.SameCoordinates,Original*
G04 #@! TF.FileFunction,Legend,Top*
G04 #@! TF.FilePolarity,Positive*
%FSLAX46Y46*%
G04 Gerber Fmt 4.6, Leading zero omitted, Abs format (unit mm)*
G04 Created by KiCad (PCBNEW (5.99.0-9176-ga1730d51ff)) date 2021-11-18 23:05:27*
%MOMM*%
%LPD*%
G01*
G04 APERTURE LIST*
%ADD10C,0.150000*%
%ADD11C,0.120000*%
%ADD12C,0.381000*%
%ADD13R,1.752600X1.752600*%
%ADD14C,1.752600*%
%ADD15C,1.701800*%
%ADD16C,3.987800*%
%ADD17C,3.000000*%
%ADD18C,2.100000*%
%ADD19C,1.200000*%
%ADD20C,1.750000*%
%ADD21C,3.048000*%
G04 APERTURE END LIST*
D10*
X181711428Y-74172380D02*
X181378095Y-73696190D01*
X181140000Y-74172380D02*
X181140000Y-73172380D01*
X181520952Y-73172380D01*
X181616190Y-73220000D01*
X181663809Y-73267619D01*
X181711428Y-73362857D01*
X181711428Y-73505714D01*
X181663809Y-73600952D01*
X181616190Y-73648571D01*
X181520952Y-73696190D01*
X181140000Y-73696190D01*
X182140000Y-73648571D02*
X182473333Y-73648571D01*
X182616190Y-74172380D02*
X182140000Y-74172380D01*
X182140000Y-73172380D01*
X182616190Y-73172380D01*
X182997142Y-74124761D02*
X183140000Y-74172380D01*
X183378095Y-74172380D01*
X183473333Y-74124761D01*
X183520952Y-74077142D01*
X183568571Y-73981904D01*
X183568571Y-73886666D01*
X183520952Y-73791428D01*
X183473333Y-73743809D01*
X183378095Y-73696190D01*
X183187619Y-73648571D01*
X183092380Y-73600952D01*
X183044761Y-73553333D01*
X182997142Y-73458095D01*
X182997142Y-73362857D01*
X183044761Y-73267619D01*
X183092380Y-73220000D01*
X183187619Y-73172380D01*
X183425714Y-73172380D01*
X183568571Y-73220000D01*
X183997142Y-73648571D02*
X184330476Y-73648571D01*
X184473333Y-74172380D02*
X183997142Y-74172380D01*
X183997142Y-73172380D01*
X184473333Y-73172380D01*
X184759047Y-73172380D02*
X185330476Y-73172380D01*
X185044761Y-74172380D02*
X185044761Y-73172380D01*
X186187619Y-74172380D02*
X185616190Y-74172380D01*
X185901904Y-74172380D02*
X185901904Y-73172380D01*
X185806666Y-73315238D01*
X185711428Y-73410476D01*
X185616190Y-73458095D01*
X203581476Y-76100000D02*
X203505285Y-76061904D01*
X203391000Y-76061904D01*
X203276714Y-76100000D01*
X203200523Y-76176190D01*
X203162428Y-76252380D01*
X203124333Y-76404761D01*
X203124333Y-76519047D01*
X203162428Y-76671428D01*
X203200523Y-76747619D01*
X203276714Y-76823809D01*
X203391000Y-76861904D01*
X203467190Y-76861904D01*
X203581476Y-76823809D01*
X203619571Y-76785714D01*
X203619571Y-76519047D01*
X203467190Y-76519047D01*
X203962428Y-76861904D02*
X203962428Y-76061904D01*
X204419571Y-76861904D01*
X204419571Y-76061904D01*
X204800523Y-76861904D02*
X204800523Y-76061904D01*
X204991000Y-76061904D01*
X205105285Y-76100000D01*
X205181476Y-76176190D01*
X205219571Y-76252380D01*
X205257666Y-76404761D01*
X205257666Y-76519047D01*
X205219571Y-76671428D01*
X205181476Y-76747619D01*
X205105285Y-76823809D01*
X204991000Y-76861904D01*
X204800523Y-76861904D01*
X203600523Y-84481904D02*
X203600523Y-83681904D01*
X203791000Y-83681904D01*
X203905285Y-83720000D01*
X203981476Y-83796190D01*
X204019571Y-83872380D01*
X204057666Y-84024761D01*
X204057666Y-84139047D01*
X204019571Y-84291428D01*
X203981476Y-84367619D01*
X203905285Y-84443809D01*
X203791000Y-84481904D01*
X203600523Y-84481904D01*
X204552904Y-83681904D02*
X204629095Y-83681904D01*
X204705285Y-83720000D01*
X204743380Y-83758095D01*
X204781476Y-83834285D01*
X204819571Y-83986666D01*
X204819571Y-84177142D01*
X204781476Y-84329523D01*
X204743380Y-84405714D01*
X204705285Y-84443809D01*
X204629095Y-84481904D01*
X204552904Y-84481904D01*
X204476714Y-84443809D01*
X204438619Y-84405714D01*
X204400523Y-84329523D01*
X204362428Y-84177142D01*
X204362428Y-83986666D01*
X204400523Y-83834285D01*
X204438619Y-83758095D01*
X204476714Y-83720000D01*
X204552904Y-83681904D01*
X192945190Y-99302857D02*
X193059476Y-99340952D01*
X193097571Y-99379047D01*
X193135666Y-99455238D01*
X193135666Y-99569523D01*
X193097571Y-99645714D01*
X193059476Y-99683809D01*
X192983285Y-99721904D01*
X192678523Y-99721904D01*
X192678523Y-98921904D01*
X192945190Y-98921904D01*
X193021380Y-98960000D01*
X193059476Y-98998095D01*
X193097571Y-99074285D01*
X193097571Y-99150476D01*
X193059476Y-99226666D01*
X193021380Y-99264761D01*
X192945190Y-99302857D01*
X192678523Y-99302857D01*
X193821380Y-98921904D02*
X193669000Y-98921904D01*
X193592809Y-98960000D01*
X193554714Y-98998095D01*
X193478523Y-99112380D01*
X193440428Y-99264761D01*
X193440428Y-99569523D01*
X193478523Y-99645714D01*
X193516619Y-99683809D01*
X193592809Y-99721904D01*
X193745190Y-99721904D01*
X193821380Y-99683809D01*
X193859476Y-99645714D01*
X193897571Y-99569523D01*
X193897571Y-99379047D01*
X193859476Y-99302857D01*
X193821380Y-99264761D01*
X193745190Y-99226666D01*
X193592809Y-99226666D01*
X193516619Y-99264761D01*
X193478523Y-99302857D01*
X193440428Y-99379047D01*
X193156666Y-76803809D02*
X193270952Y-76841904D01*
X193461428Y-76841904D01*
X193537619Y-76803809D01*
X193575714Y-76765714D01*
X193613809Y-76689523D01*
X193613809Y-76613333D01*
X193575714Y-76537142D01*
X193537619Y-76499047D01*
X193461428Y-76460952D01*
X193309047Y-76422857D01*
X193232857Y-76384761D01*
X193194761Y-76346666D01*
X193156666Y-76270476D01*
X193156666Y-76194285D01*
X193194761Y-76118095D01*
X193232857Y-76080000D01*
X193309047Y-76041904D01*
X193499523Y-76041904D01*
X193613809Y-76080000D01*
X193842380Y-76041904D02*
X194299523Y-76041904D01*
X194070952Y-76841904D02*
X194070952Y-76041904D01*
X203600523Y-87021904D02*
X203600523Y-86221904D01*
X203791000Y-86221904D01*
X203905285Y-86260000D01*
X203981476Y-86336190D01*
X204019571Y-86412380D01*
X204057666Y-86564761D01*
X204057666Y-86679047D01*
X204019571Y-86831428D01*
X203981476Y-86907619D01*
X203905285Y-86983809D01*
X203791000Y-87021904D01*
X203600523Y-87021904D01*
X204743380Y-86488571D02*
X204743380Y-87021904D01*
X204552904Y-86183809D02*
X204362428Y-86755238D01*
X204857666Y-86755238D01*
X203600523Y-92101904D02*
X203600523Y-91301904D01*
X203791000Y-91301904D01*
X203905285Y-91340000D01*
X203981476Y-91416190D01*
X204019571Y-91492380D01*
X204057666Y-91644761D01*
X204057666Y-91759047D01*
X204019571Y-91911428D01*
X203981476Y-91987619D01*
X203905285Y-92063809D01*
X203791000Y-92101904D01*
X203600523Y-92101904D01*
X204324333Y-91301904D02*
X204857666Y-91301904D01*
X204514809Y-92101904D01*
X200111395Y-70981904D02*
X200568538Y-70981904D01*
X200339967Y-71781904D02*
X200339967Y-70981904D01*
X200759014Y-70981904D02*
X201292348Y-71781904D01*
X201292348Y-70981904D02*
X200759014Y-71781904D01*
X201749491Y-70981904D02*
X201825681Y-70981904D01*
X201901872Y-71020000D01*
X201939967Y-71058095D01*
X201978062Y-71134285D01*
X202016157Y-71286666D01*
X202016157Y-71477142D01*
X201978062Y-71629523D01*
X201939967Y-71705714D01*
X201901872Y-71743809D01*
X201825681Y-71781904D01*
X201749491Y-71781904D01*
X201673300Y-71743809D01*
X201635205Y-71705714D01*
X201597110Y-71629523D01*
X201559014Y-71477142D01*
X201559014Y-71286666D01*
X201597110Y-71134285D01*
X201635205Y-71058095D01*
X201673300Y-71020000D01*
X201749491Y-70981904D01*
X202930443Y-70943809D02*
X202244729Y-71972380D01*
X203197110Y-71781904D02*
X203197110Y-70981904D01*
X203387586Y-70981904D01*
X203501872Y-71020000D01*
X203578062Y-71096190D01*
X203616157Y-71172380D01*
X203654252Y-71324761D01*
X203654252Y-71439047D01*
X203616157Y-71591428D01*
X203578062Y-71667619D01*
X203501872Y-71743809D01*
X203387586Y-71781904D01*
X203197110Y-71781904D01*
X203920919Y-70981904D02*
X204416157Y-70981904D01*
X204149491Y-71286666D01*
X204263776Y-71286666D01*
X204339967Y-71324761D01*
X204378062Y-71362857D01*
X204416157Y-71439047D01*
X204416157Y-71629523D01*
X204378062Y-71705714D01*
X204339967Y-71743809D01*
X204263776Y-71781904D01*
X204035205Y-71781904D01*
X203959014Y-71743809D01*
X203920919Y-71705714D01*
X193002333Y-89142857D02*
X192735666Y-89142857D01*
X192735666Y-89561904D02*
X192735666Y-88761904D01*
X193116619Y-88761904D01*
X193345190Y-88761904D02*
X193878523Y-88761904D01*
X193535666Y-89561904D01*
X203867190Y-96762857D02*
X203981476Y-96800952D01*
X204019571Y-96839047D01*
X204057666Y-96915238D01*
X204057666Y-97029523D01*
X204019571Y-97105714D01*
X203981476Y-97143809D01*
X203905285Y-97181904D01*
X203600523Y-97181904D01*
X203600523Y-96381904D01*
X203867190Y-96381904D01*
X203943380Y-96420000D01*
X203981476Y-96458095D01*
X204019571Y-96534285D01*
X204019571Y-96610476D01*
X203981476Y-96686666D01*
X203943380Y-96724761D01*
X203867190Y-96762857D01*
X203600523Y-96762857D01*
X204743380Y-96648571D02*
X204743380Y-97181904D01*
X204552904Y-96343809D02*
X204362428Y-96915238D01*
X204857666Y-96915238D01*
X203600523Y-74321904D02*
X203600523Y-73521904D01*
X203791000Y-73521904D01*
X203905285Y-73560000D01*
X203981476Y-73636190D01*
X204019571Y-73712380D01*
X204057666Y-73864761D01*
X204057666Y-73979047D01*
X204019571Y-74131428D01*
X203981476Y-74207619D01*
X203905285Y-74283809D01*
X203791000Y-74321904D01*
X203600523Y-74321904D01*
X204362428Y-73598095D02*
X204400523Y-73560000D01*
X204476714Y-73521904D01*
X204667190Y-73521904D01*
X204743380Y-73560000D01*
X204781476Y-73598095D01*
X204819571Y-73674285D01*
X204819571Y-73750476D01*
X204781476Y-73864761D01*
X204324333Y-74321904D01*
X204819571Y-74321904D01*
X203867190Y-99302857D02*
X203981476Y-99340952D01*
X204019571Y-99379047D01*
X204057666Y-99455238D01*
X204057666Y-99569523D01*
X204019571Y-99645714D01*
X203981476Y-99683809D01*
X203905285Y-99721904D01*
X203600523Y-99721904D01*
X203600523Y-98921904D01*
X203867190Y-98921904D01*
X203943380Y-98960000D01*
X203981476Y-98998095D01*
X204019571Y-99074285D01*
X204019571Y-99150476D01*
X203981476Y-99226666D01*
X203943380Y-99264761D01*
X203867190Y-99302857D01*
X203600523Y-99302857D01*
X204781476Y-98921904D02*
X204400523Y-98921904D01*
X204362428Y-99302857D01*
X204400523Y-99264761D01*
X204476714Y-99226666D01*
X204667190Y-99226666D01*
X204743380Y-99264761D01*
X204781476Y-99302857D01*
X204819571Y-99379047D01*
X204819571Y-99569523D01*
X204781476Y-99645714D01*
X204743380Y-99683809D01*
X204667190Y-99721904D01*
X204476714Y-99721904D01*
X204400523Y-99683809D01*
X204362428Y-99645714D01*
X203600523Y-81941904D02*
X203600523Y-81141904D01*
X203791000Y-81141904D01*
X203905285Y-81180000D01*
X203981476Y-81256190D01*
X204019571Y-81332380D01*
X204057666Y-81484761D01*
X204057666Y-81599047D01*
X204019571Y-81751428D01*
X203981476Y-81827619D01*
X203905285Y-81903809D01*
X203791000Y-81941904D01*
X203600523Y-81941904D01*
X204819571Y-81941904D02*
X204362428Y-81941904D01*
X204591000Y-81941904D02*
X204591000Y-81141904D01*
X204514809Y-81256190D01*
X204438619Y-81332380D01*
X204362428Y-81370476D01*
X192659476Y-73560000D02*
X192583285Y-73521904D01*
X192469000Y-73521904D01*
X192354714Y-73560000D01*
X192278523Y-73636190D01*
X192240428Y-73712380D01*
X192202333Y-73864761D01*
X192202333Y-73979047D01*
X192240428Y-74131428D01*
X192278523Y-74207619D01*
X192354714Y-74283809D01*
X192469000Y-74321904D01*
X192545190Y-74321904D01*
X192659476Y-74283809D01*
X192697571Y-74245714D01*
X192697571Y-73979047D01*
X192545190Y-73979047D01*
X193040428Y-74321904D02*
X193040428Y-73521904D01*
X193497571Y-74321904D01*
X193497571Y-73521904D01*
X193878523Y-74321904D02*
X193878523Y-73521904D01*
X194069000Y-73521904D01*
X194183285Y-73560000D01*
X194259476Y-73636190D01*
X194297571Y-73712380D01*
X194335666Y-73864761D01*
X194335666Y-73979047D01*
X194297571Y-74131428D01*
X194259476Y-74207619D01*
X194183285Y-74283809D01*
X194069000Y-74321904D01*
X193878523Y-74321904D01*
X192945190Y-94222857D02*
X193059476Y-94260952D01*
X193097571Y-94299047D01*
X193135666Y-94375238D01*
X193135666Y-94489523D01*
X193097571Y-94565714D01*
X193059476Y-94603809D01*
X192983285Y-94641904D01*
X192678523Y-94641904D01*
X192678523Y-93841904D01*
X192945190Y-93841904D01*
X193021380Y-93880000D01*
X193059476Y-93918095D01*
X193097571Y-93994285D01*
X193097571Y-94070476D01*
X193059476Y-94146666D01*
X193021380Y-94184761D01*
X192945190Y-94222857D01*
X192678523Y-94222857D01*
X193402333Y-93841904D02*
X193897571Y-93841904D01*
X193630904Y-94146666D01*
X193745190Y-94146666D01*
X193821380Y-94184761D01*
X193859476Y-94222857D01*
X193897571Y-94299047D01*
X193897571Y-94489523D01*
X193859476Y-94565714D01*
X193821380Y-94603809D01*
X193745190Y-94641904D01*
X193516619Y-94641904D01*
X193440428Y-94603809D01*
X193402333Y-94565714D01*
X204057666Y-89485714D02*
X204019571Y-89523809D01*
X203905285Y-89561904D01*
X203829095Y-89561904D01*
X203714809Y-89523809D01*
X203638619Y-89447619D01*
X203600523Y-89371428D01*
X203562428Y-89219047D01*
X203562428Y-89104761D01*
X203600523Y-88952380D01*
X203638619Y-88876190D01*
X203714809Y-88800000D01*
X203829095Y-88761904D01*
X203905285Y-88761904D01*
X204019571Y-88800000D01*
X204057666Y-88838095D01*
X204743380Y-88761904D02*
X204591000Y-88761904D01*
X204514809Y-88800000D01*
X204476714Y-88838095D01*
X204400523Y-88952380D01*
X204362428Y-89104761D01*
X204362428Y-89409523D01*
X204400523Y-89485714D01*
X204438619Y-89523809D01*
X204514809Y-89561904D01*
X204667190Y-89561904D01*
X204743380Y-89523809D01*
X204781476Y-89485714D01*
X204819571Y-89409523D01*
X204819571Y-89219047D01*
X204781476Y-89142857D01*
X204743380Y-89104761D01*
X204667190Y-89066666D01*
X204514809Y-89066666D01*
X204438619Y-89104761D01*
X204400523Y-89142857D01*
X204362428Y-89219047D01*
X193002333Y-84062857D02*
X192735666Y-84062857D01*
X192735666Y-84481904D02*
X192735666Y-83681904D01*
X193116619Y-83681904D01*
X193802333Y-83681904D02*
X193421380Y-83681904D01*
X193383285Y-84062857D01*
X193421380Y-84024761D01*
X193497571Y-83986666D01*
X193688047Y-83986666D01*
X193764238Y-84024761D01*
X193802333Y-84062857D01*
X193840428Y-84139047D01*
X193840428Y-84329523D01*
X193802333Y-84405714D01*
X193764238Y-84443809D01*
X193688047Y-84481904D01*
X193497571Y-84481904D01*
X193421380Y-84443809D01*
X193383285Y-84405714D01*
X192945190Y-91682857D02*
X193059476Y-91720952D01*
X193097571Y-91759047D01*
X193135666Y-91835238D01*
X193135666Y-91949523D01*
X193097571Y-92025714D01*
X193059476Y-92063809D01*
X192983285Y-92101904D01*
X192678523Y-92101904D01*
X192678523Y-91301904D01*
X192945190Y-91301904D01*
X193021380Y-91340000D01*
X193059476Y-91378095D01*
X193097571Y-91454285D01*
X193097571Y-91530476D01*
X193059476Y-91606666D01*
X193021380Y-91644761D01*
X192945190Y-91682857D01*
X192678523Y-91682857D01*
X193897571Y-92101904D02*
X193440428Y-92101904D01*
X193669000Y-92101904D02*
X193669000Y-91301904D01*
X193592809Y-91416190D01*
X193516619Y-91492380D01*
X193440428Y-91530476D01*
X192945190Y-96762857D02*
X193059476Y-96800952D01*
X193097571Y-96839047D01*
X193135666Y-96915238D01*
X193135666Y-97029523D01*
X193097571Y-97105714D01*
X193059476Y-97143809D01*
X192983285Y-97181904D01*
X192678523Y-97181904D01*
X192678523Y-96381904D01*
X192945190Y-96381904D01*
X193021380Y-96420000D01*
X193059476Y-96458095D01*
X193097571Y-96534285D01*
X193097571Y-96610476D01*
X193059476Y-96686666D01*
X193021380Y-96724761D01*
X192945190Y-96762857D01*
X192678523Y-96762857D01*
X193440428Y-96458095D02*
X193478523Y-96420000D01*
X193554714Y-96381904D01*
X193745190Y-96381904D01*
X193821380Y-96420000D01*
X193859476Y-96458095D01*
X193897571Y-96534285D01*
X193897571Y-96610476D01*
X193859476Y-96724761D01*
X193402333Y-97181904D01*
X193897571Y-97181904D01*
X192716619Y-71781904D02*
X192449952Y-71400952D01*
X192259476Y-71781904D02*
X192259476Y-70981904D01*
X192564238Y-70981904D01*
X192640428Y-71020000D01*
X192678523Y-71058095D01*
X192716619Y-71134285D01*
X192716619Y-71248571D01*
X192678523Y-71324761D01*
X192640428Y-71362857D01*
X192564238Y-71400952D01*
X192259476Y-71400952D01*
X193021380Y-71553333D02*
X193402333Y-71553333D01*
X192945190Y-71781904D02*
X193211857Y-70981904D01*
X193478523Y-71781904D01*
X193669000Y-70981904D02*
X193859476Y-71781904D01*
X194011857Y-71210476D01*
X194164238Y-71781904D01*
X194354714Y-70981904D01*
X192202333Y-78601904D02*
X192469000Y-79401904D01*
X192735666Y-78601904D01*
X193459476Y-79325714D02*
X193421380Y-79363809D01*
X193307095Y-79401904D01*
X193230904Y-79401904D01*
X193116619Y-79363809D01*
X193040428Y-79287619D01*
X193002333Y-79211428D01*
X192964238Y-79059047D01*
X192964238Y-78944761D01*
X193002333Y-78792380D01*
X193040428Y-78716190D01*
X193116619Y-78640000D01*
X193230904Y-78601904D01*
X193307095Y-78601904D01*
X193421380Y-78640000D01*
X193459476Y-78678095D01*
X194259476Y-79325714D02*
X194221380Y-79363809D01*
X194107095Y-79401904D01*
X194030904Y-79401904D01*
X193916619Y-79363809D01*
X193840428Y-79287619D01*
X193802333Y-79211428D01*
X193764238Y-79059047D01*
X193764238Y-78944761D01*
X193802333Y-78792380D01*
X193840428Y-78716190D01*
X193916619Y-78640000D01*
X194030904Y-78601904D01*
X194107095Y-78601904D01*
X194221380Y-78640000D01*
X194259476Y-78678095D01*
X193002333Y-86602857D02*
X192735666Y-86602857D01*
X192735666Y-87021904D02*
X192735666Y-86221904D01*
X193116619Y-86221904D01*
X193764238Y-86221904D02*
X193611857Y-86221904D01*
X193535666Y-86260000D01*
X193497571Y-86298095D01*
X193421380Y-86412380D01*
X193383285Y-86564761D01*
X193383285Y-86869523D01*
X193421380Y-86945714D01*
X193459476Y-86983809D01*
X193535666Y-87021904D01*
X193688047Y-87021904D01*
X193764238Y-86983809D01*
X193802333Y-86945714D01*
X193840428Y-86869523D01*
X193840428Y-86679047D01*
X193802333Y-86602857D01*
X193764238Y-86564761D01*
X193688047Y-86526666D01*
X193535666Y-86526666D01*
X193459476Y-86564761D01*
X193421380Y-86602857D01*
X193383285Y-86679047D01*
X203638619Y-94222857D02*
X203905285Y-94222857D01*
X204019571Y-94641904D02*
X203638619Y-94641904D01*
X203638619Y-93841904D01*
X204019571Y-93841904D01*
X204705285Y-93841904D02*
X204552904Y-93841904D01*
X204476714Y-93880000D01*
X204438619Y-93918095D01*
X204362428Y-94032380D01*
X204324333Y-94184761D01*
X204324333Y-94489523D01*
X204362428Y-94565714D01*
X204400523Y-94603809D01*
X204476714Y-94641904D01*
X204629095Y-94641904D01*
X204705285Y-94603809D01*
X204743380Y-94565714D01*
X204781476Y-94489523D01*
X204781476Y-94299047D01*
X204743380Y-94222857D01*
X204705285Y-94184761D01*
X204629095Y-94146666D01*
X204476714Y-94146666D01*
X204400523Y-94184761D01*
X204362428Y-94222857D01*
X204324333Y-94299047D01*
X203581476Y-78640000D02*
X203505285Y-78601904D01*
X203391000Y-78601904D01*
X203276714Y-78640000D01*
X203200523Y-78716190D01*
X203162428Y-78792380D01*
X203124333Y-78944761D01*
X203124333Y-79059047D01*
X203162428Y-79211428D01*
X203200523Y-79287619D01*
X203276714Y-79363809D01*
X203391000Y-79401904D01*
X203467190Y-79401904D01*
X203581476Y-79363809D01*
X203619571Y-79325714D01*
X203619571Y-79059047D01*
X203467190Y-79059047D01*
X203962428Y-79401904D02*
X203962428Y-78601904D01*
X204419571Y-79401904D01*
X204419571Y-78601904D01*
X204800523Y-79401904D02*
X204800523Y-78601904D01*
X204991000Y-78601904D01*
X205105285Y-78640000D01*
X205181476Y-78716190D01*
X205219571Y-78792380D01*
X205257666Y-78944761D01*
X205257666Y-79059047D01*
X205219571Y-79211428D01*
X205181476Y-79287619D01*
X205105285Y-79363809D01*
X204991000Y-79401904D01*
X204800523Y-79401904D01*
X193002333Y-81522857D02*
X192735666Y-81522857D01*
X192735666Y-81941904D02*
X192735666Y-81141904D01*
X193116619Y-81141904D01*
X193764238Y-81408571D02*
X193764238Y-81941904D01*
X193573761Y-81103809D02*
X193383285Y-81675238D01*
X193878523Y-81675238D01*
X288500000Y-111240000D02*
X287500000Y-111240000D01*
X287500000Y-112240000D02*
X287500000Y-111240000D01*
X300500000Y-125240000D02*
X301500000Y-125240000D01*
X287500000Y-125240000D02*
X287500000Y-124240000D01*
X287500000Y-125240000D02*
X288500000Y-125240000D01*
X301500000Y-124240000D02*
X301500000Y-125240000D01*
X301500000Y-111240000D02*
X300500000Y-111240000D01*
X301500000Y-111240000D02*
X301500000Y-112240000D01*
X137383912Y-108297665D02*
X138374180Y-108436838D01*
X137383912Y-108297665D02*
X137523085Y-107307397D01*
X139193162Y-95424180D02*
X139332335Y-94433912D01*
X140322603Y-94573085D02*
X139332335Y-94433912D01*
X153196088Y-96382335D02*
X152205820Y-96243162D01*
X150257397Y-110106915D02*
X151247665Y-110246088D01*
X151386838Y-109255820D02*
X151247665Y-110246088D01*
X153196088Y-96382335D02*
X153056915Y-97372603D01*
D11*
X186325000Y-70592500D02*
X186865000Y-70592500D01*
X180185000Y-70592500D02*
X180725000Y-70592500D01*
X186865000Y-70592500D02*
X186865000Y-70822500D01*
X180185000Y-70592500D02*
X180185000Y-70822500D01*
X181825000Y-70592500D02*
X185225000Y-70592500D01*
X179665000Y-66922500D02*
X187385000Y-66922500D01*
X187385000Y-66922500D02*
X187385000Y-70822500D01*
X179665000Y-66922500D02*
X179665000Y-70822500D01*
D10*
X169926088Y-79512335D02*
X169786915Y-80502603D01*
X168116838Y-92385820D02*
X167977665Y-93376088D01*
X154113912Y-91427665D02*
X154253085Y-90437397D01*
X155923162Y-78554180D02*
X156062335Y-77563912D01*
X154113912Y-91427665D02*
X155104180Y-91566838D01*
X157052603Y-77703085D02*
X156062335Y-77563912D01*
X169926088Y-79512335D02*
X168935820Y-79373162D01*
X166987397Y-93236915D02*
X167977665Y-93376088D01*
X244616915Y-129997397D02*
X244756088Y-130987665D01*
X243765820Y-131126838D02*
X244756088Y-130987665D01*
X229934180Y-118933162D02*
X228943912Y-119072335D01*
X242807665Y-117123912D02*
X241817397Y-117263085D01*
X230892335Y-132936088D02*
X230753162Y-131945820D01*
X242807665Y-117123912D02*
X242946838Y-118114180D01*
X230892335Y-132936088D02*
X231882603Y-132796915D01*
X229083085Y-120062603D02*
X228943912Y-119072335D01*
X99500000Y-106000000D02*
X99500000Y-105000000D01*
X113500000Y-92000000D02*
X113500000Y-93000000D01*
X113500000Y-105000000D02*
X113500000Y-106000000D01*
X99500000Y-106000000D02*
X100500000Y-106000000D01*
X100500000Y-92000000D02*
X99500000Y-92000000D01*
X112500000Y-106000000D02*
X113500000Y-106000000D01*
X113500000Y-92000000D02*
X112500000Y-92000000D01*
X99500000Y-93000000D02*
X99500000Y-92000000D01*
X86530000Y-143470000D02*
X86530000Y-144470000D01*
X85530000Y-144470000D02*
X86530000Y-144470000D01*
X86530000Y-130470000D02*
X85530000Y-130470000D01*
X73530000Y-130470000D02*
X72530000Y-130470000D01*
X72530000Y-144470000D02*
X73530000Y-144470000D01*
X72530000Y-144470000D02*
X72530000Y-143470000D01*
X86530000Y-130470000D02*
X86530000Y-131470000D01*
X72530000Y-131470000D02*
X72530000Y-130470000D01*
X181843912Y-133817665D02*
X181983085Y-132827397D01*
X183653162Y-120944180D02*
X183792335Y-119953912D01*
X195846838Y-134775820D02*
X195707665Y-135766088D01*
X197656088Y-121902335D02*
X196665820Y-121763162D01*
X197656088Y-121902335D02*
X197516915Y-122892603D01*
X194717397Y-135626915D02*
X195707665Y-135766088D01*
X184782603Y-120093085D02*
X183792335Y-119953912D01*
X181843912Y-133817665D02*
X182834180Y-133956838D01*
X268517665Y-94303912D02*
X267527397Y-94443085D01*
X254793085Y-97242603D02*
X254653912Y-96252335D01*
X268517665Y-94303912D02*
X268656838Y-95294180D01*
X255644180Y-96113162D02*
X254653912Y-96252335D01*
X269475820Y-108306838D02*
X270466088Y-108167665D01*
X256602335Y-110116088D02*
X256463162Y-109125820D01*
X256602335Y-110116088D02*
X257592603Y-109976915D01*
X270326915Y-107177397D02*
X270466088Y-108167665D01*
X175053912Y-113647665D02*
X175193085Y-112657397D01*
X187927397Y-115456915D02*
X188917665Y-115596088D01*
X175053912Y-113647665D02*
X176044180Y-113786838D01*
X190866088Y-101732335D02*
X190726915Y-102722603D01*
X176863162Y-100774180D02*
X177002335Y-99783912D01*
X189056838Y-114605820D02*
X188917665Y-115596088D01*
X177992603Y-99923085D02*
X177002335Y-99783912D01*
X190866088Y-101732335D02*
X189875820Y-101593162D01*
X250605820Y-110976838D02*
X251596088Y-110837665D01*
X249647665Y-96973912D02*
X249786838Y-97964180D01*
X237732335Y-112786088D02*
X237593162Y-111795820D01*
X249647665Y-96973912D02*
X248657397Y-97113085D01*
X251456915Y-109847397D02*
X251596088Y-110837665D01*
X236774180Y-98783162D02*
X235783912Y-98922335D01*
X235923085Y-99912603D02*
X235783912Y-98922335D01*
X237732335Y-112786088D02*
X238722603Y-112646915D01*
X212052335Y-135606088D02*
X211913162Y-134615820D01*
X223967665Y-119793912D02*
X224106838Y-120784180D01*
X224925820Y-133796838D02*
X225916088Y-133657665D01*
X225776915Y-132667397D02*
X225916088Y-133657665D01*
X212052335Y-135606088D02*
X213042603Y-135466915D01*
X210243085Y-122732603D02*
X210103912Y-121742335D01*
X223967665Y-119793912D02*
X222977397Y-119933085D01*
X211094180Y-121603162D02*
X210103912Y-121742335D01*
X97390000Y-86750000D02*
X97390000Y-85750000D01*
X97390000Y-73750000D02*
X97390000Y-72750000D01*
X111390000Y-72750000D02*
X111390000Y-73750000D01*
X97390000Y-86750000D02*
X98390000Y-86750000D01*
X111390000Y-85750000D02*
X111390000Y-86750000D01*
X111390000Y-72750000D02*
X110390000Y-72750000D01*
X110390000Y-86750000D02*
X111390000Y-86750000D01*
X98390000Y-72750000D02*
X97390000Y-72750000D01*
X165932603Y-117413085D02*
X164942335Y-117273912D01*
X176996838Y-132095820D02*
X176857665Y-133086088D01*
X178806088Y-119222335D02*
X177815820Y-119083162D01*
X162993912Y-131137665D02*
X163133085Y-130147397D01*
X162993912Y-131137665D02*
X163984180Y-131276838D01*
X175867397Y-132946915D02*
X176857665Y-133086088D01*
X178806088Y-119222335D02*
X178666915Y-120212603D01*
X164803162Y-118264180D02*
X164942335Y-117273912D01*
X158116838Y-129465820D02*
X157977665Y-130456088D01*
X159926088Y-116592335D02*
X158935820Y-116453162D01*
X144113912Y-128507665D02*
X145104180Y-128646838D01*
X156987397Y-130316915D02*
X157977665Y-130456088D01*
X145923162Y-115634180D02*
X146062335Y-114643912D01*
X159926088Y-116592335D02*
X159786915Y-117582603D01*
X144113912Y-128507665D02*
X144253085Y-127517397D01*
X147052603Y-114783085D02*
X146062335Y-114643912D01*
X273613085Y-94602603D02*
X273473912Y-93612335D01*
X289146915Y-104537397D02*
X289286088Y-105527665D01*
X287337665Y-91663912D02*
X286347397Y-91803085D01*
X288295820Y-105666838D02*
X289286088Y-105527665D01*
X287337665Y-91663912D02*
X287476838Y-92654180D01*
X274464180Y-93473162D02*
X273473912Y-93612335D01*
X275422335Y-107476088D02*
X275283162Y-106485820D01*
X275422335Y-107476088D02*
X276412603Y-107336915D01*
X107170000Y-111240000D02*
X106170000Y-111240000D01*
X120170000Y-111240000D02*
X120170000Y-112240000D01*
X119170000Y-125240000D02*
X120170000Y-125240000D01*
X106170000Y-125240000D02*
X107170000Y-125240000D01*
X106170000Y-112240000D02*
X106170000Y-111240000D01*
X120170000Y-124240000D02*
X120170000Y-125240000D01*
X120170000Y-111240000D02*
X119170000Y-111240000D01*
X106170000Y-125240000D02*
X106170000Y-124240000D01*
X349440000Y-143490000D02*
X349440000Y-144490000D01*
X335440000Y-131490000D02*
X335440000Y-130490000D01*
X349440000Y-130490000D02*
X348440000Y-130490000D01*
X335440000Y-144490000D02*
X336440000Y-144490000D01*
X348440000Y-144490000D02*
X349440000Y-144490000D01*
X335440000Y-144490000D02*
X335440000Y-143490000D01*
X336440000Y-130490000D02*
X335440000Y-130490000D01*
X349440000Y-130490000D02*
X349440000Y-131490000D01*
X188806088Y-82172335D02*
X187815820Y-82033162D01*
X175932603Y-80363085D02*
X174942335Y-80223912D01*
X188806088Y-82172335D02*
X188666915Y-83162603D01*
X172993912Y-94087665D02*
X173133085Y-93097397D01*
X174803162Y-81214180D02*
X174942335Y-80223912D01*
X185867397Y-95896915D02*
X186857665Y-96036088D01*
X172993912Y-94087665D02*
X173984180Y-94226838D01*
X186996838Y-95045820D02*
X186857665Y-96036088D01*
X127053162Y-112984180D02*
X127192335Y-111993912D01*
X141056088Y-113942335D02*
X140916915Y-114932603D01*
X125243912Y-125857665D02*
X125383085Y-124867397D01*
X141056088Y-113942335D02*
X140065820Y-113803162D01*
X128182603Y-112133085D02*
X127192335Y-111993912D01*
X138117397Y-127666915D02*
X139107665Y-127806088D01*
X125243912Y-125857665D02*
X126234180Y-125996838D01*
X139246838Y-126815820D02*
X139107665Y-127806088D01*
X259532335Y-148186089D02*
X259393162Y-147195821D01*
X272405820Y-146376839D02*
X273396088Y-146237666D01*
X258574180Y-134183163D02*
X257583912Y-134322336D01*
X259532335Y-148186089D02*
X260522603Y-148046916D01*
X257723085Y-135312604D02*
X257583912Y-134322336D01*
X271447665Y-132373913D02*
X270457397Y-132513086D01*
X273256915Y-145247398D02*
X273396088Y-146237666D01*
X271447665Y-132373913D02*
X271586838Y-133364181D01*
X134296088Y-93752335D02*
X133305820Y-93613162D01*
X132486838Y-106625820D02*
X132347665Y-107616088D01*
X118483912Y-105667665D02*
X119474180Y-105806838D01*
X134296088Y-93752335D02*
X134156915Y-94742603D01*
X131357397Y-107476915D02*
X132347665Y-107616088D01*
X118483912Y-105667665D02*
X118623085Y-104677397D01*
X120293162Y-92794180D02*
X120432335Y-91803912D01*
X121422603Y-91943085D02*
X120432335Y-91803912D01*
X217894180Y-101433162D02*
X216903912Y-101572335D01*
X230767665Y-99623912D02*
X230906838Y-100614180D01*
X218852335Y-115436088D02*
X219842603Y-115296915D01*
X230767665Y-99623912D02*
X229777397Y-99763085D01*
X218852335Y-115436088D02*
X218713162Y-114445820D01*
X232576915Y-112497397D02*
X232716088Y-113487665D01*
X217043085Y-102562603D02*
X216903912Y-101572335D01*
X231725820Y-113626838D02*
X232716088Y-113487665D01*
X135223912Y-88787665D02*
X136214180Y-88926838D01*
X151036088Y-76872335D02*
X150045820Y-76733162D01*
X137033162Y-75914180D02*
X137172335Y-74923912D01*
X138162603Y-75063085D02*
X137172335Y-74923912D01*
X135223912Y-88787665D02*
X135363085Y-87797397D01*
X149226838Y-89745820D02*
X149087665Y-90736088D01*
X148097397Y-90596915D02*
X149087665Y-90736088D01*
X151036088Y-76872335D02*
X150896915Y-77862603D01*
X110360000Y-130470000D02*
X110360000Y-131470000D01*
X96360000Y-144470000D02*
X97360000Y-144470000D01*
X109360000Y-144470000D02*
X110360000Y-144470000D01*
X110360000Y-143470000D02*
X110360000Y-144470000D01*
X110360000Y-130470000D02*
X109360000Y-130470000D01*
X96360000Y-144470000D02*
X96360000Y-143470000D01*
X96360000Y-131470000D02*
X96360000Y-130470000D01*
X97360000Y-130470000D02*
X96360000Y-130470000D01*
X319000000Y-86770000D02*
X320000000Y-86770000D01*
X320000000Y-72770000D02*
X319000000Y-72770000D01*
X320000000Y-72770000D02*
X320000000Y-73770000D01*
X306000000Y-73770000D02*
X306000000Y-72770000D01*
X307000000Y-72770000D02*
X306000000Y-72770000D01*
X306000000Y-86770000D02*
X306000000Y-85770000D01*
X320000000Y-85770000D02*
X320000000Y-86770000D01*
X306000000Y-86770000D02*
X307000000Y-86770000D01*
X230322335Y-94581119D02*
X230183162Y-93590851D01*
X242237665Y-78768943D02*
X241247397Y-78908116D01*
X228513085Y-81707634D02*
X228373912Y-80717366D01*
X230322335Y-94581119D02*
X231312603Y-94441946D01*
X244046915Y-91642428D02*
X244186088Y-92632696D01*
X242237665Y-78768943D02*
X242376838Y-79759211D01*
X229364180Y-80578193D02*
X228373912Y-80717366D01*
X243195820Y-92771869D02*
X244186088Y-92632696D01*
X286970000Y-86750000D02*
X286970000Y-85750000D01*
X286970000Y-86750000D02*
X287970000Y-86750000D01*
X299970000Y-86750000D02*
X300970000Y-86750000D01*
X300970000Y-72750000D02*
X299970000Y-72750000D01*
X286970000Y-73750000D02*
X286970000Y-72750000D01*
X300970000Y-85750000D02*
X300970000Y-86750000D01*
X300970000Y-72750000D02*
X300970000Y-73750000D01*
X287970000Y-72750000D02*
X286970000Y-72750000D01*
X211482335Y-97231119D02*
X212472603Y-97091946D01*
X210524180Y-83228193D02*
X209533912Y-83367366D01*
X223397665Y-81418943D02*
X222407397Y-81558116D01*
X209673085Y-84357634D02*
X209533912Y-83367366D01*
X225206915Y-94292428D02*
X225346088Y-95282696D01*
X224355820Y-95421869D02*
X225346088Y-95282696D01*
X211482335Y-97231119D02*
X211343162Y-96240851D01*
X223397665Y-81418943D02*
X223536838Y-82409211D01*
X119322603Y-72403085D02*
X118332335Y-72263912D01*
X132196088Y-74212335D02*
X131205820Y-74073162D01*
X132196088Y-74212335D02*
X132056915Y-75202603D01*
X130386838Y-87085820D02*
X130247665Y-88076088D01*
X129257397Y-87936915D02*
X130247665Y-88076088D01*
X118193162Y-73254180D02*
X118332335Y-72263912D01*
X116383912Y-86127665D02*
X117374180Y-86266838D01*
X116383912Y-86127665D02*
X116523085Y-85137397D01*
X172046088Y-99062335D02*
X171055820Y-98923162D01*
X156233912Y-110977665D02*
X157224180Y-111116838D01*
X158043162Y-98104180D02*
X158182335Y-97113912D01*
X159172603Y-97253085D02*
X158182335Y-97113912D01*
X156233912Y-110977665D02*
X156373085Y-109987397D01*
X172046088Y-99062335D02*
X171906915Y-100052603D01*
X170236838Y-111935820D02*
X170097665Y-112926088D01*
X169107397Y-112786915D02*
X170097665Y-112926088D01*
X311610000Y-144470000D02*
X311610000Y-143470000D01*
X325610000Y-143470000D02*
X325610000Y-144470000D01*
X311610000Y-144470000D02*
X312610000Y-144470000D01*
X324610000Y-144470000D02*
X325610000Y-144470000D01*
X311610000Y-131470000D02*
X311610000Y-130470000D01*
X325610000Y-130470000D02*
X324610000Y-130470000D01*
X312610000Y-130470000D02*
X311610000Y-130470000D01*
X325610000Y-130470000D02*
X325610000Y-131470000D01*
X248854180Y-116313162D02*
X247863912Y-116452335D01*
X263536915Y-127377397D02*
X263676088Y-128367665D01*
X261727665Y-114503912D02*
X261866838Y-115494180D01*
X262685820Y-128506838D02*
X263676088Y-128367665D01*
X248003085Y-117442603D02*
X247863912Y-116452335D01*
X261727665Y-114503912D02*
X260737397Y-114643085D01*
X249812335Y-130316088D02*
X249673162Y-129325820D01*
X249812335Y-130316088D02*
X250802603Y-130176915D01*
X151977397Y-148846915D02*
X152967665Y-148986088D01*
X154916088Y-135122335D02*
X153925820Y-134983162D01*
X153106838Y-147995820D02*
X152967665Y-148986088D01*
X139103912Y-147037665D02*
X140094180Y-147176838D01*
X154916088Y-135122335D02*
X154776915Y-136112603D01*
X140913162Y-134164180D02*
X141052335Y-133173912D01*
X139103912Y-147037665D02*
X139243085Y-146047397D01*
X142042603Y-133313085D02*
X141052335Y-133173912D01*
X279987665Y-73458943D02*
X278997397Y-73598116D01*
X266263085Y-76397634D02*
X266123912Y-75407366D01*
X268072335Y-89271119D02*
X267933162Y-88280851D01*
X281796915Y-86332428D02*
X281936088Y-87322696D01*
X267114180Y-75268193D02*
X266123912Y-75407366D01*
X280945820Y-87461869D02*
X281936088Y-87322696D01*
X268072335Y-89271119D02*
X269062603Y-89131946D01*
X279987665Y-73458943D02*
X280126838Y-74449211D01*
X329805000Y-73770000D02*
X329805000Y-72770000D01*
X343805000Y-72770000D02*
X343805000Y-73770000D01*
X343805000Y-85770000D02*
X343805000Y-86770000D01*
X343805000Y-72770000D02*
X342805000Y-72770000D01*
X330805000Y-72770000D02*
X329805000Y-72770000D01*
X329805000Y-86770000D02*
X330805000Y-86770000D01*
X342805000Y-86770000D02*
X343805000Y-86770000D01*
X329805000Y-86770000D02*
X329805000Y-85770000D01*
X294330000Y-93030000D02*
X294330000Y-92030000D01*
X295330000Y-92030000D02*
X294330000Y-92030000D01*
X294330000Y-106030000D02*
X295330000Y-106030000D01*
X307330000Y-106030000D02*
X308330000Y-106030000D01*
X308330000Y-92030000D02*
X307330000Y-92030000D01*
X308330000Y-105030000D02*
X308330000Y-106030000D01*
X308330000Y-92030000D02*
X308330000Y-93030000D01*
X294330000Y-106030000D02*
X294330000Y-105030000D01*
X247383085Y-79057634D02*
X247243912Y-78067366D01*
X262916915Y-88992428D02*
X263056088Y-89982696D01*
X248234180Y-77928193D02*
X247243912Y-78067366D01*
X261107665Y-76118943D02*
X261246838Y-77109211D01*
X261107665Y-76118943D02*
X260117397Y-76258116D01*
X249192335Y-91931119D02*
X250182603Y-91791946D01*
X262065820Y-90121869D02*
X263056088Y-89982696D01*
X249192335Y-91931119D02*
X249053162Y-90940851D01*
X76690000Y-92020000D02*
X75690000Y-92020000D01*
X89690000Y-92020000D02*
X88690000Y-92020000D01*
X88690000Y-106020000D02*
X89690000Y-106020000D01*
X75690000Y-106020000D02*
X76690000Y-106020000D01*
X89690000Y-105020000D02*
X89690000Y-106020000D01*
X75690000Y-93020000D02*
X75690000Y-92020000D01*
X75690000Y-106020000D02*
X75690000Y-105020000D01*
X89690000Y-92020000D02*
X89690000Y-93020000D01*
X78370000Y-86740000D02*
X78370000Y-85740000D01*
X78370000Y-86740000D02*
X79370000Y-86740000D01*
X92370000Y-72740000D02*
X91370000Y-72740000D01*
X92370000Y-85740000D02*
X92370000Y-86740000D01*
X92370000Y-72740000D02*
X92370000Y-73740000D01*
X79370000Y-72740000D02*
X78370000Y-72740000D01*
X91370000Y-86740000D02*
X92370000Y-86740000D01*
X78370000Y-73740000D02*
X78370000Y-72740000D01*
X346750000Y-124260000D02*
X346750000Y-125260000D01*
X345750000Y-125260000D02*
X346750000Y-125260000D01*
X332750000Y-125260000D02*
X332750000Y-124260000D01*
X346750000Y-111260000D02*
X345750000Y-111260000D01*
X346750000Y-111260000D02*
X346750000Y-112260000D01*
X332750000Y-125260000D02*
X333750000Y-125260000D01*
X333750000Y-111260000D02*
X332750000Y-111260000D01*
X332750000Y-112260000D02*
X332750000Y-111260000D01*
X281535820Y-125856838D02*
X282526088Y-125717665D01*
X268662335Y-127666088D02*
X268523162Y-126675820D01*
X280577665Y-111853912D02*
X280716838Y-112844180D01*
X266853085Y-114792603D02*
X266713912Y-113802335D01*
X268662335Y-127666088D02*
X269652603Y-127526915D01*
X280577665Y-111853912D02*
X279587397Y-111993085D01*
X267704180Y-113663162D02*
X266713912Y-113802335D01*
X282386915Y-124727397D02*
X282526088Y-125717665D01*
X319550000Y-125250000D02*
X320550000Y-125250000D01*
X306550000Y-112250000D02*
X306550000Y-111250000D01*
X320550000Y-111250000D02*
X320550000Y-112250000D01*
X320550000Y-111250000D02*
X319550000Y-111250000D01*
X306550000Y-125250000D02*
X306550000Y-124250000D01*
X320550000Y-124250000D02*
X320550000Y-125250000D01*
X306550000Y-125250000D02*
X307550000Y-125250000D01*
X307550000Y-111250000D02*
X306550000Y-111250000D01*
D12*
X189840000Y-67610000D02*
X207620000Y-67610000D01*
X205080000Y-70150000D02*
X205080000Y-72690000D01*
X205080000Y-72690000D02*
X207620000Y-72690000D01*
X207620000Y-67610000D02*
X207620000Y-100630000D01*
X189840000Y-100630000D02*
X189840000Y-67610000D01*
X207620000Y-100630000D02*
X189840000Y-100630000D01*
X205080000Y-70150000D02*
X207620000Y-70150000D01*
D10*
X192885365Y-76639030D02*
X192885365Y-76839030D01*
X192885365Y-76839030D02*
X192785365Y-76839030D01*
X192785365Y-76839030D02*
X192785365Y-76639030D01*
X192785365Y-76639030D02*
X192885365Y-76639030D01*
G36*
X192885365Y-76839030D02*
G01*
X192785365Y-76839030D01*
X192785365Y-76639030D01*
X192885365Y-76639030D01*
X192885365Y-76839030D01*
G37*
X192885365Y-76839030D02*
X192785365Y-76839030D01*
X192785365Y-76639030D01*
X192885365Y-76639030D01*
X192885365Y-76839030D01*
X192885365Y-76039030D02*
X192885365Y-76139030D01*
X192885365Y-76139030D02*
X192385365Y-76139030D01*
X192385365Y-76139030D02*
X192385365Y-76039030D01*
X192385365Y-76039030D02*
X192885365Y-76039030D01*
G36*
X192885365Y-76139030D02*
G01*
X192385365Y-76139030D01*
X192385365Y-76039030D01*
X192885365Y-76039030D01*
X192885365Y-76139030D01*
G37*
X192885365Y-76139030D02*
X192385365Y-76139030D01*
X192385365Y-76039030D01*
X192885365Y-76039030D01*
X192885365Y-76139030D01*
X192685365Y-76439030D02*
X192685365Y-76539030D01*
X192685365Y-76539030D02*
X192585365Y-76539030D01*
X192585365Y-76539030D02*
X192585365Y-76439030D01*
X192585365Y-76439030D02*
X192685365Y-76439030D01*
G36*
X192685365Y-76539030D02*
G01*
X192585365Y-76539030D01*
X192585365Y-76439030D01*
X192685365Y-76439030D01*
X192685365Y-76539030D01*
G37*
X192685365Y-76539030D02*
X192585365Y-76539030D01*
X192585365Y-76439030D01*
X192685365Y-76439030D01*
X192685365Y-76539030D01*
X192885365Y-76039030D02*
X192885365Y-76339030D01*
X192885365Y-76339030D02*
X192785365Y-76339030D01*
X192785365Y-76339030D02*
X192785365Y-76039030D01*
X192785365Y-76039030D02*
X192885365Y-76039030D01*
G36*
X192885365Y-76339030D02*
G01*
X192785365Y-76339030D01*
X192785365Y-76039030D01*
X192885365Y-76039030D01*
X192885365Y-76339030D01*
G37*
X192885365Y-76339030D02*
X192785365Y-76339030D01*
X192785365Y-76039030D01*
X192885365Y-76039030D01*
X192885365Y-76339030D01*
X192485365Y-76039030D02*
X192485365Y-76839030D01*
X192485365Y-76839030D02*
X192385365Y-76839030D01*
X192385365Y-76839030D02*
X192385365Y-76039030D01*
X192385365Y-76039030D02*
X192485365Y-76039030D01*
G36*
X192485365Y-76839030D02*
G01*
X192385365Y-76839030D01*
X192385365Y-76039030D01*
X192485365Y-76039030D01*
X192485365Y-76839030D01*
G37*
X192485365Y-76839030D02*
X192385365Y-76839030D01*
X192385365Y-76039030D01*
X192485365Y-76039030D01*
X192485365Y-76839030D01*
D13*
X206350000Y-71420000D03*
D14*
X206350000Y-73960000D03*
X206350000Y-76500000D03*
X206350000Y-79040000D03*
X206350000Y-81580000D03*
X206350000Y-84120000D03*
X206350000Y-86660000D03*
X206350000Y-89200000D03*
X206350000Y-91740000D03*
X206350000Y-94280000D03*
X206350000Y-96820000D03*
X206350000Y-99360000D03*
X191110000Y-99360000D03*
X191110000Y-96820000D03*
X191110000Y-94280000D03*
X191110000Y-91740000D03*
X191110000Y-89200000D03*
X191110000Y-86660000D03*
X191110000Y-84120000D03*
X191110000Y-81580000D03*
X191110000Y-79040000D03*
X191110000Y-76500000D03*
X191110000Y-73960000D03*
X191110000Y-71420000D03*
%LPC*%
D15*
X289420000Y-118240000D03*
D16*
X294500000Y-118240000D03*
D17*
X297040000Y-113160000D03*
D15*
X299580000Y-118240000D03*
D17*
X290690000Y-115700000D03*
X141870578Y-99294470D03*
D16*
X145290000Y-102340000D03*
D15*
X140259438Y-101633001D03*
D17*
X148512280Y-97662938D03*
D15*
X150320562Y-103046999D03*
D18*
X187035000Y-72112500D03*
X180025000Y-72112500D03*
D19*
X183525000Y-68412500D03*
D20*
X181025000Y-69622500D03*
X186025000Y-69622500D03*
D17*
X165242280Y-80792938D03*
D16*
X162020000Y-85470000D03*
D15*
X167050562Y-86176999D03*
D17*
X158600578Y-82424470D03*
D15*
X156989438Y-84763001D03*
D17*
X232723579Y-123044969D03*
D16*
X236850000Y-125030000D03*
D15*
X231819438Y-125736999D03*
D17*
X238658282Y-119645939D03*
D15*
X241880562Y-124323001D03*
D16*
X106500000Y-99000000D03*
D15*
X111580000Y-99000000D03*
D17*
X102690000Y-96460000D03*
D15*
X101420000Y-99000000D03*
D17*
X109040000Y-93920000D03*
D21*
X243309696Y-136391529D03*
D20*
X237490562Y-144263001D03*
D16*
X245430694Y-151483214D03*
D17*
X234268282Y-139585939D03*
X228333579Y-142984969D03*
D16*
X221787054Y-154806111D03*
D21*
X219666056Y-139714426D03*
D16*
X232460000Y-144970000D03*
D20*
X227429438Y-145676999D03*
D16*
X79530000Y-137470000D03*
D15*
X84610000Y-137470000D03*
X74450000Y-137470000D03*
D17*
X82070000Y-132390000D03*
X75720000Y-134930000D03*
D15*
X194780562Y-128566999D03*
D16*
X189750000Y-127860000D03*
D15*
X184719438Y-127153001D03*
D17*
X186330578Y-124814470D03*
X192972280Y-123182938D03*
D15*
X267590562Y-101503001D03*
D16*
X262560000Y-102210000D03*
D17*
X258433579Y-100224969D03*
D15*
X257529438Y-102916999D03*
D17*
X264368282Y-96825939D03*
X186182280Y-103012938D03*
D15*
X187990562Y-108396999D03*
X177929438Y-106983001D03*
D17*
X179540578Y-104644470D03*
D16*
X182960000Y-107690000D03*
D15*
X238659438Y-105586999D03*
D16*
X243690000Y-104880000D03*
D17*
X239563579Y-102894969D03*
X245498282Y-99495939D03*
D15*
X248720562Y-104173001D03*
D16*
X218010000Y-127700000D03*
D15*
X212979438Y-128406999D03*
X223040562Y-126993001D03*
D17*
X213883579Y-125714969D03*
X219818282Y-122315939D03*
X100580000Y-77210000D03*
D15*
X109470000Y-79750000D03*
D16*
X104390000Y-79750000D03*
D17*
X106930000Y-74670000D03*
D15*
X99310000Y-79750000D03*
D17*
X174122280Y-120502938D03*
D15*
X175930562Y-125886999D03*
D16*
X170900000Y-125180000D03*
D15*
X165869438Y-124473001D03*
D17*
X167480578Y-122134470D03*
X155242280Y-117872938D03*
X148600578Y-119504470D03*
D15*
X146989438Y-121843001D03*
X157050562Y-123256999D03*
D16*
X152020000Y-122550000D03*
D15*
X276349438Y-100276999D03*
D17*
X283188282Y-94185939D03*
X277253579Y-97584969D03*
D16*
X281380000Y-99570000D03*
D15*
X286410562Y-98863001D03*
X108090000Y-118240000D03*
D16*
X113170000Y-118240000D03*
D17*
X115710000Y-113160000D03*
D15*
X118250000Y-118240000D03*
D17*
X109360000Y-115700000D03*
D15*
X347520000Y-137490000D03*
X337360000Y-137490000D03*
D17*
X344980000Y-132410000D03*
X338630000Y-134950000D03*
D16*
X342440000Y-137490000D03*
D15*
X175869438Y-87423001D03*
D17*
X177480578Y-85084470D03*
D16*
X180900000Y-88130000D03*
D17*
X184122280Y-83452938D03*
D15*
X185930562Y-88836999D03*
D17*
X136372280Y-115222938D03*
D16*
X133150000Y-119900000D03*
D15*
X138180562Y-120606999D03*
D17*
X129730578Y-116854470D03*
D15*
X128119438Y-119193001D03*
X270520562Y-139573002D03*
D17*
X261363579Y-138294970D03*
X267298282Y-134895940D03*
D16*
X265490000Y-140280001D03*
D15*
X260459438Y-140987000D03*
D17*
X129612280Y-95032938D03*
D16*
X126390000Y-99710000D03*
D15*
X131420562Y-100416999D03*
D17*
X122970578Y-96664470D03*
D15*
X121359438Y-99003001D03*
X229840562Y-106823001D03*
D16*
X224810000Y-107530000D03*
D15*
X219779438Y-108236999D03*
D17*
X220683579Y-105544969D03*
X226618282Y-102145939D03*
D15*
X138099438Y-82123001D03*
D17*
X139710578Y-79784470D03*
D15*
X148160562Y-83536999D03*
D17*
X146352280Y-78152938D03*
D16*
X143130000Y-82830000D03*
X103360000Y-137470000D03*
D17*
X105900000Y-132390000D03*
X99550000Y-134930000D03*
D15*
X98280000Y-137470000D03*
X108440000Y-137470000D03*
D17*
X309190000Y-77230000D03*
D16*
X313000000Y-79770000D03*
D17*
X315540000Y-74690000D03*
D15*
X307920000Y-79770000D03*
X318080000Y-79770000D03*
X231249438Y-87382030D03*
X241310562Y-85968032D03*
D17*
X238088282Y-81290970D03*
D16*
X236280000Y-86675031D03*
D17*
X232153579Y-84690000D03*
X290160000Y-77210000D03*
D15*
X288890000Y-79750000D03*
D16*
X293970000Y-79750000D03*
D15*
X299050000Y-79750000D03*
D17*
X296510000Y-74670000D03*
D15*
X212409438Y-90032030D03*
D17*
X213313579Y-87340000D03*
D15*
X222470562Y-88618032D03*
D16*
X217440000Y-89325031D03*
D17*
X219248282Y-83940970D03*
D15*
X129320562Y-80876999D03*
X119259438Y-79463001D03*
D17*
X120870578Y-77124470D03*
D16*
X124290000Y-80170000D03*
D17*
X127512280Y-75492938D03*
D15*
X159109438Y-104313001D03*
D17*
X167362280Y-100342938D03*
D15*
X169170562Y-105726999D03*
D16*
X164140000Y-105020000D03*
D17*
X160720578Y-101974470D03*
D16*
X318610000Y-137470000D03*
D17*
X314800000Y-134930000D03*
D15*
X323690000Y-137470000D03*
D17*
X321150000Y-132390000D03*
D15*
X313530000Y-137470000D03*
X250739438Y-123116999D03*
X260800562Y-121703001D03*
D17*
X257578282Y-117025939D03*
X251643579Y-120424969D03*
D16*
X255770000Y-122410000D03*
D17*
X143590578Y-138034470D03*
X150232280Y-136402938D03*
D15*
X141979438Y-140373001D03*
D16*
X147010000Y-141080000D03*
D15*
X152040562Y-141786999D03*
X279060562Y-80658032D03*
D17*
X269903579Y-79380000D03*
D15*
X268999438Y-82072030D03*
D16*
X274030000Y-81365031D03*
D17*
X275838282Y-75980970D03*
X332995000Y-77230000D03*
D15*
X331725000Y-79770000D03*
X341885000Y-79770000D03*
D16*
X336805000Y-79770000D03*
D17*
X339345000Y-74690000D03*
D16*
X164739306Y-151913214D03*
D21*
X166860304Y-136821529D03*
D20*
X182740562Y-146106999D03*
D17*
X180932280Y-140722938D03*
D16*
X188382946Y-155236111D03*
D21*
X190503944Y-140144426D03*
D17*
X174290578Y-142354470D03*
D16*
X177710000Y-145400000D03*
D20*
X172679438Y-144693001D03*
D15*
X306410000Y-99030000D03*
D17*
X303870000Y-93950000D03*
D16*
X301330000Y-99030000D03*
D15*
X296250000Y-99030000D03*
D17*
X297520000Y-96490000D03*
D16*
X255150000Y-84025031D03*
D15*
X260180562Y-83318032D03*
X250119438Y-84732030D03*
D17*
X256958282Y-78640970D03*
X251023579Y-82040000D03*
D15*
X77610000Y-99020000D03*
D17*
X78880000Y-96480000D03*
X85230000Y-93940000D03*
D16*
X82690000Y-99020000D03*
D15*
X87770000Y-99020000D03*
X90450000Y-79740000D03*
D16*
X85370000Y-79740000D03*
D17*
X87910000Y-74660000D03*
X81560000Y-77200000D03*
D15*
X80290000Y-79740000D03*
D21*
X344288000Y-92040550D03*
D20*
X327270000Y-99025550D03*
D17*
X328540000Y-96485550D03*
D20*
X337430000Y-99025550D03*
D17*
X334890000Y-93945550D03*
D16*
X332350000Y-99025550D03*
X320412000Y-107280550D03*
X344288000Y-107280550D03*
D21*
X320412000Y-92040550D03*
D15*
X344830000Y-118260000D03*
D16*
X339750000Y-118260000D03*
D17*
X335940000Y-115720000D03*
X342290000Y-113180000D03*
D15*
X334670000Y-118260000D03*
D17*
X270493579Y-117774969D03*
D15*
X279650562Y-119053001D03*
D17*
X276428282Y-114375939D03*
D16*
X274620000Y-119760000D03*
D15*
X269589438Y-120466999D03*
D21*
X72662000Y-111300550D03*
D16*
X96538000Y-126540550D03*
D20*
X89680000Y-118285550D03*
D16*
X84600000Y-118285550D03*
D17*
X80790000Y-115745550D03*
D20*
X79520000Y-118285550D03*
D17*
X87140000Y-113205550D03*
D21*
X96538000Y-111300550D03*
D16*
X72662000Y-126540550D03*
X313550000Y-118250000D03*
D15*
X308470000Y-118250000D03*
D17*
X309740000Y-115710000D03*
D15*
X318630000Y-118250000D03*
D17*
X316090000Y-113170000D03*
D13*
X206350000Y-71420000D03*
D14*
X206350000Y-73960000D03*
X206350000Y-76500000D03*
X206350000Y-79040000D03*
X206350000Y-81580000D03*
X206350000Y-84120000D03*
X206350000Y-86660000D03*
X206350000Y-89200000D03*
X206350000Y-91740000D03*
X206350000Y-94280000D03*
X206350000Y-96820000D03*
X206350000Y-99360000D03*
X191110000Y-99360000D03*
X191110000Y-96820000D03*
X191110000Y-94280000D03*
X191110000Y-91740000D03*
X191110000Y-89200000D03*
X191110000Y-86660000D03*
X191110000Y-84120000D03*
X191110000Y-81580000D03*
X191110000Y-79040000D03*
X191110000Y-76500000D03*
X191110000Y-73960000D03*
X191110000Y-71420000D03*
M02*
