M48
; DRILL file {KiCad (5.99.0-9176-ga1730d51ff)} date 11/18/21 23:05:29
; FORMAT={-:-/ absolute / metric / decimal}
; #@! TF.CreationDate,2021-11-18T23:05:29-06:00
; #@! TF.GenerationSoftware,Kicad,Pcbnew,(5.99.0-9176-ga1730d51ff)
; #@! TF.FileFunction,Plated,1,2,PTH
FMAT,2
METRIC
T1C0.400
T2C0.990
T3C1.092
T4C1.300
%
G90
G05
T1
X74.0Y-103.17
X77.04Y-83.69
X85.81Y-124.7
X96.01Y-86.54
X98.09Y-105.95
X106.71Y-123.73
X115.3Y-82.84
X117.26Y-105.92
X124.06Y-122.89
X134.15Y-88.67
X136.21Y-107.81
X141.746Y-128.076
X153.01Y-87.94
X155.11Y-107.91
X161.95Y-127.351
X168.69Y-114.37
X171.91Y-91.18
X173.91Y-113.37
X180.94Y-133.14
X181.03Y-137.32
X190.15Y-132.8
X195.36Y-114.37
X195.98Y-135.75
X196.14Y-130.31
X196.89Y-113.59
X197.615Y-112.71
X198.295Y-107.4
X198.99Y-130.27
X199.08Y-106.39
X199.81Y-114.38
X200.51Y-126.04
X200.535Y-129.19
X201.39Y-137.25
X202.05Y-132.8
X203.41Y-107.37
X204.81Y-130.27
X205.75Y-106.34
X210.63Y-132.8
X215.567Y-113.51
X217.32Y-112.83
X222.26Y-97.83
X228.97Y-92.07
X229.51Y-130.27
X234.36Y-136.54
X236.31Y-109.4
X247.75Y-92.08
X248.43Y-127.31
X255.15Y-110.34
X266.65Y-86.68
X267.32Y-127.8
X273.98Y-104.75
X276.41Y-134.94
X276.41Y-144.07
X282.36Y-72.67
X290.53Y-109.17
X293.12Y-106.01
X304.6Y-86.9
X305.4Y-125.15
X311.93Y-103.59
X327.96Y-84.54
X336.98Y-110.83
T2
X181.025Y-69.623
X186.025Y-69.623
T3
X191.11Y-71.42
X191.11Y-73.96
X191.11Y-76.5
X191.11Y-79.04
X191.11Y-81.58
X191.11Y-84.12
X191.11Y-86.66
X191.11Y-89.2
X191.11Y-91.74
X191.11Y-94.28
X191.11Y-96.82
X191.11Y-99.36
X206.35Y-71.42
X206.35Y-73.96
X206.35Y-76.5
X206.35Y-79.04
X206.35Y-81.58
X206.35Y-84.12
X206.35Y-86.66
X206.35Y-89.2
X206.35Y-91.74
X206.35Y-94.28
X206.35Y-96.82
X206.35Y-99.36
T4
X180.025Y-72.112
X187.035Y-72.112
T0
M30
