G04 #@! TF.GenerationSoftware,KiCad,Pcbnew,(5.99.0-9176-ga1730d51ff)*
G04 #@! TF.CreationDate,2021-11-18T23:05:27-06:00*
G04 #@! TF.ProjectId,Concerto,436f6e63-6572-4746-9f2e-6b696361645f,rev?*
G04 #@! TF.SameCoordinates,Original*
G04 #@! TF.FileFunction,Profile,NP*
%FSLAX46Y46*%
G04 Gerber Fmt 4.6, Leading zero omitted, Abs format (unit mm)*
G04 Created by KiCad (PCBNEW (5.99.0-9176-ga1730d51ff)) date 2021-11-18 23:05:27*
%MOMM*%
%LPD*%
G01*
G04 APERTURE LIST*
G04 #@! TA.AperFunction,Profile*
%ADD10C,0.100000*%
G04 #@! TD*
G04 APERTURE END LIST*
D10*
X358519999Y-65730000D02*
G75*
G02*
X360520000Y-67730060I1J-2000000D01*
G01*
X331887460Y-128750352D02*
G75*
G03*
X331887460Y-128750352I-1650000J0D01*
G01*
X183863332Y-65730000D02*
X67535560Y-65730000D01*
X325127109Y-87117916D02*
G75*
G03*
X325127109Y-87117916I-1650000J0D01*
G01*
X358520000Y-65730000D02*
X222363332Y-65730000D01*
X113437514Y-147679253D02*
X201633889Y-160074438D01*
X252434413Y-134521942D02*
G75*
G03*
X252434413Y-134521942I-1650000J0D01*
G01*
X204974044Y-160074438D02*
G75*
G02*
X201633889Y-160074438I-1670079J11883217D01*
G01*
X92615971Y-129855207D02*
G75*
G03*
X92615971Y-129855207I-1650000J0D01*
G01*
X204974044Y-160074438D02*
X293170291Y-147679253D01*
X67535561Y-147679253D02*
G75*
G02*
X65535561Y-145679253I0J2000000D01*
G01*
X96836098Y-90021329D02*
G75*
G03*
X96836098Y-90021329I-1650000J0D01*
G01*
X65535561Y-67730000D02*
X65535561Y-145679253D01*
X234519999Y-97343912D02*
G75*
G03*
X234519999Y-97343912I-1650000J0D01*
G01*
X360517628Y-145679313D02*
X360520000Y-67730060D01*
X65535561Y-67730001D02*
G75*
G02*
X67535560Y-65730000I2000000J1D01*
G01*
X293170291Y-147679253D02*
X358517628Y-147679252D01*
X161445207Y-134579690D02*
G75*
G03*
X161445207Y-134579690I-1650000J0D01*
G01*
X67535560Y-147679253D02*
X113437514Y-147679253D01*
X222363332Y-65730000D02*
X183863332Y-65730000D01*
X360517627Y-145679314D02*
G75*
G02*
X358517628Y-147679252I-1999999J61D01*
G01*
X172098454Y-95672181D02*
G75*
G03*
X172098454Y-95672181I-1650000J0D01*
G01*
M02*
