G04 #@! TF.GenerationSoftware,KiCad,Pcbnew,(5.99.0-9176-ga1730d51ff)*
G04 #@! TF.CreationDate,2021-11-18T23:05:27-06:00*
G04 #@! TF.ProjectId,Concerto,436f6e63-6572-4746-9f2e-6b696361645f,rev?*
G04 #@! TF.SameCoordinates,Original*
G04 #@! TF.FileFunction,Soldermask,Top*
G04 #@! TF.FilePolarity,Negative*
%FSLAX46Y46*%
G04 Gerber Fmt 4.6, Leading zero omitted, Abs format (unit mm)*
G04 Created by KiCad (PCBNEW (5.99.0-9176-ga1730d51ff)) date 2021-11-18 23:05:27*
%MOMM*%
%LPD*%
G01*
G04 APERTURE LIST*
%ADD10C,1.701800*%
%ADD11C,3.987800*%
%ADD12C,3.000000*%
%ADD13C,2.100000*%
%ADD14C,1.200000*%
%ADD15C,1.750000*%
%ADD16C,3.048000*%
%ADD17R,1.752600X1.752600*%
%ADD18C,1.752600*%
G04 APERTURE END LIST*
D10*
X289420000Y-118240000D03*
D11*
X294500000Y-118240000D03*
D12*
X297040000Y-113160000D03*
D10*
X299580000Y-118240000D03*
D12*
X290690000Y-115700000D03*
X141870578Y-99294470D03*
D11*
X145290000Y-102340000D03*
D10*
X140259438Y-101633001D03*
D12*
X148512280Y-97662938D03*
D10*
X150320562Y-103046999D03*
D13*
X187035000Y-72112500D03*
X180025000Y-72112500D03*
D14*
X183525000Y-68412500D03*
D15*
X181025000Y-69622500D03*
X186025000Y-69622500D03*
D12*
X165242280Y-80792938D03*
D11*
X162020000Y-85470000D03*
D10*
X167050562Y-86176999D03*
D12*
X158600578Y-82424470D03*
D10*
X156989438Y-84763001D03*
D12*
X232723579Y-123044969D03*
D11*
X236850000Y-125030000D03*
D10*
X231819438Y-125736999D03*
D12*
X238658282Y-119645939D03*
D10*
X241880562Y-124323001D03*
D11*
X106500000Y-99000000D03*
D10*
X111580000Y-99000000D03*
D12*
X102690000Y-96460000D03*
D10*
X101420000Y-99000000D03*
D12*
X109040000Y-93920000D03*
D16*
X243309696Y-136391529D03*
D15*
X237490562Y-144263001D03*
D11*
X245430694Y-151483214D03*
D12*
X234268282Y-139585939D03*
X228333579Y-142984969D03*
D11*
X221787054Y-154806111D03*
D16*
X219666056Y-139714426D03*
D11*
X232460000Y-144970000D03*
D15*
X227429438Y-145676999D03*
D11*
X79530000Y-137470000D03*
D10*
X84610000Y-137470000D03*
X74450000Y-137470000D03*
D12*
X82070000Y-132390000D03*
X75720000Y-134930000D03*
D10*
X194780562Y-128566999D03*
D11*
X189750000Y-127860000D03*
D10*
X184719438Y-127153001D03*
D12*
X186330578Y-124814470D03*
X192972280Y-123182938D03*
D10*
X267590562Y-101503001D03*
D11*
X262560000Y-102210000D03*
D12*
X258433579Y-100224969D03*
D10*
X257529438Y-102916999D03*
D12*
X264368282Y-96825939D03*
X186182280Y-103012938D03*
D10*
X187990562Y-108396999D03*
X177929438Y-106983001D03*
D12*
X179540578Y-104644470D03*
D11*
X182960000Y-107690000D03*
D10*
X238659438Y-105586999D03*
D11*
X243690000Y-104880000D03*
D12*
X239563579Y-102894969D03*
X245498282Y-99495939D03*
D10*
X248720562Y-104173001D03*
D11*
X218010000Y-127700000D03*
D10*
X212979438Y-128406999D03*
X223040562Y-126993001D03*
D12*
X213883579Y-125714969D03*
X219818282Y-122315939D03*
X100580000Y-77210000D03*
D10*
X109470000Y-79750000D03*
D11*
X104390000Y-79750000D03*
D12*
X106930000Y-74670000D03*
D10*
X99310000Y-79750000D03*
D12*
X174122280Y-120502938D03*
D10*
X175930562Y-125886999D03*
D11*
X170900000Y-125180000D03*
D10*
X165869438Y-124473001D03*
D12*
X167480578Y-122134470D03*
X155242280Y-117872938D03*
X148600578Y-119504470D03*
D10*
X146989438Y-121843001D03*
X157050562Y-123256999D03*
D11*
X152020000Y-122550000D03*
D10*
X276349438Y-100276999D03*
D12*
X283188282Y-94185939D03*
X277253579Y-97584969D03*
D11*
X281380000Y-99570000D03*
D10*
X286410562Y-98863001D03*
X108090000Y-118240000D03*
D11*
X113170000Y-118240000D03*
D12*
X115710000Y-113160000D03*
D10*
X118250000Y-118240000D03*
D12*
X109360000Y-115700000D03*
D10*
X347520000Y-137490000D03*
X337360000Y-137490000D03*
D12*
X344980000Y-132410000D03*
X338630000Y-134950000D03*
D11*
X342440000Y-137490000D03*
D10*
X175869438Y-87423001D03*
D12*
X177480578Y-85084470D03*
D11*
X180900000Y-88130000D03*
D12*
X184122280Y-83452938D03*
D10*
X185930562Y-88836999D03*
D12*
X136372280Y-115222938D03*
D11*
X133150000Y-119900000D03*
D10*
X138180562Y-120606999D03*
D12*
X129730578Y-116854470D03*
D10*
X128119438Y-119193001D03*
X270520562Y-139573002D03*
D12*
X261363579Y-138294970D03*
X267298282Y-134895940D03*
D11*
X265490000Y-140280001D03*
D10*
X260459438Y-140987000D03*
D12*
X129612280Y-95032938D03*
D11*
X126390000Y-99710000D03*
D10*
X131420562Y-100416999D03*
D12*
X122970578Y-96664470D03*
D10*
X121359438Y-99003001D03*
X229840562Y-106823001D03*
D11*
X224810000Y-107530000D03*
D10*
X219779438Y-108236999D03*
D12*
X220683579Y-105544969D03*
X226618282Y-102145939D03*
D10*
X138099438Y-82123001D03*
D12*
X139710578Y-79784470D03*
D10*
X148160562Y-83536999D03*
D12*
X146352280Y-78152938D03*
D11*
X143130000Y-82830000D03*
X103360000Y-137470000D03*
D12*
X105900000Y-132390000D03*
X99550000Y-134930000D03*
D10*
X98280000Y-137470000D03*
X108440000Y-137470000D03*
D12*
X309190000Y-77230000D03*
D11*
X313000000Y-79770000D03*
D12*
X315540000Y-74690000D03*
D10*
X307920000Y-79770000D03*
X318080000Y-79770000D03*
X231249438Y-87382030D03*
X241310562Y-85968032D03*
D12*
X238088282Y-81290970D03*
D11*
X236280000Y-86675031D03*
D12*
X232153579Y-84690000D03*
X290160000Y-77210000D03*
D10*
X288890000Y-79750000D03*
D11*
X293970000Y-79750000D03*
D10*
X299050000Y-79750000D03*
D12*
X296510000Y-74670000D03*
D10*
X212409438Y-90032030D03*
D12*
X213313579Y-87340000D03*
D10*
X222470562Y-88618032D03*
D11*
X217440000Y-89325031D03*
D12*
X219248282Y-83940970D03*
D10*
X129320562Y-80876999D03*
X119259438Y-79463001D03*
D12*
X120870578Y-77124470D03*
D11*
X124290000Y-80170000D03*
D12*
X127512280Y-75492938D03*
D10*
X159109438Y-104313001D03*
D12*
X167362280Y-100342938D03*
D10*
X169170562Y-105726999D03*
D11*
X164140000Y-105020000D03*
D12*
X160720578Y-101974470D03*
D11*
X318610000Y-137470000D03*
D12*
X314800000Y-134930000D03*
D10*
X323690000Y-137470000D03*
D12*
X321150000Y-132390000D03*
D10*
X313530000Y-137470000D03*
X250739438Y-123116999D03*
X260800562Y-121703001D03*
D12*
X257578282Y-117025939D03*
X251643579Y-120424969D03*
D11*
X255770000Y-122410000D03*
D12*
X143590578Y-138034470D03*
X150232280Y-136402938D03*
D10*
X141979438Y-140373001D03*
D11*
X147010000Y-141080000D03*
D10*
X152040562Y-141786999D03*
X279060562Y-80658032D03*
D12*
X269903579Y-79380000D03*
D10*
X268999438Y-82072030D03*
D11*
X274030000Y-81365031D03*
D12*
X275838282Y-75980970D03*
X332995000Y-77230000D03*
D10*
X331725000Y-79770000D03*
X341885000Y-79770000D03*
D11*
X336805000Y-79770000D03*
D12*
X339345000Y-74690000D03*
D11*
X164739306Y-151913214D03*
D16*
X166860304Y-136821529D03*
D15*
X182740562Y-146106999D03*
D12*
X180932280Y-140722938D03*
D11*
X188382946Y-155236111D03*
D16*
X190503944Y-140144426D03*
D12*
X174290578Y-142354470D03*
D11*
X177710000Y-145400000D03*
D15*
X172679438Y-144693001D03*
D10*
X306410000Y-99030000D03*
D12*
X303870000Y-93950000D03*
D11*
X301330000Y-99030000D03*
D10*
X296250000Y-99030000D03*
D12*
X297520000Y-96490000D03*
D11*
X255150000Y-84025031D03*
D10*
X260180562Y-83318032D03*
X250119438Y-84732030D03*
D12*
X256958282Y-78640970D03*
X251023579Y-82040000D03*
D10*
X77610000Y-99020000D03*
D12*
X78880000Y-96480000D03*
X85230000Y-93940000D03*
D11*
X82690000Y-99020000D03*
D10*
X87770000Y-99020000D03*
X90450000Y-79740000D03*
D11*
X85370000Y-79740000D03*
D12*
X87910000Y-74660000D03*
X81560000Y-77200000D03*
D10*
X80290000Y-79740000D03*
D16*
X344288000Y-92040550D03*
D15*
X327270000Y-99025550D03*
D12*
X328540000Y-96485550D03*
D15*
X337430000Y-99025550D03*
D12*
X334890000Y-93945550D03*
D11*
X332350000Y-99025550D03*
X320412000Y-107280550D03*
X344288000Y-107280550D03*
D16*
X320412000Y-92040550D03*
D10*
X344830000Y-118260000D03*
D11*
X339750000Y-118260000D03*
D12*
X335940000Y-115720000D03*
X342290000Y-113180000D03*
D10*
X334670000Y-118260000D03*
D12*
X270493579Y-117774969D03*
D10*
X279650562Y-119053001D03*
D12*
X276428282Y-114375939D03*
D11*
X274620000Y-119760000D03*
D10*
X269589438Y-120466999D03*
D16*
X72662000Y-111300550D03*
D11*
X96538000Y-126540550D03*
D15*
X89680000Y-118285550D03*
D11*
X84600000Y-118285550D03*
D12*
X80790000Y-115745550D03*
D15*
X79520000Y-118285550D03*
D12*
X87140000Y-113205550D03*
D16*
X96538000Y-111300550D03*
D11*
X72662000Y-126540550D03*
X313550000Y-118250000D03*
D10*
X308470000Y-118250000D03*
D12*
X309740000Y-115710000D03*
D10*
X318630000Y-118250000D03*
D12*
X316090000Y-113170000D03*
D17*
X206350000Y-71420000D03*
D18*
X206350000Y-73960000D03*
X206350000Y-76500000D03*
X206350000Y-79040000D03*
X206350000Y-81580000D03*
X206350000Y-84120000D03*
X206350000Y-86660000D03*
X206350000Y-89200000D03*
X206350000Y-91740000D03*
X206350000Y-94280000D03*
X206350000Y-96820000D03*
X206350000Y-99360000D03*
X191110000Y-99360000D03*
X191110000Y-96820000D03*
X191110000Y-94280000D03*
X191110000Y-91740000D03*
X191110000Y-89200000D03*
X191110000Y-86660000D03*
X191110000Y-84120000D03*
X191110000Y-81580000D03*
X191110000Y-79040000D03*
X191110000Y-76500000D03*
X191110000Y-73960000D03*
X191110000Y-71420000D03*
M02*
