  0
SECTION
  2
HEADER
  9
$ACADVER
  1
AC1027
  9
$ACADMAINTVER
 70
   125
  9
$DWGCODEPAGE
  3
ANSI_1252
  9
$REQUIREDVERSIONS
160
                 0
  9
$INSBASE
 10
0.0
 20
0.0
 30
0.0
  9
$EXTMIN
 10
1.000000000000000E+20
 20
1.000000000000000E+20
 30
1.000000000000000E+20
  9
$EXTMAX
 10
-1.000000000000000E+20
 20
-1.000000000000000E+20
 30
-1.000000000000000E+20
  9
$LIMMIN
 10
0.0
 20
0.0
  9
$LIMMAX
 10
12.0
 20
9.0
  9
$ORTHOMODE
 70
     0
  9
$REGENMODE
 70
     1
  9
$FILLMODE
 70
     1
  9
$QTEXTMODE
 70
     0
  9
$MIRRTEXT
 70
     0
  9
$LTSCALE
 40
1.0
  9
$ATTMODE
 70
     1
  9
$TEXTSIZE
 40
0.2
  9
$TRACEWID
 40
0.05
  9
$TEXTSTYLE
  7
Standard
  9
$CLAYER
  8
0
  9
$CELTYPE
  6
ByLayer
  9
$CECOLOR
 62
   256
  9
$CELTSCALE
 40
1.0
  9
$DISPSILH
 70
     0
  9
$DIMSCALE
 40
1.0
  9
$DIMASZ
 40
0.18
  9
$DIMEXO
 40
0.0625
  9
$DIMDLI
 40
0.38
  9
$DIMRND
 40
0.0
  9
$DIMDLE
 40
0.0
  9
$DIMEXE
 40
0.18
  9
$DIMTP
 40
0.0
  9
$DIMTM
 40
0.0
  9
$DIMTXT
 40
0.18
  9
$DIMCEN
 40
0.09
  9
$DIMTSZ
 40
0.0
  9
$DIMTOL
 70
     0
  9
$DIMLIM
 70
     0
  9
$DIMTIH
 70
     1
  9
$DIMTOH
 70
     1
  9
$DIMSE1
 70
     0
  9
$DIMSE2
 70
     0
  9
$DIMTAD
 70
     0
  9
$DIMZIN
 70
     0
  9
$DIMBLK
  1

  9
$DIMASO
 70
     1
  9
$DIMSHO
 70
     1
  9
$DIMPOST
  1

  9
$DIMAPOST
  1

  9
$DIMALT
 70
     0
  9
$DIMALTD
 70
     2
  9
$DIMALTF
 40
25.4
  9
$DIMLFAC
 40
1.0
  9
$DIMTOFL
 70
     0
  9
$DIMTVP
 40
0.0
  9
$DIMTIX
 70
     0
  9
$DIMSOXD
 70
     0
  9
$DIMSAH
 70
     0
  9
$DIMBLK1
  1

  9
$DIMBLK2
  1

  9
$DIMSTYLE
  2
Standard
  9
$DIMCLRD
 70
     0
  9
$DIMCLRE
 70
     0
  9
$DIMCLRT
 70
     0
  9
$DIMTFAC
 40
1.0
  9
$DIMGAP
 40
0.09
  9
$DIMJUST
 70
     0
  9
$DIMSD1
 70
     0
  9
$DIMSD2
 70
     0
  9
$DIMTOLJ
 70
     1
  9
$DIMTZIN
 70
     0
  9
$DIMALTZ
 70
     0
  9
$DIMALTTZ
 70
     0
  9
$DIMUPT
 70
     0
  9
$DIMDEC
 70
     4
  9
$DIMTDEC
 70
     4
  9
$DIMALTU
 70
     2
  9
$DIMALTTD
 70
     2
  9
$DIMTXSTY
  7
Standard
  9
$DIMAUNIT
 70
     0
  9
$DIMADEC
 70
     0
  9
$DIMALTRND
 40
0.0
  9
$DIMAZIN
 70
     0
  9
$DIMDSEP
 70
    46
  9
$DIMATFIT
 70
     3
  9
$DIMFRAC
 70
     0
  9
$DIMLDRBLK
  1

  9
$DIMLUNIT
 70
     2
  9
$DIMLWD
 70
    -2
  9
$DIMLWE
 70
    -2
  9
$DIMTMOVE
 70
     0
  9
$DIMFXL
 40
1.0
  9
$DIMFXLON
 70
     0
  9
$DIMJOGANG
 40
0.7853981633974483
  9
$DIMTFILL
 70
     0
  9
$DIMTFILLCLR
 70
     0
  9
$DIMARCSYM
 70
     0
  9
$DIMLTYPE
  6

  9
$DIMLTEX1
  6

  9
$DIMLTEX2
  6

  9
$DIMTXTDIRECTION
 70
     0
  9
$LUNITS
 70
     2
  9
$LUPREC
 70
     4
  9
$SKETCHINC
 40
0.1
  9
$FILLETRAD
 40
0.0
  9
$AUNITS
 70
     0
  9
$AUPREC
 70
     0
  9
$MENU
  1
.
  9
$ELEVATION
 40
0.0
  9
$PELEVATION
 40
0.0
  9
$THICKNESS
 40
0.0
  9
$LIMCHECK
 70
     0
  9
$CHAMFERA
 40
0.0
  9
$CHAMFERB
 40
0.0
  9
$CHAMFERC
 40
0.0
  9
$CHAMFERD
 40
0.0
  9
$SKPOLY
 70
     0
  9
$TDCREATE
 40
2458874.252581018
  9
$TDUCREATE
 40
2458874.252581018
  9
$TDUPDATE
 40
2458874.252581018
  9
$TDUUPDATE
 40
2458874.252581018
  9
$TDINDWG
 40
0.0000115741
  9
$TDUSRTIMER
 40
0.0000115741
  9
$USRTIMER
 70
     1
  9
$ANGBASE
 50
0.0
  9
$ANGDIR
 70
     0
  9
$PDMODE
 70
     0
  9
$PDSIZE
 40
0.0
  9
$PLINEWID
 40
0.0
  9
$SPLFRAME
 70
     0
  9
$SPLINETYPE
 70
     6
  9
$SPLINESEGS
 70
     8
  9
$HANDSEED
  5
200
  9
$SURFTAB1
 70
     6
  9
$SURFTAB2
 70
     6
  9
$SURFTYPE
 70
     6
  9
$SURFU
 70
     6
  9
$SURFV
 70
     6
  9
$UCSBASE
  2

  9
$UCSNAME
  2

  9
$UCSORG
 10
0.0
 20
0.0
 30
0.0
  9
$UCSXDIR
 10
1.0
 20
0.0
 30
0.0
  9
$UCSYDIR
 10
0.0
 20
1.0
 30
0.0
  9
$UCSORTHOREF
  2

  9
$UCSORTHOVIEW
 70
     0
  9
$UCSORGTOP
 10
0.0
 20
0.0
 30
0.0
  9
$UCSORGBOTTOM
 10
0.0
 20
0.0
 30
0.0
  9
$UCSORGLEFT
 10
0.0
 20
0.0
 30
0.0
  9
$UCSORGRIGHT
 10
0.0
 20
0.0
 30
0.0
  9
$UCSORGFRONT
 10
0.0
 20
0.0
 30
0.0
  9
$UCSORGBACK
 10
0.0
 20
0.0
 30
0.0
  9
$PUCSBASE
  2

  9
$PUCSNAME
  2

  9
$PUCSORG
 10
0.0
 20
0.0
 30
0.0
  9
$PUCSXDIR
 10
1.0
 20
0.0
 30
0.0
  9
$PUCSYDIR
 10
0.0
 20
1.0
 30
0.0
  9
$PUCSORTHOREF
  2

  9
$PUCSORTHOVIEW
 70
     0
  9
$PUCSORGTOP
 10
0.0
 20
0.0
 30
0.0
  9
$PUCSORGBOTTOM
 10
0.0
 20
0.0
 30
0.0
  9
$PUCSORGLEFT
 10
0.0
 20
0.0
 30
0.0
  9
$PUCSORGRIGHT
 10
0.0
 20
0.0
 30
0.0
  9
$PUCSORGFRONT
 10
0.0
 20
0.0
 30
0.0
  9
$PUCSORGBACK
 10
0.0
 20
0.0
 30
0.0
  9
$USERI1
 70
     0
  9
$USERI2
 70
     0
  9
$USERI3
 70
     0
  9
$USERI4
 70
     0
  9
$USERI5
 70
     0
  9
$USERR1
 40
0.0
  9
$USERR2
 40
0.0
  9
$USERR3
 40
0.0
  9
$USERR4
 40
0.0
  9
$USERR5
 40
0.0
  9
$WORLDVIEW
 70
     1
  9
$SHADEDGE
 70
     3
  9
$SHADEDIF
 70
    70
  9
$TILEMODE
 70
     1
  9
$MAXACTVP
 70
    64
  9
$PINSBASE
 10
0.0
 20
0.0
 30
0.0
  9
$PLIMCHECK
 70
     0
  9
$PEXTMIN
 10
1.000000000000000E+20
 20
1.000000000000000E+20
 30
1.000000000000000E+20
  9
$PEXTMAX
 10
-1.000000000000000E+20
 20
-1.000000000000000E+20
 30
-1.000000000000000E+20
  9
$PLIMMIN
 10
0.0
 20
0.0
  9
$PLIMMAX
 10
12.0
 20
9.0
  9
$UNITMODE
 70
     0
  9
$VISRETAIN
 70
     1
  9
$PLINEGEN
 70
     0
  9
$PSLTSCALE
 70
     1
  9
$TREEDEPTH
 70
  3020
  9
$CMLSTYLE
  2
Standard
  9
$CMLJUST
 70
     0
  9
$CMLSCALE
 40
1.0
  9
$PROXYGRAPHICS
 70
     1
  9
$MEASUREMENT
 70
     0
  9
$CELWEIGHT
370
    -1
  9
$ENDCAPS
280
     0
  9
$JOINSTYLE
280
     0
  9
$LWDISPLAY
290
     0
  9
$INSUNITS
 70
     5
  9
$HYPERLINKBASE
  1

  9
$STYLESHEET
  1

  9
$XEDIT
290
     1
  9
$CEPSNTYPE
380
     0
  9
$PSTYLEMODE
290
     1
  9
$FINGERPRINTGUID
  2
{D83EA7B4-8431-DA4C-A5F9-B5051958C6A2}
  9
$VERSIONGUID
  2
{7331AF41-0180-8340-8DF0-555875584712}
  9
$EXTNAMES
290
     1
  9
$PSVPSCALE
 40
0.0
  9
$OLESTARTUP
290
     0
  9
$SORTENTS
280
   127
  9
$INDEXCTL
280
     0
  9
$HIDETEXT
280
     1
  9
$XCLIPFRAME
280
     2
  9
$HALOGAP
280
     0
  9
$OBSCOLOR
 70
   257
  9
$OBSLTYPE
280
     0
  9
$INTERSECTIONDISPLAY
280
     0
  9
$INTERSECTIONCOLOR
 70
   257
  9
$DIMASSOC
280
     2
  9
$PROJECTNAME
  1

  9
$CAMERADISPLAY
290
     0
  9
$LENSLENGTH
 40
50.0
  9
$CAMERAHEIGHT
 40
0.0
  9
$STEPSPERSEC
 40
2.0
  9
$STEPSIZE
 40
6.0
  9
$3DDWFPREC
 40
2.0
  9
$PSOLWIDTH
 40
0.25
  9
$PSOLHEIGHT
 40
4.0
  9
$LOFTANG1
 40
1.570796326794896
  9
$LOFTANG2
 40
1.570796326794896
  9
$LOFTMAG1
 40
0.0
  9
$LOFTMAG2
 40
0.0
  9
$LOFTPARAM
 70
     7
  9
$LOFTNORMALS
280
     1
  9
$LATITUDE
 40
37.795
  9
$LONGITUDE
 40
-122.394
  9
$NORTHDIRECTION
 40
0.0
  9
$TIMEZONE
 70
 -8000
  9
$LIGHTGLYPHDISPLAY
280
     1
  9
$TILEMODELIGHTSYNCH
280
     1
  9
$CMATERIAL
347
11
  9
$SOLIDHIST
280
     0
  9
$SHOWHIST
280
     1
  9
$DWFFRAME
280
     2
  9
$DGNFRAME
280
     0
  9
$REALWORLDSCALE
290
     1
  9
$INTERFERECOLOR
 62
     1
  9
$INTERFEREOBJVS
345
33
  9
$INTERFEREVPVS
346
30
  9
$CSHADOW
280
     0
  9
$SHADOWPLANELOCATION
 40
0.0
  0
ENDSEC
  0
SECTION
  2
CLASSES
  0
CLASS
  1
ACDBDICTIONARYWDFLT
  2
AcDbDictionaryWithDefault
  3
ObjectDBX Classes
 90
        0
 91
        1
280
     0
281
     0
  0
CLASS
  1
MATERIAL
  2
AcDbMaterial
  3
ObjectDBX Classes
 90
     1153
 91
        3
280
     0
281
     0
  0
CLASS
  1
VISUALSTYLE
  2
AcDbVisualStyle
  3
ObjectDBX Classes
 90
     4095
 91
       24
280
     0
281
     0
  0
CLASS
  1
SCALE
  2
AcDbScale
  3
ObjectDBX Classes
 90
     1153
 91
       17
280
     0
281
     0
  0
CLASS
  1
TABLESTYLE
  2
AcDbTableStyle
  3
ObjectDBX Classes
 90
     4095
 91
        1
280
     0
281
     0
  0
CLASS
  1
MLEADERSTYLE
  2
AcDbMLeaderStyle
  3
ACDB_MLEADERSTYLE_CLASS
 90
     4095
 91
        1
280
     0
281
     0
  0
CLASS
  1
ACDBSECTIONVIEWSTYLE
  2
AcDbSectionViewStyle
  3
ObjectDBX Classes
 90
     1025
 91
        1
280
     0
281
     0
  0
CLASS
  1
ACDBDETAILVIEWSTYLE
  2
AcDbDetailViewStyle
  3
ObjectDBX Classes
 90
     1025
 91
        1
280
     0
281
     0
  0
CLASS
  1
DICTIONARYVAR
  2
AcDbDictionaryVar
  3
ObjectDBX Classes
 90
        0
 91
        5
280
     0
281
     0
  0
CLASS
  1
CELLSTYLEMAP
  2
AcDbCellStyleMap
  3
ObjectDBX Classes
 90
     1152
 91
        1
280
     0
281
     0
  0
ENDSEC
  0
SECTION
  2
TABLES
  0
TABLE
  2
VPORT
  5
8
330
0
100
AcDbSymbolTable
 70
     1
1001
ACAD
1000
DbSaveVer
1071
      205
  0
VPORT
  5
57
330
8
100
AcDbSymbolTableRecord
100
AcDbViewportTableRecord
  2
*Active
 70
     0
 10
0.0
 20
0.0
 11
1.0
 21
1.0
 12
500.0
 22
500.0
 13
0.0
 23
0.0
 14
1.0
 24
1.0
 15
0.0
 25
0.0
 16
0.0
 26
0.0
 36
1.0
 17
0.0
 27
0.0
 37
0.0
 40
12.0
 41
1.0
 42
50.0
 43
0.0
 44
0.0
 50
0.0
 51
0.0
 71
     0
 72
   100
 73
     1
 74
     0
 75
     1
 76
     0
 77
     0
 78
     0
281
     0
 65
     1
110
0.0
120
0.0
130
0.0
111
1.0
121
0.0
131
0.0
112
0.0
122
1.0
132
0.0
 79
     0
146
0.0
 60
     3
 61
     5
292
     1
282
     1
141
0.0
142
0.0
 63
   250
421
  3355443
  0
ENDTAB
  0
TABLE
  2
LTYPE
  5
5
330
0
100
AcDbSymbolTable
 70
     1
  0
LTYPE
  5
5B
330
5
100
AcDbSymbolTableRecord
100
AcDbLinetypeTableRecord
  2
ByBlock
 70
     0
  3

 72
    65
 73
     0
 40
0.0
  0
LTYPE
  5
5C
330
5
100
AcDbSymbolTableRecord
100
AcDbLinetypeTableRecord
  2
ByLayer
 70
     0
  3

 72
    65
 73
     0
 40
0.0
  0
LTYPE
  5
5D
330
5
100
AcDbSymbolTableRecord
100
AcDbLinetypeTableRecord
  2
Continuous
 70
     0
  3
Solid line
 72
    65
 73
     0
 40
0.0
  0
ENDTAB
  0
TABLE
  2
LAYER
  5
2
330
0
100
AcDbSymbolTable
 70
     4
  0
LAYER
  5
54
330
2
100
AcDbSymbolTableRecord
100
AcDbLayerTableRecord
  2
0
 70
     0
 62
     7
  6
Continuous
370
    -3
390
F
347
21
348
0
  0
LAYER
  5
7A
330
2
100
AcDbSymbolTableRecord
100
AcDbLayerTableRecord
  2
Alice acrylic v1_AcrylicLayoutV2
 70
     0
 62
     7
  6
Continuous
370
    -3
390
F
347
21
348
0
1001
NFusion_SketchTransform
1000
1.000000;0.000000;0.000000;0.000000;0.000000;1.000000;0.000000;0.000000;0.000000;0.000000;1.000000;0.000000;0.000000;0.000000;0.000000;1.000000
  0
LAYER
  5
1E7
330
2
100
AcDbSymbolTableRecord
100
AcDbLayerTableRecord
  2
Alice acrylic v1_Sketch3
 70
     0
 62
     7
  6
Continuous
370
    -3
390
F
347
21
348
0
1001
NFusion_SketchTransform
1000
1.000000;0.000000;0.000000;0.000000;0.000000;1.000000;0.000000;0.000000;0.000000;0.000000;1.000000;0.000000;0.000000;0.000000;0.000000;1.000000
  0
LAYER
  5
1ED
330
2
100
AcDbSymbolTableRecord
100
AcDbLayerTableRecord
  2
Alice acrylic v1_Sketch4
 70
     0
 62
     7
  6
Continuous
370
    -3
390
F
347
21
348
0
1001
NFusion_SketchTransform
1000
1.000000;0.000000;0.000000;0.000000;0.000000;1.000000;0.000000;0.000000;0.000000;0.000000;1.000000;0.000000;0.000000;0.000000;0.000000;1.000000
  0
ENDTAB
  0
TABLE
  2
STYLE
  5
3
330
0
100
AcDbSymbolTable
 70
     2
  0
STYLE
  5
55
330
3
100
AcDbSymbolTableRecord
100
AcDbTextStyleTableRecord
  2
Standard
 70
     0
 40
0.0
 41
1.0
 50
0.0
 71
     0
 42
0.2
  3
txt
  4

  0
STYLE
  5
5A
330
3
100
AcDbSymbolTableRecord
100
AcDbTextStyleTableRecord
  2
Annotative
 70
     0
 40
0.0
 41
1.0
 50
0.0
 71
     0
 42
0.2
  3
txt
  4

1001
AcadAnnotative
1000
AnnotativeData
1002
{
1070
     1
1070
     1
1002
}
  0
ENDTAB
  0
TABLE
  2
VIEW
  5
6
330
0
100
AcDbSymbolTable
 70
     0
  0
ENDTAB
  0
TABLE
  2
UCS
  5
7
330
0
100
AcDbSymbolTable
 70
     0
  0
ENDTAB
  0
TABLE
  2
APPID
  5
9
330
0
100
AcDbSymbolTable
 70
     4
  0
APPID
  5
56
330
9
100
AcDbSymbolTableRecord
100
AcDbRegAppTableRecord
  2
ACAD
 70
     0
  0
APPID
  5
5E
330
9
100
AcDbSymbolTableRecord
100
AcDbRegAppTableRecord
  2
AcadAnnotative
 70
     0
  0
APPID
  5
78
330
9
100
AcDbSymbolTableRecord
100
AcDbRegAppTableRecord
  2
EDIT_IN_FUSION_ACAD_ADDIN
 70
     0
  0
APPID
  5
79
330
9
100
AcDbSymbolTableRecord
100
AcDbRegAppTableRecord
  2
NFusion_SketchTransform
 70
     0
  0
ENDTAB
  0
TABLE
  2
DIMSTYLE
  5
A
330
0
100
AcDbSymbolTable
 70
     2
100
AcDbDimStyleTable
 71
     0
  0
DIMSTYLE
105
58
330
A
100
AcDbSymbolTableRecord
100
AcDbDimStyleTableRecord
  2
Standard
 70
     0
340
55
  0
DIMSTYLE
105
59
330
A
100
AcDbSymbolTableRecord
100
AcDbDimStyleTableRecord
  2
Annotative
 70
     0
340
55
1001
AcadAnnotative
1000
AnnotativeData
1002
{
1070
     1
1070
     1
1002
}
  0
ENDTAB
  0
TABLE
  2
BLOCK_RECORD
  5
1
330
0
100
AcDbSymbolTable
 70
     1
  0
BLOCK_RECORD
  5
70
330
1
100
AcDbSymbolTableRecord
100
AcDbBlockTableRecord
  2
*Model_Space
340
73
 70
     0
280
     1
281
     0
  0
BLOCK_RECORD
  5
6C
330
1
100
AcDbSymbolTableRecord
100
AcDbBlockTableRecord
  2
*Paper_Space
340
6F
 70
     0
280
     1
281
     0
  0
BLOCK_RECORD
  5
74
330
1
100
AcDbSymbolTableRecord
100
AcDbBlockTableRecord
  2
*Paper_Space0
340
77
 70
     0
280
     1
281
     0
  0
ENDTAB
  0
ENDSEC
  0
SECTION
  2
BLOCKS
  0
BLOCK
  5
71
330
70
100
AcDbEntity
  8
0
100
AcDbBlockBegin
  2
*Model_Space
 70
     0
 10
0.0
 20
0.0
 30
0.0
  3
*Model_Space
  1

  0
ENDBLK
  5
72
330
70
100
AcDbEntity
  8
0
100
AcDbBlockEnd
  0
BLOCK
  5
6D
330
6C
100
AcDbEntity
 67
     1
  8
0
100
AcDbBlockBegin
  2
*Paper_Space
 70
     0
 10
0.0
 20
0.0
 30
0.0
  3
*Paper_Space
  1

  0
ENDBLK
  5
6E
330
6C
100
AcDbEntity
 67
     1
  8
0
100
AcDbBlockEnd
  0
BLOCK
  5
75
330
74
100
AcDbEntity
 67
     1
  8
0
100
AcDbBlockBegin
  2
*Paper_Space0
 70
     0
 10
0.0
 20
0.0
 30
0.0
  3
*Paper_Space0
  1

  0
ENDBLK
  5
76
330
74
100
AcDbEntity
 67
     1
  8
0
100
AcDbBlockEnd
  0
ENDSEC
  0
SECTION
  2
ENTITIES
  0
POINT
  5
7B
330
70
100
AcDbEntity
  8
Alice acrylic v1_AcrylicLayoutV2
100
AcDbPoint
 10
0.0
 20
0.0
 30
0.0
  0
CIRCLE
  5
7C
330
70
100
AcDbEntity
  8
Alice acrylic v1_AcrylicLayoutV2
100
AcDbCircle
 10
-4.682035016156717
 20
-68.64641860656667
 30
0.0
 40
0.175
  0
CIRCLE
  5
7D
330
70
100
AcDbEntity
  8
Alice acrylic v1_AcrylicLayoutV2
100
AcDbCircle
 10
6.816708393451065
 20
-58.28241860656674
 30
0.0
 40
0.1749999999999992
  0
CIRCLE
  5
7E
330
70
100
AcDbEntity
  8
Alice acrylic v1_AcrylicLayoutV2
100
AcDbCircle
 10
18.15411144605689
 20
-54.7684855945609
 30
0.0
 40
0.175
  0
LINE
  5
7F
330
70
100
AcDbEntity
  8
Alice acrylic v1_AcrylicLayoutV2
100
AcDbLine
 10
22.09687850277422
 20
-54.90164815064103
 30
0.0
 11
30.22411144605682
 21
-54.90164815064105
 31
0.0
  0
CIRCLE
  5
80
330
70
100
AcDbEntity
  8
Alice acrylic v1_AcrylicLayoutV2
100
AcDbCircle
 10
29.60183998384308
 20
-68.64641860656667
 30
0.0
 40
0.175
  0
LINE
  5
81
330
70
100
AcDbEntity
  8
Alice acrylic v1_AcrylicLayoutV2
100
AcDbLine
 10
3.014229895184818
 20
-53.60164815064106
 30
0.0
 11
12.48723644605682
 21
-55.61519785177193
 31
0.0
  0
LINE
  5
82
330
70
100
AcDbEntity
  8
Alice acrylic v1_AcrylicLayoutV2
100
AcDbLine
 10
29.42411144605681
 20
-44.01764815064114
 30
0.0
 11
29.42411144605681
 21
-53.45164815064106
 31
0.0
  0
LINE
  5
83
330
70
100
AcDbEntity
  8
Alice acrylic v1_AcrylicLayoutV2
100
AcDbLine
 10
11.60331822057205
 20
-71.58223910449724
 30
0.0
 11
2.825322927125654
 21
-69.71641860656666
 31
0.0
  0
CIRCLE
  5
84
330
70
100
AcDbEntity
  8
Alice acrylic v1_AcrylicLayoutV2
100
AcDbCircle
 10
29.60183998384307
 20
-58.45241860656674
 30
0.0
 40
0.1749999999999998
  0
ARC
  5
85
330
70
100
AcDbEntity
  8
Alice acrylic v1_AcrylicLayoutV2
100
AcDbCircle
 10
30.22411144605682
 20
-54.40164815064107
 30
0.0
 40
0.4999999999999787
100
AcDbArc
 50
270.0
 51
0.0
  0
CIRCLE
  5
86
330
70
100
AcDbEntity
  8
Alice acrylic v1_AcrylicLayoutV2
100
AcDbCircle
 10
6.870236446056989
 20
-54.77908685307426
 30
0.0
 40
0.1750000000000005
  0
CIRCLE
  5
87
330
70
100
AcDbEntity
  8
Alice acrylic v1_AcrylicLayoutV2
100
AcDbCircle
 10
18.10183998384316
 20
-69.58325605048654
 30
0.0
 40
0.175
  0
CIRCLE
  5
88
330
70
100
AcDbEntity
  8
Alice acrylic v1_AcrylicLayoutV2
100
AcDbCircle
 10
6.817964983843197
 20
-69.5938573089999
 30
0.0
 40
0.175
  0
CIRCLE
  5
89
330
70
100
AcDbEntity
  8
Alice acrylic v1_AcrylicLayoutV2
100
AcDbCircle
 10
-4.682035016156731
 20
-58.45241860656673
 30
0.0
 40
0.1750000000000002
  0
LINE
  5
8A
330
70
100
AcDbEntity
  8
Alice acrylic v1_AcrylicLayoutV2
100
AcDbLine
 10
-4.399763553942909
 20
-53.45164815064102
 30
0.0
 11
-4.39976355394288
 21
-44.01764815064111
 31
0.0
  0
LINE
  5
8B
330
70
100
AcDbEntity
  8
Alice acrylic v1_AcrylicLayoutV2
100
AcDbLine
 10
11.95223644605668
 20
-42.56764815064114
 30
0.0
 11
11.95971644605694
 21
-43.86764815064114
 31
0.0
  0
LINE
  5
8C
330
70
100
AcDbEntity
  8
Alice acrylic v1_AcrylicLayoutV2
100
AcDbLine
 10
-5.199763553942882
 20
-42.5676481506411
 30
0.0
 11
11.95223644605668
 21
-42.56764815064114
 31
0.0
  0
ARC
  5
8D
330
70
100
AcDbEntity
  8
Alice acrylic v1_AcrylicLayoutV2
100
AcDbCircle
 10
-4.249763553942877
 20
-44.01764815064111
 30
0.0
 40
0.1499999999999986
100
AcDbArc
 50
90.0
 51
180.0
  0
LINE
  5
8E
330
70
100
AcDbEntity
  8
Alice acrylic v1_AcrylicLayoutV2
100
AcDbLine
 10
2.558437609998024
 20
-23.59381421790923
 30
0.0
 11
-5.518920333284394
 21
-23.59381421790924
 31
0.0
  0
ARC
  5
8F
330
70
100
AcDbEntity
  8
Alice acrylic v1_AcrylicLayoutV2
100
AcDbCircle
 10
5.518920333284386
 20
-23.09381421790924
 30
0.0
 40
0.5000000000000071
210
0.0
220
0.0
230
-1.0
100
AcDbArc
 50
270.0000000000009
 51
0.0
  0
CIRCLE
  5
90
330
70
100
AcDbEntity
  8
Alice acrylic v1_AcrylicLayoutV2
100
AcDbCircle
 10
33.41870806821146
 20
-45.9814292002227
 30
0.0
 40
0.1749999999999948
  0
LINE
  5
91
330
70
100
AcDbEntity
  8
Alice acrylic v1_AcrylicLayoutV2
100
AcDbLine
 10
28.74007966671566
 20
-18.43581421790924
 30
0.0
 11
29.00795466671566
 21
-18.43581421790928
 31
0.0
  0
LINE
  5
92
330
70
100
AcDbEntity
  8
Alice acrylic v1_AcrylicLayoutV2
100
AcDbLine
 10
13.11347337052917
 20
-19.81235368957701
 30
0.0
 11
12.73852942212097
 21
-18.04838110052902
 31
0.0
  0
ARC
  5
93
330
70
100
AcDbEntity
  8
Alice acrylic v1_AcrylicLayoutV2
100
AcDbCircle
 10
-12.35940997092408
 20
-20.12598590230803
 30
0.0
 40
0.1500000000000044
210
0.0
220
0.0
230
-1.0
100
AcDbArc
 50
347.9999999999966
 51
77.99999999999911
  0
CIRCLE
  5
94
330
70
100
AcDbEntity
  8
Alice acrylic v1_AcrylicLayoutV2
100
AcDbCircle
 10
18.10183998384315
 20
-58.33241860656674
 30
0.0
 40
0.1750000000000008
  0
LINE
  5
95
330
70
100
AcDbEntity
  8
Alice acrylic v1_AcrylicLayoutV2
100
AcDbLine
 10
30.67183998384308
 20
-57.88241860656674
 30
0.0
 11
30.6718399838431
 21
-69.21641860656667
 31
0.0
  0
LINE
  5
96
330
70
100
AcDbEntity
  8
Alice acrylic v1_AcrylicLayoutV2
100
AcDbLine
 10
12.96360739971295
 20
-23.68997146956926
 30
0.0
 11
12.212687830814
 21
-20.15717265593071
 31
0.0
  0
ARC
  5
97
330
70
100
AcDbEntity
  8
Alice acrylic v1_AcrylicLayoutV2
100
AcDbCircle
 10
32.71869637287494
 20
-46.18142920022269
 30
0.0
 40
0.5000000000000142
100
AcDbArc
 50
179.9999999999984
 51
270.0
  0
LINE
  5
98
330
70
100
AcDbEntity
  8
Alice acrylic v1_AcrylicLayoutV2
100
AcDbLine
 10
3.014229895184818
 20
-53.60164815064106
 30
0.0
 11
-4.249763553942891
 21
-53.60164815064104
 31
0.0
  0
CIRCLE
  5
99
330
70
100
AcDbEntity
  8
Alice acrylic v1_AcrylicLayoutV2
100
AcDbCircle
 10
-4.629763553942892
 20
-53.83164815064102
 30
0.0
 40
0.175
  0
LINE
  5
9A
330
70
100
AcDbEntity
  8
Alice acrylic v1_AcrylicLayoutV2
100
AcDbLine
 10
12.78668108621999
 20
-15.9873309150702
 30
0.0
 11
12.42164895091211
 21
-14.26998974037352
 31
0.0
  0
CIRCLE
  5
9B
330
70
100
AcDbEntity
  8
Alice acrylic v1_AcrylicLayoutV2
100
AcDbCircle
 10
29.65411144605682
 20
-43.63764815064114
 30
0.0
 40
0.1750000000000006
  0
LINE
  5
9C
330
70
100
AcDbEntity
  8
Alice acrylic v1_AcrylicLayoutV2
100
AcDbLine
 10
29.00795466671566
 20
-20.44181421790926
 30
0.0
 11
28.79063966671567
 21
-20.44181421790926
 31
0.0
  0
CIRCLE
  5
9D
330
70
100
AcDbEntity
  8
Alice acrylic v1_AcrylicLayoutV2
100
AcDbCircle
 10
6.868979855664865
 20
-43.4676481506411
 30
0.0
 40
0.175000000000001
  0
ARC
  5
9E
330
70
100
AcDbEntity
  8
Alice acrylic v1_AcrylicLayoutV2
100
AcDbCircle
 10
-12.43496498384304
 20
-67.66964870156224
 30
0.0
 40
3.999999999999775
210
0.0
220
0.0
230
-1.0
100
AcDbArc
 50
257.9999999999996
 51
282.0000000000001
  0
LINE
  5
9F
330
70
100
AcDbEntity
  8
Alice acrylic v1_AcrylicLayoutV2
100
AcDbLine
 10
30.1718399838431
 20
-69.71641860656667
 30
0.0
 11
22.04460704056046
 21
-69.71641860656666
 31
0.0
  0
ARC
  5
A0
330
70
100
AcDbEntity
  8
Alice acrylic v1_AcrylicLayoutV2
100
AcDbCircle
 10
-28.16407966671566
 20
-14.77581421790925
 30
0.0
 40
0.1500000000000092
210
0.0
220
0.0
230
-1.0
100
AcDbArc
 50
89.99999999999864
 51
180.0
  0
CIRCLE
  5
A1
330
70
100
AcDbEntity
  8
Alice acrylic v1_AcrylicLayoutV2
100
AcDbCircle
 10
18.15411144605689
 20
-43.51764815064111
 30
0.0
 40
0.1750000000000008
  0
ARC
  5
A2
330
70
100
AcDbEntity
  8
Alice acrylic v1_AcrylicLayoutV2
100
AcDbCircle
 10
-12.56837109102218
 20
-14.23880298675087
 30
0.0
 40
0.1499999999999966
210
0.0
220
0.0
230
-1.0
100
AcDbArc
 50
348.0000000000043
 51
78.00000000000082
  0
LINE
  5
A3
330
70
100
AcDbEntity
  8
Alice acrylic v1_AcrylicLayoutV2
100
AcDbLine
 10
2.877594389339449
 20
-54.901648150641
 30
0.0
 11
-5.199763553942892
 21
-54.901648150641
 31
0.0
  0
LINE
  5
A4
330
70
100
AcDbEntity
  8
Alice acrylic v1_AcrylicLayoutV2
100
AcDbLine
 10
12.48723644605682
 20
-55.61519785177193
 30
0.0
 11
21.96024299692886
 21
-53.60164815064106
 31
0.0
  0
LINE
  5
A5
330
70
100
AcDbEntity
  8
Alice acrylic v1_AcrylicLayoutV2
100
AcDbLine
 10
2.877594389339449
 20
-54.901648150641
 30
0.0
 11
11.6555896827858
 21
-56.76746864857157
 31
0.0
  0
ARC
  5
A6
330
70
100
AcDbEntity
  8
Alice acrylic v1_AcrylicLayoutV2
100
AcDbCircle
 10
-12.03337109102218
 20
-16.30080298675087
 30
0.0
 40
0.1500000000000022
210
0.0
220
0.0
230
-1.0
100
AcDbArc
 50
348.0000000000006
 51
77.99999999999181
  0
LINE
  5
A7
330
70
100
AcDbEntity
  8
Alice acrylic v1_AcrylicLayoutV2
100
AcDbLine
 10
-5.75203501615671
 20
-69.21641860656666
 30
0.0
 11
-5.752035016156725
 21
-57.88241860656673
 31
0.0
  0
LINE
  5
A8
330
70
100
AcDbEntity
  8
Alice acrylic v1_AcrylicLayoutV2
100
AcDbLine
 10
13.02223644605716
 20
-42.56764815064113
 30
0.0
 11
13.0147564460569
 21
-43.86764815064114
 31
0.0
  0
LINE
  5
A9
330
70
100
AcDbEntity
  8
Alice acrylic v1_AcrylicLayoutV2
100
AcDbLine
 10
20.70925624747718
 20
-20.44181421790926
 30
0.0
 11
21.06610864046851
 21
-22.12067273061572
 31
0.0
  0
ARC
  5
AA
330
70
100
AcDbEntity
  8
Alice acrylic v1_AcrylicLayoutV2
100
AcDbCircle
 10
-5.199763553942882
 20
-43.06764815064111
 30
0.0
 40
0.5000000000000071
100
AcDbArc
 50
90.0
 51
179.9999999999984
  0
CIRCLE
  5
AB
330
70
100
AcDbEntity
  8
Alice acrylic v1_AcrylicLayoutV2
100
AcDbCircle
 10
-4.629763553942884
 20
-43.63764815064111
 30
0.0
 40
0.1750000000000004
  0
ARC
  5
AC
330
70
100
AcDbEntity
  8
Alice acrylic v1_AcrylicLayoutV2
100
AcDbCircle
 10
-5.199763553942893
 20
-54.401648150641
 30
0.0
 40
0.4999999999999983
100
AcDbArc
 50
180.0
 51
270.0
  0
LINE
  5
AD
330
70
100
AcDbEntity
  8
Alice acrylic v1_AcrylicLayoutV2
100
AcDbLine
 10
13.0147564460569
 20
-43.25045843825263
 30
0.0
 11
13.0147564460569
 21
-43.86764815064114
 31
0.0
  0
CIRCLE
  5
AE
330
70
100
AcDbEntity
  8
Alice acrylic v1_AcrylicLayoutV2
100
AcDbCircle
 10
43.98740806821143
 20
-45.9814292002227
 30
0.0
 40
0.1749999999999995
  0
LINE
  5
AF
330
70
100
AcDbEntity
  8
Alice acrylic v1_AcrylicLayoutV2
100
AcDbLine
 10
-5.69976355394288
 20
-43.06764815064109
 30
0.0
 11
-5.699763553942891
 21
-54.401648150641
 31
0.0
  0
LINE
  5
B0
330
70
100
AcDbEntity
  8
Alice acrylic v1_AcrylicLayoutV2
100
AcDbLine
 10
29.15795466671564
 20
-18.58581421790925
 30
0.0
 11
29.15795466671568
 21
-20.29181421790925
 31
0.0
  0
LINE
  5
B1
330
70
100
AcDbEntity
  8
Alice acrylic v1_AcrylicLayoutV2
100
AcDbLine
 10
11.95971644605694
 20
-43.86764815064114
 30
0.0
 11
11.95971644605694
 21
-43.25045799636959
 31
0.0
  0
ARC
  5
B2
330
70
100
AcDbEntity
  8
Alice acrylic v1_AcrylicLayoutV2
100
AcDbCircle
 10
29.27411144605685
 20
-53.45164815064106
 30
0.0
 40
0.1499999999999915
100
AcDbArc
 50
270.0
 51
0.0
  0
LINE
  5
B3
330
70
100
AcDbEntity
  8
Alice acrylic v1_AcrylicLayoutV2
100
AcDbLine
 10
13.31888320932782
 20
-56.76746864857158
 30
0.0
 11
22.09687850277422
 21
-54.90164815064103
 31
0.0
  0
LINE
  5
B4
330
70
100
AcDbEntity
  8
Alice acrylic v1_AcrylicLayoutV2
100
AcDbLine
 10
30.72411144605682
 20
-43.06764815064116
 30
0.0
 11
30.72411144605682
 21
-54.40164815064107
 31
0.0
  0
ARC
  5
B5
330
70
100
AcDbEntity
  8
Alice acrylic v1_AcrylicLayoutV2
100
AcDbCircle
 10
12.48723644605683
 20
-52.8548782456364
 30
0.0
 40
3.999999999999951
100
AcDbArc
 50
257.9999999999998
 51
281.9999999999994
  0
LINE
  5
B6
330
70
100
AcDbEntity
  8
Alice acrylic v1_AcrylicLayoutV2
100
AcDbLine
 10
22.22407966671564
 20
-12.72081421790925
 30
0.0
 11
27.74707966671567
 21
-12.72081421790926
 31
0.0
  0
LINE
  5
B7
330
70
100
AcDbEntity
  8
Alice acrylic v1_AcrylicLayoutV2
100
AcDbLine
 10
22.04460704056046
 20
-69.71641860656666
 30
0.0
 11
13.26661174711407
 21
-71.58223910449724
 31
0.0
  0
LINE
  5
B8
330
70
100
AcDbEntity
  8
Alice acrylic v1_AcrylicLayoutV2
100
AcDbLine
 10
25.83063966671566
 20
-22.20161421790925
 30
0.0
 11
25.83063966671566
 21
-20.44181421790926
 31
0.0
  0
LINE
  5
B9
330
70
100
AcDbEntity
  8
Alice acrylic v1_AcrylicLayoutV2
100
AcDbLine
 10
2.825322927125654
 20
-69.71641860656666
 30
0.0
 11
-5.25203501615671
 21
-69.71641860656666
 31
0.0
  0
ARC
  5
BA
330
70
100
AcDbEntity
  8
Alice acrylic v1_AcrylicLayoutV2
100
AcDbCircle
 10
-27.74707966671567
 20
-12.87081421790925
 30
0.0
 40
0.1499999999999915
210
0.0
220
0.0
230
-1.0
100
AcDbArc
 50
89.99999999999864
 51
180.0
  0
ARC
  5
BB
330
70
100
AcDbEntity
  8
Alice acrylic v1_AcrylicLayoutV2
100
AcDbCircle
 10
-4.249763553942891
 20
-53.45164815064102
 30
0.0
 40
0.1500000000000181
100
AcDbArc
 50
180.0
 51
270.0
  0
LINE
  5
BC
330
70
100
AcDbEntity
  8
Alice acrylic v1_AcrylicLayoutV2
100
AcDbLine
 10
-4.249763553942877
 20
-43.8676481506411
 30
0.0
 11
11.95971644605694
 21
-43.86764815064114
 31
0.0
  0
ARC
  5
BD
330
70
100
AcDbEntity
  8
Alice acrylic v1_AcrylicLayoutV2
100
AcDbCircle
 10
-30.17183998384309
 20
-57.88241860656673
 30
0.0
 40
0.4999999999999858
210
0.0
220
0.0
230
-1.0
100
AcDbArc
 50
90.0
 51
180.0000000000008
  0
ARC
  5
BE
330
70
100
AcDbEntity
  8
Alice acrylic v1_AcrylicLayoutV2
100
AcDbCircle
 10
5.252035016156739
 20
-57.88241860656672
 30
0.0
 40
0.4999999999999858
210
0.0
220
0.0
230
-1.0
100
AcDbArc
 50
359.9999999999992
 51
90.00000000000161
  0
ARC
  5
BF
330
70
100
AcDbEntity
  8
Alice acrylic v1_AcrylicLayoutV2
100
AcDbCircle
 10
29.27411144605685
 20
-44.01764815064114
 30
0.0
 40
0.149999999999963
100
AcDbArc
 50
0.0
 51
90.0
  0
ARC
  5
C0
330
70
100
AcDbEntity
  8
Alice acrylic v1_AcrylicLayoutV2
100
AcDbCircle
 10
5.252035016156725
 20
-69.21641860656666
 30
0.0
 40
0.5
210
0.0
220
0.0
230
-1.0
100
AcDbArc
 50
269.9999999999984
 51
0.0
  0
LINE
  5
C1
330
70
100
AcDbEntity
  8
Alice acrylic v1_AcrylicLayoutV2
100
AcDbLine
 10
32.21869637287493
 20
-45.78142920022268
 30
0.0
 11
32.21869637287493
 21
-46.18142920022267
 31
0.0
  0
ARC
  5
C2
330
70
100
AcDbEntity
  8
Alice acrylic v1_AcrylicLayoutV2
100
AcDbCircle
 10
-29.90495466671557
 20
-23.09381421790923
 30
0.0
 40
0.5000000000000071
210
0.0
220
0.0
230
-1.0
100
AcDbArc
 50
180.0000000000008
 51
270.0
  0
ARC
  5
C3
330
70
100
AcDbEntity
  8
Alice acrylic v1_AcrylicLayoutV2
100
AcDbCircle
 10
32.71869637287492
 20
-45.78142920022267
 30
0.0
 40
0.4999999999999858
100
AcDbArc
 50
89.99999999999836
 51
180.0000000000016
  0
LINE
  5
C4
330
70
100
AcDbEntity
  8
Alice acrylic v1_AcrylicLayoutV2
100
AcDbLine
 10
30.22411144605682
 20
-42.56764815064116
 30
0.0
 11
13.02223644605716
 21
-42.56764815064113
 31
0.0
  0
LINE
  5
C5
330
70
100
AcDbEntity
  8
Alice acrylic v1_AcrylicLayoutV2
100
AcDbLine
 10
11.33643290344445
 20
-25.45963471583981
 30
0.0
 11
2.558437609998025
 21
-23.59381421790923
 31
0.0
  0
LINE
  5
C6
330
70
100
AcDbEntity
  8
Alice acrylic v1_AcrylicLayoutV2
100
AcDbLine
 10
13.0147564460569
 20
-43.86764815064114
 30
0.0
 11
29.27411144605685
 21
-43.86764815064117
 31
0.0
  0
CIRCLE
  5
C7
330
70
100
AcDbEntity
  8
Alice acrylic v1_AcrylicLayoutV2
100
AcDbCircle
 10
29.65411144605679
 20
-53.83164815064104
 30
0.0
 40
0.1749999999999996
  0
ARC
  5
C8
330
70
100
AcDbEntity
  8
Alice acrylic v1_AcrylicLayoutV2
100
AcDbCircle
 10
-30.17183998384311
 20
-69.21641860656669
 30
0.0
 40
0.4999999999999858
210
0.0
220
0.0
230
-1.0
100
AcDbArc
 50
179.9999999999984
 51
270.0000000000017
  0
LINE
  5
C9
330
70
100
AcDbEntity
  8
Alice acrylic v1_AcrylicLayoutV2
100
AcDbLine
 10
12.32822321730141
 20
-19.97926376219795
 30
0.0
 11
13.11347337052917
 21
-19.81235368957701
 31
0.0
  0
LINE
  5
CA
330
70
100
AcDbEntity
  8
Alice acrylic v1_AcrylicLayoutV2
100
AcDbLine
 10
29.27411144605685
 20
-53.60164815064106
 30
0.0
 11
21.96024299692886
 21
-53.60164815064106
 31
0.0
  0
ARC
  5
CB
330
70
100
AcDbEntity
  8
Alice acrylic v1_AcrylicLayoutV2
100
AcDbCircle
 10
30.22411144605682
 20
-43.06764815064116
 30
0.0
 40
0.5
100
AcDbArc
 50
0.0
 51
90.0
  0
LINE
  5
CC
330
70
100
AcDbEntity
  8
Alice acrylic v1_AcrylicLayoutV2
100
AcDbLine
 10
-5.252035016156725
 20
-57.38241860656675
 30
0.0
 11
30.17183998384309
 21
-57.38241860656675
 31
0.0
  0
ARC
  5
CD
330
70
100
AcDbEntity
  8
Alice acrylic v1_AcrylicLayoutV2
100
AcDbCircle
 10
-13.11032953982302
 20
-23.65878471594658
 30
0.0
 40
0.1500000000000031
210
0.0
220
0.0
230
-1.0
100
AcDbArc
 50
257.9999999999957
 51
347.9999999999952
  0
ARC
  5
CE
330
70
100
AcDbEntity
  8
Alice acrylic v1_AcrylicLayoutV2
100
AcDbCircle
 10
-12.38806843555728
 20
-17.96952279360274
 30
0.0
 40
0.1499999999999975
210
0.0
220
0.0
230
-1.0
100
AcDbArc
 50
258.0000000000057
 51
348.0000000000001
  0
ARC
  5
CF
330
70
100
AcDbEntity
  8
Alice acrylic v1_AcrylicLayoutV2
100
AcDbCircle
 10
-2.272079666715669
 20
-12.65681421790925
 30
0.0
 40
0.1499999999999972
210
0.0
220
0.0
230
-1.0
100
AcDbArc
 50
0.0
 51
90.00000000000049
  0
ARC
  5
D0
330
70
100
AcDbEntity
  8
Alice acrylic v1_AcrylicLayoutV2
100
AcDbCircle
 10
-11.05378824240914
 20
-20.12580298675088
 30
0.0
 40
0.1500000000000096
210
0.0
220
0.0
230
-1.0
100
AcDbArc
 50
102.0000000000029
 51
191.9999999999973
  0
LINE
  5
D1
330
70
100
AcDbEntity
  8
Alice acrylic v1_AcrylicLayoutV2
100
AcDbLine
 10
11.71451038251921
 20
-22.2139897403735
 30
0.0
 11
11.35981303798413
 21
-23.8827095472254
 31
0.0
  0
LINE
  5
D2
330
70
100
AcDbEntity
  8
Alice acrylic v1_AcrylicLayoutV2
100
AcDbLine
 10
18.17283142329319
 20
-22.7360678113779
 30
0.0
 11
13.1415162934457
 21
-23.80550685605665
 31
0.0
  0
LINE
  5
D3
330
70
100
AcDbEntity
  8
Alice acrylic v1_AcrylicLayoutV2
100
AcDbLine
 10
25.83063966671566
 20
-20.44181421790926
 30
0.0
 11
20.70925624747718
 21
-20.44181421790926
 31
0.0
  0
ARC
  5
D4
330
70
100
AcDbEntity
  8
Alice acrylic v1_AcrylicLayoutV2
100
AcDbCircle
 10
2.915920333284334
 20
-18.17281421790925
 30
0.0
 40
0.1499999999999964
210
0.0
220
0.0
230
-1.0
100
AcDbArc
 50
180.0000000000013
 51
270.0000000000008
  0
ARC
  5
D5
330
70
100
AcDbEntity
  8
Alice acrylic v1_AcrylicLayoutV2
100
AcDbCircle
 10
-28.59007966671565
 20
-16.68081421790927
 30
0.0
 40
0.1500000000000199
210
0.0
220
0.0
230
-1.0
100
AcDbArc
 50
90.00000000000273
 51
179.9999999999959
  0
ARC
  5
D6
330
70
100
AcDbEntity
  8
Alice acrylic v1_AcrylicLayoutV2
100
AcDbCircle
 10
-25.98063966671567
 20
-22.20161421790926
 30
0.0
 40
0.1500000000000163
210
0.0
220
0.0
230
-1.0
100
AcDbArc
 50
269.9999999999986
 51
0.0000000000027141
  0
ARC
  5
D7
330
70
100
AcDbEntity
  8
Alice acrylic v1_AcrylicLayoutV2
100
AcDbCircle
 10
-10.51878824240914
 20
-18.06480298675087
 30
0.0
 40
0.1500000000000008
210
0.0
220
0.0
230
-1.0
100
AcDbArc
 50
102.0000000000002
 51
191.9999999999967
  0
CIRCLE
  5
D8
330
70
100
AcDbEntity
  8
Alice acrylic v1_AcrylicLayoutV2
100
AcDbCircle
 10
17.83495466671556
 20
-23.46065166182912
 30
0.0
 40
0.175
  0
ARC
  5
D9
330
70
100
AcDbEntity
  8
Alice acrylic v1_AcrylicLayoutV2
100
AcDbCircle
 10
-22.07407966671567
 20
-12.65681421790926
 30
0.0
 40
0.1499999999999773
210
0.0
220
0.0
230
-1.0
100
AcDbArc
 50
90.0
 51
180.0
  0
ARC
  5
DA
330
70
100
AcDbEntity
  8
Alice acrylic v1_AcrylicLayoutV2
100
AcDbCircle
 10
-19.9622732517174
 20
-12.66718056614879
 30
0.0
 40
0.1499999999998491
210
0.0
220
0.0
230
-1.0
100
AcDbArc
 50
78.0000000000048
 51
87.7063004764874
  0
LINE
  5
DB
330
70
100
AcDbEntity
  8
Alice acrylic v1_AcrylicLayoutV2
100
AcDbLine
 10
10.83558731612429
 20
-21.87381778617838
 30
0.0
 11
11.59897499603181
 21
-22.03608084664077
 31
0.0
  0
LINE
  5
DC
330
70
100
AcDbEntity
  8
Alice acrylic v1_AcrylicLayoutV2
100
AcDbLine
 10
5.062502402200678
 20
-22.85121089854208
 30
0.0
 11
2.462586079450227
 21
-22.29858162434846
 31
0.0
  0
ARC
  5
DD
330
70
100
AcDbEntity
  8
Alice acrylic v1_AcrylicLayoutV2
100
AcDbCircle
 10
2.736920333284327
 20
-18.58581421790925
 30
0.0
 40
0.1500000000000057
210
0.0
220
0.0
230
-1.0
100
AcDbArc
 50
359.9999999999973
 51
90.0
  0
LINE
  5
DE
330
70
100
AcDbEntity
  8
Alice acrylic v1_AcrylicLayoutV2
100
AcDbLine
 10
12.73852942212097
 20
-18.04838110052902
 30
0.0
 11
12.41925518917993
 21
-18.11624493371281
 31
0.0
  0
ARC
  5
DF
330
70
100
AcDbEntity
  8
Alice acrylic v1_AcrylicLayoutV2
100
AcDbCircle
 10
2.092920333284317
 20
-14.36281421790925
 30
0.0
 40
0.1499999999999937
210
0.0
220
0.0
230
-1.0
100
AcDbArc
 50
180.0
 51
270.0000000000018
  0
LINE
  5
E0
330
70
100
AcDbEntity
  8
Alice acrylic v1_AcrylicLayoutV2
100
AcDbLine
 10
28.64063966671566
 20
-22.35161421790925
 30
0.0
 11
25.98063966671567
 21
-22.35161421790928
 31
0.0
  0
ARC
  5
E1
330
70
100
AcDbEntity
  8
Alice acrylic v1_AcrylicLayoutV2
100
AcDbCircle
 10
-11.56778824240915
 20
-22.18280298675084
 30
0.0
 40
0.1499999999999959
210
0.0
220
0.0
230
-1.0
100
AcDbArc
 50
101.9999999999978
 51
191.9999999999985
  0
LINE
  5
E2
330
70
100
AcDbEntity
  8
Alice acrylic v1_AcrylicLayoutV2
100
AcDbLine
 10
4.128079666715664
 20
-12.65766870145569
 30
0.0
 11
11.80797499603181
 21
-14.29008084664079
 31
0.0
  0
ARC
  5
E3
330
70
100
AcDbEntity
  8
Alice acrylic v1_AcrylicLayoutV2
100
AcDbCircle
 10
-28.64063966671566
 20
-22.20161421790926
 30
0.0
 40
0.1499999999999986
210
0.0
220
0.0
230
-1.0
100
AcDbArc
 50
179.9999999999986
 51
270.0
  0
ARC
  5
E4
330
70
100
AcDbEntity
  8
Alice acrylic v1_AcrylicLayoutV2
100
AcDbCircle
 10
-3.978079666715657
 20
-12.65681421790925
 30
0.0
 40
0.1500000000000057
210
0.0
220
0.0
230
-1.0
100
AcDbArc
 50
90.00000000000033
 51
180.0
  0
LINE
  5
E5
330
70
100
AcDbEntity
  8
Alice acrylic v1_AcrylicLayoutV2
100
AcDbLine
 10
28.31407966671567
 20
-14.77581421790925
 30
0.0
 11
28.31407966671568
 21
-16.53081421790925
 31
0.0
  0
LINE
  5
E6
330
70
100
AcDbEntity
  8
Alice acrylic v1_AcrylicLayoutV2
100
AcDbLine
 10
28.74007966671566
 20
-16.68081421790926
 30
0.0
 11
28.74007966671566
 21
-18.43581421790924
 31
0.0
  0
LINE
  5
E7
330
70
100
AcDbEntity
  8
Alice acrylic v1_AcrylicLayoutV2
100
AcDbLine
 10
21.77772172343294
 20
-23.59381421790923
 30
0.0
 11
12.99972642998649
 21
-25.45963471583982
 31
0.0
  0
ARC
  5
E8
330
70
100
AcDbEntity
  8
Alice acrylic v1_AcrylicLayoutV2
100
AcDbCircle
 10
4.621920333284328
 20
-16.46681421790925
 30
0.0
 40
0.1500000000000003
210
0.0
220
0.0
230
-1.0
100
AcDbArc
 50
0.000000000001357
 51
89.99999999999934
  0
LINE
  5
E9
330
70
100
AcDbEntity
  8
Alice acrylic v1_AcrylicLayoutV2
100
AcDbLine
 10
-2.736920333284327
 20
-18.43581421790924
 30
0.0
 11
-2.469920333284331
 21
-18.43581421790924
 31
0.0
  0
ARC
  5
EA
330
70
100
AcDbEntity
  8
Alice acrylic v1_AcrylicLayoutV2
100
AcDbCircle
 10
-29.90495466671556
 20
-11.75981421790925
 30
0.0
 40
0.5
210
0.0
220
0.0
230
-1.0
100
AcDbArc
 50
89.99999999999959
 51
179.9999999999996
  0
LINE
  5
EB
330
70
100
AcDbEntity
  8
Alice acrylic v1_AcrylicLayoutV2
100
AcDbLine
 10
-4.771920333284328
 20
-18.17281421790925
 30
0.0
 11
-4.771920333284328
 21
-16.46681421790925
 31
0.0
  0
LINE
  5
EC
330
70
100
AcDbEntity
  8
Alice acrylic v1_AcrylicLayoutV2
100
AcDbLine
 10
-1.94292033328433
 20
-12.65681421790925
 30
0.0
 11
-1.942920333284323
 21
-14.36281421790925
 31
0.0
  0
LINE
  5
ED
330
70
100
AcDbEntity
  8
Alice acrylic v1_AcrylicLayoutV2
100
AcDbLine
 10
30.40495466671556
 20
-11.75981421790924
 30
0.0
 11
30.40495466671558
 21
-23.09381421790924
 31
0.0
  0
LINE
  5
EE
330
70
100
AcDbEntity
  8
Alice acrylic v1_AcrylicLayoutV2
100
AcDbLine
 10
-3.798920333284331
 20
-12.50681421790925
 30
0.0
 11
-2.092920333284322
 21
-12.50681421790926
 31
0.0
  0
ARC
  5
EF
330
70
100
AcDbEntity
  8
Alice acrylic v1_AcrylicLayoutV2
100
AcDbCircle
 10
-29.00795466671566
 20
-18.58581421790925
 30
0.0
 40
0.1499999999999773
210
0.0
220
0.0
230
-1.0
100
AcDbArc
 50
90.0
 51
180.0
  0
LINE
  5
F0
330
70
100
AcDbEntity
  8
Alice acrylic v1_AcrylicLayoutV2
100
AcDbLine
 10
28.79063966671567
 20
-20.44181421790926
 30
0.0
 11
28.79063966671566
 21
-22.20161421790925
 31
0.0
  0
LINE
  5
F1
330
70
100
AcDbEntity
  8
Alice acrylic v1_AcrylicLayoutV2
100
AcDbLine
 10
0.0730796667156731
 20
-20.44181421790926
 30
0.0
 11
0.073079666715673
 21
-22.19681421790925
 31
0.0
  0
LINE
  5
F2
330
70
100
AcDbEntity
  8
Alice acrylic v1_AcrylicLayoutV2
100
AcDbLine
 10
12.24134629544721
 20
-18.0007095472254
 30
0.0
 11
11.8866489509121
 21
-16.33198974037353
 31
0.0
  0
ARC
  5
F3
330
70
100
AcDbEntity
  8
Alice acrylic v1_AcrylicLayoutV2
100
AcDbCircle
 10
2.319920333284325
 20
-16.68081421790925
 30
0.0
 40
0.1500000000000061
210
0.0
220
0.0
230
-1.0
100
AcDbArc
 50
359.9999999999986
 51
89.99999999999968
  0
LINE
  5
F4
330
70
100
AcDbEntity
  8
Alice acrylic v1_AcrylicLayoutV2
100
AcDbLine
 10
12.00218433739949
 20
-16.1540808466408
 30
0.0
 11
12.78668108621999
 21
-15.9873309150702
 31
0.0
  0
ARC
  5
F5
330
70
100
AcDbEntity
  8
Alice acrylic v1_AcrylicLayoutV2
100
AcDbCircle
 10
-20.91938650035844
 20
-22.15185948423838
 30
0.0
 40
0.1500000000000067
210
0.0
220
0.0
230
-1.0
100
AcDbArc
 50
168.0000000000023
 51
258.000000000001
  0
LINE
  5
F6
330
70
100
AcDbEntity
  8
Alice acrylic v1_AcrylicLayoutV2
100
AcDbLine
 10
27.89707966671564
 20
-14.62581421790924
 30
0.0
 11
28.16407966671566
 21
-14.62581421790924
 31
0.0
  0
LINE
  5
F7
330
70
100
AcDbEntity
  8
Alice acrylic v1_AcrylicLayoutV2
100
AcDbLine
 10
12.53718433739952
 20
-14.0920808466408
 30
0.0
 11
19.93108649809478
 21
-12.52045842603886
 31
0.0
  0
LINE
  5
F8
330
70
100
AcDbEntity
  8
Alice acrylic v1_AcrylicLayoutV2
100
AcDbLine
 10
28.31407966671568
 20
-16.53081421790925
 30
0.0
 11
28.59007966671565
 21
-16.53081421790925
 31
0.0
  0
LINE
  5
F9
330
70
100
AcDbEntity
  8
Alice acrylic v1_AcrylicLayoutV2
100
AcDbLine
 10
-2.358920333284341
 20
-14.51281421790924
 30
0.0
 11
-2.358920333284341
 21
-16.26781421790926
 31
0.0
  0
LINE
  5
FA
330
70
100
AcDbEntity
  8
Alice acrylic v1_AcrylicLayoutV2
100
AcDbLine
 10
11.20051038251922
 20
-20.15698974037354
 30
0.0
 11
10.83558731612429
 21
-21.87381778617838
 31
0.0
  0
LINE
  5
FB
330
70
100
AcDbEntity
  8
Alice acrylic v1_AcrylicLayoutV2
100
AcDbLine
 10
19.95626996419462
 20
-12.51730074582973
 30
0.0
 11
20.21507922589145
 21
-12.50693439759004
 31
0.0
  0
LINE
  5
FC
330
70
100
AcDbEntity
  8
Alice acrylic v1_AcrylicLayoutV2
100
AcDbLine
 10
-6.018920333284392
 20
-23.09381421790924
 30
0.0
 11
-6.018920333284389
 21
-11.75981421790925
 31
0.0
  0
ARC
  5
FD
330
70
100
AcDbEntity
  8
Alice acrylic v1_AcrylicLayoutV2
100
AcDbCircle
 10
-18.31946965315054
 20
-22.70448886990886
 30
0.0
 40
0.1500000000000005
210
0.0
220
0.0
230
-1.0
100
AcDbArc
 50
258.0000000000004
 51
347.8468048360546
  0
LINE
  5
FE
330
70
100
AcDbEntity
  8
Alice acrylic v1_AcrylicLayoutV2
100
AcDbLine
 10
27.89707966671566
 20
-12.87081421790925
 30
0.0
 11
27.89707966671564
 21
-14.62581421790924
 31
0.0
  0
ARC
  5
FF
330
70
100
AcDbEntity
  8
Alice acrylic v1_AcrylicLayoutV2
100
AcDbCircle
 10
2.092920333284321
 20
-12.65681421790924
 30
0.0
 40
0.1499999999999879
210
0.0
220
0.0
230
-1.0
100
AcDbArc
 50
89.99999999999968
 51
180.0000000000013
  0
LINE
  5
100
330
70
100
AcDbEntity
  8
Alice acrylic v1_AcrylicLayoutV2
100
AcDbLine
 10
20.9505732539811
 20
-22.29858162434846
 30
0.0
 11
18.3506564067732
 21
-22.85121101001894
 31
0.0
  0
LINE
  5
101
330
70
100
AcDbEntity
  8
Alice acrylic v1_AcrylicLayoutV2
100
AcDbLine
 10
-2.886920333284333
 20
-22.19681421790925
 30
0.0
 11
-2.886920333284333
 21
-18.58581421790925
 31
0.0
  0
LINE
  5
102
330
70
100
AcDbEntity
  8
Alice acrylic v1_AcrylicLayoutV2
100
AcDbLine
 10
22.22407966671564
 20
-12.65681421790926
 30
0.0
 11
22.22407966671564
 21
-12.72081421790925
 31
0.0
  0
ARC
  5
103
330
70
100
AcDbEntity
  8
Alice acrylic v1_AcrylicLayoutV2
100
AcDbCircle
 10
5.518920333284384
 20
-11.75981421790925
 30
0.0
 40
0.5000000000000045
210
0.0
220
0.0
230
-1.0
100
AcDbArc
 50
0.0000000000004071
 51
89.99999999999898
  0
ARC
  5
104
330
70
100
AcDbEntity
  8
Alice acrylic v1_AcrylicLayoutV2
100
AcDbCircle
 10
-12.1680796667155
 20
-21.54704431290453
 30
0.0
 40
4.000000000000049
210
0.0
220
0.0
230
-1.0
100
AcDbArc
 50
258.0000000000008
 51
281.9999999999999
  0
CIRCLE
  5
105
330
70
100
AcDbEntity
  8
Alice acrylic v1_AcrylicLayoutV2
100
AcDbCircle
 10
29.33495466671556
 20
-22.52381421790923
 30
0.0
 40
0.1749999999999996
  0
LINE
  5
106
330
70
100
AcDbEntity
  8
Alice acrylic v1_AcrylicLayoutV2
100
AcDbLine
 10
-5.518920333284393
 20
-11.25981421790924
 30
0.0
 11
29.90495466671556
 21
-11.25981421790925
 31
0.0
  0
LINE
  5
107
330
70
100
AcDbEntity
  8
Alice acrylic v1_AcrylicLayoutV2
100
AcDbLine
 10
-2.092920333284322
 20
-14.51281421790924
 30
0.0
 11
-2.358920333284341
 21
-14.51281421790924
 31
0.0
  0
ARC
  5
108
330
70
100
AcDbEntity
  8
Alice acrylic v1_AcrylicLayoutV2
100
AcDbCircle
 10
-29.00795466671567
 20
-20.29181421790925
 30
0.0
 40
0.1500000000000057
210
0.0
220
0.0
230
-1.0
100
AcDbArc
 50
180.0
 51
270.0000000000027
  0
ARC
  5
109
330
70
100
AcDbEntity
  8
Alice acrylic v1_AcrylicLayoutV2
100
AcDbCircle
 10
-20.22108251341432
 20
-12.65681421791078
 30
0.0
 40
0.1500000000015297
210
0.0
220
0.0
230
-1.0
100
AcDbArc
 50
87.70630047647912
 51
89.99999999997422
  0
ARC
  5
10A
330
70
100
AcDbEntity
  8
Alice acrylic v1_AcrylicLayoutV2
100
AcDbCircle
 10
-11.21309089787405
 20
-23.85152279360273
 30
0.0
 40
0.1500000000000107
210
0.0
220
0.0
230
-1.0
100
AcDbArc
 50
192.0000000000015
 51
281.9999999999931
  0
LINE
  5
10B
330
70
100
AcDbEntity
  8
Alice acrylic v1_AcrylicLayoutV2
100
AcDbLine
 10
2.703903085954153
 20
-20.44181421790926
 30
0.0
 11
0.0730796667156732
 21
-20.44181421790926
 31
0.0
  0
LINE
  5
10C
330
70
100
AcDbEntity
  8
Alice acrylic v1_AcrylicLayoutV2
100
AcDbLine
 10
29.90495466671557
 20
-23.59381421790923
 30
0.0
 11
21.77772172343294
 21
-23.59381421790923
 31
0.0
  0
LINE
  5
10D
330
70
100
AcDbEntity
  8
Alice acrylic v1_AcrylicLayoutV2
100
AcDbLine
 10
20.22108251341425
 20
-12.50681421790925
 30
0.0
 11
22.07407966671567
 21
-12.50681421790928
 31
0.0
  0
CIRCLE
  5
10E
330
70
100
AcDbEntity
  8
Alice acrylic v1_AcrylicLayoutV2
100
AcDbCircle
 10
45.52089730723697
 20
-13.06865991262496
 30
0.0
 40
0.175000000000001
  0
LINE
  5
10F
330
70
100
AcDbEntity
  8
Alice acrylic v1_AcrylicLayoutV2
100
AcDbLine
 10
41.66614734675692
 20
-23.20265991262492
 30
0.0
 11
34.4021538976292
 21
-23.20265991262489
 31
0.0
  0
ARC
  5
110
330
70
100
AcDbEntity
  8
Alice acrylic v1_AcrylicLayoutV2
100
AcDbCircle
 10
51.13915389762895
 20
-22.45589000762025
 30
0.0
 40
3.999999999999965
100
AcDbArc
 50
257.9999999999999
 51
281.9999999999991
  0
LINE
  5
111
330
70
100
AcDbEntity
  8
Alice acrylic v1_AcrylicLayoutV2
100
AcDbLine
 10
34.25215389762918
 20
-23.05265991262488
 30
0.0
 11
34.25215389762921
 21
-13.61865991262495
 31
0.0
  0
LINE
  5
112
330
70
100
AcDbEntity
  8
Alice acrylic v1_AcrylicLayoutV2
100
AcDbLine
 10
50.6041538976288
 20
-12.16865991262499
 30
0.0
 11
50.61163389762906
 21
-13.46865991262498
 31
0.0
  0
LINE
  5
113
330
70
100
AcDbEntity
  8
Alice acrylic v1_AcrylicLayoutV2
100
AcDbLine
 10
-1.912920333284343
 20
-14.62581421790925
 30
0.0
 11
-1.646920333284331
 21
-14.62581421790925
 31
0.0
  0
LINE
  5
114
330
70
100
AcDbEntity
  8
Alice acrylic v1_AcrylicLayoutV2
100
AcDbLine
 10
2.347050692962825
 20
-22.12067273061573
 30
0.0
 11
2.703903085954153
 21
-20.44181421790926
 31
0.0
  0
LINE
  5
115
330
70
100
AcDbEntity
  8
Alice acrylic v1_AcrylicLayoutV2
100
AcDbLine
 10
-2.469920333284331
 20
-18.43581421790924
 30
0.0
 11
-2.469920333284331
 21
-16.68081421790926
 31
0.0
  0
CIRCLE
  5
116
330
70
100
AcDbEntity
  8
Alice acrylic v1_AcrylicLayoutV2
100
AcDbCircle
 10
34.02215389762921
 20
-13.23865991262495
 30
0.0
 40
0.1750000000000004
  0
LINE
  5
117
330
70
100
AcDbEntity
  8
Alice acrylic v1_AcrylicLayoutV2
100
AcDbLine
 10
41.66614734675692
 20
-23.20265991262492
 30
0.0
 11
51.13915389762894
 21
-25.21620961375581
 31
0.0
  0
LINE
  5
118
330
70
100
AcDbEntity
  8
Alice acrylic v1_AcrylicLayoutV2
100
AcDbLine
 10
41.52951184091154
 20
-24.50265991262487
 30
0.0
 11
50.30750713435791
 21
-26.36848041055543
 31
0.0
  0
ARC
  5
119
330
70
100
AcDbEntity
  8
Alice acrylic v1_AcrylicLayoutV2
100
AcDbCircle
 10
-5.093689155823342
 20
-22.704488758432
 30
0.0
 40
0.150000000000015
210
0.0
220
0.0
230
-1.0
100
AcDbArc
 50
192.0000000000012
 51
281.9999999999987
  0
LINE
  5
11A
330
70
100
AcDbEntity
  8
Alice acrylic v1_AcrylicLayoutV2
100
AcDbLine
 10
-2.915920333284336
 20
-18.32281421790924
 30
0.0
 11
-4.62192033328433
 21
-18.32281421790924
 31
0.0
  0
LINE
  5
11B
330
70
100
AcDbEntity
  8
Alice acrylic v1_AcrylicLayoutV2
100
AcDbLine
 10
-2.508920333284333
 20
-16.41781421790925
 30
0.0
 11
-2.765920333284337
 21
-16.41781421790925
 31
0.0
  0
ARC
  5
11C
330
70
100
AcDbEntity
  8
Alice acrylic v1_AcrylicLayoutV2
100
AcDbCircle
 10
-11.42209089787407
 20
-16.10552279360274
 30
0.0
 40
0.149999999999992
210
0.0
220
0.0
230
-1.0
100
AcDbArc
 50
191.9999999999975
 51
282.0000000000011
  0
LINE
  5
11D
330
70
100
AcDbEntity
  8
Alice acrylic v1_AcrylicLayoutV2
100
AcDbLine
 10
10.6058437241689
 20
-16.08537519011685
 30
0.0
 11
10.23071439826702
 21
-17.8502199117032
 31
0.0
  0
ARC
  5
11E
330
70
100
AcDbEntity
  8
Alice acrylic v1_AcrylicLayoutV2
100
AcDbCircle
 10
-11.77678824240915
 20
-14.43680298675086
 30
0.0
 40
0.1500000000000043
210
0.0
220
0.0
230
-1.0
100
AcDbArc
 50
101.9999999999999
 51
192.0000000000006
  0
LINE
  5
11F
330
70
100
AcDbEntity
  8
Alice acrylic v1_AcrylicLayoutV2
100
AcDbLine
 10
-0.0769203332843326
 20
-22.34681421790925
 30
0.0
 11
-2.736920333284327
 21
-22.34681421790925
 31
0.0
  0
CIRCLE
  5
120
330
70
100
AcDbEntity
  8
Alice acrylic v1_AcrylicLayoutV2
100
AcDbCircle
 10
18.10313998384311
 20
-60.38241860656674
 30
0.0
 40
0.1750000000000013
  0
LINE
  5
121
330
70
100
AcDbEntity
  8
Alice acrylic v1_AcrylicLayoutV2
100
AcDbLine
 10
41.52951184091154
 20
-24.50265991262487
 30
0.0
 11
33.4521538976292
 21
-24.50265991262487
 31
0.0
  0
LINE
  5
122
330
70
100
AcDbEntity
  8
Alice acrylic v1_AcrylicLayoutV2
100
AcDbLine
 10
33.45215389762921
 20
-12.16865991262496
 30
0.0
 11
50.6041538976288
 21
-12.16865991262499
 31
0.0
  0
LINE
  5
123
330
70
100
AcDbEntity
  8
Alice acrylic v1_AcrylicLayoutV2
100
AcDbLine
 10
11.1819041442514
 20
-23.99824493371281
 30
0.0
 11
5.240479194386253
 21
-22.73535607494903
 31
0.0
  0
LINE
  5
124
330
70
100
AcDbEntity
  8
Alice acrylic v1_AcrylicLayoutV2
100
AcDbLine
 10
-2.062920333284328
 20
-16.53081421790925
 30
0.0
 11
-2.062920333284342
 21
-14.77581421790925
 31
0.0
  0
LINE
  5
125
330
70
100
AcDbEntity
  8
Alice acrylic v1_AcrylicLayoutV2
100
AcDbLine
 10
5.240479194386253
 20
-22.73535607494903
 30
0.0
 11
5.240411295933427
 21
-22.73567551205466
 31
0.0
  0
ARC
  5
126
330
70
100
AcDbEntity
  8
Alice acrylic v1_AcrylicLayoutV2
100
AcDbCircle
 10
4.214920333284327
 20
-14.56181421790926
 30
0.0
 40
0.1500000000000137
210
0.0
220
0.0
230
-1.0
100
AcDbArc
 50
0.000000000001357
 51
89.99999999999968
  0
CIRCLE
  5
127
330
70
100
AcDbEntity
  8
Alice acrylic v1_AcrylicLayoutV2
100
AcDbCircle
 10
29.33495466671556
 20
-12.32981421790924
 30
0.0
 40
0.1750000000000001
  0
LINE
  5
128
330
70
100
AcDbEntity
  8
Alice acrylic v1_AcrylicLayoutV2
100
AcDbLine
 10
10.30068161553286
 20
-19.8123741423414
 30
0.0
 11
11.08497499603181
 21
-19.9790808466408
 31
0.0
  0
ARC
  5
129
330
70
100
AcDbEntity
  8
Alice acrylic v1_AcrylicLayoutV2
100
AcDbCircle
 10
4.621920333284332
 20
-18.17281421790925
 30
0.0
 40
0.149999999999995
210
0.0
220
0.0
230
-1.0
100
AcDbArc
 50
269.999999999999
 51
359.9999999999986
  0
CIRCLE
  5
12A
330
70
100
AcDbEntity
  8
Alice acrylic v1_AcrylicLayoutV2
100
AcDbCircle
 10
-4.948920333284385
 20
-12.32981421790925
 30
0.0
 40
0.175
  0
CIRCLE
  5
12B
330
70
100
AcDbEntity
  8
Alice acrylic v1_AcrylicLayoutV2
100
AcDbCircle
 10
17.83495466671556
 20
-12.20981421790925
 30
0.0
 40
0.1750000000000006
  0
LINE
  5
12C
330
70
100
AcDbEntity
  8
Alice acrylic v1_AcrylicLayoutV2
100
AcDbLine
 10
-2.319920333284326
 20
-16.53081421790925
 30
0.0
 11
-2.062920333284328
 21
-16.53081421790925
 31
0.0
  0
ARC
  5
12D
330
70
100
AcDbEntity
  8
Alice acrylic v1_AcrylicLayoutV2
100
AcDbCircle
 10
3.798920333284332
 20
-12.65681421790925
 30
0.0
 40
0.1499999999999968
210
0.0
220
0.0
230
-1.0
100
AcDbArc
 50
0.0
 51
90.00000000000049
  0
LINE
  5
12E
330
70
100
AcDbEntity
  8
Alice acrylic v1_AcrylicLayoutV2
100
AcDbLine
 10
-1.496920333284333
 20
-12.72081421790925
 30
0.0
 11
2.122079666715657
 21
-12.72081421790925
 31
0.0
  0
LINE
  5
12F
330
70
100
AcDbEntity
  8
Alice acrylic v1_AcrylicLayoutV2
100
AcDbLine
 10
-1.646920333284331
 20
-14.62581421790925
 30
0.0
 11
-1.646920333284331
 21
-12.87081421790925
 31
0.0
  0
LINE
  5
130
330
70
100
AcDbEntity
  8
Alice acrylic v1_AcrylicLayoutV2
100
AcDbLine
 10
4.128079666715664
 20
-12.65681421790925
 30
0.0
 11
4.128079666715664
 21
-12.65766870145569
 31
0.0
  0
LINE
  5
131
330
70
100
AcDbEntity
  8
Alice acrylic v1_AcrylicLayoutV2
100
AcDbLine
 10
-4.214920333284328
 20
-14.41181421790924
 30
0.0
 11
-3.948920333284329
 21
-14.41181421790925
 31
0.0
  0
CIRCLE
  5
132
330
70
100
AcDbEntity
  8
Alice acrylic v1_AcrylicLayoutV2
100
AcDbCircle
 10
6.816664983843239
 20
-60.38241860656675
 30
0.0
 40
0.1749999999999995
  0
LINE
  5
133
330
70
100
AcDbEntity
  8
Alice acrylic v1_AcrylicLayoutV2
100
AcDbLine
 10
-2.765920333284337
 20
-16.41781421790925
 30
0.0
 11
-2.765920333284337
 21
-18.17281421790925
 31
0.0
  0
CIRCLE
  5
134
330
70
100
AcDbEntity
  8
Alice acrylic v1_AcrylicLayoutV2
100
AcDbCircle
 10
-3.752035016156725
 20
-60.38241860656675
 30
0.0
 40
0.1749999999999948
  0
LINE
  5
135
330
70
100
AcDbEntity
  8
Alice acrylic v1_AcrylicLayoutV2
100
AcDbLine
 10
2.122079666715657
 20
-12.72081421790925
 30
0.0
 11
2.122079666715671
 21
-12.65681421790925
 31
0.0
  0
LINE
  5
136
330
70
100
AcDbEntity
  8
Alice acrylic v1_AcrylicLayoutV2
100
AcDbLine
 10
10.23071439826702
 20
-17.8502199117032
 30
0.0
 11
10.5499749960318
 21
-17.91808084664079
 31
0.0
  0
LINE
  5
137
330
70
100
AcDbEntity
  8
Alice acrylic v1_AcrylicLayoutV2
100
AcDbLine
 10
-4.943021441054407
 20
-12.15491366596484
 30
0.0
 11
-4.94962065656222
 21
-12.15491366596484
 31
0.0
  0
LINE
  5
138
330
70
100
AcDbEntity
  8
Alice acrylic v1_AcrylicLayoutV2
100
AcDbLine
 10
-4.364920333284341
 20
-16.31681421790925
 30
0.0
 11
-4.364920333284341
 21
-14.56181421790925
 31
0.0
  0
ARC
  5
139
330
70
100
AcDbEntity
  8
Alice acrylic v1_AcrylicLayoutV2
100
AcDbCircle
 10
1.496920333284334
 20
-12.87081421790925
 30
0.0
 40
0.1499999999999968
210
0.0
220
0.0
230
-1.0
100
AcDbArc
 50
0.0
 51
90.00000000000049
  0
LINE
  5
13A
330
70
100
AcDbEntity
  8
Alice acrylic v1_AcrylicLayoutV2
100
AcDbLine
 10
-4.62192033328433
 20
-16.31681421790926
 30
0.0
 11
-4.364920333284341
 21
-16.31681421790925
 31
0.0
  0
ARC
  5
13B
330
70
100
AcDbEntity
  8
Alice acrylic v1_AcrylicLayoutV2
100
AcDbCircle
 10
-2.493772833072896
 20
-22.15185948423839
 30
0.0
 40
0.1499999999999983
210
0.0
220
0.0
230
-1.0
100
AcDbArc
 50
282.0000000000021
 51
12.0000000000011
  0
LINE
  5
13C
330
70
100
AcDbEntity
  8
Alice acrylic v1_AcrylicLayoutV2
100
AcDbLine
 10
-3.948920333284329
 20
-14.41181421790925
 30
0.0
 11
-3.948920333284329
 21
-12.65681421790925
 31
0.0
  0
CIRCLE
  5
13D
330
70
100
AcDbEntity
  8
Alice acrylic v1_AcrylicLayoutV2
100
AcDbCircle
 10
6.549823076323462
 20
-12.15981421790925
 30
0.0
 40
0.1750000000000001
  0
CIRCLE
  5
13E
330
70
100
AcDbEntity
  8
Alice acrylic v1_AcrylicLayoutV2
100
AcDbCircle
 10
-4.948920333284385
 20
-22.52381421790923
 30
0.0
 40
0.1749999999999992
  0
CIRCLE
  5
13F
330
70
100
AcDbEntity
  8
Alice acrylic v1_AcrylicLayoutV2
100
AcDbCircle
 10
28.67183998384309
 20
-60.38241860656674
 30
0.0
 40
0.1749999999999947
  0
LINE
  5
140
330
70
100
AcDbEntity
  8
Alice acrylic v1_AcrylicLayoutV2
100
AcDbLine
 10
11.92351038251922
 20
-14.46798974037353
 30
0.0
 11
11.56881303798413
 21
-16.1367095472254
 31
0.0
  0
ARC
  5
141
330
70
100
AcDbEntity
  8
Alice acrylic v1_AcrylicLayoutV2
100
AcDbCircle
 10
0.0769203332843308
 20
-22.19681421790925
 30
0.0
 40
0.1500000000000037
210
0.0
220
0.0
230
-1.0
100
AcDbArc
 50
179.9999999999986
 51
270.0000000000007
  0
ARC
  5
142
330
70
100
AcDbEntity
  8
Alice acrylic v1_AcrylicLayoutV2
100
AcDbCircle
 10
34.40215389762921
 20
-13.61865991262495
 30
0.0
 40
0.1499999999999915
100
AcDbArc
 50
90.0
 51
180.0
  0
ARC
  5
143
330
70
100
AcDbEntity
  8
Alice acrylic v1_AcrylicLayoutV2
100
AcDbCircle
 10
2.508920333284332
 20
-16.26781421790926
 30
0.0
 40
0.1499999999999906
210
0.0
220
0.0
230
-1.0
100
AcDbArc
 50
180.0
 51
270.0000000000003
  0
LINE
  5
144
330
70
100
AcDbEntity
  8
Alice acrylic v1_AcrylicLayoutV2
100
AcDbLine
 10
11.3909041442514
 20
-16.2522449337128
 30
0.0
 11
10.6058437241689
 21
-16.08537519011685
 31
0.0
  0
CIRCLE
  5
145
330
70
100
AcDbEntity
  8
Alice acrylic v1_AcrylicLayoutV2
100
AcDbCircle
 10
6.551079666715607
 20
-23.47125292034246
 30
0.0
 40
0.1750000000000005
  0
ARC
  5
146
330
70
100
AcDbEntity
  8
Alice acrylic v1_AcrylicLayoutV2
100
AcDbCircle
 10
33.45215389762921
 20
-12.66865991262496
 30
0.0
 40
0.5
100
AcDbArc
 50
90.0
 51
180.0
  0
ARC
  5
147
330
70
100
AcDbEntity
  8
Alice acrylic v1_AcrylicLayoutV2
100
AcDbCircle
 10
1.912920333284342
 20
-14.77581421790925
 30
0.0
 40
0.1500000000000003
210
0.0
220
0.0
230
-1.0
100
AcDbArc
 50
0.0
 51
89.99999999999934
  0
ARC
  5
148
330
70
100
AcDbEntity
  8
Alice acrylic v1_AcrylicLayoutV2
100
AcDbCircle
 10
2.736920333284329
 20
-22.19681421790925
 30
0.0
 40
0.1500000000000021
210
0.0
220
0.0
230
-1.0
100
AcDbArc
 50
269.9999999999992
 51
0.000000000001357
  0
ARC
  5
149
330
70
100
AcDbEntity
  8
Alice acrylic v1_AcrylicLayoutV2
100
AcDbCircle
 10
33.4521538976292
 20
-24.00265991262487
 30
0.0
 40
0.5
100
AcDbArc
 50
180.0
 51
270.0
  0
LINE
  5
14A
330
70
100
AcDbEntity
  8
Alice acrylic v1_AcrylicLayoutV2
100
AcDbLine
 10
50.61163389762906
 20
-13.46865991262498
 30
0.0
 11
50.61163389762906
 21
-12.85146975835344
 31
0.0
  0
ARC
  5
14B
330
70
100
AcDbEntity
  8
Alice acrylic v1_AcrylicLayoutV2
100
AcDbCircle
 10
34.4021538976292
 20
-23.05265991262488
 30
0.0
 40
0.1500000000000199
100
AcDbArc
 50
180.0
 51
270.0
  0
LINE
  5
14C
330
70
100
AcDbEntity
  8
Alice acrylic v1_AcrylicLayoutV2
100
AcDbLine
 10
10.66551038251921
 20
-18.09598974037353
 30
0.0
 11
10.30068161553286
 21
-19.8123741423414
 31
0.0
  0
LINE
  5
14D
330
70
100
AcDbEntity
  8
Alice acrylic v1_AcrylicLayoutV2
100
AcDbLine
 10
2.27207966671567
 20
-12.50681421790925
 30
0.0
 11
3.978079666715657
 21
-12.50681421790924
 31
0.0
  0
LINE
  5
14E
330
70
100
AcDbEntity
  8
Alice acrylic v1_AcrylicLayoutV2
100
AcDbLine
 10
2.776159885499288
 20
-37.24779659964588
 30
0.0
 11
12.24916643637128
 21
-39.26134630077677
 31
0.0
  0
CIRCLE
  5
14F
330
70
100
AcDbEntity
  8
Alice acrylic v1_AcrylicLayoutV2
100
AcDbCircle
 10
43.84258326016193
 20
-48.00897651291357
 30
0.0
 40
0.1749999999999995
  0
ARC
  5
150
330
70
100
AcDbEntity
  8
Alice acrylic v1_AcrylicLayoutV2
100
AcDbCircle
 10
-4.487833563628412
 20
-37.09779659964584
 30
0.0
 40
0.150000000000019
100
AcDbArc
 50
180.0
 51
270.0
  0
CIRCLE
  5
151
330
70
100
AcDbEntity
  8
Alice acrylic v1_AcrylicLayoutV2
100
AcDbCircle
 10
33.46698300422783
 20
-43.71250720744938
 30
0.0
 40
0.1749999999999948
  0
LINE
  5
152
330
70
100
AcDbEntity
  8
Alice acrylic v1_AcrylicLayoutV2
100
AcDbLine
 10
32.71869637287494
 20
-46.68142920022269
 30
0.0
 11
49.63064637287487
 21
-46.68142920022268
 31
0.0
  0
ARC
  5
153
330
70
100
AcDbEntity
  8
Alice acrylic v1_AcrylicLayoutV2
100
AcDbCircle
 10
32.57387156482545
 20
-47.80897651291354
 30
0.0
 40
0.4999999999999858
100
AcDbArc
 50
89.99999999999836
 51
180.0000000000016
  0
ARC
  5
154
330
70
100
AcDbEntity
  8
Alice acrylic v1_AcrylicLayoutV2
100
AcDbCircle
 10
29.0360414363713
 20
-37.09779659964588
 30
0.0
 40
0.1499999999999915
100
AcDbArc
 50
270.0
 51
0.0
  0
LINE
  5
155
330
70
100
AcDbEntity
  8
Alice acrylic v1_AcrylicLayoutV2
100
AcDbLine
 10
34.40215389762921
 20
-13.46865991262496
 30
0.0
 11
50.61163389762906
 21
-13.46865991262498
 31
0.0
  0
ARC
  5
156
330
70
100
AcDbEntity
  8
Alice acrylic v1_AcrylicLayoutV2
100
AcDbCircle
 10
-5.437833563628414
 20
-38.04779659964583
 30
0.0
 40
0.4999999999999983
100
AcDbArc
 50
180.0
 51
269.9999999999999
  0
CIRCLE
  5
157
330
70
100
AcDbEntity
  8
Alice acrylic v1_AcrylicLayoutV2
100
AcDbCircle
 10
29.41604143637126
 20
-27.28379659964598
 30
0.0
 40
0.1750000000000006
  0
LINE
  5
158
330
70
100
AcDbEntity
  8
Alice acrylic v1_AcrylicLayoutV2
100
AcDbLine
 10
49.48582156482538
 20
-47.30897651291355
 30
0.0
 11
49.48582156482538
 21
-48.70897651291356
 31
0.0
  0
ARC
  5
159
330
70
100
AcDbEntity
  8
Alice acrylic v1_AcrylicLayoutV2
100
AcDbCircle
 10
32.57387156482547
 20
-48.20897651291357
 30
0.0
 40
0.5000000000000142
100
AcDbArc
 50
179.9999999999984
 51
270.0
  0
LINE
  5
15A
330
70
100
AcDbEntity
  8
Alice acrylic v1_AcrylicLayoutV2
100
AcDbLine
 10
32.07387156482546
 20
-47.80897651291356
 30
0.0
 11
32.07387156482546
 21
-48.20897651291355
 31
0.0
  0
CIRCLE
  5
15B
330
70
100
AcDbEntity
  8
Alice acrylic v1_AcrylicLayoutV2
100
AcDbCircle
 10
33.27388326016199
 20
-48.00897651291357
 30
0.0
 40
0.1749999999999948
  0
ARC
  5
15C
330
70
100
AcDbEntity
  8
Alice acrylic v1_AcrylicLayoutV2
100
AcDbCircle
 10
32.76697130889129
 20
-43.51250720744936
 30
0.0
 40
0.4999999999999858
100
AcDbArc
 50
89.99999999999836
 51
180.0000000000016
  0
ARC
  5
15D
330
70
100
AcDbEntity
  8
Alice acrylic v1_AcrylicLayoutV2
100
AcDbCircle
 10
29.98604143637127
 20
-26.713796599646
 30
0.0
 40
0.4999999999999929
100
AcDbArc
 50
0.0
 51
90.0
  0
CIRCLE
  5
15E
330
70
100
AcDbEntity
  8
Alice acrylic v1_AcrylicLayoutV2
100
AcDbCircle
 10
6.630909845979332
 20
-27.11379659964594
 30
0.0
 40
0.175000000000001
  0
LINE
  5
15F
330
70
100
AcDbEntity
  8
Alice acrylic v1_AcrylicLayoutV2
100
AcDbLine
 10
30.48604143637126
 20
-26.713796599646
 30
0.0
 11
30.48604143637126
 21
-38.04779659964589
 31
0.0
  0
ARC
  5
160
330
70
100
AcDbEntity
  8
Alice acrylic v1_AcrylicLayoutV2
100
AcDbCircle
 10
-4.487833563628398
 20
-27.66379659964594
 30
0.0
 40
0.1499999999999986
100
AcDbArc
 50
90.0
 51
180.0
  0
ARC
  5
161
330
70
100
AcDbEntity
  8
Alice acrylic v1_AcrylicLayoutV2
100
AcDbCircle
 10
29.0360414363713
 20
-27.66379659964599
 30
0.0
 40
0.149999999999963
100
AcDbArc
 50
0.0
 51
90.0
  0
LINE
  5
162
330
70
100
AcDbEntity
  8
Alice acrylic v1_AcrylicLayoutV2
100
AcDbLine
 10
12.78416643637162
 20
-26.21379659964597
 30
0.0
 11
12.77668643637137
 21
-27.51379659964597
 31
0.0
  0
LINE
  5
163
330
70
100
AcDbEntity
  8
Alice acrylic v1_AcrylicLayoutV2
100
AcDbLine
 10
49.67892130889123
 20
-43.01250720744937
 30
0.0
 11
49.67892130889123
 21
-44.41250720744936
 31
0.0
  0
LINE
  5
164
330
70
100
AcDbEntity
  8
Alice acrylic v1_AcrylicLayoutV2
100
AcDbLine
 10
29.0360414363713
 20
-37.24779659964588
 30
0.0
 11
21.72217298724331
 21
-37.24779659964588
 31
0.0
  0
CIRCLE
  5
165
330
70
100
AcDbEntity
  8
Alice acrylic v1_AcrylicLayoutV2
100
AcDbCircle
 10
6.632166436371455
 20
-38.42523530207908
 30
0.0
 40
0.1750000000000005
  0
LINE
  5
166
330
70
100
AcDbEntity
  8
Alice acrylic v1_AcrylicLayoutV2
100
AcDbLine
 10
2.776159885499288
 20
-37.24779659964588
 30
0.0
 11
-4.487833563628412
 21
-37.24779659964586
 31
0.0
  0
LINE
  5
167
330
70
100
AcDbEntity
  8
Alice acrylic v1_AcrylicLayoutV2
100
AcDbLine
 10
29.98604143637127
 20
-26.21379659964599
 30
0.0
 11
12.78416643637163
 21
-26.21379659964597
 31
0.0
  0
ARC
  5
168
330
70
100
AcDbEntity
  8
Alice acrylic v1_AcrylicLayoutV2
100
AcDbCircle
 10
32.76697130889132
 20
-43.91250720744937
 30
0.0
 40
0.5000000000000142
100
AcDbArc
 50
179.9999999999984
 51
270.0
  0
CIRCLE
  5
169
330
70
100
AcDbEntity
  8
Alice acrylic v1_AcrylicLayoutV2
100
AcDbCircle
 10
29.41604143637123
 20
-37.47779659964586
 30
0.0
 40
0.1749999999999996
  0
LINE
  5
16A
330
70
100
AcDbEntity
  8
Alice acrylic v1_AcrylicLayoutV2
100
AcDbLine
 10
-5.937833563628401
 20
-26.71379659964594
 30
0.0
 11
-5.937833563628412
 21
-38.04779659964583
 31
0.0
  0
CIRCLE
  5
16B
330
70
100
AcDbEntity
  8
Alice acrylic v1_AcrylicLayoutV2
100
AcDbCircle
 10
45.52215389762909
 20
-24.38009861505811
 30
0.0
 40
0.1750000000000005
  0
CIRCLE
  5
16C
330
70
100
AcDbEntity
  8
Alice acrylic v1_AcrylicLayoutV2
100
AcDbCircle
 10
-4.867833563628405
 20
-27.28379659964594
 30
0.0
 40
0.1750000000000004
  0
ARC
  5
16D
330
70
100
AcDbEntity
  8
Alice acrylic v1_AcrylicLayoutV2
100
AcDbCircle
 10
-5.437833563628402
 20
-26.71379659964595
 30
0.0
 40
0.5000000000000142
100
AcDbArc
 50
90.0
 51
179.9999999999984
  0
LINE
  5
16E
330
70
100
AcDbEntity
  8
Alice acrylic v1_AcrylicLayoutV2
100
AcDbLine
 10
32.57387156482547
 20
-48.70897651291357
 30
0.0
 11
49.48582156482538
 21
-48.70897651291356
 31
0.0
  0
LINE
  5
16F
330
70
100
AcDbEntity
  8
Alice acrylic v1_AcrylicLayoutV2
100
AcDbLine
 10
32.57387156482547
 20
-47.30897651291356
 30
0.0
 11
49.48582156482538
 21
-47.30897651291355
 31
0.0
  0
LINE
  5
170
330
70
100
AcDbEntity
  8
Alice acrylic v1_AcrylicLayoutV2
100
AcDbLine
 10
32.67042143685843
 20
-50.68824888958814
 30
0.0
 11
49.58237143685831
 21
-50.68824888958813
 31
0.0
  0
LINE
  5
171
330
70
100
AcDbEntity
  8
Alice acrylic v1_AcrylicLayoutV2
100
AcDbLine
 10
32.95215389762921
 20
-12.66865991262496
 30
0.0
 11
32.95215389762919
 21
-24.00265991262487
 31
0.0
  0
CIRCLE
  5
172
330
70
100
AcDbEntity
  8
Alice acrylic v1_AcrylicLayoutV2
100
AcDbCircle
 10
44.03568300422779
 20
-43.71250720744938
 30
0.0
 40
0.1749999999999995
  0
ARC
  5
173
330
70
100
AcDbEntity
  8
Alice acrylic v1_AcrylicLayoutV2
100
AcDbCircle
 10
32.6704214368584
 20
-49.78824888958812
 30
0.0
 40
0.4999999999999858
100
AcDbArc
 50
89.99999999999836
 51
180.0000000000016
  0
CIRCLE
  5
174
330
70
100
AcDbEntity
  8
Alice acrylic v1_AcrylicLayoutV2
100
AcDbCircle
 10
43.93913313219488
 20
-49.98824888958814
 30
0.0
 40
0.1749999999999995
  0
LINE
  5
175
330
70
100
AcDbEntity
  8
Alice acrylic v1_AcrylicLayoutV2
100
AcDbLine
 10
32.76697130889132
 20
-43.01250720744937
 30
0.0
 11
49.67892130889123
 21
-43.01250720744937
 31
0.0
  0
LINE
  5
176
330
70
100
AcDbEntity
  8
Alice acrylic v1_AcrylicLayoutV2
100
AcDbLine
 10
49.58237143685831
 20
-49.28824888958813
 30
0.0
 11
49.58237143685831
 21
-50.68824888958813
 31
0.0
  0
CIRCLE
  5
177
330
70
100
AcDbEntity
  8
Alice acrylic v1_AcrylicLayoutV2
100
AcDbCircle
 10
34.02215389762921
 20
-23.43265991262488
 30
0.0
 40
0.175
  0
LINE
  5
178
330
70
100
AcDbEntity
  8
Alice acrylic v1_AcrylicLayoutV2
100
AcDbLine
 10
12.77668643637137
 20
-26.89660688725747
 30
0.0
 11
12.77668643637137
 21
-27.51379659964597
 31
0.0
  0
ARC
  5
179
330
70
100
AcDbEntity
  8
Alice acrylic v1_AcrylicLayoutV2
100
AcDbCircle
 10
29.98604143637126
 20
-38.04779659964589
 30
0.0
 40
0.4999999999999858
100
AcDbArc
 50
270.0
 51
0.0
  0
LINE
  5
17A
330
70
100
AcDbEntity
  8
Alice acrylic v1_AcrylicLayoutV2
100
AcDbLine
 10
29.18604143637126
 20
-27.66379659964599
 30
0.0
 11
29.18604143637126
 21
-37.09779659964588
 31
0.0
  0
LINE
  5
17B
330
70
100
AcDbEntity
  8
Alice acrylic v1_AcrylicLayoutV2
100
AcDbLine
 10
2.63952437965392
 20
-38.54779659964583
 30
0.0
 11
11.41751967310026
 21
-40.41361709757639
 31
0.0
  0
LINE
  5
17C
330
70
100
AcDbEntity
  8
Alice acrylic v1_AcrylicLayoutV2
100
AcDbLine
 10
-4.637833563628431
 20
-37.09779659964584
 30
0.0
 11
-4.637833563628403
 21
-27.66379659964594
 31
0.0
  0
CIRCLE
  5
17D
330
70
100
AcDbEntity
  8
Alice acrylic v1_AcrylicLayoutV2
100
AcDbCircle
 10
17.91604143637135
 20
-27.16379659964595
 30
0.0
 40
0.1750000000000008
  0
LINE
  5
17E
330
70
100
AcDbEntity
  8
Alice acrylic v1_AcrylicLayoutV2
100
AcDbLine
 10
13.08081319964228
 20
-40.4136170975764
 30
0.0
 11
21.85880849308867
 21
-38.54779659964586
 31
0.0
  0
CIRCLE
  5
17F
330
70
100
AcDbEntity
  8
Alice acrylic v1_AcrylicLayoutV2
100
AcDbCircle
 10
17.91604143637134
 20
-38.41463404356574
 30
0.0
 40
0.175
  0
LINE
  5
180
330
70
100
AcDbEntity
  8
Alice acrylic v1_AcrylicLayoutV2
100
AcDbLine
 10
-4.487833563628398
 20
-27.51379659964594
 30
0.0
 11
11.7216464363714
 21
-27.51379659964597
 31
0.0
  0
LINE
  5
181
330
70
100
AcDbEntity
  8
Alice acrylic v1_AcrylicLayoutV2
100
AcDbLine
 10
49.63064637287487
 20
-45.28142920022268
 30
0.0
 11
49.63064637287487
 21
-46.68142920022268
 31
0.0
  0
LINE
  5
182
330
70
100
AcDbEntity
  8
Alice acrylic v1_AcrylicLayoutV2
100
AcDbLine
 10
32.76697130889132
 20
-44.41250720744937
 30
0.0
 11
49.67892130889123
 21
-44.41250720744936
 31
0.0
  0
ARC
  5
183
330
70
100
AcDbEntity
  8
Alice acrylic v1_AcrylicLayoutV2
100
AcDbCircle
 10
12.24916643637129
 20
-36.50102669464122
 30
0.0
 40
3.99999999999995
100
AcDbArc
 50
257.9999999999999
 51
281.9999999999993
  0
LINE
  5
184
330
70
100
AcDbEntity
  8
Alice acrylic v1_AcrylicLayoutV2
100
AcDbLine
 10
12.24916643637128
 20
-39.26134630077677
 30
0.0
 11
21.72217298724331
 21
-37.24779659964588
 31
0.0
  0
LINE
  5
185
330
70
100
AcDbEntity
  8
Alice acrylic v1_AcrylicLayoutV2
100
AcDbLine
 10
11.7216464363714
 20
-27.51379659964597
 30
0.0
 11
11.7216464363714
 21
-26.89660644537442
 31
0.0
  0
LINE
  5
186
330
70
100
AcDbEntity
  8
Alice acrylic v1_AcrylicLayoutV2
100
AcDbLine
 10
11.71416643637114
 20
-26.21379659964598
 30
0.0
 11
11.7216464363714
 21
-27.51379659964597
 31
0.0
  0
LINE
  5
187
330
70
100
AcDbEntity
  8
Alice acrylic v1_AcrylicLayoutV2
100
AcDbLine
 10
12.77668643637137
 20
-27.51379659964597
 30
0.0
 11
29.0360414363713
 21
-27.51379659964601
 31
0.0
  0
CIRCLE
  5
188
330
70
100
AcDbEntity
  8
Alice acrylic v1_AcrylicLayoutV2
100
AcDbCircle
 10
-4.867833563628412
 20
-37.47779659964584
 30
0.0
 40
0.175
  0
LINE
  5
189
330
70
100
AcDbEntity
  8
Alice acrylic v1_AcrylicLayoutV2
100
AcDbLine
 10
-5.437833563628402
 20
-26.21379659964594
 30
0.0
 11
11.71416643637114
 21
-26.21379659964598
 31
0.0
  0
LINE
  5
18A
330
70
100
AcDbEntity
  8
Alice acrylic v1_AcrylicLayoutV2
100
AcDbLine
 10
32.71869637287494
 20
-45.28142920022268
 30
0.0
 11
49.63064637287487
 21
-45.28142920022268
 31
0.0
  0
LINE
  5
18B
330
70
100
AcDbEntity
  8
Alice acrylic v1_AcrylicLayoutV2
100
AcDbLine
 10
2.63952437965392
 20
-38.54779659964583
 30
0.0
 11
-5.437833563628414
 21
-38.54779659964583
 31
0.0
  0
LINE
  5
18C
330
70
100
AcDbEntity
  8
Alice acrylic v1_AcrylicLayoutV2
100
AcDbLine
 10
21.85880849308867
 20
-38.54779659964586
 30
0.0
 11
29.98604143637126
 21
-38.54779659964587
 31
0.0
  0
LINE
  5
18D
330
70
100
AcDbEntity
  8
Alice acrylic v1_AcrylicLayoutV2
100
AcDbLine
 10
32.26697130889131
 20
-43.51250720744937
 30
0.0
 11
32.26697130889131
 21
-43.91250720744936
 31
0.0
  0
ARC
  5
18E
330
70
100
AcDbEntity
  8
Alice acrylic v1_AcrylicLayoutV2
100
AcDbCircle
 10
32.42904675677614
 20
-66.39482687924772
 30
0.0
 40
0.4999999999999716
100
AcDbArc
 50
89.99999999999836
 51
180.0000000000032
  0
LINE
  5
18F
330
70
100
AcDbEntity
  8
Alice acrylic v1_AcrylicLayoutV2
100
AcDbLine
 10
49.34099675677608
 20
-53.53644325903595
 30
0.0
 11
49.34099675677608
 21
-54.93644325903596
 31
0.0
  0
CIRCLE
  5
190
330
70
100
AcDbEntity
  8
Alice acrylic v1_AcrylicLayoutV2
100
AcDbCircle
 10
43.69775845211263
 20
-66.59482687924775
 30
0.0
 40
0.1749999999999995
  0
CIRCLE
  5
191
330
70
100
AcDbEntity
  8
Alice acrylic v1_AcrylicLayoutV2
100
AcDbCircle
 10
43.69775845211264
 20
-54.23644325903597
 30
0.0
 40
0.1749999999999995
  0
LINE
  5
192
330
70
100
AcDbEntity
  8
Alice acrylic v1_AcrylicLayoutV2
100
AcDbLine
 10
49.34099675677606
 20
-65.89482687924773
 30
0.0
 11
49.34099675677606
 21
-67.29482687924773
 31
0.0
  0
CIRCLE
  5
193
330
70
100
AcDbEntity
  8
Alice acrylic v1_AcrylicLayoutV2
100
AcDbCircle
 10
33.32215819617848
 20
-60.27081026109249
 30
0.0
 40
0.1749999999999948
  0
LINE
  5
194
330
70
100
AcDbEntity
  8
Alice acrylic v1_AcrylicLayoutV2
100
AcDbLine
 10
32.42904675677618
 20
-54.93644325903597
 30
0.0
 11
49.34099675677608
 21
-54.93644325903596
 31
0.0
  0
LINE
  5
195
330
70
100
AcDbEntity
  8
Alice acrylic v1_AcrylicLayoutV2
100
AcDbLine
 10
49.4858215648254
 20
-55.51571563571048
 30
0.0
 11
49.4858215648254
 21
-56.91571563571049
 31
0.0
  0
ARC
  5
196
330
70
100
AcDbEntity
  8
Alice acrylic v1_AcrylicLayoutV2
100
AcDbCircle
 10
32.42904675677615
 20
-54.03644325903595
 30
0.0
 40
0.4999999999999858
100
AcDbArc
 50
89.99999999999836
 51
180.0000000000016
  0
LINE
  5
197
330
70
100
AcDbEntity
  8
Alice acrylic v1_AcrylicLayoutV2
100
AcDbLine
 10
32.57387156482551
 20
-55.51571563571048
 30
0.0
 11
49.4858215648254
 21
-55.51571563571048
 31
0.0
  0
ARC
  5
198
330
70
100
AcDbEntity
  8
Alice acrylic v1_AcrylicLayoutV2
100
AcDbCircle
 10
32.67042143685843
 20
-50.18824888958814
 30
0.0
 40
0.5000000000000142
100
AcDbArc
 50
179.9999999999984
 51
270.0
  0
ARC
  5
199
330
70
100
AcDbEntity
  8
Alice acrylic v1_AcrylicLayoutV2
100
AcDbCircle
 10
32.57387156482548
 20
-56.01571563571046
 30
0.0
 40
0.4999999999999858
100
AcDbArc
 50
89.99999999999836
 51
180.0000000000016
  0
LINE
  5
19A
330
70
100
AcDbEntity
  8
Alice acrylic v1_AcrylicLayoutV2
100
AcDbLine
 10
32.07387156482549
 20
-57.94671307636855
 30
0.0
 11
32.07387156482549
 21
-58.34671307636853
 31
0.0
  0
ARC
  5
19B
330
70
100
AcDbEntity
  8
Alice acrylic v1_AcrylicLayoutV2
100
AcDbCircle
 10
32.52559662880908
 20
-52.3606210103285
 30
0.0
 40
0.5000000000000142
100
AcDbArc
 50
179.9999999999984
 51
270.0
  0
LINE
  5
19C
330
70
100
AcDbEntity
  8
Alice acrylic v1_AcrylicLayoutV2
100
AcDbLine
 10
32.02559662880906
 20
-51.9606210103285
 30
0.0
 11
32.02559662880906
 21
-52.3606210103285
 31
0.0
  0
ARC
  5
19D
330
70
100
AcDbEntity
  8
Alice acrylic v1_AcrylicLayoutV2
100
AcDbCircle
 10
32.52559662880905
 20
-51.96062101032849
 30
0.0
 40
0.4999999999999858
100
AcDbArc
 50
89.99999999999836
 51
180.0000000000016
  0
LINE
  5
19E
330
70
100
AcDbEntity
  8
Alice acrylic v1_AcrylicLayoutV2
100
AcDbLine
 10
32.52559662880908
 20
-51.4606210103285
 30
0.0
 11
49.43754662880898
 21
-51.4606210103285
 31
0.0
  0
LINE
  5
19F
330
70
100
AcDbEntity
  8
Alice acrylic v1_AcrylicLayoutV2
100
AcDbLine
 10
32.42904675677618
 20
-53.53644325903596
 30
0.0
 11
49.34099675677608
 21
-53.53644325903595
 31
0.0
  0
LINE
  5
1A0
330
70
100
AcDbEntity
  8
Alice acrylic v1_AcrylicLayoutV2
100
AcDbLine
 10
49.48582156482539
 20
-57.44671307636854
 30
0.0
 11
49.48582156482539
 21
-58.84671307636854
 31
0.0
  0
LINE
  5
1A1
330
70
100
AcDbEntity
  8
Alice acrylic v1_AcrylicLayoutV2
100
AcDbLine
 10
32.62214650084196
 20
-60.97081026109247
 30
0.0
 11
49.53409650084186
 21
-60.97081026109247
 31
0.0
  0
ARC
  5
1A2
330
70
100
AcDbEntity
  8
Alice acrylic v1_AcrylicLayoutV2
100
AcDbCircle
 10
32.62214650084194
 20
-60.07081026109246
 30
0.0
 40
0.4999999999999858
100
AcDbArc
 50
89.99999999999836
 51
180.0000000000016
  0
CIRCLE
  5
1A3
330
70
100
AcDbEntity
  8
Alice acrylic v1_AcrylicLayoutV2
100
AcDbCircle
 10
43.6494835160961
 20
-62.20180770175051
 30
0.0
 40
0.1749999999999995
  0
LINE
  5
1A4
330
70
100
AcDbEntity
  8
Alice acrylic v1_AcrylicLayoutV2
100
AcDbLine
 10
32.0738715648255
 20
-56.01571563571048
 30
0.0
 11
32.0738715648255
 21
-56.41571563571047
 31
0.0
  0
ARC
  5
1A5
330
70
100
AcDbEntity
  8
Alice acrylic v1_AcrylicLayoutV2
100
AcDbCircle
 10
32.57387156482547
 20
-57.94671307636853
 30
0.0
 40
0.4999999999999858
100
AcDbArc
 50
89.99999999999836
 51
180.0000000000016
  0
CIRCLE
  5
1A6
330
70
100
AcDbEntity
  8
Alice acrylic v1_AcrylicLayoutV2
100
AcDbCircle
 10
43.84258326016196
 20
-58.14671307636856
 30
0.0
 40
0.1749999999999995
  0
CIRCLE
  5
1A7
330
70
100
AcDbEntity
  8
Alice acrylic v1_AcrylicLayoutV2
100
AcDbCircle
 10
33.1290584521127
 20
-54.23644325903598
 30
0.0
 40
0.1749999999999948
  0
LINE
  5
1A8
330
70
100
AcDbEntity
  8
Alice acrylic v1_AcrylicLayoutV2
100
AcDbLine
 10
32.67042143685843
 20
-49.28824888958814
 30
0.0
 11
49.58237143685831
 21
-49.28824888958813
 31
0.0
  0
LINE
  5
1A9
330
70
100
AcDbEntity
  8
Alice acrylic v1_AcrylicLayoutV2
100
AcDbLine
 10
32.38077182075966
 20
-62.9018077017505
 30
0.0
 11
49.29272182075953
 21
-62.9018077017505
 31
0.0
  0
LINE
  5
1AA
330
70
100
AcDbEntity
  8
Alice acrylic v1_AcrylicLayoutV2
100
AcDbLine
 10
49.29272182075953
 20
-61.50180770175049
 30
0.0
 11
49.29272182075953
 21
-62.9018077017505
 31
0.0
  0
LINE
  5
1AB
330
70
100
AcDbEntity
  8
Alice acrylic v1_AcrylicLayoutV2
100
AcDbLine
 10
31.88077182075965
 20
-62.00180770175049
 30
0.0
 11
31.88077182075965
 21
-62.40180770175048
 31
0.0
  0
CIRCLE
  5
1AC
330
70
100
AcDbEntity
  8
Alice acrylic v1_AcrylicLayoutV2
100
AcDbCircle
 10
33.37043313219494
 20
-49.98824888958815
 30
0.0
 40
0.1749999999999948
  0
CIRCLE
  5
1AD
330
70
100
AcDbEntity
  8
Alice acrylic v1_AcrylicLayoutV2
100
AcDbCircle
 10
43.79430832414555
 20
-52.16062101032851
 30
0.0
 40
0.1749999999999995
  0
LINE
  5
1AE
330
70
100
AcDbEntity
  8
Alice acrylic v1_AcrylicLayoutV2
100
AcDbLine
 10
32.57387156482551
 20
-56.91571563571049
 30
0.0
 11
49.4858215648254
 21
-56.91571563571049
 31
0.0
  0
LINE
  5
1AF
330
70
100
AcDbEntity
  8
Alice acrylic v1_AcrylicLayoutV2
100
AcDbLine
 10
32.17042143685841
 20
-49.78824888958814
 30
0.0
 11
32.17042143685841
 21
-50.18824888958813
 31
0.0
  0
ARC
  5
1B0
330
70
100
AcDbEntity
  8
Alice acrylic v1_AcrylicLayoutV2
100
AcDbCircle
 10
32.57387156482551
 20
-56.41571563571048
 30
0.0
 40
0.5000000000000142
100
AcDbArc
 50
179.9999999999984
 51
270.0
  0
ARC
  5
1B1
330
70
100
AcDbEntity
  8
Alice acrylic v1_AcrylicLayoutV2
100
AcDbCircle
 10
32.42904675677618
 20
-54.43644325903597
 30
0.0
 40
0.5000000000000142
100
AcDbArc
 50
179.9999999999984
 51
270.0
  0
LINE
  5
1B2
330
70
100
AcDbEntity
  8
Alice acrylic v1_AcrylicLayoutV2
100
AcDbLine
 10
32.5738715648255
 20
-57.44671307636855
 30
0.0
 11
49.48582156482539
 21
-57.44671307636854
 31
0.0
  0
LINE
  5
1B3
330
70
100
AcDbEntity
  8
Alice acrylic v1_AcrylicLayoutV2
100
AcDbLine
 10
49.43754662880898
 20
-51.4606210103285
 30
0.0
 11
49.43754662880898
 21
-52.8606210103285
 31
0.0
  0
ARC
  5
1B4
330
70
100
AcDbEntity
  8
Alice acrylic v1_AcrylicLayoutV2
100
AcDbCircle
 10
32.5738715648255
 20
-58.34671307636855
 30
0.0
 40
0.5000000000000142
100
AcDbArc
 50
179.9999999999984
 51
270.0
  0
CIRCLE
  5
1B5
330
70
100
AcDbEntity
  8
Alice acrylic v1_AcrylicLayoutV2
100
AcDbCircle
 10
33.27388326016202
 20
-58.14671307636857
 30
0.0
 40
0.1749999999999948
  0
LINE
  5
1B6
330
70
100
AcDbEntity
  8
Alice acrylic v1_AcrylicLayoutV2
100
AcDbLine
 10
49.53409650084186
 20
-59.57081026109246
 30
0.0
 11
49.53409650084186
 21
-60.97081026109247
 31
0.0
  0
LINE
  5
1B7
330
70
100
AcDbEntity
  8
Alice acrylic v1_AcrylicLayoutV2
100
AcDbLine
 10
32.5738715648255
 20
-58.84671307636855
 30
0.0
 11
49.48582156482539
 21
-58.84671307636854
 31
0.0
  0
ARC
  5
1B8
330
70
100
AcDbEntity
  8
Alice acrylic v1_AcrylicLayoutV2
100
AcDbCircle
 10
32.38077182075964
 20
-62.00180770175048
 30
0.0
 40
0.4999999999999858
100
AcDbArc
 50
89.99999999999836
 51
180.0000000000016
  0
LINE
  5
1B9
330
70
100
AcDbEntity
  8
Alice acrylic v1_AcrylicLayoutV2
100
AcDbLine
 10
32.12214650084195
 20
-60.07081026109247
 30
0.0
 11
32.12214650084195
 21
-60.47081026109246
 31
0.0
  0
CIRCLE
  5
1BA
330
70
100
AcDbEntity
  8
Alice acrylic v1_AcrylicLayoutV2
100
AcDbCircle
 10
33.08078351609617
 20
-62.20180770175051
 30
0.0
 40
0.1749999999999948
  0
CIRCLE
  5
1BB
330
70
100
AcDbEntity
  8
Alice acrylic v1_AcrylicLayoutV2
100
AcDbCircle
 10
33.22560832414559
 20
-52.16062101032852
 30
0.0
 40
0.1749999999999948
  0
CIRCLE
  5
1BC
330
70
100
AcDbEntity
  8
Alice acrylic v1_AcrylicLayoutV2
100
AcDbCircle
 10
43.84258326016197
 20
-56.21571563571049
 30
0.0
 40
0.1749999999999995
  0
CIRCLE
  5
1BD
330
70
100
AcDbEntity
  8
Alice acrylic v1_AcrylicLayoutV2
100
AcDbCircle
 10
43.89085819617842
 20
-60.27081026109248
 30
0.0
 40
0.1749999999999995
  0
LINE
  5
1BE
330
70
100
AcDbEntity
  8
Alice acrylic v1_AcrylicLayoutV2
100
AcDbLine
 10
31.92904675677617
 20
-54.03644325903596
 30
0.0
 11
31.92904675677617
 21
-54.43644325903595
 31
0.0
  0
LINE
  5
1BF
330
70
100
AcDbEntity
  8
Alice acrylic v1_AcrylicLayoutV2
100
AcDbLine
 10
32.52559662880906
 20
-65.12245475850737
 30
0.0
 11
49.43754662880896
 21
-65.12245475850736
 31
0.0
  0
LINE
  5
1C0
330
70
100
AcDbEntity
  8
Alice acrylic v1_AcrylicLayoutV2
100
AcDbLine
 10
32.62214650084196
 20
-59.57081026109247
 30
0.0
 11
49.53409650084186
 21
-59.57081026109246
 31
0.0
  0
ARC
  5
1C1
330
70
100
AcDbEntity
  8
Alice acrylic v1_AcrylicLayoutV2
100
AcDbCircle
 10
32.38077182075966
 20
-62.4018077017505
 30
0.0
 40
0.5000000000000178
100
AcDbArc
 50
179.9999999999984
 51
270.0
  0
ARC
  5
1C2
330
70
100
AcDbEntity
  8
Alice acrylic v1_AcrylicLayoutV2
100
AcDbCircle
 10
32.52559662880904
 20
-64.22245475850735
 30
0.0
 40
0.4999999999999858
100
AcDbArc
 50
89.99999999999836
 51
180.0000000000016
  0
CIRCLE
  5
1C3
330
70
100
AcDbEntity
  8
Alice acrylic v1_AcrylicLayoutV2
100
AcDbCircle
 10
33.27388326016202
 20
-56.21571563571049
 30
0.0
 40
0.1749999999999948
  0
LINE
  5
1C4
330
70
100
AcDbEntity
  8
Alice acrylic v1_AcrylicLayoutV2
100
AcDbLine
 10
32.38077182075966
 20
-61.50180770175049
 30
0.0
 11
49.29272182075953
 21
-61.50180770175049
 31
0.0
  0
CIRCLE
  5
1C5
330
70
100
AcDbEntity
  8
Alice acrylic v1_AcrylicLayoutV2
100
AcDbCircle
 10
43.79430832414552
 20
-64.42245475850737
 30
0.0
 40
0.1749999999999995
  0
ARC
  5
1C6
330
70
100
AcDbEntity
  8
Alice acrylic v1_AcrylicLayoutV2
100
AcDbCircle
 10
32.62214650084196
 20
-60.47081026109248
 30
0.0
 40
0.5000000000000142
100
AcDbArc
 50
179.9999999999984
 51
270.0
  0
LINE
  5
1C7
330
70
100
AcDbEntity
  8
Alice acrylic v1_AcrylicLayoutV2
100
AcDbLine
 10
49.43754662880896
 20
-63.72245475850736
 30
0.0
 11
49.43754662880896
 21
-65.12245475850736
 31
0.0
  0
ARC
  5
1C8
330
70
100
AcDbEntity
  8
Alice acrylic v1_AcrylicLayoutV2
100
AcDbCircle
 10
32.52559662880906
 20
-64.62245475850737
 30
0.0
 40
0.5000000000000142
100
AcDbArc
 50
179.9999999999984
 51
270.0
  0
LINE
  5
1C9
330
70
100
AcDbEntity
  8
Alice acrylic v1_AcrylicLayoutV2
100
AcDbLine
 10
32.52559662880906
 20
-63.72245475850736
 30
0.0
 11
49.43754662880896
 21
-63.72245475850736
 31
0.0
  0
CIRCLE
  5
1CA
330
70
100
AcDbEntity
  8
Alice acrylic v1_AcrylicLayoutV2
100
AcDbCircle
 10
33.22560832414558
 20
-64.42245475850739
 30
0.0
 40
0.1749999999999948
  0
LINE
  5
1CB
330
70
100
AcDbEntity
  8
Alice acrylic v1_AcrylicLayoutV2
100
AcDbLine
 10
32.42904675677617
 20
-67.29482687924775
 30
0.0
 11
49.34099675677606
 21
-67.29482687924773
 31
0.0
  0
LINE
  5
1CC
330
70
100
AcDbEntity
  8
Alice acrylic v1_AcrylicLayoutV2
100
AcDbLine
 10
32.02559662880905
 20
-64.22245475850736
 30
0.0
 11
32.02559662880905
 21
-64.62245475850735
 31
0.0
  0
LINE
  5
1CD
330
70
100
AcDbEntity
  8
Alice acrylic v1_AcrylicLayoutV2
100
AcDbLine
 10
32.52559662880908
 20
-52.8606210103285
 30
0.0
 11
49.43754662880898
 21
-52.8606210103285
 31
0.0
  0
LINE
  5
1CE
330
70
100
AcDbEntity
  8
Alice acrylic v1_AcrylicLayoutV2
100
AcDbLine
 10
31.92904675677616
 20
-66.39482687924775
 30
0.0
 11
31.92904675677616
 21
-66.79482687924772
 31
0.0
  0
LINE
  5
1CF
330
70
100
AcDbEntity
  8
Alice acrylic v1_AcrylicLayoutV2
100
AcDbLine
 10
34.29510239132569
 20
-26.9745959700605
 30
0.0
 11
34.29510239132572
 21
-25.73491557619609
 31
0.0
  0
ARC
  5
1D0
330
70
100
AcDbEntity
  8
Alice acrylic v1_AcrylicLayoutV2
100
AcDbCircle
 10
51.98210239132539
 20
-39.52214567119132
 30
0.0
 40
0.5
100
AcDbArc
 50
270.0
 51
0.0
  0
LINE
  5
1D1
330
70
100
AcDbEntity
  8
Alice acrylic v1_AcrylicLayoutV2
100
AcDbLine
 10
51.0321023913254
 20
-38.72214567119133
 30
0.0
 11
34.82262239132558
 21
-38.7221456711913
 31
0.0
  0
ARC
  5
1D2
330
70
100
AcDbEntity
  8
Alice acrylic v1_AcrylicLayoutV2
100
AcDbCircle
 10
34.29510239132568
 20
-29.73491557619605
 30
0.0
 40
3.999999999999958
100
AcDbArc
 50
77.99999999999986
 51
101.9999999999992
  0
ARC
  5
1D3
330
70
100
AcDbEntity
  8
Alice acrylic v1_AcrylicLayoutV2
100
AcDbCircle
 10
51.0321023913254
 20
-38.57214567119134
 30
0.0
 40
0.1499999999999915
100
AcDbArc
 50
270.0
 51
0.0
  0
LINE
  5
1D4
330
70
100
AcDbEntity
  8
Alice acrylic v1_AcrylicLayoutV2
100
AcDbLine
 10
52.48210239132539
 20
-39.52214567119132
 30
0.0
 11
52.4821023913254
 21
-28.18814567119143
 31
0.0
  0
LINE
  5
1D5
330
70
100
AcDbEntity
  8
Alice acrylic v1_AcrylicLayoutV2
100
AcDbLine
 10
34.83010239132583
 20
-40.02214567119129
 30
0.0
 11
34.82262239132558
 21
-38.7221456711913
 31
0.0
  0
ARC
  5
1D6
330
70
100
AcDbEntity
  8
Alice acrylic v1_AcrylicLayoutV2
100
AcDbCircle
 10
32.42904675677617
 20
-66.79482687924775
 30
0.0
 40
0.5000000000000142
100
AcDbArc
 50
179.9999999999967
 51
270.0
  0
LINE
  5
1D7
330
70
100
AcDbEntity
  8
Alice acrylic v1_AcrylicLayoutV2
100
AcDbLine
 10
43.76810894219769
 20
-28.98814567119138
 30
0.0
 11
34.29510239132569
 21
-26.9745959700605
 31
0.0
  0
CIRCLE
  5
1D8
330
70
100
AcDbEntity
  8
Alice acrylic v1_AcrylicLayoutV2
100
AcDbCircle
 10
33.12905845211268
 20
-66.59482687924776
 30
0.0
 40
0.1749999999999948
  0
LINE
  5
1D9
330
70
100
AcDbEntity
  8
Alice acrylic v1_AcrylicLayoutV2
100
AcDbLine
 10
43.90474444804307
 20
-27.68814567119143
 30
0.0
 11
51.9821023913254
 21
-27.68814567119143
 31
0.0
  0
LINE
  5
1DA
330
70
100
AcDbEntity
  8
Alice acrylic v1_AcrylicLayoutV2
100
AcDbLine
 10
43.76810894219769
 20
-28.98814567119138
 30
0.0
 11
51.03210239132541
 21
-28.98814567119141
 31
0.0
  0
LINE
  5
1DB
330
70
100
AcDbEntity
  8
Alice acrylic v1_AcrylicLayoutV2
100
AcDbLine
 10
43.90474444804307
 20
-27.68814567119143
 30
0.0
 11
35.12674915459672
 21
-25.82232517326087
 31
0.0
  0
LINE
  5
1DC
330
70
100
AcDbEntity
  8
Alice acrylic v1_AcrylicLayoutV2
100
AcDbLine
 10
51.18210239132543
 20
-29.13814567119141
 30
0.0
 11
51.1821023913254
 21
-38.57214567119134
 31
0.0
  0
CIRCLE
  5
1DD
330
70
100
AcDbEntity
  8
Alice acrylic v1_AcrylicLayoutV2
100
AcDbCircle
 10
39.91335898171765
 20
-39.12214567119132
 30
0.0
 40
0.175000000000001
  0
ARC
  5
1DE
330
70
100
AcDbEntity
  8
Alice acrylic v1_AcrylicLayoutV2
100
AcDbCircle
 10
51.03210239132541
 20
-29.13814567119141
 30
0.0
 40
0.1500000000000199
100
AcDbArc
 50
0.0
 51
90.0
  0
CIRCLE
  5
1DF
330
70
100
AcDbEntity
  8
Alice acrylic v1_AcrylicLayoutV2
100
AcDbCircle
 10
51.4121023913254
 20
-38.95214567119133
 30
0.0
 40
0.1750000000000004
  0
LINE
  5
1E0
330
70
100
AcDbEntity
  8
Alice acrylic v1_AcrylicLayoutV2
100
AcDbLine
 10
34.82262239132558
 20
-38.7221456711913
 30
0.0
 11
34.82262239132558
 21
-39.33933582546284
 31
0.0
  0
CIRCLE
  5
1E1
330
70
100
AcDbEntity
  8
Alice acrylic v1_AcrylicLayoutV2
100
AcDbCircle
 10
39.91210239132553
 20
-27.81070696875819
 30
0.0
 40
0.1750000000000005
  0
CIRCLE
  5
1E2
330
70
100
AcDbEntity
  8
Alice acrylic v1_AcrylicLayoutV2
100
AcDbCircle
 10
51.4121023913254
 20
-28.75814567119142
 30
0.0
 40
0.175
  0
LINE
  5
1E3
330
70
100
AcDbEntity
  8
Alice acrylic v1_AcrylicLayoutV2
100
AcDbLine
 10
32.42904675677617
 20
-65.89482687924775
 30
0.0
 11
49.34099675677606
 21
-65.89482687924773
 31
0.0
  0
ARC
  5
1E4
330
70
100
AcDbEntity
  8
Alice acrylic v1_AcrylicLayoutV2
100
AcDbCircle
 10
51.9821023913254
 20
-28.18814567119143
 30
0.0
 40
0.5
100
AcDbArc
 50
0.0
 51
90.0
  0
LINE
  5
1E5
330
70
100
AcDbEntity
  8
Alice acrylic v1_AcrylicLayoutV2
100
AcDbLine
 10
51.13915389762894
 20
-25.21620961375581
 30
0.0
 11
51.1391538976289
 21
-26.45589000762022
 31
0.0
  0
LINE
  5
1E6
330
70
100
AcDbEntity
  8
Alice acrylic v1_AcrylicLayoutV2
100
AcDbLine
 10
51.98210239132539
 20
-40.02214567119131
 30
0.0
 11
34.83010239132583
 21
-40.02214567119129
 31
0.0
  0
POINT
  5
1E8
330
70
100
AcDbEntity
  8
Alice acrylic v1_Sketch3
100
AcDbPoint
 10
0.0
 20
0.0
 30
0.0
  0
LINE
  5
1E9
330
70
100
AcDbEntity
  8
Alice acrylic v1_Sketch3
100
AcDbLine
 10
54.24848086028661
 20
-10.61326289133402
 30
0.0
 11
54.2484808602866
 21
-41.09326289133401
 31
0.0
  0
LINE
  5
1EA
330
70
100
AcDbEntity
  8
Alice acrylic v1_Sketch3
100
AcDbLine
 10
-6.711519139713388
 20
-10.61326289133402
 30
0.0
 11
-6.711519139713388
 21
-41.09326289133401
 31
0.0
  0
LINE
  5
1EB
330
70
100
AcDbEntity
  8
Alice acrylic v1_Sketch3
100
AcDbLine
 10
-6.711519139713388
 20
-10.61326289133402
 30
0.0
 11
54.24848086028661
 21
-10.61326289133402
 31
0.0
  0
LINE
  5
1EC
330
70
100
AcDbEntity
  8
Alice acrylic v1_Sketch3
100
AcDbLine
 10
-6.711519139713388
 20
-41.09326289133401
 30
0.0
 11
54.2484808602866
 21
-41.09326289133401
 31
0.0
  0
POINT
  5
1EE
330
70
100
AcDbEntity
  8
Alice acrylic v1_Sketch4
100
AcDbPoint
 10
0.0
 20
0.0
 30
0.0
  0
LINE
  5
1EF
330
70
100
AcDbEntity
  8
Alice acrylic v1_Sketch4
100
AcDbLine
 10
-6.39768930713296
 20
-72.38459537225037
 30
0.0
 11
54.56231069286705
 21
-72.38459537225037
 31
0.0
  0
LINE
  5
1F0
330
70
100
AcDbEntity
  8
Alice acrylic v1_Sketch4
100
AcDbLine
 10
-6.39768930713296
 20
-41.90459537225037
 30
0.0
 11
54.56231069286705
 21
-41.90459537225037
 31
0.0
  0
LINE
  5
1F1
330
70
100
AcDbEntity
  8
Alice acrylic v1_Sketch4
100
AcDbLine
 10
-6.39768930713296
 20
-41.90459537225037
 30
0.0
 11
-6.39768930713296
 21
-72.38459537225037
 31
0.0
  0
LINE
  5
1F2
330
70
100
AcDbEntity
  8
Alice acrylic v1_Sketch4
100
AcDbLine
 10
54.56231069286705
 20
-41.90459537225037
 30
0.0
 11
54.56231069286705
 21
-72.38459537225037
 31
0.0
  0
ENDSEC
  0
SECTION
  2
OBJECTS
  0
DICTIONARY
  5
C
330
0
100
AcDbDictionary
281
     1
  3
ACAD_COLOR
350
63
  3
ACAD_DETAILVIEWSTYLE
350
6A
  3
ACAD_GROUP
350
D
  3
ACAD_LAYOUT
350
62
  3
ACAD_MATERIAL
350
10
  3
ACAD_MLEADERSTYLE
350
66
  3
ACAD_MLINESTYLE
350
5F
  3
ACAD_PLOTSETTINGS
350
61
  3
ACAD_PLOTSTYLENAME
350
E
  3
ACAD_SCALELIST
350
42
  3
ACAD_SECTIONVIEWSTYLE
350
68
  3
ACAD_TABLESTYLE
350
64
  3
ACAD_VISUALSTYLE
350
29
  3
ACDB_RECOMPOSE_DATA
350
1FB
  3
AcDbVariableDictionary
350
1F3
  0
DICTIONARY
  5
63
102
{ACAD_REACTORS
330
C
102
}
330
C
100
AcDbDictionary
281
     1
  0
DICTIONARY
  5
6A
102
{ACAD_REACTORS
330
C
102
}
330
C
100
AcDbDictionary
281
     1
  3
Imperial24
350
6B
  0
DICTIONARY
  5
D
102
{ACAD_REACTORS
330
C
102
}
330
C
100
AcDbDictionary
281
     1
  0
DICTIONARY
  5
62
102
{ACAD_REACTORS
330
C
102
}
330
C
100
AcDbDictionary
281
     1
  3
Layout1
350
6F
  3
Layout2
350
77
  3
Model
350
73
  0
DICTIONARY
  5
10
102
{ACAD_REACTORS
330
C
102
}
330
C
100
AcDbDictionary
281
     1
  3
ByBlock
350
19
  3
ByLayer
350
11
  3
Global
350
21
  0
DICTIONARY
  5
66
102
{ACAD_REACTORS
330
C
102
}
330
C
100
AcDbDictionary
281
     1
  3
Standard
350
67
  0
DICTIONARY
  5
5F
102
{ACAD_REACTORS
330
C
102
}
330
C
100
AcDbDictionary
281
     1
  3
Standard
350
60
  0
DICTIONARY
  5
61
102
{ACAD_REACTORS
330
C
102
}
330
C
100
AcDbDictionary
281
     1
  0
ACDBDICTIONARYWDFLT
  5
E
102
{ACAD_REACTORS
330
C
102
}
330
C
100
AcDbDictionary
281
     1
  3
Normal
350
F
100
AcDbDictionaryWithDefault
340
F
  0
DICTIONARY
  5
42
102
{ACAD_REACTORS
330
C
102
}
330
C
100
AcDbDictionary
281
     1
  3
A0
350
43
  3
A1
350
44
  3
A2
350
45
  3
A3
350
46
  3
A4
350
47
  3
A5
350
48
  3
A6
350
49
  3
A7
350
4A
  3
A8
350
4B
  3
A9
350
4C
  3
B0
350
4D
  3
B1
350
4E
  3
B2
350
4F
  3
B3
350
50
  3
B4
350
51
  3
B5
350
52
  3
B6
350
53
  0
DICTIONARY
  5
68
102
{ACAD_REACTORS
330
C
102
}
330
C
100
AcDbDictionary
281
     1
  3
Imperial24
350
69
  0
DICTIONARY
  5
64
102
{ACAD_REACTORS
330
C
102
}
330
C
100
AcDbDictionary
281
     1
  3
Standard
350
65
  0
DICTIONARY
  5
29
102
{ACAD_REACTORS
330
C
102
}
330
C
100
AcDbDictionary
281
     1
  3
2dWireframe
350
2F
  3
Basic
350
2E
  3
Brighten
350
35
  3
ColorChange
350
39
  3
Conceptual
350
32
  3
Dim
350
34
  3
EdgeColorOff
350
41
  3
Facepattern
350
38
  3
Flat
350
2A
  3
FlatWithEdges
350
2B
  3
Gouraud
350
2C
  3
GouraudWithEdges
350
2D
  3
Hidden
350
31
  3
JitterOff
350
3F
  3
Linepattern
350
37
  3
OverhangOff
350
40
  3
Realistic
350
33
  3
Shaded
350
3E
  3
Shaded with edges
350
3D
  3
Shades of Gray
350
3A
  3
Sketchy
350
3B
  3
Thicken
350
36
  3
Wireframe
350
30
  3
X-Ray
350
3C
  0
XRECORD
  5
1FB
102
{ACAD_REACTORS
330
C
102
}
330
C
100
AcDbXrecord
280
     1
 90
        1
330
65
  0
DICTIONARY
  5
1F3
102
{ACAD_REACTORS
330
C
102
}
330
C
100
AcDbDictionary
281
     1
  3
CANNOSCALE
350
1F8
  3
CMLEADERSTYLE
350
1F5
  3
CTABLESTYLE
350
1F4
  3
CVIEWDETAILSTYLE
350
1F6
  3
CVIEWSECTIONSTYLE
350
1F7
  0
ACDBDETAILVIEWSTYLE
  5
6B
102
{ACAD_XDICTIONARY
360
1FE
102
}
102
{ACAD_REACTORS
330
6A
102
}
330
6A
100
AcDbModelDocViewStyle
 70
     0
  3
Imperial24
290
     0
100
AcDbDetailViewStyle
 70
     0
 71
     0
 90
        3
 71
     1
340
55
 62
   256
 40
0.24
340
0
 62
   256
 40
0.24
300

 40
0.36
280
     3
 71
     2
340
5D
 90
       25
 62
   256
 71
     3
340
55
 62
   256
 40
0.24
 90
        1
 40
0.75
 90
        1
300
%<\AcVar ViewType \f "%tc1">% %<\AcVar ViewDetailId>%\PSCALE %<\AcVar ViewScale \f "%sn">%
 71
     4
340
5D
 90
       25
 62
   256
340
5D
 90
       25
 62
   256
280
     0
  0
LAYOUT
  5
6F
102
{ACAD_REACTORS
330
62
102
}
330
62
100
AcDbPlotSettings
  1

  2

  4

  6

 40
0.0
 41
0.0
 42
0.0
 43
0.0
 44
0.0
 45
0.0
 46
0.0
 47
0.0
 48
0.0
 49
0.0
140
0.0
141
0.0
142
1.0
143
1.0
 70
   688
 72
     0
 73
     0
 74
     5
  7

 75
    16
147
1.0
 76
     0
 77
     2
 78
   300
148
0.0
149
0.0
100
AcDbLayout
  1
Layout1
 70
     1
 71
     1
 10
0.0
 20
0.0
 11
12.0
 21
9.0
 12
0.0
 22
0.0
 32
0.0
 14
0.0
 24
0.0
 34
0.0
 15
0.0
 25
0.0
 35
0.0
146
0.0
 13
0.0
 23
0.0
 33
0.0
 16
1.0
 26
0.0
 36
0.0
 17
0.0
 27
1.0
 37
0.0
 76
     0
330
6C
  0
LAYOUT
  5
77
102
{ACAD_REACTORS
330
62
102
}
330
62
100
AcDbPlotSettings
  1

  2

  4

  6

 40
0.0
 41
0.0
 42
0.0
 43
0.0
 44
0.0
 45
0.0
 46
0.0
 47
0.0
 48
0.0
 49
0.0
140
0.0
141
0.0
142
1.0
143
1.0
 70
   688
 72
     0
 73
     0
 74
     5
  7

 75
    16
147
1.0
 76
     0
 77
     2
 78
   300
148
0.0
149
0.0
100
AcDbLayout
  1
Layout2
 70
     1
 71
     2
 10
0.0
 20
0.0
 11
12.0
 21
9.0
 12
0.0
 22
0.0
 32
0.0
 14
0.0
 24
0.0
 34
0.0
 15
0.0
 25
0.0
 35
0.0
146
0.0
 13
0.0
 23
0.0
 33
0.0
 16
1.0
 26
0.0
 36
0.0
 17
0.0
 27
1.0
 37
0.0
 76
     0
330
74
  0
LAYOUT
  5
73
102
{ACAD_REACTORS
330
62
102
}
330
62
100
AcDbPlotSettings
  1

  2

  4

  6

 40
0.0
 41
0.0
 42
0.0
 43
0.0
 44
0.0
 45
0.0
 46
0.0
 47
0.0
 48
0.0
 49
0.0
140
0.0
141
0.0
142
1.0
143
1.0
 70
  1712
 72
     0
 73
     0
 74
     0
  7

 75
     0
147
1.0
 76
     0
 77
     2
 78
   300
148
0.0
149
0.0
100
AcDbLayout
  1
Model
 70
     1
 71
     0
 10
0.0
 20
0.0
 11
12.0
 21
9.0
 12
0.0
 22
0.0
 32
0.0
 14
0.0
 24
0.0
 34
0.0
 15
0.0
 25
0.0
 35
0.0
146
0.0
 13
0.0
 23
0.0
 33
0.0
 16
1.0
 26
0.0
 36
0.0
 17
0.0
 27
1.0
 37
0.0
 76
     0
330
70
  0
MATERIAL
  5
19
102
{ACAD_XDICTIONARY
360
1A
102
}
102
{ACAD_REACTORS
330
10
102
}
330
10
100
AcDbMaterial
  1
ByBlock
 72
     0
 43
0.0208333333333333
 43
0.0
 43
0.0
 43
0.0
 43
0.0
 43
0.0208333333333333
 43
0.0
 43
0.0
 43
0.0
 43
0.0
 43
1.0
 43
0.0
 43
0.0
 43
0.0
 43
0.0
 43
1.0
 77
     0
 47
0.0208333333333333
 47
0.0
 47
0.0
 47
0.0
 47
0.0
 47
0.0208333333333333
 47
0.0
 47
0.0
 47
0.0
 47
0.0
 47
1.0
 47
0.0
 47
0.0
 47
0.0
 47
0.0
 47
1.0
171
     0
 49
0.0208333333333333
 49
0.0
 49
0.0
 49
0.0
 49
0.0
 49
0.0208333333333333
 49
0.0
 49
0.0
 49
0.0
 49
0.0
 49
1.0
 49
0.0
 49
0.0
 49
0.0
 49
0.0
 49
1.0
175
     0
142
0.0208333333333333
142
0.0
142
0.0
142
0.0
142
0.0
142
0.0208333333333333
142
0.0
142
0.0
142
0.0
142
0.0
142
1.0
142
0.0
142
0.0
142
0.0
142
0.0
142
1.0
179
     0
144
0.0208333333333333
144
0.0
144
0.0
144
0.0
144
0.0
144
0.0208333333333333
144
0.0
144
0.0
144
0.0
144
0.0
144
1.0
144
0.0
144
0.0
144
0.0
144
0.0
144
1.0
147
0.0208333333333333
147
0.0
147
0.0
147
0.0
147
0.0
147
0.0208333333333333
147
0.0
147
0.0
147
0.0
147
0.0
147
1.0
147
0.0
147
0.0
147
0.0
147
0.0
147
1.0
  0
MATERIAL
  5
11
102
{ACAD_XDICTIONARY
360
12
102
}
102
{ACAD_REACTORS
330
10
102
}
330
10
100
AcDbMaterial
  1
ByLayer
 72
     0
 43
0.0208333333333333
 43
0.0
 43
0.0
 43
0.0
 43
0.0
 43
0.0208333333333333
 43
0.0
 43
0.0
 43
0.0
 43
0.0
 43
1.0
 43
0.0
 43
0.0
 43
0.0
 43
0.0
 43
1.0
 77
     0
 47
0.0208333333333333
 47
0.0
 47
0.0
 47
0.0
 47
0.0
 47
0.0208333333333333
 47
0.0
 47
0.0
 47
0.0
 47
0.0
 47
1.0
 47
0.0
 47
0.0
 47
0.0
 47
0.0
 47
1.0
171
     0
 49
0.0208333333333333
 49
0.0
 49
0.0
 49
0.0
 49
0.0
 49
0.0208333333333333
 49
0.0
 49
0.0
 49
0.0
 49
0.0
 49
1.0
 49
0.0
 49
0.0
 49
0.0
 49
0.0
 49
1.0
175
     0
142
0.0208333333333333
142
0.0
142
0.0
142
0.0
142
0.0
142
0.0208333333333333
142
0.0
142
0.0
142
0.0
142
0.0
142
1.0
142
0.0
142
0.0
142
0.0
142
0.0
142
1.0
179
     0
144
0.0208333333333333
144
0.0
144
0.0
144
0.0
144
0.0
144
0.0208333333333333
144
0.0
144
0.0
144
0.0
144
0.0
144
1.0
144
0.0
144
0.0
144
0.0
144
0.0
144
1.0
147
0.0208333333333333
147
0.0
147
0.0
147
0.0
147
0.0
147
0.0208333333333333
147
0.0
147
0.0
147
0.0
147
0.0
147
1.0
147
0.0
147
0.0
147
0.0
147
0.0
147
1.0
  0
MATERIAL
  5
21
102
{ACAD_XDICTIONARY
360
22
102
}
102
{ACAD_REACTORS
330
10
102
}
330
10
100
AcDbMaterial
  1
Global
 72
     0
 43
0.0208333333333333
 43
0.0
 43
0.0
 43
0.0
 43
0.0
 43
0.0208333333333333
 43
0.0
 43
0.0
 43
0.0
 43
0.0
 43
1.0
 43
0.0
 43
0.0
 43
0.0
 43
0.0
 43
1.0
 77
     0
 47
0.0208333333333333
 47
0.0
 47
0.0
 47
0.0
 47
0.0
 47
0.0208333333333333
 47
0.0
 47
0.0
 47
0.0
 47
0.0
 47
1.0
 47
0.0
 47
0.0
 47
0.0
 47
0.0
 47
1.0
171
     0
 49
0.0208333333333333
 49
0.0
 49
0.0
 49
0.0
 49
0.0
 49
0.0208333333333333
 49
0.0
 49
0.0
 49
0.0
 49
0.0
 49
1.0
 49
0.0
 49
0.0
 49
0.0
 49
0.0
 49
1.0
175
     0
142
0.0208333333333333
142
0.0
142
0.0
142
0.0
142
0.0
142
0.0208333333333333
142
0.0
142
0.0
142
0.0
142
0.0
142
1.0
142
0.0
142
0.0
142
0.0
142
0.0
142
1.0
179
     0
144
0.0208333333333333
144
0.0
144
0.0
144
0.0
144
0.0
144
0.0208333333333333
144
0.0
144
0.0
144
0.0
144
0.0
144
1.0
144
0.0
144
0.0
144
0.0
144
0.0
144
1.0
147
0.0208333333333333
147
0.0
147
0.0
147
0.0
147
0.0
147
0.0208333333333333
147
0.0
147
0.0
147
0.0
147
0.0
147
1.0
147
0.0
147
0.0
147
0.0
147
0.0
147
1.0
  0
MLEADERSTYLE
  5
67
102
{ACAD_REACTORS
330
66
102
}
330
66
100
AcDbMLeaderStyle
179
     2
170
     2
171
     1
172
     0
 90
        2
 40
0.0
 41
0.0
173
     1
 91
-1056964608
340
5B
 92
       -2
290
     1
 42
0.09
291
     1
 43
0.36
  3
Standard
 44
0.18
300

342
55
174
     1
178
     6
175
     1
176
     0
 93
-1056964608
 45
0.18
292
     0
297
     0
 46
0.18
 94
-1056964608
 47
1.0
 49
1.0
140
1.0
293
     1
141
0.0
294
     1
177
     0
142
1.0
295
     0
296
     0
143
0.125
271
     0
272
     9
273
     9
298
     1
  0
MLINESTYLE
  5
60
102
{ACAD_REACTORS
330
5F
102
}
330
5F
100
AcDbMlineStyle
  2
STANDARD
 70
     0
  3

 62
   256
 51
90.0
 52
90.0
 71
     2
 49
0.5
 62
   256
  6
BYLAYER
 49
-0.5
 62
   256
  6
BYLAYER
  0
ACDBPLACEHOLDER
  5
F
102
{ACAD_REACTORS
330
E
102
}
330
E
  0
SCALE
  5
43
102
{ACAD_REACTORS
330
42
102
}
330
42
100
AcDbScale
 70
     0
300
1:1
140
1.0
141
1.0
290
     1
  0
SCALE
  5
44
102
{ACAD_REACTORS
330
42
102
}
330
42
100
AcDbScale
 70
     0
300
1/128" = 1'-0"
140
0.0078125
141
12.0
290
     0
  0
SCALE
  5
45
102
{ACAD_REACTORS
330
42
102
}
330
42
100
AcDbScale
 70
     0
300
1/64" = 1'-0"
140
0.015625
141
12.0
290
     0
  0
SCALE
  5
46
102
{ACAD_REACTORS
330
42
102
}
330
42
100
AcDbScale
 70
     0
300
1/32" = 1'-0"
140
0.03125
141
12.0
290
     0
  0
SCALE
  5
47
102
{ACAD_REACTORS
330
42
102
}
330
42
100
AcDbScale
 70
     0
300
1/16" = 1'-0"
140
0.0625
141
12.0
290
     0
  0
SCALE
  5
48
102
{ACAD_REACTORS
330
42
102
}
330
42
100
AcDbScale
 70
     0
300
3/32" = 1'-0"
140
0.09375
141
12.0
290
     0
  0
SCALE
  5
49
102
{ACAD_REACTORS
330
42
102
}
330
42
100
AcDbScale
 70
     0
300
1/8" = 1'-0"
140
0.125
141
12.0
290
     0
  0
SCALE
  5
4A
102
{ACAD_REACTORS
330
42
102
}
330
42
100
AcDbScale
 70
     0
300
3/16" = 1'-0"
140
0.1875
141
12.0
290
     0
  0
SCALE
  5
4B
102
{ACAD_REACTORS
330
42
102
}
330
42
100
AcDbScale
 70
     0
300
1/4" = 1'-0"
140
0.25
141
12.0
290
     0
  0
SCALE
  5
4C
102
{ACAD_REACTORS
330
42
102
}
330
42
100
AcDbScale
 70
     0
300
3/8" = 1'-0"
140
0.375
141
12.0
290
     0
  0
SCALE
  5
4D
102
{ACAD_REACTORS
330
42
102
}
330
42
100
AcDbScale
 70
     0
300
1/2" = 1'-0"
140
0.5
141
12.0
290
     0
  0
SCALE
  5
4E
102
{ACAD_REACTORS
330
42
102
}
330
42
100
AcDbScale
 70
     0
300
3/4" = 1'-0"
140
0.75
141
12.0
290
     0
  0
SCALE
  5
4F
102
{ACAD_REACTORS
330
42
102
}
330
42
100
AcDbScale
 70
     0
300
1" = 1'-0"
140
1.0
141
12.0
290
     0
  0
SCALE
  5
50
102
{ACAD_REACTORS
330
42
102
}
330
42
100
AcDbScale
 70
     0
300
1-1/2" = 1'-0"
140
1.5
141
12.0
290
     0
  0
SCALE
  5
51
102
{ACAD_REACTORS
330
42
102
}
330
42
100
AcDbScale
 70
     0
300
3" = 1'-0"
140
3.0
141
12.0
290
     0
  0
SCALE
  5
52
102
{ACAD_REACTORS
330
42
102
}
330
42
100
AcDbScale
 70
     0
300
6" = 1'-0"
140
6.0
141
12.0
290
     0
  0
SCALE
  5
53
102
{ACAD_REACTORS
330
42
102
}
330
42
100
AcDbScale
 70
     0
300
1'-0" = 1'-0"
140
12.0
141
12.0
290
     0
  0
ACDBSECTIONVIEWSTYLE
  5
69
102
{ACAD_XDICTIONARY
360
1FC
102
}
102
{ACAD_REACTORS
330
68
102
}
330
68
100
AcDbModelDocViewStyle
 70
     0
  3
Imperial24
290
     0
100
AcDbSectionViewStyle
 70
     0
 71
     0
 90
       78
 71
     1
340
55
 62
   256
 40
0.24
340
0
340
0
 62
   256
 40
0.24
300
I, O, Q, S, X, Z
 40
0.48
 90
        3
 40
0.18
 90
        1
 71
     2
340
5D
 90
       25
 62
   256
340
5D
 90
       50
 62
   256
 40
0.24
 40
0.0
 40
0.24
 71
     3
340
55
 62
   256
 40
0.24
 90
        1
 40
0.75
 90
        1
300
%<\AcVar ViewType \f "%tc1">% %<\AcVar ViewSectionStartId>%-%<\AcVar ViewSectionEndId>%\PSCALE %<\AcVar ViewScale \f "%sn">%
 71
     4
 62
   256
 62
   257
300
ANSI31
 40
1.0
 90
        0
290
     0
290
     0
 90
        6
 40
0.0
 40
1.570796326794896
 40
0.2617993877991494
 40
1.308996938995747
 40
-0.2617993877991494
 40
1.832595714594046
  0
TABLESTYLE
  5
65
102
{ACAD_XDICTIONARY
360
1F9
102
}
102
{ACAD_REACTORS
330
64
102
}
330
64
100
AcDbTableStyle
280
     0
  3
Standard
 70
     0
 71
     0
 40
0.06
 41
0.06
280
     0
281
     0
  7
Standard
140
0.18
170
     2
 62
     0
 63
     7
283
     0
 90
      512
 91
        0
  1

274
    -2
284
     1
 64
     0
275
    -2
285
     1
 65
     0
276
    -2
286
     1
 66
     0
277
    -2
287
     1
 67
     0
278
    -2
288
     1
 68
     0
279
    -2
289
     1
 69
     0
  7
Standard
140
0.25
170
     5
 62
     0
 63
     7
283
     0
 90
      512
 91
        0
  1

274
    -2
284
     1
 64
     0
275
    -2
285
     1
 65
     0
276
    -2
286
     1
 66
     0
277
    -2
287
     1
 67
     0
278
    -2
288
     1
 68
     0
279
    -2
289
     1
 69
     0
  7
Standard
140
0.18
170
     5
 62
     0
 63
     7
283
     0
 90
      512
 91
        0
  1

274
    -2
284
     1
 64
     0
275
    -2
285
     1
 65
     0
276
    -2
286
     1
 66
     0
277
    -2
287
     1
 67
     0
278
    -2
288
     1
 68
     0
279
    -2
289
     1
 69
     0
  0
VISUALSTYLE
  5
2F
102
{ACAD_REACTORS
330
29
102
}
330
29
100
AcDbVisualStyle
  2
2dWireframe
 70
     4
177
     3
291
     0
 70
    58
 90
        0
176
     1
 90
        2
176
     1
 90
        0
176
     1
 90
        0
176
     1
 40
0.6
176
     1
 40
30.0
176
     1
 62
     7
420
 16777215
176
     1
 90
        1
176
     1
 90
        4
176
     1
 62
     7
176
     1
 62
   257
176
     1
 90
        1
176
     1
 90
        1
176
     1
 40
1.0
176
     1
 90
        0
176
     1
 62
   257
176
     1
 40
1.0
176
     1
 90
        1
176
     1
 90
        6
176
     1
 90
        2
176
     1
 62
     7
176
     1
 90
        5
176
     1
 90
        0
176
     1
 90
        0
176
     1
290
     0
176
     1
 90
        1
176
     1
 40
0.0
176
     1
 90
        0
176
     1
290
     1
176
     1
290
     1
176
     1
290
     0
176
     1
290
     0
176
     1
290
     0
176
     1
290
     0
176
     1
290
     0
176
     1
290
     0
176
     1
290
     0
176
     1
 90
       50
176
     1
 40
0.0
176
     1
 40
1.0
176
     1
 90
        0
176
     1
 62
    18
420
        0
176
     1
 90
       50
176
     1
 90
        3
176
     1
 62
     5
420
      255
176
     1
290
     0
176
     1
 90
       50
176
     1
 90
       50
176
     1
 90
       50
176
     1
290
     0
176
     1
 90
       50
176
     1
 62
   256
176
     0
 40
1.0
176
     0
 90
        2
176
     1
  1
strokes_ogs.tif
176
     1
290
     0
176
     1
 40
1.0
176
     1
 40
1.0
176
     1
1001
ACAD
1000
AcDbSavedByObjectVersion
1070
     0
  0
VISUALSTYLE
  5
2E
102
{ACAD_REACTORS
330
29
102
}
330
29
100
AcDbVisualStyle
  2
Basic
 70
     7
177
     3
291
     1
 70
    58
 90
        1
176
     1
 90
        0
176
     1
 90
        1
176
     1
 90
        0
176
     1
 40
0.6
176
     1
 40
30.0
176
     1
 62
     7
420
 16777215
176
     1
 90
        0
176
     1
 90
        4
176
     1
 62
     7
176
     1
 62
   257
176
     1
 90
        1
176
     1
 90
        1
176
     1
 40
1.0
176
     1
 90
        8
176
     1
 62
     7
176
     1
 40
1.0
176
     1
 90
        1
176
     1
 90
        6
176
     1
 90
        2
176
     1
 62
     7
176
     1
 90
        5
176
     1
 90
        0
176
     1
 90
        0
176
     1
290
     0
176
     1
 90
        1
176
     1
 40
0.0
176
     1
 90
        0
176
     1
290
     0
176
     1
290
     1
176
     1
290
     1
176
     1
290
     0
176
     1
290
     0
176
     1
290
     0
176
     1
290
     0
176
     1
290
     0
176
     1
290
     0
176
     1
 90
       50
176
     1
 40
0.0
176
     1
 40
1.0
176
     1
 90
        0
176
     1
 62
    18
420
        0
176
     1
 90
       50
176
     1
 90
        3
176
     1
 62
     5
420
      255
176
     1
290
     0
176
     1
 90
       50
176
     1
 90
       50
176
     1
 90
       50
176
     1
290
     0
176
     1
 90
       50
176
     1
 62
   256
176
     0
 40
1.0
176
     0
 90
        2
176
     1
  1
strokes_ogs.tif
176
     1
290
     0
176
     1
 40
1.0
176
     1
 40
1.0
176
     1
1001
ACAD
1000
AcDbSavedByObjectVersion
1070
     0
  0
VISUALSTYLE
  5
35
102
{ACAD_REACTORS
330
29
102
}
330
29
100
AcDbVisualStyle
  2
Brighten
 70
    12
177
     3
291
     1
 70
    58
 90
        2
176
     1
 90
        2
176
     1
 90
        0
176
     1
 90
        0
176
     1
 40
0.6
176
     1
 40
30.0
176
     1
 62
     7
420
 16777215
176
     1
 90
        1
176
     1
 90
        4
176
     1
 62
     7
176
     1
 62
   257
176
     1
 90
        1
176
     1
 90
        1
176
     1
 40
1.0
176
     1
 90
        8
176
     1
 62
     7
176
     1
 40
1.0
176
     1
 90
        1
176
     1
 90
        6
176
     1
 90
        2
176
     1
 62
     7
176
     1
 90
        5
176
     1
 90
        0
176
     1
 90
        0
176
     1
290
     0
176
     1
 90
        1
176
     1
 40
50.0
176
     1
 90
        0
176
     1
290
     0
176
     1
290
     1
176
     1
290
     1
176
     1
290
     0
176
     1
290
     0
176
     1
290
     0
176
     1
290
     0
176
     1
290
     0
176
     1
290
     0
176
     1
 90
       50
176
     1
 40
0.0
176
     1
 40
1.0
176
     1
 90
        0
176
     1
 62
    18
420
        0
176
     1
 90
       50
176
     1
 90
        3
176
     1
 62
     5
420
      255
176
     1
290
     0
176
     1
 90
       50
176
     1
 90
       50
176
     1
 90
       50
176
     1
290
     0
176
     1
 90
       50
176
     1
 62
   256
176
     0
 40
1.0
176
     0
 90
        2
176
     1
  1
strokes_ogs.tif
176
     1
290
     0
176
     1
 40
1.0
176
     1
 40
1.0
176
     1
1001
ACAD
1000
AcDbSavedByObjectVersion
1070
     0
  0
VISUALSTYLE
  5
39
102
{ACAD_REACTORS
330
29
102
}
330
29
100
AcDbVisualStyle
  2
ColorChange
 70
    16
177
     3
291
     1
 70
    58
 90
        2
176
     1
 90
        2
176
     1
 90
        3
176
     1
 90
        0
176
     1
 40
0.6
176
     1
 40
30.0
176
     1
 62
     8
420
  8421504
176
     1
 90
        1
176
     1
 90
        4
176
     1
 62
     7
176
     1
 62
   257
176
     1
 90
        1
176
     1
 90
        1
176
     1
 40
1.0
176
     1
 90
        8
176
     1
 62
     8
420
  8421504
176
     1
 40
1.0
176
     1
 90
        1
176
     1
 90
        6
176
     1
 90
        2
176
     1
 62
     7
176
     1
 90
        5
176
     1
 90
        0
176
     1
 90
        0
176
     1
290
     0
176
     1
 90
        1
176
     1
 40
0.0
176
     1
 90
        0
176
     1
290
     0
176
     1
290
     1
176
     1
290
     1
176
     1
290
     0
176
     1
290
     0
176
     1
290
     0
176
     1
290
     0
176
     1
290
     0
176
     1
290
     0
176
     1
 90
       50
176
     1
 40
0.0
176
     1
 40
1.0
176
     1
 90
        0
176
     1
 62
    18
420
        0
176
     1
 90
       50
176
     1
 90
        3
176
     1
 62
     5
420
      255
176
     1
290
     0
176
     1
 90
       50
176
     1
 90
       50
176
     1
 90
       50
176
     1
290
     0
176
     1
 90
       50
176
     1
 62
   256
176
     0
 40
1.0
176
     0
 90
        2
176
     1
  1
strokes_ogs.tif
176
     1
290
     0
176
     1
 40
1.0
176
     1
 40
1.0
176
     1
1001
ACAD
1000
AcDbSavedByObjectVersion
1070
     0
  0
VISUALSTYLE
  5
32
102
{ACAD_REACTORS
330
29
102
}
330
29
100
AcDbVisualStyle
  2
Conceptual
 70
     9
177
     3
291
     0
 70
    58
 90
        3
176
     1
 90
        2
176
     1
 90
        0
176
     1
 90
        0
176
     1
 40
0.6
176
     1
 40
30.0
176
     1
 62
     7
420
 16777215
176
     1
 90
        2
176
     1
 90
        2
176
     1
 62
     7
176
     1
 62
   257
176
     1
 90
        1
176
     1
 90
        1
176
     1
 40
179.0
176
     1
 90
        8
176
     1
 62
     7
176
     1
 40
1.0
176
     1
 90
        1
176
     1
 90
        6
176
     1
 90
        2
176
     1
 62
     7
176
     1
 90
        3
176
     1
 90
        0
176
     1
 90
        0
176
     1
290
     0
176
     1
 90
        1
176
     1
 40
0.0
176
     1
 90
        0
176
     1
290
     0
176
     1
290
     1
176
     1
290
     1
176
     1
290
     0
176
     1
290
     0
176
     1
290
     0
176
     1
290
     0
176
     1
290
     0
176
     1
290
     0
176
     1
 90
       50
176
     1
 40
0.0
176
     1
 40
1.0
176
     1
 90
        0
176
     1
 62
    18
420
        0
176
     1
 90
       50
176
     1
 90
        3
176
     1
 62
     5
420
      255
176
     1
290
     0
176
     1
 90
       50
176
     1
 90
       50
176
     1
 90
       50
176
     1
290
     0
176
     1
 90
       50
176
     1
 62
   256
176
     0
 40
1.0
176
     0
 90
        2
176
     1
  1
strokes_ogs.tif
176
     1
290
     0
176
     1
 40
1.0
176
     1
 40
1.0
176
     1
1001
ACAD
1000
AcDbSavedByObjectVersion
1070
     0
  0
VISUALSTYLE
  5
34
102
{ACAD_REACTORS
330
29
102
}
330
29
100
AcDbVisualStyle
  2
Dim
 70
    11
177
     3
291
     1
 70
    58
 90
        2
176
     1
 90
        2
176
     1
 90
        0
176
     1
 90
        0
176
     1
 40
0.6
176
     1
 40
30.0
176
     1
 62
     7
420
 16777215
176
     1
 90
        1
176
     1
 90
        4
176
     1
 62
     7
176
     1
 62
   257
176
     1
 90
        1
176
     1
 90
        1
176
     1
 40
1.0
176
     1
 90
        8
176
     1
 62
     7
176
     1
 40
1.0
176
     1
 90
        1
176
     1
 90
        6
176
     1
 90
        2
176
     1
 62
     7
176
     1
 90
        5
176
     1
 90
        0
176
     1
 90
        0
176
     1
290
     0
176
     1
 90
        1
176
     1
 40
-50.0
176
     1
 90
        0
176
     1
290
     0
176
     1
290
     1
176
     1
290
     1
176
     1
290
     0
176
     1
290
     0
176
     1
290
     0
176
     1
290
     0
176
     1
290
     0
176
     1
290
     0
176
     1
 90
       50
176
     1
 40
0.0
176
     1
 40
1.0
176
     1
 90
        0
176
     1
 62
    18
420
        0
176
     1
 90
       50
176
     1
 90
        3
176
     1
 62
     5
420
      255
176
     1
290
     0
176
     1
 90
       50
176
     1
 90
       50
176
     1
 90
       50
176
     1
290
     0
176
     1
 90
       50
176
     1
 62
   256
176
     0
 40
1.0
176
     0
 90
        2
176
     1
  1
strokes_ogs.tif
176
     1
290
     0
176
     1
 40
1.0
176
     1
 40
1.0
176
     1
1001
ACAD
1000
AcDbSavedByObjectVersion
1070
     0
  0
VISUALSTYLE
  5
41
102
{ACAD_REACTORS
330
29
102
}
330
29
100
AcDbVisualStyle
  2
EdgeColorOff
 70
    22
177
     3
291
     1
 70
    58
 90
        2
176
     0
 90
        2
176
     0
 90
        0
176
     0
 90
        0
176
     0
 40
0.6
176
     0
 40
30.0
176
     0
 62
     7
420
 16777215
176
     0
 90
        1
176
     0
 90
        4
176
     0
 62
     7
176
     0
 62
   257
176
     0
 90
        1
176
     0
 90
        1
176
     0
 40
1.0
176
     0
 90
        8
176
     2
 62
     7
176
     0
 40
1.0
176
     0
 90
        1
176
     0
 90
        6
176
     0
 90
        2
176
     0
 62
     7
176
     0
 90
        5
176
     0
 90
        0
176
     0
 90
        0
176
     0
290
     0
176
     0
 90
        1
176
     0
 40
0.0
176
     0
 90
        0
176
     0
290
     0
176
     0
290
     1
176
     0
290
     1
176
     0
290
     0
176
     0
290
     0
176
     0
290
     0
176
     0
290
     0
176
     0
290
     0
176
     0
290
     0
176
     0
 90
       50
176
     0
 40
0.0
176
     0
 40
1.0
176
     0
 90
        0
176
     0
 62
    18
420
        0
176
     0
 90
       50
176
     0
 90
        3
176
     0
 62
     5
420
      255
176
     0
290
     0
176
     0
 90
       50
176
     0
 90
       50
176
     0
 90
       50
176
     0
290
     0
176
     0
 90
       50
176
     0
 62
   256
176
     0
 40
1.0
176
     0
 90
        2
176
     0
  1
strokes_ogs.tif
176
     0
290
     0
176
     0
 40
1.0
176
     0
 40
1.0
176
     0
1001
ACAD
1000
AcDbSavedByObjectVersion
1070
     0
  0
VISUALSTYLE
  5
38
102
{ACAD_REACTORS
330
29
102
}
330
29
100
AcDbVisualStyle
  2
Facepattern
 70
    15
177
     3
291
     1
 70
    58
 90
        2
176
     1
 90
        2
176
     1
 90
        0
176
     1
 90
        0
176
     1
 40
0.6
176
     1
 40
30.0
176
     1
 62
     7
420
 16777215
176
     1
 90
        1
176
     1
 90
        4
176
     1
 62
     7
176
     1
 62
   257
176
     1
 90
        1
176
     1
 90
        1
176
     1
 40
1.0
176
     1
 90
        8
176
     1
 62
     7
176
     1
 40
1.0
176
     1
 90
        1
176
     1
 90
        6
176
     1
 90
        2
176
     1
 62
     7
176
     1
 90
        5
176
     1
 90
        0
176
     1
 90
        0
176
     1
290
     0
176
     1
 90
        1
176
     1
 40
0.0
176
     1
 90
        0
176
     1
290
     0
176
     1
290
     1
176
     1
290
     1
176
     1
290
     0
176
     1
290
     0
176
     1
290
     0
176
     1
290
     0
176
     1
290
     0
176
     1
290
     0
176
     1
 90
       50
176
     1
 40
0.0
176
     1
 40
1.0
176
     1
 90
        0
176
     1
 62
    18
420
        0
176
     1
 90
       50
176
     1
 90
        3
176
     1
 62
     5
420
      255
176
     1
290
     0
176
     1
 90
       50
176
     1
 90
       50
176
     1
 90
       50
176
     1
290
     0
176
     1
 90
       50
176
     1
 62
   256
176
     0
 40
1.0
176
     0
 90
        2
176
     1
  1
strokes_ogs.tif
176
     1
290
     0
176
     1
 40
1.0
176
     1
 40
1.0
176
     1
1001
ACAD
1000
AcDbSavedByObjectVersion
1070
     0
  0
VISUALSTYLE
  5
2A
102
{ACAD_REACTORS
330
29
102
}
330
29
100
AcDbVisualStyle
  2
Flat
 70
     0
177
     3
291
     1
 70
    58
 90
        2
176
     1
 90
        1
176
     1
 90
        1
176
     1
 90
        2
176
     1
 40
0.6
176
     1
 40
30.0
176
     1
 62
     7
420
 16777215
176
     1
 90
        0
176
     1
 90
        0
176
     1
 62
     7
176
     1
 62
   257
176
     1
 90
        1
176
     1
 90
        1
176
     1
 40
1.0
176
     1
 90
        8
176
     1
 62
     7
176
     1
 40
1.0
176
     1
 90
        1
176
     1
 90
        6
176
     1
 90
        2
176
     1
 62
     7
176
     1
 90
        5
176
     1
 90
        0
176
     1
 90
        0
176
     1
290
     0
176
     1
 90
       13
176
     1
 40
0.0
176
     1
 90
        0
176
     1
290
     0
176
     1
290
     1
176
     1
290
     1
176
     1
290
     0
176
     1
290
     0
176
     1
290
     0
176
     1
290
     0
176
     1
290
     0
176
     1
290
     0
176
     1
 90
       50
176
     1
 40
0.0
176
     1
 40
1.0
176
     1
 90
        0
176
     1
 62
    18
420
        0
176
     1
 90
       50
176
     1
 90
        3
176
     1
 62
     5
420
      255
176
     1
290
     0
176
     1
 90
       50
176
     1
 90
       50
176
     1
 90
       50
176
     1
290
     0
176
     1
 90
       50
176
     1
 62
   256
176
     0
 40
1.0
176
     0
 90
        2
176
     1
  1
strokes_ogs.tif
176
     1
290
     0
176
     1
 40
1.0
176
     1
 40
1.0
176
     1
1001
ACAD
1000
AcDbSavedByObjectVersion
1070
     0
  0
VISUALSTYLE
  5
2B
102
{ACAD_REACTORS
330
29
102
}
330
29
100
AcDbVisualStyle
  2
FlatWithEdges
 70
     1
177
     3
291
     1
 70
    58
 90
        2
176
     1
 90
        1
176
     1
 90
        1
176
     1
 90
        2
176
     1
 40
0.6
176
     1
 40
30.0
176
     1
 62
     7
420
 16777215
176
     1
 90
        1
176
     1
 90
        0
176
     1
 62
     7
176
     1
 62
   257
176
     1
 90
        1
176
     1
 90
        1
176
     1
 40
1.0
176
     1
 90
        0
176
     1
 62
   257
176
     1
 40
1.0
176
     1
 90
        1
176
     1
 90
        6
176
     1
 90
        2
176
     1
 62
     7
176
     1
 90
        5
176
     1
 90
        0
176
     1
 90
        0
176
     1
290
     0
176
     1
 90
       13
176
     1
 40
0.0
176
     1
 90
        0
176
     1
290
     0
176
     1
290
     1
176
     1
290
     1
176
     1
290
     0
176
     1
290
     0
176
     1
290
     0
176
     1
290
     0
176
     1
290
     0
176
     1
290
     0
176
     1
 90
       50
176
     1
 40
0.0
176
     1
 40
1.0
176
     1
 90
        0
176
     1
 62
    18
420
        0
176
     1
 90
       50
176
     1
 90
        3
176
     1
 62
     5
420
      255
176
     1
290
     0
176
     1
 90
       50
176
     1
 90
       50
176
     1
 90
       50
176
     1
290
     0
176
     1
 90
       50
176
     1
 62
   256
176
     0
 40
1.0
176
     0
 90
        2
176
     1
  1
strokes_ogs.tif
176
     1
290
     0
176
     1
 40
1.0
176
     1
 40
1.0
176
     1
1001
ACAD
1000
AcDbSavedByObjectVersion
1070
     0
  0
VISUALSTYLE
  5
2C
102
{ACAD_REACTORS
330
29
102
}
330
29
100
AcDbVisualStyle
  2
Gouraud
 70
     2
177
     3
291
     1
 70
    58
 90
        2
176
     1
 90
        2
176
     1
 90
        1
176
     1
 90
        2
176
     1
 40
0.6
176
     1
 40
30.0
176
     1
 62
     7
420
 16777215
176
     1
 90
        0
176
     1
 90
        0
176
     1
 62
     7
176
     1
 62
   257
176
     1
 90
        1
176
     1
 90
        1
176
     1
 40
1.0
176
     1
 90
        0
176
     1
 62
     7
176
     1
 40
1.0
176
     1
 90
        1
176
     1
 90
        6
176
     1
 90
        2
176
     1
 62
     7
176
     1
 90
        5
176
     1
 90
        0
176
     1
 90
        0
176
     1
290
     0
176
     1
 90
       13
176
     1
 40
0.0
176
     1
 90
        0
176
     1
290
     0
176
     1
290
     1
176
     1
290
     1
176
     1
290
     0
176
     1
290
     0
176
     1
290
     0
176
     1
290
     0
176
     1
290
     0
176
     1
290
     0
176
     1
 90
       50
176
     1
 40
0.0
176
     1
 40
1.0
176
     1
 90
        0
176
     1
 62
    18
420
        0
176
     1
 90
       50
176
     1
 90
        3
176
     1
 62
     5
420
      255
176
     1
290
     0
176
     1
 90
       50
176
     1
 90
       50
176
     1
 90
       50
176
     1
290
     0
176
     1
 90
       50
176
     1
 62
   256
176
     0
 40
1.0
176
     0
 90
        2
176
     1
  1
strokes_ogs.tif
176
     1
290
     0
176
     1
 40
1.0
176
     1
 40
1.0
176
     1
1001
ACAD
1000
AcDbSavedByObjectVersion
1070
     0
  0
VISUALSTYLE
  5
2D
102
{ACAD_REACTORS
330
29
102
}
330
29
100
AcDbVisualStyle
  2
GouraudWithEdges
 70
     3
177
     3
291
     1
 70
    58
 90
        2
176
     1
 90
        2
176
     1
 90
        1
176
     1
 90
        2
176
     1
 40
0.6
176
     1
 40
30.0
176
     1
 62
     7
420
 16777215
176
     1
 90
        1
176
     1
 90
        0
176
     1
 62
     7
176
     1
 62
   257
176
     1
 90
        1
176
     1
 90
        1
176
     1
 40
1.0
176
     1
 90
        0
176
     1
 62
   257
176
     1
 40
1.0
176
     1
 90
        1
176
     1
 90
        6
176
     1
 90
        2
176
     1
 62
     7
176
     1
 90
        5
176
     1
 90
        0
176
     1
 90
        0
176
     1
290
     0
176
     1
 90
       13
176
     1
 40
0.0
176
     1
 90
        0
176
     1
290
     0
176
     1
290
     1
176
     1
290
     1
176
     1
290
     0
176
     1
290
     0
176
     1
290
     0
176
     1
290
     0
176
     1
290
     0
176
     1
290
     0
176
     1
 90
       50
176
     1
 40
0.0
176
     1
 40
1.0
176
     1
 90
        0
176
     1
 62
    18
420
        0
176
     1
 90
       50
176
     1
 90
        3
176
     1
 62
     5
420
      255
176
     1
290
     0
176
     1
 90
       50
176
     1
 90
       50
176
     1
 90
       50
176
     1
290
     0
176
     1
 90
       50
176
     1
 62
   256
176
     0
 40
1.0
176
     0
 90
        2
176
     1
  1
strokes_ogs.tif
176
     1
290
     0
176
     1
 40
1.0
176
     1
 40
1.0
176
     1
1001
ACAD
1000
AcDbSavedByObjectVersion
1070
     0
  0
VISUALSTYLE
  5
31
102
{ACAD_REACTORS
330
29
102
}
330
29
100
AcDbVisualStyle
  2
Hidden
 70
     6
177
     3
291
     0
 70
    58
 90
        1
176
     1
 90
        2
176
     1
 90
        2
176
     1
 90
        0
176
     1
 40
0.6
176
     1
 40
30.0
176
     1
 62
     7
420
 16777215
176
     1
 90
        2
176
     1
 90
        2
176
     1
 62
     7
176
     1
 62
   257
176
     1
 90
        2
176
     1
 90
        1
176
     1
 40
40.0
176
     1
 90
        0
176
     1
 62
   257
176
     1
 40
1.0
176
     1
 90
        1
176
     1
 90
        6
176
     1
 90
        2
176
     1
 62
     7
176
     1
 90
        3
176
     1
 90
        0
176
     1
 90
        0
176
     1
290
     0
176
     1
 90
        1
176
     1
 40
0.0
176
     1
 90
        0
176
     1
290
     0
176
     1
290
     1
176
     1
290
     1
176
     1
290
     0
176
     1
290
     0
176
     1
290
     0
176
     1
290
     0
176
     1
290
     0
176
     1
290
     0
176
     1
 90
       50
176
     1
 40
0.0
176
     1
 40
1.0
176
     1
 90
        0
176
     1
 62
    18
420
        0
176
     1
 90
       50
176
     1
 90
        3
176
     1
 62
     5
420
      255
176
     1
290
     0
176
     1
 90
       50
176
     1
 90
       50
176
     1
 90
       50
176
     1
290
     0
176
     1
 90
       50
176
     1
 62
   256
176
     0
 40
1.0
176
     0
 90
        2
176
     1
  1
strokes_ogs.tif
176
     1
290
     0
176
     1
 40
1.0
176
     1
 40
1.0
176
     1
1001
ACAD
1000
AcDbSavedByObjectVersion
1070
     0
  0
VISUALSTYLE
  5
3F
102
{ACAD_REACTORS
330
29
102
}
330
29
100
AcDbVisualStyle
  2
JitterOff
 70
    20
177
     3
291
     1
 70
    58
 90
        2
176
     0
 90
        2
176
     0
 90
        0
176
     0
 90
        0
176
     0
 40
0.6
176
     0
 40
30.0
176
     0
 62
     7
420
 16777215
176
     0
 90
        1
176
     0
 90
        4
176
     0
 62
     7
176
     0
 62
   257
176
     0
 90
        1
176
     0
 90
        1
176
     0
 40
1.0
176
     0
 90
       10
176
     2
 62
     7
176
     0
 40
1.0
176
     0
 90
        1
176
     0
 90
        6
176
     0
 90
        2
176
     0
 62
     7
176
     0
 90
        5
176
     0
 90
        0
176
     0
 90
        0
176
     0
290
     0
176
     0
 90
        1
176
     0
 40
0.0
176
     0
 90
        0
176
     0
290
     0
176
     0
290
     1
176
     0
290
     1
176
     0
290
     0
176
     0
290
     0
176
     0
290
     0
176
     0
290
     0
176
     0
290
     0
176
     0
290
     0
176
     0
 90
       50
176
     0
 40
0.0
176
     0
 40
1.0
176
     0
 90
        0
176
     0
 62
    18
420
        0
176
     0
 90
       50
176
     0
 90
        3
176
     0
 62
     5
420
      255
176
     0
290
     0
176
     0
 90
       50
176
     0
 90
       50
176
     0
 90
       50
176
     0
290
     0
176
     0
 90
       50
176
     0
 62
   256
176
     0
 40
1.0
176
     0
 90
        2
176
     0
  1
strokes_ogs.tif
176
     0
290
     0
176
     0
 40
1.0
176
     0
 40
1.0
176
     0
1001
ACAD
1000
AcDbSavedByObjectVersion
1070
     0
  0
VISUALSTYLE
  5
37
102
{ACAD_REACTORS
330
29
102
}
330
29
100
AcDbVisualStyle
  2
Linepattern
 70
    14
177
     3
291
     1
 70
    58
 90
        2
176
     1
 90
        2
176
     1
 90
        0
176
     1
 90
        0
176
     1
 40
0.6
176
     1
 40
30.0
176
     1
 62
     7
420
 16777215
176
     1
 90
        1
176
     1
 90
        4
176
     1
 62
     7
176
     1
 62
   257
176
     1
 90
        7
176
     1
 90
        7
176
     1
 40
1.0
176
     1
 90
        8
176
     1
 62
     7
176
     1
 40
1.0
176
     1
 90
        1
176
     1
 90
        6
176
     1
 90
        2
176
     1
 62
     7
176
     1
 90
        5
176
     1
 90
        0
176
     1
 90
        0
176
     1
290
     0
176
     1
 90
        1
176
     1
 40
0.0
176
     1
 90
        0
176
     1
290
     0
176
     1
290
     1
176
     1
290
     1
176
     1
290
     0
176
     1
290
     0
176
     1
290
     0
176
     1
290
     0
176
     1
290
     0
176
     1
290
     0
176
     1
 90
       50
176
     1
 40
0.0
176
     1
 40
1.0
176
     1
 90
        0
176
     1
 62
    18
420
        0
176
     1
 90
       50
176
     1
 90
        3
176
     1
 62
     5
420
      255
176
     1
290
     0
176
     1
 90
       50
176
     1
 90
       50
176
     1
 90
       50
176
     1
290
     0
176
     1
 90
       50
176
     1
 62
   256
176
     0
 40
1.0
176
     0
 90
        2
176
     1
  1
strokes_ogs.tif
176
     1
290
     0
176
     1
 40
1.0
176
     1
 40
1.0
176
     1
1001
ACAD
1000
AcDbSavedByObjectVersion
1070
     0
  0
VISUALSTYLE
  5
40
102
{ACAD_REACTORS
330
29
102
}
330
29
100
AcDbVisualStyle
  2
OverhangOff
 70
    21
177
     3
291
     1
 70
    58
 90
        2
176
     0
 90
        2
176
     0
 90
        0
176
     0
 90
        0
176
     0
 40
0.6
176
     0
 40
30.0
176
     0
 62
     7
420
 16777215
176
     0
 90
        1
176
     0
 90
        4
176
     0
 62
     7
176
     0
 62
   257
176
     0
 90
        1
176
     0
 90
        1
176
     0
 40
1.0
176
     0
 90
        9
176
     2
 62
     7
176
     0
 40
1.0
176
     0
 90
        1
176
     0
 90
        6
176
     0
 90
        2
176
     0
 62
     7
176
     0
 90
        5
176
     0
 90
        0
176
     0
 90
        0
176
     0
290
     0
176
     0
 90
        1
176
     0
 40
0.0
176
     0
 90
        0
176
     0
290
     0
176
     0
290
     1
176
     0
290
     1
176
     0
290
     0
176
     0
290
     0
176
     0
290
     0
176
     0
290
     0
176
     0
290
     0
176
     0
290
     0
176
     0
 90
       50
176
     0
 40
0.0
176
     0
 40
1.0
176
     0
 90
        0
176
     0
 62
    18
420
        0
176
     0
 90
       50
176
     0
 90
        3
176
     0
 62
     5
420
      255
176
     0
290
     0
176
     0
 90
       50
176
     0
 90
       50
176
     0
 90
       50
176
     0
290
     0
176
     0
 90
       50
176
     0
 62
   256
176
     0
 40
1.0
176
     0
 90
        2
176
     0
  1
strokes_ogs.tif
176
     0
290
     0
176
     0
 40
1.0
176
     0
 40
1.0
176
     0
1001
ACAD
1000
AcDbSavedByObjectVersion
1070
     0
  0
VISUALSTYLE
  5
33
102
{ACAD_REACTORS
330
29
102
}
330
29
100
AcDbVisualStyle
  2
Realistic
 70
     8
177
     3
291
     0
 70
    58
 90
        2
176
     1
 90
        3
176
     1
 90
        0
176
     1
 90
        2
176
     1
 40
0.6
176
     1
 40
30.0
176
     1
 62
     7
420
 16777215
176
     1
 90
        0
176
     1
 90
        0
176
     1
 62
     7
176
     1
 62
   257
176
     1
 90
        1
176
     1
 90
        1
176
     1
 40
1.0
176
     1
 90
        8
176
     1
 62
   257
176
     1
 40
1.0
176
     1
 90
        1
176
     1
 90
        6
176
     1
 90
        2
176
     1
 62
     7
176
     1
 90
        3
176
     1
 90
        0
176
     1
 90
        0
176
     1
290
     0
176
     1
 90
       13
176
     1
 40
0.0
176
     1
 90
        0
176
     1
290
     0
176
     1
290
     1
176
     1
290
     1
176
     1
290
     0
176
     1
290
     0
176
     1
290
     0
176
     1
290
     0
176
     1
290
     0
176
     1
290
     0
176
     1
 90
       50
176
     1
 40
0.0
176
     1
 40
1.0
176
     1
 90
        0
176
     1
 62
    18
420
        0
176
     1
 90
       50
176
     1
 90
        3
176
     1
 62
     5
420
      255
176
     1
290
     0
176
     1
 90
       50
176
     1
 90
       50
176
     1
 90
       50
176
     1
290
     0
176
     1
 90
       50
176
     1
 62
   256
176
     0
 40
1.0
176
     0
 90
        2
176
     1
  1
strokes_ogs.tif
176
     1
290
     0
176
     1
 40
1.0
176
     1
 40
1.0
176
     1
1001
ACAD
1000
AcDbSavedByObjectVersion
1070
     0
  0
VISUALSTYLE
  5
3E
102
{ACAD_REACTORS
330
29
102
}
330
29
100
AcDbVisualStyle
  2
Shaded
 70
    27
177
     3
291
     0
 70
    58
 90
        2
176
     1
 90
        2
176
     1
 90
        1
176
     1
 90
        2
176
     1
 40
0.6
176
     1
 40
30.0
176
     1
 62
     7
420
 16777215
176
     1
 90
        0
176
     1
 90
        4
176
     1
 62
     7
176
     1
 62
   257
176
     1
 90
        1
176
     1
 90
        1
176
     1
 40
1.0
176
     1
 90
        8
176
     1
 62
   257
176
     1
 40
1.0
176
     1
 90
        1
176
     1
 90
        6
176
     1
 90
        2
176
     1
 62
     8
420
  7895160
176
     1
 90
        3
176
     1
 90
        0
176
     1
 90
        0
176
     1
290
     0
176
     1
 90
        5
176
     1
 40
0.0
176
     1
 90
        0
176
     1
290
     0
176
     1
290
     1
176
     1
290
     1
176
     1
290
     0
176
     1
290
     0
176
     1
290
     0
176
     1
290
     0
176
     1
290
     0
176
     1
290
     0
176
     1
 90
       50
176
     1
 40
0.0
176
     1
 40
1.0
176
     1
 90
        0
176
     1
 62
    18
420
        0
176
     1
 90
       50
176
     1
 90
        3
176
     1
 62
     5
420
      255
176
     1
290
     0
176
     1
 90
       50
176
     1
 90
       50
176
     1
 90
       50
176
     1
290
     0
176
     1
 90
       50
176
     1
 62
   256
176
     0
 40
1.0
176
     0
 90
        2
176
     1
  1
strokes_ogs.tif
176
     1
290
     0
176
     1
 40
1.0
176
     1
 40
1.0
176
     1
1001
ACAD
1000
AcDbSavedByObjectVersion
1070
     0
  0
VISUALSTYLE
  5
3D
102
{ACAD_REACTORS
330
29
102
}
330
29
100
AcDbVisualStyle
  2
Shaded with edges
 70
    26
177
     3
291
     0
 70
    58
 90
        2
176
     1
 90
        2
176
     1
 90
        1
176
     1
 90
        2
176
     1
 40
0.6
176
     1
 40
30.0
176
     1
 62
     7
420
 16777215
176
     1
 90
        1
176
     1
 90
        2
176
     1
 62
     7
176
     1
 62
   257
176
     1
 90
        2
176
     1
 90
        1
176
     1
 40
1.0
176
     1
 90
        8
176
     1
 62
   257
176
     1
 40
1.0
176
     1
 90
        1
176
     1
 90
        6
176
     1
 90
        2
176
     1
 62
     7
176
     1
 90
        3
176
     1
 90
        0
176
     1
 90
        0
176
     1
290
     0
176
     1
 90
        5
176
     1
 40
0.0
176
     1
 90
        0
176
     1
290
     0
176
     1
290
     1
176
     1
290
     1
176
     1
290
     0
176
     1
290
     0
176
     1
290
     0
176
     1
290
     0
176
     1
290
     0
176
     1
290
     0
176
     1
 90
       50
176
     1
 40
0.0
176
     1
 40
1.0
176
     1
 90
        0
176
     1
 62
    18
420
        0
176
     1
 90
       50
176
     1
 90
        3
176
     1
 62
     5
420
      255
176
     1
290
     0
176
     1
 90
       50
176
     1
 90
       50
176
     1
 90
       50
176
     1
290
     0
176
     1
 90
       50
176
     1
 62
   256
176
     0
 40
1.0
176
     0
 90
        2
176
     1
  1
strokes_ogs.tif
176
     1
290
     0
176
     1
 40
1.0
176
     1
 40
1.0
176
     1
1001
ACAD
1000
AcDbSavedByObjectVersion
1070
     0
  0
VISUALSTYLE
  5
3A
102
{ACAD_REACTORS
330
29
102
}
330
29
100
AcDbVisualStyle
  2
Shades of Gray
 70
    23
177
     3
291
     0
 70
    58
 90
        2
176
     1
 90
        2
176
     1
 90
        3
176
     1
 90
        0
176
     1
 40
0.6
176
     1
 40
30.0
176
     1
 62
     7
420
 16777215
176
     1
 90
        2
176
     1
 90
        2
176
     1
 62
     7
176
     1
 62
     7
176
     1
 90
        1
176
     1
 90
        1
176
     1
 40
40.0
176
     1
 90
        8
176
     1
 62
     7
176
     1
 40
1.0
176
     1
 90
        1
176
     1
 90
        6
176
     1
 90
        2
176
     1
 62
     7
176
     1
 90
        3
176
     1
 90
        0
176
     1
 90
        0
176
     1
290
     0
176
     1
 90
        1
176
     1
 40
0.0
176
     1
 90
        0
176
     1
290
     0
176
     1
290
     1
176
     1
290
     1
176
     1
290
     0
176
     1
290
     0
176
     1
290
     0
176
     1
290
     0
176
     1
290
     0
176
     1
290
     0
176
     1
 90
       50
176
     1
 40
0.0
176
     1
 40
1.0
176
     1
 90
        0
176
     1
 62
    18
420
        0
176
     1
 90
       50
176
     1
 90
        3
176
     1
 62
     5
420
      255
176
     1
290
     0
176
     1
 90
       50
176
     1
 90
       50
176
     1
 90
       50
176
     1
290
     0
176
     1
 90
       50
176
     1
 62
   256
176
     0
 40
1.0
176
     0
 90
        2
176
     1
  1
strokes_ogs.tif
176
     1
290
     0
176
     1
 40
1.0
176
     1
 40
1.0
176
     1
1001
ACAD
1000
AcDbSavedByObjectVersion
1070
     0
  0
VISUALSTYLE
  5
3B
102
{ACAD_REACTORS
330
29
102
}
330
29
100
AcDbVisualStyle
  2
Sketchy
 70
    24
177
     3
291
     0
 70
    58
 90
        1
176
     1
 90
        2
176
     1
 90
        2
176
     1
 90
        0
176
     1
 40
0.6
176
     1
 40
30.0
176
     1
 62
     7
420
 16777215
176
     1
 90
        2
176
     1
 90
        2
176
     1
 62
     7
176
     1
 62
     7
176
     1
 90
        1
176
     1
 90
        1
176
     1
 40
40.0
176
     1
 90
       11
176
     1
 62
     7
176
     1
 40
1.0
176
     1
 90
        1
176
     1
 90
        6
176
     1
 90
        2
176
     1
 62
     7
176
     1
 90
        6
176
     1
 90
        0
176
     1
 90
        0
176
     1
290
     0
176
     1
 90
        1
176
     1
 40
0.0
176
     1
 90
        0
176
     1
290
     0
176
     1
290
     1
176
     1
290
     1
176
     1
290
     0
176
     1
290
     0
176
     1
290
     0
176
     1
290
     0
176
     1
290
     0
176
     1
290
     0
176
     1
 90
       50
176
     1
 40
0.0
176
     1
 40
1.0
176
     1
 90
        0
176
     1
 62
    18
420
        0
176
     1
 90
       50
176
     1
 90
        3
176
     1
 62
     5
420
      255
176
     1
290
     0
176
     1
 90
       50
176
     1
 90
       50
176
     1
 90
       50
176
     1
290
     0
176
     1
 90
       50
176
     1
 62
   256
176
     0
 40
1.0
176
     0
 90
        2
176
     1
  1
strokes_ogs.tif
176
     1
290
     0
176
     1
 40
1.0
176
     1
 40
1.0
176
     1
1001
ACAD
1000
AcDbSavedByObjectVersion
1070
     0
  0
VISUALSTYLE
  5
36
102
{ACAD_REACTORS
330
29
102
}
330
29
100
AcDbVisualStyle
  2
Thicken
 70
    13
177
     3
291
     1
 70
    58
 90
        2
176
     1
 90
        2
176
     1
 90
        0
176
     1
 90
        0
176
     1
 40
0.6
176
     1
 40
30.0
176
     1
 62
     7
420
 16777215
176
     1
 90
        1
176
     1
 90
        4
176
     1
 62
     7
176
     1
 62
   257
176
     1
 90
        1
176
     1
 90
        1
176
     1
 40
1.0
176
     1
 90
       12
176
     1
 62
     7
176
     1
 40
1.0
176
     1
 90
        1
176
     1
 90
        6
176
     1
 90
        2
176
     1
 62
     7
176
     1
 90
        5
176
     1
 90
        0
176
     1
 90
        0
176
     1
290
     0
176
     1
 90
        1
176
     1
 40
0.0
176
     1
 90
        0
176
     1
290
     0
176
     1
290
     1
176
     1
290
     1
176
     1
290
     0
176
     1
290
     0
176
     1
290
     0
176
     1
290
     0
176
     1
290
     0
176
     1
290
     0
176
     1
 90
       50
176
     1
 40
0.0
176
     1
 40
1.0
176
     1
 90
        0
176
     1
 62
    18
420
        0
176
     1
 90
       50
176
     1
 90
        3
176
     1
 62
     5
420
      255
176
     1
290
     0
176
     1
 90
       50
176
     1
 90
       50
176
     1
 90
       50
176
     1
290
     0
176
     1
 90
       50
176
     1
 62
   256
176
     0
 40
1.0
176
     0
 90
        2
176
     1
  1
strokes_ogs.tif
176
     1
290
     0
176
     1
 40
1.0
176
     1
 40
1.0
176
     1
1001
ACAD
1000
AcDbSavedByObjectVersion
1070
     0
  0
VISUALSTYLE
  5
30
102
{ACAD_REACTORS
330
29
102
}
330
29
100
AcDbVisualStyle
  2
Wireframe
 70
     5
177
     3
291
     0
 70
    58
 90
        0
176
     1
 90
        2
176
     1
 90
        0
176
     1
 90
        0
176
     1
 40
0.6
176
     1
 40
30.0
176
     1
 62
     7
420
 16777215
176
     1
 90
        1
176
     1
 90
        4
176
     1
 62
     7
176
     1
 62
   257
176
     1
 90
        1
176
     1
 90
        1
176
     1
 40
1.0
176
     1
 90
        0
176
     1
 62
   257
176
     1
 40
1.0
176
     1
 90
        1
176
     1
 90
        6
176
     1
 90
        2
176
     1
 62
     7
176
     1
 90
        3
176
     1
 90
        0
176
     1
 90
        0
176
     1
290
     0
176
     1
 90
        1
176
     1
 40
0.0
176
     1
 90
        0
176
     1
290
     0
176
     1
290
     1
176
     1
290
     1
176
     1
290
     0
176
     1
290
     0
176
     1
290
     0
176
     1
290
     0
176
     1
290
     0
176
     1
290
     0
176
     1
 90
       50
176
     1
 40
0.0
176
     1
 40
1.0
176
     1
 90
        0
176
     1
 62
    18
420
        0
176
     1
 90
       50
176
     1
 90
        3
176
     1
 62
     5
420
      255
176
     1
290
     0
176
     1
 90
       50
176
     1
 90
       50
176
     1
 90
       50
176
     1
290
     0
176
     1
 90
       50
176
     1
 62
   256
176
     0
 40
1.0
176
     0
 90
        2
176
     1
  1
strokes_ogs.tif
176
     1
290
     0
176
     1
 40
1.0
176
     1
 40
1.0
176
     1
1001
ACAD
1000
AcDbSavedByObjectVersion
1070
     0
  0
VISUALSTYLE
  5
3C
102
{ACAD_REACTORS
330
29
102
}
330
29
100
AcDbVisualStyle
  2
X-Ray
 70
    25
177
     3
291
     0
 70
    58
 90
        2
176
     1
 90
        2
176
     1
 90
        1
176
     1
 90
        1
176
     1
 40
0.5
176
     1
 40
30.0
176
     1
 62
     7
420
 16777215
176
     1
 90
        1
176
     1
 90
        0
176
     1
 62
     7
176
     1
 62
   257
176
     1
 90
        1
176
     1
 90
        1
176
     1
 40
1.0
176
     1
 90
        8
176
     1
 62
     7
176
     1
 40
1.0
176
     1
 90
        1
176
     1
 90
        6
176
     1
 90
        2
176
     1
 62
     7
176
     1
 90
        3
176
     1
 90
        0
176
     1
 90
        0
176
     1
290
     0
176
     1
 90
       13
176
     1
 40
0.0
176
     1
 90
        0
176
     1
290
     0
176
     1
290
     1
176
     1
290
     1
176
     1
290
     0
176
     1
290
     0
176
     1
290
     0
176
     1
290
     0
176
     1
290
     0
176
     1
290
     0
176
     1
 90
       50
176
     1
 40
0.0
176
     1
 40
1.0
176
     1
 90
        0
176
     1
 62
    18
420
        0
176
     1
 90
       50
176
     1
 90
        3
176
     1
 62
     5
420
      255
176
     1
290
     0
176
     1
 90
       50
176
     1
 90
       50
176
     1
 90
       50
176
     1
290
     0
176
     1
 90
       50
176
     1
 62
   256
176
     0
 40
1.0
176
     0
 90
        2
176
     1
  1
strokes_ogs.tif
176
     1
290
     0
176
     1
 40
1.0
176
     1
 40
1.0
176
     1
1001
ACAD
1000
AcDbSavedByObjectVersion
1070
     0
  0
DICTIONARYVAR
  5
1F8
102
{ACAD_REACTORS
330
1F3
102
}
330
1F3
100
DictionaryVariables
280
     0
  1
1:1
  0
DICTIONARYVAR
  5
1F5
102
{ACAD_REACTORS
330
1F3
102
}
330
1F3
100
DictionaryVariables
280
     0
  1
STANDARD
  0
DICTIONARYVAR
  5
1F4
102
{ACAD_REACTORS
330
1F3
102
}
330
1F3
100
DictionaryVariables
280
     0
  1
STANDARD
  0
DICTIONARYVAR
  5
1F6
102
{ACAD_REACTORS
330
1F3
102
}
330
1F3
100
DictionaryVariables
280
     0
  1
Imperial24
  0
DICTIONARYVAR
  5
1F7
102
{ACAD_REACTORS
330
1F3
102
}
330
1F3
100
DictionaryVariables
280
     0
  1
Imperial24
  0
DICTIONARY
  5
1FE
330
6B
100
AcDbDictionary
280
     1
281
     1
  3
ACAD_XREC_ROUNDTRIP
360
1FF
  0
DICTIONARY
  5
1A
330
19
100
AcDbDictionary
280
     1
281
     1
  3
BUMPTILE
360
1C
  3
DIFFUSETILE
360
1B
  3
OPACITYTILE
360
1F
  3
REFLECTIONTILE
360
1E
  3
REFRACTIONTILE
360
20
  3
SPECULARTILE
360
1D
  0
DICTIONARY
  5
12
330
11
100
AcDbDictionary
280
     1
281
     1
  3
BUMPTILE
360
14
  3
DIFFUSETILE
360
13
  3
OPACITYTILE
360
17
  3
REFLECTIONTILE
360
16
  3
REFRACTIONTILE
360
18
  3
SPECULARTILE
360
15
  0
DICTIONARY
  5
22
330
21
100
AcDbDictionary
280
     1
281
     1
  3
BUMPTILE
360
24
  3
DIFFUSETILE
360
23
  3
OPACITYTILE
360
27
  3
REFLECTIONTILE
360
26
  3
REFRACTIONTILE
360
28
  3
SPECULARTILE
360
25
  0
DICTIONARY
  5
1FC
330
69
100
AcDbDictionary
280
     1
281
     1
  3
ACAD_XREC_ROUNDTRIP
360
1FD
  0
DICTIONARY
  5
1F9
330
65
100
AcDbDictionary
280
     1
281
     1
  3
ACAD_ROUNDTRIP_2008_TABLESTYLE_CELLSTYLEMAP
360
1FA
  0
XRECORD
  5
1FF
102
{ACAD_REACTORS
330
1FE
102
}
330
1FE
100
AcDbXrecord
280
     1
102
DISPLAYNAME
  1
Imperial24
102
FLAGS
 90
        0
  0
XRECORD
  5
1C
102
{ACAD_REACTORS
330
1A
102
}
330
1A
100
AcDbXrecord
280
     1
270
     1
271
     1
  0
XRECORD
  5
1B
102
{ACAD_REACTORS
330
1A
102
}
330
1A
100
AcDbXrecord
280
     1
270
     1
271
     1
  0
XRECORD
  5
1F
102
{ACAD_REACTORS
330
1A
102
}
330
1A
100
AcDbXrecord
280
     1
270
     1
271
     1
  0
XRECORD
  5
1E
102
{ACAD_REACTORS
330
1A
102
}
330
1A
100
AcDbXrecord
280
     1
270
     1
271
     1
  0
XRECORD
  5
20
102
{ACAD_REACTORS
330
1A
102
}
330
1A
100
AcDbXrecord
280
     1
270
     1
271
     1
  0
XRECORD
  5
1D
102
{ACAD_REACTORS
330
1A
102
}
330
1A
100
AcDbXrecord
280
     1
270
     1
271
     1
  0
XRECORD
  5
14
102
{ACAD_REACTORS
330
12
102
}
330
12
100
AcDbXrecord
280
     1
270
     1
271
     1
  0
XRECORD
  5
13
102
{ACAD_REACTORS
330
12
102
}
330
12
100
AcDbXrecord
280
     1
270
     1
271
     1
  0
XRECORD
  5
17
102
{ACAD_REACTORS
330
12
102
}
330
12
100
AcDbXrecord
280
     1
270
     1
271
     1
  0
XRECORD
  5
16
102
{ACAD_REACTORS
330
12
102
}
330
12
100
AcDbXrecord
280
     1
270
     1
271
     1
  0
XRECORD
  5
18
102
{ACAD_REACTORS
330
12
102
}
330
12
100
AcDbXrecord
280
     1
270
     1
271
     1
  0
XRECORD
  5
15
102
{ACAD_REACTORS
330
12
102
}
330
12
100
AcDbXrecord
280
     1
270
     1
271
     1
  0
XRECORD
  5
24
102
{ACAD_REACTORS
330
22
102
}
330
22
100
AcDbXrecord
280
     1
270
     1
271
     1
  0
XRECORD
  5
23
102
{ACAD_REACTORS
330
22
102
}
330
22
100
AcDbXrecord
280
     1
270
     1
271
     1
  0
XRECORD
  5
27
102
{ACAD_REACTORS
330
22
102
}
330
22
100
AcDbXrecord
280
     1
270
     1
271
     1
  0
XRECORD
  5
26
102
{ACAD_REACTORS
330
22
102
}
330
22
100
AcDbXrecord
280
     1
270
     1
271
     1
  0
XRECORD
  5
28
102
{ACAD_REACTORS
330
22
102
}
330
22
100
AcDbXrecord
280
     1
270
     1
271
     1
  0
XRECORD
  5
25
102
{ACAD_REACTORS
330
22
102
}
330
22
100
AcDbXrecord
280
     1
270
     1
271
     1
  0
XRECORD
  5
1FD
102
{ACAD_REACTORS
330
1FC
102
}
330
1FC
100
AcDbXrecord
280
     1
102
DISPLAYNAME
  1
Imperial24
102
FLAGS
 90
        0
  0
CELLSTYLEMAP
  5
1FA
102
{ACAD_REACTORS
330
1F9
102
}
330
1F9
100
AcDbCellStyleMap
 90
        3
300
CELLSTYLE
  1
TABLEFORMAT_BEGIN
 90
        5
170
     1
 91
        0
 92
    32768
 62
   257
 93
        1
300
CONTENTFORMAT
  1
CONTENTFORMAT_BEGIN
 90
        0
 91
        0
 92
      512
 93
        0
300

 40
0.0
140
1.0
 94
        5
 62
     0
340
55
144
0.25
309
CONTENTFORMAT_END
171
     0
 94
        0
309
TABLEFORMAT_END
  1
CELLSTYLE_BEGIN
 90
        1
 91
        1
300
_TITLE
309
CELLSTYLE_END
300
CELLSTYLE
  1
TABLEFORMAT_BEGIN
 90
        5
170
     1
 91
        0
 92
        0
 62
   257
 93
        1
300
CONTENTFORMAT
  1
CONTENTFORMAT_BEGIN
 90
        0
 91
        0
 92
      512
 93
        0
300

 40
0.0
140
1.0
 94
        5
 62
     0
340
55
144
0.18
309
CONTENTFORMAT_END
171
     0
 94
        0
309
TABLEFORMAT_END
  1
CELLSTYLE_BEGIN
 90
        2
 91
        1
300
_HEADER
309
CELLSTYLE_END
300
CELLSTYLE
  1
TABLEFORMAT_BEGIN
 90
        5
170
     1
 91
        0
 92
        0
 62
   257
 93
        1
300
CONTENTFORMAT
  1
CONTENTFORMAT_BEGIN
 90
        0
 91
        0
 92
      512
 93
        0
300

 40
0.0
140
1.0
 94
        2
 62
     0
340
55
144
0.18
309
CONTENTFORMAT_END
171
     0
 94
        0
309
TABLEFORMAT_END
  1
CELLSTYLE_BEGIN
 90
        3
 91
        2
300
_DATA
309
CELLSTYLE_END
  0
ENDSEC
  0
EOF
