  0
SECTION
  2
HEADER
  9
$ACADVER
  1
AC1014
  9
$HANDSEED
  5
FFFF
  9
$MEASUREMENT
 70
     1
  0
ENDSEC
  0
SECTION
  2
TABLES
  0
TABLE
  2
VPORT
  5
8
330
0
100
AcDbSymbolTable
 70
     4
  0
VPORT
  5
2E
330
8
100
AcDbSymbolTableRecord
100
AcDbViewportTableRecord
  2
*ACTIVE
 70
     0
 10
0.0
 20
0.0
 11
1.0
 21
1.0
 12
210.0
 22
148.5
 13
0.0
 23
0.0
 14
10.0
 24
10.0
 15
10.0
 25
10.0
 16
0.0
 26
0.0
 36
1.0
 17
0.0
 27
0.0
 37
0.0
 40
341.0
 41
1.24
 42
50.0
 43
0.0
 44
0.0
 50
0.0
 51
0.0
 71
     0
 72
   100
 73
     1
 74
     3
 75
     0
 76
     0
 77
     0
 78
     0
  0
ENDTAB
  0
TABLE
  2
LTYPE
  5
5
330
0
100
AcDbSymbolTable
 70
     1
  0
LTYPE
  5
14
330
5
100
AcDbSymbolTableRecord
100
AcDbLinetypeTableRecord
  2
BYBLOCK
 70
     0
  3

 72
    65
 73
     0
 40
0.0
  0
LTYPE
  5
15
330
5
100
AcDbSymbolTableRecord
100
AcDbLinetypeTableRecord
  2
BYLAYER
 70
     0
  3

 72
    65
 73
     0
 40
0.0
  0
LTYPE
  5
16
330
5
100
AcDbSymbolTableRecord
100
AcDbLinetypeTableRecord
  2
CONTINUOUS
 70
     0
  3
Solid line
 72
    65
 73
     0
 40
0.0
  0
ENDTAB
  0
TABLE
  2
LAYER
  5
2
100
AcDbSymbolTable
 70
2
  0
LAYER
  5
50
100
AcDbSymbolTableRecord
100
AcDbLayerTableRecord
  2
0
 70
0
  6
CONTINUOUS
  0
LAYER
  5
51
100
AcDbSymbolTableRecord
100
AcDbLayerTableRecord
  2
Layer_1
 70
0
  6
CONTINUOUS
  0
ENDTAB
  0
TABLE
  2
STYLE
  5
3
330
0
100
AcDbSymbolTable
 70
     1
  0
STYLE
  5
11
330
3
100
AcDbSymbolTableRecord
100
AcDbTextStyleTableRecord
  2
STANDARD
 70
     0
 40
0.0
 41
1.0
 50
0.0
 71
     0
 42
2.5
  3
txt
  4

  0
ENDTAB
  0
TABLE
  2
VIEW
  5
6
330
0
100
AcDbSymbolTable
 70
     0
  0
ENDTAB
  0
TABLE
  2
UCS
  5
7
330
0
100
AcDbSymbolTable
 70
     0
  0
ENDTAB
  0
TABLE
  2
APPID
  5
9
330
0
100
AcDbSymbolTable
 70
     2
  0
APPID
  5
12
330
9
100
AcDbSymbolTableRecord
100
AcDbRegAppTableRecord
  2
ACAD
 70
     0
  0
ENDTAB
  0
TABLE
  2
DIMSTYLE
  5
A
330
0
100
AcDbSymbolTable
 70
     1
  0
DIMSTYLE
105
27
330
A
100
AcDbSymbolTableRecord
100
AcDbDimStyleTableRecord
  2
ISO-25
 70
     0
  3

  4

  5

  6

  7

 40
1.0
 41
2.5
 42
0.625
 43
3.75
 44
1.25
 45
0.0
 46
0.0
 47
0.0
 48
0.0
140
2.5
141
2.5
142
0.0
143
0.03937007874016
144
1.0
145
0.0
146
1.0
147
0.625
 71
     0
 72
     0
 73
     0
 74
     0
 75
     0
 76
     0
 77
     1
 78
     8
170
     0
171
     3
172
     1
173
     0
174
     0
175
     0
176
     0
177
     0
178
     0
270
     2
271
     2
272
     2
273
     2
274
     3
340
11
275
     0
280
     0
281
     0
282
     0
283
     0
284
     8
285
     0
286
     0
287
     3
288
     0
  0
ENDTAB
  0
TABLE
  2
BLOCK_RECORD
  5
1
330
0
100
AcDbSymbolTable
 70
     1
  0
BLOCK_RECORD
  5
1F
330
1
100
AcDbSymbolTableRecord
100
AcDbBlockTableRecord
  2
*MODEL_SPACE
  0
BLOCK_RECORD
  5
1B
330
1
100
AcDbSymbolTableRecord
100
AcDbBlockTableRecord
  2
*PAPER_SPACE
  0
ENDTAB
  0
ENDSEC
  0
SECTION
  2
BLOCKS
  0
BLOCK
  5
20
330
1F
100
AcDbEntity
  8
0
100
AcDbBlockBegin
  2
*MODEL_SPACE
 70
     0
 10
0.0
 20
0.0
 30
0.0
  3
*MODEL_SPACE
  1

  0
ENDBLK
  5
21
330
1F
100
AcDbEntity
  8
0
100
AcDbBlockEnd
  0
BLOCK
  5
1C
330
1B
100
AcDbEntity
 67
     1
  8
0
100
AcDbBlockBegin
  2
*PAPER_SPACE
  1

  0
ENDBLK
  5
1D
330
1B
100
AcDbEntity
 67
     1
  8
0
100
AcDbBlockEnd
  0
ENDSEC
  0
SECTION
  2
ENTITIES
  0
SPLINE
  5
100
100
AcDbEntity
  8
Layer_1
 62
1
100
AcDbSpline
 70
8
 71
3
 72
8
 73
4
 74
0
 40
0
 40
0
 40
0
 40
0
 40
1
 40
1
 40
1
 40
1
 10
-461.001260
 20
203.449980
 30
0.0
 10
-460.918549
 20
203.060847
 30
0.0
 10
-460.684643
 20
202.720509
 30
0.0
 10
-460.350999
 20
202.503837
 30
0.0
  0
SPLINE
  5
101
100
AcDbEntity
  8
Layer_1
 62
1
100
AcDbSpline
 70
8
 71
3
 72
8
 73
4
 74
0
 40
0
 40
0
 40
0
 40
0
 40
1
 40
1
 40
1
 40
1
 10
-460.350999
 20
202.503837
 30
0.0
 10
-460.017354
 20
202.287165
 30
0.0
 10
-459.611302
 20
202.211907
 30
0.0
 10
-459.222170
 20
202.294620
 30
0.0
  0
SPLINE
  5
102
100
AcDbEntity
  8
Layer_1
 62
1
100
AcDbSpline
 70
8
 71
3
 72
8
 73
4
 74
0
 40
0
 40
0
 40
0
 40
0
 40
1
 40
1
 40
1
 40
1
 10
-408.909020
 20
212.989030
 30
0.0
 10
-408.734948
 20
212.180697
 30
0.0
 10
-407.939565
 20
211.665676
 30
0.0
 10
-407.130770
 20
211.837590
 30
0.0
  0
LWPOLYLINE
  5
103
100
AcDbEntity
  8
Layer_1
 62
1
100
AcDbPolyline
 90
2
 70
0
 10
-459.222170
 20
202.294620
 30
0.0
 10
-408.909020
 20
212.989030
 30
0.0
  0
SPLINE
  5
104
100
AcDbEntity
  8
Layer_1
 62
1
100
AcDbSpline
 70
8
 71
3
 72
8
 73
4
 74
0
 40
0
 40
0
 40
0
 40
0
 40
1
 40
1
 40
1
 40
1
 10
-381.131600
 20
217.363890
 30
0.0
 10
-380.321282
 20
217.536132
 30
0.0
 10
-379.804016
 20
218.332650
 30
0.0
 10
-379.976250
 20
219.142970
 30
0.0
  0
LWPOLYLINE
  5
105
100
AcDbEntity
  8
Layer_1
 62
1
100
AcDbPolyline
 90
2
 70
0
 10
-407.130770
 20
211.837590
 30
0.0
 10
-381.131600
 20
217.363890
 30
0.0
  0
SPLINE
  5
106
100
AcDbEntity
  8
Layer_1
 62
1
100
AcDbSpline
 70
8
 71
3
 72
8
 73
4
 74
0
 40
0
 40
0
 40
0
 40
0
 40
1
 40
1
 40
1
 40
1
 10
-332.330940
 20
218.333560
 30
0.0
 10
-332.330940
 20
217.935735
 30
0.0
 10
-332.172905
 20
217.554204
 30
0.0
 10
-331.891600
 20
217.272900
 30
0.0
  0
SPLINE
  5
107
100
AcDbEntity
  8
Layer_1
 62
1
100
AcDbSpline
 70
8
 71
3
 72
8
 73
4
 74
0
 40
0
 40
0
 40
0
 40
0
 40
1
 40
1
 40
1
 40
1
 10
-331.891600
 20
217.272900
 30
0.0
 10
-331.610296
 20
216.991595
 30
0.0
 10
-331.228765
 20
216.833560
 30
0.0
 10
-330.830940
 20
216.833560
 30
0.0
  0
LWPOLYLINE
  5
108
100
AcDbEntity
  8
Layer_1
 62
1
100
AcDbPolyline
 90
2
 70
0
 10
-332.330940
 20
235.931550
 30
0.0
 10
-332.330940
 20
218.333560
 30
0.0
  0
SPLINE
  5
109
100
AcDbEntity
  8
Layer_1
 62
1
100
AcDbSpline
 70
8
 71
3
 72
8
 73
4
 74
0
 40
0
 40
0
 40
0
 40
0
 40
1
 40
1
 40
1
 40
1
 10
-304.230930
 20
216.833560
 30
0.0
 10
-303.833105
 20
216.833560
 30
0.0
 10
-303.451574
 20
216.991595
 30
0.0
 10
-303.170270
 20
217.272900
 30
0.0
  0
SPLINE
  5
10a
100
AcDbEntity
  8
Layer_1
 62
1
100
AcDbSpline
 70
8
 71
3
 72
8
 73
4
 74
0
 40
0
 40
0
 40
0
 40
0
 40
1
 40
1
 40
1
 40
1
 10
-303.170270
 20
217.272900
 30
0.0
 10
-302.888965
 20
217.554204
 30
0.0
 10
-302.730930
 20
217.935735
 30
0.0
 10
-302.730930
 20
218.333560
 30
0.0
  0
LWPOLYLINE
  5
10b
100
AcDbEntity
  8
Layer_1
 62
1
100
AcDbPolyline
 90
3
 70
0
 10
-379.976250
 20
219.142970
 30
0.0
 10
-383.544770
 20
235.931550
 30
0.0
 10
-332.330940
 20
235.931550
 30
0.0
  0
SPLINE
  5
10c
100
AcDbEntity
  8
Layer_1
 62
1
100
AcDbSpline
 70
8
 71
3
 72
8
 73
4
 74
0
 40
0
 40
0
 40
0
 40
0
 40
1
 40
1
 40
1
 40
1
 10
-300.557800
 20
235.931550
 30
0.0
 10
-300.159975
 20
235.931550
 30
0.0
 10
-299.778444
 20
236.089585
 30
0.0
 10
-299.497140
 20
236.370890
 30
0.0
  0
SPLINE
  5
10d
100
AcDbEntity
  8
Layer_1
 62
1
100
AcDbSpline
 70
8
 71
3
 72
8
 73
4
 74
0
 40
0
 40
0
 40
0
 40
0
 40
1
 40
1
 40
1
 40
1
 10
-299.497140
 20
236.370890
 30
0.0
 10
-299.215835
 20
236.652194
 30
0.0
 10
-299.057800
 20
237.033725
 30
0.0
 10
-299.057800
 20
237.431550
 30
0.0
  0
LWPOLYLINE
  5
10e
100
AcDbEntity
  8
Layer_1
 62
1
100
AcDbPolyline
 90
2
 70
0
 10
-330.830940
 20
216.833560
 30
0.0
 10
-304.230930
 20
216.833560
 30
0.0
  0
SPLINE
  5
10f
100
AcDbEntity
  8
Layer_1
 62
1
100
AcDbSpline
 70
8
 71
3
 72
8
 73
4
 74
0
 40
0
 40
0
 40
0
 40
0
 40
1
 40
1
 40
1
 40
1
 10
-299.057800
 20
254.491540
 30
0.0
 10
-299.057800
 20
254.889365
 30
0.0
 10
-299.215835
 20
255.270896
 30
0.0
 10
-299.497140
 20
255.552200
 30
0.0
  0
SPLINE
  5
110
100
AcDbEntity
  8
Layer_1
 62
1
100
AcDbSpline
 70
8
 71
3
 72
8
 73
4
 74
0
 40
0
 40
0
 40
0
 40
0
 40
1
 40
1
 40
1
 40
1
 10
-299.497140
 20
255.552200
 30
0.0
 10
-299.778444
 20
255.833505
 30
0.0
 10
-300.159975
 20
255.991540
 30
0.0
 10
-300.557800
 20
255.991540
 30
0.0
  0
LWPOLYLINE
  5
111
100
AcDbEntity
  8
Layer_1
 62
1
100
AcDbPolyline
 90
2
 70
0
 10
-299.057800
 20
237.431550
 30
0.0
 10
-299.057800
 20
254.491540
 30
0.0
  0
LWPOLYLINE
  5
112
100
AcDbEntity
  8
Layer_1
 62
1
100
AcDbPolyline
 90
3
 70
0
 10
-302.730930
 20
218.333560
 30
0.0
 10
-302.730930
 20
235.931550
 30
0.0
 10
-300.557800
 20
235.931550
 30
0.0
  0
SPLINE
  5
113
100
AcDbEntity
  8
Layer_1
 62
1
100
AcDbSpline
 70
8
 71
3
 72
8
 73
4
 74
0
 40
0
 40
0
 40
0
 40
0
 40
1
 40
1
 40
1
 40
1
 10
-303.236550
 20
273.541540
 30
0.0
 10
-303.236550
 20
273.939365
 30
0.0
 10
-303.394585
 20
274.320896
 30
0.0
 10
-303.675890
 20
274.602200
 30
0.0
  0
SPLINE
  5
114
100
AcDbEntity
  8
Layer_1
 62
1
100
AcDbSpline
 70
8
 71
3
 72
8
 73
4
 74
0
 40
0
 40
0
 40
0
 40
0
 40
1
 40
1
 40
1
 40
1
 10
-303.675890
 20
274.602200
 30
0.0
 10
-303.957194
 20
274.883505
 30
0.0
 10
-304.338725
 20
275.041540
 30
0.0
 10
-304.736550
 20
275.041540
 30
0.0
  0
LWPOLYLINE
  5
115
100
AcDbEntity
  8
Layer_1
 62
1
100
AcDbPolyline
 90
2
 70
0
 10
-303.236550
 20
255.991540
 30
0.0
 10
-303.236550
 20
273.541540
 30
0.0
  0
LWPOLYLINE
  5
116
100
AcDbEntity
  8
Layer_1
 62
1
100
AcDbPolyline
 90
2
 70
0
 10
-300.557800
 20
255.991540
 30
0.0
 10
-303.236550
 20
255.991540
 30
0.0
  0
SPLINE
  5
117
100
AcDbEntity
  8
Layer_1
 62
1
100
AcDbSpline
 70
8
 71
3
 72
8
 73
4
 74
0
 40
0
 40
0
 40
0
 40
0
 40
1
 40
1
 40
1
 40
1
 10
-307.496550
 20
292.591540
 30
0.0
 10
-307.496550
 20
293.419956
 30
0.0
 10
-308.168105
 20
294.091524
 30
0.0
 10
-308.996520
 20
294.091540
 30
0.0
  0
LWPOLYLINE
  5
118
100
AcDbEntity
  8
Layer_1
 62
1
100
AcDbPolyline
 90
2
 70
0
 10
-307.496550
 20
275.041540
 30
0.0
 10
-307.496550
 20
292.591540
 30
0.0
  0
LWPOLYLINE
  5
119
100
AcDbEntity
  8
Layer_1
 62
1
100
AcDbPolyline
 90
2
 70
0
 10
-304.736550
 20
275.041540
 30
0.0
 10
-307.496550
 20
275.041540
 30
0.0
  0
SPLINE
  5
11a
100
AcDbEntity
  8
Layer_1
 62
1
100
AcDbSpline
 70
8
 71
3
 72
8
 73
4
 74
0
 40
0
 40
0
 40
0
 40
0
 40
1
 40
1
 40
1
 40
1
 10
-311.666540
 20
311.641540
 30
0.0
 10
-311.666540
 20
312.039365
 30
0.0
 10
-311.824575
 20
312.420896
 30
0.0
 10
-312.105880
 20
312.702200
 30
0.0
  0
SPLINE
  5
11b
100
AcDbEntity
  8
Layer_1
 62
1
100
AcDbSpline
 70
8
 71
3
 72
8
 73
4
 74
0
 40
0
 40
0
 40
0
 40
0
 40
1
 40
1
 40
1
 40
1
 10
-312.105880
 20
312.702200
 30
0.0
 10
-312.387184
 20
312.983505
 30
0.0
 10
-312.768715
 20
313.141540
 30
0.0
 10
-313.166540
 20
313.141540
 30
0.0
  0
LWPOLYLINE
  5
11c
100
AcDbEntity
  8
Layer_1
 62
1
100
AcDbPolyline
 90
2
 70
0
 10
-311.666540
 20
294.091540
 30
0.0
 10
-311.666540
 20
311.641540
 30
0.0
  0
LWPOLYLINE
  5
11d
100
AcDbEntity
  8
Layer_1
 62
1
100
AcDbPolyline
 90
2
 70
0
 10
-308.996520
 20
294.091540
 30
0.0
 10
-311.666540
 20
294.091540
 30
0.0
  0
SPLINE
  5
11e
100
AcDbEntity
  8
Layer_1
 62
1
100
AcDbSpline
 70
8
 71
3
 72
8
 73
4
 74
0
 40
0
 40
0
 40
0
 40
0
 40
1
 40
1
 40
1
 40
1
 10
-368.396540
 20
313.781540
 30
0.0
 10
-368.396537
 20
314.179366
 30
0.0
 10
-368.554571
 20
314.560900
 30
0.0
 10
-368.835876
 20
314.842207
 30
0.0
  0
SPLINE
  5
11f
100
AcDbEntity
  8
Layer_1
 62
1
100
AcDbSpline
 70
8
 71
3
 72
8
 73
4
 74
0
 40
0
 40
0
 40
0
 40
0
 40
1
 40
1
 40
1
 40
1
 10
-368.835876
 20
314.842207
 30
0.0
 10
-369.117181
 20
315.123513
 30
0.0
 10
-369.498714
 20
315.281550
 30
0.0
 10
-369.896540
 20
315.281550
 30
0.0
  0
LWPOLYLINE
  5
120
100
AcDbEntity
  8
Layer_1
 62
1
100
AcDbPolyline
 90
2
 70
0
 10
-368.396540
 20
313.141540
 30
0.0
 10
-368.396540
 20
313.781540
 30
0.0
  0
SPLINE
  5
121
100
AcDbEntity
  8
Layer_1
 62
1
100
AcDbSpline
 70
8
 71
3
 72
8
 73
4
 74
0
 40
0
 40
0
 40
0
 40
0
 40
1
 40
1
 40
1
 40
1
 10
-388.426510
 20
315.281550
 30
0.0
 10
-388.446508
 20
315.281950
 30
0.0
 10
-388.466512
 20
315.281950
 30
0.0
 10
-388.486510
 20
315.281550
 30
0.0
  0
LWPOLYLINE
  5
122
100
AcDbEntity
  8
Layer_1
 62
1
100
AcDbPolyline
 90
2
 70
0
 10
-313.166540
 20
313.141540
 30
0.0
 10
-368.396540
 20
313.141540
 30
0.0
  0
SPLINE
  5
123
100
AcDbEntity
  8
Layer_1
 62
1
100
AcDbSpline
 70
8
 71
3
 72
8
 73
4
 74
0
 40
0
 40
0
 40
0
 40
0
 40
1
 40
1
 40
1
 40
1
 10
-391.074600
 20
315.177880
 30
0.0
 10
-391.159289
 20
315.174481
 30
0.0
 10
-391.243537
 20
315.163909
 30
0.0
 10
-391.326440
 20
315.146280
 30
0.0
  0
LWPOLYLINE
  5
124
100
AcDbEntity
  8
Layer_1
 62
1
100
AcDbPolyline
 90
2
 70
0
 10
-388.486510
 20
315.281550
 30
0.0
 10
-391.074600
 20
315.177880
 30
0.0
  0
SPLINE
  5
125
100
AcDbEntity
  8
Layer_1
 62
1
100
AcDbSpline
 70
8
 71
3
 72
8
 73
4
 74
0
 40
0
 40
0
 40
0
 40
0
 40
1
 40
1
 40
1
 40
1
 10
-465.265460
 20
299.430060
 30
0.0
 10
-466.075783
 20
299.257819
 30
0.0
 10
-466.593051
 20
298.461293
 30
0.0
 10
-466.420810
 20
297.650970
 30
0.0
  0
LWPOLYLINE
  5
126
100
AcDbEntity
  8
Layer_1
 62
1
100
AcDbPolyline
 90
2
 70
0
 10
-369.896540
 20
315.281550
 30
0.0
 10
-388.426510
 20
315.281550
 30
0.0
  0
SPLINE
  5
127
100
AcDbEntity
  8
Layer_1
 62
1
100
AcDbSpline
 70
8
 71
3
 72
8
 73
4
 74
0
 40
0
 40
0
 40
0
 40
0
 40
1
 40
1
 40
1
 40
1
 10
-470.615460
 20
278.810070
 30
0.0
 10
-471.425778
 20
278.637828
 30
0.0
 10
-471.943044
 20
277.841310
 30
0.0
 10
-471.770810
 20
277.030990
 30
0.0
  0
LWPOLYLINE
  5
128
100
AcDbEntity
  8
Layer_1
 62
1
100
AcDbPolyline
 90
2
 70
0
 10
-391.326440
 20
315.146280
 30
0.0
 10
-465.265460
 20
299.430060
 30
0.0
  0
SPLINE
  5
129
100
AcDbEntity
  8
Layer_1
 62
1
100
AcDbSpline
 70
8
 71
3
 72
8
 73
4
 74
0
 40
0
 40
0
 40
0
 40
0
 40
1
 40
1
 40
1
 40
1
 10
-468.223840
 20
260.343770
 30
0.0
 10
-468.051599
 20
259.533447
 30
0.0
 10
-467.255073
 20
259.016179
 30
0.0
 10
-466.444750
 20
259.188420
 30
0.0
  0
LWPOLYLINE
  5
12a
100
AcDbEntity
  8
Layer_1
 62
1
100
AcDbPolyline
 90
2
 70
0
 10
-471.770810
 20
277.030990
 30
0.0
 10
-468.223840
 20
260.343770
 30
0.0
  0
LWPOLYLINE
  5
12b
100
AcDbEntity
  8
Layer_1
 62
1
100
AcDbPolyline
 90
3
 70
0
 10
-466.420810
 20
297.650970
 30
0.0
 10
-462.770490
 20
280.477560
 30
0.0
 10
-470.615460
 20
278.810070
 30
0.0
  0
SPLINE
  5
12c
100
AcDbEntity
  8
Layer_1
 62
1
100
AcDbSpline
 70
8
 71
3
 72
8
 73
4
 74
0
 40
0
 40
0
 40
0
 40
0
 40
1
 40
1
 40
1
 40
1
 10
-467.355070
 20
240.558230
 30
0.0
 10
-468.165388
 20
240.385988
 30
0.0
 10
-468.682654
 20
239.589470
 30
0.0
 10
-468.510420
 20
238.779150
 30
0.0
  0
LWPOLYLINE
  5
12d
100
AcDbEntity
  8
Layer_1
 62
1
100
AcDbPolyline
 90
2
 70
0
 10
-459.502570
 20
242.227330
 30
0.0
 10
-467.355070
 20
240.558230
 30
0.0
  0
SPLINE
  5
12e
100
AcDbEntity
  8
Layer_1
 62
1
100
AcDbSpline
 70
8
 71
3
 72
8
 73
4
 74
0
 40
0
 40
0
 40
0
 40
0
 40
1
 40
1
 40
1
 40
1
 10
-291.587790
 20
204.411550
 30
0.0
 10
-288.826374
 20
204.411556
 30
0.0
 10
-286.587806
 20
206.650124
 30
0.0
 10
-286.587800
 20
209.411540
 30
0.0
  0
LWPOLYLINE
  5
12f
100
AcDbEntity
  8
Layer_1
 62
1
100
AcDbPolyline
 90
3
 70
0
 10
-466.444750
 20
259.188420
 30
0.0
 10
-463.252010
 20
259.867070
 30
0.0
 10
-459.502570
 20
242.227330
 30
0.0
  0
SPLINE
  5
130
100
AcDbEntity
  8
Layer_1
 62
1
100
AcDbSpline
 70
8
 71
3
 72
8
 73
4
 74
0
 40
0
 40
0
 40
0
 40
0
 40
1
 40
1
 40
1
 40
1
 10
-286.587800
 20
322.751550
 30
0.0
 10
-286.587806
 20
325.512966
 30
0.0
 10
-288.826374
 20
327.751534
 30
0.0
 10
-291.587790
 20
327.751540
 30
0.0
  0
LWPOLYLINE
  5
131
100
AcDbEntity
  8
Layer_1
 62
1
100
AcDbPolyline
 90
2
 70
0
 10
-286.587800
 20
209.411540
 30
0.0
 10
-286.587800
 20
322.751550
 30
0.0
  0
SPLINE
  5
132
100
AcDbEntity
  8
Layer_1
 62
1
100
AcDbSpline
 70
8
 71
3
 72
8
 73
4
 74
0
 40
0
 40
0
 40
0
 40
0
 40
1
 40
1
 40
1
 40
1
 10
-645.826530
 20
327.751540
 30
0.0
 10
-648.587950
 20
327.751540
 30
0.0
 10
-650.826524
 20
325.512970
 30
0.0
 10
-650.826530
 20
322.751550
 30
0.0
  0
LWPOLYLINE
  5
133
100
AcDbEntity
  8
Layer_1
 62
1
100
AcDbPolyline
 90
2
 70
0
 10
-468.510420
 20
238.779150
 30
0.0
 10
-461.001260
 20
203.449980
 30
0.0
  0
SPLINE
  5
134
100
AcDbEntity
  8
Layer_1
 62
1
100
AcDbSpline
 70
8
 71
3
 72
8
 73
4
 74
0
 40
0
 40
0
 40
0
 40
0
 40
1
 40
1
 40
1
 40
1
 10
-650.826530
 20
209.411540
 30
0.0
 10
-650.826524
 20
206.650120
 30
0.0
 10
-648.587950
 20
204.411550
 30
0.0
 10
-645.826530
 20
204.411550
 30
0.0
  0
LWPOLYLINE
  5
135
100
AcDbEntity
  8
Layer_1
 62
1
100
AcDbPolyline
 90
2
 70
0
 10
-650.826530
 20
322.751550
 30
0.0
 10
-650.826530
 20
209.411540
 30
0.0
  0
LWPOLYLINE
  5
136
100
AcDbEntity
  8
Layer_1
 62
1
100
AcDbPolyline
 90
2
 70
0
 10
-291.587790
 20
327.751540
 30
0.0
 10
-645.826530
 20
327.751540
 30
0.0
  0
SPLINE
  5
137
100
AcDbEntity
  8
Layer_1
 62
1
100
AcDbSpline
 70
8
 71
3
 72
8
 73
4
 74
0
 40
0
 40
0
 40
0
 40
0
 40
1
 40
1
 40
1
 40
1
 10
-477.273000
 20
185.753350
 30
0.0
 10
-471.789937
 20
184.587889
 30
0.0
 10
-466.123133
 20
184.587889
 30
0.0
 10
-460.640070
 20
185.753350
 30
0.0
  0
LWPOLYLINE
  5
138
100
AcDbEntity
  8
Layer_1
 62
1
100
AcDbPolyline
 90
2
 70
0
 10
-565.052950
 20
204.411550
 30
0.0
 10
-477.273000
 20
185.753350
 30
0.0
  0
LWPOLYLINE
  5
139
100
AcDbEntity
  8
Layer_1
 62
1
100
AcDbPolyline
 90
2
 70
0
 10
-645.826530
 20
204.411550
 30
0.0
 10
-565.052950
 20
204.411550
 30
0.0
  0
SPLINE
  5
13a
100
AcDbEntity
  8
Layer_1
 62
1
100
AcDbSpline
 70
8
 71
3
 72
8
 73
4
 74
0
 40
0
 40
0
 40
0
 40
0
 40
1
 40
1
 40
1
 40
1
 10
-540.012310
 20
211.837590
 30
0.0
 10
-539.201987
 20
211.665349
 30
0.0
 10
-538.405461
 20
212.182617
 30
0.0
 10
-538.233220
 20
212.992940
 30
0.0
  0
LWPOLYLINE
  5
13b
100
AcDbEntity
  8
Layer_1
 62
1
100
AcDbPolyline
 90
3
 70
0
 10
-460.640070
 20
185.753350
 30
0.0
 10
-372.860120
 20
204.411550
 30
0.0
 10
-291.587790
 20
204.411550
 30
0.0
  0
SPLINE
  5
13c
100
AcDbEntity
  8
Layer_1
 62
1
100
AcDbSpline
 70
8
 71
3
 72
8
 73
4
 74
0
 40
0
 40
0
 40
0
 40
0
 40
1
 40
1
 40
1
 40
1
 10
-478.818170
 20
200.367030
 30
0.0
 10
-478.007847
 20
200.194796
 30
0.0
 10
-477.211327
 20
200.712068
 30
0.0
 10
-477.039090
 20
201.522390
 30
0.0
  0
LWPOLYLINE
  5
13d
100
AcDbEntity
  8
Layer_1
 62
1
100
AcDbPolyline
 90
2
 70
0
 10
-566.011470
 20
217.363890
 30
0.0
 10
-540.012310
 20
211.837590
 30
0.0
  0
SPLINE
  5
13e
100
AcDbEntity
  8
Layer_1
 62
1
100
AcDbSpline
 70
8
 71
3
 72
8
 73
4
 74
0
 40
0
 40
0
 40
0
 40
0
 40
1
 40
1
 40
1
 40
1
 10
-473.492110
 20
218.209610
 30
0.0
 10
-473.319876
 20
219.019930
 30
0.0
 10
-473.837142
 20
219.816448
 30
0.0
 10
-474.647460
 20
219.988690
 30
0.0
  0
LWPOLYLINE
  5
13f
100
AcDbEntity
  8
Layer_1
 62
1
100
AcDbPolyline
 90
3
 70
0
 10
-538.233220
 20
212.992940
 30
0.0
 10
-538.232420
 20
212.995940
 30
0.0
 10
-478.818170
 20
200.367030
 30
0.0
  0
SPLINE
  5
140
100
AcDbEntity
  8
Layer_1
 62
1
100
AcDbSpline
 70
8
 71
3
 72
8
 73
4
 74
0
 40
0
 40
0
 40
0
 40
0
 40
1
 40
1
 40
1
 40
1
 10
-478.632110
 20
238.779580
 30
0.0
 10
-478.549397
 20
239.168712
 30
0.0
 10
-478.624655
 20
239.574764
 30
0.0
 10
-478.841327
 20
239.908409
 30
0.0
  0
SPLINE
  5
141
100
AcDbEntity
  8
Layer_1
 62
1
100
AcDbSpline
 70
8
 71
3
 72
8
 73
4
 74
0
 40
0
 40
0
 40
0
 40
0
 40
1
 40
1
 40
1
 40
1
 10
-478.841327
 20
239.908409
 30
0.0
 10
-479.057999
 20
240.242053
 30
0.0
 10
-479.398337
 20
240.475959
 30
0.0
 10
-479.787470
 20
240.558670
 30
0.0
  0
LWPOLYLINE
  5
142
100
AcDbEntity
  8
Layer_1
 62
1
100
AcDbPolyline
 90
2
 70
0
 10
-477.039090
 20
201.522390
 30
0.0
 10
-473.492110
 20
218.209610
 30
0.0
  0
SPLINE
  5
143
100
AcDbEntity
  8
Layer_1
 62
1
100
AcDbSpline
 70
8
 71
3
 72
8
 73
4
 74
0
 40
0
 40
0
 40
0
 40
0
 40
1
 40
1
 40
1
 40
1
 10
-483.982110
 20
259.389590
 30
0.0
 10
-483.899397
 20
259.778722
 30
0.0
 10
-483.974655
 20
260.184774
 30
0.0
 10
-484.191327
 20
260.518419
 30
0.0
  0
SPLINE
  5
144
100
AcDbEntity
  8
Layer_1
 62
1
100
AcDbSpline
 70
8
 71
3
 72
8
 73
4
 74
0
 40
0
 40
0
 40
0
 40
0
 40
1
 40
1
 40
1
 40
1
 10
-484.191327
 20
260.518419
 30
0.0
 10
-484.407999
 20
260.852063
 30
0.0
 10
-484.748337
 20
261.085969
 30
0.0
 10
-485.137470
 20
261.168680
 30
0.0
  0
LWPOLYLINE
  5
145
100
AcDbEntity
  8
Layer_1
 62
1
100
AcDbPolyline
 90
3
 70
0
 10
-474.647460
 20
219.988690
 30
0.0
 10
-482.281340
 20
221.611300
 30
0.0
 10
-478.632110
 20
238.779580
 30
0.0
  0
LWPOLYLINE
  5
146
100
AcDbEntity
  8
Layer_1
 62
1
100
AcDbPolyline
 90
3
 70
0
 10
-479.787470
 20
240.558670
 30
0.0
 10
-487.630400
 20
242.225760
 30
0.0
 10
-483.982110
 20
259.389590
 30
0.0
  0
SPLINE
  5
147
100
AcDbEntity
  8
Layer_1
 62
1
100
AcDbSpline
 70
8
 71
3
 72
8
 73
4
 74
0
 40
0
 40
0
 40
0
 40
0
 40
1
 40
1
 40
1
 40
1
 10
-476.728170
 20
277.827030
 30
0.0
 10
-476.339038
 20
277.744317
 30
0.0
 10
-475.932986
 20
277.819575
 30
0.0
 10
-475.599341
 20
278.036247
 30
0.0
  0
SPLINE
  5
148
100
AcDbEntity
  8
Layer_1
 62
1
100
AcDbSpline
 70
8
 71
3
 72
8
 73
4
 74
0
 40
0
 40
0
 40
0
 40
0
 40
1
 40
1
 40
1
 40
1
 10
-475.599341
 20
278.036247
 30
0.0
 10
-475.265697
 20
278.252919
 30
0.0
 10
-475.031791
 20
278.593257
 30
0.0
 10
-474.949080
 20
278.982390
 30
0.0
  0
LWPOLYLINE
  5
149
100
AcDbEntity
  8
Layer_1
 62
1
100
AcDbPolyline
 90
2
 70
0
 10
-484.578780
 20
279.495730
 30
0.0
 10
-476.728170
 20
277.827030
 30
0.0
  0
SPLINE
  5
14a
100
AcDbEntity
  8
Layer_1
 62
1
100
AcDbSpline
 70
8
 71
3
 72
8
 73
4
 74
0
 40
0
 40
0
 40
0
 40
0
 40
1
 40
1
 40
1
 40
1
 10
-471.402110
 20
295.669600
 30
0.0
 10
-471.229869
 20
296.479923
 30
0.0
 10
-471.747137
 20
297.276449
 30
0.0
 10
-472.557460
 20
297.448690
 30
0.0
  0
LWPOLYLINE
  5
14b
100
AcDbEntity
  8
Layer_1
 62
1
100
AcDbPolyline
 90
2
 70
0
 10
-474.949080
 20
278.982390
 30
0.0
 10
-471.402110
 20
295.669600
 30
0.0
  0
LWPOLYLINE
  5
14c
100
AcDbEntity
  8
Layer_1
 62
1
100
AcDbPolyline
 90
3
 70
0
 10
-485.137470
 20
261.168680
 30
0.0
 10
-488.330070
 20
261.847280
 30
0.0
 10
-484.578780
 20
279.495730
 30
0.0
  0
SPLINE
  5
14d
100
AcDbEntity
  8
Layer_1
 62
1
100
AcDbSpline
 70
8
 71
3
 72
8
 73
4
 74
0
 40
0
 40
0
 40
0
 40
0
 40
1
 40
1
 40
1
 40
1
 10
-549.356420
 20
313.780790
 30
0.0
 10
-549.356420
 20
314.178615
 30
0.0
 10
-549.514455
 20
314.560146
 30
0.0
 10
-549.795760
 20
314.841450
 30
0.0
  0
SPLINE
  5
14e
100
AcDbEntity
  8
Layer_1
 62
1
100
AcDbSpline
 70
8
 71
3
 72
8
 73
4
 74
0
 40
0
 40
0
 40
0
 40
0
 40
1
 40
1
 40
1
 40
1
 10
-549.795760
 20
314.841450
 30
0.0
 10
-550.077064
 20
315.122755
 30
0.0
 10
-550.458595
 20
315.280790
 30
0.0
 10
-550.856420
 20
315.280790
 30
0.0
  0
LWPOLYLINE
  5
14f
100
AcDbEntity
  8
Layer_1
 62
1
100
AcDbPolyline
 90
2
 70
0
 10
-549.356420
 20
313.772790
 30
0.0
 10
-549.356420
 20
313.780790
 30
0.0
  0
SPLINE
  5
150
100
AcDbEntity
  8
Layer_1
 62
1
100
AcDbSpline
 70
8
 71
3
 72
8
 73
4
 74
0
 40
0
 40
0
 40
0
 40
0
 40
1
 40
1
 40
1
 40
1
 10
-567.916530
 20
315.280790
 30
0.0
 10
-568.314355
 20
315.280790
 30
0.0
 10
-568.695886
 20
315.122755
 30
0.0
 10
-568.977190
 20
314.841450
 30
0.0
  0
SPLINE
  5
151
100
AcDbEntity
  8
Layer_1
 62
1
100
AcDbSpline
 70
8
 71
3
 72
8
 73
4
 74
0
 40
0
 40
0
 40
0
 40
0
 40
1
 40
1
 40
1
 40
1
 10
-568.977190
 20
314.841450
 30
0.0
 10
-569.258495
 20
314.560146
 30
0.0
 10
-569.416530
 20
314.178615
 30
0.0
 10
-569.416530
 20
313.780790
 30
0.0
  0
LWPOLYLINE
  5
152
100
AcDbEntity
  8
Layer_1
 62
1
100
AcDbPolyline
 90
2
 70
0
 10
-472.557460
 20
297.448690
 30
0.0
 10
-549.356420
 20
313.772790
 30
0.0
  0
SPLINE
  5
153
100
AcDbEntity
  8
Layer_1
 62
1
100
AcDbSpline
 70
8
 71
3
 72
8
 73
4
 74
0
 40
0
 40
0
 40
0
 40
0
 40
1
 40
1
 40
1
 40
1
 10
-605.606530
 20
313.140790
 30
0.0
 10
-606.004355
 20
313.140790
 30
0.0
 10
-606.385886
 20
312.982755
 30
0.0
 10
-606.667190
 20
312.701450
 30
0.0
  0
SPLINE
  5
154
100
AcDbEntity
  8
Layer_1
 62
1
100
AcDbSpline
 70
8
 71
3
 72
8
 73
4
 74
0
 40
0
 40
0
 40
0
 40
0
 40
1
 40
1
 40
1
 40
1
 10
-606.667190
 20
312.701450
 30
0.0
 10
-606.948495
 20
312.420146
 30
0.0
 10
-607.106530
 20
312.038615
 30
0.0
 10
-607.106530
 20
311.640790
 30
0.0
  0
LWPOLYLINE
  5
155
100
AcDbEntity
  8
Layer_1
 62
1
100
AcDbPolyline
 90
2
 70
0
 10
-550.856420
 20
315.280790
 30
0.0
 10
-567.916530
 20
315.280790
 30
0.0
  0
SPLINE
  5
156
100
AcDbEntity
  8
Layer_1
 62
1
100
AcDbSpline
 70
8
 71
3
 72
8
 73
4
 74
0
 40
0
 40
0
 40
0
 40
0
 40
1
 40
1
 40
1
 40
1
 10
-609.766530
 20
294.090790
 30
0.0
 10
-610.164355
 20
294.090790
 30
0.0
 10
-610.545886
 20
293.932755
 30
0.0
 10
-610.827190
 20
293.651450
 30
0.0
  0
SPLINE
  5
157
100
AcDbEntity
  8
Layer_1
 62
1
100
AcDbSpline
 70
8
 71
3
 72
8
 73
4
 74
0
 40
0
 40
0
 40
0
 40
0
 40
1
 40
1
 40
1
 40
1
 10
-610.827190
 20
293.651450
 30
0.0
 10
-611.108495
 20
293.370146
 30
0.0
 10
-611.266530
 20
292.988615
 30
0.0
 10
-611.266530
 20
292.590790
 30
0.0
  0
LWPOLYLINE
  5
158
100
AcDbEntity
  8
Layer_1
 62
1
100
AcDbPolyline
 90
3
 70
0
 10
-569.416530
 20
313.780790
 30
0.0
 10
-569.416530
 20
313.140790
 30
0.0
 10
-605.606530
 20
313.140790
 30
0.0
  0
SPLINE
  5
159
100
AcDbEntity
  8
Layer_1
 62
1
100
AcDbSpline
 70
8
 71
3
 72
8
 73
4
 74
0
 40
0
 40
0
 40
0
 40
0
 40
1
 40
1
 40
1
 40
1
 10
-613.836530
 20
275.040790
 30
0.0
 10
-614.234355
 20
275.040790
 30
0.0
 10
-614.615886
 20
274.882755
 30
0.0
 10
-614.897190
 20
274.601450
 30
0.0
  0
SPLINE
  5
15a
100
AcDbEntity
  8
Layer_1
 62
1
100
AcDbSpline
 70
8
 71
3
 72
8
 73
4
 74
0
 40
0
 40
0
 40
0
 40
0
 40
1
 40
1
 40
1
 40
1
 10
-614.897190
 20
274.601450
 30
0.0
 10
-615.178495
 20
274.320146
 30
0.0
 10
-615.336530
 20
273.938615
 30
0.0
 10
-615.336530
 20
273.540790
 30
0.0
  0
LWPOLYLINE
  5
15b
100
AcDbEntity
  8
Layer_1
 62
1
100
AcDbPolyline
 90
3
 70
0
 10
-607.106530
 20
311.640790
 30
0.0
 10
-607.106530
 20
294.090790
 30
0.0
 10
-609.766530
 20
294.090790
 30
0.0
  0
SPLINE
  5
15c
100
AcDbEntity
  8
Layer_1
 62
1
100
AcDbSpline
 70
8
 71
3
 72
8
 73
4
 74
0
 40
0
 40
0
 40
0
 40
0
 40
1
 40
1
 40
1
 40
1
 10
-618.006530
 20
255.990790
 30
0.0
 10
-618.404355
 20
255.990790
 30
0.0
 10
-618.785886
 20
255.832755
 30
0.0
 10
-619.067190
 20
255.551450
 30
0.0
  0
SPLINE
  5
15d
100
AcDbEntity
  8
Layer_1
 62
1
100
AcDbSpline
 70
8
 71
3
 72
8
 73
4
 74
0
 40
0
 40
0
 40
0
 40
0
 40
1
 40
1
 40
1
 40
1
 10
-619.067190
 20
255.551450
 30
0.0
 10
-619.348495
 20
255.270146
 30
0.0
 10
-619.506530
 20
254.888615
 30
0.0
 10
-619.506530
 20
254.490790
 30
0.0
  0
LWPOLYLINE
  5
15e
100
AcDbEntity
  8
Layer_1
 62
1
100
AcDbPolyline
 90
3
 70
0
 10
-611.266530
 20
292.590790
 30
0.0
 10
-611.266530
 20
275.040790
 30
0.0
 10
-613.836530
 20
275.040790
 30
0.0
  0
SPLINE
  5
15f
100
AcDbEntity
  8
Layer_1
 62
1
100
AcDbSpline
 70
8
 71
3
 72
8
 73
4
 74
0
 40
0
 40
0
 40
0
 40
0
 40
1
 40
1
 40
1
 40
1
 10
-619.506530
 20
218.380800
 30
0.0
 10
-619.506530
 20
217.982975
 30
0.0
 10
-619.348495
 20
217.601444
 30
0.0
 10
-619.067190
 20
217.320140
 30
0.0
  0
SPLINE
  5
160
100
AcDbEntity
  8
Layer_1
 62
1
100
AcDbSpline
 70
8
 71
3
 72
8
 73
4
 74
0
 40
0
 40
0
 40
0
 40
0
 40
1
 40
1
 40
1
 40
1
 10
-619.067190
 20
217.320140
 30
0.0
 10
-618.785886
 20
217.038835
 30
0.0
 10
-618.404355
 20
216.880800
 30
0.0
 10
-618.006530
 20
216.880800
 30
0.0
  0
LWPOLYLINE
  5
161
100
AcDbEntity
  8
Layer_1
 62
1
100
AcDbPolyline
 90
2
 70
0
 10
-619.506530
 20
254.490790
 30
0.0
 10
-619.506530
 20
218.380800
 30
0.0
  0
SPLINE
  5
162
100
AcDbEntity
  8
Layer_1
 62
1
100
AcDbSpline
 70
8
 71
3
 72
8
 73
4
 74
0
 40
0
 40
0
 40
0
 40
0
 40
1
 40
1
 40
1
 40
1
 10
-591.406530
 20
216.880800
 30
0.0
 10
-591.008705
 20
216.880800
 30
0.0
 10
-590.627174
 20
217.038835
 30
0.0
 10
-590.345870
 20
217.320140
 30
0.0
  0
SPLINE
  5
163
100
AcDbEntity
  8
Layer_1
 62
1
100
AcDbSpline
 70
8
 71
3
 72
8
 73
4
 74
0
 40
0
 40
0
 40
0
 40
0
 40
1
 40
1
 40
1
 40
1
 10
-590.345870
 20
217.320140
 30
0.0
 10
-590.064565
 20
217.601444
 30
0.0
 10
-589.906530
 20
217.982975
 30
0.0
 10
-589.906530
 20
218.380800
 30
0.0
  0
LWPOLYLINE
  5
164
100
AcDbEntity
  8
Layer_1
 62
1
100
AcDbPolyline
 90
3
 70
0
 10
-615.336530
 20
273.540790
 30
0.0
 10
-615.336530
 20
255.990790
 30
0.0
 10
-618.006530
 20
255.990790
 30
0.0
  0
LWPOLYLINE
  5
165
100
AcDbEntity
  8
Layer_1
 62
1
100
AcDbPolyline
 90
2
 70
0
 10
-618.006530
 20
216.880800
 30
0.0
 10
-591.406530
 20
216.880800
 30
0.0
  0
SPLINE
  5
166
100
AcDbEntity
  8
Layer_1
 62
1
100
AcDbSpline
 70
8
 71
3
 72
8
 73
4
 74
0
 40
0
 40
0
 40
0
 40
0
 40
1
 40
1
 40
1
 40
1
 10
-567.166820
 20
219.142220
 30
0.0
 10
-567.339061
 20
218.331897
 30
0.0
 10
-566.821793
 20
217.535371
 30
0.0
 10
-566.011470
 20
217.363130
 30
0.0
  0
LWPOLYLINE
  5
167
100
AcDbEntity
  8
Layer_1
 62
1
100
AcDbPolyline
 90
2
 70
0
 10
-563.598300
 20
235.930790
 30
0.0
 10
-567.166820
 20
219.142220
 30
0.0
  0
SPLINE
  5
168
100
AcDbEntity
  8
Layer_1
 62
1
100
AcDbSpline
 70
8
 71
3
 72
8
 73
4
 74
0
 40
0
 40
0
 40
0
 40
0
 40
1
 40
1
 40
1
 40
1
 10
-611.566530
 20
295.221550
 30
0.0
 10
-611.168704
 20
295.221550
 30
0.0
 10
-610.787171
 20
295.379587
 30
0.0
 10
-610.505866
 20
295.660893
 30
0.0
  0
SPLINE
  5
169
100
AcDbEntity
  8
Layer_1
 62
1
100
AcDbSpline
 70
8
 71
3
 72
8
 73
4
 74
0
 40
0
 40
0
 40
0
 40
0
 40
1
 40
1
 40
1
 40
1
 10
-610.505866
 20
295.660893
 30
0.0
 10
-610.224561
 20
295.942200
 30
0.0
 10
-610.066527
 20
296.323734
 30
0.0
 10
-610.066530
 20
296.721560
 30
0.0
  0
LWPOLYLINE
  5
16a
100
AcDbEntity
  8
Layer_1
 62
1
100
AcDbPolyline
 90
3
 70
0
 10
-589.906530
 20
218.380800
 30
0.0
 10
-589.906530
 20
235.930790
 30
0.0
 10
-563.598300
 20
235.930790
 30
0.0
  0
SPLINE
  5
16b
100
AcDbEntity
  8
Layer_1
 62
1
100
AcDbSpline
 70
8
 71
3
 72
8
 73
4
 74
0
 40
0
 40
0
 40
0
 40
0
 40
1
 40
1
 40
1
 40
1
 10
-610.066530
 20
313.781540
 30
0.0
 10
-610.066527
 20
314.179366
 30
0.0
 10
-610.224561
 20
314.560900
 30
0.0
 10
-610.505866
 20
314.842207
 30
0.0
  0
SPLINE
  5
16c
100
AcDbEntity
  8
Layer_1
 62
1
100
AcDbSpline
 70
8
 71
3
 72
8
 73
4
 74
0
 40
0
 40
0
 40
0
 40
0
 40
1
 40
1
 40
1
 40
1
 10
-610.505866
 20
314.842207
 30
0.0
 10
-610.787171
 20
315.123513
 30
0.0
 10
-611.168704
 20
315.281550
 30
0.0
 10
-611.566530
 20
315.281550
 30
0.0
  0
LWPOLYLINE
  5
16d
100
AcDbEntity
  8
Layer_1
 62
1
100
AcDbPolyline
 90
2
 70
0
 10
-610.066530
 20
296.721560
 30
0.0
 10
-610.066530
 20
313.781540
 30
0.0
  0
SPLINE
  5
16e
100
AcDbEntity
  8
Layer_1
 62
1
100
AcDbSpline
 70
8
 71
3
 72
8
 73
4
 74
0
 40
0
 40
0
 40
0
 40
0
 40
1
 40
1
 40
1
 40
1
 10
-628.626530
 20
315.281550
 30
0.0
 10
-629.024356
 20
315.281550
 30
0.0
 10
-629.405889
 20
315.123513
 30
0.0
 10
-629.687194
 20
314.842207
 30
0.0
  0
SPLINE
  5
16f
100
AcDbEntity
  8
Layer_1
 62
1
100
AcDbSpline
 70
8
 71
3
 72
8
 73
4
 74
0
 40
0
 40
0
 40
0
 40
0
 40
1
 40
1
 40
1
 40
1
 10
-629.687194
 20
314.842207
 30
0.0
 10
-629.968499
 20
314.560900
 30
0.0
 10
-630.126533
 20
314.179366
 30
0.0
 10
-630.126530
 20
313.781540
 30
0.0
  0
LWPOLYLINE
  5
170
100
AcDbEntity
  8
Layer_1
 62
1
100
AcDbPolyline
 90
2
 70
0
 10
-566.011470
 20
217.363130
 30
0.0
 10
-566.011470
 20
217.363890
 30
0.0
  0
SPLINE
  5
171
100
AcDbEntity
  8
Layer_1
 62
1
100
AcDbSpline
 70
8
 71
3
 72
8
 73
4
 74
0
 40
0
 40
0
 40
0
 40
0
 40
1
 40
1
 40
1
 40
1
 10
-632.786530
 20
296.231550
 30
0.0
 10
-633.184356
 20
296.231550
 30
0.0
 10
-633.565889
 20
296.073514
 30
0.0
 10
-633.847194
 20
295.792207
 30
0.0
  0
SPLINE
  5
172
100
AcDbEntity
  8
Layer_1
 62
1
100
AcDbSpline
 70
8
 71
3
 72
8
 73
4
 74
0
 40
0
 40
0
 40
0
 40
0
 40
1
 40
1
 40
1
 40
1
 10
-633.847194
 20
295.792207
 30
0.0
 10
-634.128499
 20
295.510900
 30
0.0
 10
-634.286533
 20
295.129367
 30
0.0
 10
-634.286530
 20
294.731540
 30
0.0
  0
LWPOLYLINE
  5
173
100
AcDbEntity
  8
Layer_1
 62
1
100
AcDbPolyline
 90
2
 70
0
 10
-611.566530
 20
315.281550
 30
0.0
 10
-628.626530
 20
315.281550
 30
0.0
  0
SPLINE
  5
174
100
AcDbEntity
  8
Layer_1
 62
1
100
AcDbSpline
 70
8
 71
3
 72
8
 73
4
 74
0
 40
0
 40
0
 40
0
 40
0
 40
1
 40
1
 40
1
 40
1
 10
-636.856530
 20
277.181550
 30
0.0
 10
-637.254356
 20
277.181550
 30
0.0
 10
-637.635889
 20
277.023513
 30
0.0
 10
-637.917194
 20
276.742207
 30
0.0
  0
SPLINE
  5
175
100
AcDbEntity
  8
Layer_1
 62
1
100
AcDbSpline
 70
8
 71
3
 72
8
 73
4
 74
0
 40
0
 40
0
 40
0
 40
0
 40
1
 40
1
 40
1
 40
1
 10
-637.917194
 20
276.742207
 30
0.0
 10
-638.198499
 20
276.460900
 30
0.0
 10
-638.356533
 20
276.079366
 30
0.0
 10
-638.356530
 20
275.681540
 30
0.0
  0
LWPOLYLINE
  5
176
100
AcDbEntity
  8
Layer_1
 62
1
100
AcDbPolyline
 90
3
 70
0
 10
-630.126530
 20
313.781540
 30
0.0
 10
-630.126530
 20
296.231550
 30
0.0
 10
-632.786530
 20
296.231550
 30
0.0
  0
SPLINE
  5
177
100
AcDbEntity
  8
Layer_1
 62
1
100
AcDbSpline
 70
8
 71
3
 72
8
 73
4
 74
0
 40
0
 40
0
 40
0
 40
0
 40
1
 40
1
 40
1
 40
1
 10
-638.356530
 20
258.621560
 30
0.0
 10
-638.356533
 20
258.223734
 30
0.0
 10
-638.198499
 20
257.842200
 30
0.0
 10
-637.917194
 20
257.560893
 30
0.0
  0
SPLINE
  5
178
100
AcDbEntity
  8
Layer_1
 62
1
100
AcDbSpline
 70
8
 71
3
 72
8
 73
4
 74
0
 40
0
 40
0
 40
0
 40
0
 40
1
 40
1
 40
1
 40
1
 10
-637.917194
 20
257.560893
 30
0.0
 10
-637.635889
 20
257.279587
 30
0.0
 10
-637.254356
 20
257.121550
 30
0.0
 10
-636.856530
 20
257.121550
 30
0.0
  0
LWPOLYLINE
  5
179
100
AcDbEntity
  8
Layer_1
 62
1
100
AcDbPolyline
 90
2
 70
0
 10
-638.356530
 20
275.681540
 30
0.0
 10
-638.356530
 20
258.621560
 30
0.0
  0
SPLINE
  5
17a
100
AcDbEntity
  8
Layer_1
 62
1
100
AcDbSpline
 70
8
 71
3
 72
8
 73
4
 74
0
 40
0
 40
0
 40
0
 40
0
 40
1
 40
1
 40
1
 40
1
 10
-619.796530
 20
257.121550
 30
0.0
 10
-619.398704
 20
257.121550
 30
0.0
 10
-619.017171
 20
257.279587
 30
0.0
 10
-618.735866
 20
257.560893
 30
0.0
  0
SPLINE
  5
17b
100
AcDbEntity
  8
Layer_1
 62
1
100
AcDbSpline
 70
8
 71
3
 72
8
 73
4
 74
0
 40
0
 40
0
 40
0
 40
0
 40
1
 40
1
 40
1
 40
1
 10
-618.735866
 20
257.560893
 30
0.0
 10
-618.454561
 20
257.842200
 30
0.0
 10
-618.296527
 20
258.223734
 30
0.0
 10
-618.296530
 20
258.621560
 30
0.0
  0
LWPOLYLINE
  5
17c
100
AcDbEntity
  8
Layer_1
 62
1
100
AcDbPolyline
 90
3
 70
0
 10
-634.286530
 20
294.731540
 30
0.0
 10
-634.286530
 20
277.181550
 30
0.0
 10
-636.856530
 20
277.181550
 30
0.0
  0
SPLINE
  5
17d
100
AcDbEntity
  8
Layer_1
 62
1
100
AcDbSpline
 70
8
 71
3
 72
8
 73
4
 74
0
 40
0
 40
0
 40
0
 40
0
 40
1
 40
1
 40
1
 40
1
 10
-615.726530
 20
276.171550
 30
0.0
 10
-615.328704
 20
276.171550
 30
0.0
 10
-614.947171
 20
276.329587
 30
0.0
 10
-614.665866
 20
276.610893
 30
0.0
  0
SPLINE
  5
17e
100
AcDbEntity
  8
Layer_1
 62
1
100
AcDbSpline
 70
8
 71
3
 72
8
 73
4
 74
0
 40
0
 40
0
 40
0
 40
0
 40
1
 40
1
 40
1
 40
1
 10
-614.665866
 20
276.610893
 30
0.0
 10
-614.384561
 20
276.892200
 30
0.0
 10
-614.226527
 20
277.273734
 30
0.0
 10
-614.226530
 20
277.671560
 30
0.0
  0
LWPOLYLINE
  5
17f
100
AcDbEntity
  8
Layer_1
 62
1
100
AcDbPolyline
 90
2
 70
0
 10
-636.856530
 20
257.121550
 30
0.0
 10
-619.796530
 20
257.121550
 30
0.0
  0
SPLINE
  5
180
100
AcDbEntity
  8
Layer_1
 62
1
100
AcDbSpline
 70
8
 71
3
 72
8
 73
4
 74
0
 40
0
 40
0
 40
0
 40
0
 40
1
 40
1
 40
1
 40
1
 10
-410.537790
 20
205.743170
 30
0.0
 10
-410.537367
 20
206.368667
 30
0.0
 10
-410.870823
 20
206.946830
 30
0.0
 10
-411.412448
 20
207.259701
 30
0.0
  0
SPLINE
  5
181
100
AcDbEntity
  8
Layer_1
 62
1
100
AcDbSpline
 70
8
 71
3
 72
8
 73
4
 74
0
 40
0
 40
0
 40
0
 40
0
 40
1
 40
1
 40
1
 40
1
 10
-411.412448
 20
207.259701
 30
0.0
 10
-411.954074
 20
207.572571
 30
0.0
 10
-412.621506
 20
207.572571
 30
0.0
 10
-413.163132
 20
207.259701
 30
0.0
  0
SPLINE
  5
182
100
AcDbEntity
  8
Layer_1
 62
1
100
AcDbSpline
 70
8
 71
3
 72
8
 73
4
 74
0
 40
0
 40
0
 40
0
 40
0
 40
1
 40
1
 40
1
 40
1
 10
-413.163132
 20
207.259701
 30
0.0
 10
-413.704757
 20
206.946830
 30
0.0
 10
-414.038213
 20
206.368667
 30
0.0
 10
-414.037790
 20
205.743170
 30
0.0
  0
SPLINE
  5
183
100
AcDbEntity
  8
Layer_1
 62
1
100
AcDbSpline
 70
8
 71
3
 72
8
 73
4
 74
0
 40
0
 40
0
 40
0
 40
0
 40
1
 40
1
 40
1
 40
1
 10
-414.037790
 20
205.743170
 30
0.0
 10
-414.038213
 20
205.117673
 30
0.0
 10
-413.704757
 20
204.539510
 30
0.0
 10
-413.163132
 20
204.226639
 30
0.0
  0
SPLINE
  5
184
100
AcDbEntity
  8
Layer_1
 62
1
100
AcDbSpline
 70
8
 71
3
 72
8
 73
4
 74
0
 40
0
 40
0
 40
0
 40
0
 40
1
 40
1
 40
1
 40
1
 10
-413.163132
 20
204.226639
 30
0.0
 10
-412.621506
 20
203.913769
 30
0.0
 10
-411.954074
 20
203.913769
 30
0.0
 10
-411.412448
 20
204.226639
 30
0.0
  0
SPLINE
  5
185
100
AcDbEntity
  8
Layer_1
 62
1
100
AcDbSpline
 70
8
 71
3
 72
8
 73
4
 74
0
 40
0
 40
0
 40
0
 40
0
 40
1
 40
1
 40
1
 40
1
 10
-411.412448
 20
204.226639
 30
0.0
 10
-410.870823
 20
204.539510
 30
0.0
 10
-410.537367
 20
205.117673
 30
0.0
 10
-410.537790
 20
205.743170
 30
0.0
  0
LWPOLYLINE
  5
186
100
AcDbEntity
  8
Layer_1
 62
1
100
AcDbPolyline
 90
3
 70
0
 10
-618.296530
 20
258.621560
 30
0.0
 10
-618.296530
 20
276.171550
 30
0.0
 10
-615.726530
 20
276.171550
 30
0.0
  0
SPLINE
  5
187
100
AcDbEntity
  8
Layer_1
 62
1
100
AcDbSpline
 70
8
 71
3
 72
8
 73
4
 74
0
 40
0
 40
0
 40
0
 40
0
 40
1
 40
1
 40
1
 40
1
 10
-295.537780
 20
215.111540
 30
0.0
 10
-295.536810
 20
215.737402
 30
0.0
 10
-295.870147
 20
216.316138
 30
0.0
 10
-296.411999
 20
216.629350
 30
0.0
  0
SPLINE
  5
188
100
AcDbEntity
  8
Layer_1
 62
1
100
AcDbSpline
 70
8
 71
3
 72
8
 73
4
 74
0
 40
0
 40
0
 40
0
 40
0
 40
1
 40
1
 40
1
 40
1
 10
-296.411999
 20
216.629350
 30
0.0
 10
-296.953851
 20
216.942561
 30
0.0
 10
-297.621719
 20
216.942561
 30
0.0
 10
-298.163571
 20
216.629350
 30
0.0
  0
SPLINE
  5
189
100
AcDbEntity
  8
Layer_1
 62
1
100
AcDbSpline
 70
8
 71
3
 72
8
 73
4
 74
0
 40
0
 40
0
 40
0
 40
0
 40
1
 40
1
 40
1
 40
1
 10
-298.163571
 20
216.629350
 30
0.0
 10
-298.705423
 20
216.316138
 30
0.0
 10
-299.038760
 20
215.737402
 30
0.0
 10
-299.037790
 20
215.111540
 30
0.0
  0
SPLINE
  5
18a
100
AcDbEntity
  8
Layer_1
 62
1
100
AcDbSpline
 70
8
 71
3
 72
8
 73
4
 74
0
 40
0
 40
0
 40
0
 40
0
 40
1
 40
1
 40
1
 40
1
 10
-299.037790
 20
215.111540
 30
0.0
 10
-299.038760
 20
214.485678
 30
0.0
 10
-298.705423
 20
213.906942
 30
0.0
 10
-298.163571
 20
213.593730
 30
0.0
  0
SPLINE
  5
18b
100
AcDbEntity
  8
Layer_1
 62
1
100
AcDbSpline
 70
8
 71
3
 72
8
 73
4
 74
0
 40
0
 40
0
 40
0
 40
0
 40
1
 40
1
 40
1
 40
1
 10
-298.163571
 20
213.593730
 30
0.0
 10
-297.621719
 20
213.280519
 30
0.0
 10
-296.953851
 20
213.280519
 30
0.0
 10
-296.411999
 20
213.593730
 30
0.0
  0
SPLINE
  5
18c
100
AcDbEntity
  8
Layer_1
 62
1
100
AcDbSpline
 70
8
 71
3
 72
8
 73
4
 74
0
 40
0
 40
0
 40
0
 40
0
 40
1
 40
1
 40
1
 40
1
 10
-296.411999
 20
213.593730
 30
0.0
 10
-295.870147
 20
213.906942
 30
0.0
 10
-295.536810
 20
214.485678
 30
0.0
 10
-295.537780
 20
215.111540
 30
0.0
  0
SPLINE
  5
18d
100
AcDbEntity
  8
Layer_1
 62
1
100
AcDbSpline
 70
8
 71
3
 72
8
 73
4
 74
0
 40
0
 40
0
 40
0
 40
0
 40
1
 40
1
 40
1
 40
1
 10
-410.537790
 20
318.251550
 30
0.0
 10
-410.537367
 20
318.877047
 30
0.0
 10
-410.870823
 20
319.455210
 30
0.0
 10
-411.412448
 20
319.768081
 30
0.0
  0
SPLINE
  5
18e
100
AcDbEntity
  8
Layer_1
 62
1
100
AcDbSpline
 70
8
 71
3
 72
8
 73
4
 74
0
 40
0
 40
0
 40
0
 40
0
 40
1
 40
1
 40
1
 40
1
 10
-411.412448
 20
319.768081
 30
0.0
 10
-411.954074
 20
320.080951
 30
0.0
 10
-412.621506
 20
320.080951
 30
0.0
 10
-413.163132
 20
319.768081
 30
0.0
  0
SPLINE
  5
18f
100
AcDbEntity
  8
Layer_1
 62
1
100
AcDbSpline
 70
8
 71
3
 72
8
 73
4
 74
0
 40
0
 40
0
 40
0
 40
0
 40
1
 40
1
 40
1
 40
1
 10
-413.163132
 20
319.768081
 30
0.0
 10
-413.704757
 20
319.455210
 30
0.0
 10
-414.038213
 20
318.877047
 30
0.0
 10
-414.037790
 20
318.251550
 30
0.0
  0
SPLINE
  5
190
100
AcDbEntity
  8
Layer_1
 62
1
100
AcDbSpline
 70
8
 71
3
 72
8
 73
4
 74
0
 40
0
 40
0
 40
0
 40
0
 40
1
 40
1
 40
1
 40
1
 10
-414.037790
 20
318.251550
 30
0.0
 10
-414.038213
 20
317.626053
 30
0.0
 10
-413.704757
 20
317.047890
 30
0.0
 10
-413.163132
 20
316.735019
 30
0.0
  0
SPLINE
  5
191
100
AcDbEntity
  8
Layer_1
 62
1
100
AcDbSpline
 70
8
 71
3
 72
8
 73
4
 74
0
 40
0
 40
0
 40
0
 40
0
 40
1
 40
1
 40
1
 40
1
 10
-413.163132
 20
316.735019
 30
0.0
 10
-412.621506
 20
316.422149
 30
0.0
 10
-411.954074
 20
316.422149
 30
0.0
 10
-411.412448
 20
316.735019
 30
0.0
  0
SPLINE
  5
192
100
AcDbEntity
  8
Layer_1
 62
1
100
AcDbSpline
 70
8
 71
3
 72
8
 73
4
 74
0
 40
0
 40
0
 40
0
 40
0
 40
1
 40
1
 40
1
 40
1
 10
-411.412448
 20
316.735019
 30
0.0
 10
-410.870823
 20
317.047890
 30
0.0
 10
-410.537367
 20
317.626053
 30
0.0
 10
-410.537790
 20
318.251550
 30
0.0
  0
SPLINE
  5
193
100
AcDbEntity
  8
Layer_1
 62
1
100
AcDbSpline
 70
8
 71
3
 72
8
 73
4
 74
0
 40
0
 40
0
 40
0
 40
0
 40
1
 40
1
 40
1
 40
1
 10
-523.376540
 20
205.637160
 30
0.0
 10
-523.375043
 20
206.263369
 30
0.0
 10
-523.708262
 20
206.842652
 30
0.0
 10
-524.250328
 20
207.156190
 30
0.0
  0
SPLINE
  5
194
100
AcDbEntity
  8
Layer_1
 62
1
100
AcDbSpline
 70
8
 71
3
 72
8
 73
4
 74
0
 40
0
 40
0
 40
0
 40
0
 40
1
 40
1
 40
1
 40
1
 10
-524.250328
 20
207.156190
 30
0.0
 10
-524.792393
 20
207.469728
 30
0.0
 10
-525.460677
 20
207.469728
 30
0.0
 10
-526.002742
 20
207.156190
 30
0.0
  0
SPLINE
  5
195
100
AcDbEntity
  8
Layer_1
 62
1
100
AcDbSpline
 70
8
 71
3
 72
8
 73
4
 74
0
 40
0
 40
0
 40
0
 40
0
 40
1
 40
1
 40
1
 40
1
 10
-526.002742
 20
207.156190
 30
0.0
 10
-526.544808
 20
206.842652
 30
0.0
 10
-526.878027
 20
206.263369
 30
0.0
 10
-526.876530
 20
205.637160
 30
0.0
  0
SPLINE
  5
196
100
AcDbEntity
  8
Layer_1
 62
1
100
AcDbSpline
 70
8
 71
3
 72
8
 73
4
 74
0
 40
0
 40
0
 40
0
 40
0
 40
1
 40
1
 40
1
 40
1
 10
-526.876530
 20
205.637160
 30
0.0
 10
-526.878027
 20
205.010951
 30
0.0
 10
-526.544808
 20
204.431668
 30
0.0
 10
-526.002742
 20
204.118130
 30
0.0
  0
SPLINE
  5
197
100
AcDbEntity
  8
Layer_1
 62
1
100
AcDbSpline
 70
8
 71
3
 72
8
 73
4
 74
0
 40
0
 40
0
 40
0
 40
0
 40
1
 40
1
 40
1
 40
1
 10
-526.002742
 20
204.118130
 30
0.0
 10
-525.460677
 20
203.804592
 30
0.0
 10
-524.792393
 20
203.804592
 30
0.0
 10
-524.250328
 20
204.118130
 30
0.0
  0
SPLINE
  5
198
100
AcDbEntity
  8
Layer_1
 62
1
100
AcDbSpline
 70
8
 71
3
 72
8
 73
4
 74
0
 40
0
 40
0
 40
0
 40
0
 40
1
 40
1
 40
1
 40
1
 10
-524.250328
 20
204.118130
 30
0.0
 10
-523.708262
 20
204.431668
 30
0.0
 10
-523.375043
 20
205.010951
 30
0.0
 10
-523.376540
 20
205.637160
 30
0.0
  0
SPLINE
  5
199
100
AcDbEntity
  8
Layer_1
 62
1
100
AcDbSpline
 70
8
 71
3
 72
8
 73
4
 74
0
 40
0
 40
0
 40
0
 40
0
 40
1
 40
1
 40
1
 40
1
 10
-295.537780
 20
317.051560
 30
0.0
 10
-295.536810
 20
317.677422
 30
0.0
 10
-295.870147
 20
318.256158
 30
0.0
 10
-296.411999
 20
318.569370
 30
0.0
  0
SPLINE
  5
19a
100
AcDbEntity
  8
Layer_1
 62
1
100
AcDbSpline
 70
8
 71
3
 72
8
 73
4
 74
0
 40
0
 40
0
 40
0
 40
0
 40
1
 40
1
 40
1
 40
1
 10
-296.411999
 20
318.569370
 30
0.0
 10
-296.953851
 20
318.882581
 30
0.0
 10
-297.621719
 20
318.882581
 30
0.0
 10
-298.163571
 20
318.569370
 30
0.0
  0
SPLINE
  5
19b
100
AcDbEntity
  8
Layer_1
 62
1
100
AcDbSpline
 70
8
 71
3
 72
8
 73
4
 74
0
 40
0
 40
0
 40
0
 40
0
 40
1
 40
1
 40
1
 40
1
 10
-298.163571
 20
318.569370
 30
0.0
 10
-298.705423
 20
318.256158
 30
0.0
 10
-299.038760
 20
317.677422
 30
0.0
 10
-299.037790
 20
317.051560
 30
0.0
  0
SPLINE
  5
19c
100
AcDbEntity
  8
Layer_1
 62
1
100
AcDbSpline
 70
8
 71
3
 72
8
 73
4
 74
0
 40
0
 40
0
 40
0
 40
0
 40
1
 40
1
 40
1
 40
1
 10
-299.037790
 20
317.051560
 30
0.0
 10
-299.038760
 20
316.425698
 30
0.0
 10
-298.705423
 20
315.846962
 30
0.0
 10
-298.163571
 20
315.533750
 30
0.0
  0
SPLINE
  5
19d
100
AcDbEntity
  8
Layer_1
 62
1
100
AcDbSpline
 70
8
 71
3
 72
8
 73
4
 74
0
 40
0
 40
0
 40
0
 40
0
 40
1
 40
1
 40
1
 40
1
 10
-298.163571
 20
315.533750
 30
0.0
 10
-297.621719
 20
315.220539
 30
0.0
 10
-296.953851
 20
315.220539
 30
0.0
 10
-296.411999
 20
315.533750
 30
0.0
  0
SPLINE
  5
19e
100
AcDbEntity
  8
Layer_1
 62
1
100
AcDbSpline
 70
8
 71
3
 72
8
 73
4
 74
0
 40
0
 40
0
 40
0
 40
0
 40
1
 40
1
 40
1
 40
1
 10
-296.411999
 20
315.533750
 30
0.0
 10
-295.870147
 20
315.846962
 30
0.0
 10
-295.536810
 20
316.425698
 30
0.0
 10
-295.537780
 20
317.051560
 30
0.0
  0
LWPOLYLINE
  5
19f
100
AcDbEntity
  8
Layer_1
 62
1
100
AcDbPolyline
 90
3
 70
0
 10
-614.226530
 20
277.671560
 30
0.0
 10
-614.226530
 20
295.221550
 30
0.0
 10
-611.566530
 20
295.221550
 30
0.0
  0
SPLINE
  5
1a0
100
AcDbEntity
  8
Layer_1
 62
1
100
AcDbSpline
 70
8
 71
3
 72
8
 73
4
 74
0
 40
0
 40
0
 40
0
 40
0
 40
1
 40
1
 40
1
 40
1
 10
-638.376530
 20
317.051560
 30
0.0
 10
-638.376107
 20
317.677057
 30
0.0
 10
-638.709563
 20
318.255220
 30
0.0
 10
-639.251188
 20
318.568091
 30
0.0
  0
SPLINE
  5
1a1
100
AcDbEntity
  8
Layer_1
 62
1
100
AcDbSpline
 70
8
 71
3
 72
8
 73
4
 74
0
 40
0
 40
0
 40
0
 40
0
 40
1
 40
1
 40
1
 40
1
 10
-639.251188
 20
318.568091
 30
0.0
 10
-639.792814
 20
318.880961
 30
0.0
 10
-640.460246
 20
318.880961
 30
0.0
 10
-641.001872
 20
318.568091
 30
0.0
  0
SPLINE
  5
1a2
100
AcDbEntity
  8
Layer_1
 62
1
100
AcDbSpline
 70
8
 71
3
 72
8
 73
4
 74
0
 40
0
 40
0
 40
0
 40
0
 40
1
 40
1
 40
1
 40
1
 10
-641.001872
 20
318.568091
 30
0.0
 10
-641.543497
 20
318.255220
 30
0.0
 10
-641.876953
 20
317.677057
 30
0.0
 10
-641.876530
 20
317.051560
 30
0.0
  0
SPLINE
  5
1a3
100
AcDbEntity
  8
Layer_1
 62
1
100
AcDbSpline
 70
8
 71
3
 72
8
 73
4
 74
0
 40
0
 40
0
 40
0
 40
0
 40
1
 40
1
 40
1
 40
1
 10
-641.876530
 20
317.051560
 30
0.0
 10
-641.876953
 20
316.426063
 30
0.0
 10
-641.543497
 20
315.847900
 30
0.0
 10
-641.001872
 20
315.535029
 30
0.0
  0
SPLINE
  5
1a4
100
AcDbEntity
  8
Layer_1
 62
1
100
AcDbSpline
 70
8
 71
3
 72
8
 73
4
 74
0
 40
0
 40
0
 40
0
 40
0
 40
1
 40
1
 40
1
 40
1
 10
-641.001872
 20
315.535029
 30
0.0
 10
-640.460246
 20
315.222159
 30
0.0
 10
-639.792814
 20
315.222159
 30
0.0
 10
-639.251188
 20
315.535029
 30
0.0
  0
SPLINE
  5
1a5
100
AcDbEntity
  8
Layer_1
 62
1
100
AcDbSpline
 70
8
 71
3
 72
8
 73
4
 74
0
 40
0
 40
0
 40
0
 40
0
 40
1
 40
1
 40
1
 40
1
 10
-639.251188
 20
315.535029
 30
0.0
 10
-638.709563
 20
315.847900
 30
0.0
 10
-638.376107
 20
316.426063
 30
0.0
 10
-638.376530
 20
317.051560
 30
0.0
  0
SPLINE
  5
1a6
100
AcDbEntity
  8
Layer_1
 62
1
100
AcDbSpline
 70
8
 71
3
 72
8
 73
4
 74
0
 40
0
 40
0
 40
0
 40
0
 40
1
 40
1
 40
1
 40
1
 10
-523.389100
 20
318.751560
 30
0.0
 10
-523.388677
 20
319.377057
 30
0.0
 10
-523.722133
 20
319.955220
 30
0.0
 10
-524.263758
 20
320.268091
 30
0.0
  0
SPLINE
  5
1a7
100
AcDbEntity
  8
Layer_1
 62
1
100
AcDbSpline
 70
8
 71
3
 72
8
 73
4
 74
0
 40
0
 40
0
 40
0
 40
0
 40
1
 40
1
 40
1
 40
1
 10
-524.263758
 20
320.268091
 30
0.0
 10
-524.805384
 20
320.580961
 30
0.0
 10
-525.472816
 20
320.580961
 30
0.0
 10
-526.014442
 20
320.268091
 30
0.0
  0
SPLINE
  5
1a8
100
AcDbEntity
  8
Layer_1
 62
1
100
AcDbSpline
 70
8
 71
3
 72
8
 73
4
 74
0
 40
0
 40
0
 40
0
 40
0
 40
1
 40
1
 40
1
 40
1
 10
-526.014442
 20
320.268091
 30
0.0
 10
-526.556067
 20
319.955220
 30
0.0
 10
-526.889523
 20
319.377057
 30
0.0
 10
-526.889100
 20
318.751560
 30
0.0
  0
SPLINE
  5
1a9
100
AcDbEntity
  8
Layer_1
 62
1
100
AcDbSpline
 70
8
 71
3
 72
8
 73
4
 74
0
 40
0
 40
0
 40
0
 40
0
 40
1
 40
1
 40
1
 40
1
 10
-526.889100
 20
318.751560
 30
0.0
 10
-526.889523
 20
318.126063
 30
0.0
 10
-526.556067
 20
317.547900
 30
0.0
 10
-526.014442
 20
317.235029
 30
0.0
  0
SPLINE
  5
1aa
100
AcDbEntity
  8
Layer_1
 62
1
100
AcDbSpline
 70
8
 71
3
 72
8
 73
4
 74
0
 40
0
 40
0
 40
0
 40
0
 40
1
 40
1
 40
1
 40
1
 10
-526.014442
 20
317.235029
 30
0.0
 10
-525.472816
 20
316.922159
 30
0.0
 10
-524.805384
 20
316.922159
 30
0.0
 10
-524.263758
 20
317.235029
 30
0.0
  0
SPLINE
  5
1ab
100
AcDbEntity
  8
Layer_1
 62
1
100
AcDbSpline
 70
8
 71
3
 72
8
 73
4
 74
0
 40
0
 40
0
 40
0
 40
0
 40
1
 40
1
 40
1
 40
1
 10
-524.263758
 20
317.235029
 30
0.0
 10
-523.722133
 20
317.547900
 30
0.0
 10
-523.388677
 20
318.126063
 30
0.0
 10
-523.389100
 20
318.751560
 30
0.0
  0
SPLINE
  5
1ac
100
AcDbEntity
  8
Layer_1
 62
1
100
AcDbSpline
 70
8
 71
3
 72
8
 73
4
 74
0
 40
0
 40
0
 40
0
 40
0
 40
1
 40
1
 40
1
 40
1
 10
-638.376530
 20
215.111540
 30
0.0
 10
-638.376107
 20
215.737037
 30
0.0
 10
-638.709563
 20
216.315200
 30
0.0
 10
-639.251188
 20
216.628071
 30
0.0
  0
SPLINE
  5
1ad
100
AcDbEntity
  8
Layer_1
 62
1
100
AcDbSpline
 70
8
 71
3
 72
8
 73
4
 74
0
 40
0
 40
0
 40
0
 40
0
 40
1
 40
1
 40
1
 40
1
 10
-639.251188
 20
216.628071
 30
0.0
 10
-639.792814
 20
216.940941
 30
0.0
 10
-640.460246
 20
216.940941
 30
0.0
 10
-641.001872
 20
216.628071
 30
0.0
  0
SPLINE
  5
1ae
100
AcDbEntity
  8
Layer_1
 62
1
100
AcDbSpline
 70
8
 71
3
 72
8
 73
4
 74
0
 40
0
 40
0
 40
0
 40
0
 40
1
 40
1
 40
1
 40
1
 10
-641.001872
 20
216.628071
 30
0.0
 10
-641.543497
 20
216.315200
 30
0.0
 10
-641.876953
 20
215.737037
 30
0.0
 10
-641.876530
 20
215.111540
 30
0.0
  0
SPLINE
  5
1af
100
AcDbEntity
  8
Layer_1
 62
1
100
AcDbSpline
 70
8
 71
3
 72
8
 73
4
 74
0
 40
0
 40
0
 40
0
 40
0
 40
1
 40
1
 40
1
 40
1
 10
-641.876530
 20
215.111540
 30
0.0
 10
-641.876953
 20
214.486043
 30
0.0
 10
-641.543497
 20
213.907880
 30
0.0
 10
-641.001872
 20
213.595009
 30
0.0
  0
SPLINE
  5
1b0
100
AcDbEntity
  8
Layer_1
 62
1
100
AcDbSpline
 70
8
 71
3
 72
8
 73
4
 74
0
 40
0
 40
0
 40
0
 40
0
 40
1
 40
1
 40
1
 40
1
 10
-641.001872
 20
213.595009
 30
0.0
 10
-640.460246
 20
213.282139
 30
0.0
 10
-639.792814
 20
213.282139
 30
0.0
 10
-639.251188
 20
213.595009
 30
0.0
  0
SPLINE
  5
1b1
100
AcDbEntity
  8
Layer_1
 62
1
100
AcDbSpline
 70
8
 71
3
 72
8
 73
4
 74
0
 40
0
 40
0
 40
0
 40
0
 40
1
 40
1
 40
1
 40
1
 10
-639.251188
 20
213.595009
 30
0.0
 10
-638.709563
 20
213.907880
 30
0.0
 10
-638.376107
 20
214.486043
 30
0.0
 10
-638.376530
 20
215.111540
 30
0.0
  0
LWPOLYLINE
  5
1b2
100
AcDbEntity
  8
Layer_1
 62
1
100
AcDbPolyline
 90
2
 70
0
 10
-640.067540
 20
318.800560
 30
0.0
 10
-640.133540
 20
318.800560
 30
0.0
  0
ENDSEC
  0
SECTION
  2
OBJECTS
  0
DICTIONARY
  5
C
330
0
100
AcDbDictionary
  3
ACAD_GROUP
350
D
  3
ACAD_MLINESTYLE
350
17
  0
DICTIONARY
  5
D
330
C
100
AcDbDictionary
  0
DICTIONARY
  5
1A
330
C
100
AcDbDictionary
  0
DICTIONARY
  5
17
330
C
100
AcDbDictionary
  3
STANDARD
350
18
  0
DICTIONARY
  5
19
330
C
100
AcDbDictionary
  0
ENDSEC
  0
EOF
