0
SECTION
2
HEADER
9
$INSUNITS
70
4
9
$ACADVER
1
AC1014
9
$HANDSEED
5
FFFF
0
ENDSEC
0
SECTION
2
TABLES
0
TABLE
2
VPORT
5
8
100
AcDbSymbolTable
0
ENDTAB
0
TABLE
2
LTYPE
5
5
100
AcDbSymbolTable
0
LTYPE
5
14
100
AcDbSymbolTableRecord
100
AcDbLinetypeTableRecord
2
BYBLOCK
70
0
0
LTYPE
5
15
100
AcDbSymbolTableRecord
100
AcDbLinetypeTableRecord
2
BYLAYER
70
0
0
ENDTAB
0
TABLE
2
LAYER
5
2
100
AcDbSymbolTable
70
2
0
LAYER
5
50
100
AcDbSymbolTableRecord
100
AcDbLayerTableRecord
2
0
70
0
6
CONTINUOUS
0
ENDTAB
0
TABLE
2
STYLE
5
3
100
AcDbSymbolTable
70
1
0
STYLE
5
11
100
AcDbSymbolTableRecord
100
AcDbTextStyleTableRecord
2
STANDARD
70
0
0
ENDTAB
0
TABLE
2
VIEW
5
6
100
AcDbSymbolTable
70
0
0
ENDTAB
0
TABLE
2
UCS
5
7
100
AcDbSymbolTable
70
0
0
ENDTAB
0
TABLE
2
APPID
5
9
100
AcDbSymbolTable
70
2
0
APPID
5
12
100
AcDbSymbolTableRecord
100
AcDbRegAppTableRecord
2
ACAD
70
0
0
ENDTAB
0
TABLE
2
DIMSTYLE
5
A
100
AcDbSymbolTable
70
1
0
ENDTAB
0
TABLE
2
BLOCK_RECORD
5
1
100
AcDbSymbolTable
70
1
0
BLOCK_RECORD
5
1F
100
AcDbSymbolTableRecord
100
AcDbBlockTableRecord
2
*MODEL_SPACE
0
BLOCK_RECORD
5
1B
100
AcDbSymbolTableRecord
100
AcDbBlockTableRecord
2
*PAPER_SPACE
0
ENDTAB
0
ENDSEC
0
SECTION
2
BLOCKS
0
BLOCK
5
20
100
AcDbEntity
100
AcDbBlockBegin
2
*MODEL_SPACE
0
ENDBLK
5
21
100
AcDbEntity
100
AcDbBlockEnd
0
BLOCK
5
1C
100
AcDbEntity
100
AcDbBlockBegin
2
*PAPER_SPACE
0
ENDBLK
5
1D
100
AcDbEntity
100
AcDbBlockEnd
0
ENDSEC
0
SECTION
2
ENTITIES
0
LWPOLYLINE
5
100
100
AcDbEntity
8
0
100
AcDbPolyline
90
8
70
1
43
0.0
10
930.34810479305293
20
-485.56212831921408
42
0.41421356237307466
10
931.11834070296914
20
-484.37606902766248
10
928.62340041315542
20
-472.63829781885704
42
0.41421356237287854
10
927.43734112160473
20
-471.86806190894112
10
915.69956991279832
20
-474.36300219875397
42
0.41421356237298895
10
914.92933400288234
20
-475.54906149030563
10
917.4242742926956
20
-487.28683269911124
42
0.41421356237323015
10
918.61033358424731
20
-488.05706860902717
0
LWPOLYLINE
5
101
100
AcDbEntity
8
0
100
AcDbPolyline
90
8
70
1
43
0.0
10
896.29562220890364
20
-479.50977920038389
10
898.79056249871667
20
-491.24755040918961
42
0.4142135623731561
10
899.97662179026861
20
-492.01778631910571
10
911.71439299907411
20
-489.52284602929245
42
0.4142135623731808
10
912.48462890898975
20
-488.33678673774091
10
909.98968861917683
20
-476.59901552893524
42
0.41421356237307466
10
908.80362932762523
20
-475.82877961901943
10
897.06585811881951
20
-478.32371990883252
42
0.41421356237309936
0
LWPOLYLINE
5
102
100
AcDbEntity
8
0
100
AcDbPolyline
90
8
70
1
43
0.0
10
723.22754914690461
20
-442.76184754890573
42
0.41421356237326151
10
724.22754914690461
20
-441.76184754890579
10
724.22754914690472
20
-429.76184754890573
42
0.41421356237326151
10
723.22754914690461
20
-428.76184754890573
10
711.22754914690472
20
-428.76184754890579
42
0.41421356237326151
10
710.22754914690483
20
-429.76184754890573
10
710.22754914690472
20
-441.76184754890579
42
0.41421356237326151
10
711.22754914690472
20
-442.76184754890579
0
LWPOLYLINE
5
103
100
AcDbEntity
8
0
100
AcDbPolyline
90
8
70
1
43
0.0
10
983.52754914690479
20
-444.90184754890578
42
0.41421356237303258
10
984.52754914690445
20
-443.90184754890578
10
984.52754914690445
20
-431.90184754890572
42
0.41421356237313667
10
983.52754914690445
20
-430.90184754890572
10
971.52754914690445
20
-430.90184754890578
42
0.41421356237326151
10
970.52754914690456
20
-431.90184754890572
10
970.52754914690445
20
-443.90184754890578
42
0.41421356237326151
10
971.52754914690445
20
-444.90184754890578
0
LWPOLYLINE
5
104
100
AcDbEntity
8
0
100
AcDbPolyline
90
8
70
1
43
0.0
10
930.69798608667497
20
-503.93611498903283
42
0.41421356237316048
10
931.88404537822635
20
-504.70635089894881
10
943.62181658703207
20
-502.21141060913573
42
0.41421356237307466
10
944.39205249694794
20
-501.02535131758418
10
941.8971122071348
20
-489.28758010877857
42
0.4142135623730136
10
940.7110529155832
20
-488.51734419886259
10
928.97328170677747
20
-491.01228448867568
42
0.41421356237307466
10
928.20304579686172
20
-492.19834378022722
0
LWPOLYLINE
5
105
100
AcDbEntity
8
0
100
AcDbPolyline
90
8
70
1
43
0.0
10
771.65754914690467
20
-450.95184754890573
42
0.41421356237313667
10
770.65754914690456
20
-449.95184754890573
10
758.65754914690456
20
-449.95184754890573
42
0.41421356237307422
10
757.65754914690444
20
-450.95184754890573
10
757.65754914690444
20
-462.95184754890579
42
0.41421356237307422
10
758.65754914690456
20
-463.95184754890579
10
770.65754914690456
20
-463.95184754890573
42
0.41421356237313667
10
771.65754914690467
20
-462.95184754890579
0
LWPOLYLINE
5
106
100
AcDbEntity
8
0
100
AcDbPolyline
90
8
70
1
43
0.0
10
1025.7931491469046
20
-507.14984754890571
10
1013.7931491469044
20
-507.14984754890577
42
0.41421356237292856
10
1012.7931491469044
20
-508.14984754890577
10
1012.7931491469047
20
-520.14984754890577
42
0.4142135623730534
10
1013.7931491469046
20
-521.14984754890577
10
1025.7931491469046
20
-521.14984754890565
42
0.41421356237301177
10
1026.7931491469049
20
-520.14984754890577
10
1026.7931491469049
20
-508.14984754890577
42
0.41421356237326151
0
LWPOLYLINE
5
107
100
AcDbEntity
8
0
100
AcDbPolyline
90
29
70
1
43
0.0
10
1027.0055497663161
20
-488.05184754890576
10
1027.0055497663161
20
-487.4668503121768
42
0.41421474950333553
10
1026.0055477397584
20
-486.46684828561888
10
1021.0055487828399
20
-486.46684828561922
42
0.41421365839011615
10
1020.005550481572
20
-487.4668503121768
10
1020.0055491469107
20
-502.051846118394
10
1018.5675474481724
20
-502.051846118394
10
1018.5675491469044
20
-489.0518475489057
42
0.41421356237301177
10
1017.5675491469044
20
-488.05184754890576
10
1003.1295495705745
20
-488.05184754890576
10
1003.1295495705746
20
-487.4668503121768
42
0.41421420394505976
10
1002.1295494066618
20
-486.46684828561916
10
997.12954858709804
20
-486.46684828561922
42
0.41421420394501812
10
996.12954842318481
20
-487.4668503121768
10
996.12954842318504
20
-488.05184754890576
10
996.04254914690443
20
-488.05184754890576
42
0.41421356237321988
10
995.04254914690466
20
-489.0518475489057
10
995.042549146905
20
-501.0518475489057
42
0.4142135623730534
10
996.04254914690443
20
-502.05184754890553
10
996.12954914690954
20
-502.05184754890576
10
996.12954842318504
20
-504.40684798521147
42
0.41421420394666225
10
997.12954858709793
20
-505.40685001176911
10
1026.0055477397584
20
-505.40685001176939
42
0.41421474950314824
10
1027.0055497663161
20
-504.40684798521147
10
1027.0055491469086
20
-502.05184754890576
10
1034.2362991469049
20
-502.05184754890581
42
0.41421356237307422
10
1035.2362991469047
20
-501.05184754890564
10
1035.2362991469045
20
-489.0518475489057
42
0.41421356237299095
10
1034.2362991469049
20
-488.05184754890576
0
LWPOLYLINE
5
108
100
AcDbEntity
8
0
100
AcDbPolyline
90
8
70
1
43
0.0
10
888.44585811881927
20
-460.67371990883231
42
0.41421356237303397
10
887.67562220890341
20
-461.85977920038397
10
890.17056249871632
20
-473.59755040918964
42
0.41421356237302531
10
891.35662179026792
20
-474.36778631910556
10
903.0943929990741
20
-471.87284602929248
42
0.41421356237307905
10
903.8646289089902
20
-470.68678673774087
10
901.36968861917694
20
-458.94901552893515
42
0.41421356237298462
10
900.18362932762534
20
-458.17877961901922
0
LWPOLYLINE
5
109
100
AcDbEntity
8
0
100
AcDbPolyline
90
8
70
1
43
0.0
10
791.11328170677757
20
-445.32141060913574
10
802.8510529155833
20
-447.81635089894911
42
0.41421356237318513
10
804.03711220713478
20
-447.0461149890329
10
806.53205249694793
20
-435.30834378022718
42
0.41421356237311108
10
805.76181658703194
20
-434.12228448867563
10
794.02404537822633
20
-431.62734419886249
42
0.4142135623730136
10
792.8379860866745
20
-432.39758010877858
10
790.34304579686159
20
-444.13535131758437
42
0.41421356237316048
0
LWPOLYLINE
5
110
100
AcDbEntity
8
0
100
AcDbPolyline
90
8
70
1
43
0.0
10
738.61754914690482
20
-507.10184754890577
10
726.61754914690459
20
-507.10184754890577
42
0.41421356237301177
10
725.61754914690471
20
-508.10184754890571
10
725.61754914690482
20
-520.10184754890577
42
0.41421356237301177
10
726.61754914690459
20
-521.10184754890565
10
738.61754914690482
20
-521.10184754890577
42
0.41421356237326151
10
739.61754914690471
20
-520.10184754890577
10
739.61754914690459
20
-508.10184754890571
42
0.41421356237311585
0
CIRCLE
5
111
100
AcDbEntity
8
0
100
AcDbCircle
10
1040.0362991469042
20
-423.96184754890567
30
0
40
1.7499999999999982
210
0
220
0
230
1
0
LWPOLYLINE
5
112
100
AcDbEntity
8
0
100
AcDbPolyline
90
8
70
1
43
0.0
10
945.52105291558314
20
-508.50734419886237
10
933.78328170677719
20
-511.00228448867568
42
0.41421356237296858
10
933.01304579686121
20
-512.18834378022723
10
935.50798608667492
20
-523.92611498903284
42
0.41421356237307039
10
936.69404537822584
20
-524.69635089894882
10
948.43181658703202
20
-522.20141060913568
42
0.41421356237307039
10
949.20205249694789
20
-521.01535131758408
10
946.70711220713486
20
-509.27758010877852
42
0.4142135623730136
0
LWPOLYLINE
5
113
100
AcDbEntity
8
0
100
AcDbPolyline
90
8
70
1
43
0.0
10
781.44404537822595
20
-467.90734419886246
42
0.4142135623731808
10
780.25798608667458
20
-468.67758010877856
10
777.76304579686155
20
-480.41535131758422
42
0.41421356237307039
10
778.53328170677753
20
-481.60141060913588
10
790.27105291558314
20
-484.09635089894891
42
0.41421356237307466
10
791.45711220713474
20
-483.32611498903282
10
793.95205249694811
20
-471.58834378022732
42
0.41421356237296425
10
793.18181658703202
20
-470.40228448867566
0
LWPOLYLINE
5
114
100
AcDbEntity
8
0
100
AcDbPolyline
90
8
70
1
43
0.0
10
785.60798608667483
20
-489.28758010877857
10
783.11304579686157
20
-501.02535131758418
42
0.41421356237296858
10
783.88328170677767
20
-502.21141060913573
10
795.62105291558328
20
-504.70635089894893
42
0.41421356237307905
10
796.80711220713476
20
-503.93611498903283
10
799.30205249694779
20
-492.19834378022711
42
0.41421356237300933
10
798.53181658703193
20
-491.01228448867568
10
786.79404537822631
20
-488.51734419886259
42
0.41421356237320117
0
LWPOLYLINE
5
115
100
AcDbEntity
8
0
100
AcDbPolyline
90
8
70
1
43
0.0
10
804.24169788065353
20
-493.24829781885683
10
801.74675759084039
20
-504.98606902766255
42
0.41421356237316048
10
802.51699350075683
20
-506.17212831921404
10
814.2547647095621
20
-508.6670686090273
42
0.41421356237322154
10
815.44082400111381
20
-507.89683269911109
10
817.93576429092695
20
-496.15906149030548
42
0.41421356237309503
10
817.16552838101074
20
-494.97300219875387
10
805.42775717220502
20
-492.47806190894084
42
0.41421356237309503
0
LWPOLYLINE
5
116
100
AcDbEntity
8
0
100
AcDbPolyline
90
8
70
1
43
0.0
10
777.70754914690451
20
-489.0518475489057
42
0.41421356237309503
10
776.70754914690463
20
-488.05184754890576
10
764.70754914690451
20
-488.05184754890581
42
0.41421356237303258
10
763.7075491469044
20
-489.0518475489057
10
763.70754914690463
20
-501.0518475489057
42
0.41421356237301177
10
764.70754914690463
20
-502.0518475489057
10
776.70754914690463
20
-502.05184754890576
42
0.41421356237299095
10
777.70754914690474
20
-501.0518475489057
0
LWPOLYLINE
5
117
100
AcDbEntity
8
0
100
AcDbPolyline
90
20
70
1
43
0.0
10
746.75754914690492
20
-489.0518475489057
42
0.41421356237313667
10
745.75754914690481
20
-488.0518475489057
10
733.75754914690447
20
-488.05184754890581
42
0.41421356237315748
10
732.75754914690447
20
-489.0518475489057
10
732.75754887868391
20
-502.051846118394
10
731.31954914690868
20
-502.051846118394
10
731.31954957057462
20
-487.4668503121768
42
0.41421420394495573
10
730.31954940666151
20
-486.46684828561922
10
725.31954858709787
20
-486.46684828561916
42
0.41421420394508057
10
724.31954842318487
20
-487.4668503121768
10
724.31954842318521
20
-504.40684798521147
42
0.41421420394666225
10
725.31954858709787
20
-505.40685001176939
10
754.19554773975835
20
-505.40685001176939
42
0.41421474950314824
10
755.19554976631616
20
-504.40684798521147
10
755.19554976631628
20
-487.4668503121768
42
0.41421474950308579
10
754.19554773975904
20
-486.46684828561888
10
749.19554878284066
20
-486.46684828561911
42
0.41421365839015778
10
748.1955504815727
20
-487.4668503121768
10
748.1955504815727
20
-502.05184611839456
10
746.75754744817141
20
-502.05184611839456
0
LWPOLYLINE
5
118
100
AcDbEntity
8
0
100
AcDbPolyline
90
22
70
1
43
0.0
10
873.71754914690655
20
-418.73184754890701
10
873.71754914690655
20
-416.73184754890571
10
873.71754914690655
20
-413.26184754890573
10
1045.7362991469042
20
-413.26184754890562
42
-0.41421356237309503
10
1050.7362991469042
20
-418.26184754890573
10
1050.7362991469042
20
-531.60184754890565
42
-0.41421356237309503
10
1045.7362991469042
20
-536.60184754890565
10
964.46396971407808
20
-536.60184754890565
10
876.68401677961356
20
-555.2600525282113
42
-0.10510423526567313
10
860.05108151419336
20
-555.26005252821142
10
772.27112857972884
20
-536.60184754890565
10
691.49754914690448
20
-536.60184754890565
42
-0.41421356237309503
10
686.49754914690448
20
-531.60184754890565
10
686.49754914690448
20
-418.26184754890573
42
-0.41421356237309503
10
691.49754914690448
20
-413.26184754890573
10
863.01754914690173
20
-413.26184754890573
10
863.01754914690173
20
-416.73184754890571
10
863.01754914690173
20
-418.73184754890701
10
864.16754914690455
20
-418.73184754890701
10
864.16754914690455
20
-429.49761039433241
10
872.56754914690475
20
-429.49761039433241
10
872.56754914690475
20
-418.73184754890701
0
LWPOLYLINE
5
119
100
AcDbEntity
8
0
100
AcDbPolyline
90
8
70
1
43
0.0
10
746.84754914690461
20
-463.95184754890573
42
0.41421356237313667
10
747.84754914690461
20
-462.95184754890579
10
747.84754914690461
20
-450.95184754890573
42
0.41421356237313667
10
746.84754914690461
20
-449.95184754890573
10
734.84754914690473
20
-449.95184754890579
42
0.41421356237313667
10
733.84754914690461
20
-450.95184754890573
10
733.84754914690461
20
-462.95184754890579
42
0.41421356237313667
10
734.84754914690473
20
-463.95184754890579
0
LWPOLYLINE
5
120
100
AcDbEntity
8
0
100
AcDbPolyline
90
8
70
1
43
0.0
10
827.53847650354123
20
-492.01778631910537
42
0.41421356237326651
10
828.72453579509272
20
-491.2475504091895
10
831.21947608490586
20
-479.50977920038383
42
0.41421356237298895
10
830.44924017499011
20
-478.32371990883217
10
818.71146896618427
20
-475.82877961901909
42
0.41421356237303397
10
817.52540967463256
20
-476.59901552893524
10
815.0304693848193
20
-488.33678673774079
42
0.4142135623731561
10
815.80070529473574
20
-489.52284602929268
0
LWPOLYLINE
5
121
100
AcDbEntity
8
0
100
AcDbPolyline
90
8
70
1
43
0.0
10
847.01441708871471
20
-457.20356373937079
10
858.75218829752043
20
-459.69850402918388
42
0.41421356237307039
10
859.93824758907181
20
-458.92826811926784
10
862.43318787888495
20
-447.19049691046223
42
0.41421356237326651
10
861.66295196896897
20
-446.00443761891057
10
849.92518076016324
20
-443.50949732909737
42
0.4142135623730383
10
848.73912146861142
20
-444.27973323901358
10
846.2441811787985
20
-456.01750444781919
42
0.41421356237314011
0
LWPOLYLINE
5
122
100
AcDbEntity
8
0
100
AcDbPolyline
90
8
70
1
43
0.0
10
831.29146896618408
20
-439.54877961901934
42
0.41421356237307466
10
830.10540967463271
20
-440.31901552893515
10
827.61046938481923
20
-452.05678673774082
42
0.41421356237309936
10
828.38070529473555
20
-453.24284602929254
10
840.11847650354127
20
-455.73778631910579
42
0.41421356237298895
10
841.30453579509322
20
-454.96755040918964
10
843.79947608490602
20
-443.22977920038397
42
0.41421356237315182
10
843.02924017498992
20
-442.04371990883232
0
LWPOLYLINE
5
123
100
AcDbEntity
8
0
100
AcDbPolyline
90
8
70
1
43
0.0
10
893.80585811881929
20
-440.0637199088323
42
0.41421356237307466
10
893.03562220890342
20
-441.2497792003839
10
895.53056249871656
20
-452.98755040918962
42
0.41421356237296425
10
896.71662179026816
20
-453.75778631910566
10
908.454392999074
20
-451.26284602929252
42
0.41421356237313572
10
909.22462890899033
20
-450.07678673774086
10
906.72968861917695
20
-438.33901552893531
42
0.41421356237307466
10
905.54362932762524
20
-437.56877961901921
0
LWPOLYLINE
5
124
100
AcDbEntity
8
0
100
AcDbPolyline
90
8
70
1
43
0.0
10
852.70824758907168
20
-515.8182681192676
10
855.20318787888471
20
-504.08049691046216
42
0.41421356237307905
10
854.43295196896884
20
-502.8944376189105
10
842.69518076016334
20
-500.39949732909741
42
0.41421356237303397
10
841.50912146861174
20
-501.16973323901357
10
839.01418117879871
20
-512.90750444781918
42
0.41421356237316048
10
839.78441708871458
20
-514.09356373937055
10
851.5221882975203
20
-516.58850402918381
42
0.41421356237311541
0
LWPOLYLINE
5
125
100
AcDbEntity
8
0
100
AcDbPolyline
90
8
70
1
43
0.0
10
889.82068120509496
20
-455.22356373937077
42
0.41421356237298895
10
890.59091711501083
20
-454.03750444781929
10
888.09597682519791
20
-442.29973323901362
42
0.41421356237317214
10
886.90991753364631
20
-441.52949732909752
10
875.1721463248407
20
-444.02443761891061
42
0.41421356237313572
10
874.40191041492437
20
-445.21049691046233
10
876.89685070473752
20
-456.94826811926794
42
0.4142135623731561
10
878.08290999628923
20
-457.71850402918403
0
LWPOLYLINE
5
126
100
AcDbEntity
8
0
100
AcDbPolyline
90
8
70
1
43
0.0
10
933.56304579686162
20
-471.58834378022732
10
936.05798608667453
20
-483.32611498903282
42
0.41421356237299323
10
937.24404537822636
20
-484.09635089894891
10
948.98181658703209
20
-481.60141060913583
42
0.41421356237307466
10
949.75205249694795
20
-480.41535131758422
10
947.25711220713492
20
-468.67758010877856
42
0.41421356237290319
10
946.07105291558332
20
-467.90734419886263
10
934.33328170677771
20
-470.40228448867572
42
0.41421356237296858
0
LWPOLYLINE
5
127
100
AcDbEntity
8
0
100
AcDbPolyline
90
8
70
1
43
0.0
10
937.45105291558332
20
-450.25734419886254
10
925.71328170677793
20
-452.75228448867563
42
0.41421356237307466
10
924.94304579686172
20
-453.93834378022723
10
927.43798608667464
20
-465.67611498903295
42
0.4142135623731561
10
928.62404537822601
20
-466.44635089894905
10
940.36181658703185
20
-463.95141060913573
42
0.41421356237286244
10
941.13205249694818
20
-462.76535131758413
10
938.63711220713481
20
-451.02758010877858
42
0.41421356237300494
0
LWPOLYLINE
5
128
100
AcDbEntity
8
0
100
AcDbPolyline
90
8
70
1
43
0.0
10
826.83847650354119
20
-472.38778631910566
42
0.41421356237302964
10
828.0245357950929
20
-471.61755040918962
10
830.51947608490593
20
-459.87977920038389
42
0.41421356237307905
10
829.74924017499006
20
-458.69371990883224
10
818.01146896618411
20
-456.19877961901926
42
0.41421356237307466
10
816.82540967463274
20
-456.96901552893507
10
814.33046938481937
20
-468.70678673774086
42
0.41421356237309503
10
815.10070529473546
20
-469.89284602929251
0
LWPOLYLINE
5
129
100
AcDbEntity
8
0
100
AcDbPolyline
90
8
70
1
43
0.0
10
766.29754914690466
20
-431.90184754890572
42
0.41421356237330315
10
765.29754914690443
20
-430.90184754890572
10
753.29754914690466
20
-430.90184754890578
42
0.41421356237326151
10
752.29754914690477
20
-431.90184754890572
10
752.29754914690466
20
-443.90184754890578
42
0.41421356237326151
10
753.29754914690466
20
-444.90184754890578
10
765.29754914690443
20
-444.90184754890583
42
0.41421356237313667
10
766.29754914690466
20
-443.90184754890578
0
LWPOLYLINE
5
130
100
AcDbEntity
8
0
100
AcDbPolyline
90
8
70
1
43
0.0
10
906.30933400288245
20
-457.89906149030548
10
908.8042742926956
20
-469.63683269911115
42
0.41421356237309503
10
909.99033358424742
20
-470.40706860902742
10
921.72810479305281
20
-467.91212831921428
42
0.41421356237313572
10
922.49834070296913
20
-466.72606902766262
10
920.0034004131561
20
-454.98829781885695
42
0.41421356237309503
10
918.81734112160416
20
-454.2180619089408
10
907.07956991279843
20
-456.71300219875405
42
0.41421356237300933
0
LWPOLYLINE
5
131
100
AcDbEntity
8
0
100
AcDbPolyline
90
8
70
1
43
0.0
10
727.39754914690479
20
-482.00184754890563
42
0.41421356237313667
10
728.39754914690491
20
-483.00184754890563
10
740.39754914690457
20
-483.00184754890563
42
0.41421356237319906
10
741.39754914690445
20
-482.00184754890563
10
741.39754914690457
20
-470.00184754890574
42
0.41421356237307422
10
740.39754914690445
20
-469.00184754890574
10
728.39754914690491
20
-469.0018475489058
42
0.41421356237313667
10
727.39754914690479
20
-470.00184754890574
0
LWPOLYLINE
5
132
100
AcDbEntity
8
0
100
AcDbPolyline
90
8
70
1
43
0.0
10
824.39552838101122
20
-438.083002198754
10
812.65775717220504
20
-435.58806190894086
42
0.41421356237309076
10
811.47169788065355
20
-436.3582978188569
10
808.97675759084052
20
-448.09606902766262
42
0.41421356237317647
10
809.7469935007565
20
-449.28212831921417
10
821.48476470956234
20
-451.77706860902731
42
0.41421356237302964
10
822.67082400111371
20
-451.00683269911116
10
825.16576429092697
20
-439.26906149030549
42
0.41421356237322582
0
LWPOLYLINE
5
133
100
AcDbEntity
8
0
100
AcDbPolyline
90
8
70
1
43
0.0
10
985.21754914690462
20
-449.95184754890573
42
0.41421356237307422
10
984.2175491469045
20
-450.95184754890573
10
984.21754914690496
20
-462.95184754890579
42
0.41421356237309503
10
985.21754914690462
20
-463.95184754890579
10
997.2175491469045
20
-463.95184754890579
42
0.41421356237307422
10
998.21754914690462
20
-462.95184754890579
10
998.21754914690473
20
-450.95184754890573
42
0.41421356237311585
10
997.2175491469045
20
-449.9518475489055
0
LWPOLYLINE
5
134
100
AcDbEntity
8
0
100
AcDbPolyline
90
24
70
1
43
0.0
10
807.66650784012415
20
-508.99966791919752
42
0.41421474950318171
10
806.48044614495507
20
-509.76990539004106
10
802.95842258630557
20
-526.33972347035626
42
0.41421474950307557
10
803.72866005714752
20
-527.52578516552535
10
805.92875517716504
20
-527.99342981958307
42
0.02363214235855466
10
806.02013547132299
20
-528.01741564670476
10
810.91087245470453
20
-529.05697388392457
42
0.41421365839001406
10
812.09693050599014
20
-528.28673563855
10
812.22041429488229
20
-527.70579008729487
42
0.023635684844227643
10
812.31180801251526
20
-527.72978049353515
10
814.51190339491222
20
-528.19742520336354
42
0.023631635430411659
10
814.60328170677769
20
-528.22141060913577
10
826.3410529155833
20
-530.7163508989488
42
0.023635682940697098
10
826.43430297500458
20
-530.73160790374368
10
826.31267489288985
20
-531.30382304101772
42
0.41421420394502345
10
827.08291054179199
20
-532.48988434892135
10
829.28300748377308
20
-532.95752939024976
42
0.023631676430941672
10
829.37438595596745
20
-532.98151483010088
10
834.26512476129062
20
-534.02107345458649
42
0.41421420394492364
10
835.45118463451786
20
-533.25083559647726
10
838.97320819316735
20
-516.681017516162
42
0.41421420394658304
10
838.20297254426555
20
-515.49495620825849
10
836.00287560228651
20
-515.02731116693042
42
0.023631676432346888
10
835.91149713009031
20
-515.00332572707919
0
LWPOLYLINE
5
135
100
AcDbEntity
8
0
100
AcDbPolyline
90
26
70
1
43
0.0
10
996.66454852749314
20
-429.3168490008751
10
991.66454770792939
20
-429.31684900087527
42
0.41421420394516384
10
990.6645475440165
20
-430.3168510274329
10
990.66454754401661
20
-430.90184754890572
10
990.57754914690463
20
-430.90184754890566
42
0.41421356237313667
10
989.57754914690463
20
-431.90184754890572
10
989.5775491469044
20
-443.90184754890578
42
0.41421356237297013
10
990.57754914690463
20
-444.90184754890578
10
990.66454914690962
20
-444.90184754890578
10
990.6645475440165
20
-447.25684870046763
42
0.41421420394655817
10
991.66454770792984
20
-448.25685072702561
10
1020.54054686059
20
-448.25685072702504
42
0.41421474950296094
10
1021.5405488871477
20
-447.25684870046723
10
1021.5405491469086
20
-444.90184754890578
10
1021.6275491469046
20
-444.90184754890578
42
0.41421356237307422
10
1022.6275491469045
20
-443.90184754890578
10
1022.6275491469048
20
-431.90184754890572
42
0.41421356237326151
10
1021.6275491469047
20
-430.90184754890572
10
1021.5405488871477
20
-430.90184754890572
10
1021.5405488871477
20
-430.31685102743256
42
0.41421474950348119
10
1020.5405468605898
20
-429.31684900087447
10
1015.540547903671
20
-429.31684900087481
42
0.41421365839028262
10
1014.5405496024034
20
-430.31685102743268
10
1014.5405496024034
20
-430.90184754890572
10
997.66454869140614
20
-430.90184754890572
10
997.66454869140625
20
-430.31685102743279
42
0.41421420394495573
0
LWPOLYLINE
5
136
100
AcDbEntity
8
0
100
AcDbPolyline
90
8
70
1
43
0.0
10
733.24754914690459
20
-443.90184754890578
42
0.41421356237326151
10
734.2475491469047
20
-444.90184754890578
10
746.2475491469047
20
-444.90184754890578
42
0.41421356237307422
10
747.24754914690504
20
-443.90184754890578
10
747.2475491469047
20
-431.90184754890572
42
0.41421356237309503
10
746.2475491469047
20
-430.90184754890601
10
734.2475491469047
20
-430.90184754890578
42
0.41421356237313667
10
733.24754914690459
20
-431.90184754890572
0
LWPOLYLINE
5
137
100
AcDbEntity
8
0
100
AcDbPolyline
90
8
70
1
43
0.0
10
792.48181658703186
20
-450.77228448867572
10
780.74404537822625
20
-448.27734419886258
42
0.41421356237298895
10
779.55798608667465
20
-449.04758010877856
10
777.06304579686162
20
-460.78535131758423
42
0.41421356237311108
10
777.8332817067776
20
-461.97141060913572
10
789.57105291558321
20
-464.46635089894892
42
0.41421356237316048
10
790.7571122071347
20
-463.69611498903288
10
793.25205249694795
20
-451.95834378022732
42
0.41421356237302531
0
LWPOLYLINE
5
138
100
AcDbEntity
8
0
100
AcDbPolyline
90
8
70
1
43
0.0
10
720.06754914690475
20
-460.81184754890586
10
720.06754914690464
20
-448.81184754890569
42
0.41421356237299095
10
719.06754914690464
20
-447.8118475489058
10
707.06754914690464
20
-447.8118475489058
42
0.41421356237303258
10
706.06754914690487
20
-448.81184754890569
10
706.06754914690441
20
-460.81184754890563
42
0.41421356237319906
10
707.06754914690475
20
-461.8118475489058
10
719.06754914690453
20
-461.81184754890575
42
0.41421356237319906
0
LWPOLYLINE
5
139
100
AcDbEntity
8
0
100
AcDbPolyline
90
8
70
1
43
0.0
10
796.46699350075664
20
-465.93212831921403
10
808.20476470956237
20
-468.42706860902717
42
0.41421356237317647
10
809.39082400111374
20
-467.65683269911108
10
811.88576429092677
20
-455.91906149030564
42
0.41421356237307466
10
811.1155283810109
20
-454.73300219875404
10
799.37775717220518
20
-452.23806190894095
42
0.41421356237324619
10
798.19169788065381
20
-453.00829781885687
10
795.69675759084043
20
-464.7460690276626
42
0.41421356237323015
0
LWPOLYLINE
5
140
100
AcDbEntity
8
0
100
AcDbPolyline
90
8
70
1
43
0.0
10
931.07328170677761
20
-432.14228448867578
42
0.41421356237311541
10
930.30304579686174
20
-433.32834378022721
10
932.79798608667488
20
-445.06611498903288
42
0.41421356237299323
10
933.98404537822603
20
-445.83635089894881
10
945.72181658703187
20
-443.34141060913589
42
0.41421356237309936
10
946.49205249694796
20
-442.15535131758423
10
943.99711220713482
20
-430.41758010877857
42
0.4142135623730136
10
942.81105291558333
20
-429.64734419886258
0
LWPOLYLINE
5
141
100
AcDbEntity
8
0
100
AcDbPolyline
90
8
70
1
43
0.0
10
848.38295196896911
20
-462.65443761891055
10
836.64518076016293
20
-460.15949732909752
42
0.41421356237317647
10
835.45912146861156
20
-460.92973323901361
10
832.96418117879853
20
-472.66750444781928
42
0.41421356237309936
10
833.73441708871439
20
-473.85356373937071
10
845.47218829752012
20
-476.34850402918391
42
0.41421356237309936
10
846.65824758907195
20
-475.57826811926788
10
849.15318787888498
20
-463.84049691046221
42
0.41421356237311974
0
LINE
5
142
100
AcDbEntity
8
0
100
AcDbLine
10
1019.1575491469048
20
-482.0018475489058
30
0
11
1019.1575511734624
21
-469.00184897941756
31
0
0
LWPOLYLINE
5
143
100
AcDbEntity
8
0
100
AcDbPolyline
90
8
70
1
43
0.0
10
796.39675759084071
20
-484.37606902766248
42
0.41421356237302964
10
797.16699350075658
20
-485.56212831921414
10
808.9047647095623
20
-488.05706860902717
42
0.41421356237324619
10
810.09082400111367
20
-487.28683269911124
10
812.58576429092705
20
-475.54906149030552
42
0.41421356237311974
10
811.81552838101095
20
-474.36300219875397
10
800.07775717220511
20
-471.86806190894089
42
0.41421356237302964
10
798.89169788065374
20
-472.63829781885704
0
LWPOLYLINE
5
144
100
AcDbEntity
8
0
100
AcDbPolyline
90
8
70
1
43
0.0
10
836.56947608490566
20
-500.11977920038368
42
0.41421356237320545
10
835.79924017499002
20
-498.93371990883224
10
824.06146896618407
20
-496.43877961901916
42
0.41421356237307466
10
822.87540967463269
20
-497.20901552893508
10
820.38046938481955
20
-508.94678673774081
42
0.41421356237309076
10
821.15070529473553
20
-510.13284602929252
10
832.88847650354114
20
-512.62778631910555
42
0.41421356237316048
10
834.07453579509263
20
-511.8575504091894
0
LWPOLYLINE
5
145
100
AcDbEntity
8
0
100
AcDbPolyline
90
8
70
1
43
0.0
10
784.93754914690476
20
-441.76184754890579
10
784.93754914690453
20
-429.76184754890573
42
0.41421356237299095
10
783.93754914690476
20
-428.76184754890573
10
771.93754914690476
20
-428.76184754890579
42
0.41421356237313667
10
770.93754914690464
20
-429.76184754890573
10
770.93754914690464
20
-441.76184754890579
42
0.41421356237313667
10
771.93754914690476
20
-442.76184754890579
10
783.93754914690476
20
-442.76184754890585
42
0.41421356237313667
0
LWPOLYLINE
5
146
100
AcDbEntity
8
0
100
AcDbPolyline
90
8
70
1
43
0.0
10
759.3575491469046
20
-469.0018475489058
42
0.41421356237326151
10
758.35754914690472
20
-470.00184754890574
10
758.3575491469046
20
-482.00184754890563
42
0.41421356237326151
10
759.3575491469046
20
-483.00184754890563
10
771.3575491469046
20
-483.00184754890574
42
0.41421356237313667
10
772.3575491469046
20
-482.00184754890563
10
772.3575491469046
20
-470.00184754890574
42
0.41421356237313667
10
771.3575491469046
20
-469.00184754890574
0
LINE
5
147
100
AcDbEntity
8
0
100
AcDbLine
10
996.71955028583011
20
-466.6468471126002
30
0
11
996.71955028583011
21
-483.58684478563487
31
0
0
LWPOLYLINE
5
148
100
AcDbEntity
8
0
100
AcDbPolyline
90
8
70
1
43
0.0
10
1008.0375491469046
20
-450.95184754890573
10
1008.0375491469046
20
-462.95184754890579
42
0.41421356237307422
10
1009.0375491469047
20
-463.95184754890579
10
1021.0375491469046
20
-463.95184754890579
42
0.4142135623731783
10
1022.0375491469048
20
-462.95184754890585
10
1022.0375491469048
20
-450.95184754890573
42
0.41421356237297013
10
1021.0375491469046
20
-449.95184754890573
10
1009.0375491469048
20
-449.95184754890568
42
0.41421356237313667
0
CIRCLE
5
149
100
AcDbEntity
8
0
100
AcDbCircle
10
925.03629914690453
20
-422.76184754890562
30
0
40
1.7500000000000009
210
0
220
0
230
1
0
LWPOLYLINE
5
150
100
AcDbEntity
8
0
100
AcDbPolyline
90
8
70
1
43
0.0
10
780.79798608667488
20
-509.27758010877852
10
778.30304579686185
20
-521.01535131758419
42
0.41421356237305001
10
779.07328170677783
20
-522.20141060913568
10
790.8110529155831
20
-524.69635089894894
42
0.41421356237307039
10
791.99711220713482
20
-523.92611498903284
10
794.49205249694819
20
-512.18834378022723
42
0.41421356237309076
10
793.72181658703198
20
-511.0022844886754
10
781.98404537822626
20
-508.50734419886271
42
0.414213562373066
0
LINE
5
151
100
AcDbEntity
8
0
100
AcDbLine
10
1027.5955516289612
20
-483.58684478563453
30
0
11
1027.5955516289607
21
-466.64684711260008
31
0
0
LWPOLYLINE
5
152
100
AcDbEntity
8
0
100
AcDbPolyline
90
8
70
1
43
0.0
10
969.15754914690467
20
-470.00184754890574
42
0.4142135623731783
10
968.15754914690501
20
-469.0018475489058
10
956.15754914690456
20
-469.00184754890574
42
0.41421356237307422
10
955.15754914690501
20
-470.00184754890574
10
955.15754914690444
20
-482.00184754890563
42
0.41421356237319906
10
956.15754914690456
20
-483.0018475489058
10
968.15754914690501
20
-483.00184754890563
42
0.41421356237319906
10
969.15754914690467
20
-482.00184754890563
0
LWPOLYLINE
5
153
100
AcDbEntity
8
0
100
AcDbPolyline
90
8
70
1
43
0.0
10
891.35597682519813
20
-480.55973323901361
42
0.41421356237303397
10
890.16991753364653
20
-479.78949732909768
10
878.43214632484069
20
-482.2844376189106
42
0.41421356237319679
10
877.66191041492448
20
-483.4704969104622
10
880.15685070473762
20
-495.20826811926781
42
0.41421356237296425
10
881.34290999628911
20
-495.9785040291838
10
893.08068120509483
20
-493.48356373937094
42
0.41421356237319679
10
893.85091711501104
20
-492.29750444781928
0
LWPOLYLINE
5
154
100
AcDbEntity
8
0
100
AcDbPolyline
90
8
70
1
43
0.0
10
906.35439299907375
20
-510.13284602929264
42
0.41421356237298895
10
907.12462890899019
20
-508.94678673774081
10
904.62968861917693
20
-497.20901552893514
42
0.41421356237330725
10
903.44362932762533
20
-496.43877961901916
10
891.70585811881949
20
-498.9337199088323
42
0.41421356237309503
10
890.93562220890362
20
-500.11977920038368
10
893.43056249871665
20
-511.85755040918957
42
0.41421356237309503
10
894.61662179026814
20
-512.62778631910555
0
CIRCLE
5
155
100
AcDbEntity
8
0
100
AcDbCircle
10
812.19754914690475
20
-535.37623457323775
30
0
40
1.7500000000000044
210
0
220
0
230
1
0
LWPOLYLINE
5
156
100
AcDbEntity
8
0
100
AcDbPolyline
90
8
70
1
43
0.0
10
923.26340041315564
20
-493.24829781885683
42
0.4142135623730136
10
922.07734112160415
20
-492.47806190894084
10
910.33956991279842
20
-494.97300219875405
42
0.41421356237322582
10
909.56933400288233
20
-496.15906149030548
10
912.06427429269581
20
-507.8968326991112
42
0.41421356237299323
10
913.25033358424753
20
-508.66706860902718
10
924.98810479305291
20
-506.17212831921404
42
0.41421356237311974
10
925.75834070296901
20
-504.98606902766261
0
LWPOLYLINE
5
157
100
AcDbEntity
8
0
100
AcDbPolyline
90
8
70
1
43
0.0
10
847.35824758907199
20
-495.2082681192677
10
849.85318787888502
20
-483.47049691046209
42
0.41421356237307039
10
849.08295196896904
20
-482.28443761891043
10
837.34518076016343
20
-479.78949732909763
42
0.41421356237296425
10
836.1591214686116
20
-480.55973323901355
10
833.66418117879846
20
-492.29750444781928
42
0.41421356237311541
10
834.43441708871444
20
-493.48356373937088
10
846.17218829752017
20
-495.9785040291838
42
0.41421356237313572
0
LWPOLYLINE
5
158
100
AcDbEntity
8
0
100
AcDbPolyline
90
20
70
1
43
0.0
10
890.98855815360275
20
-518.56917459014187
10
892.39513778498804
20
-518.27019685997936
10
895.09798608667461
20
-530.98611498903301
42
0.41421356237294388
10
896.28404537822587
20
-531.75635089894888
10
908.02181658703205
20
-529.2614106091354
42
0.41421356237305429
10
908.79205249694792
20
-528.07535131758391
10
906.08920279600966
20
-515.35943348595083
10
907.49577706358991
20
-515.06045689590053
10
910.52816950773445
20
-529.32673527297106
42
0.41421420394494829
10
911.71422938096202
20
-530.0969731310804
10
916.6049681862853
20
-529.05741450659457
42
0.41421420394506847
10
917.37520383518722
20
-527.87135319869083
10
913.8531802765375
20
-511.30153511837591
42
0.41421420394667818
10
912.66712040330981
20
-510.53129726026663
10
884.42213111334422
20
-516.53495506814852
42
0.41421474950312065
10
883.65189364250011
20
-517.72101676331806
10
887.17391720114983
20
-534.29083484363309
42
0.4142147495035654
10
888.35997889631926
20
-535.06107231447675
10
893.25071587970092
20
-534.02151407725671
42
0.41421365839032886
10
894.02094970666076
20
-532.83545315661866
0
LWPOLYLINE
5
159
100
AcDbEntity
8
0
100
AcDbPolyline
90
8
70
1
43
0.0
10
871.53685070473784
20
-477.55826811926795
42
0.41421356237316048
10
872.72290999628922
20
-478.32850402918393
10
884.46068120509483
20
-475.83356373937085
42
0.41421356237313572
10
885.23091711501115
20
-474.64750444781919
10
882.73597682519789
20
-462.90973323901363
42
0.41421356237302964
10
881.54991753364607
20
-462.13949732909759
10
869.81214632484068
20
-464.63443761891074
42
0.4142135623731808
10
869.0419104149247
20
-465.82049691046228
0
LWPOLYLINE
5
160
100
AcDbEntity
8
0
100
AcDbPolyline
90
8
70
1
43
0.0
10
915.35033358424755
20
-449.79706860902746
10
927.08810479305271
20
-447.30212831921426
42
0.41421356237307466
10
927.85834070296926
20
-446.11606902766266
10
925.36340041315611
20
-434.37829781885688
42
0.41421356237290752
10
924.17734112160417
20
-433.60806190894073
10
912.43956991279845
20
-436.10300219875398
42
0.41421356237302964
10
911.66933400288258
20
-437.28906149030564
10
914.16427429269561
20
-449.02683269911131
42
0.41421356237309503
0
LINE
5
161
100
AcDbEntity
8
0
100
AcDbLine
10
1006.1575491469046
20
-483.00184754890563
30
0
11
1018.1575491469046
21
-483.00184754890563
31
0
0
CIRCLE
5
162
100
AcDbEntity
8
0
100
AcDbCircle
10
701.71754914690337
20
-516.88184754890574
30
0
40
2
210
0
220
0
230
1
0
CIRCLE
5
163
100
AcDbEntity
8
0
100
AcDbCircle
10
701.71754914690337
20
-521.38184754890574
30
0
40
2
210
0
220
0
230
1
0
CIRCLE
5
164
100
AcDbEntity
8
0
100
AcDbCircle
10
812.18498324298321
20
-422.26184754890568
30
0
40
1.7499999999999971
210
0
220
0
230
1
0
LWPOLYLINE
5
165
100
AcDbEntity
8
0
100
AcDbPolyline
90
8
70
1
43
0.0
10
960.53754914690444
20
-461.89184754890573
10
960.53754914690444
20
-449.89184754890573
42
0.41421356237307422
10
959.53754914690512
20
-448.89184754890607
10
947.53754914690489
20
-448.89184754890584
42
0.41421356237299095
10
946.53754914690467
20
-449.89184754890573
10
946.53754914690467
20
-461.89184754890573
42
0.41421356237315748
10
947.53754914690501
20
-462.89184754890579
10
959.53754914690512
20
-462.89184754890584
42
0.41421356237297013
0
LWPOLYLINE
5
166
100
AcDbEntity
8
0
100
AcDbPolyline
90
8
70
1
43
0.0
10
988.20754914690474
20
-470.00184754890574
42
0.41421356237309503
10
987.20754914690474
20
-469.0018475489058
10
975.20754914690428
20
-469.00184754890574
42
0.41421356237294937
10
974.20754914690463
20
-470.00184754890574
10
974.20754914690463
20
-482.00184754890563
42
0.41421356237319906
10
975.2075491469044
20
-483.0018475489058
10
987.20754914690474
20
-483.00184754890563
42
0.41421356237307422
10
988.20754914690485
20
-482.00184754890563
0
LWPOLYLINE
5
167
100
AcDbEntity
8
0
100
AcDbPolyline
90
8
70
1
43
0.0
10
979.16754914690443
20
-462.95184754890579
10
979.16754914690443
20
-450.95184754890573
42
0.41421356237313667
10
978.16754914690455
20
-449.95184754890573
10
966.167549146905
20
-449.95184754890579
42
0.41421356237326151
10
965.16754914690512
20
-450.95184754890573
10
965.167549146905
20
-462.95184754890579
42
0.4142135623730534
10
966.16754914690443
20
-463.95184754890568
10
978.16754914690455
20
-463.95184754890585
42
0.41421356237313667
0
ARC
5
168
100
AcDbEntity
8
0
100
AcDbCircle
10
997.71955028583079
20
-483.58684681219211
30
0
40
1.0000000000027072
210
0
220
0
230
1
100
AcDbArc
50
179.99988388678412
51
270.00011611318985
0
LWPOLYLINE
5
169
100
AcDbEntity
8
0
100
AcDbPolyline
90
8
70
1
43
0.0
10
952.89754914690502
20
-442.76184754890579
10
964.89754914690502
20
-442.76184754890585
42
0.41421356237313667
10
965.89754914690502
20
-441.76184754890579
10
965.89754914690445
20
-429.76184754890573
42
0.41421356237309503
10
964.89754914690502
20
-428.76184754890602
10
952.89754914690502
20
-428.76184754890579
42
0.41421356237326151
10
951.89754914690513
20
-429.76184754890573
10
951.89754914690468
20
-441.76184754890579
42
0.41421356237309503
0
LINE
5
170
100
AcDbEntity
8
0
100
AcDbLine
10
1021.5955506454844
20
-484.58684681219216
30
0
11
1026.5955514650484
21
-484.58684681219216
31
0
0
CIRCLE
5
171
100
AcDbEntity
8
0
100
AcDbCircle
10
925.03629914690453
20
-535.27022198810425
30
0
40
1.7499999999999993
210
0
220
0
230
1
0
ARC
5
172
100
AcDbEntity
8
0
100
AcDbCircle
10
1002.7195495705736
20
-483.58684681219086
30
0
40
1.0000000000029492
210
0
220
0
230
1
100
AcDbArc
50
-89.999902669745708
51
0.00011611321589023664
0
LWPOLYLINE
5
173
100
AcDbEntity
8
0
100
AcDbPolyline
90
8
70
1
43
0.0
10
982.84754914690461
20
-489.0518475489057
42
0.41421356237294937
10
981.84754914690473
20
-488.05184754890576
10
969.84754914690484
20
-488.0518475489057
42
0.41421356237303258
10
968.84754914690461
20
-489.0518475489057
10
968.84754914690461
20
-501.0518475489057
42
0.41421356237297013
10
969.84754914690484
20
-502.05184754890576
10
981.84754914690473
20
-502.05184754890576
42
0.41421356237294937
10
982.84754914690461
20
-501.0518475489057
0
LINE
5
174
100
AcDbEntity
8
0
100
AcDbLine
10
1003.7195491468988
20
-469.00184897941767
30
0
11
1005.1575526039738
21
-469.00184897941767
31
0
0
ARC
5
175
100
AcDbEntity
8
0
100
AcDbCircle
10
1018.1575511734616
20
-482.00184754890478
30
0
40
1.0000000000028493
210
0
220
0
230
1
100
AcDbArc
50
-90.000116113163784
51
0
0
LWPOLYLINE
5
176
100
AcDbEntity
8
0
100
AcDbPolyline
90
8
70
1
43
0.0
10
875.98290999628932
20
-516.5885040291837
10
887.72068120509493
20
-514.09356373937067
42
0.41421356237311974
10
888.49091711501092
20
-512.90750444781918
10
885.995976825198
20
-501.16973323901357
42
0.41421356237299761
10
884.80991753364606
20
-500.39949732909753
10
873.07214632484045
20
-502.89443761891062
42
0.41421356237296858
10
872.30191041492446
20
-504.08049691046222
10
874.79685070473749
20
-515.81826811926805
42
0.41421356237294388
0
LWPOLYLINE
5
177
100
AcDbEntity
8
0
100
AcDbPolyline
90
8
70
1
43
0.0
10
962.79754914690466
20
-502.05184754890581
42
0.41421356237307422
10
963.79754914690466
20
-501.05184754890564
10
963.79754914690466
20
-489.0518475489057
42
0.41421356237294937
10
962.79754914690466
20
-488.05184754890576
10
950.79754914690466
20
-488.05184754890576
42
0.41421356237301177
10
949.79754914690477
20
-489.0518475489057
10
949.79754914690477
20
-501.0518475489057
42
0.41421356237299095
10
950.79754914690511
20
-502.05184754890576
0
ARC
5
178
100
AcDbEntity
8
0
100
AcDbCircle
10
1006.1575526039746
20
-482.00184754890472
30
0
40
1.0000034570700223
210
0
220
0
230
1
100
AcDbArc
50
180
51
269.99980192447583
0
CIRCLE
5
179
100
AcDbEntity
8
0
100
AcDbCircle
10
1040.0362991469042
20
-525.90184754890549
30
0
40
1.749999999999992
210
0
220
0
230
1
0
ARC
5
180
100
AcDbEntity
8
0
100
AcDbCircle
10
1026.5955516289587
20
-483.58684681218745
30
0
40
1.0000000000047884
210
0
220
0
230
1
100
AcDbArc
50
-90.000009391366802
51
0.00011611321589023664
0
ARC
5
181
100
AcDbEntity
8
0
100
AcDbCircle
10
1021.5955504815747
20
-483.58684681218745
30
0
40
1.0000000000048388
210
0
220
0
230
1
100
AcDbArc
50
179.99988388678412
51
270.00000939133423
0
LINE
5
182
100
AcDbEntity
8
0
100
AcDbLine
10
997.71955231238826
20
-484.58684681219273
30
0
11
1002.719551269307
21
-484.58684681219239
31
0
0
ARC
5
183
100
AcDbEntity
8
0
100
AcDbCircle
10
1026.5955516289612
20
-466.64684508604415
30
0
40
1.0000000000019966
210
0
220
0
230
1
100
AcDbArc
50
-0.00011611321589021677
51
90.000009391523136
0
LINE
5
184
100
AcDbEntity
8
0
100
AcDbLine
10
1026.5955514650482
20
-465.64684508604216
30
0
11
997.71955231238803
21
-465.64684508604228
31
0
0
LINE
5
185
100
AcDbEntity
8
0
100
AcDbLine
10
1019.1575511734624
20
-469.00184897941756
30
0
11
1020.5955491469022
21
-469.00184897941756
31
0
0
ARC
5
186
100
AcDbEntity
8
0
100
AcDbCircle
10
997.71955028583102
20
-466.64684508604324
30
0
40
1.0000000000029914
210
0
220
-0
230
1
100
AcDbArc
50
89.999883886836216
51
180.00011611321588
0
LINE
5
187
100
AcDbEntity
8
0
100
AcDbLine
10
1020.5955491469022
20
-469.00184897941756
30
0
11
1020.595550481572
21
-483.58684478562958
31
0
0
LWPOLYLINE
5
188
100
AcDbEntity
8
0
100
AcDbPolyline
90
8
70
1
43
0.0
10
844.3199947969282
20
-521.24275028463228
10
841.82505450711483
20
-532.98052149343778
42
0.41421356237314011
10
842.59529041703104
20
-534.16658078498938
10
856.66105291558324
20
-537.15635089894886
42
0.41421356237320117
10
857.84711220713473
20
-536.38611498903288
10
860.34205249694764
20
-524.64834378022715
42
0.41421356237322154
10
859.57181658703166
20
-523.46228448867566
10
845.50605408847957
20
-520.47251437471618
42
0.41421356237294388
0
CIRCLE
5
189
100
AcDbEntity
8
0
100
AcDbCircle
10
697.19754914690486
20
-525.90184754890549
30
0
40
1.7499999999999913
210
0
220
0
230
1
0
LINE
5
190
100
AcDbEntity
8
0
100
AcDbLine
10
1005.1575526039738
20
-469.00184897941767
30
0
11
1005.1575491469046
21
-482.00184754890472
31
0
0
CIRCLE
5
191
100
AcDbEntity
8
0
100
AcDbCircle
10
701.71754914690337
20
-512.38184754890563
30
0
40
2
210
0
220
0
230
1
0
LINE
5
192
100
AcDbEntity
8
0
100
AcDbLine
10
1003.7195495705746
20
-483.58684478563299
30
0
11
1003.7195491468988
21
-469.00184897941767
31
0
0
LWPOLYLINE
5
193
100
AcDbEntity
8
0
100
AcDbPolyline
90
8
70
1
43
0.0
10
702.9975491469047
20
-466.86184754890576
42
0.41421356237301177
10
701.9975491469047
20
-467.8618475489057
10
701.99754914690493
20
-479.86184754890576
42
0.41421356237294937
10
702.9975491469047
20
-480.86184754890564
10
714.9975491469047
20
-480.86184754890581
42
0.41421356237294937
10
715.99754914690482
20
-479.86184754890564
10
715.9975491469047
20
-467.86184754890598
42
0.41421356237299095
10
714.9975491469047
20
-466.86184754890576
0
CIRCLE
5
194
100
AcDbEntity
8
0
100
AcDbCircle
10
697.19754914690486
20
-423.96184754890567
30
0
40
1.7500000000000111
210
0
220
0
230
1
0
ENDSEC
0
SECTION
2
OBJECTS
0
DICTIONARY
5
C
100
AcDbDictionary
3
ACAD_GROUP
350
D
3
ACAD_MLINESTYLE
350
17
0
DICTIONARY
5
D
100
AcDbDictionary
0
DICTIONARY
5
1A
330
C
100
AcDbDictionary
0
DICTIONARY
5
17
100
AcDbDictionary
0
ENDSEC
0
EOF
