0
SECTION
2
HEADER
9
$INSUNITS
70
4
9
$ACADVER
1
AC1014
9
$HANDSEED
5
FFFF
0
ENDSEC
0
SECTION
2
TABLES
0
TABLE
2
VPORT
5
8
100
AcDbSymbolTable
0
ENDTAB
0
TABLE
2
LTYPE
5
5
100
AcDbSymbolTable
0
LTYPE
5
14
100
AcDbSymbolTableRecord
100
AcDbLinetypeTableRecord
2
BYBLOCK
70
0
0
LTYPE
5
15
100
AcDbSymbolTableRecord
100
AcDbLinetypeTableRecord
2
BYLAYER
70
0
0
ENDTAB
0
TABLE
2
LAYER
5
2
100
AcDbSymbolTable
70
2
0
LAYER
5
50
100
AcDbSymbolTableRecord
100
AcDbLayerTableRecord
2
0
70
0
6
CONTINUOUS
0
ENDTAB
0
TABLE
2
STYLE
5
3
100
AcDbSymbolTable
70
1
0
STYLE
5
11
100
AcDbSymbolTableRecord
100
AcDbTextStyleTableRecord
2
STANDARD
70
0
0
ENDTAB
0
TABLE
2
VIEW
5
6
100
AcDbSymbolTable
70
0
0
ENDTAB
0
TABLE
2
UCS
5
7
100
AcDbSymbolTable
70
0
0
ENDTAB
0
TABLE
2
APPID
5
9
100
AcDbSymbolTable
70
2
0
APPID
5
12
100
AcDbSymbolTableRecord
100
AcDbRegAppTableRecord
2
ACAD
70
0
0
ENDTAB
0
TABLE
2
DIMSTYLE
5
A
100
AcDbSymbolTable
70
1
0
ENDTAB
0
TABLE
2
BLOCK_RECORD
5
1
100
AcDbSymbolTable
70
1
0
BLOCK_RECORD
5
1F
100
AcDbSymbolTableRecord
100
AcDbBlockTableRecord
2
*MODEL_SPACE
0
BLOCK_RECORD
5
1B
100
AcDbSymbolTableRecord
100
AcDbBlockTableRecord
2
*PAPER_SPACE
0
ENDTAB
0
ENDSEC
0
SECTION
2
BLOCKS
0
BLOCK
5
20
100
AcDbEntity
100
AcDbBlockBegin
2
*MODEL_SPACE
0
ENDBLK
5
21
100
AcDbEntity
100
AcDbBlockEnd
0
BLOCK
5
1C
100
AcDbEntity
100
AcDbBlockBegin
2
*PAPER_SPACE
0
ENDBLK
5
1D
100
AcDbEntity
100
AcDbBlockEnd
0
ENDSEC
0
SECTION
2
ENTITIES
0
LWPOLYLINE
5
100
100
AcDbEntity
8
0
100
AcDbPolyline
90
12
70
1
43
0.0
10
28.253229271256544
20
-697.16418606566663
10
116.03318220572046
20
-715.82239104497251
42
0.10510423526567908
10
132.66611747114069
20
-715.82239104497239
10
220.44607040560464
20
-697.16418606566663
10
301.71839983843097
20
-697.16418606566674
42
0.41421356237311169
10
306.71839983843097
20
-692.16418606566674
10
306.71839983843074
20
-578.82418606566739
42
0.4142135623730992
10
301.71839983843086
20
-573.82418606566739
10
-52.520350161567251
20
-573.82418606566739
42
0.41421356237310752
10
-57.520350161567251
20
-578.82418606566728
10
-57.520350161567251
20
-692.16418606566663
42
0.41421356237310336
10
-52.520350161567109
20
-697.16418606566663
0
CIRCLE
5
101
100
AcDbEntity
8
0
100
AcDbCircle
10
68.167083934510657
20
-582.82418606566739
30
0
40
1.749999999999992
210
0
220
0
230
1
0
CIRCLE
5
102
100
AcDbEntity
8
0
100
AcDbCircle
10
181.01839983843163
20
-695.83256050486534
30
0
40
1.7500000000000004
210
0
220
0
230
1
0
CIRCLE
5
103
100
AcDbEntity
8
0
100
AcDbCircle
10
68.17964983843197
20
-695.93857308999895
30
0
40
1.7500000000000004
210
0
220
0
230
1
0
CIRCLE
5
104
100
AcDbEntity
8
0
100
AcDbCircle
10
296.01839983843064
20
-584.52418606566744
30
0
40
1.7499999999999982
210
0
220
0
230
1
0
CIRCLE
5
105
100
AcDbEntity
8
0
100
AcDbCircle
10
-46.820350161567177
20
-686.46418606566669
30
0
40
1.7500000000000004
210
0
220
0
230
1
0
CIRCLE
5
106
100
AcDbEntity
8
0
100
AcDbCircle
10
-46.820350161567319
20
-584.52418606566732
30
0
40
1.7500000000000018
210
0
220
0
230
1
0
CIRCLE
5
107
100
AcDbEntity
8
0
100
AcDbCircle
10
296.01839983843081
20
-686.46418606566669
30
0
40
1.7500000000000004
210
0
220
0
230
1
0
CIRCLE
5
108
100
AcDbEntity
8
0
100
AcDbCircle
10
181.54111446056888
20
-547.68485594560912
30
0
40
1.7500000000000004
210
0
220
0
230
1
0
LWPOLYLINE
5
109
100
AcDbEntity
8
0
100
AcDbPolyline
90
27
70
1
43
0.0
10
124.87236446056824
20
-556.15197851771927
10
30.142298951848183
20
-536.01648150641051
10
-42.497635539428913
20
-536.0164815064104
42
-0.41421356237309503
10
-43.997635539429098
20
-534.51648150641017
10
-43.997635539428757
20
-440.17648150641105
42
-0.41421356237309503
10
-42.497635539428771
20
-438.67648150641111
10
119.59716446056942
20
-438.67648150641139
10
119.52236446056685
20
-425.67648150641139
10
-51.997635539428828
20
-425.67648150641105
42
0.41421356237308671
10
-56.997635539428806
20
-430.67648150641099
10
-56.997635539428913
20
-544.01648150641006
42
0.41421356237309503
10
-51.997635539428927
20
-549.01648150641006
10
28.775943893394498
20
-549.01648150641006
10
116.55589682785801
20
-567.67468648571571
42
0.10510423526567428
10
133.18883209327822
20
-567.67468648571582
10
220.96878502774217
20
-549.01648150641029
10
302.24111446056816
20
-549.0164815064104
42
0.41421356237309503
10
307.24111446056816
20
-544.01648150641063
10
307.24111446056816
20
-430.67648150641156
42
0.41421356237309503
10
302.24111446056816
20
-425.67648150641162
10
130.22236446057161
20
-425.67648150641133
10
130.14756446056907
20
-438.67648150641139
10
292.74111446056844
20
-438.67648150641185
42
-0.41421356237309503
10
294.2411144605681
20
-440.17648150641151
10
294.24111446056838
20
-534.51648150641063
42
-0.41421356237309503
10
292.74111446056844
20
-536.01648150641051
10
219.60242996928855
20
-536.01648150641051
0
CIRCLE
5
110
100
AcDbEntity
8
0
100
AcDbCircle
10
68.702364460569896
20
-547.7908685307425
30
0
40
1.7500000000000049
210
0
220
0
230
1
0
CIRCLE
5
111
100
AcDbEntity
8
0
100
AcDbCircle
10
296.54111446056811
20
-436.37648150641149
30
0
40
1.750000000000006
210
0
220
0
230
1
0
LINE
5
112
100
AcDbEntity
8
0
100
AcDbLine
10
119.59716446056942
20
-438.67648150641139
30
0
11
119.59716446056942
21
-432.5045799636959
31
0
0
CIRCLE
5
113
100
AcDbEntity
8
0
100
AcDbCircle
10
-46.297635539428924
20
-538.31648150641013
30
0
40
1.7500000000000004
210
0
220
0
230
1
0
CIRCLE
5
114
100
AcDbEntity
8
0
100
AcDbCircle
10
181.54111446056896
20
-435.17648150641116
30
0
40
1.7500000000000082
210
0
220
0
230
1
0
LINE
5
115
100
AcDbEntity
8
0
100
AcDbLine
10
130.14756446056904
20
-432.50458438252628
30
0
11
130.14756446056904
21
-438.67648150641139
31
0
0
CIRCLE
5
116
100
AcDbEntity
8
0
100
AcDbCircle
10
-46.297635539428853
20
-436.37648150641104
30
0
40
1.7500000000000044
210
0
220
0
230
1
0
CIRCLE
5
117
100
AcDbEntity
8
0
100
AcDbCircle
10
68.689798556648654
20
-434.67648150641105
30
0
40
1.7500000000000104
210
0
220
0
230
1
0
CIRCLE
5
118
100
AcDbEntity
8
0
100
AcDbCircle
10
181.01839983843149
20
-583.32418606566739
30
0
40
1.7500000000000082
210
0
220
0
230
1
0
CIRCLE
5
119
100
AcDbEntity
8
0
100
AcDbCircle
10
296.54111446056783
20
-538.31648150641047
30
0
40
1.749999999999996
210
0
220
0
230
1
0
CIRCLE
5
120
100
AcDbEntity
8
0
100
AcDbCircle
10
334.18708068211458
20
-459.81429200222703
30
0
40
1.7499999999999476
210
0
220
0
230
1
0
CIRCLE
5
121
100
AcDbEntity
8
0
100
AcDbCircle
10
439.87408068211431
20
-459.81429200222698
30
0
40
1.7499999999999949
210
0
220
0
230
1
0
ARC
5
122
100
AcDbEntity
8
0
100
AcDbCircle
10
327.18696372874945
20
-461.81429200222692
30
0
40
5.0000000000001421
210
0
220
0
230
1
100
AcDbArc
50
180
51
270
0
LINE
5
123
100
AcDbEntity
8
0
100
AcDbLine
10
322.18696372874933
20
-457.81429200222692
30
0
11
322.18696372874933
21
-461.81429200222681
31
0
0
ARC
5
124
100
AcDbEntity
8
0
100
AcDbCircle
10
327.18696372874916
20
-457.81429200222675
30
0
40
4.9999999999998579
210
0
220
-0
230
1
100
AcDbArc
50
89.999999999998053
51
180
0
LWPOLYLINE
5
125
100
AcDbEntity
8
0
100
AcDbPolyline
90
44
70
1
43
0.0
10
129.6360739971295
20
-236.89971469569258
42
0.41421356237309165
10
131.41516293445699
20
-238.05506856056653
10
181.72831423293195
20
-227.36067811377893
42
0.41343065285069669
10
183.50656406773203
20
-228.51211010018937
10
209.50573253981099
20
-222.98581624348461
42
0.41421356237308826
10
210.66108640468514
20
-221.20672730615723
10
207.0925624747718
20
-204.41814217909257
10
258.3063966671566
20
-204.41814217909257
10
258.30639666715655
20
-222.01614217909253
42
0.41421356237311585
10
259.80639666715672
20
-223.51614217909275
10
286.40639666715657
20
-223.51614217909255
42
0.41421356237310197
10
287.90639666715657
20
-222.01614217909253
10
287.90639666715668
20
-204.41814217909257
10
290.07954666715659
20
-204.41814217909257
42
0.41421356237310897
10
291.57954666715676
20
-202.91814217909251
10
291.57954666715636
20
-185.85814217909257
42
0.41421356237309503
10
290.07954666715659
20
-184.35814217909279
10
287.40079666715667
20
-184.35814217909243
10
287.40079666715667
20
-166.80814217909258
42
0.41421356237306034
10
285.90079666715656
20
-165.3081421790925
10
283.14079666715674
20
-165.3081421790925
10
283.14079666715668
20
-147.75814217909254
42
0.41421356237310197
10
281.64079666715656
20
-146.25814217909243
10
278.97079666715638
20
-146.25814217909243
10
278.97079666715661
20
-128.70814217909256
42
0.41421356237310197
10
277.47079666715666
20
-127.20814217909265
10
222.24079666715642
20
-127.20814217909258
10
222.24079666715647
20
-126.56814217909258
42
0.41421356237309503
10
220.7407966671567
20
-125.0681421790928
10
202.21082513414251
20
-125.06814217909252
42
0.010008486346708154
10
202.15079225891452
20
-125.06934397590044
10
199.56269964194627
20
-125.17300745829729
42
0.042377065210208537
10
199.31086498094785
20
-125.20458426038864
10
125.3718433739952
20
-140.92080846640806
42
0.41421356237307733
10
124.21648950912112
20
-142.69989740373524
10
127.86681086219994
20
-159.87330915070206
10
120.02184337399493
20
-161.54080846640795
42
0.41421356237304879
10
118.86648950912105
20
-163.3198974037353
10
122.41346295447214
20
-180.00709547225401
42
0.41421356237306789
10
124.1925518917993
20
-181.16244933712809
10
127.38529422120969
20
-180.48381100529025
10
131.13473370529172
20
-198.12353689577009
10
123.28223217301411
20
-199.79263762197959
42
0.41421356237310936
10
122.12687830814004
20
-201.57172655930705
0
LWPOLYLINE
5
126
100
AcDbEntity
8
0
100
AcDbPolyline
90
12
70
1
43
0.0
10
299.04954666715571
20
-235.93814217909232
42
0.41421356237309087
10
304.04954666715577
20
-230.93814217909232
10
304.0495466671556
20
-117.59814217909245
42
0.41421356237309503
10
299.04954666715554
20
-112.59814217909249
10
-55.189203332843931
20
-112.59814217909249
42
0.41421356237308776
10
-60.189203332843888
20
-117.59814217909249
10
-60.189203332843931
20
-230.93814217909232
42
0.41421356237309037
10
-55.189203332843945
20
-235.93814217909241
10
25.584376099980251
20
-235.93814217909232
10
113.36432903444455
20
-254.59634715839803
42
0.10510423526567246
10
129.9972642998649
20
-254.59634715839815
10
217.77721723432938
20
-235.93814217909232
0
LWPOLYLINE
5
127
100
AcDbEntity
8
0
100
AcDbPolyline
90
44
70
1
43
0.0
10
24.625860794502273
20
-222.98581624348461
10
50.625024022006784
20
-228.51210898542081
42
0.41421356237308282
10
52.40411295933427
20
-227.35675512054667
10
52.404791943862534
20
-227.35356074949024
10
111.81904144251402
20
-239.98244933712812
42
0.41421356237305218
10
113.59813037984131
20
-238.82709547225397
10
117.14510382519217
20
-222.13989740373501
42
0.41421356237309165
10
115.98974996031806
20
-220.36080846640772
10
108.35587316124288
20
-218.73817786178381
10
112.00510382519224
20
-201.56989740373535
42
0.4142135623730665
10
110.84974996031815
20
-199.79080846640798
10
103.00681615532864
20
-198.12374142341397
10
106.65510382519213
20
-180.95989740373525
42
0.41421356237308415
10
105.49974996031804
20
-179.180808466408
10
102.30714398267023
20
-178.50219911703203
10
106.05843724168905
20
-160.85375190116852
10
113.90904144251402
20
-162.52244933712802
42
0.41421356237311202
10
115.68813037984131
20
-161.36709547225396
10
119.23510382519224
20
-144.67989740373528
42
0.41421356237309914
10
118.07974996031814
20
-142.90080846640788
10
41.280796667156643
20
-126.57668701455691
10
41.280796667156629
20
-126.5681421790925
42
0.41421356237309337
10
39.780796667156579
20
-125.06814217909245
10
22.720796667156705
20
-125.06814217909253
42
0.41421356237309764
10
21.220796667156719
20
-126.5681421790925
10
21.220796667156577
20
-127.20814217909258
10
-14.969203332843332
20
-127.20814217909259
42
0.41421356237309764
10
-16.469203332843314
20
-128.70814217909256
10
-16.469203332843318
20
-146.25814217909254
10
-19.129203332843439
20
-146.25814217909254
42
0.41421356237309159
10
-20.629203332843424
20
-147.75814217909254
10
-20.629203332843282
20
-165.3081421790925
10
-23.199203332843261
20
-165.3081421790925
42
0.41421356237310025
10
-24.699203332843314
20
-166.80814217909258
10
-24.699203332843314
20
-184.35814217909243
10
-27.369203332843274
20
-184.35814217909243
42
0.41421356237310897
10
-28.86920333284333
20
-185.85814217909257
10
-28.86920333284332
20
-221.9681421790925
42
0.41421356237310636
10
-27.369203332843277
20
-223.46814217909255
10
-0.76920333284332576
20
-223.46814217909255
42
0.41421356237310547
10
0.73079666715672953
20
-221.9681421790925
10
0.7307966671567323
20
-204.41814217909257
10
27.03903085954153
20
-204.41814217909257
10
23.470506929628275
20
-221.20672730615726
42
0.41421356237308871
0
LWPOLYLINE
5
128
100
AcDbEntity
8
0
100
AcDbPolyline
90
20
70
1
43
0.0
10
-20.929203332843223
20
-145.12814217909246
42
0.41421356237310458
10
-19.429203332843237
20
-143.62814217909255
10
-19.429203332843336
20
-126.5681421790925
42
0.41421356237310375
10
-20.929203332843223
20
-125.06814217909259
10
-37.989203332843317
20
-125.06814217909253
42
0.41421356237309764
10
-39.489203332843296
20
-126.5681421790925
10
-39.489203332843296
20
-144.1181421790925
10
-42.149203332843285
20
-144.11814217909244
42
0.41421356237308637
10
-43.649203332843413
20
-145.61814217909256
10
-43.649203332843413
20
-163.16814217909254
10
-46.2192033328433
20
-163.16814217909254
42
0.4142135623730846
10
-47.719203332843286
20
-164.66814217909251
10
-47.719203332843279
20
-181.72814217909252
42
0.41421356237309337
10
-46.2192033328433
20
-183.22814217909243
10
-29.159203332843365
20
-183.22814217909243
42
0.41421356237309243
10
-27.659203332843379
20
-181.72814217909252
10
-27.659203332843379
20
-164.17814217909253
10
-25.089203332843333
20
-164.17814217909253
42
0.41421356237309681
10
-23.589203332843418
20
-162.67814217909262
10
-23.589203332843418
20
-145.12814217909244
0
CIRCLE
5
129
100
AcDbEntity
8
0
100
AcDbCircle
10
178.34954666715566
20
-234.60651661829115
30
0
40
1.7500000000000004
210
0
220
0
230
1
0
CIRCLE
5
130
100
AcDbEntity
8
0
100
AcDbCircle
10
293.34954666715561
20
-225.23814217909234
30
0
40
1.749999999999996
210
0
220
0
230
1
0
CIRCLE
5
131
100
AcDbEntity
8
0
100
AcDbCircle
10
178.34954666715566
20
-122.09814217909248
30
0
40
1.750000000000006
210
0
220
0
230
1
0
CIRCLE
5
132
100
AcDbEntity
8
0
100
AcDbCircle
10
65.510796667156072
20
-234.71252920342459
30
0
40
1.7500000000000049
210
0
220
0
230
1
0
LINE
5
133
100
AcDbEntity
8
0
100
AcDbLine
10
-49.430214410544082
20
-121.54913665964841
30
0
11
-49.496206565622202
21
-121.54913665964841
31
0
0
CIRCLE
5
134
100
AcDbEntity
8
0
100
AcDbCircle
10
293.34954666715561
20
-123.29814217909245
30
0
40
1.7500000000000009
210
0
220
0
230
1
0
CIRCLE
5
135
100
AcDbEntity
8
0
100
AcDbCircle
10
181.03139983843107
20
-603.82418606566739
30
0
40
1.7500000000000129
210
0
220
0
230
1
0
CIRCLE
5
136
100
AcDbEntity
8
0
100
AcDbCircle
10
-49.48920333284385
20
-123.29814217909248
30
0
40
1.7500000000000004
210
0
220
0
230
1
0
CIRCLE
5
137
100
AcDbEntity
8
0
100
AcDbCircle
10
65.498230763234616
20
-121.59814217909246
30
0
40
1.7500000000000016
210
0
220
0
230
1
0
CIRCLE
5
138
100
AcDbEntity
8
0
100
AcDbCircle
10
68.166649838432392
20
-603.82418606566739
30
0
40
1.7499999999999949
210
0
220
0
230
1
0
CIRCLE
5
139
100
AcDbEntity
8
0
100
AcDbCircle
10
-37.520350161567251
20
-603.82418606566739
30
0
40
1.7499999999999476
210
0
220
0
230
1
0
CIRCLE
5
140
100
AcDbEntity
8
0
100
AcDbCircle
10
286.71839983843086
20
-603.82418606566739
30
0
40
1.7499999999999469
210
0
220
0
230
1
0
CIRCLE
5
141
100
AcDbEntity
8
0
100
AcDbCircle
10
-49.48920333284385
20
-225.23814217909234
30
0
40
1.7499999999999918
210
0
220
0
230
1
0
ARC
5
142
100
AcDbEntity
8
0
100
AcDbCircle
10
344.02153897629211
20
-136.18659912624949
30
0
40
1.4999999999999147
210
0
220
-0
230
1
100
AcDbArc
50
90
51
180
0
ARC
5
143
100
AcDbEntity
8
0
100
AcDbCircle
10
334.52153897629211
20
-126.68659912624963
30
0
40
5
210
0
220
-0
230
1
100
AcDbArc
50
90
51
180
0
LINE
5
144
100
AcDbEntity
8
0
100
AcDbLine
10
506.11633897629054
20
-134.68659912624986
30
0
11
506.11633897629054
21
-128.51469758353446
31
0
0
ARC
5
145
100
AcDbEntity
8
0
100
AcDbCircle
10
334.52153897629194
20
-240.0265991262487
30
0
40
5
210
0
220
0
230
1
100
AcDbArc
50
180
51
270
0
LINE
5
146
100
AcDbEntity
8
0
100
AcDbLine
10
415.29511840911545
20
-245.0265991262487
30
0
11
503.07507134357911
21
-263.68480410555435
31
0
0
ARC
5
147
100
AcDbEntity
8
0
100
AcDbCircle
10
344.02153897629199
20
-230.52659912624881
30
0
40
1.500000000000199
210
0
220
0
230
1
100
AcDbArc
50
180
51
270
0
CIRCLE
5
148
100
AcDbEntity
8
0
100
AcDbCircle
10
455.2089730723697
20
-130.68659912624966
30
0
40
1.7500000000000104
210
0
220
0
230
1
0
LINE
5
149
100
AcDbEntity
8
0
100
AcDbLine
10
416.66147346756924
20
-232.02659912624915
30
0
11
344.02153897629199
21
-232.02659912624887
31
0
0
ARC
5
150
100
AcDbEntity
8
0
100
AcDbCircle
10
511.3915389762895
20
-224.55890007620246
30
0
40
39.999999999999652
210
0
220
0
230
1
100
AcDbArc
50
257.99999999999989
51
281.99999999999926
0
LINE
5
151
100
AcDbEntity
8
0
100
AcDbLine
10
415.29511840911545
20
-245.0265991262487
30
0
11
334.52153897629194
21
-245.0265991262487
31
0
0
LINE
5
152
100
AcDbEntity
8
0
100
AcDbLine
10
334.52153897629211
20
-121.68659912624963
30
0
11
506.041538976288
21
-121.68659912624989
31
0
0
LINE
5
153
100
AcDbEntity
8
0
100
AcDbLine
10
342.52153897629177
20
-230.52659912624881
30
0
11
342.52153897629205
21
-136.18659912624949
31
0
0
LINE
5
154
100
AcDbEntity
8
0
100
AcDbLine
10
506.041538976288
20
-121.68659912624989
30
0
11
506.11633897629054
21
-134.68659912624986
31
0
0
CIRCLE
5
155
100
AcDbEntity
8
0
100
AcDbCircle
10
340.22153897629204
20
-132.38659912624954
30
0
40
1.7500000000000044
210
0
220
0
230
1
0
LINE
5
156
100
AcDbEntity
8
0
100
AcDbLine
10
416.66147346756924
20
-232.02659912624915
30
0
11
511.39153897628938
21
-252.16209613755808
31
0
0
LINE
5
157
100
AcDbEntity
8
0
100
AcDbLine
10
329.52153897629211
20
-126.68659912624963
30
0
11
329.52153897629194
21
-240.0265991262487
31
0
0
LINE
5
158
100
AcDbEntity
8
0
100
AcDbLine
10
344.02153897629211
20
-134.68659912624958
30
0
11
506.11633897629054
21
-134.68659912624986
31
0
0
CIRCLE
5
159
100
AcDbEntity
8
0
100
AcDbCircle
10
455.2215389762909
20
-243.80098615058108
30
0
40
1.7500000000000049
210
0
220
0
230
1
0
CIRCLE
5
160
100
AcDbEntity
8
0
100
AcDbCircle
10
340.22153897629204
20
-234.32659912624877
30
0
40
1.7500000000000004
210
0
220
0
230
1
0
LWPOLYLINE
5
161
100
AcDbEntity
8
0
100
AcDbPolyline
90
27
70
1
43
0.0
10
299.86041436371266
20
-262.13796599646003
42
-0.41421356237309503
10
304.86041436371261
20
-267.13796599645997
10
304.86041436371249
20
-380.47796599645886
42
-0.41421356237309503
10
299.86041436371261
20
-385.47796599645869
10
218.58808493088668
20
-385.47796599645858
10
130.80813199642279
20
-404.13617097576406
42
-0.10510423526567403
10
114.17519673100261
20
-404.13617097576389
10
26.395243796539205
20
-385.47796599645829
10
-54.378335636284156
20
-385.47796599645829
42
-0.41421356237309453
10
-59.378335636284127
20
-380.47796599645829
10
-59.37833563628417
20
-267.1379659964594
42
-0.41421356237308671
10
-54.378335636284021
20
-262.1379659964594
10
117.14166436371147
20
-262.13796599645974
10
117.21646436371404
20
-275.13796599645968
10
-44.878335636283985
20
-275.13796599645946
42
0.41421356237309503
10
-46.378335636284035
20
-276.6379659964594
10
-46.378335636284319
20
-370.97796599645841
42
0.41421356237309503
10
-44.878335636284127
20
-372.47796599645858
10
27.761598854992897
20
-372.47796599645875
10
122.49166436371283
20
-392.61346300776773
10
217.22172987243309
20
-372.47796599645875
10
290.36041436371295
20
-372.47796599645875
42
0.41421356237309503
10
291.86041436371261
20
-370.97796599645881
10
291.86041436371261
20
-276.63796599645985
42
0.41421356237309503
10
290.36041436371301
20
-275.13796599646008
10
127.76686436371369
20
-275.13796599645968
10
127.84166436371628
20
-262.13796599645968
0
CIRCLE
5
162
100
AcDbEntity
8
0
100
AcDbCircle
10
179.16041436371341
20
-384.14634043565735
30
0
40
1.7500000000000004
210
0
220
0
230
1
0
CIRCLE
5
163
100
AcDbEntity
8
0
100
AcDbCircle
10
-48.678335636284125
20
-374.77796599645836
30
0
40
1.7500000000000004
210
0
220
0
230
1
0
CIRCLE
5
164
100
AcDbEntity
8
0
100
AcDbCircle
10
66.309098459793333
20
-271.13796599645934
30
0
40
1.7500000000000104
210
0
220
0
230
1
0
CIRCLE
5
165
100
AcDbEntity
8
0
100
AcDbCircle
10
294.16041436371262
20
-272.83796599645984
30
0
40
1.750000000000006
210
0
220
0
230
1
0
CIRCLE
5
166
100
AcDbEntity
8
0
100
AcDbCircle
10
179.16041436371353
20
-271.63796599645946
30
0
40
1.7500000000000082
210
0
220
0
230
1
0
CIRCLE
5
167
100
AcDbEntity
8
0
100
AcDbCircle
10
294.16041436371233
20
-374.77796599645865
30
0
40
1.749999999999996
210
0
220
0
230
1
0
LINE
5
168
100
AcDbEntity
8
0
100
AcDbLine
10
127.76686436371369
20
-268.96606887257462
30
0
11
127.76686436371369
21
-275.13796599645968
31
0
0
CIRCLE
5
169
100
AcDbEntity
8
0
100
AcDbCircle
10
66.321664363714547
20
-384.25235302079079
30
0
40
1.7500000000000049
210
0
220
0
230
1
0
CIRCLE
5
170
100
AcDbEntity
8
0
100
AcDbCircle
10
-48.678335636284054
20
-272.83796599645939
30
0
40
1.7500000000000044
210
0
220
0
230
1
0
LINE
5
171
100
AcDbEntity
8
0
100
AcDbLine
10
117.21646436371404
20
-275.13796599645968
30
0
11
117.21646436371404
21
-268.96606445374425
31
0
0
LINE
5
172
100
AcDbEntity
8
0
100
AcDbLine
10
327.18696372874945
20
-452.81429200222692
30
0
11
496.30646372874878
21
-452.81429200222681
31
0
0
LINE
5
173
100
AcDbEntity
8
0
100
AcDbLine
10
327.18696372874945
20
-466.81429200222692
30
0
11
496.30646372874878
21
-466.81429200222686
31
0
0
LINE
5
174
100
AcDbEntity
8
0
100
AcDbLine
10
496.30646372874878
20
-452.81429200222681
30
0
11
496.30646372874878
21
-466.81429200222686
31
0
0
LINE
5
175
100
AcDbEntity
8
0
100
AcDbLine
10
327.66971308891323
20
-444.12507207449374
30
0
11
496.78921308891233
21
-444.12507207449369
31
0
0
ARC
5
176
100
AcDbEntity
8
0
100
AcDbCircle
10
327.66971308891294
20
-435.12507207449357
30
0
40
4.9999999999998579
210
0
220
-0
230
1
100
AcDbArc
50
89.999999999998693
51
180
0
CIRCLE
5
177
100
AcDbEntity
8
0
100
AcDbCircle
10
440.35683004227798
20
-437.1250720744938
30
0
40
1.7499999999999949
210
0
220
0
230
1
0
LINE
5
178
100
AcDbEntity
8
0
100
AcDbLine
10
496.78921308891233
20
-430.12507207449369
30
0
11
496.78921308891233
21
-444.12507207449369
31
0
0
ARC
5
179
100
AcDbEntity
8
0
100
AcDbCircle
10
327.66971308891323
20
-439.12507207449374
30
0
40
5.0000000000001421
210
0
220
0
230
1
100
AcDbArc
50
180
51
270
0
LINE
5
180
100
AcDbEntity
8
0
100
AcDbLine
10
327.66971308891323
20
-430.12507207449374
30
0
11
496.78921308891233
21
-430.12507207449369
31
0
0
LINE
5
181
100
AcDbEntity
8
0
100
AcDbLine
10
322.66971308891306
20
-435.12507207449374
30
0
11
322.66971308891306
21
-439.12507207449357
31
0
0
CIRCLE
5
182
100
AcDbEntity
8
0
100
AcDbCircle
10
334.66983004227836
20
-437.12507207449386
30
0
40
1.7499999999999476
210
0
220
0
230
1
0
LINE
5
183
100
AcDbEntity
8
0
100
AcDbLine
10
325.73871564825475
20
-487.08976512913569
30
0
11
494.8582156482538
21
-487.08976512913557
31
0
0
ARC
5
184
100
AcDbEntity
8
0
100
AcDbCircle
10
325.73871564825447
20
-478.08976512913546
30
0
40
4.9999999999998579
210
0
220
-0
230
1
100
AcDbArc
50
89.999999999998693
51
180
0
CIRCLE
5
185
100
AcDbEntity
8
0
100
AcDbCircle
10
438.42583260161939
20
-480.08976512913569
30
0
40
1.7499999999999949
210
0
220
0
230
1
0
LINE
5
186
100
AcDbEntity
8
0
100
AcDbLine
10
494.8582156482538
20
-473.08976512913551
30
0
11
494.8582156482538
21
-487.08976512913557
31
0
0
ARC
5
187
100
AcDbEntity
8
0
100
AcDbCircle
10
325.73871564825475
20
-482.08976512913569
30
0
40
5.0000000000001421
210
0
220
0
230
1
100
AcDbArc
50
180
51
270
0
LINE
5
188
100
AcDbEntity
8
0
100
AcDbLine
10
325.73871564825475
20
-473.08976512913557
30
0
11
494.8582156482538
21
-473.08976512913551
31
0
0
LINE
5
189
100
AcDbEntity
8
0
100
AcDbLine
10
320.73871564825458
20
-478.08976512913557
30
0
11
320.73871564825458
21
-482.08976512913551
31
0
0
CIRCLE
5
190
100
AcDbEntity
8
0
100
AcDbCircle
10
332.73883260161989
20
-480.0897651291358
30
0
40
1.7499999999999476
210
0
220
0
230
1
0
LINE
5
191
100
AcDbEntity
8
0
100
AcDbLine
10
326.70421436858425
20
-506.88248889588135
30
0
11
495.82371436858318
21
-506.88248889588129
31
0
0
ARC
5
192
100
AcDbEntity
8
0
100
AcDbCircle
10
326.70421436858396
20
-497.88248889588124
30
0
40
4.9999999999998579
210
0
220
-0
230
1
100
AcDbArc
50
89.999999999998053
51
180
0
CIRCLE
5
193
100
AcDbEntity
8
0
100
AcDbCircle
10
439.39133132194883
20
-499.88248889588147
30
0
40
1.7499999999999949
210
0
220
0
230
1
0
LINE
5
194
100
AcDbEntity
8
0
100
AcDbLine
10
495.82371436858318
20
-492.88248889588135
30
0
11
495.82371436858318
21
-506.88248889588129
31
0
0
ARC
5
195
100
AcDbEntity
8
0
100
AcDbCircle
10
326.70421436858425
20
-501.88248889588147
30
0
40
5.0000000000001421
210
0
220
0
230
1
100
AcDbArc
50
180
51
270
0
LINE
5
196
100
AcDbEntity
8
0
100
AcDbLine
10
326.70421436858425
20
-492.88248889588141
30
0
11
495.82371436858318
21
-492.88248889588135
31
0
0
LINE
5
197
100
AcDbEntity
8
0
100
AcDbLine
10
321.70421436858413
20
-497.88248889588141
30
0
11
321.70421436858413
21
-501.88248889588129
31
0
0
CIRCLE
5
198
100
AcDbEntity
8
0
100
AcDbCircle
10
333.70433132194938
20
-499.88248889588158
30
0
40
1.7499999999999476
210
0
220
0
230
1
0
LINE
5
199
100
AcDbEntity
8
0
100
AcDbLine
10
325.25596628809075
20
-528.60621010328509
30
0
11
494.3754662880898
21
-528.60621010328498
31
0
0
ARC
5
200
100
AcDbEntity
8
0
100
AcDbCircle
10
325.25596628809046
20
-519.60621010328487
30
0
40
4.9999999999998579
210
0
220
-0
230
1
100
AcDbArc
50
89.999999999998053
51
180
0
CIRCLE
5
201
100
AcDbEntity
8
0
100
AcDbCircle
10
437.9430832414555
20
-521.60621010328509
30
0
40
1.7499999999999949
210
0
220
0
230
1
0
LINE
5
202
100
AcDbEntity
8
0
100
AcDbLine
10
494.3754662880898
20
-514.60621010328498
30
0
11
494.3754662880898
21
-528.60621010328498
31
0
0
ARC
5
203
100
AcDbEntity
8
0
100
AcDbCircle
10
325.25596628809075
20
-523.60621010328509
30
0
40
5.0000000000001421
210
0
220
0
230
1
100
AcDbArc
50
180
51
270
0
LINE
5
204
100
AcDbEntity
8
0
100
AcDbLine
10
325.25596628809075
20
-514.60621010328498
30
0
11
494.3754662880898
21
-514.60621010328498
31
0
0
LINE
5
205
100
AcDbEntity
8
0
100
AcDbLine
10
320.25596628809063
20
-519.60621010328498
30
0
11
320.25596628809063
21
-523.60621010328498
31
0
0
CIRCLE
5
206
100
AcDbEntity
8
0
100
AcDbCircle
10
332.25608324145588
20
-521.60621010328521
30
0
40
1.7499999999999476
210
0
220
0
230
1
0
LINE
5
207
100
AcDbEntity
8
0
100
AcDbLine
10
324.29046756776182
20
-549.36443259035968
30
0
11
493.40996756776087
21
-549.36443259035957
31
0
0
ARC
5
208
100
AcDbEntity
8
0
100
AcDbCircle
10
324.29046756776154
20
-540.36443259035946
30
0
40
4.9999999999998579
210
0
220
-0
230
1
100
AcDbArc
50
89.999999999998693
51
180
0
CIRCLE
5
209
100
AcDbEntity
8
0
100
AcDbCircle
10
436.97758452112646
20
-542.36443259035968
30
0
40
1.7499999999999949
210
0
220
0
230
1
0
LINE
5
210
100
AcDbEntity
8
0
100
AcDbLine
10
493.40996756776087
20
-535.36443259035957
30
0
11
493.40996756776087
21
-549.36443259035957
31
0
0
ARC
5
211
100
AcDbEntity
8
0
100
AcDbCircle
10
324.29046756776182
20
-544.36443259035968
30
0
40
5.0000000000001421
210
0
220
0
230
1
100
AcDbArc
50
180
51
270
0
LINE
5
212
100
AcDbEntity
8
0
100
AcDbLine
10
324.29046756776182
20
-535.36443259035968
30
0
11
493.40996756776087
21
-535.36443259035957
31
0
0
LINE
5
213
100
AcDbEntity
8
0
100
AcDbLine
10
319.29046756776165
20
-540.36443259035968
30
0
11
319.29046756776165
21
-544.36443259035957
31
0
0
CIRCLE
5
214
100
AcDbEntity
8
0
100
AcDbCircle
10
331.29058452112696
20
-542.3644325903598
30
0
40
1.7499999999999476
210
0
220
0
230
1
0
LINE
5
215
100
AcDbEntity
8
0
100
AcDbLine
10
325.73871564825509
20
-569.1571563571049
30
0
11
494.85821564825403
21
-569.1571563571049
31
0
0
ARC
5
216
100
AcDbEntity
8
0
100
AcDbCircle
10
325.73871564825481
20
-560.15715635710467
30
0
40
4.9999999999998579
210
0
220
-0
230
1
100
AcDbArc
50
89.999999999998693
51
180
0
CIRCLE
5
217
100
AcDbEntity
8
0
100
AcDbCircle
10
438.42583260161967
20
-562.1571563571049
30
0
40
1.7499999999999949
210
0
220
0
230
1
0
LINE
5
218
100
AcDbEntity
8
0
100
AcDbLine
10
494.85821564825403
20
-555.15715635710478
30
0
11
494.85821564825403
21
-569.1571563571049
31
0
0
ARC
5
219
100
AcDbEntity
8
0
100
AcDbCircle
10
325.73871564825509
20
-564.1571563571049
30
0
40
5.0000000000001421
210
0
220
0
230
1
100
AcDbArc
50
180
51
270
0
LINE
5
220
100
AcDbEntity
8
0
100
AcDbLine
10
325.73871564825509
20
-555.15715635710478
30
0
11
494.85821564825403
21
-555.15715635710478
31
0
0
LINE
5
221
100
AcDbEntity
8
0
100
AcDbLine
10
320.73871564825492
20
-560.15715635710478
30
0
11
320.73871564825492
21
-564.15715635710467
31
0
0
CIRCLE
5
222
100
AcDbEntity
8
0
100
AcDbCircle
10
332.73883260162023
20
-562.1571563571049
30
0
40
1.7499999999999476
210
0
220
0
230
1
0
LINE
5
223
100
AcDbEntity
8
0
100
AcDbLine
10
325.73871564825504
20
-588.46713076368553
30
0
11
494.85821564825392
21
-588.46713076368542
31
0
0
ARC
5
224
100
AcDbEntity
8
0
100
AcDbCircle
10
325.73871564825475
20
-579.46713076368542
30
0
40
4.9999999999998579
210
0
220
-0
230
1
100
AcDbArc
50
89.999999999998693
51
180
0
CIRCLE
5
225
100
AcDbEntity
8
0
100
AcDbCircle
10
438.42583260161962
20
-581.46713076368553
30
0
40
1.7499999999999949
210
0
220
0
230
1
0
LINE
5
226
100
AcDbEntity
8
0
100
AcDbLine
10
494.85821564825392
20
-574.46713076368542
30
0
11
494.85821564825392
21
-588.46713076368542
31
0
0
ARC
5
227
100
AcDbEntity
8
0
100
AcDbCircle
10
325.73871564825504
20
-583.46713076368553
30
0
40
5.0000000000001421
210
0
220
0
230
1
100
AcDbArc
50
180
51
270
0
LINE
5
228
100
AcDbEntity
8
0
100
AcDbLine
10
325.73871564825504
20
-574.46713076368553
30
0
11
494.85821564825392
21
-574.46713076368542
31
0
0
LINE
5
229
100
AcDbEntity
8
0
100
AcDbLine
10
320.73871564825487
20
-579.46713076368553
30
0
11
320.73871564825487
21
-583.46713076368542
31
0
0
CIRCLE
5
230
100
AcDbEntity
8
0
100
AcDbCircle
10
332.73883260162017
20
-581.46713076368565
30
0
40
1.7499999999999476
210
0
220
0
230
1
0
LINE
5
231
100
AcDbEntity
8
0
100
AcDbLine
10
326.22146500841961
20
-609.7081026109247
30
0
11
495.34096500841855
21
-609.7081026109247
31
0
0
ARC
5
232
100
AcDbEntity
8
0
100
AcDbCircle
10
326.22146500841939
20
-600.70810261092458
30
0
40
4.9999999999998579
210
0
220
-0
230
1
100
AcDbArc
50
89.999999999998693
51
180
0
CIRCLE
5
233
100
AcDbEntity
8
0
100
AcDbCircle
10
438.90858196178419
20
-602.70810261092481
30
0
40
1.7499999999999949
210
0
220
0
230
1
0
LINE
5
234
100
AcDbEntity
8
0
100
AcDbLine
10
495.34096500841855
20
-595.7081026109247
30
0
11
495.34096500841855
21
-609.7081026109247
31
0
0
ARC
5
235
100
AcDbEntity
8
0
100
AcDbCircle
10
326.22146500841961
20
-604.70810261092481
30
0
40
5.0000000000001421
210
0
220
0
230
1
100
AcDbArc
50
180
51
270
0
LINE
5
236
100
AcDbEntity
8
0
100
AcDbLine
10
326.22146500841961
20
-595.7081026109247
30
0
11
495.34096500841855
21
-595.7081026109247
31
0
0
LINE
5
237
100
AcDbEntity
8
0
100
AcDbLine
10
321.2214650084195
20
-600.7081026109247
30
0
11
321.2214650084195
21
-604.7081026109247
31
0
0
CIRCLE
5
238
100
AcDbEntity
8
0
100
AcDbCircle
10
333.22158196178475
20
-602.70810261092493
30
0
40
1.7499999999999476
210
0
220
0
230
1
0
LINE
5
239
100
AcDbEntity
8
0
100
AcDbLine
10
323.80771820759662
20
-629.01807701750499
30
0
11
492.92721820759533
21
-629.01807701750499
31
0
0
ARC
5
240
100
AcDbEntity
8
0
100
AcDbCircle
10
323.80771820759634
20
-620.01807701750477
30
0
40
4.9999999999998579
210
0
220
-0
230
1
100
AcDbArc
50
89.999999999998053
51
180
0
CIRCLE
5
241
100
AcDbEntity
8
0
100
AcDbCircle
10
436.49483516096103
20
-622.01807701750511
30
0
40
1.7499999999999949
210
0
220
0
230
1
0
LINE
5
242
100
AcDbEntity
8
0
100
AcDbLine
10
492.92721820759533
20
-615.01807701750499
30
0
11
492.92721820759533
21
-629.01807701750499
31
0
0
ARC
5
243
100
AcDbEntity
8
0
100
AcDbCircle
10
323.80771820759662
20
-624.01807701750499
30
0
40
5.0000000000001776
210
0
220
0
230
1
100
AcDbArc
50
180
51
270
0
LINE
5
244
100
AcDbEntity
8
0
100
AcDbLine
10
323.80771820759662
20
-615.01807701750499
30
0
11
492.92721820759533
21
-615.01807701750499
31
0
0
LINE
5
245
100
AcDbEntity
8
0
100
AcDbLine
10
318.80771820759645
20
-620.01807701750499
30
0
11
318.80771820759645
21
-624.01807701750488
31
0
0
CIRCLE
5
246
100
AcDbEntity
8
0
100
AcDbCircle
10
330.8078351609617
20
-622.01807701750511
30
0
40
1.7499999999999476
210
0
220
0
230
1
0
LINE
5
247
100
AcDbEntity
8
0
100
AcDbLine
10
325.25596628809063
20
-651.22454758507376
30
0
11
494.37546628808957
21
-651.22454758507365
31
0
0
ARC
5
248
100
AcDbEntity
8
0
100
AcDbCircle
10
325.25596628809035
20
-642.22454758507354
30
0
40
4.9999999999998579
210
0
220
-0
230
1
100
AcDbArc
50
89.999999999998693
51
180
0
CIRCLE
5
249
100
AcDbEntity
8
0
100
AcDbCircle
10
437.94308324145527
20
-644.22454758507365
30
0
40
1.7499999999999949
210
0
220
0
230
1
0
LINE
5
250
100
AcDbEntity
8
0
100
AcDbLine
10
494.37546628808957
20
-637.22454758507365
30
0
11
494.37546628808957
21
-651.22454758507365
31
0
0
ARC
5
251
100
AcDbEntity
8
0
100
AcDbCircle
10
325.25596628809063
20
-646.22454758507376
30
0
40
5.0000000000001421
210
0
220
0
230
1
100
AcDbArc
50
180
51
270
0
LINE
5
252
100
AcDbEntity
8
0
100
AcDbLine
10
325.25596628809063
20
-637.22454758507365
30
0
11
494.37546628808957
21
-637.22454758507365
31
0
0
LINE
5
253
100
AcDbEntity
8
0
100
AcDbLine
10
320.25596628809046
20
-642.22454758507365
30
0
11
320.25596628809046
21
-646.22454758507365
31
0
0
CIRCLE
5
254
100
AcDbEntity
8
0
100
AcDbCircle
10
332.25608324145577
20
-644.22454758507388
30
0
40
1.7499999999999476
210
0
220
0
230
1
0
LINE
5
255
100
AcDbEntity
8
0
100
AcDbLine
10
324.29046756776165
20
-672.94826879247751
30
0
11
493.40996756776065
21
-672.94826879247739
31
0
0
ARC
5
256
100
AcDbEntity
8
0
100
AcDbCircle
10
324.29046756776137
20
-663.94826879247717
30
0
40
4.9999999999997158
210
0
220
-0
230
1
100
AcDbArc
50
89.999999999998053
51
180
0
CIRCLE
5
257
100
AcDbEntity
8
0
100
AcDbCircle
10
436.97758452112629
20
-665.94826879247751
30
0
40
1.7499999999999949
210
0
220
0
230
1
0
LINE
5
258
100
AcDbEntity
8
0
100
AcDbLine
10
493.40996756776065
20
-658.94826879247728
30
0
11
493.40996756776065
21
-672.94826879247739
31
0
0
ARC
5
259
100
AcDbEntity
8
0
100
AcDbCircle
10
324.29046756776165
20
-667.94826879247751
30
0
40
5.0000000000001421
210
0
220
0
230
1
100
AcDbArc
50
180
51
270
0
LINE
5
260
100
AcDbEntity
8
0
100
AcDbLine
10
324.29046756776165
20
-658.94826879247739
30
0
11
493.40996756776065
21
-658.94826879247728
31
0
0
LINE
5
261
100
AcDbEntity
8
0
100
AcDbLine
10
319.29046756776154
20
-663.94826879247739
30
0
11
319.29046756776154
21
-667.94826879247717
31
0
0
CIRCLE
5
262
100
AcDbEntity
8
0
100
AcDbCircle
10
331.29058452112679
20
-665.94826879247762
30
0
40
1.7499999999999476
210
0
220
0
230
1
0
LINE
5
263
100
AcDbEntity
8
0
100
AcDbLine
10
511.39153897628938
20
-252.16209613755808
30
0
11
511.3915389762891
21
-264.55890007620218
31
0
0
LINE
5
264
100
AcDbEntity
8
0
100
AcDbLine
10
510.32102391325395
20
-387.22145671191328
30
0
11
348.22622391325575
21
-387.22145671191299
31
0
0
LINE
5
265
100
AcDbEntity
8
0
100
AcDbLine
10
511.82102391325429
20
-291.38145671191415
30
0
11
511.82102391325401
21
-385.72145671191333
31
0
0
ARC
5
266
100
AcDbEntity
8
0
100
AcDbCircle
10
519.82102391325407
20
-281.88145671191427
30
0
40
5
210
0
220
-0
230
1
100
AcDbArc
50
0
51
90
0
CIRCLE
5
267
100
AcDbEntity
8
0
100
AcDbCircle
10
514.12102391325402
20
-389.52145671191329
30
0
40
1.7500000000000044
210
0
220
0
230
1
0
ARC
5
268
100
AcDbEntity
8
0
100
AcDbCircle
10
510.32102391325407
20
-291.38145671191415
30
0
40
1.500000000000199
210
0
220
-0
230
1
100
AcDbArc
50
0
51
90
0
ARC
5
269
100
AcDbEntity
8
0
100
AcDbCircle
10
510.32102391325395
20
-385.72145671191333
30
0
40
1.4999999999999147
210
-0
220
0
230
1
100
AcDbArc
50
-90
51
0
0
CIRCLE
5
270
100
AcDbEntity
8
0
100
AcDbCircle
10
514.12102391325402
20
-287.5814567119142
30
0
40
1.7500000000000004
210
0
220
0
230
1
0
LINE
5
271
100
AcDbEntity
8
0
100
AcDbLine
10
524.82102391325395
20
-395.22145671191316
30
0
11
524.82102391325407
21
-281.88145671191427
31
0
0
LINE
5
272
100
AcDbEntity
8
0
100
AcDbLine
10
439.04744448043067
20
-276.88145671191427
30
0
11
519.82102391325407
21
-276.88145671191427
31
0
0
LINE
5
273
100
AcDbEntity
8
0
100
AcDbLine
10
519.82102391325395
20
-400.22145671191316
30
0
11
348.30102391325829
21
-400.22145671191299
31
0
0
LINE
5
274
100
AcDbEntity
8
0
100
AcDbLine
10
342.9510239132569
20
-269.74595970060494
30
0
11
342.95102391325719
21
-257.3491557619609
31
0
0
LINE
5
275
100
AcDbEntity
8
0
100
AcDbLine
10
348.22622391325575
20
-387.22145671191299
30
0
11
348.22622391325575
21
-393.39335825462842
31
0
0
LINE
5
276
100
AcDbEntity
8
0
100
AcDbLine
10
437.68108942197694
20
-289.88145671191381
30
0
11
342.9510239132569
21
-269.74595970060494
31
0
0
ARC
5
277
100
AcDbEntity
8
0
100
AcDbCircle
10
342.95102391325679
20
-297.3491557619605
30
0
40
39.999999999999588
210
0
220
-0
230
1
100
AcDbArc
50
77.999999999999858
51
101.99999999999928
0
ARC
5
278
100
AcDbEntity
8
0
100
AcDbCircle
10
519.82102391325395
20
-395.22145671191316
30
0
40
5
210
-0
220
0
230
1
100
AcDbArc
50
-90
51
0
0
LINE
5
279
100
AcDbEntity
8
0
100
AcDbLine
10
439.04744448043067
20
-276.88145671191427
30
0
11
351.26749154596718
21
-258.22325173260873
31
0
0
LINE
5
280
100
AcDbEntity
8
0
100
AcDbLine
10
348.30102391325829
20
-400.22145671191299
30
0
11
348.22622391325575
21
-387.22145671191299
31
0
0
CIRCLE
5
281
100
AcDbEntity
8
0
100
AcDbCircle
10
399.13358981717647
20
-391.22145671191322
30
0
40
1.7500000000000104
210
0
220
0
230
1
0
CIRCLE
5
282
100
AcDbEntity
8
0
100
AcDbCircle
10
399.12102391325533
20
-278.10706968758194
30
0
40
1.7500000000000049
210
0
220
0
230
1
0
LINE
5
283
100
AcDbEntity
8
0
100
AcDbLine
10
437.68108942197694
20
-289.88145671191381
30
0
11
510.32102391325407
21
-289.8814567119141
31
0
0
ENDSEC
0
SECTION
2
OBJECTS
0
DICTIONARY
5
C
100
AcDbDictionary
3
ACAD_GROUP
350
D
3
ACAD_MLINESTYLE
350
17
0
DICTIONARY
5
D
100
AcDbDictionary
0
DICTIONARY
5
1A
330
C
100
AcDbDictionary
0
DICTIONARY
5
17
100
AcDbDictionary
0
ENDSEC
0
EOF
