<?xml version="1.0" encoding="UTF-8" standalone="no"?>
<svg
   xmlns:dc="http://purl.org/dc/elements/1.1/"
   xmlns:cc="http://creativecommons.org/ns#"
   xmlns:rdf="http://www.w3.org/1999/02/22-rdf-syntax-ns#"
   xmlns:svg="http://www.w3.org/2000/svg"
   xmlns="http://www.w3.org/2000/svg"
   xmlns:sodipodi="http://sodipodi.sourceforge.net/DTD/sodipodi-0.dtd"
   xmlns:inkscape="http://www.inkscape.org/namespaces/inkscape"
   width="793.700787402"
   height="1122.51968504"
   version="1.1"
   id="svg380"
   sodipodi:docname="Alice acrylic top layer.svg"
   inkscape:version="0.92.3 (2405546, 2018-03-11)">
  <metadata
     id="metadata384">
    <rdf:RDF>
      <cc:Work
         rdf:about="">
        <dc:format>image/svg+xml</dc:format>
        <dc:type
           rdf:resource="http://purl.org/dc/dcmitype/StillImage" />
        <dc:title></dc:title>
      </cc:Work>
    </rdf:RDF>
  </metadata>
  <sodipodi:namedview
     pagecolor="#ffffff"
     bordercolor="#666666"
     borderopacity="1"
     objecttolerance="10"
     gridtolerance="10"
     guidetolerance="10"
     inkscape:pageopacity="0"
     inkscape:pageshadow="2"
     inkscape:window-width="2560"
     inkscape:window-height="1361"
     id="namedview382"
     showgrid="false"
     inkscape:zoom="0.84096523"
     inkscape:cx="-1922.5368"
     inkscape:cy="1038.2723"
     inkscape:window-x="-9"
     inkscape:window-y="-9"
     inkscape:window-maximized="1"
     inkscape:current-layer="g378" />
  <desc
     id="desc2">D:\Keyboards\Alice\Alice acrylic top layer .dxf - scale = 1.000000, origin = (0.000000, 0.000000), method = manual</desc>
  <defs
     id="defs16">
    <marker
       id="DistanceX"
       orient="auto"
       refX="0.0"
       refY="0.0"
       style="overflow:visible">
      <path
         d="M 3,-3 L -3,3 M 0,-5 L  0,5"
         style="stroke:#000000; stroke-width:0.5"
         id="path4" />
    </marker>
    <pattern
       height="8"
       id="Hatch"
       patternUnits="userSpaceOnUse"
       width="8"
       x="0"
       y="0">
      <path
         d="M8 4 l-4,4"
         linecap="square"
         stroke="#000000"
         stroke-width="0.25"
         id="path7" />
      <path
         d="M6 2 l-4,4"
         linecap="square"
         stroke="#000000"
         stroke-width="0.25"
         id="path9" />
      <path
         d="M4 0 l-4,4"
         linecap="square"
         stroke="#000000"
         stroke-width="0.25"
         id="path11" />
    </pattern>
    <symbol
       id="*MODEL_SPACE" />
    <symbol
       id="*PAPER_SPACE" />
  </defs>
  <g
     inkscape:groupmode="layer"
     inkscape:label="0"
     id="g18" />
  <g
     inkscape:groupmode="layer"
     inkscape:label="Layer_1"
     id="g378">
    <path
       d="M -1742.366967,353.574879 C -1742.054358,355.045618 -1741.170304,356.331934 -1739.909288,357.150852"
       style="stroke:#FF0000;fill:none;fill-opacity:1"
       id="path20" />
    <path
       d="M -1739.909288,357.150852 C -1738.648267,357.969770 -1737.113582,358.254210 -1735.642847,357.941594"
       style="stroke:#FF0000;fill:none;fill-opacity:1"
       id="path22" />
    <path
       d="M -1545.482910,317.521776 C -1544.825000,320.576893 -1541.818828,322.523429 -1538.761965,321.873676"
       style="stroke:#FF0000;fill:none;fill-opacity:1"
       id="path24" />
    <path
       d="M -1735.642847,357.941594 L -1545.482910,317.521776"
       style="stroke:#FF0000;fill:none;fill-opacity:1"
       id="path26" />
    <path
       d="M -1440.497386,300.986872 C -1437.434767,300.335879 -1435.479746,297.325417 -1436.130709,294.262791"
       style="stroke:#FF0000;fill:none;fill-opacity:1"
       id="path28" />
    <path
       d="M -1538.761965,321.873676 L -1440.497386,300.986872"
       style="stroke:#FF0000;fill:none;fill-opacity:1"
       id="path30" />
    <path
       d="M -1256.053946,297.321978 C -1256.053946,298.825569 -1255.456649,300.267575 -1254.393449,301.330772"
       style="stroke:#FF0000;fill:none;fill-opacity:1"
       id="path32" />
    <path
       d="M -1254.393449,301.330772 C -1253.330253,302.393972 -1251.888246,302.991269 -1250.384655,302.991269"
       style="stroke:#FF0000;fill:none;fill-opacity:1"
       id="path34" />
    <path
       d="M -1256.053946,230.809890 L -1256.053946,297.321978"
       style="stroke:#FF0000;fill:none;fill-opacity:1"
       id="path36" />
    <path
       d="M -1149.849184,302.991269 C -1148.345594,302.991269 -1146.903587,302.393972 -1145.840391,301.330772"
       style="stroke:#FF0000;fill:none;fill-opacity:1"
       id="path38" />
    <path
       d="M -1145.840391,301.330772 C -1144.777191,300.267575 -1144.179893,298.825569 -1144.179893,297.321978"
       style="stroke:#FF0000;fill:none;fill-opacity:1"
       id="path40" />
    <path
       d="M -1436.130709,294.262791 L -1449.618028,230.809890 L -1256.053946,230.809890"
       style="stroke:#FF0000;fill:none;fill-opacity:1"
       id="path42" />
    <path
       d="M -1135.966488,230.809890 C -1134.462898,230.809890 -1133.020891,230.212592 -1131.957694,229.149392"
       style="stroke:#FF0000;fill:none;fill-opacity:1"
       id="path44" />
    <path
       d="M -1131.957694,229.149392 C -1130.894494,228.086196 -1130.297197,226.644189 -1130.297197,225.140598"
       style="stroke:#FF0000;fill:none;fill-opacity:1"
       id="path46" />
    <path
       d="M -1250.384655,302.991269 L -1149.849184,302.991269"
       style="stroke:#FF0000;fill:none;fill-opacity:1"
       id="path48" />
    <path
       d="M -1130.297197,160.661896 C -1130.297197,159.158306 -1130.894494,157.716299 -1131.957694,156.653102"
       style="stroke:#FF0000;fill:none;fill-opacity:1"
       id="path50" />
    <path
       d="M -1131.957694,156.653102 C -1133.020891,155.589902 -1134.462898,154.992605 -1135.966488,154.992605"
       style="stroke:#FF0000;fill:none;fill-opacity:1"
       id="path52" />
    <path
       d="M -1130.297197,225.140598 L -1130.297197,160.661896"
       style="stroke:#FF0000;fill:none;fill-opacity:1"
       id="path54" />
    <path
       d="M -1144.179893,297.321978 L -1144.179893,230.809890 L -1135.966488,230.809890"
       style="stroke:#FF0000;fill:none;fill-opacity:1"
       id="path56" />
    <path
       d="M -1146.090898,88.661896 C -1146.090898,87.158306 -1146.688195,85.716299 -1147.751395,84.653102"
       style="stroke:#FF0000;fill:none;fill-opacity:1"
       id="path58" />
    <path
       d="M -1147.751395,84.653102 C -1148.814591,83.589902 -1150.256598,82.992605 -1151.760189,82.992605"
       style="stroke:#FF0000;fill:none;fill-opacity:1"
       id="path60" />
    <path
       d="M -1146.090898,154.992605 L -1146.090898,88.661896"
       style="stroke:#FF0000;fill:none;fill-opacity:1"
       id="path62" />
    <path
       d="M -1135.966488,154.992605 L -1146.090898,154.992605"
       style="stroke:#FF0000;fill:none;fill-opacity:1"
       id="path64" />
    <path
       d="M -1162.191685,16.661896 C -1162.191685,13.530875 -1164.729846,10.992665 -1167.860863,10.992605"
       style="stroke:#FF0000;fill:none;fill-opacity:1"
       id="path66" />
    <path
       d="M -1162.191685,82.992605 L -1162.191685,16.661896"
       style="stroke:#FF0000;fill:none;fill-opacity:1"
       id="path68" />
    <path
       d="M -1151.760189,82.992605 L -1162.191685,82.992605"
       style="stroke:#FF0000;fill:none;fill-opacity:1"
       id="path70" />
    <path
       d="M -1177.952277,-55.338104 C -1177.952277,-56.841694 -1178.549575,-58.283701 -1179.612775,-59.346898"
       style="stroke:#FF0000;fill:none;fill-opacity:1"
       id="path72" />
    <path
       d="M -1179.612775,-59.346898 C -1180.675971,-60.410098 -1182.117978,-61.007395 -1183.621569,-61.007395"
       style="stroke:#FF0000;fill:none;fill-opacity:1"
       id="path74" />
    <path
       d="M -1177.952277,10.992605 L -1177.952277,-55.338104"
       style="stroke:#FF0000;fill:none;fill-opacity:1"
       id="path76" />
    <path
       d="M -1167.860863,10.992605 L -1177.952277,10.992605"
       style="stroke:#FF0000;fill:none;fill-opacity:1"
       id="path78" />
    <path
       d="M -1392.364876,-63.426293 C -1392.364864,-64.929887 -1392.962158,-66.371906 -1394.025358,-67.435113"
       style="stroke:#FF0000;fill:none;fill-opacity:1"
       id="path80" />
    <path
       d="M -1394.025358,-67.435113 C -1395.088558,-68.498317 -1396.530573,-69.095622 -1398.034167,-69.095622"
       style="stroke:#FF0000;fill:none;fill-opacity:1"
       id="path82" />
    <path
       d="M -1392.364876,-61.007395 L -1392.364876,-63.426293"
       style="stroke:#FF0000;fill:none;fill-opacity:1"
       id="path84" />
    <path
       d="M -1468.068699,-69.095622 C -1468.144282,-69.097134 -1468.219888,-69.097134 -1468.295471,-69.095622"
       style="stroke:#FF0000;fill:none;fill-opacity:1"
       id="path86" />
    <path
       d="M -1183.621569,-61.007395 L -1392.364876,-61.007395"
       style="stroke:#FF0000;fill:none;fill-opacity:1"
       id="path88" />
    <path
       d="M -1478.077228,-68.703798 C -1478.397313,-68.690952 -1478.715730,-68.650995 -1479.029065,-68.584365"
       style="stroke:#FF0000;fill:none;fill-opacity:1"
       id="path90" />
    <path
       d="M -1468.295471,-69.095622 L -1478.077228,-68.703798"
       style="stroke:#FF0000;fill:none;fill-opacity:1"
       id="path92" />
    <path
       d="M -1758.483628,-9.184479 C -1761.546266,-8.533489 -1763.501295,-5.522997 -1762.850306,-2.460359"
       style="stroke:#FF0000;fill:none;fill-opacity:1"
       id="path94" />
    <path
       d="M -1398.034167,-69.095622 L -1468.068699,-69.095622"
       style="stroke:#FF0000;fill:none;fill-opacity:1"
       id="path96" />
    <path
       d="M -1778.704101,68.749342 C -1781.766720,69.400335 -1783.721741,72.410797 -1783.070778,75.473424"
       style="stroke:#FF0000;fill:none;fill-opacity:1"
       id="path98" />
    <path
       d="M -1479.029065,-68.584365 L -1758.483628,-9.184479"
       style="stroke:#FF0000;fill:none;fill-opacity:1"
       id="path100" />
    <path
       d="M -1769.664907,138.543231 C -1769.013917,141.605870 -1766.003426,143.560898 -1762.940787,142.909909"
       style="stroke:#FF0000;fill:none;fill-opacity:1"
       id="path102" />
    <path
       d="M -1783.070778,75.473424 L -1769.664907,138.543231"
       style="stroke:#FF0000;fill:none;fill-opacity:1"
       id="path104" />
    <path
       d="M -1762.850306,-2.460359 L -1749.053820,62.447017 L -1778.704101,68.749342"
       style="stroke:#FF0000;fill:none;fill-opacity:1"
       id="path106" />
    <path
       d="M -1766.381367,213.323225 C -1769.443986,213.974219 -1771.399007,216.984680 -1770.748044,220.047307"
       style="stroke:#FF0000;fill:none;fill-opacity:1"
       id="path108" />
    <path
       d="M -1736.702627,207.014816 L -1766.381367,213.323225"
       style="stroke:#FF0000;fill:none;fill-opacity:1"
       id="path110" />
    <path
       d="M -1102.064088,349.940598 C -1091.627240,349.940576 -1083.166511,341.479846 -1083.166488,331.042998"
       style="stroke:#FF0000;fill:none;fill-opacity:1"
       id="path112" />
    <path
       d="M -1762.940787,142.909909 L -1750.873739,140.344932 L -1736.702627,207.014816"
       style="stroke:#FF0000;fill:none;fill-opacity:1"
       id="path114" />
    <path
       d="M -1083.166488,-97.328693 C -1083.166511,-107.765541 -1091.627240,-116.226270 -1102.064088,-116.226293"
       style="stroke:#FF0000;fill:none;fill-opacity:1"
       id="path116" />
    <path
       d="M -1083.166488,331.042998 L -1083.166488,-97.328693"
       style="stroke:#FF0000;fill:none;fill-opacity:1"
       id="path118" />
    <path
       d="M -2440.919169,-116.226293 C -2451.356031,-116.226293 -2459.816784,-107.765556 -2459.816806,-97.328693"
       style="stroke:#FF0000;fill:none;fill-opacity:1"
       id="path120" />
    <path
       d="M -1770.748044,220.047307 L -1742.366967,353.574879"
       style="stroke:#FF0000;fill:none;fill-opacity:1"
       id="path122" />
    <path
       d="M -2459.816806,331.042998 C -2459.816784,341.479861 -2451.356031,349.940598 -2440.919169,349.940598"
       style="stroke:#FF0000;fill:none;fill-opacity:1"
       id="path124" />
    <path
       d="M -2459.816806,-97.328693 L -2459.816806,331.042998"
       style="stroke:#FF0000;fill:none;fill-opacity:1"
       id="path126" />
    <path
       d="M -1102.064088,-116.226293 L -2440.919169,-116.226293"
       style="stroke:#FF0000;fill:none;fill-opacity:1"
       id="path128" />
    <path
       d="M -1803.866457,420.459780 C -1783.143069,424.864671 -1761.725227,424.864671 -1741.001839,420.459780"
       style="stroke:#FF0000;fill:none;fill-opacity:1"
       id="path130" />
    <path
       d="M -2135.633197,349.940598 L -1803.866457,420.459780"
       style="stroke:#FF0000;fill:none;fill-opacity:1"
       id="path132" />
    <path
       d="M -2440.919169,349.940598 L -2135.633197,349.940598"
       style="stroke:#FF0000;fill:none;fill-opacity:1"
       id="path134" />
    <path
       d="M -2040.991408,321.873676 C -2037.928770,322.524665 -2034.918278,320.569637 -2034.267288,317.506998"
       style="stroke:#FF0000;fill:none;fill-opacity:1"
       id="path136" />
    <path
       d="M -1741.001839,420.459780 L -1409.235099,349.940598 L -1102.064088,349.940598"
       style="stroke:#FF0000;fill:none;fill-opacity:1"
       id="path138" />
    <path
       d="M -1809.706469,365.226973 C -1806.643831,365.877936 -1803.633362,363.922893 -1802.982387,360.860258"
       style="stroke:#FF0000;fill:none;fill-opacity:1"
       id="path140" />
    <path
       d="M -2139.255950,300.986872 L -2040.991408,321.873676"
       style="stroke:#FF0000;fill:none;fill-opacity:1"
       id="path142" />
    <path
       d="M -1789.576479,297.790450 C -1788.925516,294.727824 -1790.880537,291.717362 -1793.943156,291.066369"
       style="stroke:#FF0000;fill:none;fill-opacity:1"
       id="path144" />
    <path
       d="M -2034.267288,317.506998 L -2034.264265,317.495660 L -1809.706469,365.226973"
       style="stroke:#FF0000;fill:none;fill-opacity:1"
       id="path146" />
    <path
       d="M -1809.003250,220.045682 C -1808.690634,218.574947 -1808.975074,217.040262 -1809.793992,215.779242"
       style="stroke:#FF0000;fill:none;fill-opacity:1"
       id="path148" />
    <path
       d="M -1809.793992,215.779242 C -1810.612910,214.518225 -1811.899226,213.634171 -1813.369965,213.321562"
       style="stroke:#FF0000;fill:none;fill-opacity:1"
       id="path150" />
    <path
       d="M -1802.982387,360.860258 L -1789.576479,297.790450"
       style="stroke:#FF0000;fill:none;fill-opacity:1"
       id="path152" />
    <path
       d="M -1829.223723,142.149581 C -1828.911107,140.678846 -1829.195546,139.144161 -1830.014464,137.883141"
       style="stroke:#FF0000;fill:none;fill-opacity:1"
       id="path154" />
    <path
       d="M -1830.014464,137.883141 C -1830.833382,136.622124 -1832.119699,135.738070 -1833.590438,135.425461"
       style="stroke:#FF0000;fill:none;fill-opacity:1"
       id="path156" />
    <path
       d="M -1793.943156,291.066369 L -1822.795616,284.933669 L -1809.003250,220.045682"
       style="stroke:#FF0000;fill:none;fill-opacity:1"
       id="path158" />
    <path
       d="M -1813.369965,213.321562 L -1843.012535,207.020750 L -1829.223723,142.149581"
       style="stroke:#FF0000;fill:none;fill-opacity:1"
       id="path160" />
    <path
       d="M -1801.807257,72.464769 C -1800.336522,72.777385 -1798.801837,72.492945 -1797.540816,71.674027"
       style="stroke:#FF0000;fill:none;fill-opacity:1"
       id="path162" />
    <path
       d="M -1797.540816,71.674027 C -1796.279800,70.855109 -1795.395746,69.568792 -1795.083137,68.098054"
       style="stroke:#FF0000;fill:none;fill-opacity:1"
       id="path164" />
    <path
       d="M -1831.478854,66.157871 L -1801.807257,72.464769"
       style="stroke:#FF0000;fill:none;fill-opacity:1"
       id="path166" />
    <path
       d="M -1781.677266,5.028283 C -1781.026277,1.965645 -1782.981305,-1.044847 -1786.043943,-1.695836"
       style="stroke:#FF0000;fill:none;fill-opacity:1"
       id="path168" />
    <path
       d="M -1795.083137,68.098054 L -1781.677266,5.028283"
       style="stroke:#FF0000;fill:none;fill-opacity:1"
       id="path170" />
    <path
       d="M -1833.590438,135.425461 L -1845.656957,132.860674 L -1831.478854,66.157871"
       style="stroke:#FF0000;fill:none;fill-opacity:1"
       id="path172" />
    <path
       d="M -2076.307729,-63.423458 C -2076.307729,-64.927049 -2076.905027,-66.369056 -2077.968227,-67.432252"
       style="stroke:#FF0000;fill:none;fill-opacity:1"
       id="path174" />
    <path
       d="M -2077.968227,-67.432252 C -2079.031423,-68.495452 -2080.473430,-69.092750 -2081.977020,-69.092750"
       style="stroke:#FF0000;fill:none;fill-opacity:1"
       id="path176" />
    <path
       d="M -2076.307729,-63.393222 L -2076.307729,-63.423458"
       style="stroke:#FF0000;fill:none;fill-opacity:1"
       id="path178" />
    <path
       d="M -2146.456176,-69.092750 C -2147.959767,-69.092750 -2149.401774,-68.495452 -2150.464970,-67.432252"
       style="stroke:#FF0000;fill:none;fill-opacity:1"
       id="path180" />
    <path
       d="M -2150.464970,-67.432252 C -2151.528170,-66.369056 -2152.125468,-64.927049 -2152.125468,-63.423458"
       style="stroke:#FF0000;fill:none;fill-opacity:1"
       id="path182" />
    <path
       d="M -1786.043943,-1.695836 L -2076.307729,-63.393222"
       style="stroke:#FF0000;fill:none;fill-opacity:1"
       id="path184" />
    <path
       d="M -2288.906570,-61.004561 C -2290.410161,-61.004561 -2291.852168,-60.407263 -2292.915364,-59.344063"
       style="stroke:#FF0000;fill:none;fill-opacity:1"
       id="path186" />
    <path
       d="M -2292.915364,-59.344063 C -2293.978564,-58.280867 -2294.575861,-56.838860 -2294.575861,-55.335269"
       style="stroke:#FF0000;fill:none;fill-opacity:1"
       id="path188" />
    <path
       d="M -2081.977020,-69.092750 L -2146.456176,-69.092750"
       style="stroke:#FF0000;fill:none;fill-opacity:1"
       id="path190" />
    <path
       d="M -2304.629405,10.995439 C -2306.132995,10.995439 -2307.575002,11.592737 -2308.638198,12.655937"
       style="stroke:#FF0000;fill:none;fill-opacity:1"
       id="path192" />
    <path
       d="M -2308.638198,12.655937 C -2309.701398,13.719133 -2310.298696,15.161140 -2310.298696,16.664731"
       style="stroke:#FF0000;fill:none;fill-opacity:1"
       id="path194" />
    <path
       d="M -2152.125468,-63.423458 L -2152.125468,-61.004561 L -2288.906570,-61.004561"
       style="stroke:#FF0000;fill:none;fill-opacity:1"
       id="path196" />
    <path
       d="M -2320.012082,82.995439 C -2321.515672,82.995439 -2322.957679,83.592737 -2324.020876,84.655937"
       style="stroke:#FF0000;fill:none;fill-opacity:1"
       id="path198" />
    <path
       d="M -2324.020876,84.655937 C -2325.084076,85.719133 -2325.681373,87.161140 -2325.681373,88.664731"
       style="stroke:#FF0000;fill:none;fill-opacity:1"
       id="path200" />
    <path
       d="M -2294.575861,-55.335269 L -2294.575861,10.995439 L -2304.629405,10.995439"
       style="stroke:#FF0000;fill:none;fill-opacity:1"
       id="path202" />
    <path
       d="M -2335.772712,154.995439 C -2337.276302,154.995439 -2338.718309,155.592737 -2339.781506,156.655937"
       style="stroke:#FF0000;fill:none;fill-opacity:1"
       id="path204" />
    <path
       d="M -2339.781506,156.655937 C -2340.844706,157.719133 -2341.442003,159.161140 -2341.442003,160.664731"
       style="stroke:#FF0000;fill:none;fill-opacity:1"
       id="path206" />
    <path
       d="M -2310.298696,16.664731 L -2310.298696,82.995439 L -2320.012082,82.995439"
       style="stroke:#FF0000;fill:none;fill-opacity:1"
       id="path208" />
    <path
       d="M -2341.442003,297.143433 C -2341.442003,298.647024 -2340.844706,300.089031 -2339.781506,301.152227"
       style="stroke:#FF0000;fill:none;fill-opacity:1"
       id="path210" />
    <path
       d="M -2339.781506,301.152227 C -2338.718309,302.215427 -2337.276302,302.812724 -2335.772712,302.812724"
       style="stroke:#FF0000;fill:none;fill-opacity:1"
       id="path212" />
    <path
       d="M -2341.442003,160.664731 L -2341.442003,297.143433"
       style="stroke:#FF0000;fill:none;fill-opacity:1"
       id="path214" />
    <path
       d="M -2235.237279,302.812724 C -2233.733688,302.812724 -2232.291681,302.215427 -2231.228485,301.152227"
       style="stroke:#FF0000;fill:none;fill-opacity:1"
       id="path216" />
    <path
       d="M -2231.228485,301.152227 C -2230.165285,300.089031 -2229.567987,298.647024 -2229.567987,297.143433"
       style="stroke:#FF0000;fill:none;fill-opacity:1"
       id="path218" />
    <path
       d="M -2325.681373,88.664731 L -2325.681373,154.995439 L -2335.772712,154.995439"
       style="stroke:#FF0000;fill:none;fill-opacity:1"
       id="path220" />
    <path
       d="M -2335.772712,302.812724 L -2235.237279,302.812724"
       style="stroke:#FF0000;fill:none;fill-opacity:1"
       id="path222" />
    <path
       d="M -2143.622627,294.265625 C -2144.273616,297.328263 -2142.318588,300.338755 -2139.255950,300.989745"
       style="stroke:#FF0000;fill:none;fill-opacity:1"
       id="path224" />
    <path
       d="M -2130.135307,230.812762 L -2143.622627,294.265625"
       style="stroke:#FF0000;fill:none;fill-opacity:1"
       id="path226" />
    <path
       d="M -2311.432554,6.721701 C -2309.928960,6.721701 -2308.486946,6.124396 -2307.423746,5.061192"
       style="stroke:#FF0000;fill:none;fill-opacity:1"
       id="path228" />
    <path
       d="M -2307.423746,5.061192 C -2306.360546,3.997984 -2305.763252,2.555966 -2305.763263,1.052372"
       style="stroke:#FF0000;fill:none;fill-opacity:1"
       id="path230" />
    <path
       d="M -2229.567987,297.143433 L -2229.567987,230.812762 L -2130.135307,230.812762"
       style="stroke:#FF0000;fill:none;fill-opacity:1"
       id="path232" />
    <path
       d="M -2305.763263,-63.426293 C -2305.763252,-64.929887 -2306.360546,-66.371906 -2307.423746,-67.435113"
       style="stroke:#FF0000;fill:none;fill-opacity:1"
       id="path234" />
    <path
       d="M -2307.423746,-67.435113 C -2308.486946,-68.498317 -2309.928960,-69.095622 -2311.432554,-69.095622"
       style="stroke:#FF0000;fill:none;fill-opacity:1"
       id="path236" />
    <path
       d="M -2305.763263,1.052372 L -2305.763263,-63.426293"
       style="stroke:#FF0000;fill:none;fill-opacity:1"
       id="path238" />
    <path
       d="M -2375.911294,-69.095622 C -2377.414889,-69.095622 -2378.856903,-68.498317 -2379.920103,-67.435113"
       style="stroke:#FF0000;fill:none;fill-opacity:1"
       id="path240" />
    <path
       d="M -2379.920103,-67.435113 C -2380.983303,-66.371906 -2381.580597,-64.929887 -2381.580586,-63.426293"
       style="stroke:#FF0000;fill:none;fill-opacity:1"
       id="path242" />
    <path
       d="M -2139.255950,300.989745 L -2139.255950,300.986872"
       style="stroke:#FF0000;fill:none;fill-opacity:1"
       id="path244" />
    <path
       d="M -2391.634129,2.904378 C -2393.137723,2.904378 -2394.579738,3.501679 -2395.642938,4.564887"
       style="stroke:#FF0000;fill:none;fill-opacity:1"
       id="path246" />
    <path
       d="M -2395.642938,4.564887 C -2396.706138,5.628094 -2397.303432,7.070109 -2397.303420,8.573707"
       style="stroke:#FF0000;fill:none;fill-opacity:1"
       id="path248" />
    <path
       d="M -2311.432554,-69.095622 L -2375.911294,-69.095622"
       style="stroke:#FF0000;fill:none;fill-opacity:1"
       id="path250" />
    <path
       d="M -2407.016806,74.904378 C -2408.520401,74.904378 -2409.962415,75.501683 -2411.025615,76.564887"
       style="stroke:#FF0000;fill:none;fill-opacity:1"
       id="path252" />
    <path
       d="M -2411.025615,76.564887 C -2412.088815,77.628094 -2412.686109,79.070113 -2412.686098,80.573707"
       style="stroke:#FF0000;fill:none;fill-opacity:1"
       id="path254" />
    <path
       d="M -2381.580586,-63.426293 L -2381.580586,2.904378 L -2391.634129,2.904378"
       style="stroke:#FF0000;fill:none;fill-opacity:1"
       id="path256" />
    <path
       d="M -2412.686098,145.052372 C -2412.686109,146.555966 -2412.088815,147.997984 -2411.025615,149.061192"
       style="stroke:#FF0000;fill:none;fill-opacity:1"
       id="path258" />
    <path
       d="M -2411.025615,149.061192 C -2409.962415,150.124396 -2408.520401,150.721701 -2407.016806,150.721701"
       style="stroke:#FF0000;fill:none;fill-opacity:1"
       id="path260" />
    <path
       d="M -2412.686098,80.573707 L -2412.686098,145.052372"
       style="stroke:#FF0000;fill:none;fill-opacity:1"
       id="path262" />
    <path
       d="M -2342.538066,150.721701 C -2341.034472,150.721701 -2339.592457,150.124396 -2338.529257,149.061192"
       style="stroke:#FF0000;fill:none;fill-opacity:1"
       id="path264" />
    <path
       d="M -2338.529257,149.061192 C -2337.466057,147.997984 -2336.868763,146.555966 -2336.868775,145.052372"
       style="stroke:#FF0000;fill:none;fill-opacity:1"
       id="path266" />
    <path
       d="M -2397.303420,8.573707 L -2397.303420,74.904378 L -2407.016806,74.904378"
       style="stroke:#FF0000;fill:none;fill-opacity:1"
       id="path268" />
    <path
       d="M -2327.155389,78.721701 C -2325.651795,78.721701 -2324.209780,78.124396 -2323.146580,77.061192"
       style="stroke:#FF0000;fill:none;fill-opacity:1"
       id="path270" />
    <path
       d="M -2323.146580,77.061192 C -2322.083380,75.997984 -2321.486086,74.555966 -2321.486098,73.052372"
       style="stroke:#FF0000;fill:none;fill-opacity:1"
       id="path272" />
    <path
       d="M -2407.016806,150.721701 L -2342.538066,150.721701"
       style="stroke:#FF0000;fill:none;fill-opacity:1"
       id="path274" />
    <path
       d="M -1551.638891,344.907704 C -1551.637293,342.543621 -1552.897599,340.358438 -1554.944685,339.175933"
       style="stroke:#FF0000;fill:none;fill-opacity:1"
       id="path276" />
    <path
       d="M -1554.944685,339.175933 C -1556.991776,337.993432 -1559.514353,337.993432 -1561.561444,339.175933"
       style="stroke:#FF0000;fill:none;fill-opacity:1"
       id="path278" />
    <path
       d="M -1561.561444,339.175933 C -1563.608530,340.358438 -1564.868837,342.543621 -1564.867238,344.907704"
       style="stroke:#FF0000;fill:none;fill-opacity:1"
       id="path280" />
    <path
       d="M -1564.867238,344.907704 C -1564.868837,347.271787 -1563.608530,349.456970 -1561.561444,350.639475"
       style="stroke:#FF0000;fill:none;fill-opacity:1"
       id="path282" />
    <path
       d="M -1561.561444,350.639475 C -1559.514353,351.821975 -1556.991776,351.821975 -1554.944685,350.639475"
       style="stroke:#FF0000;fill:none;fill-opacity:1"
       id="path284" />
    <path
       d="M -1554.944685,350.639475 C -1552.897599,349.456970 -1551.637293,347.271787 -1551.638891,344.907704"
       style="stroke:#FF0000;fill:none;fill-opacity:1"
       id="path286" />
    <path
       d="M -2336.868775,145.052372 L -2336.868775,78.721701 L -2327.155389,78.721701"
       style="stroke:#FF0000;fill:none;fill-opacity:1"
       id="path288" />
    <path
       d="M -1116.993184,309.499691 C -1116.989518,307.134229 -1118.249374,304.946880 -1120.297319,303.763087"
       style="stroke:#FF0000;fill:none;fill-opacity:1"
       id="path290" />
    <path
       d="M -1120.297319,303.763087 C -1122.345264,302.579297 -1124.869489,302.579297 -1126.917434,303.763087"
       style="stroke:#FF0000;fill:none;fill-opacity:1"
       id="path292" />
    <path
       d="M -1126.917434,303.763087 C -1128.965378,304.946880 -1130.225235,307.134229 -1130.221569,309.499691"
       style="stroke:#FF0000;fill:none;fill-opacity:1"
       id="path294" />
    <path
       d="M -1130.221569,309.499691 C -1130.225235,311.865154 -1128.965378,314.052503 -1126.917434,315.236296"
       style="stroke:#FF0000;fill:none;fill-opacity:1"
       id="path296" />
    <path
       d="M -1126.917434,315.236296 C -1124.869489,316.420086 -1122.345264,316.420086 -1120.297319,315.236296"
       style="stroke:#FF0000;fill:none;fill-opacity:1"
       id="path298" />
    <path
       d="M -1120.297319,315.236296 C -1118.249374,314.052503 -1116.989518,311.865154 -1116.993184,309.499691"
       style="stroke:#FF0000;fill:none;fill-opacity:1"
       id="path300" />
    <path
       d="M -1551.638891,-80.320819 C -1551.637293,-82.684902 -1552.897599,-84.870085 -1554.944685,-86.052590"
       style="stroke:#FF0000;fill:none;fill-opacity:1"
       id="path302" />
    <path
       d="M -1554.944685,-86.052590 C -1556.991776,-87.235090 -1559.514353,-87.235090 -1561.561444,-86.052590"
       style="stroke:#FF0000;fill:none;fill-opacity:1"
       id="path304" />
    <path
       d="M -1561.561444,-86.052590 C -1563.608530,-84.870085 -1564.868837,-82.684902 -1564.867238,-80.320819"
       style="stroke:#FF0000;fill:none;fill-opacity:1"
       id="path306" />
    <path
       d="M -1564.867238,-80.320819 C -1564.868837,-77.956736 -1563.608530,-75.771553 -1561.561444,-74.589048"
       style="stroke:#FF0000;fill:none;fill-opacity:1"
       id="path308" />
    <path
       d="M -1561.561444,-74.589048 C -1559.514353,-73.406547 -1556.991776,-73.406547 -1554.944685,-74.589048"
       style="stroke:#FF0000;fill:none;fill-opacity:1"
       id="path310" />
    <path
       d="M -1554.944685,-74.589048 C -1552.897599,-75.771553 -1551.637293,-77.956736 -1551.638891,-80.320819"
       style="stroke:#FF0000;fill:none;fill-opacity:1"
       id="path312" />
    <path
       d="M -1978.116057,345.308372 C -1978.110399,342.941597 -1979.369809,340.752181 -1981.418563,339.567156"
       style="stroke:#FF0000;fill:none;fill-opacity:1"
       id="path314" />
    <path
       d="M -1981.418563,339.567156 C -1983.467312,338.382130 -1985.993110,338.382130 -1988.041860,339.567156"
       style="stroke:#FF0000;fill:none;fill-opacity:1"
       id="path316" />
    <path
       d="M -1988.041860,339.567156 C -1990.090613,340.752181 -1991.350023,342.941597 -1991.344365,345.308372"
       style="stroke:#FF0000;fill:none;fill-opacity:1"
       id="path318" />
    <path
       d="M -1991.344365,345.308372 C -1991.350023,347.675146 -1990.090613,349.864562 -1988.041860,351.049587"
       style="stroke:#FF0000;fill:none;fill-opacity:1"
       id="path320" />
    <path
       d="M -1988.041860,351.049587 C -1985.993110,352.234613 -1983.467312,352.234613 -1981.418563,351.049587"
       style="stroke:#FF0000;fill:none;fill-opacity:1"
       id="path322" />
    <path
       d="M -1981.418563,351.049587 C -1979.369809,349.864562 -1978.110399,347.675146 -1978.116057,345.308372"
       style="stroke:#FF0000;fill:none;fill-opacity:1"
       id="path324" />
    <path
       d="M -1116.993184,-75.785424 C -1116.989518,-78.150886 -1118.249374,-80.338235 -1120.297319,-81.522028"
       style="stroke:#FF0000;fill:none;fill-opacity:1"
       id="path326" />
    <path
       d="M -1120.297319,-81.522028 C -1122.345264,-82.705818 -1124.869489,-82.705818 -1126.917434,-81.522028"
       style="stroke:#FF0000;fill:none;fill-opacity:1"
       id="path328" />
    <path
       d="M -1126.917434,-81.522028 C -1128.965378,-80.338235 -1130.225235,-78.150886 -1130.221569,-75.785424"
       style="stroke:#FF0000;fill:none;fill-opacity:1"
       id="path330" />
    <path
       d="M -1130.221569,-75.785424 C -1130.225235,-73.419961 -1128.965378,-71.232612 -1126.917434,-70.048819"
       style="stroke:#FF0000;fill:none;fill-opacity:1"
       id="path332" />
    <path
       d="M -1126.917434,-70.048819 C -1124.869489,-68.865029 -1122.345264,-68.865029 -1120.297319,-70.048819"
       style="stroke:#FF0000;fill:none;fill-opacity:1"
       id="path334" />
    <path
       d="M -1120.297319,-70.048819 C -1118.249374,-71.232612 -1116.989518,-73.419961 -1116.993184,-75.785424"
       style="stroke:#FF0000;fill:none;fill-opacity:1"
       id="path336" />
    <path
       d="M -2321.486098,73.052372 L -2321.486098,6.721701 L -2311.432554,6.721701"
       style="stroke:#FF0000;fill:none;fill-opacity:1"
       id="path338" />
    <path
       d="M -2412.761688,-75.785424 C -2412.760089,-78.149507 -2414.020396,-80.334690 -2416.067482,-81.517194"
       style="stroke:#FF0000;fill:none;fill-opacity:1"
       id="path340" />
    <path
       d="M -2416.067482,-81.517194 C -2418.114573,-82.699695 -2420.637150,-82.699695 -2422.684241,-81.517194"
       style="stroke:#FF0000;fill:none;fill-opacity:1"
       id="path342" />
    <path
       d="M -2422.684241,-81.517194 C -2424.731327,-80.334690 -2425.991633,-78.149507 -2425.990035,-75.785424"
       style="stroke:#FF0000;fill:none;fill-opacity:1"
       id="path344" />
    <path
       d="M -2425.990035,-75.785424 C -2425.991633,-73.421340 -2424.731327,-71.236157 -2422.684241,-70.053653"
       style="stroke:#FF0000;fill:none;fill-opacity:1"
       id="path346" />
    <path
       d="M -2422.684241,-70.053653 C -2420.637150,-68.871152 -2418.114573,-68.871152 -2416.067482,-70.053653"
       style="stroke:#FF0000;fill:none;fill-opacity:1"
       id="path348" />
    <path
       d="M -2416.067482,-70.053653 C -2414.020396,-71.236157 -2412.760089,-73.421340 -2412.761688,-75.785424"
       style="stroke:#FF0000;fill:none;fill-opacity:1"
       id="path350" />
    <path
       d="M -1978.163528,-82.210620 C -1978.161929,-84.574704 -1979.422235,-86.759887 -1981.469322,-87.942391"
       style="stroke:#FF0000;fill:none;fill-opacity:1"
       id="path352" />
    <path
       d="M -1981.469322,-87.942391 C -1983.516412,-89.124892 -1986.038990,-89.124892 -1988.086080,-87.942391"
       style="stroke:#FF0000;fill:none;fill-opacity:1"
       id="path354" />
    <path
       d="M -1988.086080,-87.942391 C -1990.133167,-86.759887 -1991.393473,-84.574704 -1991.391874,-82.210620"
       style="stroke:#FF0000;fill:none;fill-opacity:1"
       id="path356" />
    <path
       d="M -1991.391874,-82.210620 C -1991.393473,-79.846537 -1990.133167,-77.661354 -1988.086080,-76.478850"
       style="stroke:#FF0000;fill:none;fill-opacity:1"
       id="path358" />
    <path
       d="M -1988.086080,-76.478850 C -1986.038990,-75.296349 -1983.516412,-75.296349 -1981.469322,-76.478850"
       style="stroke:#FF0000;fill:none;fill-opacity:1"
       id="path360" />
    <path
       d="M -1981.469322,-76.478850 C -1979.422235,-77.661354 -1978.161929,-79.846537 -1978.163528,-82.210620"
       style="stroke:#FF0000;fill:none;fill-opacity:1"
       id="path362" />
    <path
       d="M -2412.761688,309.499691 C -2412.760089,307.135608 -2414.020396,304.950425 -2416.067482,303.767921"
       style="stroke:#FF0000;fill:none;fill-opacity:1"
       id="path364" />
    <path
       d="M -2416.067482,303.767921 C -2418.114573,302.585420 -2420.637150,302.585420 -2422.684241,303.767921"
       style="stroke:#FF0000;fill:none;fill-opacity:1"
       id="path366" />
    <path
       d="M -2422.684241,303.767921 C -2424.731327,304.950425 -2425.991633,307.135608 -2425.990035,309.499691"
       style="stroke:#FF0000;fill:none;fill-opacity:1"
       id="path368" />
    <path
       d="M -2425.990035,309.499691 C -2425.991633,311.863774 -2424.731327,314.048957 -2422.684241,315.231462"
       style="stroke:#FF0000;fill:none;fill-opacity:1"
       id="path370" />
    <path
       d="M -2422.684241,315.231462 C -2420.637150,316.413963 -2418.114573,316.413963 -2416.067482,315.231462"
       style="stroke:#FF0000;fill:none;fill-opacity:1"
       id="path372" />
    <path
       d="M -2416.067482,315.231462 C -2414.020396,314.048957 -2412.760089,311.863774 -2412.761688,309.499691"
       style="stroke:#FF0000;fill:none;fill-opacity:1"
       id="path374" />
    <path
       d="M -2419.152907,-82.395817 L -2419.402356,-82.395817"
       style="stroke:#FF0000;fill:none;fill-opacity:1"
       id="path376" />
  </g>
</svg>
