<?xml version="1.0" encoding="UTF-8" standalone="no"?>
<!-- Created with Inkscape (http://www.inkscape.org/) -->

<svg
   xmlns:dc="http://purl.org/dc/elements/1.1/"
   xmlns:cc="http://creativecommons.org/ns#"
   xmlns:rdf="http://www.w3.org/1999/02/22-rdf-syntax-ns#"
   xmlns:svg="http://www.w3.org/2000/svg"
   xmlns="http://www.w3.org/2000/svg"
   xmlns:sodipodi="http://sodipodi.sourceforge.net/DTD/sodipodi-0.dtd"
   xmlns:inkscape="http://www.inkscape.org/namespaces/inkscape"
   width="210mm"
   height="297mm"
   viewBox="0 0 210 297"
   version="1.1"
   id="svg6135"
   inkscape:version="0.92.3 (2405546, 2018-03-11)"
   sodipodi:docname="prime e laser cut inkscape.svg">
  <defs
     id="defs6129">
    <marker
       style="overflow:visible"
       refY="0.0"
       refX="0.0"
       orient="auto"
       id="DistanceX">
      <path
         id="path7033"
         style="stroke:#000000; stroke-width:0.5"
         d="M 3,-3 L -3,3 M 0,-5 L  0,5" />
    </marker>
    <pattern
       y="0"
       x="0"
       width="8"
       patternUnits="userSpaceOnUse"
       id="Hatch"
       height="8">
      <path
         id="path7036"
         stroke-width="0.25"
         stroke="#000000"
         linecap="square"
         d="M8 4 l-4,4" />
      <path
         id="path7038"
         stroke-width="0.25"
         stroke="#000000"
         linecap="square"
         d="M6 2 l-4,4" />
      <path
         id="path7040"
         stroke-width="0.25"
         stroke="#000000"
         linecap="square"
         d="M4 0 l-4,4" />
    </pattern>
    <symbol
       id="*MODEL_SPACE" />
    <symbol
       id="*PAPER_SPACE" />
  </defs>
  <sodipodi:namedview
     id="base"
     pagecolor="#ffffff"
     bordercolor="#666666"
     borderopacity="1.0"
     inkscape:pageopacity="0.0"
     inkscape:pageshadow="2"
     inkscape:zoom="0.49497475"
     inkscape:cx="707.03755"
     inkscape:cy="564.97068"
     inkscape:document-units="mm"
     inkscape:current-layer="layer1"
     showgrid="false"
     inkscape:measure-start="735.391,1444.52"
     inkscape:measure-end="2127.86,1708.57"
     inkscape:window-width="2058"
     inkscape:window-height="1368"
     inkscape:window-x="3929"
     inkscape:window-y="0"
     inkscape:window-maximized="0" />
  <metadata
     id="metadata6132">
    <rdf:RDF>
      <cc:Work
         rdf:about="">
        <dc:format>image/svg+xml</dc:format>
        <dc:type
           rdf:resource="http://purl.org/dc/dcmitype/StillImage" />
        <dc:title />
      </cc:Work>
    </rdf:RDF>
  </metadata>
  <g
     inkscape:label="Layer 1"
     inkscape:groupmode="layer"
     id="layer1">
    <path
       inkscape:connector-curvature="0"
       d="m 498.37718,-111.71954 a 1.6,1.6 0 0 0 -2.19991,2.19987 1.5875,1.5875 0 0 1 0.23339,0.82858 v 8.41062 a 1.5875,1.5875 0 0 1 -0.23339,0.828576 1.6,1.6 0 0 0 2.19991,2.199862 1.5875,1.5875 0 0 1 0.82859,-0.233402 h 8.41079 a 1.5875,1.5875 0 0 1 0.82859,0.233402 1.6,1.6 0 0 0 2.19991,-2.199862 1.5875,1.5875 0 0 1 -0.23339,-0.828576 v -8.41062 a 1.5875,1.5875 0 0 1 0.23339,-0.82858 1.6,1.6 0 0 0 -2.19991,-2.19987 1.5875,1.5875 0 0 1 -0.82859,0.23341 h -8.41079 a 1.5875,1.5875 0 0 1 -0.82859,-0.23341 z"
       style="fill:none;stroke:#ff0000;stroke-width:0.31;stroke-opacity:1;stroke-miterlimit:4;stroke-dasharray:none"
       id="path7047" />
    <path
       inkscape:connector-curvature="0"
       d="m 374.61057,-105.19242 a 1.5875,1.5875 0 0 1 -0.78805,-0.34646 1.6,1.6 0 0 0 -2.48462,1.87235 1.5875,1.5875 0 0 1 0.11583,0.85302 l -1.17013,8.327236 a 1.5875,1.5875 0 0 1 -0.34641,0.788035 1.6,1.6 0 0 0 2.19814,2.294745 l 9.38158,1.318686 a 1.6,1.6 0 0 0 2.74554,-1.599952 1.5875,1.5875 0 0 1 -0.11584,-0.853022 l 1.17014,-8.327438 a 1.5875,1.5875 0 0 1 0.34641,-0.78803 1.6,1.6 0 0 0 -1.87232,-2.4846 1.5875,1.5875 0 0 1 -0.853,0.1158 z"
       style="fill:none;stroke:#ff0000;stroke-width:0.31;stroke-opacity:1;stroke-miterlimit:4;stroke-dasharray:none"
       id="path7049" />
    <path
       inkscape:connector-curvature="0"
       d="m 320.03922,-92.631132 a 1.5875,1.5875 0 0 1 -0.82857,0.233389 h -8.40895 a 1.5875,1.5875 0 0 1 -0.82857,-0.233389 1.6,1.6 0 0 0 -2.19986,2.199902 1.5875,1.5875 0 0 1 0.2334,0.828601 v 8.409173 a 1.5875,1.5875 0 0 1 -0.2334,0.8286 1.6,1.6 0 0 0 2.19986,2.1999 1.5875,1.5875 0 0 1 0.82857,-0.233387 h 8.40895 a 1.5875,1.5875 0 0 1 0.82857,0.233387 1.6,1.6 0 0 0 2.19986,-2.1999 1.5875,1.5875 0 0 1 -0.23341,-0.8286 v -8.409173 a 1.5875,1.5875 0 0 1 0.23341,-0.828601 1.6,1.6 0 0 0 -2.19986,-2.199902 z"
       style="fill:none;stroke:#ff0000;stroke-width:0.31;stroke-opacity:1;stroke-miterlimit:4;stroke-dasharray:none"
       id="path7051" />
    <path
       inkscape:connector-curvature="0"
       d="m 315.85063,-97.637244 h 8.41005 a 1.5875,1.5875 0 0 1 0.82856,0.233383 1.6,1.6 0 0 0 2.19984,-2.199917 1.5875,1.5875 0 0 1 -0.23341,-0.828612 v -8.41041 a 1.5875,1.5875 0 0 1 0.23341,-0.82861 1.6,1.6 0 0 0 -2.19984,-2.19991 1.5875,1.5875 0 0 1 -0.82856,0.23338 h -8.41001 a 1.5875,1.5875 0 0 1 -0.82856,-0.23338 1.6,1.6 0 0 0 -2.19984,2.19991 1.5875,1.5875 0 0 1 0.23341,0.82861 v 8.41037 a 1.5875,1.5875 0 0 1 -0.23342,0.82862 1.6,1.6 0 0 0 2.19981,2.199939 1.5875,1.5875 0 0 1 0.82856,-0.233373 z"
       style="fill:none;stroke:#ff0000;stroke-width:0.31;stroke-opacity:1;stroke-miterlimit:4;stroke-dasharray:none"
       id="path7053" />
    <path
       inkscape:connector-curvature="0"
       d="m 346.16345,-114.05446 a 1.5875,1.5875 0 0 1 0.85297,-0.11579 l 8.32723,1.17037 a 1.5875,1.5875 0 0 1 0.78808,0.34648 1.6,1.6 0 0 0 2.48474,-1.87213 1.5875,1.5875 0 0 1 -0.11574,-0.85293 l 1.17082,-8.32882 a 1.5875,1.5875 0 0 1 0.34652,-0.78809 1.6,1.6 0 0 0 -1.87247,-2.48463 1.5875,1.5875 0 0 1 -0.85307,0.11594 l -8.32914,-1.16963 a 1.5875,1.5875 0 0 1 -0.78802,-0.3463 1.6,1.6 0 0 0 -2.48436,1.87265 1.5875,1.5875 0 0 1 0.11591,0.85304 l -1.16953,8.32732 a 1.5875,1.5875 0 0 1 -0.34633,0.78803 1.6,1.6 0 0 0 1.87239,2.48449 z"
       style="fill:none;stroke:#ff0000;stroke-width:0.31;stroke-opacity:1;stroke-miterlimit:4;stroke-dasharray:none"
       id="path7055" />
    <path
       inkscape:connector-curvature="0"
       d="m 386.69458,-122.73212 a 1.5875,1.5875 0 0 1 -0.78805,-0.34646 1.6,1.6 0 0 0 -2.48477,1.87203 1.5875,1.5875 0 0 1 0.11567,0.85291 l -1.17142,8.32884 a 1.5875,1.5875 0 0 1 -0.3466,0.7881 1.6,1.6 0 0 0 1.87239,2.48474 1.5875,1.5875 0 0 1 0.8531,-0.11595 l 8.32917,1.16963 a 1.5875,1.5875 0 0 1 0.78799,0.34627 1.6,1.6 0 0 0 2.48439,-1.87254 1.5875,1.5875 0 0 1 -0.11584,-0.85302 l 1.17014,-8.32735 a 1.5875,1.5875 0 0 1 0.34641,-0.78803 1.6,1.6 0 0 0 -1.87232,-2.4846 1.5875,1.5875 0 0 1 -0.853,0.1158 z"
       style="fill:none;stroke:#ff0000;stroke-width:0.31;stroke-opacity:1;stroke-miterlimit:4;stroke-dasharray:none"
       id="path7057" />
    <path
       inkscape:connector-curvature="0"
       d="m 360.27197,-76.655622 1.17135,-8.327419 a 1.5875,1.5875 0 0 1 0.34658,-0.788051 1.6,1.6 0 0 0 -1.87218,-2.484819 1.5875,1.5875 0 0 1 -0.85305,0.115822 l -8.32821,-1.170538 a 1.5875,1.5875 0 0 1 -0.78801,-0.346432 1.6,1.6 0 0 0 -2.48466,1.872234 1.5875,1.5875 0 0 1 0.11576,0.853001 l -1.17075,8.327464 a 1.5875,1.5875 0 0 1 -0.34647,0.788013 1.6,1.6 0 0 0 1.87229,2.484673 1.5875,1.5875 0 0 1 0.85305,-0.115816 l 8.32721,1.170422 a 1.5875,1.5875 0 0 1 0.78802,0.346435 1.6,1.6 0 0 0 2.48474,-1.872052 1.5875,1.5875 0 0 1 -0.11567,-0.852937 z"
       style="fill:none;stroke:#ff0000;stroke-width:0.31;stroke-opacity:1;stroke-miterlimit:4;stroke-dasharray:none"
       id="path7059" />
    <path
       inkscape:connector-curvature="0"
       d="m 306.259,-135.88419 a 1.5875,1.5875 0 0 1 0.82852,-0.23335 h 8.41031 a 1.5875,1.5875 0 0 1 0.82852,0.23335 1.6,1.6 0 0 0 2.19976,-2.19999 1.5875,1.5875 0 0 1 -0.23344,-0.82866 v -8.41151 a 1.5875,1.5875 0 0 1 0.23344,-0.82865 1.6,1.6 0 0 0 -2.19976,-2.2 1.5875,1.5875 0 0 1 -0.82852,0.23336 h -8.41031 a 1.5875,1.5875 0 0 1 -0.82852,-0.23336 1.6,1.6 0 0 0 -2.19976,2.2 1.5875,1.5875 0 0 1 0.23344,0.82865 v 8.41151 a 1.5875,1.5875 0 0 1 -0.23344,0.82866 1.6,1.6 0 0 0 2.19976,2.19999 z"
       style="fill:none;stroke:#ff0000;stroke-width:0.31;stroke-opacity:1;stroke-miterlimit:4;stroke-dasharray:none"
       id="path7061" />
    <path
       inkscape:connector-curvature="0"
       d="m 445.04958,-121.05725 1.17018,8.32863 a 1.5875,1.5875 0 0 1 -0.11585,0.85303 1.6,1.6 0 0 0 2.48461,1.87239 1.5875,1.5875 0 0 1 0.78804,-0.34645 l 8.32747,-1.1704 a 1.5875,1.5875 0 0 1 0.85293,0.11577 1.6,1.6 0 0 0 1.87236,-2.4845 1.5875,1.5875 0 0 1 -0.34633,-0.78805 l -1.16958,-8.32857 a 1.5875,1.5875 0 0 1 0.11595,-0.85311 1.6,1.6 0 0 0 -2.48451,-1.87257 1.5875,1.5875 0 0 1 -0.78804,0.34643 l -8.32846,1.17046 a 1.5875,1.5875 0 0 1 -0.85294,-0.11578 1.6,1.6 0 0 0 -1.87226,2.48463 1.5875,1.5875 0 0 1 0.34643,0.78809 z"
       style="fill:none;stroke:#ff0000;stroke-width:0.31;stroke-opacity:1;stroke-miterlimit:4;stroke-dasharray:none"
       id="path7063" />
    <path
       inkscape:connector-curvature="0"
       d="m 440.16444,-121.20748 a 1.6,1.6 0 0 0 -2.48461,-1.87238 1.5875,1.5875 0 0 1 -0.78804,0.34645 l -8.32925,1.17066 a 1.5875,1.5875 0 0 1 -0.85301,-0.1158 1.6,1.6 0 0 0 -1.8721,2.48488 1.5875,1.5875 0 0 1 0.34662,0.78809 l 1.17135,8.32747 a 1.5875,1.5875 0 0 1 -0.11566,0.8529 1.6,1.6 0 0 0 2.48461,1.87214 1.5875,1.5875 0 0 1 0.788,-0.34633 l 8.3272,-1.1697 a 1.5875,1.5875 0 0 1 0.85307,0.1159 1.6,1.6 0 0 0 1.87256,-2.48447 1.5875,1.5875 0 0 1 -0.34638,-0.78802 l -1.17021,-8.32874 a 1.5875,1.5875 0 0 1 0.11585,-0.85305 z"
       style="fill:none;stroke:#ff0000;stroke-width:0.31;stroke-opacity:1;stroke-miterlimit:4;stroke-dasharray:none"
       id="path7065" />
    <path
       inkscape:connector-curvature="0"
       d="m 557.69168,-137.28914 a 1.500005,1.500005 0 1 0 -3.00001,0 1.500005,1.500005 0 1 0 3.00001,0 z"
       style="fill:none;stroke:#ff0000;stroke-width:0.31;stroke-opacity:1;stroke-miterlimit:4;stroke-dasharray:none"
       id="path7067" />
    <path
       inkscape:connector-curvature="0"
       d="m 493.48593,-130.68726 -8.32853,1.17046 a 1.5875,1.5875 0 0 1 -0.85296,-0.11579 1.6,1.6 0 0 0 -1.87217,2.48477 1.5875,1.5875 0 0 1 0.34653,0.7881 l 1.17078,8.32861 a 1.5875,1.5875 0 0 1 -0.11578,0.85302 1.6,1.6 0 0 0 2.4847,1.87221 1.5875,1.5875 0 0 1 0.78804,-0.34648 l 8.32656,-1.17059 a 1.5875,1.5875 0 0 1 0.85292,0.11572 1.6,1.6 0 0 0 1.87229,-2.48453 1.5875,1.5875 0 0 1 -0.34634,-0.78804 l -1.16953,-8.3281 a 1.5875,1.5875 0 0 1 0.11596,-0.85314 1.6,1.6 0 0 0 -2.48446,-1.87263 1.5875,1.5875 0 0 1 -0.78801,0.34641 z"
       style="fill:none;stroke:#ff0000;stroke-width:0.31;stroke-opacity:1;stroke-miterlimit:4;stroke-dasharray:none"
       id="path7069" />
    <path
       inkscape:connector-curvature="0"
       d="m 510.98367,-81.041326 a 1.5875,1.5875 0 0 1 -0.23333,0.8285 1.6,1.6 0 0 0 2.20001,2.199741 1.5875,1.5875 0 0 1 0.82867,-0.233448 h 8.29527 a 1.5875,1.5875 0 0 1 1.03077,0.380159 1.6,1.6 0 0 0 2.25827,-2.25276 1.5875,1.5875 0 0 1 -0.37767,-1.027819 v -8.304186 a 1.5875,1.5875 0 0 1 0.23336,-0.828503 1.6,1.6 0 0 0 -2.20003,-2.199741 1.5875,1.5875 0 0 1 -0.82865,0.23345 h -8.41187 a 1.5875,1.5875 0 0 1 -0.82849,-0.233344 1.6,1.6 0 0 0 -2.19975,2.200018 1.5875,1.5875 0 0 1 0.23344,0.828673 z"
       style="fill:none;stroke:#ff0000;stroke-width:0.31;stroke-opacity:1;stroke-miterlimit:4;stroke-dasharray:none"
       id="path7071" />
    <path
       inkscape:connector-curvature="0"
       d="m 557.69168,-148.78914 a 1.500005,1.500005 0 1 0 -3.00001,0 1.500005,1.500005 0 1 0 3.00001,0 z"
       style="fill:none;stroke:#ff0000;stroke-width:0.31;stroke-opacity:1;stroke-miterlimit:4;stroke-dasharray:none"
       id="path7073" />
    <path
       inkscape:connector-curvature="0"
       d="m 557.69168,-143.03914 a 1.500005,1.500005 0 1 0 -3.00001,0 1.500005,1.500005 0 1 0 3.00001,0 z"
       style="fill:none;stroke:#ff0000;stroke-width:0.31;stroke-opacity:1;stroke-miterlimit:4;stroke-dasharray:none"
       id="path7075" />
    <path
       inkscape:connector-curvature="0"
       d="m 549.02808,-80.213046 a 1.5875,1.5875 0 0 1 -0.23341,-0.8286 v -8.409173 a 1.5875,1.5875 0 0 1 0.23341,-0.828601 1.6,1.6 0 0 0 -2.19988,-2.199902 1.5875,1.5875 0 0 1 -0.82856,0.233389 h -8.40894 a 1.5875,1.5875 0 0 1 -0.82857,-0.233389 1.6,1.6 0 0 0 -2.19985,2.199902 1.5875,1.5875 0 0 1 0.23339,0.828601 v 8.409173 a 1.5875,1.5875 0 0 1 -0.23339,0.8286 1.6,1.6 0 0 0 2.19985,2.1999 1.5875,1.5875 0 0 1 0.82857,-0.233387 h 8.40894 a 1.5875,1.5875 0 0 1 0.82856,0.233387 1.6,1.6 0 0 0 2.19988,-2.1999 z"
       style="fill:none;stroke:#ff0000;stroke-width:0.31;stroke-opacity:1;stroke-miterlimit:4;stroke-dasharray:none"
       id="path7077" />
    <path
       inkscape:connector-curvature="0"
       d="m 420.84058,146.71594 a 1.1375001,1.1375001 0 0 0 1.28474,0.96807 l 64.86072,-9.11656 a 1.1375001,1.1375001 0 0 0 0.96811,-1.28469 l -2.49232,-17.73851 9.4687,-1.33078 h 10.59714 v 18.1014 a 1.1375001,1.1375001 0 0 0 1.1375,1.1375 h 46.448 a 1.1375001,1.1375001 0 0 0 1.1375,-1.1375 v -18.1014 h 0.96149 a 1.1375001,1.1375001 0 0 0 1.1375,-1.1375 v -17.8757 a 1.1375001,1.1375001 0 0 0 -1.1375,-1.137499 h -1.5295 v -18.104 a 1.1375001,1.1375001 0 0 0 -1.1375,-1.1375 h -1.5295 v -18.1027 a 1.1375001,1.1375001 0 0 0 -1.1375,-1.1375 h -56.3904 a 1.1375001,1.1375001 0 0 0 -0.15867,0.01112 L 416.0806,70.473412 a 1.1375001,1.1375001 0 0 0 -0.96776,1.284743 l 2.4885,17.700551 a 1.1375001,1.1375001 0 0 0 1.28473,0.968068 l 3.58844,-0.504308 2.50026,17.775064 -8.30688,1.16834 a 1.1375001,1.1375001 0 0 0 -0.96799,1.28478 z"
       style="fill:none;stroke:#ff0000;stroke-width:0.31;stroke-opacity:1;stroke-miterlimit:4;stroke-dasharray:none"
       id="path7079" />
    <path
       inkscape:connector-curvature="0"
       d="m 562.79967,148.35051 a 5.9999998,5.9999998 0 0 1 -6.00001,6 H 276.19267 a 5.9999998,5.9999998 0 0 1 -5.99999,-6 V 58.040761 a 5.9999998,5.9999998 0 0 1 5.99999,-6.000001 h 280.60699 a 5.9999998,5.9999998 0 0 1 6.00001,6.000001 z"
       style="fill:none;stroke:#ff0000;stroke-width:0.31;stroke-opacity:1;stroke-miterlimit:4;stroke-dasharray:none"
       id="path7081" />
    <path
       inkscape:connector-curvature="0"
       d="m 340.34705,137.94652 a 1.1375001,1.1375001 0 0 0 0.96813,1.2848 l 60.14714,8.45263 a 1.1375001,1.1375001 0 0 0 1.28473,-0.96817 l 5.13706,-36.56394 a 1.1375001,1.1375001 0 0 0 -0.96797,-1.28467 l -8.30435,-1.16822 2.49256,-17.738498 a 1.1375001,1.1375001 0 0 0 -0.96811,-1.284712 l -3.57664,-0.502685 2.4829,-17.755777 a 1.1375001,1.1375001 0 0 0 -0.96846,-1.283994 l -74.43043,-10.44501 a 1.1375001,1.1375001 0 0 0 -1.22827,0.740987 h -39.11017 a 1.1375001,1.1375001 0 0 0 -1.1375,1.1375 v 18.1027 h -1.43549 a 1.1375001,1.1375001 0 0 0 -1.13751,1.1375 v 18.104 h -1.8145 a 1.1375001,1.1375001 0 0 0 -1.1375,1.137499 v 17.8757 a 1.1375001,1.1375001 0 0 0 1.1375,1.1375 h 0.9585 v 18.1014 a 1.1375001,1.1375001 0 0 0 1.1375,1.1375 h 46.448 a 1.1375001,1.1375001 0 0 0 1.1375,-1.1375 V 118.0468 l 15.37914,2.16182 z"
       style="fill:none;stroke:#ff0000;stroke-width:0.31;stroke-opacity:1;stroke-miterlimit:4;stroke-dasharray:none"
       id="path7083" />
    <path
       inkscape:connector-curvature="0"
       d="m 556.69166,75.33476 a 0.50000005,0.50000005 0 1 0 -0.99999,0 0.50000005,0.50000005 0 1 0 0.99999,0 z"
       style="fill:none;stroke:#ff0000;stroke-width:0.31;stroke-opacity:1;stroke-miterlimit:4;stroke-dasharray:none"
       id="path7085" />
    <path
       inkscape:connector-curvature="0"
       d="m 556.69166,63.834761 a 0.50000005,0.50000005 0 1 0 -0.99999,0 0.50000005,0.50000005 0 1 0 0.99999,0 z"
       style="fill:none;stroke:#ff0000;stroke-width:0.31;stroke-opacity:1;stroke-miterlimit:4;stroke-dasharray:none"
       id="path7087" />
    <path
       inkscape:connector-curvature="0"
       d="m 556.69166,69.58476 a 0.50000005,0.50000005 0 1 0 -0.99999,0 0.50000005,0.50000005 0 1 0 0.99999,0 z"
       style="fill:none;stroke:#ff0000;stroke-width:0.31;stroke-opacity:1;stroke-miterlimit:4;stroke-dasharray:none"
       id="path7089" />
    <path
       inkscape:connector-curvature="0"
       d="m 416.0806,-35.837471 a 1.1375001,1.1375001 0 0 0 -0.96776,1.284743 l 2.4885,17.70055 a 1.1375001,1.1375001 0 0 0 1.28473,0.968069 l 3.58844,-0.50431 2.50026,17.7750658 -8.30688,1.1683444 a 1.1375001,1.1375001 0 0 0 -0.96799,1.284777 l 5.14068,36.5652918 a 1.1375001,1.1375001 0 0 0 1.28474,0.968065 l 64.86072,-9.116552 a 1.1375001,1.1375001 0 0 0 0.96811,-1.284695 l -2.49232,-17.738515 9.4687,-1.330775 h 10.59714 v 18.1014 a 1.1375001,1.1375001 0 0 0 1.1375,1.137499 h 46.448 a 1.1375001,1.1375001 0 0 0 1.1375,-1.137499 v -18.1014 h 0.96149 a 1.1375001,1.1375001 0 0 0 1.1375,-1.137499 V -7.1106109 a 1.1375001,1.1375001 0 0 0 -1.1375,-1.137502 h -1.5295 V -26.352111 a 1.1375001,1.1375001 0 0 0 -1.1375,-1.137502 h -1.5295 v -18.102699 a 1.1375001,1.1375001 0 0 0 -1.1375,-1.137499 h -56.3904 a 1.1375001,1.1375001 0 0 0 -0.15867,0.01111 z"
       style="fill:none;stroke:#ff0000;stroke-width:0.31;stroke-opacity:1;stroke-miterlimit:4;stroke-dasharray:none"
       id="path7091" />
    <path
       inkscape:connector-curvature="0"
       d="m 556.69166,-36.726122 a 0.50000005,0.50000005 0 1 0 -0.99999,0 0.50000005,0.50000005 0 1 0 0.99999,0 z"
       style="fill:none;stroke:#ff0000;stroke-width:0.31;stroke-opacity:1;stroke-miterlimit:4;stroke-dasharray:none"
       id="path7093" />
    <path
       inkscape:connector-curvature="0"
       d="m 283.30517,-46.881621 a 1.1375001,1.1375001 0 0 0 -1.1375,1.137499 v 18.102699 h -1.43549 a 1.1375001,1.1375001 0 0 0 -1.13751,1.137502 v 18.1039982 h -1.8145 a 1.1375001,1.1375001 0 0 0 -1.1375,1.1375019 V 10.613279 a 1.1375001,1.1375001 0 0 0 1.1375,1.137499 h 0.9585 v 18.1014 a 1.1375001,1.1375001 0 0 0 1.1375,1.137499 h 46.448 a 1.1375001,1.1375001 0 0 0 1.1375,-1.137499 V 11.735916 l 15.37914,2.161821 -2.49376,17.737902 a 1.1375001,1.1375001 0 0 0 0.96813,1.284795 l 60.14714,8.452639 a 1.1375001,1.1375001 0 0 0 1.28473,-0.968174 l 5.13706,-36.5639402 a 1.1375001,1.1375001 0 0 0 -0.96797,-1.2846659 l -8.30435,-1.168228 2.49256,-17.7384949 a 1.1375001,1.1375001 0 0 0 -0.96811,-1.284713 l -3.57664,-0.502685 2.4829,-17.755777 a 1.1375001,1.1375001 0 0 0 -0.96846,-1.283994 l -74.43043,-10.445009 a 1.1375001,1.1375001 0 0 0 -1.22827,0.740987 z"
       style="fill:none;stroke:#ff0000;stroke-width:0.31;stroke-opacity:1;stroke-miterlimit:4;stroke-dasharray:none"
       id="path7095" />
    <path
       inkscape:connector-curvature="0"
       d="m 546.37468,38.039627 a 1.5750116,1.5750116 0 1 0 -3.15002,0 1.5750116,1.5750116 0 1 0 3.15002,0 z"
       style="fill:none;stroke:#ff0000;stroke-width:0.31;stroke-opacity:1;stroke-miterlimit:4;stroke-dasharray:none"
       id="path7097" />
    <path
       inkscape:connector-curvature="0"
       d="m 562.79967,-48.270122 v 90.309749 a 5.9999998,5.9999998 0 0 1 -6.00001,5.999998 H 276.19267 a 5.9999998,5.9999998 0 0 1 -5.99999,-5.999998 v -90.309749 a 5.9999998,5.9999998 0 0 1 5.99999,-5.999999 h 280.60699 a 5.9999998,5.9999998 0 0 1 6.00001,5.999999 z"
       style="fill:none;stroke:#ff0000;stroke-width:0.31;stroke-opacity:1;stroke-miterlimit:4;stroke-dasharray:none"
       id="path7099" />
    <path
       inkscape:connector-curvature="0"
       d="m 556.69166,-30.976123 a 0.50000005,0.50000005 0 1 0 -0.99999,0 0.50000005,0.50000005 0 1 0 0.99999,0 z"
       style="fill:none;stroke:#ff0000;stroke-width:0.31;stroke-opacity:1;stroke-miterlimit:4;stroke-dasharray:none"
       id="path7101" />
    <path
       inkscape:connector-curvature="0"
       d="m 289.76767,38.039627 a 1.575,1.575 0 1 0 -3.14999,0 1.575,1.575 0 1 0 3.14999,0 z"
       style="fill:none;stroke:#ff0000;stroke-width:0.31;stroke-opacity:1;stroke-miterlimit:4;stroke-dasharray:none"
       id="path7103" />
    <path
       inkscape:connector-curvature="0"
       d="m 414.78767,-50.770123 a 1.575,1.575 0 1 0 -3.15,0 1.575,1.575 0 1 0 3.15,0 z"
       style="fill:none;stroke:#ff0000;stroke-width:0.31;stroke-opacity:1;stroke-miterlimit:4;stroke-dasharray:none"
       id="path7105" />
    <path
       inkscape:connector-curvature="0"
       d="m 556.69166,-42.476123 a 0.50000005,0.50000005 0 1 0 -0.99999,0 0.50000005,0.50000005 0 1 0 0.99999,0 z"
       style="fill:none;stroke:#ff0000;stroke-width:0.31;stroke-opacity:1;stroke-miterlimit:4;stroke-dasharray:none"
       id="path7107" />
    <path
       inkscape:connector-curvature="0"
       d="m 289.76767,-50.770123 a 1.575,1.575 0 1 0 -3.14999,0 1.575,1.575 0 1 0 3.14999,0 z"
       style="fill:none;stroke:#ff0000;stroke-width:0.31;stroke-opacity:1;stroke-miterlimit:4;stroke-dasharray:none"
       id="path7109" />
    <path
       inkscape:connector-curvature="0"
       d="m 546.37468,-50.770123 a 1.5750116,1.5750116 0 1 0 -3.15002,0 1.5750116,1.5750116 0 1 0 3.15002,0 z"
       style="fill:none;stroke:#ff0000;stroke-width:0.31;stroke-opacity:1;stroke-miterlimit:4;stroke-dasharray:none"
       id="path7111" />
    <path
       inkscape:connector-curvature="0"
       d="m 414.78767,38.039627 a 1.575,1.575 0 1 0 -3.15,0 1.575,1.575 0 1 0 3.15,0 z"
       style="fill:none;stroke:#ff0000;stroke-width:0.31;stroke-opacity:1;stroke-miterlimit:4;stroke-dasharray:none"
       id="path7113" />
    <path
       inkscape:connector-curvature="0"
       d="m 433.38265,-101.01788 a 1.6,1.6 0 0 0 -2.48486,-1.872 1.5875,1.5875 0 0 1 -0.78803,0.34655 l -8.32741,1.17123 a 1.5875,1.5875 0 0 1 -0.85297,-0.1157 1.6,1.6 0 0 0 -1.87205,2.484777 1.5875,1.5875 0 0 1 0.34647,0.788019 l 1.17073,8.327337 a 1.5875,1.5875 0 0 1 -0.11578,0.853037 1.6,1.6 0 0 0 2.74548,1.599999 l 8.85542,-1.244573 a 1.5875,1.5875 0 0 1 0.85306,0.115826 1.6,1.6 0 0 0 1.87221,-2.484786 1.5875,1.5875 0 0 1 -0.34656,-0.788048 l -1.17141,-8.328678 a 1.5875,1.5875 0 0 1 0.1157,-0.85299 z"
       style="fill:none;stroke:#ff0000;stroke-width:0.31;stroke-opacity:1;stroke-miterlimit:4;stroke-dasharray:none"
       id="path7115" />
    <path
       inkscape:connector-curvature="0"
       d="m 548.92709,-111.71955 a 1.5875,1.5875 0 0 1 -0.82862,0.23342 h -8.41158 a 1.5875,1.5875 0 0 1 -0.82865,-0.23342 1.6,1.6 0 0 0 -2.19993,2.1998 1.5875,1.5875 0 0 1 0.23336,0.82855 v 8.41083 a 1.5875,1.5875 0 0 1 -0.23336,0.82855 1.6,1.6 0 0 0 2.19993,2.199809 1.5875,1.5875 0 0 1 0.82865,-0.233423 h 8.41158 a 1.5875,1.5875 0 0 1 0.82862,0.233423 1.6,1.6 0 0 0 2.19996,-2.199809 1.5875,1.5875 0 0 1 -0.23339,-0.82855 v -8.41083 a 1.5875,1.5875 0 0 1 0.23339,-0.82855 1.6,1.6 0 0 0 -2.19996,-2.1998 z"
       style="fill:none;stroke:#ff0000;stroke-width:0.31;stroke-opacity:1;stroke-miterlimit:4;stroke-dasharray:none"
       id="path7117" />
    <path
       inkscape:connector-curvature="0"
       d="m 363.81969,-131.04806 8.32736,1.16891 a 1.5875,1.5875 0 0 1 0.78814,0.34635 1.6,1.6 0 0 0 2.48436,-1.8727 1.5875,1.5875 0 0 1 -0.11597,-0.85297 l 1.16871,-8.32765 a 1.5875,1.5875 0 0 1 0.34628,-0.7881 1.6,1.6 0 0 0 -1.87277,-2.48427 1.5875,1.5875 0 0 1 -0.85298,0.11596 l -8.32835,-1.16897 a 1.5875,1.5875 0 0 1 -0.78814,-0.34633 1.6,1.6 0 0 0 -2.48426,1.87289 1.5875,1.5875 0 0 1 0.11605,0.85303 l -1.16809,8.3276 a 1.5875,1.5875 0 0 1 -0.34618,0.78806 1.6,1.6 0 0 0 1.87287,2.48413 1.5875,1.5875 0 0 1 0.85297,-0.11594 z"
       style="fill:none;stroke:#ff0000;stroke-width:0.31;stroke-opacity:1;stroke-miterlimit:4;stroke-dasharray:none"
       id="path7119" />
    <path
       inkscape:connector-curvature="0"
       d="m 503.26866,-119.52072 a 1.5875,1.5875 0 0 1 -0.23341,0.82862 1.6,1.6 0 0 0 2.19982,2.19994 1.5875,1.5875 0 0 1 0.82854,-0.23337 h 8.41476 a 1.5875,1.5875 0 0 1 0.82743,0.23268 1.6,1.6 0 0 0 2.19797,-2.20177 1.5875,1.5875 0 0 1 -0.2341,-0.82976 v -8.40807 a 1.5875,1.5875 0 0 1 0.23342,-0.82862 1.6,1.6 0 0 0 -2.19983,-2.19994 1.5875,1.5875 0 0 1 -0.82854,0.23338 h -8.41087 a 1.5875,1.5875 0 0 1 -0.82862,-0.23342 1.6,1.6 0 0 0 -2.19993,2.19982 1.5875,1.5875 0 0 1 0.23336,0.82855 z"
       style="fill:none;stroke:#ff0000;stroke-width:0.31;stroke-opacity:1;stroke-miterlimit:4;stroke-dasharray:none"
       id="path7121" />
    <path
       inkscape:connector-curvature="0"
       d="m 475.65032,-106.95705 a 1.5875,1.5875 0 0 1 0.34649,0.78805 l 1.17077,8.327595 a 1.5875,1.5875 0 0 1 -0.11572,0.852919 1.6,1.6 0 0 0 2.48476,1.872099 1.5875,1.5875 0 0 1 0.78809,-0.346482 l 8.32704,-1.170345 a 1.5875,1.5875 0 0 1 0.85302,0.115811 1.6,1.6 0 0 0 1.87251,-2.484419 1.5875,1.5875 0 0 1 -0.34629,-0.78798 l -1.16956,-8.327488 a 1.5875,1.5875 0 0 1 0.11591,-0.85304 1.6,1.6 0 0 0 -2.48457,-1.87248 1.5875,1.5875 0 0 1 -0.78808,0.34645 l -8.32904,1.17045 a 1.5875,1.5875 0 0 1 -0.85304,-0.11583 1.6,1.6 0 0 0 -1.87229,2.48469 z"
       style="fill:none;stroke:#ff0000;stroke-width:0.31;stroke-opacity:1;stroke-miterlimit:4;stroke-dasharray:none"
       id="path7123" />
    <path
       inkscape:connector-curvature="0"
       d="m 300.86168,-108.8428 a 1.5875,1.5875 0 0 1 0.23341,-0.82861 1.6,1.6 0 0 0 -2.4961,-1.96653 h -8.94232 a 1.5875,1.5875 0 0 1 -0.82856,-0.23338 1.6,1.6 0 0 0 -2.19985,2.19991 1.5875,1.5875 0 0 1 0.23341,0.82861 v 8.41041 a 1.5875,1.5875 0 0 1 -0.23341,0.828612 1.6,1.6 0 0 0 2.19985,2.199917 1.5875,1.5875 0 0 1 0.82856,-0.233383 h 8.41001 a 1.5875,1.5875 0 0 1 0.82856,0.233383 1.6,1.6 0 0 0 2.19985,-2.199917 1.5875,1.5875 0 0 1 -0.23341,-0.828612 z"
       style="fill:none;stroke:#ff0000;stroke-width:0.31;stroke-opacity:1;stroke-miterlimit:4;stroke-dasharray:none"
       id="path7125" />
    <path
       inkscape:connector-curvature="0"
       d="m 323.36042,-138.71768 a 1.6,1.6 0 0 0 1.87236,2.48475 1.5875,1.5875 0 0 1 0.85309,-0.11593 l 8.32915,1.16981 a 1.5875,1.5875 0 0 1 0.788,0.34631 1.6,1.6 0 0 0 2.48443,-1.87251 1.5875,1.5875 0 0 1 -0.11584,-0.85302 l 1.17014,-8.32738 a 1.5875,1.5875 0 0 1 0.34641,-0.78803 1.6,1.6 0 0 0 -1.87235,-2.48458 1.5875,1.5875 0 0 1 -0.853,0.1158 l -8.32723,-1.17036 a 1.5875,1.5875 0 0 1 -0.78805,-0.34646 1.6,1.6 0 0 0 -2.48477,1.87202 1.5875,1.5875 0 0 1 0.11567,0.85291 l -1.17142,8.32858 a 1.5875,1.5875 0 0 1 -0.34659,0.78809 z"
       style="fill:none;stroke:#ff0000;stroke-width:0.31;stroke-opacity:1;stroke-miterlimit:4;stroke-dasharray:none"
       id="path7127" />
    <path
       inkscape:connector-curvature="0"
       d="m 392.96054,-141.09973 -8.32909,-1.1644 a 1.5875,1.5875 0 0 1 -0.78826,-0.34584 1.6,1.6 0 0 0 -2.48326,1.87409 1.5875,1.5875 0 0 1 0.1164,0.85293 l -1.16475,8.32937 a 1.5875,1.5875 0 0 1 -0.34592,0.78832 1.6,1.6 0 0 0 1.87405,2.48335 1.5875,1.5875 0 0 1 0.85291,-0.11643 l 8.32909,1.16439 a 1.5875,1.5875 0 0 1 0.78826,0.34584 1.6,1.6 0 0 0 2.48326,-1.87409 1.5875,1.5875 0 0 1 -0.1164,-0.85293 l 1.16475,-8.32937 a 1.5875,1.5875 0 0 1 0.34593,-0.78831 1.6,1.6 0 0 0 -1.87405,-2.48335 1.5875,1.5875 0 0 1 -0.85292,0.11643 z"
       style="fill:none;stroke:#ff0000;stroke-width:0.31;stroke-opacity:1;stroke-miterlimit:4;stroke-dasharray:none"
       id="path7129" />
    <path
       inkscape:connector-curvature="0"
       d="m 344.09851,-133.58268 a 1.5875,1.5875 0 0 1 0.85297,-0.11577 l 8.32928,1.1708 a 1.5875,1.5875 0 0 1 0.7881,0.34651 1.6,1.6 0 0 0 2.48459,-1.87256 1.5875,1.5875 0 0 1 -0.11599,-0.85308 l 1.16907,-8.32848 a 1.5875,1.5875 0 0 1 0.34622,-0.78798 1.6,1.6 0 0 0 -1.87262,-2.48429 1.5875,1.5875 0 0 1 -0.853,0.11583 l -8.32724,-1.17008 a 1.5875,1.5875 0 0 1 -0.78809,-0.34644 1.6,1.6 0 0 0 -2.48464,1.87228 1.5875,1.5875 0 0 1 0.1158,0.85295 l -1.17024,8.32759 a 1.5875,1.5875 0 0 1 -0.34644,0.78806 1.6,1.6 0 0 0 1.87223,2.48466 z"
       style="fill:none;stroke:#ff0000;stroke-width:0.31;stroke-opacity:1;stroke-miterlimit:4;stroke-dasharray:none"
       id="path7131" />
    <path
       inkscape:connector-curvature="0"
       d="m 402.65514,-101.48649 a 1.5875,1.5875 0 0 1 -0.85288,0.11564 l -8.32739,-1.17147 a 1.5875,1.5875 0 0 1 -0.7881,-0.34664 1.6,1.6 0 0 0 -2.48486,1.87218 1.5875,1.5875 0 0 1 0.11585,0.85305 l -1.17021,8.328912 a 1.5875,1.5875 0 0 1 -0.34639,0.788024 1.6,1.6 0 0 0 1.87236,2.484557 1.5875,1.5875 0 0 1 0.85301,-0.1158 l 8.32828,1.170487 a 1.5875,1.5875 0 0 1 0.78804,0.346443 1.6,1.6 0 0 0 2.48453,-1.872538 1.5875,1.5875 0 0 1 -0.11593,-0.853091 l 1.16952,-8.32717 a 1.5875,1.5875 0 0 1 0.34631,-0.787998 1.6,1.6 0 0 0 -1.87214,-2.484586 z"
       style="fill:none;stroke:#ff0000;stroke-width:0.31;stroke-opacity:1;stroke-miterlimit:4;stroke-dasharray:none"
       id="path7133" />
    <path
       inkscape:connector-curvature="0"
       d="m 299.47611,-148.153 a 1.6,1.6 0 0 0 -2.19976,-2.2 1.5875,1.5875 0 0 1 -0.82852,0.23336 h -8.41031 a 1.5875,1.5875 0 0 1 -0.82852,-0.23336 1.6,1.6 0 0 0 -2.19976,2.2 1.5875,1.5875 0 0 1 0.23344,0.82865 v 8.41151 a 1.5875,1.5875 0 0 1 -0.23344,0.82866 1.6,1.6 0 0 0 2.19976,2.19999 1.5875,1.5875 0 0 1 0.82852,-0.23335 h 8.41031 a 1.5875,1.5875 0 0 1 0.82852,0.23335 1.6,1.6 0 0 0 2.19976,-2.19999 1.5875,1.5875 0 0 1 -0.23344,-0.82866 v -8.41151 a 1.5875,1.5875 0 0 1 0.23344,-0.82865 z"
       style="fill:none;stroke:#ff0000;stroke-width:0.31;stroke-opacity:1;stroke-miterlimit:4;stroke-dasharray:none"
       id="path7135" />
    <path
       inkscape:connector-curvature="0"
       d="m 401.53074,-79.349766 a 1.5875,1.5875 0 0 1 0.34642,-0.788048 1.6,1.6 0 0 0 -1.33031,-2.61407 1.5875,1.5875 0 0 1 -1.17029,-0.417494 1.5875,1.5875 0 0 0 -0.85465,-0.404786 l -2.22394,-0.313148 a 1.5875,1.5875 0 0 0 -1.19893,0.321199 1.5875,1.5875 0 0 1 -1.19848,0.32126 l -16.69161,-2.34546 a 1.5875,1.5875 0 0 1 -1.06366,-0.639275 1.5875,1.5875 0 0 0 -1.06312,-0.639199 l -2.22172,-0.31296 a 1.5875,1.5875 0 0 0 -0.93455,0.153665 1.5875,1.5875 0 0 1 -1.24017,0.07914 1.6,1.6 0 0 0 -1.99893,2.146241 1.5875,1.5875 0 0 1 0.11578,0.853012 l -1.17079,8.328578 a 1.5875,1.5875 0 0 1 -0.34651,0.788088 1.6,1.6 0 0 0 1.87228,2.484712 1.5875,1.5875 0 0 1 0.853,-0.11584 l 27.19323,3.820711 a 1.5875,1.5875 0 0 1 0.78806,0.346411 1.6,1.6 0 0 0 2.48457,-1.872364 1.5875,1.5875 0 0 1 -0.11582,-0.852987 z"
       style="fill:none;stroke:#ff0000;stroke-width:0.31;stroke-opacity:1;stroke-miterlimit:4;stroke-dasharray:none"
       id="path7137" />
    <path
       inkscape:connector-curvature="0"
       d="m 296.26768,159.37169 v -1.02118 h -20.07501 a 5.9999998,5.9999998 0 0 0 -5.99999,6 v 90.30975 a 5.9999998,5.9999998 0 0 0 5.99999,6 h 280.60699 a 5.9999998,5.9999998 0 0 0 6.00001,-6 v -90.30975 a 5.9999998,5.9999998 0 0 0 -6.00001,-6 H 307.26767 v 1.01428 a 1.5875,1.5875 0 0 1 1.375,1.57322 v 1.699 a 1.5875,1.5875 0 0 0 1.5875,1.5875 h 98.61589 a 1.5875,1.5875 0 0 1 1.38268,0.80753 3.4224999,3.4224999 0 0 0 5.96186,0 1.5875,1.5875 0 0 1 1.38269,-0.80753 h 122.86287 a 1.5875,1.5875 0 0 1 1.38269,0.80752 3.4223999,3.4223999 0 0 0 5.96164,0 1.5875,1.5875 0 0 1 1.38269,-0.80752 h 8.78599 a 1.5875,1.5875 0 0 1 1.5875,1.5875 v 21.99775 a 1.5875,1.5875 0 0 1 -1.5875,1.5875 h -0.625 a 1.5875,1.5875 0 0 0 -1.5875,1.5875 v 52.725 a 1.5875,1.5875 0 0 1 -1.5875,1.5875 h -61.825 a 1.5875,1.5875 0 0 0 -1.5875,1.5875 v 7.325 a 1.5875,1.5875 0 0 1 -1.5875,1.5875 h -70.9296 a 1.5875,1.5875 0 0 1 -1.5875,-1.5875 v -3.5495 a 3.4224,3.4224 0 0 0 -6.8448,0 v 3.5495 a 1.5875,1.5875 0 0 1 -1.5875,1.5875 h -67.9566 a 1.5875,1.5875 0 0 1 -1.5875,-1.5875 v -7.325 a 1.5875,1.5875 0 0 0 -1.5875,-1.5875 h -55.325 a 1.5875,1.5875 0 0 1 -1.5875,-1.5875 v -74.55775 a 1.5875,1.5875 0 0 1 1.5875,-1.5875 h 11.60801 a 1.5875,1.5875 0 0 0 1.5875,-1.5875 v -5.039 a 1.5875,1.5875 0 0 1 1.329,-1.56632 z"
       style="fill:none;stroke:#ff0000;stroke-width:0.31;stroke-opacity:1;stroke-miterlimit:4;stroke-dasharray:none"
       id="path7139" />
    <path
       inkscape:connector-curvature="0"
       d="m 546.37468,250.66026 a 1.5750116,1.5750116 0 1 0 -3.15002,0 1.5750116,1.5750116 0 1 0 3.15002,0 z"
       style="fill:none;stroke:#ff0000;stroke-width:0.31;stroke-opacity:1;stroke-miterlimit:4;stroke-dasharray:none"
       id="path7141" />
    <path
       inkscape:connector-curvature="0"
       d="m 414.78767,144.35051 a 1.575,1.575 0 1 0 -3.15,0 1.575,1.575 0 1 0 3.15,0 z"
       style="fill:none;stroke:#ff0000;stroke-width:0.31;stroke-opacity:1;stroke-miterlimit:4;stroke-dasharray:none"
       id="path7143" />
    <path
       inkscape:connector-curvature="0"
       d="m 289.76767,161.85051 a 1.575,1.575 0 1 0 -3.14999,0 1.575,1.575 0 1 0 3.14999,0 z"
       style="fill:none;stroke:#ff0000;stroke-width:0.31;stroke-opacity:1;stroke-miterlimit:4;stroke-dasharray:none"
       id="path7145" />
    <path
       inkscape:connector-curvature="0"
       d="m 289.76767,250.66026 a 1.575,1.575 0 1 0 -3.14999,0 1.575,1.575 0 1 0 3.14999,0 z"
       style="fill:none;stroke:#ff0000;stroke-width:0.31;stroke-opacity:1;stroke-miterlimit:4;stroke-dasharray:none"
       id="path7147" />
    <path
       inkscape:connector-curvature="0"
       d="m 546.37468,161.85051 a 1.5750116,1.5750116 0 1 0 -3.15002,0 1.5750116,1.5750116 0 1 0 3.15002,0 z"
       style="fill:none;stroke:#ff0000;stroke-width:0.31;stroke-opacity:1;stroke-miterlimit:4;stroke-dasharray:none"
       id="path7149" />
    <path
       inkscape:connector-curvature="0"
       d="m 289.76767,55.540761 a 1.575,1.575 0 1 0 -3.14999,0 1.575,1.575 0 1 0 3.14999,0 z"
       style="fill:none;stroke:#ff0000;stroke-width:0.31;stroke-opacity:1;stroke-miterlimit:4;stroke-dasharray:none"
       id="path7151" />
    <path
       inkscape:connector-curvature="0"
       d="m 414.78467,250.66026 a 1.5750011,1.5750011 0 1 0 -3.15,0 1.5750011,1.5750011 0 1 0 3.15,0 z"
       style="fill:none;stroke:#ff0000;stroke-width:0.31;stroke-opacity:1;stroke-miterlimit:4;stroke-dasharray:none"
       id="path7153" />
    <path
       inkscape:connector-curvature="0"
       d="M 562.79967,270.66026 V 360.97 a 5.9999998,5.9999998 0 0 1 -6.00001,6.00001 H 276.19267 A 5.9999998,5.9999998 0 0 1 270.19268,360.97 v -90.30974 a 5.9999998,5.9999998 0 0 1 5.99999,-6.00001 h 20.07501 v 10.00001 h 10.99999 v -10.00001 h 249.53199 a 5.9999998,5.9999998 0 0 1 6.00001,6.00001 z"
       style="fill:none;stroke:#ff0000;stroke-width:0.31;stroke-opacity:1;stroke-miterlimit:4;stroke-dasharray:none"
       id="path7155" />
    <path
       inkscape:connector-curvature="0"
       d="m 289.21267,268.16026 a 1.0200005,1.0200005 0 1 0 -2.04,0 1.0200005,1.0200005 0 1 0 2.04,0 z"
       style="fill:none;stroke:#ff0000;stroke-width:0.31;stroke-opacity:1;stroke-miterlimit:4;stroke-dasharray:none"
       id="path7157" />
    <path
       inkscape:connector-curvature="0"
       d="m 546.37468,55.540761 a 1.5750116,1.5750116 0 1 0 -3.15002,0 1.5750116,1.5750116 0 1 0 3.15002,0 z"
       style="fill:none;stroke:#ff0000;stroke-width:0.31;stroke-opacity:1;stroke-miterlimit:4;stroke-dasharray:none"
       id="path7159" />
    <path
       inkscape:connector-curvature="0"
       d="m 414.22967,356.97 a 1.0200005,1.0200005 0 1 0 -2.04,0 1.0200005,1.0200005 0 1 0 2.04,0 z"
       style="fill:none;stroke:#ff0000;stroke-width:0.31;stroke-opacity:1;stroke-miterlimit:4;stroke-dasharray:none"
       id="path7161" />
    <path
       inkscape:connector-curvature="0"
       d="m 289.76767,144.35051 a 1.575,1.575 0 1 0 -3.14999,0 1.575,1.575 0 1 0 3.14999,0 z"
       style="fill:none;stroke:#ff0000;stroke-width:0.31;stroke-opacity:1;stroke-miterlimit:4;stroke-dasharray:none"
       id="path7163" />
    <path
       inkscape:connector-curvature="0"
       d="m 415.04417,344.817 a 1.5875,1.5875 0 1 0 -3.175,0 1.5875,1.5875 0 1 0 3.175,0 z"
       style="fill:none;stroke:#ff0000;stroke-width:0.31;stroke-opacity:1;stroke-miterlimit:4;stroke-dasharray:none"
       id="path7165" />
    <path
       inkscape:connector-curvature="0"
       d="m 414.78467,161.85051 a 1.5750011,1.5750011 0 1 0 -3.15,0 1.5750011,1.5750011 0 1 0 3.15,0 z"
       style="fill:none;stroke:#ff0000;stroke-width:0.31;stroke-opacity:1;stroke-miterlimit:4;stroke-dasharray:none"
       id="path7167" />
    <path
       inkscape:connector-curvature="0"
       d="m 546.37468,144.35051 a 1.5750116,1.5750116 0 1 0 -3.15002,0 1.5750116,1.5750116 0 1 0 3.15002,0 z"
       style="fill:none;stroke:#ff0000;stroke-width:0.31;stroke-opacity:1;stroke-miterlimit:4;stroke-dasharray:none"
       id="path7169" />
    <path
       inkscape:connector-curvature="0"
       d="m 546.37468,-157.08314 a 1.5750116,1.5750116 0 1 0 -3.15002,0 1.5750116,1.5750116 0 1 0 3.15002,0 z"
       style="fill:none;stroke:#ff0000;stroke-width:0.31;stroke-opacity:1;stroke-miterlimit:4;stroke-dasharray:none"
       id="path7173" />
    <path
       inkscape:connector-curvature="0"
       d="m 546.37468,-68.273395 a 1.5750116,1.5750116 0 1 0 -3.15002,0 1.5750116,1.5750116 0 1 0 3.15002,0 z"
       style="fill:none;stroke:#ff0000;stroke-width:0.31;stroke-opacity:1;stroke-miterlimit:4;stroke-dasharray:none"
       id="path7185" />
    <path
       inkscape:connector-curvature="0"
       d="m 414.78767,55.540761 a 1.575,1.575 0 1 0 -3.15,0 1.575,1.575 0 1 0 3.15,0 z"
       style="fill:none;stroke:#ff0000;stroke-width:0.31;stroke-opacity:1;stroke-miterlimit:4;stroke-dasharray:none"
       id="path7187" />
    <path
       inkscape:connector-curvature="0"
       d="m 414.78467,-157.08314 a 1.5750011,1.5750011 0 1 0 -3.15,0 1.5750011,1.5750011 0 1 0 3.15,0 z"
       style="fill:none;stroke:#ff0000;stroke-width:0.31;stroke-opacity:1;stroke-miterlimit:4;stroke-dasharray:none"
       id="path7189" />
    <path
       inkscape:connector-curvature="0"
       d="m 289.76767,-157.08314 a 1.575,1.575 0 1 0 -3.14999,0 1.575,1.575 0 1 0 3.14999,0 z"
       style="fill:none;stroke:#ff0000;stroke-width:0.31;stroke-opacity:1;stroke-miterlimit:4;stroke-dasharray:none"
       id="path7191" />
    <path
       inkscape:connector-curvature="0"
       d="m 289.76767,-68.273395 a 1.575,1.575 0 1 0 -3.14999,0 1.575,1.575 0 1 0 3.14999,0 z"
       style="fill:none;stroke:#ff0000;stroke-width:0.31;stroke-opacity:1;stroke-miterlimit:4;stroke-dasharray:none"
       id="path7197" />
    <path
       inkscape:connector-curvature="0"
       d="m 289.21267,356.97 a 1.0200005,1.0200005 0 1 0 -2.04,0 1.0200005,1.0200005 0 1 0 2.04,0 z"
       style="fill:none;stroke:#ff0000;stroke-width:0.31;stroke-opacity:1;stroke-miterlimit:4;stroke-dasharray:none"
       id="path7199" />
    <path
       inkscape:connector-curvature="0"
       d="m 414.22967,268.16026 a 1.0200005,1.0200005 0 1 0 -2.04,0 1.0200005,1.0200005 0 1 0 2.04,0 z"
       style="fill:none;stroke:#ff0000;stroke-width:0.31;stroke-opacity:1;stroke-miterlimit:4;stroke-dasharray:none"
       id="path7201" />
    <path
       inkscape:connector-curvature="0"
       d="m 414.78467,-68.273395 a 1.5750011,1.5750011 0 1 0 -3.15,0 1.5750011,1.5750011 0 1 0 3.15,0 z"
       style="fill:none;stroke:#ff0000;stroke-width:0.31;stroke-opacity:1;stroke-miterlimit:4;stroke-dasharray:none"
       id="path7203" />
    <path
       inkscape:connector-curvature="0"
       d="m 517.68366,-135.96713 h 8.41002 a 1.5875,1.5875 0 0 1 0.82857,0.23338 1.6,1.6 0 0 0 2.19983,-2.19992 1.5875,1.5875 0 0 1 -0.23342,-0.82861 v -8.41041 a 1.5875,1.5875 0 0 1 0.23342,-0.82861 1.6,1.6 0 0 0 -2.19983,-2.19992 1.5875,1.5875 0 0 1 -0.82857,0.23339 h -8.41002 a 1.5875,1.5875 0 0 1 -0.82857,-0.23339 1.6,1.6 0 0 0 -2.19982,2.19992 1.5875,1.5875 0 0 1 0.23341,0.82861 v 8.41041 a 1.5875,1.5875 0 0 1 -0.23341,0.82861 1.6,1.6 0 0 0 2.19982,2.19992 1.5875,1.5875 0 0 1 0.82857,-0.23338 z"
       style="fill:none;stroke:#ff0000;stroke-width:0.31;stroke-opacity:1;stroke-miterlimit:4;stroke-dasharray:none"
       id="path7207" />
    <path
       inkscape:connector-curvature="0"
       d="m 276.19267,-58.273396 a 5.9999998,5.9999998 0 0 1 -5.99999,-5.999999 v -90.309745 a 5.9999998,5.9999998 0 0 1 5.99999,-6 h 280.60699 a 5.9999998,5.9999998 0 0 1 6.00001,6 v 90.309745 a 5.9999998,5.9999998 0 0 1 -6.00001,5.999999 z"
       style="fill:none;stroke:#ff0000;stroke-width:0.31;stroke-opacity:1;stroke-miterlimit:4;stroke-dasharray:none"
       id="path7209" />
    <path
       inkscape:connector-curvature="0"
       d="m 495.83868,-138.76081 a 1.5875,1.5875 0 0 1 -0.23341,0.82859 1.6,1.6 0 0 0 2.19988,2.19988 1.5875,1.5875 0 0 1 0.82859,-0.23339 h 8.41187 a 1.5875,1.5875 0 0 1 0.82857,0.23339 1.6,1.6 0 0 0 2.19988,-2.19988 1.5875,1.5875 0 0 1 -0.23339,-0.82859 v -8.41194 a 1.5875,1.5875 0 0 1 0.23339,-0.82859 1.6,1.6 0 0 0 -2.19988,-2.19989 1.5875,1.5875 0 0 1 -0.82857,0.2334 h -8.41187 a 1.5875,1.5875 0 0 1 -0.82859,-0.2334 1.6,1.6 0 0 0 -2.19988,2.19989 1.5875,1.5875 0 0 1 0.23341,0.82859 z"
       style="fill:none;stroke:#ff0000;stroke-width:0.31;stroke-opacity:1;stroke-miterlimit:4;stroke-dasharray:none"
       id="path7211" />
    <path
       inkscape:connector-curvature="0"
       d="m 545.81967,268.16026 a 1.02,1.02 0 1 0 -2.03999,0 1.02,1.02 0 1 0 2.03999,0 z"
       style="fill:none;stroke:#ff0000;stroke-width:0.31;stroke-opacity:1;stroke-miterlimit:4;stroke-dasharray:none"
       id="path7213" />
    <path
       inkscape:connector-curvature="0"
       d="m 545.81967,356.97 a 1.02,1.02 0 1 0 -2.03999,0 1.02,1.02 0 1 0 2.03999,0 z"
       style="fill:none;stroke:#ff0000;stroke-width:0.31;stroke-opacity:1;stroke-miterlimit:4;stroke-dasharray:none"
       id="path7215" />
    <path
       inkscape:connector-curvature="0"
       d="m 545.97424,-135.73375 a 1.6,1.6 0 0 0 2.19985,-2.19992 1.5875,1.5875 0 0 1 -0.23342,-0.82861 v -8.41041 a 1.5875,1.5875 0 0 1 0.23342,-0.82861 1.6,1.6 0 0 0 -2.19985,-2.19992 1.5875,1.5875 0 0 1 -0.82857,0.23339 h -8.41 a 1.5875,1.5875 0 0 1 -0.82857,-0.23339 1.6,1.6 0 0 0 -2.19985,2.19992 1.5875,1.5875 0 0 1 0.23342,0.82861 v 8.41041 a 1.5875,1.5875 0 0 1 -0.23342,0.82861 1.6,1.6 0 0 0 2.19985,2.19992 1.5875,1.5875 0 0 1 0.82857,-0.23338 h 8.41 a 1.5875,1.5875 0 0 1 0.82857,0.23338 z"
       style="fill:none;stroke:#ff0000;stroke-width:0.31;stroke-opacity:1;stroke-miterlimit:4;stroke-dasharray:none"
       id="path7217" />
    <path
       inkscape:connector-curvature="0"
       d="m 465.44053,-126.98119 a 1.6,1.6 0 0 0 -1.87235,2.48454 1.5875,1.5875 0 0 1 0.34637,0.788 l 1.17019,8.32843 a 1.5875,1.5875 0 0 1 -0.11587,0.85307 1.6,1.6 0 0 0 2.48475,1.87229 1.5875,1.5875 0 0 1 0.78806,-0.34656 l 8.32835,-1.17128 a 1.5875,1.5875 0 0 1 0.85295,0.1157 1.6,1.6 0 0 0 1.87205,-2.48479 1.5875,1.5875 0 0 1 -0.34649,-0.78804 l -1.17074,-8.32739 a 1.5875,1.5875 0 0 1 0.11576,-0.853 1.6,1.6 0 0 0 -2.4847,-1.8722 1.5875,1.5875 0 0 1 -0.78802,0.34646 l -8.32729,1.17055 a 1.5875,1.5875 0 0 1 -0.85302,-0.11578 z"
       style="fill:none;stroke:#ff0000;stroke-width:0.31;stroke-opacity:1;stroke-miterlimit:4;stroke-dasharray:none"
       id="path7219" />
    <path
       inkscape:connector-curvature="0"
       d="m 418.47033,-137.39512 a 1.5875,1.5875 0 0 1 0.34647,0.78803 l 1.17077,8.32756 a 1.5875,1.5875 0 0 1 -0.11575,0.85296 1.6,1.6 0 0 0 2.48468,1.87219 1.5875,1.5875 0 0 1 0.78805,-0.34644 l 8.32809,-1.1704 a 1.5875,1.5875 0 0 1 0.85306,0.11583 1.6,1.6 0 0 0 1.87247,-2.48449 1.5875,1.5875 0 0 1 -0.34636,-0.78798 l -1.17023,-8.32889 a 1.5875,1.5875 0 0 1 0.11585,-0.85304 1.6,1.6 0 0 0 -2.48477,-1.87224 1.5875,1.5875 0 0 1 -0.78809,0.34657 l -8.32916,1.17131 a 1.5875,1.5875 0 0 1 -0.85299,-0.11572 1.6,1.6 0 0 0 -1.87209,2.48475 z"
       style="fill:none;stroke:#ff0000;stroke-width:0.31;stroke-opacity:1;stroke-miterlimit:4;stroke-dasharray:none"
       id="path7221" />
    <path
       inkscape:connector-curvature="0"
       d="m 477.79603,-147.72374 a 1.5875,1.5875 0 0 1 -0.85323,-0.11433 1.6,1.6 0 0 0 -1.86792,2.48798 1.5875,1.5875 0 0 1 0.34788,0.78744 l 1.18533,8.32542 a 1.5875,1.5875 0 0 1 -0.11425,0.85315 1.6,1.6 0 0 0 2.48798,1.86782 1.5875,1.5875 0 0 1 0.78745,-0.34784 l 8.32511,-1.18493 a 1.5875,1.5875 0 0 1 0.85323,0.11431 1.6,1.6 0 0 0 1.86801,-2.48784 1.5875,1.5875 0 0 1 -0.34777,-0.78741 l -1.18472,-8.32536 a 1.5875,1.5875 0 0 1 0.11433,-0.85322 1.6,1.6 0 0 0 -2.48788,-1.868 1.5875,1.5875 0 0 1 -0.78743,0.34782 z"
       style="fill:none;stroke:#ff0000;stroke-width:0.31;stroke-opacity:1;stroke-miterlimit:4;stroke-dasharray:none"
       id="path7223" />
    <path
       inkscape:connector-curvature="0"
       d="m 451.66145,-142.05993 a 1.6,1.6 0 0 0 -2.48463,-1.87234 1.5875,1.5875 0 0 1 -0.78805,0.34646 l -8.32728,1.17037 a 1.5875,1.5875 0 0 1 -0.85299,-0.1158 1.6,1.6 0 0 0 -1.87231,2.48461 1.5875,1.5875 0 0 1 0.34641,0.78804 l 1.17013,8.32733 a 1.5875,1.5875 0 0 1 -0.11583,0.85302 1.6,1.6 0 0 0 2.48463,1.87234 1.5875,1.5875 0 0 1 0.78805,-0.34645 l 8.32727,-1.17037 a 1.5875,1.5875 0 0 1 0.853,0.11579 1.6,1.6 0 0 0 1.87231,-2.4846 1.5875,1.5875 0 0 1 -0.34641,-0.78804 l -1.17014,-8.32734 a 1.5875,1.5875 0 0 1 0.11584,-0.85302 z"
       style="fill:none;stroke:#ff0000;stroke-width:0.31;stroke-opacity:1;stroke-miterlimit:4;stroke-dasharray:none"
       id="path7225" />
    <path
       inkscape:connector-curvature="0"
       d="m 529.22828,-128.76114 a 1.5875,1.5875 0 0 1 0.23339,0.82859 v 8.4116 a 1.5875,1.5875 0 0 1 -0.23347,0.8287 1.6,1.6 0 0 0 2.19972,2.20005 1.5875,1.5875 0 0 1 0.82849,-0.23333 h 8.41219 a 1.5875,1.5875 0 0 1 0.82859,0.23339 1.6,1.6 0 0 0 2.19988,-2.19988 1.5875,1.5875 0 0 1 -0.23339,-0.82859 v -8.41196 a 1.5875,1.5875 0 0 1 0.23339,-0.82859 1.6,1.6 0 0 0 -2.1999,-2.19987 1.5875,1.5875 0 0 1 -0.82857,0.2334 h -8.41187 a 1.5875,1.5875 0 0 1 -0.82857,-0.2334 1.6,1.6 0 0 0 -2.19988,2.19989 z"
       style="fill:none;stroke:#ff0000;stroke-width:0.31;stroke-opacity:1;stroke-miterlimit:4;stroke-dasharray:none"
       id="path7227" />
    <path
       inkscape:connector-curvature="0"
       d="m 470.52503,-144.70192 a 1.6,1.6 0 0 0 -2.48352,-1.87382 1.5875,1.5875 0 0 1 -0.7882,0.34599 l -8.32897,1.16593 a 1.5875,1.5875 0 0 1 -0.85291,-0.11626 1.6,1.6 0 0 0 -1.87354,2.48374 1.5875,1.5875 0 0 1 0.34609,0.78827 l 1.16626,8.32906 a 1.5875,1.5875 0 0 1 -0.11624,0.85295 1.6,1.6 0 0 0 2.48361,1.87363 1.5875,1.5875 0 0 1 0.7882,-0.34598 l 8.32798,-1.16582 a 1.5875,1.5875 0 0 1 0.8529,0.11625 1.6,1.6 0 0 0 1.87365,-2.48359 1.5875,1.5875 0 0 1 -0.34598,-0.78824 l -1.16566,-8.3291 a 1.5875,1.5875 0 0 1 0.11633,-0.85301 z"
       style="fill:none;stroke:#ff0000;stroke-width:0.31;stroke-opacity:1;stroke-miterlimit:4;stroke-dasharray:none"
       id="path7229" />
    <path
       inkscape:connector-curvature="0"
       d="m 529.46167,-108.69109 a 1.5875,1.5875 0 0 1 0.23339,-0.82858 1.6,1.6 0 0 0 -2.19991,-2.19987 1.5875,1.5875 0 0 1 -0.82859,0.23341 h -8.41079 a 1.5875,1.5875 0 0 1 -0.82859,-0.23341 1.6,1.6 0 0 0 -2.19991,2.19987 1.5875,1.5875 0 0 1 0.23339,0.82858 v 8.41062 a 1.5875,1.5875 0 0 1 -0.23339,0.828576 1.6,1.6 0 0 0 2.19991,2.199862 1.5875,1.5875 0 0 1 0.82859,-0.233402 h 8.41079 a 1.5875,1.5875 0 0 1 0.82859,0.233402 1.6,1.6 0 0 0 2.19991,-2.199862 1.5875,1.5875 0 0 1 -0.23339,-0.828576 z"
       style="fill:none;stroke:#ff0000;stroke-width:0.31;stroke-opacity:1;stroke-miterlimit:4;stroke-dasharray:none"
       id="path7231" />
    <path
       inkscape:connector-curvature="0"
       d="m 351.07131,-96.349657 a 1.6,1.6 0 0 0 1.87225,2.484717 1.5875,1.5875 0 0 1 0.85302,-0.115818 l 8.32911,1.170519 a 1.5875,1.5875 0 0 1 0.78808,0.346461 1.6,1.6 0 0 0 2.48463,-1.872329 1.5875,1.5875 0 0 1 -0.11583,-0.852993 l 1.17022,-8.32868 a 1.5875,1.5875 0 0 1 0.34638,-0.78802 1.6,1.6 0 0 0 -1.87257,-2.48447 1.5875,1.5875 0 0 1 -0.85309,0.11592 l -8.32804,-1.16974 a 1.5875,1.5875 0 0 1 -0.78805,-0.34635 1.6,1.6 0 0 0 -2.48456,1.87226 1.5875,1.5875 0 0 1 0.11572,0.85292 l -1.17076,8.327544 a 1.5875,1.5875 0 0 1 -0.34651,0.788059 z"
       style="fill:none;stroke:#ff0000;stroke-width:0.31;stroke-opacity:1;stroke-miterlimit:4;stroke-dasharray:none"
       id="path7233" />
    <path
       inkscape:connector-curvature="0"
       d="m 345.20961,-109.32466 -8.32817,-1.17041 a 1.5875,1.5875 0 0 1 -0.78802,-0.34641 1.6,1.6 0 0 0 -2.48463,1.87224 1.5875,1.5875 0 0 1 0.11575,0.853 l -1.17073,8.327182 a 1.5875,1.5875 0 0 1 -0.34648,0.788016 1.6,1.6 0 0 0 1.87226,2.484686 1.5875,1.5875 0 0 1 0.85305,-0.1158 l 8.32719,1.170541 a 1.5875,1.5875 0 0 1 0.78803,0.346458 1.6,1.6 0 0 0 2.48477,-1.872022 1.5875,1.5875 0 0 1 -0.11567,-0.852937 l 1.17137,-8.327544 a 1.5875,1.5875 0 0 1 0.34657,-0.78804 1.6,1.6 0 0 0 -1.87222,-2.4848 1.5875,1.5875 0 0 1 -0.85307,0.11584 z"
       style="fill:none;stroke:#ff0000;stroke-width:0.31;stroke-opacity:1;stroke-miterlimit:4;stroke-dasharray:none"
       id="path7235" />
    <path
       inkscape:connector-curvature="0"
       d="m 320.38667,-128.08404 a 1.5875,1.5875 0 0 1 0.23346,-0.82869 1.6,1.6 0 0 0 -2.19971,-2.20005 1.5875,1.5875 0 0 1 -0.82849,0.23334 h -8.40951 a 1.5875,1.5875 0 0 1 -0.82849,-0.23334 1.6,1.6 0 0 0 -2.19971,2.20005 1.5875,1.5875 0 0 1 0.23346,0.82869 v 8.4113 a 1.5875,1.5875 0 0 1 -0.23346,0.82869 1.6,1.6 0 0 0 2.19971,2.20004 1.5875,1.5875 0 0 1 0.82849,-0.23333 h 8.40951 a 1.5875,1.5875 0 0 1 0.82849,0.23333 1.6,1.6 0 0 0 2.19971,-2.20004 1.5875,1.5875 0 0 1 -0.23346,-0.82869 z"
       style="fill:none;stroke:#ff0000;stroke-width:0.31;stroke-opacity:1;stroke-miterlimit:4;stroke-dasharray:none"
       id="path7237" />
    <path
       inkscape:connector-curvature="0"
       d="m 286.16111,-92.631127 a 1.6,1.6 0 0 0 -2.19984,2.19991 1.5875,1.5875 0 0 1 0.2334,0.828609 v 8.409257 a 1.5875,1.5875 0 0 1 -0.23338,0.82857 1.6,1.6 0 0 0 2.19991,2.199846 1.5875,1.5875 0 0 1 0.82861,-0.233408 h 8.40774 a 1.5875,1.5875 0 0 1 0.82922,0.233786 1.6,1.6 0 0 0 2.20091,-2.198846 1.5875,1.5875 0 0 1 -0.233,-0.82795 v -8.411385 a 1.5875,1.5875 0 0 1 0.23338,-0.828566 1.6,1.6 0 0 0 -2.19991,-2.199846 1.5875,1.5875 0 0 1 -0.82861,0.233407 h -8.40986 a 1.5875,1.5875 0 0 1 -0.82857,-0.233384 z"
       style="fill:none;stroke:#ff0000;stroke-width:0.31;stroke-opacity:1;stroke-miterlimit:4;stroke-dasharray:none"
       id="path7239" />
    <path
       inkscape:connector-curvature="0"
       d="m 468.38342,-88.919988 a 1.6,1.6 0 0 0 -1.87209,2.484757 1.5875,1.5875 0 0 1 0.34647,0.788017 l 1.17076,8.327488 a 1.5875,1.5875 0 0 1 -0.11574,0.852958 1.6,1.6 0 0 0 2.4847,1.872173 1.5875,1.5875 0 0 1 0.78804,-0.346448 l 8.32807,-1.170461 a 1.5875,1.5875 0 0 1 0.85307,0.115829 1.6,1.6 0 0 0 1.87245,-2.484487 1.5875,1.5875 0 0 1 -0.34634,-0.787974 l -1.17022,-8.328822 a 1.5875,1.5875 0 0 1 0.11583,-0.853032 1.6,1.6 0 0 0 -2.48478,-1.872232 1.5875,1.5875 0 0 1 -0.78809,0.346583 l -8.32914,1.171366 a 1.5875,1.5875 0 0 1 -0.85299,-0.115715 z"
       style="fill:none;stroke:#ff0000;stroke-width:0.31;stroke-opacity:1;stroke-miterlimit:4;stroke-dasharray:none"
       id="path7241" />
    <path
       inkscape:connector-curvature="0"
       d="m 461.46063,-92.811422 8.32743,-1.170572 a 1.5875,1.5875 0 0 1 0.85292,0.11575 1.6,1.6 0 0 0 1.87219,-2.484691 1.5875,1.5875 0 0 1 -0.34645,-0.788078 l -1.1701,-8.326907 a 1.5875,1.5875 0 0 1 0.11583,-0.85302 1.6,1.6 0 0 0 -2.48443,-1.8725 1.5875,1.5875 0 0 1 -0.788,0.34631 l -8.32733,1.16954 a 1.5875,1.5875 0 0 1 -0.85303,-0.1159 1.6,1.6 0 0 0 -1.87251,2.48452 1.5875,1.5875 0 0 1 0.34643,0.78807 l 1.17019,8.328594 a 1.5875,1.5875 0 0 1 -0.11586,0.853032 1.6,1.6 0 0 0 2.48466,1.87234 1.5875,1.5875 0 0 1 0.78806,-0.346488 z"
       style="fill:none;stroke:#ff0000;stroke-width:0.31;stroke-opacity:1;stroke-miterlimit:4;stroke-dasharray:none"
       id="path7243" />
    <path
       inkscape:connector-curvature="0"
       d="m 326.82782,-129.15911 a 1.5875,1.5875 0 0 1 0.11575,0.85296 l -1.17074,8.32734 a 1.5875,1.5875 0 0 1 -0.34652,0.78809 1.6,1.6 0 0 0 1.87219,2.48476 1.5875,1.5875 0 0 1 0.85299,-0.1158 l 8.3283,1.17043 a 1.5875,1.5875 0 0 1 0.78805,0.34644 1.6,1.6 0 0 0 2.4846,-1.87239 1.5875,1.5875 0 0 1 -0.11585,-0.85303 l 1.17019,-8.32838 a 1.5875,1.5875 0 0 1 0.3464,-0.78804 1.6,1.6 0 0 0 -1.8725,-2.48452 1.5875,1.5875 0 0 1 -0.85304,0.11589 l -8.32726,-1.16971 a 1.5875,1.5875 0 0 1 -0.78801,-0.34634 1.6,1.6 0 0 0 -2.48455,1.8723 z"
       style="fill:none;stroke:#ff0000;stroke-width:0.31;stroke-opacity:1;stroke-miterlimit:4;stroke-dasharray:none"
       id="path7245" />
    <path
       inkscape:connector-curvature="0"
       d="m 287.84573,-116.87734 h 8.41189 a 1.5875,1.5875 0 0 1 0.82858,0.23339 1.6,1.6 0 0 0 2.19987,-2.19988 1.5875,1.5875 0 0 1 -0.2334,-0.82859 v -8.41194 a 1.5875,1.5875 0 0 1 0.2334,-0.82859 1.6,1.6 0 0 0 -2.19987,-2.19989 1.5875,1.5875 0 0 1 -0.82858,0.2334 h -8.41189 a 1.5875,1.5875 0 0 1 -0.82858,-0.2334 1.6,1.6 0 0 0 -2.19987,2.19989 1.5875,1.5875 0 0 1 0.2334,0.82859 v 8.41194 a 1.5875,1.5875 0 0 1 -0.2334,0.82859 1.6,1.6 0 0 0 2.19987,2.19988 1.5875,1.5875 0 0 1 0.82858,-0.23339 z"
       style="fill:none;stroke:#ff0000;stroke-width:0.31;stroke-opacity:1;stroke-miterlimit:4;stroke-dasharray:none"
       id="path7247" />
    <path
       inkscape:connector-curvature="0"
       d="m 428.73974,-68.975075 27.19277,-3.822742 a 1.5875,1.5875 0 0 1 0.853,0.115768 1.6,1.6 0 0 0 1.87221,-2.484694 1.5875,1.5875 0 0 1 -0.34646,-0.788032 l -1.17052,-8.32729 a 1.5875,1.5875 0 0 1 0.11578,-0.853008 1.6,1.6 0 0 0 -1.99931,-2.146123 1.5875,1.5875 0 0 1 -1.24002,-0.07875 1.5875,1.5875 0 0 0 -0.93313,-0.15353 l -2.2241,0.311983 a 1.5875,1.5875 0 0 0 -1.06395,0.639226 1.5875,1.5875 0 0 1 -1.06351,0.639162 l -16.6915,2.346232 a 1.5875,1.5875 0 0 1 -1.19866,-0.321329 1.5875,1.5875 0 0 0 -1.19812,-0.321402 l -2.22192,0.311555 a 1.5875,1.5875 0 0 0 -0.85599,0.405307 1.5875,1.5875 0 0 1 -1.17031,0.417912 1.6,1.6 0 0 0 -1.32991,2.614081 1.5875,1.5875 0 0 1 0.34641,0.788053 l 1.17026,8.328866 a 1.5875,1.5875 0 0 1 -0.11583,0.853004 1.6,1.6 0 0 0 2.48472,1.872265 1.5875,1.5875 0 0 1 0.78809,-0.346519 z"
       style="fill:none;stroke:#ff0000;stroke-width:0.31;stroke-opacity:1;stroke-miterlimit:4;stroke-dasharray:none"
       id="path7249" />
    <path
       inkscape:connector-curvature="0"
       d="m 440.64635,-104.02322 a 1.5875,1.5875 0 0 1 -0.85297,-0.11569 1.6,1.6 0 0 0 -1.87205,2.48477 1.5875,1.5875 0 0 1 0.34647,0.78802 l 1.17076,8.327378 a 1.5875,1.5875 0 0 1 -0.11575,0.852966 1.6,1.6 0 0 0 2.48469,1.872181 1.5875,1.5875 0 0 1 0.78805,-0.346445 l 8.32808,-1.170461 a 1.5875,1.5875 0 0 1 0.85306,0.115829 1.6,1.6 0 0 0 1.87247,-2.484477 1.5875,1.5875 0 0 1 -0.34634,-0.787971 l -1.17024,-8.32901 a 1.5875,1.5875 0 0 1 0.11586,-0.85304 1.6,1.6 0 0 0 -2.48483,-1.87221 1.5875,1.5875 0 0 1 -0.78809,0.34661 z"
       style="fill:none;stroke:#ff0000;stroke-width:0.31;stroke-opacity:1;stroke-miterlimit:4;stroke-dasharray:none"
       id="path7251" />
    <path
       inkscape:connector-curvature="0"
       d="m 374.20798,-110.34841 a 1.5875,1.5875 0 0 1 0.78798,0.34643 1.6,1.6 0 0 0 2.4847,-1.87214 1.5875,1.5875 0 0 1 -0.11571,-0.85301 l 1.1714,-8.3287 a 1.5875,1.5875 0 0 1 0.34659,-0.78808 1.6,1.6 0 0 0 -1.8721,-2.48486 1.5875,1.5875 0 0 1 -0.853,0.11579 l -8.32851,-1.17065 a 1.5875,1.5875 0 0 1 -0.78798,-0.3464 1.6,1.6 0 0 0 -2.48459,1.87234 1.5875,1.5875 0 0 1 0.1158,0.85306 l -1.17078,8.32855 a 1.5875,1.5875 0 0 1 -0.34649,0.78805 1.6,1.6 0 0 0 1.87217,2.48473 1.5875,1.5875 0 0 1 0.85299,-0.11576 z"
       style="fill:none;stroke:#ff0000;stroke-width:0.31;stroke-opacity:1;stroke-miterlimit:4;stroke-dasharray:none"
       id="path7253" />
  </g>
</svg>
