  0
SECTION
  2
HEADER
  9
$ACADVER
  1
AC1014
  9
$HANDSEED
  5
FFFF
  9
$MEASUREMENT
 70
     1
  0
ENDSEC
  0
SECTION
  2
TABLES
  0
TABLE
  2
VPORT
  5
8
330
0
100
AcDbSymbolTable
 70
     4
  0
VPORT
  5
2E
330
8
100
AcDbSymbolTableRecord
100
AcDbViewportTableRecord
  2
*ACTIVE
 70
     0
 10
0.0
 20
0.0
 11
1.0
 21
1.0
 12
210.0
 22
148.5
 13
0.0
 23
0.0
 14
10.0
 24
10.0
 15
10.0
 25
10.0
 16
0.0
 26
0.0
 36
1.0
 17
0.0
 27
0.0
 37
0.0
 40
341.0
 41
1.24
 42
50.0
 43
0.0
 44
0.0
 50
0.0
 51
0.0
 71
     0
 72
   100
 73
     1
 74
     3
 75
     0
 76
     0
 77
     0
 78
     0
  0
ENDTAB
  0
TABLE
  2
LTYPE
  5
5
330
0
100
AcDbSymbolTable
 70
     1
  0
LTYPE
  5
14
330
5
100
AcDbSymbolTableRecord
100
AcDbLinetypeTableRecord
  2
BYBLOCK
 70
     0
  3

 72
    65
 73
     0
 40
0.0
  0
LTYPE
  5
15
330
5
100
AcDbSymbolTableRecord
100
AcDbLinetypeTableRecord
  2
BYLAYER
 70
     0
  3

 72
    65
 73
     0
 40
0.0
  0
LTYPE
  5
16
330
5
100
AcDbSymbolTableRecord
100
AcDbLinetypeTableRecord
  2
CONTINUOUS
 70
     0
  3
Solid line
 72
    65
 73
     0
 40
0.0
  0
ENDTAB
  0
TABLE
  2
LAYER
  5
2
100
AcDbSymbolTable
 70
1
  0
LAYER
  5
50
100
AcDbSymbolTableRecord
100
AcDbLayerTableRecord
  2
0
 70
0
  6
CONTINUOUS
  0
ENDTAB
  0
TABLE
  2
STYLE
  5
3
330
0
100
AcDbSymbolTable
 70
     1
  0
STYLE
  5
11
330
3
100
AcDbSymbolTableRecord
100
AcDbTextStyleTableRecord
  2
STANDARD
 70
     0
 40
0.0
 41
1.0
 50
0.0
 71
     0
 42
2.5
  3
txt
  4

  0
ENDTAB
  0
TABLE
  2
VIEW
  5
6
330
0
100
AcDbSymbolTable
 70
     0
  0
ENDTAB
  0
TABLE
  2
UCS
  5
7
330
0
100
AcDbSymbolTable
 70
     0
  0
ENDTAB
  0
TABLE
  2
APPID
  5
9
330
0
100
AcDbSymbolTable
 70
     2
  0
APPID
  5
12
330
9
100
AcDbSymbolTableRecord
100
AcDbRegAppTableRecord
  2
ACAD
 70
     0
  0
ENDTAB
  0
TABLE
  2
DIMSTYLE
  5
A
330
0
100
AcDbSymbolTable
 70
     1
  0
DIMSTYLE
105
27
330
A
100
AcDbSymbolTableRecord
100
AcDbDimStyleTableRecord
  2
ISO-25
 70
     0
  3

  4

  5

  6

  7

 40
1.0
 41
2.5
 42
0.625
 43
3.75
 44
1.25
 45
0.0
 46
0.0
 47
0.0
 48
0.0
140
2.5
141
2.5
142
0.0
143
0.03937007874016
144
1.0
145
0.0
146
1.0
147
0.625
 71
     0
 72
     0
 73
     0
 74
     0
 75
     0
 76
     0
 77
     1
 78
     8
170
     0
171
     3
172
     1
173
     0
174
     0
175
     0
176
     0
177
     0
178
     0
270
     2
271
     2
272
     2
273
     2
274
     3
340
11
275
     0
280
     0
281
     0
282
     0
283
     0
284
     8
285
     0
286
     0
287
     3
288
     0
  0
ENDTAB
  0
TABLE
  2
BLOCK_RECORD
  5
1
330
0
100
AcDbSymbolTable
 70
     1
  0
BLOCK_RECORD
  5
1F
330
1
100
AcDbSymbolTableRecord
100
AcDbBlockTableRecord
  2
*MODEL_SPACE
  0
BLOCK_RECORD
  5
1B
330
1
100
AcDbSymbolTableRecord
100
AcDbBlockTableRecord
  2
*PAPER_SPACE
  0
ENDTAB
  0
ENDSEC
  0
SECTION
  2
BLOCKS
  0
BLOCK
  5
20
330
1F
100
AcDbEntity
  8
0
100
AcDbBlockBegin
  2
*MODEL_SPACE
 70
     0
 10
0.0
 20
0.0
 30
0.0
  3
*MODEL_SPACE
  1

  0
ENDBLK
  5
21
330
1F
100
AcDbEntity
  8
0
100
AcDbBlockEnd
  0
BLOCK
  5
1C
330
1B
100
AcDbEntity
 67
     1
  8
0
100
AcDbBlockBegin
  2
*PAPER_SPACE
  1

  0
ENDBLK
  5
1D
330
1B
100
AcDbEntity
 67
     1
  8
0
100
AcDbBlockEnd
  0
ENDSEC
  0
SECTION
  2
ENTITIES
  0
SPLINE
  5
100
100
AcDbEntity
  8
0
 62
7
100
AcDbSpline
 70
0
 71
3
 72
25
 73
21
 74
19
 40
0.000000
 40
0.000000
 40
0.000000
 40
0.000000
 40
0.553981
 40
1.100033
 40
1.654013
 40
2.207994
 40
2.754046
 40
3.308027
 40
3.862007
 40
4.408059
 40
4.962040
 40
5.516020
 40
6.062073
 40
6.616053
 40
7.170034
 40
7.716086
 40
8.270066
 40
8.824047
 40
9.370099
 40
9.924080
 40
9.924080
 40
9.924080
 40
9.924080
 10
200.438336
 20
33.354481
 30
0.0
 10
200.419368
 20
33.540083
 30
0.0
 10
200.381705
 20
33.908631
 30
0.0
 10
200.089499
 20
34.395673
 30
0.0
 10
199.661660
 20
34.757775
 30
0.0
 10
199.131863
 20
34.949822
 30
0.0
 10
198.569687
 20
34.949822
 30
0.0
 10
198.040632
 20
34.757775
 30
0.0
 10
197.609830
 20
34.395673
 30
0.0
 10
197.328632
 20
33.908631
 30
0.0
 10
197.230452
 20
33.354481
 30
0.0
 10
197.328632
 20
32.800332
 30
0.0
 10
197.609830
 20
32.313290
 30
0.0
 10
198.040632
 20
31.951188
 30
0.0
 10
198.569687
 20
31.759141
 30
0.0
 10
199.131863
 20
31.759141
 30
0.0
 10
199.661660
 20
31.951188
 30
0.0
 10
200.089499
 20
32.313290
 30
0.0
 10
200.381705
 20
32.800332
 30
0.0
 10
200.419368
 20
33.168880
 30
0.0
 10
200.438336
 20
33.354481
 30
0.0
 11
200.438336
 21
33.354481
 31
0.0
 11
200.341699
 21
33.899968
 31
0.0
 11
200.068672
 21
34.372863
 31
0.0
 11
199.644586
 21
34.729297
 31
0.0
 11
199.123862
 21
34.918350
 31
0.0
 11
198.577810
 21
34.918350
 31
0.0
 11
198.057086
 21
34.729297
 31
0.0
 11
197.632999
 21
34.372863
 31
0.0
 11
197.359973
 21
33.899968
 31
0.0
 11
197.263336
 21
33.354481
 31
0.0
 11
197.359973
 21
32.808995
 31
0.0
 11
197.632999
 21
32.336100
 31
0.0
 11
198.057086
 21
31.979666
 31
0.0
 11
198.577810
 21
31.790613
 31
0.0
 11
199.123862
 21
31.790613
 31
0.0
 11
199.644586
 21
31.979666
 31
0.0
 11
200.068672
 21
32.336100
 31
0.0
 11
200.341699
 21
32.808995
 31
0.0
 11
200.438336
 21
33.354481
 31
0.0
  0
LWPOLYLINE
  5
101
100
AcDbEntity
  8
0
 62
7
100
AcDbPolyline
 90
1
 70
1
 10
200.438336
 20
33.354481
 30
0.0
  0
SPLINE
  5
102
100
AcDbEntity
  8
0
 62
7
100
AcDbSpline
 70
0
 71
3
 72
25
 73
21
 74
19
 40
0.000000
 40
0.000000
 40
0.000000
 40
0.000000
 40
14.343519
 40
40.981482
 40
55.325000
 40
55.740568
 40
56.152696
 40
56.568264
 40
56.983832
 40
57.395960
 40
57.811528
 40
59.710602
 40
63.237454
 40
65.136528
 40
65.552096
 40
65.964224
 40
66.379792
 40
66.795359
 40
67.207488
 40
67.623056
 40
67.623056
 40
67.623056
 40
67.623056
 10
67.137336
 20
132.874230
 30
0.0
 10
71.918031
 20
132.886755
 30
0.0
 10
85.577161
 20
132.922542
 30
0.0
 10
104.032769
 20
132.556755
 30
0.0
 10
117.805881
 20
133.236439
 30
0.0
 10
122.877969
 20
132.842438
 30
0.0
 10
123.265081
 20
132.676036
 30
0.0
 10
123.598126
 20
132.422576
 30
0.0
 10
123.851841
 20
132.089454
 30
0.0
 10
124.017305
 20
131.702395
 30
0.0
 10
124.095841
 20
130.790470
 30
0.0
 10
124.007462
 20
128.846683
 30
0.0
 10
124.092210
 20
126.401777
 30
0.0
 10
124.003831
 20
124.457992
 30
0.0
 10
124.082366
 20
123.546065
 30
0.0
 10
124.247831
 20
123.159009
 30
0.0
 10
124.501546
 20
122.825875
 30
0.0
 10
124.834589
 20
122.572460
 30
0.0
 10
125.221708
 20
122.405891
 30
0.0
 10
125.498410
 20
122.384813
 30
0.0
 10
125.637336
 20
122.374230
 30
0.0
 11
67.137336
 21
132.874230
 31
0.0
 11
81.480854
 21
132.874230
 31
0.0
 11
108.118817
 21
132.874230
 31
0.0
 11
122.462336
 21
132.874230
 31
0.0
 11
122.874329
 21
132.819842
 31
0.0
 11
123.255086
 21
132.662127
 31
0.0
 11
123.584868
 21
132.409262
 31
0.0
 11
123.837732
 21
132.079481
 31
0.0
 11
123.995447
 21
131.698723
 31
0.0
 11
124.049836
 21
131.286730
 31
0.0
 11
124.049836
 21
129.387656
 31
0.0
 11
124.049836
 21
125.860804
 31
0.0
 11
124.049836
 21
123.961730
 31
0.0
 11
124.104224
 21
123.549737
 31
0.0
 11
124.261939
 21
123.168980
 31
0.0
 11
124.514804
 21
122.839198
 31
0.0
 11
124.844585
 21
122.586334
 31
0.0
 11
125.225343
 21
122.428619
 31
0.0
 11
125.637336
 21
122.374230
 31
0.0
  0
LWPOLYLINE
  5
103
100
AcDbEntity
  8
0
 62
7
100
AcDbPolyline
 90
2
 70
0
 10
125.637336
 20
122.374230
 30
0.0
 10
193.593936
 20
122.374230
 30
0.0
  0
SPLINE
  5
104
100
AcDbEntity
  8
0
 62
7
100
AcDbSpline
 70
0
 71
3
 72
13
 73
9
 74
7
 40
0.000000
 40
0.000000
 40
0.000000
 40
0.000000
 40
0.415568
 40
0.827696
 40
1.243264
 40
1.658832
 40
2.070960
 40
2.486528
 40
2.486528
 40
2.486528
 40
2.486528
 10
193.593936
 20
122.374230
 30
0.0
 10
193.732863
 20
122.384813
 30
0.0
 10
194.009568
 20
122.405891
 30
0.0
 10
194.396666
 20
122.572459
 30
0.0
 10
194.729789
 20
122.825877
 30
0.0
 10
194.983206
 20
123.159000
 30
0.0
 10
195.149775
 20
123.546098
 30
0.0
 10
195.170853
 20
123.822803
 30
0.0
 10
195.181436
 20
123.961730
 30
0.0
 11
193.593936
 21
122.374230
 31
0.0
 11
194.005929
 21
122.428619
 31
0.0
 11
194.386686
 21
122.586334
 31
0.0
 11
194.716468
 21
122.839198
 31
0.0
 11
194.969332
 21
123.168980
 31
0.0
 11
195.127047
 21
123.549737
 31
0.0
 11
195.181436
 21
123.961730
 31
0.0
  0
LWPOLYLINE
  5
105
100
AcDbEntity
  8
0
 62
7
100
AcDbPolyline
 90
2
 70
0
 10
195.181436
 20
123.961730
 30
0.0
 10
195.181436
 20
127.511230
 30
0.0
  0
SPLINE
  5
106
100
AcDbEntity
  8
0
 62
7
100
AcDbSpline
 70
0
 71
3
 72
13
 73
9
 74
7
 40
0.000000
 40
0.000000
 40
0.000000
 40
0.000000
 40
1.789433
 40
3.525792
 40
5.315225
 40
7.104658
 40
8.841017
 40
10.630450
 40
10.630450
 40
10.630450
 40
10.630450
 10
195.181436
 20
127.511230
 30
0.0
 10
195.275569
 20
128.114543
 30
0.0
 10
195.461045
 20
129.303274
 30
0.0
 10
196.822544
 20
130.611970
 30
0.0
 10
198.603836
 20
131.096881
 30
0.0
 10
200.385127
 20
130.611970
 30
0.0
 10
201.746626
 20
129.303274
 30
0.0
 10
201.932102
 20
128.114543
 30
0.0
 10
202.026236
 20
127.511230
 30
0.0
 11
195.181436
 21
127.511230
 31
0.0
 11
195.648694
 21
129.238581
 31
0.0
 11
196.876485
 21
130.466372
 31
0.0
 11
198.603836
 21
130.933630
 31
0.0
 11
200.331186
 21
130.466372
 31
0.0
 11
201.558978
 21
129.238581
 31
0.0
 11
202.026236
 21
127.511230
 31
0.0
  0
LWPOLYLINE
  5
107
100
AcDbEntity
  8
0
 62
7
100
AcDbPolyline
 90
2
 70
0
 10
202.026236
 20
127.511230
 30
0.0
 10
202.026236
 20
123.961730
 30
0.0
  0
SPLINE
  5
108
100
AcDbEntity
  8
0
 62
7
100
AcDbSpline
 70
0
 71
3
 72
13
 73
9
 74
7
 40
0.000000
 40
0.000000
 40
0.000000
 40
0.000000
 40
0.415568
 40
0.827696
 40
1.243264
 40
1.658832
 40
2.070960
 40
2.486528
 40
2.486528
 40
2.486528
 40
2.486528
 10
202.026236
 20
123.961730
 30
0.0
 10
202.036818
 20
123.822803
 30
0.0
 10
202.057896
 20
123.546098
 30
0.0
 10
202.224465
 20
123.159000
 30
0.0
 10
202.477883
 20
122.825877
 30
0.0
 10
202.811006
 20
122.572459
 30
0.0
 10
203.198103
 20
122.405891
 30
0.0
 10
203.474808
 20
122.384813
 30
0.0
 10
203.613736
 20
122.374230
 30
0.0
 11
202.026236
 21
123.961730
 31
0.0
 11
202.080624
 21
123.549737
 31
0.0
 11
202.238339
 21
123.168980
 31
0.0
 11
202.491204
 21
122.839198
 31
0.0
 11
202.820985
 21
122.586334
 31
0.0
 11
203.201742
 21
122.428619
 31
0.0
 11
203.613736
 21
122.374230
 31
0.0
  0
LWPOLYLINE
  5
109
100
AcDbEntity
  8
0
 62
7
100
AcDbPolyline
 90
2
 70
0
 10
203.613736
 20
122.374230
 30
0.0
 10
274.543336
 20
122.374230
 30
0.0
  0
SPLINE
  5
10a
100
AcDbEntity
  8
0
 62
7
100
AcDbSpline
 70
0
 71
3
 72
13
 73
9
 74
7
 40
0.000000
 40
0.000000
 40
0.000000
 40
0.000000
 40
0.415568
 40
0.827696
 40
1.243264
 40
1.658832
 40
2.070960
 40
2.486528
 40
2.486528
 40
2.486528
 40
2.486528
 10
274.543336
 20
122.374230
 30
0.0
 10
274.682263
 20
122.384813
 30
0.0
 10
274.958968
 20
122.405891
 30
0.0
 10
275.346066
 20
122.572459
 30
0.0
 10
275.679189
 20
122.825877
 30
0.0
 10
275.932606
 20
123.159000
 30
0.0
 10
276.099175
 20
123.546098
 30
0.0
 10
276.120253
 20
123.822803
 30
0.0
 10
276.130836
 20
123.961730
 30
0.0
 11
274.543336
 21
122.374230
 31
0.0
 11
274.955329
 21
122.428619
 31
0.0
 11
275.336086
 21
122.586334
 31
0.0
 11
275.665868
 21
122.839198
 31
0.0
 11
275.918732
 21
123.168980
 31
0.0
 11
276.076447
 21
123.549737
 31
0.0
 11
276.130836
 21
123.961730
 31
0.0
  0
LWPOLYLINE
  5
10b
100
AcDbEntity
  8
0
 62
7
100
AcDbPolyline
 90
2
 70
0
 10
276.130836
 20
123.961730
 30
0.0
 10
276.130836
 20
131.286730
 30
0.0
  0
SPLINE
  5
10c
100
AcDbEntity
  8
0
 62
7
100
AcDbSpline
 70
0
 71
3
 72
13
 73
9
 74
7
 40
0.000000
 40
0.000000
 40
0.000000
 40
0.000000
 40
0.415568
 40
0.827696
 40
1.243264
 40
1.658832
 40
2.070960
 40
2.486528
 40
2.486528
 40
2.486528
 40
2.486528
 10
276.130836
 20
131.286730
 30
0.0
 10
276.141418
 20
131.425657
 30
0.0
 10
276.162496
 20
131.702362
 30
0.0
 10
276.329065
 20
132.089460
 30
0.0
 10
276.582483
 20
132.422583
 30
0.0
 10
276.915606
 20
132.676001
 30
0.0
 10
277.302703
 20
132.842570
 30
0.0
 10
277.579408
 20
132.863648
 30
0.0
 10
277.718336
 20
132.874230
 30
0.0
 11
276.130836
 21
131.286730
 31
0.0
 11
276.185224
 21
131.698723
 31
0.0
 11
276.342939
 21
132.079481
 31
0.0
 11
276.595804
 21
132.409262
 31
0.0
 11
276.925585
 21
132.662127
 31
0.0
 11
277.306342
 21
132.819842
 31
0.0
 11
277.718336
 21
132.874230
 31
0.0
  0
LWPOLYLINE
  5
10d
100
AcDbEntity
  8
0
 62
7
100
AcDbPolyline
 90
2
 70
0
 10
277.718336
 20
132.874230
 30
0.0
 10
339.543336
 20
132.874230
 30
0.0
  0
SPLINE
  5
10e
100
AcDbEntity
  8
0
 62
7
100
AcDbSpline
 70
0
 71
3
 72
22
 73
18
 74
16
 40
0.000000
 40
0.000000
 40
0.000000
 40
0.000000
 40
0.415568
 40
0.827696
 40
1.243264
 40
1.658832
 40
2.070960
 40
2.486528
 40
16.155972
 40
41.542083
 40
55.211528
 40
55.627096
 40
56.039224
 40
56.454792
 40
56.870359
 40
57.282488
 40
57.698056
 40
57.698056
 40
57.698056
 40
57.698056
 10
339.543336
 20
132.874230
 30
0.0
 10
339.682263
 20
132.884813
 30
0.0
 10
339.958967
 20
132.905891
 30
0.0
 10
340.346068
 20
133.072460
 30
0.0
 10
340.679178
 20
133.325877
 30
0.0
 10
340.932645
 20
133.659002
 30
0.0
 10
341.099033
 20
134.046093
 30
0.0
 10
341.476152
 20
138.892896
 30
0.0
 10
340.770357
 20
152.022944
 30
0.0
 10
341.491315
 20
169.625517
 30
0.0
 10
340.785520
 20
182.755565
 30
0.0
 10
341.162639
 20
187.602368
 30
0.0
 10
341.329026
 20
187.989459
 30
0.0
 10
341.582493
 20
188.322584
 30
0.0
 10
341.915603
 20
188.576001
 30
0.0
 10
342.302704
 20
188.742570
 30
0.0
 10
342.579409
 20
188.763648
 30
0.0
 10
342.718336
 20
188.774230
 30
0.0
 11
339.543336
 21
132.874230
 31
0.0
 11
339.955329
 21
132.928619
 31
0.0
 11
340.336086
 21
133.086334
 31
0.0
 11
340.665868
 21
133.339198
 31
0.0
 11
340.918732
 21
133.668980
 31
0.0
 11
341.076447
 21
134.049737
 31
0.0
 11
341.130836
 21
134.461730
 31
0.0
 11
341.130836
 21
148.131175
 31
0.0
 11
341.130836
 21
173.517286
 31
0.0
 11
341.130836
 21
187.186730
 31
0.0
 11
341.185224
 21
187.598723
 31
0.0
 11
341.342939
 21
187.979481
 31
0.0
 11
341.595804
 21
188.309262
 31
0.0
 11
341.925585
 21
188.562127
 31
0.0
 11
342.306343
 21
188.719842
 31
0.0
 11
342.718336
 21
188.774230
 31
0.0
  0
LWPOLYLINE
  5
10f
100
AcDbEntity
  8
0
 62
7
100
AcDbPolyline
 90
2
 70
0
 10
342.718336
 20
188.774230
 30
0.0
 10
343.343336
 20
188.774230
 30
0.0
  0
SPLINE
  5
110
100
AcDbEntity
  8
0
 62
7
100
AcDbSpline
 70
0
 71
3
 72
22
 73
18
 74
16
 40
0.000000
 40
0.000000
 40
0.000000
 40
0.000000
 40
0.415568
 40
0.827696
 40
1.243264
 40
1.658832
 40
2.070960
 40
2.486528
 40
8.189648
 40
18.781156
 40
24.484276
 40
24.899844
 40
25.311973
 40
25.727540
 40
26.143108
 40
26.555237
 40
26.970804
 40
26.970804
 40
26.970804
 40
26.970804
 10
343.343336
 20
188.774230
 30
0.0
 10
343.482262
 20
188.784813
 30
0.0
 10
343.758966
 20
188.805891
 30
0.0
 10
344.146071
 20
188.972460
 30
0.0
 10
344.479166
 20
189.225876
 30
0.0
 10
344.732689
 20
189.559004
 30
0.0
 10
344.898867
 20
189.946086
 30
0.0
 10
345.072890
 20
192.129700
 30
0.0
 10
344.831304
 20
197.688788
 30
0.0
 10
344.831304
 20
205.032421
 30
0.0
 10
345.072890
 20
210.591509
 30
0.0
 10
344.898867
 20
212.775124
 30
0.0
 10
344.732689
 20
213.162206
 30
0.0
 10
344.479166
 20
213.495333
 30
0.0
 10
344.146071
 20
213.748750
 30
0.0
 10
343.758966
 20
213.915319
 30
0.0
 10
343.482262
 20
213.936396
 30
0.0
 10
343.343336
 20
213.946979
 30
0.0
 11
343.343336
 21
188.774230
 31
0.0
 11
343.755329
 21
188.828619
 31
0.0
 11
344.136086
 21
188.986334
 31
0.0
 11
344.465868
 21
189.239198
 31
0.0
 11
344.718732
 21
189.568980
 31
0.0
 11
344.876447
 21
189.949737
 31
0.0
 11
344.930836
 21
190.361730
 31
0.0
 11
344.930836
 21
196.064850
 31
0.0
 11
344.930836
 21
206.656359
 31
0.0
 11
344.930836
 21
212.359479
 31
0.0
 11
344.876447
 21
212.771472
 31
0.0
 11
344.718732
 21
213.152229
 31
0.0
 11
344.465868
 21
213.482011
 31
0.0
 11
344.136086
 21
213.734876
 31
0.0
 11
343.755329
 21
213.892590
 31
0.0
 11
343.343336
 21
213.946979
 31
0.0
  0
LWPOLYLINE
  5
111
100
AcDbEntity
  8
0
 62
7
100
AcDbPolyline
 90
2
 70
0
 10
343.343336
 20
213.946979
 30
0.0
 10
334.557334
 20
213.946979
 30
0.0
  0
SPLINE
  5
112
100
AcDbEntity
  8
0
 62
7
100
AcDbSpline
 70
0
 71
3
 72
34
 73
30
 74
28
 40
0.000000
 40
0.000000
 40
0.000000
 40
0.000000
 40
0.559257
 40
1.110367
 40
1.669624
 40
2.875294
 40
4.063400
 40
5.269070
 40
6.474740
 40
7.662845
 40
8.868516
 40
9.427773
 40
9.978882
 40
10.538139
 40
42.391481
 40
101.547687
 40
133.401028
 40
133.960291
 40
134.511407
 40
135.070670
 40
136.276388
 40
137.464540
 40
138.670259
 40
139.875977
 40
141.064129
 40
142.269847
 40
142.829110
 40
143.380226
 40
143.939489
 40
143.939489
 40
143.939489
 40
143.939489
 10
334.557334
 20
213.946979
 30
0.0
 10
334.370594
 20
213.927271
 30
0.0
 10
333.999835
 20
213.888141
 30
0.0
 10
333.499846
 20
213.595997
 30
0.0
 10
333.048762
 20
212.963286
 30
0.0
 10
332.473613
 20
212.149612
 30
0.0
 10
331.395716
 20
211.544941
 30
0.0
 10
330.193836
 20
211.324861
 30
0.0
 10
328.991956
 20
211.544939
 30
0.0
 10
327.914058
 20
212.149620
 30
0.0
 10
327.338910
 20
212.963262
 30
0.0
 10
326.887825
 20
213.596035
 30
0.0
 10
326.387839
 20
213.887997
 30
0.0
 10
315.380790
 20
215.063284
 30
0.0
 10
284.895200
 20
213.138889
 30
0.0
 10
243.902586
 20
213.138876
 30
0.0
 10
213.416994
 20
215.063297
 30
0.0
 10
202.409941
 20
213.887996
 30
0.0
 10
201.909951
 20
213.596028
 30
0.0
 10
201.458861
 20
212.963234
 30
0.0
 10
200.883701
 20
212.149558
 30
0.0
 10
199.805763
 20
211.544847
 30
0.0
 10
198.603836
 20
211.324757
 30
0.0
 10
197.401908
 20
211.544849
 30
0.0
 10
196.323970
 20
212.149550
 30
0.0
 10
195.748810
 20
212.963258
 30
0.0
 10
195.297721
 20
213.595990
 30
0.0
 10
194.797728
 20
213.888140
 30
0.0
 10
194.426965
 20
213.927270
 30
0.0
 10
194.240223
 20
213.946979
 30
0.0
 11
334.557334
 21
213.946979
 31
0.0
 11
334.006817
 21
213.848493
 31
0.0
 11
333.530924
 21
213.570558
 31
0.0
 11
333.174661
 21
213.139461
 31
0.0
 11
332.406615
 21
212.210082
 31
0.0
 11
331.380664
 21
211.610899
 31
0.0
 11
330.193836
 21
211.398579
 31
0.0
 11
329.007008
 21
211.610899
 31
0.0
 11
327.981057
 21
212.210082
 31
0.0
 11
327.213011
 21
213.139461
 31
0.0
 11
326.856748
 21
213.570559
 31
0.0
 11
326.380854
 21
213.848493
 31
0.0
 11
325.830337
 21
213.946979
 31
0.0
 11
293.976996
 21
213.946979
 31
0.0
 11
234.820790
 21
213.946979
 31
0.0
 11
202.967449
 21
213.946979
 31
0.0
 11
202.416926
 21
213.848491
 31
0.0
 11
201.941029
 21
213.570551
 31
0.0
 11
201.584767
 21
213.139445
 31
0.0
 11
200.816699
 21
212.210022
 31
0.0
 11
199.790710
 21
211.610810
 31
0.0
 11
198.603836
 21
211.398479
 31
0.0
 11
197.416961
 21
211.610810
 31
0.0
 11
196.390973
 21
212.210022
 31
0.0
 11
195.622905
 21
213.139445
 31
0.0
 11
195.266642
 21
213.570551
 31
0.0
 11
194.790745
 21
213.848491
 31
0.0
 11
194.240223
 21
213.946979
 31
0.0
  0
LWPOLYLINE
  5
113
100
AcDbEntity
  8
0
 62
7
100
AcDbPolyline
 90
2
 70
0
 10
194.240223
 20
213.946979
 30
0.0
 10
95.624336
 20
213.946979
 30
0.0
  0
SPLINE
  5
114
100
AcDbEntity
  8
0
 62
7
100
AcDbSpline
 70
0
 71
3
 72
19
 73
15
 74
13
 40
0.000000
 40
0.000000
 40
0.000000
 40
0.000000
 40
0.415568
 40
0.827696
 40
1.243264
 40
1.658832
 40
2.070960
 40
2.486528
 40
2.927009
 40
3.745046
 40
4.185528
 40
4.944934
 40
5.685028
 40
6.444434
 40
6.444434
 40
6.444434
 40
6.444434
 10
95.624336
 20
213.946979
 30
0.0
 10
95.485412
 20
213.957561
 30
0.0
 10
95.208715
 20
213.978639
 30
0.0
 10
94.821560
 20
214.145210
 30
0.0
 10
94.488655
 20
214.398619
 30
0.0
 10
94.234426
 20
214.731773
 30
0.0
 10
94.070867
 20
215.118757
 30
0.0
 10
94.027041
 20
215.543156
 30
0.0
 10
94.043323
 20
216.100576
 30
0.0
 10
94.028820
 20
216.667384
 30
0.0
 10
94.054245
 20
217.339285
 30
0.0
 10
93.918034
 20
217.989855
 30
0.0
 10
93.399213
 20
218.597888
 30
0.0
 10
92.909730
 20
218.736496
 30
0.0
 10
92.661836
 20
218.806692
 30
0.0
 11
95.624336
 21
213.946979
 31
0.0
 11
95.212343
 21
214.001368
 31
0.0
 11
94.831585
 21
214.159082
 31
0.0
 11
94.501804
 21
214.411947
 31
0.0
 11
94.248939
 21
214.741729
 31
0.0
 11
94.091224
 21
215.122486
 31
0.0
 11
94.036836
 21
215.534479
 31
0.0
 11
94.036836
 21
215.974960
 31
0.0
 11
94.036836
 21
216.792998
 31
0.0
 11
94.036836
 21
217.233479
 31
0.0
 11
93.855349
 21
217.970879
 31
0.0
 11
93.368306
 21
218.528132
 31
0.0
 11
92.661836
 21
218.806692
 31
0.0
  0
LWPOLYLINE
  5
115
100
AcDbEntity
  8
0
 62
7
100
AcDbPolyline
 90
3
 70
0
 10
92.661836
 20
218.806692
 30
0.0
 10
92.661836
 20
219.820979
 30
0.0
 10
342.193836
 20
219.820979
 30
0.0
  0
SPLINE
  5
116
100
AcDbEntity
  8
0
 62
7
100
AcDbSpline
 70
0
 71
3
 72
22
 73
18
 74
16
 40
0.000000
 40
0.000000
 40
0.000000
 40
0.000000
 40
1.570649
 40
3.128301
 40
4.698950
 40
6.269600
 40
7.827251
 40
9.397900
 40
32.811539
 40
76.294011
 40
99.707649
 40
101.278298
 40
102.835950
 40
104.406599
 40
105.977249
 40
107.534901
 40
109.105550
 40
109.105550
 40
109.105550
 40
109.105550
 10
342.193836
 20
219.820979
 30
0.0
 10
342.718913
 20
219.780982
 30
0.0
 10
343.764723
 20
219.701318
 30
0.0
 10
345.227796
 20
219.071766
 30
0.0
 10
346.486745
 20
218.113970
 30
0.0
 10
347.444913
 20
216.854907
 30
0.0
 10
348.073098
 20
215.391916
 30
0.0
 10
348.778001
 20
206.517568
 30
0.0
 10
347.783156
 20
183.740536
 30
0.0
 10
347.783156
 20
153.591674
 30
0.0
 10
348.778001
 20
130.814641
 30
0.0
 10
348.073098
 20
121.940293
 30
0.0
 10
347.444913
 20
120.477302
 30
0.0
 10
346.486745
 20
119.218239
 30
0.0
 10
345.227796
 20
118.260444
 30
0.0
 10
343.764724
 20
117.630891
 30
0.0
 10
342.718913
 20
117.551228
 30
0.0
 10
342.193836
 20
117.511230
 30
0.0
 11
342.193836
 21
219.820979
 31
0.0
 11
343.750975
 21
219.615416
 31
0.0
 11
345.190057
 21
219.019328
 31
0.0
 11
346.436476
 21
218.063620
 31
0.0
 11
347.392185
 21
216.817201
 31
0.0
 11
347.988273
 21
215.378118
 31
0.0
 11
348.193836
 21
213.820979
 31
0.0
 11
348.193836
 21
190.407341
 31
0.0
 11
348.193836
 21
146.924869
 31
0.0
 11
348.193836
 21
123.511230
 31
0.0
 11
347.988273
 21
121.954091
 31
0.0
 11
347.392185
 21
120.515008
 31
0.0
 11
346.436476
 21
119.268589
 31
0.0
 11
345.190057
 21
118.312881
 31
0.0
 11
343.750975
 21
117.716793
 31
0.0
 11
342.193836
 21
117.511230
 31
0.0
  0
LWPOLYLINE
  5
117
100
AcDbEntity
  8
0
 62
7
100
AcDbPolyline
 90
2
 70
0
 10
342.193836
 20
117.511230
 30
0.0
 10
61.586836
 20
117.511230
 30
0.0
  0
SPLINE
  5
118
100
AcDbEntity
  8
0
 62
7
100
AcDbSpline
 70
0
 71
3
 72
22
 73
18
 74
16
 40
0.000000
 40
0.000000
 40
0.000000
 40
0.000000
 40
1.570649
 40
3.128301
 40
4.698950
 40
6.269600
 40
7.827251
 40
9.397901
 40
32.811539
 40
76.294011
 40
99.707649
 40
101.278299
 40
102.835950
 40
104.406600
 40
105.977249
 40
107.534901
 40
109.105550
 40
109.105550
 40
109.105550
 40
109.105550
 10
61.586836
 20
117.511230
 30
0.0
 10
61.061758
 20
117.551228
 30
0.0
 10
60.015948
 20
117.630891
 30
0.0
 10
58.552875
 20
118.260444
 30
0.0
 10
57.293926
 20
119.218239
 30
0.0
 10
56.335758
 20
120.477302
 30
0.0
 10
55.707574
 20
121.940293
 30
0.0
 10
55.002670
 20
130.814641
 30
0.0
 10
55.997515
 20
153.591674
 30
0.0
 10
55.997516
 20
183.740536
 30
0.0
 10
55.002670
 20
206.517568
 30
0.0
 10
55.707574
 20
215.391916
 30
0.0
 10
56.335758
 20
216.854907
 30
0.0
 10
57.293926
 20
218.113970
 30
0.0
 10
58.552875
 20
219.071766
 30
0.0
 10
60.015948
 20
219.701318
 30
0.0
 10
61.061758
 20
219.780982
 30
0.0
 10
61.586836
 20
219.820979
 30
0.0
 11
61.586836
 21
117.511230
 31
0.0
 11
60.029696
 21
117.716793
 31
0.0
 11
58.590614
 21
118.312881
 31
0.0
 11
57.344195
 21
119.268589
 31
0.0
 11
56.388486
 21
120.515008
 31
0.0
 11
55.792399
 21
121.954091
 31
0.0
 11
55.586836
 21
123.511230
 31
0.0
 11
55.586836
 21
146.924869
 31
0.0
 11
55.586836
 21
190.407341
 31
0.0
 11
55.586836
 21
213.820979
 31
0.0
 11
55.792399
 21
215.378118
 31
0.0
 11
56.388486
 21
216.817201
 31
0.0
 11
57.344195
 21
218.063620
 31
0.0
 11
58.590614
 21
219.019328
 31
0.0
 11
60.029696
 21
219.615416
 31
0.0
 11
61.586836
 21
219.820979
 31
0.0
  0
LWPOLYLINE
  5
119
100
AcDbEntity
  8
0
 62
7
100
AcDbPolyline
 90
3
 70
0
 10
61.586836
 20
219.820979
 30
0.0
 10
81.661836
 20
219.820979
 30
0.0
 10
81.661836
 20
218.799791
 30
0.0
  0
SPLINE
  5
11a
100
AcDbEntity
  8
0
 62
7
100
AcDbSpline
 70
0
 71
3
 72
19
 73
15
 74
13
 40
0.000000
 40
0.000000
 40
0.000000
 40
0.000000
 40
0.743973
 40
1.469699
 40
2.213672
 40
3.520079
 40
5.946265
 40
7.252672
 40
7.668240
 40
8.080368
 40
8.495936
 40
8.911503
 40
9.323632
 40
9.739200
 40
9.739200
 40
9.739200
 40
9.739200
 10
81.661836
 20
218.799791
 30
0.0
 10
81.421419
 20
218.724712
 30
0.0
 10
80.946482
 20
218.576394
 30
0.0
 10
80.442600
 20
217.974395
 30
0.0
 10
80.277663
 20
217.044476
 30
0.0
 10
80.372494
 20
215.554948
 30
0.0
 10
80.303607
 20
213.873096
 30
0.0
 10
80.364047
 20
212.492616
 30
0.0
 10
80.299988
 20
211.778802
 30
0.0
 10
80.134926
 20
211.391761
 30
0.0
 10
79.881103
 20
211.058623
 30
0.0
 10
79.548088
 20
210.805209
 30
0.0
 10
79.160962
 20
210.638639
 30
0.0
 10
78.884261
 20
210.617562
 30
0.0
 10
78.745336
 20
210.606979
 30
0.0
 11
81.661836
 21
218.799791
 31
0.0
 11
80.976563
 21
218.510142
 31
0.0
 11
80.507032
 21
217.956771
 31
0.0
 11
80.332836
 21
217.233479
 31
0.0
 11
80.332836
 21
215.927072
 31
0.0
 11
80.332836
 21
213.500886
 31
0.0
 11
80.332836
 21
212.194479
 31
0.0
 11
80.278447
 21
211.782486
 31
0.0
 11
80.120732
 21
211.401729
 31
0.0
 11
79.867868
 21
211.071947
 31
0.0
 11
79.538086
 21
210.819082
 31
0.0
 11
79.157329
 21
210.661368
 31
0.0
 11
78.745336
 21
210.606979
 31
0.0
  0
LWPOLYLINE
  5
11b
100
AcDbEntity
  8
0
 62
7
100
AcDbPolyline
 90
2
 70
0
 10
78.745336
 20
210.606979
 30
0.0
 10
67.137336
 20
210.606979
 30
0.0
  0
SPLINE
  5
11c
100
AcDbEntity
  8
0
 62
7
100
AcDbSpline
 70
0
 71
3
 72
13
 73
9
 74
7
 40
0.000000
 40
0.000000
 40
0.000000
 40
0.000000
 40
0.415568
 40
0.827696
 40
1.243264
 40
1.658832
 40
2.070960
 40
2.486528
 40
2.486528
 40
2.486528
 40
2.486528
 10
67.137336
 20
210.606979
 30
0.0
 10
66.998408
 20
210.596396
 30
0.0
 10
66.721703
 20
210.575319
 30
0.0
 10
66.334606
 20
210.408750
 30
0.0
 10
66.001483
 20
210.155332
 30
0.0
 10
65.748065
 20
209.822209
 30
0.0
 10
65.581496
 20
209.435111
 30
0.0
 10
65.560418
 20
209.158406
 30
0.0
 10
65.549836
 20
209.019479
 30
0.0
 11
67.137336
 21
210.606979
 31
0.0
 11
66.725342
 21
210.552590
 31
0.0
 11
66.344585
 21
210.394876
 31
0.0
 11
66.014804
 21
210.142011
 31
0.0
 11
65.761939
 21
209.812229
 31
0.0
 11
65.604224
 21
209.431472
 31
0.0
 11
65.549836
 21
209.019479
 31
0.0
  0
LWPOLYLINE
  5
11d
100
AcDbEntity
  8
0
 62
7
100
AcDbPolyline
 90
2
 70
0
 10
65.549836
 20
209.019479
 30
0.0
 10
65.549836
 20
134.461730
 30
0.0
  0
LWPOLYLINE
  5
11e
100
AcDbEntity
  8
0
 62
7
100
AcDbPolyline
 90
1
 70
1
 10
67.137336
 20
132.874230
 30
0.0
  0
SPLINE
  5
11f
100
AcDbEntity
  8
0
 62
7
100
AcDbSpline
 70
0
 71
3
 72
13
 73
9
 74
7
 40
0.000000
 40
0.000000
 40
0.000000
 40
0.000000
 40
0.415568
 40
0.827696
 40
1.243264
 40
1.658832
 40
2.070960
 40
2.486528
 40
2.486528
 40
2.486528
 40
2.486528
 10
65.549836
 20
134.461730
 30
0.0
 10
65.560418
 20
134.322803
 30
0.0
 10
65.581496
 20
134.046098
 30
0.0
 10
65.748065
 20
133.659000
 30
0.0
 10
66.001483
 20
133.325877
 30
0.0
 10
66.334606
 20
133.072459
 30
0.0
 10
66.721703
 20
132.905891
 30
0.0
 10
66.998408
 20
132.884813
 30
0.0
 10
67.137336
 20
132.874230
 30
0.0
 11
65.549836
 21
134.461730
 31
0.0
 11
65.604224
 21
134.049737
 31
0.0
 11
65.761939
 21
133.668980
 31
0.0
 11
66.014804
 21
133.339198
 31
0.0
 11
66.344585
 21
133.086334
 31
0.0
 11
66.725342
 21
132.928619
 31
0.0
 11
67.137336
 21
132.874230
 31
0.0
  0
LWPOLYLINE
  5
120
100
AcDbEntity
  8
0
 62
7
100
AcDbPolyline
 90
5
 70
0
 10
92.661836
 20
113.511230
 30
0.0
 10
92.661836
 20
103.511230
 30
0.0
 10
81.661836
 20
103.511230
 30
0.0
 10
81.661836
 20
113.511230
 30
0.0
 10
61.586836
 20
113.511230
 30
0.0
  0
SPLINE
  5
121
100
AcDbEntity
  8
0
 62
7
100
AcDbSpline
 70
0
 71
3
 72
22
 73
18
 74
16
 40
0.000000
 40
0.000000
 40
0.000000
 40
0.000000
 40
1.570649
 40
3.128301
 40
4.698950
 40
6.269600
 40
7.827251
 40
9.397900
 40
32.811539
 40
76.294011
 40
99.707649
 40
101.278298
 40
102.835950
 40
104.406599
 40
105.977249
 40
107.534900
 40
109.105550
 40
109.105550
 40
109.105550
 40
109.105550
 10
61.586836
 20
113.511230
 30
0.0
 10
61.061758
 20
113.471233
 30
0.0
 10
60.015948
 20
113.391569
 30
0.0
 10
58.552875
 20
112.762017
 30
0.0
 10
57.293926
 20
111.804221
 30
0.0
 10
56.335758
 20
110.545159
 30
0.0
 10
55.707574
 20
109.082167
 30
0.0
 10
55.002670
 20
100.207820
 30
0.0
 10
55.997516
 20
77.430787
 30
0.0
 10
55.997515
 20
47.281925
 30
0.0
 10
55.002670
 20
24.504892
 30
0.0
 10
55.707574
 20
15.630545
 30
0.0
 10
56.335758
 20
14.167553
 30
0.0
 10
57.293926
 20
12.908491
 30
0.0
 10
58.552875
 20
11.950695
 30
0.0
 10
60.015948
 20
11.321143
 30
0.0
 10
61.061758
 20
11.241479
 30
0.0
 10
61.586836
 20
11.201482
 30
0.0
 11
61.586836
 21
113.511230
 31
0.0
 11
60.029696
 21
113.305667
 31
0.0
 11
58.590614
 21
112.709580
 31
0.0
 11
57.344195
 21
111.753871
 31
0.0
 11
56.388486
 21
110.507452
 31
0.0
 11
55.792399
 21
109.068370
 31
0.0
 11
55.586836
 21
107.511230
 31
0.0
 11
55.586836
 21
84.097592
 31
0.0
 11
55.586836
 21
40.615120
 31
0.0
 11
55.586836
 21
17.201482
 31
0.0
 11
55.792399
 21
15.644342
 31
0.0
 11
56.388486
 21
14.205260
 31
0.0
 11
57.344195
 21
12.958841
 31
0.0
 11
58.590614
 21
12.003132
 31
0.0
 11
60.029696
 21
11.407045
 31
0.0
 11
61.586836
 21
11.201482
 31
0.0
  0
LWPOLYLINE
  5
122
100
AcDbEntity
  8
0
 62
7
100
AcDbPolyline
 90
2
 70
0
 10
61.586836
 20
11.201482
 30
0.0
 10
342.193836
 20
11.201482
 30
0.0
  0
SPLINE
  5
123
100
AcDbEntity
  8
0
 62
7
100
AcDbSpline
 70
0
 71
3
 72
22
 73
18
 74
16
 40
0.000000
 40
0.000000
 40
0.000000
 40
0.000000
 40
1.570649
 40
3.128301
 40
4.698950
 40
6.269600
 40
7.827251
 40
9.397901
 40
32.811539
 40
76.294011
 40
99.707649
 40
101.278299
 40
102.835950
 40
104.406600
 40
105.977249
 40
107.534901
 40
109.105550
 40
109.105550
 40
109.105550
 40
109.105550
 10
342.193836
 20
11.201482
 30
0.0
 10
342.718913
 20
11.241479
 30
0.0
 10
343.764724
 20
11.321143
 30
0.0
 10
345.227796
 20
11.950695
 30
0.0
 10
346.486745
 20
12.908491
 30
0.0
 10
347.444913
 20
14.167553
 30
0.0
 10
348.073098
 20
15.630544
 30
0.0
 10
348.778001
 20
24.504892
 30
0.0
 10
347.783156
 20
47.281925
 30
0.0
 10
347.783156
 20
77.430787
 30
0.0
 10
348.778001
 20
100.207820
 30
0.0
 10
348.073098
 20
109.082167
 30
0.0
 10
347.444913
 20
110.545159
 30
0.0
 10
346.486745
 20
111.804221
 30
0.0
 10
345.227796
 20
112.762017
 30
0.0
 10
343.764723
 20
113.391569
 30
0.0
 10
342.718913
 20
113.471233
 30
0.0
 10
342.193836
 20
113.511230
 30
0.0
 11
342.193836
 21
11.201482
 31
0.0
 11
343.750975
 21
11.407045
 31
0.0
 11
345.190057
 21
12.003132
 31
0.0
 11
346.436476
 21
12.958841
 31
0.0
 11
347.392185
 21
14.205260
 31
0.0
 11
347.988273
 21
15.644342
 31
0.0
 11
348.193836
 21
17.201482
 31
0.0
 11
348.193836
 21
40.615120
 31
0.0
 11
348.193836
 21
84.097592
 31
0.0
 11
348.193836
 21
107.511230
 31
0.0
 11
347.988273
 21
109.068370
 31
0.0
 11
347.392185
 21
110.507452
 31
0.0
 11
346.436476
 21
111.753871
 31
0.0
 11
345.190057
 21
112.709580
 31
0.0
 11
343.750975
 21
113.305667
 31
0.0
 11
342.193836
 21
113.511230
 31
0.0
  0
LWPOLYLINE
  5
124
100
AcDbEntity
  8
0
 62
7
100
AcDbPolyline
 90
3
 70
0
 10
342.193836
 20
113.511230
 30
0.0
 10
92.661836
 20
113.511230
 30
0.0
 10
92.661836
 20
113.511230
 30
0.0
  0
SPLINE
  5
125
100
AcDbEntity
  8
0
 62
7
100
AcDbSpline
 70
0
 71
3
 72
25
 73
21
 74
19
 40
0.000000
 40
0.000000
 40
0.000000
 40
0.000000
 40
0.549619
 40
1.091371
 40
1.640990
 40
2.190608
 40
2.732361
 40
3.281979
 40
3.831598
 40
4.373351
 40
4.922969
 40
5.472588
 40
6.014340
 40
6.563959
 40
7.113577
 40
7.655330
 40
8.204948
 40
8.754567
 40
9.296319
 40
9.845938
 40
9.845938
 40
9.845938
 40
9.845938
 10
200.178836
 20
216.320979
 30
0.0
 10
200.160018
 20
216.505120
 30
0.0
 10
200.122651
 20
216.870765
 30
0.0
 10
199.832746
 20
217.353972
 30
0.0
 10
199.408276
 20
217.713223
 30
0.0
 10
198.882650
 20
217.903758
 30
0.0
 10
198.324901
 20
217.903758
 30
0.0
 10
197.800011
 20
217.713223
 30
0.0
 10
197.372601
 20
217.353972
 30
0.0
 10
197.093618
 20
216.870765
 30
0.0
 10
196.996211
 20
216.320979
 30
0.0
 10
197.093618
 20
215.771193
 30
0.0
 10
197.372602
 20
215.287986
 30
0.0
 10
197.800011
 20
214.928735
 30
0.0
 10
198.324901
 20
214.738200
 30
0.0
 10
198.882650
 20
214.738200
 30
0.0
 10
199.408276
 20
214.928735
 30
0.0
 10
199.832746
 20
215.287986
 30
0.0
 10
200.122651
 20
215.771193
 30
0.0
 10
200.160018
 20
216.136839
 30
0.0
 10
200.178836
 20
216.320979
 30
0.0
 11
200.178836
 21
216.320979
 31
0.0
 11
200.082959
 21
216.862171
 31
0.0
 11
199.812083
 21
217.331342
 31
0.0
 11
199.391336
 21
217.684969
 31
0.0
 11
198.874712
 21
217.872534
 31
0.0
 11
198.332959
 21
217.872534
 31
0.0
 11
197.816336
 21
217.684969
 31
0.0
 11
197.395588
 21
217.331342
 31
0.0
 11
197.124712
 21
216.862171
 31
0.0
 11
197.028836
 21
216.320979
 31
0.0
 11
197.124712
 21
215.779788
 31
0.0
 11
197.395588
 21
215.310616
 31
0.0
 11
197.816336
 21
214.956989
 31
0.0
 11
198.332959
 21
214.769425
 31
0.0
 11
198.874712
 21
214.769425
 31
0.0
 11
199.391336
 21
214.956989
 31
0.0
 11
199.812083
 21
215.310616
 31
0.0
 11
200.082959
 21
215.779788
 31
0.0
 11
200.178836
 21
216.320979
 31
0.0
  0
LWPOLYLINE
  5
126
100
AcDbEntity
  8
0
 62
7
100
AcDbPolyline
 90
1
 70
1
 10
200.178836
 20
216.320979
 30
0.0
  0
SPLINE
  5
127
100
AcDbEntity
  8
0
 62
7
100
AcDbSpline
 70
0
 71
3
 72
25
 73
21
 74
19
 40
0.000000
 40
0.000000
 40
0.000000
 40
0.000000
 40
0.355943
 40
0.706793
 40
1.062736
 40
1.418679
 40
1.769529
 40
2.125472
 40
2.481415
 40
2.832265
 40
3.188208
 40
3.544152
 40
3.895001
 40
4.250944
 40
4.606888
 40
4.957737
 40
5.313680
 40
5.669624
 40
6.020473
 40
6.376416
 40
6.376416
 40
6.376416
 40
6.376416
 10
199.623836
 20
21.201482
 30
0.0
 10
199.611649
 20
21.320735
 30
0.0
 10
199.587449
 20
21.557534
 30
0.0
 10
199.399701
 20
21.870467
 30
0.0
 10
199.124806
 20
22.103125
 30
0.0
 10
198.784401
 20
22.226520
 30
0.0
 10
198.423192
 20
22.226520
 30
0.0
 10
198.083263
 20
22.103125
 30
0.0
 10
197.806465
 20
21.870467
 30
0.0
 10
197.625790
 20
21.557534
 30
0.0
 10
197.562707
 20
21.201482
 30
0.0
 10
197.625790
 20
20.845430
 30
0.0
 10
197.806465
 20
20.532496
 30
0.0
 10
198.083263
 20
20.299838
 30
0.0
 10
198.423192
 20
20.176444
 30
0.0
 10
198.784401
 20
20.176444
 30
0.0
 10
199.124806
 20
20.299838
 30
0.0
 10
199.399701
 20
20.532496
 30
0.0
 10
199.587449
 20
20.845430
 30
0.0
 10
199.611649
 20
21.082229
 30
0.0
 10
199.623836
 20
21.201482
 30
0.0
 11
199.623836
 21
21.201482
 31
0.0
 11
199.561744
 21
21.551968
 31
0.0
 11
199.386320
 21
21.855812
 31
0.0
 11
199.113836
 21
22.084827
 31
0.0
 11
198.779260
 21
22.206298
 31
0.0
 11
198.428411
 21
22.206298
 31
0.0
 11
198.093836
 21
22.084827
 31
0.0
 11
197.821352
 21
21.855812
 31
0.0
 11
197.645927
 21
21.551968
 31
0.0
 11
197.583836
 21
21.201482
 31
0.0
 11
197.645927
 21
20.850996
 31
0.0
 11
197.821352
 21
20.547151
 31
0.0
 11
198.093836
 21
20.318136
 31
0.0
 11
198.428411
 21
20.196665
 31
0.0
 11
198.779260
 21
20.196665
 31
0.0
 11
199.113836
 21
20.318136
 31
0.0
 11
199.386320
 21
20.547151
 31
0.0
 11
199.561744
 21
20.850996
 31
0.0
 11
199.623836
 21
21.201482
 31
0.0
  0
LWPOLYLINE
  5
128
100
AcDbEntity
  8
0
 62
7
100
AcDbPolyline
 90
1
 70
1
 10
199.623836
 20
21.201482
 30
0.0
  0
SPLINE
  5
129
100
AcDbEntity
  8
0
 62
7
100
AcDbSpline
 70
0
 71
3
 72
25
 73
21
 74
19
 40
0.000000
 40
0.000000
 40
0.000000
 40
0.000000
 40
0.549762
 40
1.091652
 40
1.641413
 40
2.191175
 40
2.733065
 40
3.282827
 40
3.832589
 40
4.374479
 40
4.924240
 40
5.474002
 40
6.015892
 40
6.565654
 40
7.115415
 40
7.657305
 40
8.207067
 40
8.756829
 40
9.298719
 40
9.848480
 40
9.848480
 40
9.848480
 40
9.848480
 10
75.161836
 20
233.820979
 30
0.0
 10
75.143083
 20
234.005176
 30
0.0
 10
75.105846
 20
234.370932
 30
0.0
 10
74.815993
 20
234.854349
 30
0.0
 10
74.391475
 20
235.213774
 30
0.0
 10
73.865724
 20
235.404408
 30
0.0
 10
73.307827
 20
235.404408
 30
0.0
 10
72.782810
 20
235.213774
 30
0.0
 10
72.355363
 20
234.854349
 30
0.0
 10
72.076393
 20
234.370932
 30
0.0
 10
71.979325
 20
233.820979
 30
0.0
 10
72.076393
 20
233.271026
 30
0.0
 10
72.355363
 20
232.787609
 30
0.0
 10
72.782810
 20
232.428184
 30
0.0
 10
73.307827
 20
232.237550
 30
0.0
 10
73.865724
 20
232.237550
 30
0.0
 10
74.391475
 20
232.428184
 30
0.0
 10
74.815993
 20
232.787609
 30
0.0
 10
75.105846
 20
233.271026
 30
0.0
 10
75.143083
 20
233.636782
 30
0.0
 10
75.161836
 20
233.820979
 30
0.0
 11
75.161836
 21
233.820979
 31
0.0
 11
75.066131
 21
234.362346
 31
0.0
 11
74.795314
 21
234.831711
 31
0.0
 11
74.374522
 21
235.185507
 31
0.0
 11
73.857781
 21
235.373167
 31
0.0
 11
73.315891
 21
235.373167
 31
0.0
 11
72.799149
 21
235.185507
 31
0.0
 11
72.378357
 21
234.831711
 31
0.0
 11
72.107540
 21
234.362346
 31
0.0
 11
72.011836
 21
233.820979
 31
0.0
 11
72.107540
 21
233.279612
 31
0.0
 11
72.378357
 21
232.810247
 31
0.0
 11
72.799149
 21
232.456451
 31
0.0
 11
73.315891
 21
232.268791
 31
0.0
 11
73.857781
 21
232.268791
 31
0.0
 11
74.374522
 21
232.456451
 31
0.0
 11
74.795314
 21
232.810247
 31
0.0
 11
75.066131
 21
233.279612
 31
0.0
 11
75.161836
 21
233.820979
 31
0.0
  0
LWPOLYLINE
  5
12a
100
AcDbEntity
  8
0
 62
7
100
AcDbPolyline
 90
1
 70
1
 10
75.161836
 20
233.820979
 30
0.0
  0
SPLINE
  5
12b
100
AcDbEntity
  8
0
 62
7
100
AcDbSpline
 70
0
 71
3
 72
25
 73
21
 74
19
 40
0.000000
 40
0.000000
 40
0.000000
 40
0.000000
 40
0.549619
 40
1.091371
 40
1.640990
 40
2.190608
 40
2.732361
 40
3.281979
 40
3.831598
 40
4.373351
 40
4.922969
 40
5.472588
 40
6.014340
 40
6.563959
 40
7.113577
 40
7.655330
 40
8.204948
 40
8.754567
 40
9.296320
 40
9.845938
 40
9.845938
 40
9.845938
 40
9.845938
 10
200.181836
 20
233.820979
 30
0.0
 10
200.163018
 20
234.005120
 30
0.0
 10
200.125651
 20
234.370765
 30
0.0
 10
199.835746
 20
234.853972
 30
0.0
 10
199.411276
 20
235.213223
 30
0.0
 10
198.885650
 20
235.403758
 30
0.0
 10
198.327901
 20
235.403758
 30
0.0
 10
197.803011
 20
235.213223
 30
0.0
 10
197.375602
 20
234.853972
 30
0.0
 10
197.096618
 20
234.370765
 30
0.0
 10
196.999211
 20
233.820979
 30
0.0
 10
197.096618
 20
233.271193
 30
0.0
 10
197.375602
 20
232.787986
 30
0.0
 10
197.803011
 20
232.428735
 30
0.0
 10
198.327901
 20
232.238200
 30
0.0
 10
198.885650
 20
232.238200
 30
0.0
 10
199.411276
 20
232.428735
 30
0.0
 10
199.835746
 20
232.787986
 30
0.0
 10
200.125651
 20
233.271193
 30
0.0
 10
200.163018
 20
233.636838
 30
0.0
 10
200.181836
 20
233.820979
 30
0.0
 11
200.181836
 21
233.820979
 31
0.0
 11
200.085959
 21
234.362171
 31
0.0
 11
199.815083
 21
234.831342
 31
0.0
 11
199.394336
 21
235.184969
 31
0.0
 11
198.877712
 21
235.372534
 31
0.0
 11
198.335959
 21
235.372534
 31
0.0
 11
197.819336
 21
235.184969
 31
0.0
 11
197.398588
 21
234.831342
 31
0.0
 11
197.127712
 21
234.362171
 31
0.0
 11
197.031836
 21
233.820979
 31
0.0
 11
197.127712
 21
233.279787
 31
0.0
 11
197.398588
 21
232.810616
 31
0.0
 11
197.819336
 21
232.456989
 31
0.0
 11
198.335959
 21
232.269424
 31
0.0
 11
198.877712
 21
232.269424
 31
0.0
 11
199.394336
 21
232.456989
 31
0.0
 11
199.815083
 21
232.810616
 31
0.0
 11
200.085959
 21
233.279787
 31
0.0
 11
200.181836
 21
233.820979
 31
0.0
  0
LWPOLYLINE
  5
12c
100
AcDbEntity
  8
0
 62
7
100
AcDbPolyline
 90
1
 70
1
 10
200.181836
 20
233.820979
 30
0.0
  0
SPLINE
  5
12d
100
AcDbEntity
  8
0
 62
7
100
AcDbSpline
 70
0
 71
3
 72
25
 73
21
 74
19
 40
0.000000
 40
0.000000
 40
0.000000
 40
0.000000
 40
0.549618
 40
1.091371
 40
1.640990
 40
2.190608
 40
2.732361
 40
3.281979
 40
3.831598
 40
4.373350
 40
4.922969
 40
5.472587
 40
6.014340
 40
6.563958
 40
7.113577
 40
7.655329
 40
8.204948
 40
8.754566
 40
9.296319
 40
9.845937
 40
9.845937
 40
9.845937
 40
9.845937
 10
331.768836
 20
322.630728
 30
0.0
 10
331.750018
 20
322.814868
 30
0.0
 10
331.712651
 20
323.180514
 30
0.0
 10
331.422746
 20
323.663721
 30
0.0
 10
330.998276
 20
324.022972
 30
0.0
 10
330.472650
 20
324.213507
 30
0.0
 10
329.914901
 20
324.213507
 30
0.0
 10
329.390011
 20
324.022972
 30
0.0
 10
328.962602
 20
323.663721
 30
0.0
 10
328.683618
 20
323.180514
 30
0.0
 10
328.586211
 20
322.630728
 30
0.0
 10
328.683618
 20
322.080941
 30
0.0
 10
328.962602
 20
321.597735
 30
0.0
 10
329.390011
 20
321.238484
 30
0.0
 10
329.914901
 20
321.047949
 30
0.0
 10
330.472650
 20
321.047949
 30
0.0
 10
330.998276
 20
321.238484
 30
0.0
 10
331.422746
 20
321.597735
 30
0.0
 10
331.712651
 20
322.080941
 30
0.0
 10
331.750018
 20
322.446587
 30
0.0
 10
331.768836
 20
322.630728
 30
0.0
 11
331.768836
 21
322.630728
 31
0.0
 11
331.672959
 21
323.171919
 31
0.0
 11
331.402083
 21
323.641091
 31
0.0
 11
330.981336
 21
323.994718
 31
0.0
 11
330.464712
 21
324.182282
 31
0.0
 11
329.922959
 21
324.182282
 31
0.0
 11
329.406336
 21
323.994718
 31
0.0
 11
328.985588
 21
323.641091
 31
0.0
 11
328.714712
 21
323.171919
 31
0.0
 11
328.618836
 21
322.630728
 31
0.0
 11
328.714712
 21
322.089536
 31
0.0
 11
328.985588
 21
321.620365
 31
0.0
 11
329.406336
 21
321.266738
 31
0.0
 11
329.922959
 21
321.079173
 31
0.0
 11
330.464712
 21
321.079173
 31
0.0
 11
330.981336
 21
321.266738
 31
0.0
 11
331.402083
 21
321.620365
 31
0.0
 11
331.672959
 21
322.089536
 31
0.0
 11
331.768836
 21
322.630728
 31
0.0
  0
LWPOLYLINE
  5
12e
100
AcDbEntity
  8
0
 62
7
100
AcDbPolyline
 90
1
 70
1
 10
331.768836
 20
322.630728
 30
0.0
  0
SPLINE
  5
12f
100
AcDbEntity
  8
0
 62
7
100
AcDbSpline
 70
0
 71
3
 72
25
 73
21
 74
19
 40
0.000000
 40
0.000000
 40
0.000000
 40
0.000000
 40
0.549618
 40
1.091371
 40
1.640990
 40
2.190608
 40
2.732361
 40
3.281979
 40
3.831598
 40
4.373350
 40
4.922969
 40
5.472587
 40
6.014340
 40
6.563958
 40
7.113577
 40
7.655329
 40
8.204948
 40
8.754566
 40
9.296319
 40
9.845937
 40
9.845937
 40
9.845937
 40
9.845937
 10
331.768836
 20
127.511230
 30
0.0
 10
331.750018
 20
127.695371
 30
0.0
 10
331.712651
 20
128.061017
 30
0.0
 10
331.422746
 20
128.544223
 30
0.0
 10
330.998276
 20
128.903475
 30
0.0
 10
330.472650
 20
129.094009
 30
0.0
 10
329.914901
 20
129.094009
 30
0.0
 10
329.390011
 20
128.903475
 30
0.0
 10
328.962602
 20
128.544223
 30
0.0
 10
328.683618
 20
128.061017
 30
0.0
 10
328.586211
 20
127.511230
 30
0.0
 10
328.683618
 20
126.961444
 30
0.0
 10
328.962602
 20
126.478237
 30
0.0
 10
329.390011
 20
126.118986
 30
0.0
 10
329.914901
 20
125.928451
 30
0.0
 10
330.472650
 20
125.928451
 30
0.0
 10
330.998276
 20
126.118986
 30
0.0
 10
331.422746
 20
126.478237
 30
0.0
 10
331.712651
 20
126.961444
 30
0.0
 10
331.750018
 20
127.327090
 30
0.0
 10
331.768836
 20
127.511230
 30
0.0
 11
331.768836
 21
127.511230
 31
0.0
 11
331.672959
 21
128.052422
 31
0.0
 11
331.402083
 21
128.521593
 31
0.0
 11
330.981336
 21
128.875220
 31
0.0
 11
330.464712
 21
129.062785
 31
0.0
 11
329.922959
 21
129.062785
 31
0.0
 11
329.406336
 21
128.875220
 31
0.0
 11
328.985588
 21
128.521593
 31
0.0
 11
328.714712
 21
128.052422
 31
0.0
 11
328.618836
 21
127.511230
 31
0.0
 11
328.714712
 21
126.970039
 31
0.0
 11
328.985588
 21
126.500867
 31
0.0
 11
329.406336
 21
126.147240
 31
0.0
 11
329.922959
 21
125.959676
 31
0.0
 11
330.464712
 21
125.959676
 31
0.0
 11
330.981336
 21
126.147240
 31
0.0
 11
331.402083
 21
126.500867
 31
0.0
 11
331.672959
 21
126.970039
 31
0.0
 11
331.768836
 21
127.511230
 31
0.0
  0
LWPOLYLINE
  5
130
100
AcDbEntity
  8
0
 62
7
100
AcDbPolyline
 90
1
 70
1
 10
331.768836
 20
127.511230
 30
0.0
  0
SPLINE
  5
131
100
AcDbEntity
  8
0
 62
7
100
AcDbSpline
 70
0
 71
3
 72
25
 73
21
 74
19
 40
0.000000
 40
0.000000
 40
0.000000
 40
0.000000
 40
0.355943
 40
0.706793
 40
1.062736
 40
1.418679
 40
1.769529
 40
2.125472
 40
2.481415
 40
2.832265
 40
3.188208
 40
3.544152
 40
3.895001
 40
4.250944
 40
4.606888
 40
4.957737
 40
5.313680
 40
5.669624
 40
6.020473
 40
6.376416
 40
6.376416
 40
6.376416
 40
6.376416
 10
74.606836
 20
110.011230
 30
0.0
 10
74.594649
 20
110.130483
 30
0.0
 10
74.570449
 20
110.367282
 30
0.0
 10
74.382701
 20
110.680216
 30
0.0
 10
74.107806
 20
110.912874
 30
0.0
 10
73.767401
 20
111.036268
 30
0.0
 10
73.406192
 20
111.036268
 30
0.0
 10
73.066264
 20
110.912874
 30
0.0
 10
72.789465
 20
110.680216
 30
0.0
 10
72.608790
 20
110.367282
 30
0.0
 10
72.545707
 20
110.011230
 30
0.0
 10
72.608790
 20
109.655178
 30
0.0
 10
72.789465
 20
109.342245
 30
0.0
 10
73.066264
 20
109.109587
 30
0.0
 10
73.406192
 20
108.986192
 30
0.0
 10
73.767401
 20
108.986192
 30
0.0
 10
74.107807
 20
109.109587
 30
0.0
 10
74.382701
 20
109.342245
 30
0.0
 10
74.570449
 20
109.655178
 30
0.0
 10
74.594649
 20
109.891977
 30
0.0
 10
74.606836
 20
110.011230
 30
0.0
 11
74.606836
 21
110.011230
 31
0.0
 11
74.544744
 21
110.361716
 31
0.0
 11
74.369320
 21
110.665561
 31
0.0
 11
74.096836
 21
110.894576
 31
0.0
 11
73.762260
 21
111.016047
 31
0.0
 11
73.411411
 21
111.016047
 31
0.0
 11
73.076836
 21
110.894576
 31
0.0
 11
72.804352
 21
110.665561
 31
0.0
 11
72.628927
 21
110.361716
 31
0.0
 11
72.566836
 21
110.011230
 31
0.0
 11
72.628927
 21
109.660744
 31
0.0
 11
72.804352
 21
109.356900
 31
0.0
 11
73.076836
 21
109.127884
 31
0.0
 11
73.411411
 21
109.006414
 31
0.0
 11
73.762260
 21
109.006414
 31
0.0
 11
74.096836
 21
109.127884
 31
0.0
 11
74.369320
 21
109.356900
 31
0.0
 11
74.544744
 21
109.660744
 31
0.0
 11
74.606836
 21
110.011230
 31
0.0
  0
LWPOLYLINE
  5
132
100
AcDbEntity
  8
0
 62
7
100
AcDbPolyline
 90
1
 70
1
 10
74.606836
 20
110.011230
 30
0.0
  0
SPLINE
  5
133
100
AcDbEntity
  8
0
 62
7
100
AcDbSpline
 70
0
 71
3
 72
25
 73
21
 74
19
 40
0.000000
 40
0.000000
 40
0.000000
 40
0.000000
 40
0.549618
 40
1.091371
 40
1.640990
 40
2.190608
 40
2.732361
 40
3.281979
 40
3.831598
 40
4.373350
 40
4.922969
 40
5.472587
 40
6.014340
 40
6.563958
 40
7.113577
 40
7.655329
 40
8.204948
 40
8.754566
 40
9.296319
 40
9.845937
 40
9.845937
 40
9.845937
 40
9.845937
 10
331.768836
 20
233.820979
 30
0.0
 10
331.750018
 20
234.005120
 30
0.0
 10
331.712651
 20
234.370765
 30
0.0
 10
331.422746
 20
234.853972
 30
0.0
 10
330.998276
 20
235.213223
 30
0.0
 10
330.472650
 20
235.403758
 30
0.0
 10
329.914901
 20
235.403758
 30
0.0
 10
329.390011
 20
235.213223
 30
0.0
 10
328.962602
 20
234.853972
 30
0.0
 10
328.683618
 20
234.370765
 30
0.0
 10
328.586211
 20
233.820979
 30
0.0
 10
328.683618
 20
233.271193
 30
0.0
 10
328.962602
 20
232.787986
 30
0.0
 10
329.390011
 20
232.428735
 30
0.0
 10
329.914901
 20
232.238200
 30
0.0
 10
330.472650
 20
232.238200
 30
0.0
 10
330.998276
 20
232.428735
 30
0.0
 10
331.422746
 20
232.787986
 30
0.0
 10
331.712651
 20
233.271193
 30
0.0
 10
331.750018
 20
233.636838
 30
0.0
 10
331.768836
 20
233.820979
 30
0.0
 11
331.768836
 21
233.820979
 31
0.0
 11
331.672959
 21
234.362170
 31
0.0
 11
331.402083
 21
234.831342
 31
0.0
 11
330.981336
 21
235.184969
 31
0.0
 11
330.464712
 21
235.372533
 31
0.0
 11
329.922959
 21
235.372533
 31
0.0
 11
329.406336
 21
235.184969
 31
0.0
 11
328.985588
 21
234.831342
 31
0.0
 11
328.714712
 21
234.362170
 31
0.0
 11
328.618836
 21
233.820979
 31
0.0
 11
328.714712
 21
233.279788
 31
0.0
 11
328.985588
 21
232.810616
 31
0.0
 11
329.406336
 21
232.456989
 31
0.0
 11
329.922959
 21
232.269425
 31
0.0
 11
330.464712
 21
232.269425
 31
0.0
 11
330.981336
 21
232.456989
 31
0.0
 11
331.402083
 21
232.810616
 31
0.0
 11
331.672959
 21
233.279788
 31
0.0
 11
331.768836
 21
233.820979
 31
0.0
  0
LWPOLYLINE
  5
134
100
AcDbEntity
  8
0
 62
7
100
AcDbPolyline
 90
1
 70
1
 10
331.768836
 20
233.820979
 30
0.0
  0
SPLINE
  5
135
100
AcDbEntity
  8
0
 62
7
100
AcDbSpline
 70
0
 71
3
 72
25
 73
21
 74
19
 40
0.000000
 40
0.000000
 40
0.000000
 40
0.000000
 40
0.549762
 40
1.091652
 40
1.641413
 40
2.191175
 40
2.733065
 40
3.282827
 40
3.832589
 40
4.374479
 40
4.924240
 40
5.474002
 40
6.015892
 40
6.565654
 40
7.115415
 40
7.657305
 40
8.207067
 40
8.756829
 40
9.298719
 40
9.848480
 40
9.848480
 40
9.848480
 40
9.848480
 10
75.161836
 20
322.630728
 30
0.0
 10
75.143083
 20
322.814925
 30
0.0
 10
75.105846
 20
323.180681
 30
0.0
 10
74.815993
 20
323.664098
 30
0.0
 10
74.391475
 20
324.023522
 30
0.0
 10
73.865724
 20
324.214157
 30
0.0
 10
73.307827
 20
324.214157
 30
0.0
 10
72.782810
 20
324.023522
 30
0.0
 10
72.355363
 20
323.664098
 30
0.0
 10
72.076393
 20
323.180681
 30
0.0
 10
71.979325
 20
322.630728
 30
0.0
 10
72.076393
 20
322.080775
 30
0.0
 10
72.355363
 20
321.597358
 30
0.0
 10
72.782810
 20
321.237933
 30
0.0
 10
73.307827
 20
321.047299
 30
0.0
 10
73.865724
 20
321.047299
 30
0.0
 10
74.391475
 20
321.237933
 30
0.0
 10
74.815993
 20
321.597358
 30
0.0
 10
75.105846
 20
322.080775
 30
0.0
 10
75.143083
 20
322.446531
 30
0.0
 10
75.161836
 20
322.630728
 30
0.0
 11
75.161836
 21
322.630728
 31
0.0
 11
75.066131
 21
323.172095
 31
0.0
 11
74.795314
 21
323.641460
 31
0.0
 11
74.374522
 21
323.995256
 31
0.0
 11
73.857781
 21
324.182916
 31
0.0
 11
73.315891
 21
324.182916
 31
0.0
 11
72.799149
 21
323.995256
 31
0.0
 11
72.378357
 21
323.641460
 31
0.0
 11
72.107540
 21
323.172095
 31
0.0
 11
72.011836
 21
322.630728
 31
0.0
 11
72.107540
 21
322.089360
 31
0.0
 11
72.378357
 21
321.619996
 31
0.0
 11
72.799149
 21
321.266200
 31
0.0
 11
73.315891
 21
321.078540
 31
0.0
 11
73.857781
 21
321.078540
 31
0.0
 11
74.374522
 21
321.266200
 31
0.0
 11
74.795314
 21
321.619996
 31
0.0
 11
75.066131
 21
322.089360
 31
0.0
 11
75.161836
 21
322.630728
 31
0.0
  0
LWPOLYLINE
  5
136
100
AcDbEntity
  8
0
 62
7
100
AcDbPolyline
 90
1
 70
1
 10
75.161836
 20
322.630728
 30
0.0
  0
SPLINE
  5
137
100
AcDbEntity
  8
0
 62
7
100
AcDbSpline
 70
0
 71
3
 72
25
 73
21
 74
19
 40
0.000000
 40
0.000000
 40
0.000000
 40
0.000000
 40
0.549618
 40
1.091371
 40
1.640990
 40
2.190608
 40
2.732361
 40
3.281979
 40
3.831598
 40
4.373350
 40
4.922969
 40
5.472587
 40
6.014340
 40
6.563958
 40
7.113577
 40
7.655329
 40
8.204948
 40
8.754566
 40
9.296319
 40
9.845937
 40
9.845937
 40
9.845937
 40
9.845937
 10
331.768836
 20
216.320979
 30
0.0
 10
331.750018
 20
216.505120
 30
0.0
 10
331.712651
 20
216.870765
 30
0.0
 10
331.422746
 20
217.353972
 30
0.0
 10
330.998276
 20
217.713223
 30
0.0
 10
330.472650
 20
217.903758
 30
0.0
 10
329.914901
 20
217.903758
 30
0.0
 10
329.390011
 20
217.713223
 30
0.0
 10
328.962602
 20
217.353972
 30
0.0
 10
328.683618
 20
216.870765
 30
0.0
 10
328.586211
 20
216.320979
 30
0.0
 10
328.683618
 20
215.771193
 30
0.0
 10
328.962602
 20
215.287986
 30
0.0
 10
329.390011
 20
214.928735
 30
0.0
 10
329.914901
 20
214.738200
 30
0.0
 10
330.472650
 20
214.738200
 30
0.0
 10
330.998276
 20
214.928735
 30
0.0
 10
331.422746
 20
215.287986
 30
0.0
 10
331.712651
 20
215.771193
 30
0.0
 10
331.750018
 20
216.136839
 30
0.0
 10
331.768836
 20
216.320979
 30
0.0
 11
331.768836
 21
216.320979
 31
0.0
 11
331.672959
 21
216.862171
 31
0.0
 11
331.402083
 21
217.331342
 31
0.0
 11
330.981336
 21
217.684969
 31
0.0
 11
330.464712
 21
217.872534
 31
0.0
 11
329.922959
 21
217.872534
 31
0.0
 11
329.406336
 21
217.684969
 31
0.0
 11
328.985588
 21
217.331342
 31
0.0
 11
328.714712
 21
216.862171
 31
0.0
 11
328.618836
 21
216.320979
 31
0.0
 11
328.714712
 21
215.779788
 31
0.0
 11
328.985588
 21
215.310616
 31
0.0
 11
329.406336
 21
214.956989
 31
0.0
 11
329.922959
 21
214.769425
 31
0.0
 11
330.464712
 21
214.769425
 31
0.0
 11
330.981336
 21
214.956989
 31
0.0
 11
331.402083
 21
215.310616
 31
0.0
 11
331.672959
 21
215.779788
 31
0.0
 11
331.768836
 21
216.320979
 31
0.0
  0
LWPOLYLINE
  5
138
100
AcDbEntity
  8
0
 62
7
100
AcDbPolyline
 90
1
 70
1
 10
331.768836
 20
216.320979
 30
0.0
  0
SPLINE
  5
139
100
AcDbEntity
  8
0
 62
7
100
AcDbSpline
 70
0
 71
3
 72
25
 73
21
 74
19
 40
0.000000
 40
0.000000
 40
0.000000
 40
0.000000
 40
0.549619
 40
1.091371
 40
1.640990
 40
2.190608
 40
2.732361
 40
3.281979
 40
3.831598
 40
4.373351
 40
4.922969
 40
5.472588
 40
6.014340
 40
6.563959
 40
7.113577
 40
7.655330
 40
8.204948
 40
8.754567
 40
9.296319
 40
9.845938
 40
9.845938
 40
9.845938
 40
9.845938
 10
200.178836
 20
127.511230
 30
0.0
 10
200.160018
 20
127.695371
 30
0.0
 10
200.122651
 20
128.061017
 30
0.0
 10
199.832746
 20
128.544223
 30
0.0
 10
199.408276
 20
128.903475
 30
0.0
 10
198.882650
 20
129.094010
 30
0.0
 10
198.324901
 20
129.094010
 30
0.0
 10
197.800011
 20
128.903475
 30
0.0
 10
197.372601
 20
128.544223
 30
0.0
 10
197.093618
 20
128.061017
 30
0.0
 10
196.996211
 20
127.511230
 30
0.0
 10
197.093618
 20
126.961444
 30
0.0
 10
197.372602
 20
126.478237
 30
0.0
 10
197.800011
 20
126.118986
 30
0.0
 10
198.324901
 20
125.928451
 30
0.0
 10
198.882650
 20
125.928451
 30
0.0
 10
199.408276
 20
126.118986
 30
0.0
 10
199.832746
 20
126.478237
 30
0.0
 10
200.122651
 20
126.961444
 30
0.0
 10
200.160018
 20
127.327090
 30
0.0
 10
200.178836
 20
127.511230
 30
0.0
 11
200.178836
 21
127.511230
 31
0.0
 11
200.082959
 21
128.052422
 31
0.0
 11
199.812083
 21
128.521593
 31
0.0
 11
199.391336
 21
128.875220
 31
0.0
 11
198.874712
 21
129.062785
 31
0.0
 11
198.332959
 21
129.062785
 31
0.0
 11
197.816336
 21
128.875220
 31
0.0
 11
197.395588
 21
128.521593
 31
0.0
 11
197.124712
 21
128.052422
 31
0.0
 11
197.028836
 21
127.511230
 31
0.0
 11
197.124712
 21
126.970039
 31
0.0
 11
197.395588
 21
126.500867
 31
0.0
 11
197.816336
 21
126.147240
 31
0.0
 11
198.332959
 21
125.959676
 31
0.0
 11
198.874712
 21
125.959676
 31
0.0
 11
199.391336
 21
126.147240
 31
0.0
 11
199.812083
 21
126.500867
 31
0.0
 11
200.082959
 21
126.970039
 31
0.0
 11
200.178836
 21
127.511230
 31
0.0
  0
LWPOLYLINE
  5
13a
100
AcDbEntity
  8
0
 62
7
100
AcDbPolyline
 90
1
 70
1
 10
200.178836
 20
127.511230
 30
0.0
  0
SPLINE
  5
13b
100
AcDbEntity
  8
0
 62
7
100
AcDbSpline
 70
0
 71
3
 72
25
 73
21
 74
19
 40
0.000000
 40
0.000000
 40
0.000000
 40
0.000000
 40
0.549762
 40
1.091652
 40
1.641413
 40
2.191175
 40
2.733065
 40
3.282827
 40
3.832589
 40
4.374479
 40
4.924240
 40
5.474002
 40
6.015892
 40
6.565654
 40
7.115415
 40
7.657305
 40
8.207067
 40
8.756829
 40
9.298719
 40
9.848480
 40
9.848480
 40
9.848480
 40
9.848480
 10
75.161836
 20
127.511230
 30
0.0
 10
75.143083
 20
127.695427
 30
0.0
 10
75.105846
 20
128.061183
 30
0.0
 10
74.815993
 20
128.544600
 30
0.0
 10
74.391475
 20
128.904025
 30
0.0
 10
73.865724
 20
129.094659
 30
0.0
 10
73.307827
 20
129.094659
 30
0.0
 10
72.782810
 20
128.904025
 30
0.0
 10
72.355363
 20
128.544600
 30
0.0
 10
72.076393
 20
128.061183
 30
0.0
 10
71.979325
 20
127.511230
 30
0.0
 10
72.076393
 20
126.961278
 30
0.0
 10
72.355363
 20
126.477861
 30
0.0
 10
72.782810
 20
126.118436
 30
0.0
 10
73.307827
 20
125.927802
 30
0.0
 10
73.865724
 20
125.927802
 30
0.0
 10
74.391475
 20
126.118436
 30
0.0
 10
74.815993
 20
126.477861
 30
0.0
 10
75.105846
 20
126.961278
 30
0.0
 10
75.143083
 20
127.327034
 30
0.0
 10
75.161836
 20
127.511230
 30
0.0
 11
75.161836
 21
127.511230
 31
0.0
 11
75.066131
 21
128.052598
 31
0.0
 11
74.795314
 21
128.521962
 31
0.0
 11
74.374522
 21
128.875758
 31
0.0
 11
73.857781
 21
129.063418
 31
0.0
 11
73.315891
 21
129.063418
 31
0.0
 11
72.799149
 21
128.875758
 31
0.0
 11
72.378357
 21
128.521962
 31
0.0
 11
72.107540
 21
128.052598
 31
0.0
 11
72.011836
 21
127.511230
 31
0.0
 11
72.107540
 21
126.969863
 31
0.0
 11
72.378357
 21
126.500498
 31
0.0
 11
72.799149
 21
126.146702
 31
0.0
 11
73.315891
 21
125.959042
 31
0.0
 11
73.857781
 21
125.959042
 31
0.0
 11
74.374522
 21
126.146702
 31
0.0
 11
74.795314
 21
126.500498
 31
0.0
 11
75.066131
 21
126.969863
 31
0.0
 11
75.161836
 21
127.511230
 31
0.0
  0
LWPOLYLINE
  5
13c
100
AcDbEntity
  8
0
 62
7
100
AcDbPolyline
 90
1
 70
1
 10
75.161836
 20
127.511230
 30
0.0
  0
SPLINE
  5
13d
100
AcDbEntity
  8
0
 62
7
100
AcDbSpline
 70
0
 71
3
 72
25
 73
21
 74
19
 40
0.000000
 40
0.000000
 40
0.000000
 40
0.000000
 40
0.549619
 40
1.091371
 40
1.640990
 40
2.190608
 40
2.732361
 40
3.281979
 40
3.831598
 40
4.373351
 40
4.922969
 40
5.472588
 40
6.014340
 40
6.563959
 40
7.113577
 40
7.655330
 40
8.204948
 40
8.754567
 40
9.296320
 40
9.845938
 40
9.845938
 40
9.845938
 40
9.845938
 10
200.181836
 20
322.630728
 30
0.0
 10
200.163018
 20
322.814868
 30
0.0
 10
200.125651
 20
323.180514
 30
0.0
 10
199.835746
 20
323.663721
 30
0.0
 10
199.411276
 20
324.022972
 30
0.0
 10
198.885650
 20
324.213507
 30
0.0
 10
198.327901
 20
324.213507
 30
0.0
 10
197.803011
 20
324.022972
 30
0.0
 10
197.375602
 20
323.663721
 30
0.0
 10
197.096618
 20
323.180514
 30
0.0
 10
196.999211
 20
322.630728
 30
0.0
 10
197.096618
 20
322.080941
 30
0.0
 10
197.375602
 20
321.597735
 30
0.0
 10
197.803011
 20
321.238483
 30
0.0
 10
198.327901
 20
321.047948
 30
0.0
 10
198.885650
 20
321.047948
 30
0.0
 10
199.411276
 20
321.238483
 30
0.0
 10
199.835746
 20
321.597735
 30
0.0
 10
200.125651
 20
322.080941
 30
0.0
 10
200.163018
 20
322.446587
 30
0.0
 10
200.181836
 20
322.630728
 30
0.0
 11
200.181836
 21
322.630728
 31
0.0
 11
200.085959
 21
323.171919
 31
0.0
 11
199.815083
 21
323.641091
 31
0.0
 11
199.394336
 21
323.994718
 31
0.0
 11
198.877712
 21
324.182282
 31
0.0
 11
198.335959
 21
324.182282
 31
0.0
 11
197.819336
 21
323.994718
 31
0.0
 11
197.398588
 21
323.641091
 31
0.0
 11
197.127712
 21
323.171919
 31
0.0
 11
197.031836
 21
322.630728
 31
0.0
 11
197.127712
 21
322.089536
 31
0.0
 11
197.398588
 21
321.620365
 31
0.0
 11
197.819336
 21
321.266738
 31
0.0
 11
198.335959
 21
321.079173
 31
0.0
 11
198.877712
 21
321.079173
 31
0.0
 11
199.394336
 21
321.266738
 31
0.0
 11
199.815083
 21
321.620365
 31
0.0
 11
200.085959
 21
322.089536
 31
0.0
 11
200.181836
 21
322.630728
 31
0.0
  0
LWPOLYLINE
  5
13e
100
AcDbEntity
  8
0
 62
7
100
AcDbPolyline
 90
1
 70
1
 10
200.181836
 20
322.630728
 30
0.0
  0
SPLINE
  5
13f
100
AcDbEntity
  8
0
 62
7
100
AcDbSpline
 70
0
 71
3
 72
25
 73
21
 74
19
 40
0.000000
 40
0.000000
 40
0.000000
 40
0.000000
 40
0.355943
 40
0.706793
 40
1.062736
 40
1.418679
 40
1.769529
 40
2.125472
 40
2.481415
 40
2.832265
 40
3.188208
 40
3.544152
 40
3.895001
 40
4.250944
 40
4.606888
 40
4.957737
 40
5.313680
 40
5.669624
 40
6.020473
 40
6.376416
 40
6.376416
 40
6.376416
 40
6.376416
 10
199.623836
 20
110.011230
 30
0.0
 10
199.611649
 20
110.130483
 30
0.0
 10
199.587449
 20
110.367282
 30
0.0
 10
199.399701
 20
110.680216
 30
0.0
 10
199.124806
 20
110.912874
 30
0.0
 10
198.784401
 20
111.036268
 30
0.0
 10
198.423192
 20
111.036268
 30
0.0
 10
198.083263
 20
110.912874
 30
0.0
 10
197.806465
 20
110.680216
 30
0.0
 10
197.625790
 20
110.367282
 30
0.0
 10
197.562707
 20
110.011230
 30
0.0
 10
197.625790
 20
109.655178
 30
0.0
 10
197.806465
 20
109.342245
 30
0.0
 10
198.083263
 20
109.109587
 30
0.0
 10
198.423192
 20
108.986192
 30
0.0
 10
198.784401
 20
108.986192
 30
0.0
 10
199.124806
 20
109.109587
 30
0.0
 10
199.399701
 20
109.342245
 30
0.0
 10
199.587449
 20
109.655178
 30
0.0
 10
199.611649
 20
109.891977
 30
0.0
 10
199.623836
 20
110.011230
 30
0.0
 11
199.623836
 21
110.011230
 31
0.0
 11
199.561744
 21
110.361716
 31
0.0
 11
199.386320
 21
110.665561
 31
0.0
 11
199.113836
 21
110.894576
 31
0.0
 11
198.779260
 21
111.016047
 31
0.0
 11
198.428411
 21
111.016047
 31
0.0
 11
198.093836
 21
110.894576
 31
0.0
 11
197.821352
 21
110.665561
 31
0.0
 11
197.645927
 21
110.361716
 31
0.0
 11
197.583836
 21
110.011230
 31
0.0
 11
197.645927
 21
109.660744
 31
0.0
 11
197.821352
 21
109.356900
 31
0.0
 11
198.093836
 21
109.127884
 31
0.0
 11
198.428411
 21
109.006414
 31
0.0
 11
198.779260
 21
109.006414
 31
0.0
 11
199.113836
 21
109.127884
 31
0.0
 11
199.386320
 21
109.356900
 31
0.0
 11
199.561744
 21
109.660744
 31
0.0
 11
199.623836
 21
110.011230
 31
0.0
  0
LWPOLYLINE
  5
140
100
AcDbEntity
  8
0
 62
7
100
AcDbPolyline
 90
1
 70
1
 10
199.623836
 20
110.011230
 30
0.0
  0
SPLINE
  5
141
100
AcDbEntity
  8
0
 62
7
100
AcDbSpline
 70
0
 71
3
 72
25
 73
21
 74
19
 40
0.000000
 40
0.000000
 40
0.000000
 40
0.000000
 40
0.549762
 40
1.091652
 40
1.641413
 40
2.191175
 40
2.733065
 40
3.282827
 40
3.832589
 40
4.374479
 40
4.924240
 40
5.474002
 40
6.015892
 40
6.565654
 40
7.115415
 40
7.657305
 40
8.207067
 40
8.756829
 40
9.298719
 40
9.848480
 40
9.848480
 40
9.848480
 40
9.848480
 10
75.161836
 20
216.320979
 30
0.0
 10
75.143083
 20
216.505176
 30
0.0
 10
75.105846
 20
216.870932
 30
0.0
 10
74.815993
 20
217.354349
 30
0.0
 10
74.391475
 20
217.713774
 30
0.0
 10
73.865724
 20
217.904408
 30
0.0
 10
73.307827
 20
217.904408
 30
0.0
 10
72.782810
 20
217.713774
 30
0.0
 10
72.355363
 20
217.354349
 30
0.0
 10
72.076393
 20
216.870932
 30
0.0
 10
71.979325
 20
216.320979
 30
0.0
 10
72.076393
 20
215.771026
 30
0.0
 10
72.355363
 20
215.287609
 30
0.0
 10
72.782810
 20
214.928184
 30
0.0
 10
73.307827
 20
214.737550
 30
0.0
 10
73.865724
 20
214.737550
 30
0.0
 10
74.391475
 20
214.928184
 30
0.0
 10
74.815993
 20
215.287609
 30
0.0
 10
75.105846
 20
215.771026
 30
0.0
 10
75.143083
 20
216.136782
 30
0.0
 10
75.161836
 20
216.320979
 30
0.0
 11
75.161836
 21
216.320979
 31
0.0
 11
75.066131
 21
216.862346
 31
0.0
 11
74.795314
 21
217.331711
 31
0.0
 11
74.374522
 21
217.685507
 31
0.0
 11
73.857781
 21
217.873167
 31
0.0
 11
73.315891
 21
217.873167
 31
0.0
 11
72.799149
 21
217.685507
 31
0.0
 11
72.378357
 21
217.331711
 31
0.0
 11
72.107540
 21
216.862346
 31
0.0
 11
72.011836
 21
216.320979
 31
0.0
 11
72.107540
 21
215.779612
 31
0.0
 11
72.378357
 21
215.310247
 31
0.0
 11
72.799149
 21
214.956451
 31
0.0
 11
73.315891
 21
214.768791
 31
0.0
 11
73.857781
 21
214.768791
 31
0.0
 11
74.374522
 21
214.956451
 31
0.0
 11
74.795314
 21
215.310247
 31
0.0
 11
75.066131
 21
215.779612
 31
0.0
 11
75.161836
 21
216.320979
 31
0.0
  0
LWPOLYLINE
  5
142
100
AcDbEntity
  8
0
 62
7
100
AcDbPolyline
 90
1
 70
1
 10
75.161836
 20
216.320979
 30
0.0
  0
SPLINE
  5
143
100
AcDbEntity
  8
0
 62
7
100
AcDbSpline
 70
0
 71
3
 72
25
 73
21
 74
19
 40
0.000000
 40
0.000000
 40
0.000000
 40
0.000000
 40
0.355943
 40
0.706793
 40
1.062736
 40
1.418679
 40
1.769529
 40
2.125472
 40
2.481415
 40
2.832265
 40
3.188208
 40
3.544152
 40
3.895001
 40
4.250944
 40
4.606888
 40
4.957737
 40
5.313680
 40
5.669624
 40
6.020473
 40
6.376416
 40
6.376416
 40
6.376416
 40
6.376416
 10
74.606836
 20
21.201482
 30
0.0
 10
74.594649
 20
21.320735
 30
0.0
 10
74.570449
 20
21.557534
 30
0.0
 10
74.382701
 20
21.870467
 30
0.0
 10
74.107806
 20
22.103125
 30
0.0
 10
73.767401
 20
22.226520
 30
0.0
 10
73.406192
 20
22.226520
 30
0.0
 10
73.066264
 20
22.103125
 30
0.0
 10
72.789465
 20
21.870467
 30
0.0
 10
72.608790
 20
21.557534
 30
0.0
 10
72.545707
 20
21.201482
 30
0.0
 10
72.608790
 20
20.845430
 30
0.0
 10
72.789465
 20
20.532496
 30
0.0
 10
73.066264
 20
20.299838
 30
0.0
 10
73.406192
 20
20.176444
 30
0.0
 10
73.767401
 20
20.176444
 30
0.0
 10
74.107807
 20
20.299838
 30
0.0
 10
74.382701
 20
20.532496
 30
0.0
 10
74.570449
 20
20.845430
 30
0.0
 10
74.594649
 20
21.082229
 30
0.0
 10
74.606836
 20
21.201482
 30
0.0
 11
74.606836
 21
21.201482
 31
0.0
 11
74.544744
 21
21.551968
 31
0.0
 11
74.369320
 21
21.855812
 31
0.0
 11
74.096836
 21
22.084827
 31
0.0
 11
73.762260
 21
22.206298
 31
0.0
 11
73.411411
 21
22.206298
 31
0.0
 11
73.076836
 21
22.084827
 31
0.0
 11
72.804352
 21
21.855812
 31
0.0
 11
72.628927
 21
21.551968
 31
0.0
 11
72.566836
 21
21.201482
 31
0.0
 11
72.628927
 21
20.850996
 31
0.0
 11
72.804352
 21
20.547151
 31
0.0
 11
73.076836
 21
20.318136
 31
0.0
 11
73.411411
 21
20.196665
 31
0.0
 11
73.762260
 21
20.196665
 31
0.0
 11
74.096836
 21
20.318136
 31
0.0
 11
74.369320
 21
20.547151
 31
0.0
 11
74.544744
 21
20.850996
 31
0.0
 11
74.606836
 21
21.201482
 31
0.0
  0
LWPOLYLINE
  5
144
100
AcDbEntity
  8
0
 62
7
100
AcDbPolyline
 90
1
 70
1
 10
74.606836
 20
21.201482
 30
0.0
  0
SPLINE
  5
145
100
AcDbEntity
  8
0
 62
7
100
AcDbSpline
 70
0
 71
3
 72
25
 73
21
 74
19
 40
0.000000
 40
0.000000
 40
0.000000
 40
0.000000
 40
0.355943
 40
0.706793
 40
1.062736
 40
1.418679
 40
1.769529
 40
2.125472
 40
2.481415
 40
2.832265
 40
3.188208
 40
3.544152
 40
3.895001
 40
4.250944
 40
4.606888
 40
4.957737
 40
5.313680
 40
5.669624
 40
6.020473
 40
6.376416
 40
6.376416
 40
6.376416
 40
6.376416
 10
331.213836
 20
21.201482
 30
0.0
 10
331.201649
 20
21.320735
 30
0.0
 10
331.177449
 20
21.557534
 30
0.0
 10
330.989701
 20
21.870467
 30
0.0
 10
330.714807
 20
22.103125
 30
0.0
 10
330.374401
 20
22.226520
 30
0.0
 10
330.013192
 20
22.226520
 30
0.0
 10
329.673264
 20
22.103125
 30
0.0
 10
329.396465
 20
21.870467
 30
0.0
 10
329.215790
 20
21.557534
 30
0.0
 10
329.152707
 20
21.201482
 30
0.0
 10
329.215790
 20
20.845430
 30
0.0
 10
329.396465
 20
20.532496
 30
0.0
 10
329.673264
 20
20.299838
 30
0.0
 10
330.013192
 20
20.176444
 30
0.0
 10
330.374401
 20
20.176444
 30
0.0
 10
330.714807
 20
20.299838
 30
0.0
 10
330.989701
 20
20.532496
 30
0.0
 10
331.177449
 20
20.845430
 30
0.0
 10
331.201649
 20
21.082229
 30
0.0
 10
331.213836
 20
21.201482
 30
0.0
 11
331.213836
 21
21.201482
 31
0.0
 11
331.151744
 21
21.551968
 31
0.0
 11
330.976320
 21
21.855812
 31
0.0
 11
330.703836
 21
22.084827
 31
0.0
 11
330.369260
 21
22.206298
 31
0.0
 11
330.018411
 21
22.206298
 31
0.0
 11
329.683836
 21
22.084827
 31
0.0
 11
329.411352
 21
21.855812
 31
0.0
 11
329.235927
 21
21.551968
 31
0.0
 11
329.173836
 21
21.201482
 31
0.0
 11
329.235927
 21
20.850996
 31
0.0
 11
329.411352
 21
20.547151
 31
0.0
 11
329.683836
 21
20.318136
 31
0.0
 11
330.018411
 21
20.196665
 31
0.0
 11
330.369260
 21
20.196665
 31
0.0
 11
330.703836
 21
20.318136
 31
0.0
 11
330.976320
 21
20.547151
 31
0.0
 11
331.151744
 21
20.850996
 31
0.0
 11
331.213836
 21
21.201482
 31
0.0
  0
LWPOLYLINE
  5
146
100
AcDbEntity
  8
0
 62
7
100
AcDbPolyline
 90
1
 70
1
 10
331.213836
 20
21.201482
 30
0.0
  0
LWPOLYLINE
  5
147
100
AcDbEntity
  8
0
 62
7
100
AcDbPolyline
 90
1
 70
1
 10
331.213836
 20
110.011230
 30
0.0
  0
SPLINE
  5
148
100
AcDbEntity
  8
0
 62
7
100
AcDbSpline
 70
0
 71
3
 72
25
 73
21
 74
19
 40
0.000000
 40
0.000000
 40
0.000000
 40
0.000000
 40
0.355943
 40
0.706793
 40
1.062736
 40
1.418679
 40
1.769529
 40
2.125472
 40
2.481415
 40
2.832265
 40
3.188208
 40
3.544152
 40
3.895001
 40
4.250944
 40
4.606888
 40
4.957737
 40
5.313680
 40
5.669624
 40
6.020473
 40
6.376416
 40
6.376416
 40
6.376416
 40
6.376416
 10
331.213836
 20
110.011230
 30
0.0
 10
331.201649
 20
110.130483
 30
0.0
 10
331.177449
 20
110.367282
 30
0.0
 10
330.989701
 20
110.680216
 30
0.0
 10
330.714807
 20
110.912874
 30
0.0
 10
330.374401
 20
111.036268
 30
0.0
 10
330.013192
 20
111.036268
 30
0.0
 10
329.673264
 20
110.912874
 30
0.0
 10
329.396465
 20
110.680216
 30
0.0
 10
329.215790
 20
110.367282
 30
0.0
 10
329.152707
 20
110.011230
 30
0.0
 10
329.215790
 20
109.655178
 30
0.0
 10
329.396465
 20
109.342245
 30
0.0
 10
329.673264
 20
109.109587
 30
0.0
 10
330.013192
 20
108.986192
 30
0.0
 10
330.374401
 20
108.986192
 30
0.0
 10
330.714807
 20
109.109587
 30
0.0
 10
330.989701
 20
109.342245
 30
0.0
 10
331.177449
 20
109.655178
 30
0.0
 10
331.201649
 20
109.891977
 30
0.0
 10
331.213836
 20
110.011230
 30
0.0
 11
331.213836
 21
110.011230
 31
0.0
 11
331.151744
 21
110.361716
 31
0.0
 11
330.976320
 21
110.665561
 31
0.0
 11
330.703836
 21
110.894576
 31
0.0
 11
330.369260
 21
111.016047
 31
0.0
 11
330.018411
 21
111.016047
 31
0.0
 11
329.683836
 21
110.894576
 31
0.0
 11
329.411352
 21
110.665561
 31
0.0
 11
329.235927
 21
110.361716
 31
0.0
 11
329.173836
 21
110.011230
 31
0.0
 11
329.235927
 21
109.660744
 31
0.0
 11
329.411352
 21
109.356900
 31
0.0
 11
329.683836
 21
109.127884
 31
0.0
 11
330.018411
 21
109.006414
 31
0.0
 11
330.369260
 21
109.006414
 31
0.0
 11
330.703836
 21
109.127884
 31
0.0
 11
330.976320
 21
109.356900
 31
0.0
 11
331.151744
 21
109.660744
 31
0.0
 11
331.213836
 21
110.011230
 31
0.0
  0
LWPOLYLINE
  5
149
100
AcDbEntity
  8
0
 62
7
100
AcDbPolyline
 90
2
 70
0
 10
61.586836
 20
223.820979
 30
0.0
 10
342.193836
 20
223.820979
 30
0.0
  0
SPLINE
  5
14a
100
AcDbEntity
  8
0
 62
7
100
AcDbSpline
 70
0
 71
3
 72
13
 73
9
 74
7
 40
0.000000
 40
0.000000
 40
0.000000
 40
0.000000
 40
1.570649
 40
3.128301
 40
4.698950
 40
6.269600
 40
7.827251
 40
9.397901
 40
9.397901
 40
9.397901
 40
9.397901
 10
342.193836
 20
223.820979
 30
0.0
 10
342.718915
 20
223.860976
 30
0.0
 10
343.764729
 20
223.940640
 30
0.0
 10
345.227776
 20
224.570191
 30
0.0
 10
346.486823
 20
225.527991
 30
0.0
 10
347.444623
 20
226.787039
 30
0.0
 10
348.074174
 20
228.250086
 30
0.0
 10
348.153838
 20
229.295900
 30
0.0
 10
348.193836
 20
229.820979
 30
0.0
 11
342.193836
 21
223.820979
 31
0.0
 11
343.750975
 21
224.026542
 31
0.0
 11
345.190057
 21
224.622629
 31
0.0
 11
346.436476
 21
225.578338
 31
0.0
 11
347.392185
 21
226.824757
 31
0.0
 11
347.988273
 21
228.263840
 31
0.0
 11
348.193836
 21
229.820979
 31
0.0
  0
LWPOLYLINE
  5
14b
100
AcDbEntity
  8
0
 62
7
100
AcDbPolyline
 90
2
 70
0
 10
348.193836
 20
229.820979
 30
0.0
 10
348.193836
 20
320.130728
 30
0.0
  0
SPLINE
  5
14c
100
AcDbEntity
  8
0
 62
7
100
AcDbSpline
 70
0
 71
3
 72
13
 73
9
 74
7
 40
0.000000
 40
0.000000
 40
0.000000
 40
0.000000
 40
1.570649
 40
3.128301
 40
4.698950
 40
6.269600
 40
7.827251
 40
9.397900
 40
9.397900
 40
9.397900
 40
9.397900
 10
348.193836
 20
320.130728
 30
0.0
 10
348.153838
 20
320.655807
 30
0.0
 10
348.074174
 20
321.701621
 30
0.0
 10
347.444623
 20
323.164668
 30
0.0
 10
346.486823
 20
324.423715
 30
0.0
 10
345.227776
 20
325.381515
 30
0.0
 10
343.764729
 20
326.011066
 30
0.0
 10
342.718915
 20
326.090730
 30
0.0
 10
342.193836
 20
326.130728
 30
0.0
 11
348.193836
 21
320.130728
 31
0.0
 11
347.988273
 21
321.687867
 31
0.0
 11
347.392185
 21
323.126950
 31
0.0
 11
346.436476
 21
324.373368
 31
0.0
 11
345.190057
 21
325.329077
 31
0.0
 11
343.750975
 21
325.925165
 31
0.0
 11
342.193836
 21
326.130728
 31
0.0
  0
LWPOLYLINE
  5
14d
100
AcDbEntity
  8
0
 62
7
100
AcDbPolyline
 90
2
 70
0
 10
342.193836
 20
326.130728
 30
0.0
 10
61.586836
 20
326.130728
 30
0.0
  0
SPLINE
  5
14e
100
AcDbEntity
  8
0
 62
7
100
AcDbSpline
 70
0
 71
3
 72
22
 73
18
 74
16
 40
0.000000
 40
0.000000
 40
0.000000
 40
0.000000
 40
1.570649
 40
3.128301
 40
4.698950
 40
6.269600
 40
7.827251
 40
9.397900
 40
32.811539
 40
76.294011
 40
99.707649
 40
101.278298
 40
102.835950
 40
104.406599
 40
105.977249
 40
107.534900
 40
109.105550
 40
109.105550
 40
109.105550
 40
109.105550
 10
61.586836
 20
326.130728
 30
0.0
 10
61.061758
 20
326.090730
 30
0.0
 10
60.015948
 20
326.011067
 30
0.0
 10
58.552875
 20
325.381514
 30
0.0
 10
57.293926
 20
324.423718
 30
0.0
 10
56.335758
 20
323.164656
 30
0.0
 10
55.707574
 20
321.701665
 30
0.0
 10
55.002670
 20
312.827317
 30
0.0
 10
55.997516
 20
290.050284
 30
0.0
 10
55.997515
 20
259.901422
 30
0.0
 10
55.002670
 20
237.124390
 30
0.0
 10
55.707574
 20
228.250042
 30
0.0
 10
56.335758
 20
226.787051
 30
0.0
 10
57.293926
 20
225.527988
 30
0.0
 10
58.552875
 20
224.570192
 30
0.0
 10
60.015948
 20
223.940640
 30
0.0
 10
61.061758
 20
223.860976
 30
0.0
 10
61.586836
 20
223.820979
 30
0.0
 11
61.586836
 21
326.130728
 31
0.0
 11
60.029696
 21
325.925165
 31
0.0
 11
58.590614
 21
325.329077
 31
0.0
 11
57.344195
 21
324.373368
 31
0.0
 11
56.388486
 21
323.126950
 31
0.0
 11
55.792399
 21
321.687867
 31
0.0
 11
55.586836
 21
320.130728
 31
0.0
 11
55.586836
 21
296.717089
 31
0.0
 11
55.586836
 21
253.234618
 31
0.0
 11
55.586836
 21
229.820979
 31
0.0
 11
55.792399
 21
228.263840
 31
0.0
 11
56.388486
 21
226.824757
 31
0.0
 11
57.344195
 21
225.578338
 31
0.0
 11
58.590614
 21
224.622629
 31
0.0
 11
60.029696
 21
224.026542
 31
0.0
 11
61.586836
 21
223.820979
 31
0.0
  0
LWPOLYLINE
  5
14f
100
AcDbEntity
  8
0
 62
7
100
AcDbPolyline
 90
1
 70
1
 10
61.586836
 20
223.820979
 30
0.0
  0
SPLINE
  5
150
100
AcDbEntity
  8
0
 62
7
100
AcDbSpline
 70
0
 71
3
 72
19
 73
15
 74
13
 40
0.000000
 40
0.000000
 40
0.000000
 40
0.000000
 40
16.981038
 40
48.517250
 40
65.498288
 40
66.093028
 40
66.670128
 40
67.264868
 40
76.837987
 40
94.616636
 40
104.189755
 40
104.784485
 40
105.361577
 40
105.956308
 40
105.956308
 40
105.956308
 40
105.956308
 10
272.380215
 20
239.604031
 30
0.0
 10
266.780301
 20
238.786169
 30
0.0
 10
250.780544
 20
236.449420
 30
0.0
 10
229.004548
 20
234.287043
 30
0.0
 10
213.083254
 20
230.376422
 30
0.0
 10
206.920008
 20
230.497528
 30
0.0
 10
206.409963
 20
230.882176
 30
0.0
 10
205.326310
 20
234.367772
 30
0.0
 10
204.868667
 20
243.674837
 30
0.0
 10
203.150177
 20
255.898117
 30
0.0
 10
201.023773
 20
264.971634
 30
0.0
 10
201.104407
 20
268.620167
 30
0.0
 10
201.488550
 20
269.131103
 30
0.0
 10
201.868977
 20
269.246862
 30
0.0
 10
202.062054
 20
269.305613
 30
0.0
 11
272.380215
 21
239.604031
 31
0.0
 11
255.564471
 21
237.240481
 31
0.0
 11
224.335231
 21
232.851030
 31
0.0
 11
207.519486
 21
230.487479
 31
0.0
 11
206.929353
 21
230.561355
 31
0.0
 11
206.468449
 21
230.908648
 31
0.0
 11
206.234738
 21
231.455544
 31
0.0
 11
204.901969
 21
240.935435
 31
0.0
 11
202.426827
 21
258.540946
 31
0.0
 11
201.094058
 21
268.020837
 31
0.0
 11
201.167911
 21
268.610964
 31
0.0
 11
201.515179
 21
269.071877
 31
0.0
 11
202.062054
 21
269.305613
 31
0.0
  0
LWPOLYLINE
  5
151
100
AcDbEntity
  8
0
 62
7
100
AcDbPolyline
 90
4
 70
0
 10
202.062054
 20
269.305613
 30
0.0
 10
210.368937
 20
270.473958
 30
0.0
 10
207.868676
 20
288.249023
 30
0.0
 10
204.280233
 20
287.744715
 30
0.0
  0
SPLINE
  5
152
100
AcDbEntity
  8
0
 62
7
100
AcDbSpline
 70
0
 71
3
 72
10
 73
6
 74
4
 40
0.000000
 40
0.000000
 40
0.000000
 40
0.000000
 40
0.594733
 40
1.171827
 40
1.766560
 40
1.766560
 40
1.766560
 40
1.766560
 10
204.280233
 20
287.744715
 30
0.0
 10
204.078506
 20
287.747957
 30
0.0
 10
203.681035
 20
287.754346
 30
0.0
 10
203.169951
 20
288.139459
 30
0.0
 10
203.054235
 20
288.519767
 30
0.0
 10
202.995506
 20
288.712783
 30
0.0
 11
204.280233
 21
287.744715
 31
0.0
 11
203.690108
 21
287.818599
 31
0.0
 11
203.229212
 21
288.165893
 31
0.0
 11
202.995506
 21
288.712783
 31
0.0
  0
LWPOLYLINE
  5
153
100
AcDbEntity
  8
0
 62
7
100
AcDbPolyline
 90
2
 70
0
 10
202.995506
 20
288.712783
 30
0.0
 10
200.507003
 20
306.413334
 30
0.0
  0
SPLINE
  5
154
100
AcDbEntity
  8
0
 62
7
100
AcDbSpline
 70
0
 71
3
 72
10
 73
6
 74
4
 40
0.000000
 40
0.000000
 40
0.000000
 40
0.000000
 40
0.594652
 40
1.171672
 40
1.766324
 40
1.766324
 40
1.766324
 40
1.766324
 10
200.507003
 20
306.413334
 30
0.0
 10
200.510230
 20
306.615033
 30
0.0
 10
200.516589
 20
307.012450
 30
0.0
 10
200.901561
 20
307.523516
 30
0.0
 10
201.281789
 20
307.639309
 30
0.0
 10
201.474763
 20
307.698077
 30
0.0
 11
200.507003
 21
306.413334
 31
0.0
 11
200.580825
 21
307.003386
 31
0.0
 11
200.928001
 21
307.464277
 31
0.0
 11
201.474763
 21
307.698077
 31
0.0
  0
LWPOLYLINE
  5
155
100
AcDbEntity
  8
0
 62
7
100
AcDbPolyline
 90
2
 70
0
 10
201.474763
 20
307.698077
 30
0.0
 10
278.723250
 20
318.579298
 30
0.0
  0
SPLINE
  5
156
100
AcDbEntity
  8
0
 62
7
100
AcDbSpline
 70
0
 71
3
 72
10
 73
6
 74
4
 40
0.000000
 40
0.000000
 40
0.000000
 40
0.000000
 40
0.053060
 40
0.106106
 40
0.159166
 40
0.159166
 40
0.159166
 40
0.159166
 10
278.723250
 20
318.579298
 30
0.0
 10
278.740798
 20
318.581520
 30
0.0
 10
278.775891
 20
318.585963
 30
0.0
 10
278.828855
 20
318.589675
 30
0.0
 10
278.864224
 20
318.590170
 30
0.0
 10
278.881911
 20
318.590417
 30
0.0
 11
278.723250
 21
318.579298
 31
0.0
 11
278.775949
 21
318.585471
 31
0.0
 11
278.828866
 21
318.589180
 31
0.0
 11
278.881911
 21
318.590417
 31
0.0
  0
LWPOLYLINE
  5
157
100
AcDbEntity
  8
0
 62
7
100
AcDbPolyline
 90
2
 70
0
 10
278.881911
 20
318.590417
 30
0.0
 10
335.272336
 20
318.590417
 30
0.0
  0
SPLINE
  5
158
100
AcDbEntity
  8
0
 62
7
100
AcDbSpline
 70
0
 71
3
 72
13
 73
9
 74
7
 40
0.000000
 40
0.000000
 40
0.000000
 40
0.000000
 40
0.297769
 40
0.593074
 40
0.890843
 40
1.188612
 40
1.483916
 40
1.781685
 40
1.781685
 40
1.781685
 40
1.781685
 10
335.272336
 20
318.590417
 30
0.0
 10
335.371882
 20
318.582834
 30
0.0
 10
335.570151
 20
318.567731
 30
0.0
 10
335.847520
 20
318.448379
 30
0.0
 10
336.086215
 20
318.266796
 30
0.0
 10
336.267797
 20
318.028102
 30
0.0
 10
336.387150
 20
317.750732
 30
0.0
 10
336.402253
 20
317.552463
 30
0.0
 10
336.409836
 20
317.452917
 30
0.0
 11
335.272336
 21
318.590417
 31
0.0
 11
335.567543
 21
318.551446
 31
0.0
 11
335.840369
 21
318.438438
 31
0.0
 11
336.076670
 21
318.257251
 31
0.0
 11
336.257856
 21
318.020951
 31
0.0
 11
336.370864
 21
317.748125
 31
0.0
 11
336.409836
 21
317.452917
 31
0.0
  0
LWPOLYLINE
  5
159
100
AcDbEntity
  8
0
 62
7
100
AcDbPolyline
 90
3
 70
0
 10
336.409836
 20
317.452917
 30
0.0
 10
336.409836
 20
299.350217
 30
0.0
 10
337.939336
 20
299.350217
 30
0.0
  0
SPLINE
  5
15a
100
AcDbEntity
  8
0
 62
7
100
AcDbSpline
 70
0
 71
3
 72
13
 73
9
 74
7
 40
0.000000
 40
0.000000
 40
0.000000
 40
0.000000
 40
0.297769
 40
0.593074
 40
0.890843
 40
1.188612
 40
1.483916
 40
1.781685
 40
1.781685
 40
1.781685
 40
1.781685
 10
337.939336
 20
299.350217
 30
0.0
 10
338.038882
 20
299.342634
 30
0.0
 10
338.237151
 20
299.327531
 30
0.0
 10
338.514520
 20
299.208179
 30
0.0
 10
338.753215
 20
299.026596
 30
0.0
 10
338.934797
 20
298.787902
 30
0.0
 10
339.054150
 20
298.510532
 30
0.0
 10
339.069253
 20
298.312263
 30
0.0
 10
339.076836
 20
298.212717
 30
0.0
 11
337.939336
 21
299.350217
 31
0.0
 11
338.234543
 21
299.311246
 31
0.0
 11
338.507369
 21
299.198238
 31
0.0
 11
338.743670
 21
299.017051
 31
0.0
 11
338.924856
 21
298.780751
 31
0.0
 11
339.037864
 21
298.507925
 31
0.0
 11
339.076836
 21
298.212717
 31
0.0
  0
LWPOLYLINE
  5
15b
100
AcDbEntity
  8
0
 62
7
100
AcDbPolyline
 90
3
 70
0
 10
339.076836
 20
298.212717
 30
0.0
 10
339.076836
 20
280.108717
 30
0.0
 10
340.606336
 20
280.108717
 30
0.0
  0
SPLINE
  5
15c
100
AcDbEntity
  8
0
 62
7
100
AcDbSpline
 70
0
 71
3
 72
10
 73
6
 74
4
 40
0.000000
 40
0.000000
 40
0.000000
 40
0.000000
 40
0.594752
 40
1.171864
 40
1.766617
 40
1.766617
 40
1.766617
 40
1.766617
 10
340.606336
 20
280.108717
 30
0.0
 10
340.805655
 20
280.077430
 30
0.0
 10
341.198382
 20
280.015784
 30
0.0
 10
341.650902
 20
279.563264
 30
0.0
 10
341.712548
 20
279.170537
 30
0.0
 10
341.743836
 20
278.971217
 30
0.0
 11
340.606336
 21
280.108717
 31
0.0
 11
341.180454
 21
279.953415
 31
0.0
 11
341.588533
 21
279.545335
 31
0.0
 11
341.743836
 21
278.971217
 31
0.0
  0
LWPOLYLINE
  5
15d
100
AcDbEntity
  8
0
 62
7
100
AcDbPolyline
 90
2
 70
0
 10
341.743836
 20
278.971217
 30
0.0
 10
341.743836
 20
261.095517
 30
0.0
  0
SPLINE
  5
15e
100
AcDbEntity
  8
0
 62
7
100
AcDbSpline
 70
0
 71
3
 72
13
 73
9
 74
7
 40
0.000000
 40
0.000000
 40
0.000000
 40
0.000000
 40
0.297769
 40
0.593074
 40
0.890843
 40
1.188612
 40
1.483916
 40
1.781685
 40
1.781685
 40
1.781685
 40
1.781685
 10
341.743836
 20
261.095517
 30
0.0
 10
341.736253
 20
260.995971
 30
0.0
 10
341.721150
 20
260.797702
 30
0.0
 10
341.601797
 20
260.520333
 30
0.0
 10
341.420215
 20
260.281638
 30
0.0
 10
341.181520
 20
260.100055
 30
0.0
 10
340.904151
 20
259.980703
 30
0.0
 10
340.705882
 20
259.965600
 30
0.0
 10
340.606336
 20
259.958017
 30
0.0
 11
341.743836
 21
261.095517
 31
0.0
 11
341.704864
 21
260.800310
 31
0.0
 11
341.591856
 21
260.527483
 31
0.0
 11
341.410670
 21
260.291183
 31
0.0
 11
341.174369
 21
260.109997
 31
0.0
 11
340.901543
 21
259.996989
 31
0.0
 11
340.606336
 21
259.958017
 31
0.0
  0
LWPOLYLINE
  5
15f
100
AcDbEntity
  8
0
 62
7
100
AcDbPolyline
 90
2
 70
0
 10
340.606336
 20
259.958017
 30
0.0
 10
339.644836
 20
259.958017
 30
0.0
  0
SPLINE
  5
160
100
AcDbEntity
  8
0
 62
7
100
AcDbSpline
 70
0
 71
3
 72
19
 73
15
 74
13
 40
0.000000
 40
0.000000
 40
0.000000
 40
0.000000
 40
4.692956
 40
13.408444
 40
18.101400
 40
18.696152
 40
19.273264
 40
19.868016
 40
31.910091
 40
54.273942
 40
66.316016
 40
66.910769
 40
67.487881
 40
68.082633
 40
68.082633
 40
68.082633
 40
68.082633
 10
339.644836
 20
259.958017
 30
0.0
 10
339.652594
 20
258.393977
 30
0.0
 10
339.674762
 20
253.925290
 30
0.0
 10
339.448175
 20
247.883370
 30
0.0
 10
339.883468
 20
243.231236
 30
0.0
 10
339.550382
 20
241.264360
 30
0.0
 10
339.099794
 20
240.812676
 30
0.0
 10
334.667598
 20
240.095122
 30
0.0
 10
323.048938
 20
241.162381
 30
0.0
 10
307.519580
 20
241.162285
 30
0.0
 10
295.896474
 20
240.095215
 30
0.0
 10
291.467267
 20
240.812662
 30
0.0
 10
291.014775
 20
241.264415
 30
0.0
 10
290.953125
 20
241.657245
 30
0.0
 10
290.921836
 20
241.856617
 30
0.0
 11
339.644836
 21
259.958017
 31
0.0
 11
339.644836
 21
255.265062
 31
0.0
 11
339.644836
 21
246.549573
 31
0.0
 11
339.644836
 21
241.856617
 31
0.0
 11
339.489534
 21
241.282499
 31
0.0
 11
339.081454
 21
240.874419
 31
0.0
 11
338.507336
 21
240.719117
 31
0.0
 11
326.465262
 21
240.719117
 31
0.0
 11
304.101410
 21
240.719117
 31
0.0
 11
292.059336
 21
240.719117
 31
0.0
 11
291.485218
 21
240.874419
 31
0.0
 11
291.077138
 21
241.282499
 31
0.0
 11
290.921836
 21
241.856617
 31
0.0
  0
LWPOLYLINE
  5
161
100
AcDbEntity
  8
0
 62
7
100
AcDbPolyline
 90
5
 70
0
 10
290.921836
 20
241.856617
 30
0.0
 10
290.921836
 20
259.958017
 30
0.0
 10
280.324699
 20
259.958017
 30
0.0
 10
270.855998
 20
258.627241
 30
0.0
 10
273.348325
 20
240.888727
 30
0.0
  0
SPLINE
  5
162
100
AcDbEntity
  8
0
 62
7
100
AcDbSpline
 70
0
 71
3
 72
10
 73
6
 74
4
 40
0.000000
 40
0.000000
 40
0.000000
 40
0.000000
 40
0.594733
 40
1.171827
 40
1.766561
 40
1.766561
 40
1.766561
 40
1.766561
 10
273.348325
 20
240.888727
 30
0.0
 10
273.345076
 20
240.687000
 30
0.0
 10
273.338675
 20
240.289529
 30
0.0
 10
272.953546
 20
239.778457
 30
0.0
 10
272.573234
 20
239.662754
 30
0.0
 10
272.380215
 20
239.604031
 30
0.0
 11
273.348325
 21
240.888727
 31
0.0
 11
273.274422
 21
240.298604
 31
0.0
 11
272.927113
 21
239.837720
 31
0.0
 11
272.380215
 21
239.604031
 31
0.0
  0
LWPOLYLINE
  5
163
100
AcDbEntity
  8
0
 62
7
100
AcDbPolyline
 90
1
 70
1
 10
272.380215
 20
239.604031
 30
0.0
  0
SPLINE
  5
164
100
AcDbEntity
  8
0
 62
7
100
AcDbSpline
 70
0
 71
3
 72
10
 73
6
 74
4
 40
0.000000
 40
0.000000
 40
0.000000
 40
0.000000
 40
0.594741
 40
1.171843
 40
1.766584
 40
1.766584
 40
1.766584
 40
1.766584
 10
185.530397
 20
289.495748
 30
0.0
 10
185.723419
 20
289.437026
 30
0.0
 10
186.103737
 20
289.321323
 30
0.0
 10
186.488871
 20
288.810243
 30
0.0
 10
186.495268
 20
288.412766
 30
0.0
 10
186.498515
 20
288.211036
 30
0.0
 11
185.530397
 21
289.495748
 31
0.0
 11
186.077304
 21
289.262059
 31
0.0
 11
186.424616
 21
288.801168
 31
0.0
 11
186.498515
 21
288.211036
 31
0.0
  0
LWPOLYLINE
  5
165
100
AcDbEntity
  8
0
 62
7
100
AcDbPolyline
 90
3
 70
0
 10
186.498515
 20
288.211036
 30
0.0
 10
184.005956
 20
270.472540
 30
0.0
 10
192.310296
 20
269.304313
 30
0.0
  0
SPLINE
  5
166
100
AcDbEntity
  8
0
 62
7
100
AcDbSpline
 70
0
 71
3
 72
10
 73
6
 74
4
 40
0.000000
 40
0.000000
 40
0.000000
 40
0.000000
 40
0.594685
 40
1.171736
 40
1.766421
 40
1.766421
 40
1.766421
 40
1.766421
 10
192.310296
 20
269.304313
 30
0.0
 10
192.503292
 20
269.245575
 30
0.0
 10
192.883561
 20
269.129841
 30
0.0
 10
193.268627
 20
268.618794
 30
0.0
 10
193.275026
 20
268.221355
 30
0.0
 10
193.278274
 20
268.019645
 30
0.0
 11
192.310296
 21
269.304313
 31
0.0
 11
192.857128
 21
269.070591
 31
0.0
 11
193.204385
 21
268.609722
 31
0.0
 11
193.278274
 21
268.019645
 31
0.0
  0
LWPOLYLINE
  5
167
100
AcDbEntity
  8
0
 62
7
100
AcDbPolyline
 90
2
 70
0
 10
193.278274
 20
268.019645
 30
0.0
 10
188.141216
 20
231.455705
 30
0.0
  0
SPLINE
  5
168
100
AcDbEntity
  8
0
 62
7
100
AcDbSpline
 70
0
 71
3
 72
13
 73
9
 74
7
 40
0.000000
 40
0.000000
 40
0.000000
 40
0.000000
 40
0.297776
 40
0.593087
 40
0.890863
 40
1.188639
 40
1.483951
 40
1.781726
 40
1.781726
 40
1.781726
 40
1.781726
 10
188.141216
 20
231.455705
 30
0.0
 10
188.119856
 20
231.358180
 30
0.0
 10
188.077314
 20
231.163936
 30
0.0
 10
187.920526
 20
230.905865
 30
0.0
 10
187.707491
 20
230.694754
 30
0.0
 10
187.445846
 20
230.548148
 30
0.0
 10
187.154559
 20
230.468553
 30
0.0
 10
186.956113
 20
230.481189
 30
0.0
 10
186.856478
 20
230.487533
 30
0.0
 11
188.141216
 21
231.455705
 31
0.0
 11
188.061549
 21
231.168784
 31
0.0
 11
187.911676
 21
230.914330
 31
0.0
 11
187.699367
 21
230.705534
 31
0.0
 11
187.440148
 21
230.558988
 31
0.0
 11
187.154244
 21
230.485043
 31
0.0
 11
186.856478
 21
230.487533
 31
0.0
  0
LWPOLYLINE
  5
169
100
AcDbEntity
  8
0
 62
7
100
AcDbPolyline
 90
2
 70
0
 10
186.856478
 20
230.487533
 30
0.0
 10
126.709336
 20
238.940171
 30
0.0
  0
SPLINE
  5
16a
100
AcDbEntity
  8
0
 62
7
100
AcDbSpline
 70
0
 71
3
 72
13
 73
9
 74
7
 40
0.000000
 40
0.000000
 40
0.000000
 40
0.000000
 40
0.297779
 40
0.593094
 40
0.890874
 40
1.188653
 40
1.483968
 40
1.781748
 40
1.781748
 40
1.781748
 40
1.781748
 10
126.709336
 20
238.940171
 30
0.0
 10
126.611811
 20
238.961535
 30
0.0
 10
126.417566
 20
239.004085
 30
0.0
 10
126.159498
 20
239.160886
 30
0.0
 10
125.948394
 20
239.373932
 30
0.0
 10
125.801799
 20
239.635588
 30
0.0
 10
125.722218
 20
239.926882
 30
0.0
 10
125.734865
 20
240.125329
 30
0.0
 10
125.741214
 20
240.224965
 30
0.0
 11
126.709336
 21
238.940171
 31
0.0
 11
126.422415
 21
239.019850
 31
0.0
 11
126.167964
 21
239.169736
 31
0.0
 11
125.959175
 21
239.382056
 31
0.0
 11
125.812640
 21
239.641286
 31
0.0
 11
125.738709
 21
239.927197
 31
0.0
 11
125.741214
 21
240.224965
 31
0.0
  0
LWPOLYLINE
  5
16b
100
AcDbEntity
  8
0
 62
7
100
AcDbPolyline
 90
3
 70
0
 10
125.741214
 20
240.224965
 30
0.0
 10
128.234969
 20
257.962868
 30
0.0
 10
112.855836
 20
260.124689
 30
0.0
  0
SPLINE
  5
16c
100
AcDbEntity
  8
0
 62
7
100
AcDbSpline
 70
0
 71
3
 72
13
 73
9
 74
7
 40
0.000000
 40
0.000000
 40
0.000000
 40
0.000000
 40
4.696809
 40
13.419453
 40
18.116262
 40
18.711014
 40
19.288126
 40
19.882878
 40
19.882878
 40
19.882878
 40
19.882878
 10
112.855836
 20
260.124689
 30
0.0
 10
112.863601
 20
258.559351
 30
0.0
 10
112.885787
 20
254.086958
 30
0.0
 10
112.659010
 20
248.040459
 30
0.0
 10
113.094653
 20
243.383936
 30
0.0
 10
112.761389
 20
241.416329
 30
0.0
 10
112.310769
 20
240.963874
 30
0.0
 10
111.917785
 20
240.902219
 30
0.0
 10
111.718336
 20
240.870927
 30
0.0
 11
112.855836
 21
260.124689
 31
0.0
 11
112.855836
 21
255.427880
 31
0.0
 11
112.855836
 21
246.705236
 31
0.0
 11
112.855836
 21
242.008427
 31
0.0
 11
112.700533
 21
241.434309
 31
0.0
 11
112.292454
 21
241.026229
 31
0.0
 11
111.718336
 21
240.870927
 31
0.0
  0
LWPOLYLINE
  5
16d
100
AcDbEntity
  8
0
 62
7
100
AcDbPolyline
 90
2
 70
0
 10
111.718336
 20
240.870927
 30
0.0
 10
65.270336
 20
240.870927
 30
0.0
  0
SPLINE
  5
16e
100
AcDbEntity
  8
0
 62
7
100
AcDbSpline
 70
0
 71
3
 72
10
 73
6
 74
4
 40
0.000000
 40
0.000000
 40
0.000000
 40
0.000000
 40
0.594752
 40
1.171864
 40
1.766616
 40
1.766616
 40
1.766616
 40
1.766616
 10
65.270336
 20
240.870927
 30
0.0
 10
65.071016
 20
240.902214
 30
0.0
 10
64.678289
 20
240.963861
 30
0.0
 10
64.225769
 20
241.416381
 30
0.0
 10
64.164123
 20
241.809108
 30
0.0
 10
64.132836
 20
242.008427
 30
0.0
 11
65.270336
 21
240.870927
 31
0.0
 11
64.696218
 21
241.026229
 31
0.0
 11
64.288138
 21
241.434309
 31
0.0
 11
64.132836
 21
242.008427
 31
0.0
  0
LWPOLYLINE
  5
16f
100
AcDbEntity
  8
0
 62
7
100
AcDbPolyline
 90
2
 70
0
 10
64.132836
 20
242.008427
 30
0.0
 10
64.132836
 20
260.109827
 30
0.0
  0
SPLINE
  5
170
100
AcDbEntity
  8
0
 62
7
100
AcDbSpline
 70
0
 71
3
 72
22
 73
18
 74
16
 40
0.000000
 40
0.000000
 40
0.000000
 40
0.000000
 40
0.248500
 40
0.710000
 40
0.958500
 40
1.256269
 40
1.551574
 40
1.849343
 40
2.147112
 40
2.442416
 40
2.740185
 40
7.374626
 40
15.981445
 40
20.615885
 40
21.210638
 40
21.787750
 40
22.382502
 40
22.382502
 40
22.382502
 40
22.382502
 10
64.132836
 20
260.109827
 30
0.0
 10
64.050006
 20
260.109723
 30
0.0
 10
63.813351
 20
260.109427
 30
0.0
 10
63.493735
 20
260.112457
 30
0.0
 10
63.158115
 20
260.104546
 30
0.0
 10
62.876450
 20
260.134378
 30
0.0
 10
62.599167
 20
260.251363
 30
0.0
 10
62.360465
 20
260.433583
 30
0.0
 10
62.178824
 20
260.672109
 30
0.0
 10
62.059711
 20
260.949513
 30
0.0
 10
61.921287
 20
262.697283
 30
0.0
 10
62.100734
 20
267.200884
 30
0.0
 10
62.213701
 20
273.171815
 30
0.0
 10
61.801634
 20
277.768404
 30
0.0
 10
62.131277
 20
279.715127
 30
0.0
 10
62.581904
 20
280.167580
 30
0.0
 10
62.974887
 20
280.229235
 30
0.0
 10
63.174336
 20
280.260527
 30
0.0
 11
64.132836
 21
260.109827
 31
0.0
 11
63.884336
 21
260.109827
 31
0.0
 11
63.422836
 21
260.109827
 31
0.0
 11
63.174336
 21
260.109827
 31
0.0
 11
62.879128
 21
260.148798
 31
0.0
 11
62.606302
 21
260.261807
 31
0.0
 11
62.370002
 21
260.442993
 31
0.0
 11
62.188815
 21
260.679293
 31
0.0
 11
62.075807
 21
260.952120
 31
0.0
 11
62.036836
 21
261.247327
 31
0.0
 11
62.036836
 21
265.881768
 31
0.0
 11
62.036836
 21
274.488587
 31
0.0
 11
62.036836
 21
279.123027
 31
0.0
 11
62.192138
 21
279.697145
 31
0.0
 11
62.600218
 21
280.105225
 31
0.0
 11
63.174336
 21
280.260527
 31
0.0
  0
LWPOLYLINE
  5
171
100
AcDbEntity
  8
0
 62
7
100
AcDbPolyline
 90
3
 70
0
 10
63.174336
 20
280.260527
 30
0.0
 10
64.988836
 20
280.260527
 30
0.0
 10
64.988836
 20
298.364527
 30
0.0
  0
SPLINE
  5
172
100
AcDbEntity
  8
0
 62
7
100
AcDbSpline
 70
0
 71
3
 72
13
 73
9
 74
7
 40
0.000000
 40
0.000000
 40
0.000000
 40
0.000000
 40
0.297769
 40
0.593074
 40
0.890843
 40
1.188612
 40
1.483916
 40
1.781685
 40
1.781685
 40
1.781685
 40
1.781685
 10
64.988836
 20
298.364527
 30
0.0
 10
64.996418
 20
298.464073
 30
0.0
 10
65.011521
 20
298.662342
 30
0.0
 10
65.130874
 20
298.939712
 30
0.0
 10
65.312457
 20
299.178406
 30
0.0
 10
65.551151
 20
299.359989
 30
0.0
 10
65.828520
 20
299.479341
 30
0.0
 10
66.026789
 20
299.494444
 30
0.0
 10
66.126336
 20
299.502027
 30
0.0
 11
64.988836
 21
298.364527
 31
0.0
 11
65.027807
 21
298.659735
 31
0.0
 11
65.140815
 21
298.932561
 31
0.0
 11
65.322002
 21
299.168861
 31
0.0
 11
65.558302
 21
299.350048
 31
0.0
 11
65.831128
 21
299.463056
 31
0.0
 11
66.126336
 21
299.502027
 31
0.0
  0
LWPOLYLINE
  5
173
100
AcDbEntity
  8
0
 62
7
100
AcDbPolyline
 90
2
 70
0
 10
66.126336
 20
299.502027
 30
0.0
 10
67.561836
 20
299.502027
 30
0.0
  0
SPLINE
  5
174
100
AcDbEntity
  8
0
 62
7
100
AcDbSpline
 70
0
 71
3
 72
13
 73
9
 74
7
 40
0.000000
 40
0.000000
 40
0.000000
 40
0.000000
 40
4.693293
 40
13.409407
 40
18.102700
 40
18.697452
 40
19.274564
 40
19.869316
 40
19.869316
 40
19.869316
 40
19.869316
 10
67.561836
 20
299.502027
 30
0.0
 10
67.554077
 20
301.066193
 30
0.0
 10
67.531909
 20
305.535238
 30
0.0
 10
67.758498
 20
311.577211
 30
0.0
 10
67.323203
 20
316.230396
 30
0.0
 10
67.656283
 20
318.196825
 30
0.0
 10
68.106902
 20
318.649280
 30
0.0
 10
68.499886
 20
318.710936
 30
0.0
 10
68.699336
 20
318.742227
 30
0.0
 11
67.561836
 21
299.502027
 31
0.0
 11
67.561836
 21
304.195320
 31
0.0
 11
67.561836
 21
312.911435
 31
0.0
 11
67.561836
 21
317.604727
 31
0.0
 11
67.717138
 21
318.178845
 31
0.0
 11
68.125218
 21
318.586925
 31
0.0
 11
68.699336
 21
318.742227
 31
0.0
  0
LWPOLYLINE
  5
175
100
AcDbEntity
  8
0
 62
7
100
AcDbPolyline
 90
2
 70
0
 10
68.699336
 20
318.742227
 30
0.0
 10
107.809503
 20
318.742227
 30
0.0
  0
LWPOLYLINE
  5
176
100
AcDbEntity
  8
0
 62
7
100
AcDbPolyline
 90
4
 70
0
 10
184.436664
 20
307.754211
 30
0.0
 10
181.953762
 20
289.998433
 30
0.0
 10
185.530397
 20
289.495748
 30
0.0
 10
185.530397
 20
289.495748
 30
0.0
  0
SPLINE
  5
177
100
AcDbEntity
  8
0
 62
7
100
AcDbSpline
 70
0
 71
3
 72
16
 73
12
 74
10
 40
0.000000
 40
0.000000
 40
0.000000
 40
0.000000
 40
0.516946
 40
1.021886
 40
1.538832
 40
21.024692
 40
57.212716
 40
76.698575
 40
77.293144
 40
77.870087
 40
78.464656
 40
78.464656
 40
78.464656
 40
78.464656
 10
107.809503
 20
318.742227
 30
0.0
 10
107.890281
 20
318.896957
 30
0.0
 10
108.049963
 20
319.202823
 30
0.0
 10
108.518213
 20
319.485026
 30
0.0
 10
115.444505
 20
319.473691
 30
0.0
 10
133.737121
 20
315.398331
 30
0.0
 10
158.587712
 20
311.771719
 30
0.0
 10
177.338928
 20
310.923391
 30
0.0
 10
184.041378
 20
308.863593
 30
0.0
 10
184.426660
 20
308.353332
 30
0.0
 10
184.433296
 20
307.955911
 30
0.0
 10
184.436664
 20
307.754211
 30
0.0
 11
107.809503
 21
318.742227
 31
0.0
 11
108.090549
 21
319.176100
 31
0.0
 11
108.522906
 21
319.436931
 31
0.0
 11
109.037776
 21
319.483214
 31
0.0
 11
128.334554
 21
316.775248
 31
0.0
 11
164.171427
 21
311.746169
 31
0.0
 11
183.468204
 21
309.038204
 31
0.0
 11
184.015020
 21
308.804740
 31
0.0
 11
184.362439
 21
308.344128
 31
0.0
 11
184.436664
 21
307.754211
 31
0.0
  0
LWPOLYLINE
  5
178
100
AcDbEntity
  8
0
 62
7
100
AcDbPolyline
 90
5
 70
0
 10
290.921836
 20
348.167501
 30
0.0
 10
290.921836
 20
366.268901
 30
0.0
 10
280.324699
 20
366.268901
 30
0.0
 10
270.855998
 20
364.938125
 30
0.0
 10
273.348325
 20
347.199611
 30
0.0
  0
SPLINE
  5
179
100
AcDbEntity
  8
0
 62
7
100
AcDbSpline
 70
0
 71
3
 72
22
 73
18
 74
16
 40
0.000000
 40
0.000000
 40
0.000000
 40
0.000000
 40
0.594733
 40
1.171827
 40
1.766561
 40
18.747598
 40
50.283811
 40
67.264848
 40
67.859588
 40
68.436689
 40
69.031429
 40
78.604548
 40
96.383197
 40
105.956315
 40
106.551046
 40
107.128138
 40
107.722869
 40
107.722869
 40
107.722869
 40
107.722869
 10
273.348325
 20
347.199611
 30
0.0
 10
273.345080
 20
346.997847
 30
0.0
 10
273.338686
 20
346.600301
 30
0.0
 10
272.953500
 20
346.089778
 30
0.0
 10
267.064327
 20
344.275486
 30
0.0
 10
250.703317
 20
343.507292
 30
0.0
 10
229.018859
 20
340.459502
 30
0.0
 10
213.083178
 20
336.688039
 30
0.0
 10
206.920009
 20
336.808397
 30
0.0
 10
206.409963
 20
337.193064
 30
0.0
 10
205.326313
 20
340.678636
 30
0.0
 10
204.868665
 20
349.985739
 30
0.0
 10
203.150178
 20
362.208998
 30
0.0
 10
201.023773
 20
371.282518
 30
0.0
 10
201.104408
 20
374.931051
 30
0.0
 10
201.488550
 20
375.441987
 30
0.0
 10
201.868977
 20
375.557746
 30
0.0
 10
202.062054
 20
375.616497
 30
0.0
 11
273.348325
 21
347.199611
 31
0.0
 11
273.274422
 21
346.609488
 31
0.0
 11
272.927113
 21
346.148604
 31
0.0
 11
272.380215
 21
345.914915
 31
0.0
 11
255.564471
 21
343.551365
 31
0.0
 11
224.335231
 21
339.161914
 31
0.0
 11
207.519486
 21
336.798363
 31
0.0
 11
206.929353
 21
336.872239
 31
0.0
 11
206.468449
 21
337.219533
 31
0.0
 11
206.234738
 21
337.766429
 31
0.0
 11
204.901969
 21
347.246319
 31
0.0
 11
202.426827
 21
364.851831
 31
0.0
 11
201.094058
 21
374.331721
 31
0.0
 11
201.167911
 21
374.921849
 31
0.0
 11
201.515179
 21
375.382761
 31
0.0
 11
202.062054
 21
375.616497
 31
0.0
  0
LWPOLYLINE
  5
17a
100
AcDbEntity
  8
0
 62
7
100
AcDbPolyline
 90
4
 70
0
 10
202.062054
 20
375.616497
 30
0.0
 10
210.368937
 20
376.784842
 30
0.0
 10
207.868676
 20
394.559907
 30
0.0
 10
204.280233
 20
394.055599
 30
0.0
  0
SPLINE
  5
17b
100
AcDbEntity
  8
0
 62
7
100
AcDbSpline
 70
0
 71
3
 72
10
 73
6
 74
4
 40
0.000000
 40
0.000000
 40
0.000000
 40
0.000000
 40
0.594733
 40
1.171827
 40
1.766560
 40
1.766560
 40
1.766560
 40
1.766560
 10
204.280233
 20
394.055599
 30
0.0
 10
204.078506
 20
394.058842
 30
0.0
 10
203.681035
 20
394.065231
 30
0.0
 10
203.169951
 20
394.450343
 30
0.0
 10
203.054235
 20
394.830651
 30
0.0
 10
202.995506
 20
395.023667
 30
0.0
 11
204.280233
 21
394.055599
 31
0.0
 11
203.690108
 21
394.129483
 31
0.0
 11
203.229212
 21
394.476777
 31
0.0
 11
202.995506
 21
395.023667
 31
0.0
  0
LWPOLYLINE
  5
17c
100
AcDbEntity
  8
0
 62
7
100
AcDbPolyline
 90
2
 70
0
 10
202.995506
 20
395.023667
 30
0.0
 10
200.507003
 20
412.724218
 30
0.0
  0
SPLINE
  5
17d
100
AcDbEntity
  8
0
 62
7
100
AcDbSpline
 70
0
 71
3
 72
10
 73
6
 74
4
 40
0.000000
 40
0.000000
 40
0.000000
 40
0.000000
 40
0.594652
 40
1.171672
 40
1.766324
 40
1.766324
 40
1.766324
 40
1.766324
 10
200.507003
 20
412.724218
 30
0.0
 10
200.510230
 20
412.925917
 30
0.0
 10
200.516589
 20
413.323334
 30
0.0
 10
200.901561
 20
413.834400
 30
0.0
 10
201.281789
 20
413.950193
 30
0.0
 10
201.474763
 20
414.008961
 30
0.0
 11
200.507003
 21
412.724218
 31
0.0
 11
200.580825
 21
413.314270
 31
0.0
 11
200.928001
 21
413.775161
 31
0.0
 11
201.474763
 21
414.008961
 31
0.0
  0
LWPOLYLINE
  5
17e
100
AcDbEntity
  8
0
 62
7
100
AcDbPolyline
 90
2
 70
0
 10
201.474763
 20
414.008961
 30
0.0
 10
278.723250
 20
424.890182
 30
0.0
  0
SPLINE
  5
17f
100
AcDbEntity
  8
0
 62
7
100
AcDbSpline
 70
0
 71
3
 72
10
 73
6
 74
4
 40
0.000000
 40
0.000000
 40
0.000000
 40
0.000000
 40
0.053060
 40
0.106106
 40
0.159166
 40
0.159166
 40
0.159166
 40
0.159166
 10
278.723250
 20
424.890182
 30
0.0
 10
278.740798
 20
424.892404
 30
0.0
 10
278.775891
 20
424.896847
 30
0.0
 10
278.828855
 20
424.900559
 30
0.0
 10
278.864224
 20
424.901054
 30
0.0
 10
278.881911
 20
424.901301
 30
0.0
 11
278.723250
 21
424.890182
 31
0.0
 11
278.775949
 21
424.896355
 31
0.0
 11
278.828866
 21
424.900064
 31
0.0
 11
278.881911
 21
424.901301
 31
0.0
  0
LWPOLYLINE
  5
180
100
AcDbEntity
  8
0
 62
7
100
AcDbPolyline
 90
2
 70
0
 10
278.881911
 20
424.901301
 30
0.0
 10
335.272336
 20
424.901301
 30
0.0
  0
SPLINE
  5
181
100
AcDbEntity
  8
0
 62
7
100
AcDbSpline
 70
0
 71
3
 72
10
 73
6
 74
4
 40
0.000000
 40
0.000000
 40
0.000000
 40
0.000000
 40
0.594752
 40
1.171864
 40
1.766617
 40
1.766617
 40
1.766617
 40
1.766617
 10
335.272336
 20
424.901301
 30
0.0
 10
335.471655
 20
424.870014
 30
0.0
 10
335.864382
 20
424.808368
 30
0.0
 10
336.316902
 20
424.355848
 30
0.0
 10
336.378548
 20
423.963121
 30
0.0
 10
336.409836
 20
423.763801
 30
0.0
 11
335.272336
 21
424.901301
 31
0.0
 11
335.846454
 21
424.745999
 31
0.0
 11
336.254533
 21
424.337919
 31
0.0
 11
336.409836
 21
423.763801
 31
0.0
  0
LWPOLYLINE
  5
182
100
AcDbEntity
  8
0
 62
7
100
AcDbPolyline
 90
3
 70
0
 10
336.409836
 20
423.763801
 30
0.0
 10
336.409836
 20
405.661101
 30
0.0
 10
337.939336
 20
405.661101
 30
0.0
  0
SPLINE
  5
183
100
AcDbEntity
  8
0
 62
7
100
AcDbSpline
 70
0
 71
3
 72
10
 73
6
 74
4
 40
0.000000
 40
0.000000
 40
0.000000
 40
0.000000
 40
0.594752
 40
1.171864
 40
1.766617
 40
1.766617
 40
1.766617
 40
1.766617
 10
337.939336
 20
405.661101
 30
0.0
 10
338.138655
 20
405.629814
 30
0.0
 10
338.531382
 20
405.568168
 30
0.0
 10
338.983902
 20
405.115648
 30
0.0
 10
339.045548
 20
404.722921
 30
0.0
 10
339.076836
 20
404.523601
 30
0.0
 11
337.939336
 21
405.661101
 31
0.0
 11
338.513454
 21
405.505799
 31
0.0
 11
338.921533
 21
405.097719
 31
0.0
 11
339.076836
 21
404.523601
 31
0.0
  0
LWPOLYLINE
  5
184
100
AcDbEntity
  8
0
 62
7
100
AcDbPolyline
 90
2
 70
0
 10
339.076836
 20
404.523601
 30
0.0
 10
339.076836
 20
386.419601
 30
0.0
  0
SPLINE
  5
185
100
AcDbEntity
  8
0
 62
7
100
AcDbSpline
 70
0
 71
3
 72
22
 73
18
 74
16
 40
0.000000
 40
0.000000
 40
0.000000
 40
0.000000
 40
0.396537
 40
1.132963
 40
1.529500
 40
1.827269
 40
2.122574
 40
2.420343
 40
2.718112
 40
3.013416
 40
3.311185
 40
7.945626
 40
16.552445
 40
21.186885
 40
21.781638
 40
22.358750
 40
22.953502
 40
22.953502
 40
22.953502
 40
22.953502
 10
339.076836
 20
386.419601
 30
0.0
 10
339.209007
 20
386.419808
 30
0.0
 10
339.586638
 20
386.420399
 30
0.0
 10
340.096703
 20
386.414358
 30
0.0
 10
340.573077
 20
386.428392
 30
0.0
 10
340.904206
 20
386.395455
 30
0.0
 10
341.181509
 20
386.277957
 30
0.0
 10
341.420205
 20
386.095875
 30
0.0
 10
341.601847
 20
385.857312
 30
0.0
 10
341.720961
 20
385.579918
 30
0.0
 10
341.859385
 20
383.832135
 30
0.0
 10
341.679937
 20
379.328553
 30
0.0
 10
341.566970
 20
373.357612
 30
0.0
 10
341.979038
 20
368.761024
 30
0.0
 10
341.649394
 20
366.814302
 30
0.0
 10
341.198768
 20
366.361848
 30
0.0
 10
340.805785
 20
366.300193
 30
0.0
 10
340.606336
 20
366.268901
 30
0.0
 11
339.076836
 21
386.419601
 31
0.0
 11
339.473373
 21
386.419601
 31
0.0
 11
340.209799
 21
386.419601
 31
0.0
 11
340.606336
 21
386.419601
 31
0.0
 11
340.901543
 21
386.380630
 31
0.0
 11
341.174369
 21
386.267622
 31
0.0
 11
341.410670
 21
386.086435
 31
0.0
 11
341.591856
 21
385.850135
 31
0.0
 11
341.704864
 21
385.577309
 31
0.0
 11
341.743836
 21
385.282101
 31
0.0
 11
341.743836
 21
380.647661
 31
0.0
 11
341.743836
 21
372.040842
 31
0.0
 11
341.743836
 21
367.406401
 31
0.0
 11
341.588533
 21
366.832283
 31
0.0
 11
341.180454
 21
366.424204
 31
0.0
 11
340.606336
 21
366.268901
 31
0.0
  0
LWPOLYLINE
  5
186
100
AcDbEntity
  8
0
 62
7
100
AcDbPolyline
 90
2
 70
0
 10
340.606336
 20
366.268901
 30
0.0
 10
339.644836
 20
366.268901
 30
0.0
  0
LWPOLYLINE
  5
187
100
AcDbEntity
  8
0
 62
7
100
AcDbPolyline
 90
1
 70
1
 10
290.921836
 20
348.167501
 30
0.0
  0
SPLINE
  5
188
100
AcDbEntity
  8
0
 62
7
100
AcDbSpline
 70
0
 71
3
 72
25
 73
21
 74
19
 40
0.000000
 40
0.000000
 40
0.000000
 40
0.000000
 40
4.692956
 40
13.408444
 40
18.101400
 40
18.399169
 40
18.694474
 40
18.992243
 40
19.290012
 40
19.585316
 40
19.883085
 40
31.925159
 40
54.289011
 40
66.331085
 40
66.628854
 40
66.924159
 40
67.221928
 40
67.519697
 40
67.815002
 40
68.112771
 40
68.112771
 40
68.112771
 40
68.112771
 10
339.644836
 20
366.268901
 30
0.0
 10
339.648806
 20
364.704735
 30
0.0
 10
339.660150
 20
360.235687
 30
0.0
 10
339.544201
 20
354.197454
 30
0.0
 10
339.762223
 20
349.637051
 30
0.0
 10
339.621950
 20
347.869679
 30
0.0
 10
339.502851
 20
347.592318
 30
0.0
 10
339.321200
 20
347.353628
 30
0.0
 10
339.082523
 20
347.172019
 30
0.0
 10
338.805153
 20
347.052765
 30
0.0
 10
334.580929
 20
346.725721
 30
0.0
 10
323.036869
 20
347.249327
 30
0.0
 10
307.529793
 20
347.249327
 30
0.0
 10
295.985755
 20
346.725720
 30
0.0
 10
291.761517
 20
347.052765
 30
0.0
 10
291.484152
 20
347.172019
 30
0.0
 10
291.245456
 20
347.353628
 30
0.0
 10
291.063874
 20
347.592315
 30
0.0
 10
290.944521
 20
347.869687
 30
0.0
 10
290.929418
 20
348.067955
 30
0.0
 10
290.921836
 20
348.167501
 30
0.0
 11
339.644836
 21
366.268901
 31
0.0
 11
339.644836
 21
361.575946
 31
0.0
 11
339.644836
 21
352.860457
 31
0.0
 11
339.644836
 21
348.167501
 31
0.0
 11
339.605864
 21
347.872294
 31
0.0
 11
339.492856
 21
347.599468
 31
0.0
 11
339.311670
 21
347.363167
 31
0.0
 11
339.075369
 21
347.181981
 31
0.0
 11
338.802543
 21
347.068973
 31
0.0
 11
338.507336
 21
347.030001
 31
0.0
 11
326.465262
 21
347.030001
 31
0.0
 11
304.101410
 21
347.030001
 31
0.0
 11
292.059336
 21
347.030001
 31
0.0
 11
291.764128
 21
347.068973
 31
0.0
 11
291.491302
 21
347.181981
 31
0.0
 11
291.255002
 21
347.363167
 31
0.0
 11
291.073815
 21
347.599468
 31
0.0
 11
290.960807
 21
347.872294
 31
0.0
 11
290.921836
 21
348.167501
 31
0.0
  0
LWPOLYLINE
  5
189
100
AcDbEntity
  8
0
 62
7
100
AcDbPolyline
 90
2
 70
0
 10
63.174336
 20
386.571411
 30
0.0
 10
64.988836
 20
386.571411
 30
0.0
  0
SPLINE
  5
18a
100
AcDbEntity
  8
0
 62
7
100
AcDbSpline
 70
0
 71
3
 72
13
 73
9
 74
7
 40
0.000000
 40
0.000000
 40
0.000000
 40
0.000000
 40
4.693630
 40
13.410370
 40
18.104000
 40
18.698752
 40
19.275864
 40
19.870617
 40
19.870617
 40
19.870617
 40
19.870617
 10
64.988836
 20
386.571411
 30
0.0
 10
64.981076
 20
388.135690
 30
0.0
 10
64.958906
 20
392.605056
 30
0.0
 10
65.185514
 20
398.647462
 30
0.0
 10
64.750185
 20
403.300968
 30
0.0
 10
65.083283
 20
405.267509
 30
0.0
 10
65.533902
 20
405.719965
 30
0.0
 10
65.926886
 20
405.781620
 30
0.0
 10
66.126336
 20
405.812911
 30
0.0
 11
64.988836
 21
386.571411
 31
0.0
 11
64.988836
 21
391.265041
 31
0.0
 11
64.988836
 21
399.981782
 31
0.0
 11
64.988836
 21
404.675411
 31
0.0
 11
65.144138
 21
405.249529
 31
0.0
 11
65.552218
 21
405.657609
 31
0.0
 11
66.126336
 21
405.812911
 31
0.0
  0
LWPOLYLINE
  5
18b
100
AcDbEntity
  8
0
 62
7
100
AcDbPolyline
 90
2
 70
0
 10
66.126336
 20
405.812911
 30
0.0
 10
67.561836
 20
405.812911
 30
0.0
  0
SPLINE
  5
18c
100
AcDbEntity
  8
0
 62
7
100
AcDbSpline
 70
0
 71
3
 72
13
 73
9
 74
7
 40
0.000000
 40
0.000000
 40
0.000000
 40
0.000000
 40
4.693293
 40
13.409407
 40
18.102700
 40
18.697452
 40
19.274564
 40
19.869316
 40
19.869316
 40
19.869316
 40
19.869316
 10
67.561836
 20
405.812911
 30
0.0
 10
67.554077
 20
407.377077
 30
0.0
 10
67.531909
 20
411.846123
 30
0.0
 10
67.758498
 20
417.888095
 30
0.0
 10
67.323203
 20
422.541281
 30
0.0
 10
67.656283
 20
424.507709
 30
0.0
 10
68.106902
 20
424.960165
 30
0.0
 10
68.499886
 20
425.021820
 30
0.0
 10
68.699336
 20
425.053111
 30
0.0
 11
67.561836
 21
405.812911
 31
0.0
 11
67.561836
 21
410.506204
 31
0.0
 11
67.561836
 21
419.222319
 31
0.0
 11
67.561836
 21
423.915611
 31
0.0
 11
67.717138
 21
424.489729
 31
0.0
 11
68.125218
 21
424.897809
 31
0.0
 11
68.699336
 21
425.053111
 31
0.0
  0
LWPOLYLINE
  5
18d
100
AcDbEntity
  8
0
 62
7
100
AcDbPolyline
 90
2
 70
0
 10
68.699336
 20
425.053111
 30
0.0
 10
107.809503
 20
425.053111
 30
0.0
  0
SPLINE
  5
18e
100
AcDbEntity
  8
0
 62
7
100
AcDbSpline
 70
0
 71
3
 72
16
 73
12
 74
10
 40
0.000000
 40
0.000000
 40
0.000000
 40
0.000000
 40
0.516946
 40
1.021887
 40
1.538833
 40
21.024692
 40
57.212716
 40
76.698575
 40
77.293144
 40
77.870087
 40
78.464656
 40
78.464656
 40
78.464656
 40
78.464656
 10
107.809503
 20
425.053111
 30
0.0
 10
107.890281
 20
425.207841
 30
0.0
 10
108.049962
 20
425.513707
 30
0.0
 10
108.518213
 20
425.795910
 30
0.0
 10
115.444505
 20
425.784576
 30
0.0
 10
133.737121
 20
421.709214
 30
0.0
 10
158.587712
 20
418.082604
 30
0.0
 10
177.338928
 20
417.234275
 30
0.0
 10
184.041378
 20
415.174478
 30
0.0
 10
184.426660
 20
414.664216
 30
0.0
 10
184.433296
 20
414.266795
 30
0.0
 10
184.436664
 20
414.065095
 30
0.0
 11
107.809503
 21
425.053111
 31
0.0
 11
108.090549
 21
425.486985
 31
0.0
 11
108.522906
 21
425.747815
 31
0.0
 11
109.037776
 21
425.794098
 31
0.0
 11
128.334554
 21
423.086133
 31
0.0
 11
164.171427
 21
418.057054
 31
0.0
 11
183.468204
 21
415.349088
 31
0.0
 11
184.015020
 21
415.115625
 31
0.0
 11
184.362439
 21
414.655013
 31
0.0
 11
184.436664
 21
414.065095
 31
0.0
  0
LWPOLYLINE
  5
18f
100
AcDbEntity
  8
0
 62
7
100
AcDbPolyline
 90
3
 70
0
 10
184.436664
 20
414.065095
 30
0.0
 10
181.953762
 20
396.309317
 30
0.0
 10
185.530397
 20
395.806632
 30
0.0
  0
SPLINE
  5
190
100
AcDbEntity
  8
0
 62
7
100
AcDbSpline
 70
0
 71
3
 72
10
 73
6
 74
4
 40
0.000000
 40
0.000000
 40
0.000000
 40
0.000000
 40
0.594741
 40
1.171843
 40
1.766584
 40
1.766584
 40
1.766584
 40
1.766584
 10
185.530397
 20
395.806632
 30
0.0
 10
185.723419
 20
395.747910
 30
0.0
 10
186.103737
 20
395.632208
 30
0.0
 10
186.488871
 20
395.121127
 30
0.0
 10
186.495268
 20
394.723650
 30
0.0
 10
186.498515
 20
394.521920
 30
0.0
 11
185.530397
 21
395.806632
 31
0.0
 11
186.077304
 21
395.572943
 31
0.0
 11
186.424617
 21
395.112052
 31
0.0
 11
186.498515
 21
394.521920
 31
0.0
  0
LWPOLYLINE
  5
191
100
AcDbEntity
  8
0
 62
7
100
AcDbPolyline
 90
3
 70
0
 10
186.498515
 20
394.521920
 30
0.0
 10
184.005956
 20
376.783424
 30
0.0
 10
192.310296
 20
375.615197
 30
0.0
  0
SPLINE
  5
192
100
AcDbEntity
  8
0
 62
7
100
AcDbSpline
 70
0
 71
3
 72
10
 73
6
 74
4
 40
0.000000
 40
0.000000
 40
0.000000
 40
0.000000
 40
0.594685
 40
1.171736
 40
1.766421
 40
1.766421
 40
1.766421
 40
1.766421
 10
192.310296
 20
375.615197
 30
0.0
 10
192.503292
 20
375.556459
 30
0.0
 10
192.883561
 20
375.440725
 30
0.0
 10
193.268627
 20
374.929678
 30
0.0
 10
193.275026
 20
374.532239
 30
0.0
 10
193.278274
 20
374.330529
 30
0.0
 11
192.310296
 21
375.615197
 31
0.0
 11
192.857128
 21
375.381475
 31
0.0
 11
193.204385
 21
374.920606
 31
0.0
 11
193.278274
 21
374.330529
 31
0.0
  0
LWPOLYLINE
  5
193
100
AcDbEntity
  8
0
 62
7
100
AcDbPolyline
 90
2
 70
0
 10
193.278274
 20
374.330529
 30
0.0
 10
188.141216
 20
337.766589
 30
0.0
  0
SPLINE
  5
194
100
AcDbEntity
  8
0
 62
7
100
AcDbSpline
 70
0
 71
3
 72
13
 73
9
 74
7
 40
0.000000
 40
0.000000
 40
0.000000
 40
0.000000
 40
0.297776
 40
0.593087
 40
0.890863
 40
1.188639
 40
1.483951
 40
1.781727
 40
1.781727
 40
1.781727
 40
1.781727
 10
188.141216
 20
337.766589
 30
0.0
 10
188.119856
 20
337.669064
 30
0.0
 10
188.077314
 20
337.474820
 30
0.0
 10
187.920526
 20
337.216749
 30
0.0
 10
187.707491
 20
337.005638
 30
0.0
 10
187.445846
 20
336.859032
 30
0.0
 10
187.154559
 20
336.779437
 30
0.0
 10
186.956113
 20
336.792073
 30
0.0
 10
186.856478
 20
336.798417
 30
0.0
 11
188.141216
 21
337.766589
 31
0.0
 11
188.061549
 21
337.479668
 31
0.0
 11
187.911676
 21
337.225214
 31
0.0
 11
187.699367
 21
337.016419
 31
0.0
 11
187.440148
 21
336.869873
 31
0.0
 11
187.154244
 21
336.795927
 31
0.0
 11
186.856478
 21
336.798417
 31
0.0
  0
LWPOLYLINE
  5
195
100
AcDbEntity
  8
0
 62
7
100
AcDbPolyline
 90
2
 70
0
 10
186.856478
 20
336.798417
 30
0.0
 10
126.709336
 20
345.251055
 30
0.0
  0
SPLINE
  5
196
100
AcDbEntity
  8
0
 62
7
100
AcDbSpline
 70
0
 71
3
 72
13
 73
9
 74
7
 40
0.000000
 40
0.000000
 40
0.000000
 40
0.000000
 40
0.297779
 40
0.593094
 40
0.890874
 40
1.188653
 40
1.483968
 40
1.781748
 40
1.781748
 40
1.781748
 40
1.781748
 10
126.709336
 20
345.251055
 30
0.0
 10
126.611811
 20
345.272419
 30
0.0
 10
126.417566
 20
345.314969
 30
0.0
 10
126.159498
 20
345.471770
 30
0.0
 10
125.948394
 20
345.684816
 30
0.0
 10
125.801799
 20
345.946472
 30
0.0
 10
125.722218
 20
346.237766
 30
0.0
 10
125.734865
 20
346.436213
 30
0.0
 10
125.741214
 20
346.535849
 30
0.0
 11
126.709336
 21
345.251055
 31
0.0
 11
126.422415
 21
345.330734
 31
0.0
 11
126.167964
 21
345.480620
 31
0.0
 11
125.959175
 21
345.692940
 31
0.0
 11
125.812640
 21
345.952170
 31
0.0
 11
125.738709
 21
346.238081
 31
0.0
 11
125.741214
 21
346.535849
 31
0.0
  0
LWPOLYLINE
  5
197
100
AcDbEntity
  8
0
 62
7
100
AcDbPolyline
 90
3
 70
0
 10
125.741214
 20
346.535849
 30
0.0
 10
128.234969
 20
364.273753
 30
0.0
 10
112.855836
 20
366.435573
 30
0.0
  0
SPLINE
  5
198
100
AcDbEntity
  8
0
 62
7
100
AcDbSpline
 70
0
 71
3
 72
13
 73
9
 74
7
 40
0.000000
 40
0.000000
 40
0.000000
 40
0.000000
 40
4.696809
 40
13.419453
 40
18.116262
 40
18.711014
 40
19.288126
 40
19.882878
 40
19.882878
 40
19.882878
 40
19.882878
 10
112.855836
 20
366.435573
 30
0.0
 10
112.863601
 20
364.870235
 30
0.0
 10
112.885787
 20
360.397842
 30
0.0
 10
112.659010
 20
354.351343
 30
0.0
 10
113.094653
 20
349.694820
 30
0.0
 10
112.761389
 20
347.727213
 30
0.0
 10
112.310769
 20
347.274758
 30
0.0
 10
111.917785
 20
347.213103
 30
0.0
 10
111.718336
 20
347.181811
 30
0.0
 11
112.855836
 21
366.435573
 31
0.0
 11
112.855836
 21
361.738765
 31
0.0
 11
112.855836
 21
353.016120
 31
0.0
 11
112.855836
 21
348.319311
 31
0.0
 11
112.700534
 21
347.745193
 31
0.0
 11
112.292454
 21
347.337114
 31
0.0
 11
111.718336
 21
347.181811
 31
0.0
  0
LWPOLYLINE
  5
199
100
AcDbEntity
  8
0
 62
7
100
AcDbPolyline
 90
2
 70
0
 10
111.718336
 20
347.181811
 30
0.0
 10
65.270336
 20
347.181811
 30
0.0
  0
SPLINE
  5
19a
100
AcDbEntity
  8
0
 62
7
100
AcDbSpline
 70
0
 71
3
 72
10
 73
6
 74
4
 40
0.000000
 40
0.000000
 40
0.000000
 40
0.000000
 40
0.594752
 40
1.171864
 40
1.766617
 40
1.766617
 40
1.766617
 40
1.766617
 10
65.270336
 20
347.181811
 30
0.0
 10
65.071016
 20
347.213099
 30
0.0
 10
64.678289
 20
347.274745
 30
0.0
 10
64.225769
 20
347.727265
 30
0.0
 10
64.164123
 20
348.119992
 30
0.0
 10
64.132836
 20
348.319311
 30
0.0
 11
65.270336
 21
347.181811
 31
0.0
 11
64.696218
 21
347.337114
 31
0.0
 11
64.288138
 21
347.745193
 31
0.0
 11
64.132836
 21
348.319311
 31
0.0
  0
LWPOLYLINE
  5
19b
100
AcDbEntity
  8
0
 62
7
100
AcDbPolyline
 90
2
 70
0
 10
64.132836
 20
348.319311
 30
0.0
 10
64.132836
 20
366.420711
 30
0.0
  0
SPLINE
  5
19c
100
AcDbEntity
  8
0
 62
7
100
AcDbSpline
 70
0
 71
3
 72
13
 73
9
 74
7
 40
0.000000
 40
0.000000
 40
0.000000
 40
0.000000
 40
0.248500
 40
0.710000
 40
0.958500
 40
1.553252
 40
2.130364
 40
2.725116
 40
2.725116
 40
2.725116
 40
2.725116
 10
64.132836
 20
366.420711
 30
0.0
 10
64.050007
 20
366.420572
 30
0.0
 10
63.813354
 20
366.420172
 30
0.0
 10
63.493715
 20
366.424256
 30
0.0
 10
63.059269
 20
366.410451
 30
0.0
 10
62.581957
 20
366.523379
 30
0.0
 10
62.129854
 20
366.963676
 30
0.0
 10
62.068151
 20
367.358054
 30
0.0
 10
62.036836
 20
367.558211
 30
0.0
 11
64.132836
 21
366.420711
 31
0.0
 11
63.884336
 21
366.420711
 31
0.0
 11
63.422836
 21
366.420711
 31
0.0
 11
63.174336
 21
366.420711
 31
0.0
 11
62.600218
 21
366.576013
 31
0.0
 11
62.192138
 21
366.984093
 31
0.0
 11
62.036836
 21
367.558211
 31
0.0
  0
LWPOLYLINE
  5
19d
100
AcDbEntity
  8
0
 62
7
100
AcDbPolyline
 90
2
 70
0
 10
62.036836
 20
367.558211
 30
0.0
 10
62.036836
 20
385.433911
 30
0.0
  0
SPLINE
  5
19e
100
AcDbEntity
  8
0
 62
7
100
AcDbSpline
 70
0
 71
3
 72
13
 73
9
 74
7
 40
0.000000
 40
0.000000
 40
0.000000
 40
0.000000
 40
0.297769
 40
0.593074
 40
0.890843
 40
1.188612
 40
1.483916
 40
1.781685
 40
1.781685
 40
1.781685
 40
1.781685
 10
62.036836
 20
385.433911
 30
0.0
 10
62.044419
 20
385.533458
 30
0.0
 10
62.059521
 20
385.731727
 30
0.0
 10
62.178874
 20
386.009096
 30
0.0
 10
62.360457
 20
386.247790
 30
0.0
 10
62.599151
 20
386.429373
 30
0.0
 10
62.876521
 20
386.548726
 30
0.0
 10
63.074789
 20
386.563829
 30
0.0
 10
63.174336
 20
386.571411
 30
0.0
 11
62.036836
 21
385.433911
 31
0.0
 11
62.075807
 21
385.729119
 31
0.0
 11
62.188815
 21
386.001945
 31
0.0
 11
62.370002
 21
386.238245
 31
0.0
 11
62.606302
 21
386.419432
 31
0.0
 11
62.879128
 21
386.532440
 31
0.0
 11
63.174336
 21
386.571411
 31
0.0
  0
LWPOLYLINE
  5
19f
100
AcDbEntity
  8
0
 62
7
100
AcDbPolyline
 90
1
 70
1
 10
63.174336
 20
386.571411
 30
0.0
  0
SPLINE
  5
1a0
100
AcDbEntity
  8
0
 62
7
100
AcDbSpline
 70
0
 71
3
 72
25
 73
21
 74
19
 40
0.000000
 40
0.000000
 40
0.000000
 40
0.000000
 40
0.174563
 40
0.346625
 40
0.521188
 40
0.695751
 40
0.867813
 40
1.042376
 40
1.216939
 40
1.389001
 40
1.563564
 40
1.738127
 40
1.910189
 40
2.084752
 40
2.259315
 40
2.431377
 40
2.605940
 40
2.780502
 40
2.952565
 40
3.127128
 40
3.127128
 40
3.127128
 40
3.127128
 10
342.085836
 20
414.897612
 30
0.0
 10
342.079898
 20
414.956101
 30
0.0
 10
342.068109
 20
415.072241
 30
0.0
 10
341.976105
 20
415.225758
 30
0.0
 10
341.841326
 20
415.339904
 30
0.0
 10
341.674390
 20
415.400447
 30
0.0
 10
341.497243
 20
415.400447
 30
0.0
 10
341.330540
 20
415.339904
 30
0.0
 10
341.194833
 20
415.225758
 30
0.0
 10
341.106274
 20
415.072241
 30
0.0
 10
341.075543
 20
414.897612
 30
0.0
 10
341.106274
 20
414.722983
 30
0.0
 10
341.194833
 20
414.569465
 30
0.0
 10
341.330540
 20
414.455319
 30
0.0
 10
341.497243
 20
414.394776
 30
0.0
 10
341.674390
 20
414.394776
 30
0.0
 10
341.841326
 20
414.455319
 30
0.0
 10
341.976105
 20
414.569465
 30
0.0
 10
342.068109
 20
414.722983
 30
0.0
 10
342.079898
 20
414.839123
 30
0.0
 10
342.085836
 20
414.897612
 30
0.0
 11
342.085836
 21
414.897612
 31
0.0
 11
342.055496
 21
415.069518
 31
0.0
 11
341.969537
 21
415.218570
 31
0.0
 11
341.835941
 21
415.330928
 31
0.0
 11
341.671867
 21
415.390526
 31
0.0
 11
341.499804
 21
415.390526
 31
0.0
 11
341.335731
 21
415.330928
 31
0.0
 11
341.202135
 21
415.218570
 31
0.0
 11
341.116176
 21
415.069518
 31
0.0
 11
341.085836
 21
414.897612
 31
0.0
 11
341.116176
 21
414.725706
 31
0.0
 11
341.202135
 21
414.576654
 31
0.0
 11
341.335731
 21
414.464296
 31
0.0
 11
341.499804
 21
414.404698
 31
0.0
 11
341.671867
 21
414.404698
 31
0.0
 11
341.835941
 21
414.464296
 31
0.0
 11
341.969537
 21
414.576654
 31
0.0
 11
342.055496
 21
414.725706
 31
0.0
 11
342.085836
 21
414.897612
 31
0.0
  0
LWPOLYLINE
  5
1a1
100
AcDbEntity
  8
0
 62
7
100
AcDbPolyline
 90
1
 70
1
 10
342.085836
 20
414.897612
 30
0.0
  0
SPLINE
  5
1a2
100
AcDbEntity
  8
0
 62
7
100
AcDbSpline
 70
0
 71
3
 72
25
 73
21
 74
19
 40
0.000000
 40
0.000000
 40
0.000000
 40
0.000000
 40
0.174563
 40
0.346625
 40
0.521188
 40
0.695751
 40
0.867813
 40
1.042376
 40
1.216939
 40
1.389001
 40
1.563564
 40
1.738127
 40
1.910189
 40
2.084752
 40
2.259315
 40
2.431377
 40
2.605940
 40
2.780502
 40
2.952565
 40
3.127128
 40
3.127128
 40
3.127128
 40
3.127128
 10
342.085836
 20
302.836728
 30
0.0
 10
342.079898
 20
302.895217
 30
0.0
 10
342.068109
 20
303.011357
 30
0.0
 10
341.976105
 20
303.164874
 30
0.0
 10
341.841326
 20
303.279020
 30
0.0
 10
341.674390
 20
303.339563
 30
0.0
 10
341.497243
 20
303.339563
 30
0.0
 10
341.330540
 20
303.279020
 30
0.0
 10
341.194833
 20
303.164874
 30
0.0
 10
341.106274
 20
303.011357
 30
0.0
 10
341.075543
 20
302.836728
 30
0.0
 10
341.106274
 20
302.662099
 30
0.0
 10
341.194833
 20
302.508581
 30
0.0
 10
341.330540
 20
302.394435
 30
0.0
 10
341.497243
 20
302.333892
 30
0.0
 10
341.674390
 20
302.333892
 30
0.0
 10
341.841326
 20
302.394435
 30
0.0
 10
341.976105
 20
302.508581
 30
0.0
 10
342.068109
 20
302.662099
 30
0.0
 10
342.079898
 20
302.778239
 30
0.0
 10
342.085836
 20
302.836728
 30
0.0
 11
342.085836
 21
302.836728
 31
0.0
 11
342.055496
 21
303.008634
 31
0.0
 11
341.969537
 21
303.157686
 31
0.0
 11
341.835941
 21
303.270043
 31
0.0
 11
341.671867
 21
303.329642
 31
0.0
 11
341.499804
 21
303.329642
 31
0.0
 11
341.335731
 21
303.270043
 31
0.0
 11
341.202135
 21
303.157686
 31
0.0
 11
341.116176
 21
303.008634
 31
0.0
 11
341.085836
 21
302.836728
 31
0.0
 11
341.116176
 21
302.664822
 31
0.0
 11
341.202135
 21
302.515770
 31
0.0
 11
341.335731
 21
302.403412
 31
0.0
 11
341.499804
 21
302.343814
 31
0.0
 11
341.671867
 21
302.343814
 31
0.0
 11
341.835941
 21
302.403412
 31
0.0
 11
341.969537
 21
302.515770
 31
0.0
 11
342.055496
 21
302.664822
 31
0.0
 11
342.085836
 21
302.836728
 31
0.0
  0
LWPOLYLINE
  5
1a3
100
AcDbEntity
  8
0
 62
7
100
AcDbPolyline
 90
1
 70
1
 10
342.085836
 20
302.836728
 30
0.0
  0
SPLINE
  5
1a4
100
AcDbEntity
  8
0
 62
7
100
AcDbSpline
 70
0
 71
3
 72
25
 73
21
 74
19
 40
0.000000
 40
0.000000
 40
0.000000
 40
0.000000
 40
0.174563
 40
0.346625
 40
0.521188
 40
0.695751
 40
0.867813
 40
1.042376
 40
1.216939
 40
1.389001
 40
1.563564
 40
1.738127
 40
1.910189
 40
2.084752
 40
2.259315
 40
2.431377
 40
2.605940
 40
2.780502
 40
2.952565
 40
3.127128
 40
3.127128
 40
3.127128
 40
3.127128
 10
342.085836
 20
308.586728
 30
0.0
 10
342.079898
 20
308.645217
 30
0.0
 10
342.068109
 20
308.761357
 30
0.0
 10
341.976105
 20
308.914874
 30
0.0
 10
341.841326
 20
309.029020
 30
0.0
 10
341.674390
 20
309.089563
 30
0.0
 10
341.497243
 20
309.089563
 30
0.0
 10
341.330540
 20
309.029020
 30
0.0
 10
341.194833
 20
308.914874
 30
0.0
 10
341.106274
 20
308.761357
 30
0.0
 10
341.075543
 20
308.586728
 30
0.0
 10
341.106274
 20
308.412099
 30
0.0
 10
341.194833
 20
308.258581
 30
0.0
 10
341.330540
 20
308.144435
 30
0.0
 10
341.497243
 20
308.083892
 30
0.0
 10
341.674390
 20
308.083892
 30
0.0
 10
341.841326
 20
308.144435
 30
0.0
 10
341.976105
 20
308.258581
 30
0.0
 10
342.068109
 20
308.412099
 30
0.0
 10
342.079898
 20
308.528239
 30
0.0
 10
342.085836
 20
308.586728
 30
0.0
 11
342.085836
 21
308.586728
 31
0.0
 11
342.055496
 21
308.758634
 31
0.0
 11
341.969537
 21
308.907686
 31
0.0
 11
341.835941
 21
309.020044
 31
0.0
 11
341.671867
 21
309.079642
 31
0.0
 11
341.499804
 21
309.079642
 31
0.0
 11
341.335731
 21
309.020044
 31
0.0
 11
341.202135
 21
308.907686
 31
0.0
 11
341.116176
 21
308.758634
 31
0.0
 11
341.085836
 21
308.586728
 31
0.0
 11
341.116176
 21
308.414822
 31
0.0
 11
341.202135
 21
308.265770
 31
0.0
 11
341.335731
 21
308.153412
 31
0.0
 11
341.499804
 21
308.093814
 31
0.0
 11
341.671867
 21
308.093814
 31
0.0
 11
341.835941
 21
308.153412
 31
0.0
 11
341.969537
 21
308.265770
 31
0.0
 11
342.055496
 21
308.414822
 31
0.0
 11
342.085836
 21
308.586728
 31
0.0
  0
LWPOLYLINE
  5
1a5
100
AcDbEntity
  8
0
 62
7
100
AcDbPolyline
 90
1
 70
1
 10
342.085836
 20
308.586728
 30
0.0
  0
SPLINE
  5
1a6
100
AcDbEntity
  8
0
 62
7
100
AcDbSpline
 70
0
 71
3
 72
25
 73
21
 74
19
 40
0.000000
 40
0.000000
 40
0.000000
 40
0.000000
 40
0.174563
 40
0.346625
 40
0.521188
 40
0.695751
 40
0.867813
 40
1.042376
 40
1.216939
 40
1.389001
 40
1.563564
 40
1.738127
 40
1.910189
 40
2.084752
 40
2.259315
 40
2.431377
 40
2.605940
 40
2.780502
 40
2.952565
 40
3.127128
 40
3.127128
 40
3.127128
 40
3.127128
 10
342.085836
 20
314.336728
 30
0.0
 10
342.079898
 20
314.395217
 30
0.0
 10
342.068109
 20
314.511357
 30
0.0
 10
341.976105
 20
314.664874
 30
0.0
 10
341.841326
 20
314.779020
 30
0.0
 10
341.674390
 20
314.839563
 30
0.0
 10
341.497243
 20
314.839563
 30
0.0
 10
341.330540
 20
314.779020
 30
0.0
 10
341.194833
 20
314.664874
 30
0.0
 10
341.106274
 20
314.511357
 30
0.0
 10
341.075543
 20
314.336728
 30
0.0
 10
341.106274
 20
314.162099
 30
0.0
 10
341.194833
 20
314.008581
 30
0.0
 10
341.330540
 20
313.894435
 30
0.0
 10
341.497243
 20
313.833892
 30
0.0
 10
341.674390
 20
313.833892
 30
0.0
 10
341.841326
 20
313.894435
 30
0.0
 10
341.976105
 20
314.008581
 30
0.0
 10
342.068109
 20
314.162099
 30
0.0
 10
342.079898
 20
314.278239
 30
0.0
 10
342.085836
 20
314.336728
 30
0.0
 11
342.085836
 21
314.336728
 31
0.0
 11
342.055496
 21
314.508634
 31
0.0
 11
341.969537
 21
314.657686
 31
0.0
 11
341.835941
 21
314.770044
 31
0.0
 11
341.671867
 21
314.829642
 31
0.0
 11
341.499804
 21
314.829642
 31
0.0
 11
341.335731
 21
314.770044
 31
0.0
 11
341.202135
 21
314.657686
 31
0.0
 11
341.116176
 21
314.508634
 31
0.0
 11
341.085836
 21
314.336728
 31
0.0
 11
341.116176
 21
314.164822
 31
0.0
 11
341.202135
 21
314.015770
 31
0.0
 11
341.335731
 21
313.903412
 31
0.0
 11
341.499804
 21
313.843814
 31
0.0
 11
341.671867
 21
313.843814
 31
0.0
 11
341.835941
 21
313.903412
 31
0.0
 11
341.969537
 21
314.015770
 31
0.0
 11
342.055496
 21
314.164822
 31
0.0
 11
342.085836
 21
314.336728
 31
0.0
  0
LWPOLYLINE
  5
1a7
100
AcDbEntity
  8
0
 62
7
100
AcDbPolyline
 90
1
 70
1
 10
342.085836
 20
314.336728
 30
0.0
  0
SPLINE
  5
1a8
100
AcDbEntity
  8
0
 62
7
100
AcDbSpline
 70
0
 71
3
 72
40
 73
36
 74
34
 40
0.000000
 40
0.000000
 40
0.000000
 40
0.000000
 40
1.570649
 40
3.128301
 40
4.698950
 40
6.269600
 40
7.827251
 40
9.397900
 40
32.811539
 40
76.294011
 40
99.707649
 40
101.278298
 40
102.835950
 40
104.406599
 40
105.977249
 40
107.534901
 40
109.105550
 40
181.855513
 40
316.962587
 40
389.712550
 40
391.283199
 40
392.840851
 40
394.411500
 40
395.982149
 40
397.539801
 40
399.110450
 40
422.524089
 40
466.006560
 40
489.420199
 40
490.990848
 40
492.548500
 40
494.119149
 40
495.689799
 40
497.247450
 40
498.818099
 40
498.818099
 40
498.818099
 40
498.818099
 10
342.193836
 20
330.131863
 30
0.0
 10
342.718913
 20
330.171861
 30
0.0
 10
343.764723
 20
330.251524
 30
0.0
 10
345.227796
 20
330.881077
 30
0.0
 10
346.486745
 20
331.838872
 30
0.0
 10
347.444913
 20
333.097935
 30
0.0
 10
348.073098
 20
334.560926
 30
0.0
 10
348.778001
 20
343.435274
 30
0.0
 10
347.783156
 20
366.212308
 30
0.0
 10
347.783156
 20
396.361161
 30
0.0
 10
348.778001
 20
419.138210
 30
0.0
 10
348.073098
 20
428.012547
 30
0.0
 10
347.444913
 20
429.475547
 30
0.0
 10
346.486746
 20
430.734577
 30
0.0
 10
345.227792
 20
431.692496
 30
0.0
 10
343.764738
 20
432.321590
 30
0.0
 10
318.397031
 20
434.281652
 30
0.0
 10
248.732087
 20
431.112823
 30
0.0
 10
155.048585
 20
431.112823
 30
0.0
 10
85.383640
 20
434.281652
 30
0.0
 10
60.015933
 20
432.321590
 30
0.0
 10
58.552879
 20
431.692496
 30
0.0
 10
57.293925
 20
430.734577
 30
0.0
 10
56.335758
 20
429.475547
 30
0.0
 10
55.707574
 20
428.012547
 30
0.0
 10
55.002671
 20
419.138210
 30
0.0
 10
55.997515
 20
396.361161
 30
0.0
 10
55.997516
 20
366.212308
 30
0.0
 10
55.002670
 20
343.435274
 30
0.0
 10
55.707574
 20
334.560926
 30
0.0
 10
56.335758
 20
333.097935
 30
0.0
 10
57.293926
 20
331.838872
 30
0.0
 10
58.552875
 20
330.881077
 30
0.0
 10
60.015948
 20
330.251524
 30
0.0
 10
61.061758
 20
330.171861
 30
0.0
 10
61.586836
 20
330.131863
 30
0.0
 11
342.193836
 21
330.131863
 31
0.0
 11
343.750975
 21
330.337426
 31
0.0
 11
345.190057
 21
330.933514
 31
0.0
 11
346.436476
 21
331.889222
 31
0.0
 11
347.392185
 21
333.135641
 31
0.0
 11
347.988273
 21
334.574724
 31
0.0
 11
348.193836
 21
336.131863
 31
0.0
 11
348.193836
 21
359.545502
 31
0.0
 11
348.193836
 21
403.027973
 31
0.0
 11
348.193836
 21
426.441612
 31
0.0
 11
347.988273
 21
427.998751
 31
0.0
 11
347.392185
 21
429.437834
 31
0.0
 11
346.436476
 21
430.684253
 31
0.0
 11
345.190057
 21
431.639961
 31
0.0
 11
343.750975
 21
432.236049
 31
0.0
 11
342.193836
 21
432.441612
 31
0.0
 11
269.443873
 21
432.441612
 31
0.0
 11
134.336799
 21
432.441612
 31
0.0
 11
61.586836
 21
432.441612
 31
0.0
 11
60.029696
 21
432.236049
 31
0.0
 11
58.590614
 21
431.639961
 31
0.0
 11
57.344195
 21
430.684253
 31
0.0
 11
56.388486
 21
429.437834
 31
0.0
 11
55.792399
 21
427.998751
 31
0.0
 11
55.586836
 21
426.441612
 31
0.0
 11
55.586836
 21
403.027973
 31
0.0
 11
55.586836
 21
359.545502
 31
0.0
 11
55.586836
 21
336.131863
 31
0.0
 11
55.792399
 21
334.574724
 31
0.0
 11
56.388486
 21
333.135641
 31
0.0
 11
57.344195
 21
331.889222
 31
0.0
 11
58.590614
 21
330.933514
 31
0.0
 11
60.029696
 21
330.337426
 31
0.0
 11
61.586836
 21
330.131863
 31
0.0
  0
LWPOLYLINE
  5
1a9
100
AcDbEntity
  8
0
 62
7
100
AcDbPolyline
 90
3
 70
0
 10
61.586836
 20
330.131863
 30
0.0
 10
342.193836
 20
330.131863
 30
0.0
 10
342.193836
 20
330.131863
 30
0.0
  0
SPLINE
  5
1aa
100
AcDbEntity
  8
0
 62
7
100
AcDbSpline
 70
0
 71
3
 72
25
 73
21
 74
19
 40
0.000000
 40
0.000000
 40
0.000000
 40
0.000000
 40
0.549762
 40
1.091652
 40
1.641413
 40
2.191175
 40
2.733065
 40
3.282827
 40
3.832589
 40
4.374479
 40
4.924240
 40
5.474002
 40
6.015892
 40
6.565654
 40
7.115415
 40
7.657305
 40
8.207067
 40
8.756829
 40
9.298719
 40
9.848480
 40
9.848480
 40
9.848480
 40
9.848480
 10
75.161836
 20
428.941612
 30
0.0
 10
75.143083
 20
429.125809
 30
0.0
 10
75.105846
 20
429.491565
 30
0.0
 10
74.815993
 20
429.974982
 30
0.0
 10
74.391475
 20
430.334407
 30
0.0
 10
73.865724
 20
430.525041
 30
0.0
 10
73.307827
 20
430.525041
 30
0.0
 10
72.782810
 20
430.334407
 30
0.0
 10
72.355363
 20
429.974982
 30
0.0
 10
72.076393
 20
429.491565
 30
0.0
 10
71.979325
 20
428.941612
 30
0.0
 10
72.076393
 20
428.391659
 30
0.0
 10
72.355363
 20
427.908242
 30
0.0
 10
72.782810
 20
427.548817
 30
0.0
 10
73.307827
 20
427.358183
 30
0.0
 10
73.865724
 20
427.358183
 30
0.0
 10
74.391475
 20
427.548817
 30
0.0
 10
74.815993
 20
427.908242
 30
0.0
 10
75.105846
 20
428.391659
 30
0.0
 10
75.143083
 20
428.757415
 30
0.0
 10
75.161836
 20
428.941612
 30
0.0
 11
75.161836
 21
428.941612
 31
0.0
 11
75.066131
 21
429.482979
 31
0.0
 11
74.795314
 21
429.952344
 31
0.0
 11
74.374522
 21
430.306140
 31
0.0
 11
73.857781
 21
430.493800
 31
0.0
 11
73.315891
 21
430.493800
 31
0.0
 11
72.799149
 21
430.306140
 31
0.0
 11
72.378357
 21
429.952344
 31
0.0
 11
72.107540
 21
429.482979
 31
0.0
 11
72.011836
 21
428.941612
 31
0.0
 11
72.107540
 21
428.400244
 31
0.0
 11
72.378357
 21
427.930880
 31
0.0
 11
72.799149
 21
427.577084
 31
0.0
 11
73.315891
 21
427.389424
 31
0.0
 11
73.857781
 21
427.389424
 31
0.0
 11
74.374522
 21
427.577084
 31
0.0
 11
74.795314
 21
427.930880
 31
0.0
 11
75.066131
 21
428.400244
 31
0.0
 11
75.161836
 21
428.941612
 31
0.0
  0
LWPOLYLINE
  5
1ab
100
AcDbEntity
  8
0
 62
7
100
AcDbPolyline
 90
1
 70
1
 10
75.161836
 20
428.941612
 30
0.0
  0
SPLINE
  5
1ac
100
AcDbEntity
  8
0
 62
7
100
AcDbSpline
 70
0
 71
3
 72
25
 73
21
 74
19
 40
0.000000
 40
0.000000
 40
0.000000
 40
0.000000
 40
0.549619
 40
1.091371
 40
1.640990
 40
2.190608
 40
2.732361
 40
3.281979
 40
3.831598
 40
4.373351
 40
4.922969
 40
5.472588
 40
6.014340
 40
6.563959
 40
7.113577
 40
7.655330
 40
8.204948
 40
8.754567
 40
9.296320
 40
9.845938
 40
9.845938
 40
9.845938
 40
9.845938
 10
200.181836
 20
340.131863
 30
0.0
 10
200.163018
 20
340.316004
 30
0.0
 10
200.125651
 20
340.681649
 30
0.0
 10
199.835746
 20
341.164856
 30
0.0
 10
199.411276
 20
341.524107
 30
0.0
 10
198.885650
 20
341.714642
 30
0.0
 10
198.327901
 20
341.714642
 30
0.0
 10
197.803011
 20
341.524107
 30
0.0
 10
197.375602
 20
341.164856
 30
0.0
 10
197.096618
 20
340.681649
 30
0.0
 10
196.999211
 20
340.131863
 30
0.0
 10
197.096618
 20
339.582077
 30
0.0
 10
197.375602
 20
339.098870
 30
0.0
 10
197.803011
 20
338.739619
 30
0.0
 10
198.327901
 20
338.549084
 30
0.0
 10
198.885650
 20
338.549084
 30
0.0
 10
199.411276
 20
338.739619
 30
0.0
 10
199.835746
 20
339.098870
 30
0.0
 10
200.125651
 20
339.582077
 30
0.0
 10
200.163018
 20
339.947722
 30
0.0
 10
200.181836
 20
340.131863
 30
0.0
 11
200.181836
 21
340.131863
 31
0.0
 11
200.085959
 21
340.673055
 31
0.0
 11
199.815083
 21
341.142226
 31
0.0
 11
199.394336
 21
341.495853
 31
0.0
 11
198.877712
 21
341.683418
 31
0.0
 11
198.335959
 21
341.683418
 31
0.0
 11
197.819336
 21
341.495853
 31
0.0
 11
197.398588
 21
341.142226
 31
0.0
 11
197.127712
 21
340.673055
 31
0.0
 11
197.031836
 21
340.131863
 31
0.0
 11
197.127712
 21
339.590671
 31
0.0
 11
197.398588
 21
339.121500
 31
0.0
 11
197.819336
 21
338.767873
 31
0.0
 11
198.335959
 21
338.580308
 31
0.0
 11
198.877712
 21
338.580308
 31
0.0
 11
199.394336
 21
338.767873
 31
0.0
 11
199.815083
 21
339.121500
 31
0.0
 11
200.085959
 21
339.590671
 31
0.0
 11
200.181836
 21
340.131863
 31
0.0
  0
LWPOLYLINE
  5
1ad
100
AcDbEntity
  8
0
 62
7
100
AcDbPolyline
 90
1
 70
1
 10
200.181836
 20
340.131863
 30
0.0
  0
SPLINE
  5
1ae
100
AcDbEntity
  8
0
 62
7
100
AcDbSpline
 70
0
 71
3
 72
25
 73
21
 74
19
 40
0.000000
 40
0.000000
 40
0.000000
 40
0.000000
 40
0.549618
 40
1.091371
 40
1.640990
 40
2.190608
 40
2.732361
 40
3.281979
 40
3.831598
 40
4.373350
 40
4.922969
 40
5.472587
 40
6.014340
 40
6.563958
 40
7.113577
 40
7.655329
 40
8.204948
 40
8.754566
 40
9.296319
 40
9.845937
 40
9.845937
 40
9.845937
 40
9.845937
 10
331.768836
 20
340.131863
 30
0.0
 10
331.750018
 20
340.316004
 30
0.0
 10
331.712651
 20
340.681649
 30
0.0
 10
331.422746
 20
341.164856
 30
0.0
 10
330.998276
 20
341.524107
 30
0.0
 10
330.472650
 20
341.714642
 30
0.0
 10
329.914901
 20
341.714642
 30
0.0
 10
329.390011
 20
341.524107
 30
0.0
 10
328.962602
 20
341.164856
 30
0.0
 10
328.683618
 20
340.681649
 30
0.0
 10
328.586211
 20
340.131863
 30
0.0
 10
328.683618
 20
339.582077
 30
0.0
 10
328.962602
 20
339.098870
 30
0.0
 10
329.390011
 20
338.739619
 30
0.0
 10
329.914901
 20
338.549084
 30
0.0
 10
330.472650
 20
338.549084
 30
0.0
 10
330.998276
 20
338.739619
 30
0.0
 10
331.422746
 20
339.098870
 30
0.0
 10
331.712651
 20
339.582077
 30
0.0
 10
331.750018
 20
339.947722
 30
0.0
 10
331.768836
 20
340.131863
 30
0.0
 11
331.768836
 21
340.131863
 31
0.0
 11
331.672959
 21
340.673055
 31
0.0
 11
331.402083
 21
341.142226
 31
0.0
 11
330.981336
 21
341.495853
 31
0.0
 11
330.464712
 21
341.683418
 31
0.0
 11
329.922959
 21
341.683418
 31
0.0
 11
329.406336
 21
341.495853
 31
0.0
 11
328.985588
 21
341.142226
 31
0.0
 11
328.714712
 21
340.673055
 31
0.0
 11
328.618836
 21
340.131863
 31
0.0
 11
328.714712
 21
339.590672
 31
0.0
 11
328.985588
 21
339.121500
 31
0.0
 11
329.406336
 21
338.767873
 31
0.0
 11
329.922959
 21
338.580309
 31
0.0
 11
330.464712
 21
338.580309
 31
0.0
 11
330.981336
 21
338.767873
 31
0.0
 11
331.402083
 21
339.121500
 31
0.0
 11
331.672959
 21
339.590672
 31
0.0
 11
331.768836
 21
340.131863
 31
0.0
  0
LWPOLYLINE
  5
1af
100
AcDbEntity
  8
0
 62
7
100
AcDbPolyline
 90
1
 70
1
 10
331.768836
 20
340.131863
 30
0.0
  0
SPLINE
  5
1b0
100
AcDbEntity
  8
0
 62
7
100
AcDbSpline
 70
0
 71
3
 72
25
 73
21
 74
19
 40
0.000000
 40
0.000000
 40
0.000000
 40
0.000000
 40
0.549619
 40
1.091371
 40
1.640990
 40
2.190608
 40
2.732361
 40
3.281979
 40
3.831598
 40
4.373351
 40
4.922969
 40
5.472588
 40
6.014340
 40
6.563959
 40
7.113577
 40
7.655330
 40
8.204948
 40
8.754567
 40
9.296320
 40
9.845938
 40
9.845938
 40
9.845938
 40
9.845938
 10
200.181836
 20
428.941612
 30
0.0
 10
200.163018
 20
429.125752
 30
0.0
 10
200.125651
 20
429.491398
 30
0.0
 10
199.835746
 20
429.974605
 30
0.0
 10
199.411276
 20
430.333856
 30
0.0
 10
198.885650
 20
430.524391
 30
0.0
 10
198.327901
 20
430.524391
 30
0.0
 10
197.803011
 20
430.333856
 30
0.0
 10
197.375602
 20
429.974605
 30
0.0
 10
197.096618
 20
429.491398
 30
0.0
 10
196.999211
 20
428.941612
 30
0.0
 10
197.096618
 20
428.391825
 30
0.0
 10
197.375602
 20
427.908619
 30
0.0
 10
197.803011
 20
427.549367
 30
0.0
 10
198.327901
 20
427.358832
 30
0.0
 10
198.885650
 20
427.358832
 30
0.0
 10
199.411276
 20
427.549367
 30
0.0
 10
199.835746
 20
427.908619
 30
0.0
 10
200.125651
 20
428.391825
 30
0.0
 10
200.163018
 20
428.757471
 30
0.0
 10
200.181836
 20
428.941612
 30
0.0
 11
200.181836
 21
428.941612
 31
0.0
 11
200.085959
 21
429.482803
 31
0.0
 11
199.815083
 21
429.951975
 31
0.0
 11
199.394336
 21
430.305602
 31
0.0
 11
198.877712
 21
430.493166
 31
0.0
 11
198.335959
 21
430.493166
 31
0.0
 11
197.819336
 21
430.305602
 31
0.0
 11
197.398588
 21
429.951975
 31
0.0
 11
197.127712
 21
429.482803
 31
0.0
 11
197.031836
 21
428.941612
 31
0.0
 11
197.127712
 21
428.400420
 31
0.0
 11
197.398588
 21
427.931249
 31
0.0
 11
197.819336
 21
427.577622
 31
0.0
 11
198.335959
 21
427.390057
 31
0.0
 11
198.877712
 21
427.390057
 31
0.0
 11
199.394336
 21
427.577622
 31
0.0
 11
199.815083
 21
427.931249
 31
0.0
 11
200.085959
 21
428.400420
 31
0.0
 11
200.181836
 21
428.941612
 31
0.0
  0
LWPOLYLINE
  5
1b1
100
AcDbEntity
  8
0
 62
7
100
AcDbPolyline
 90
1
 70
1
 10
200.181836
 20
428.941612
 30
0.0
  0
SPLINE
  5
1b2
100
AcDbEntity
  8
0
 62
7
100
AcDbSpline
 70
0
 71
3
 72
25
 73
21
 74
19
 40
0.000000
 40
0.000000
 40
0.000000
 40
0.000000
 40
0.174563
 40
0.346625
 40
0.521188
 40
0.695751
 40
0.867813
 40
1.042376
 40
1.216939
 40
1.389001
 40
1.563564
 40
1.738127
 40
1.910189
 40
2.084752
 40
2.259315
 40
2.431377
 40
2.605940
 40
2.780502
 40
2.952565
 40
3.127128
 40
3.127128
 40
3.127128
 40
3.127128
 10
342.085836
 20
409.147612
 30
0.0
 10
342.079898
 20
409.206101
 30
0.0
 10
342.068109
 20
409.322241
 30
0.0
 10
341.976105
 20
409.475759
 30
0.0
 10
341.841326
 20
409.589904
 30
0.0
 10
341.674390
 20
409.650448
 30
0.0
 10
341.497243
 20
409.650448
 30
0.0
 10
341.330540
 20
409.589904
 30
0.0
 10
341.194833
 20
409.475759
 30
0.0
 10
341.106274
 20
409.322241
 30
0.0
 10
341.075543
 20
409.147612
 30
0.0
 10
341.106274
 20
408.972983
 30
0.0
 10
341.194833
 20
408.819465
 30
0.0
 10
341.330540
 20
408.705319
 30
0.0
 10
341.497243
 20
408.644776
 30
0.0
 10
341.674390
 20
408.644776
 30
0.0
 10
341.841326
 20
408.705319
 30
0.0
 10
341.976105
 20
408.819465
 30
0.0
 10
342.068109
 20
408.972983
 30
0.0
 10
342.079898
 20
409.089123
 30
0.0
 10
342.085836
 20
409.147612
 30
0.0
 11
342.085836
 21
409.147612
 31
0.0
 11
342.055496
 21
409.319518
 31
0.0
 11
341.969537
 21
409.468570
 31
0.0
 11
341.835941
 21
409.580928
 31
0.0
 11
341.671867
 21
409.640526
 31
0.0
 11
341.499804
 21
409.640526
 31
0.0
 11
341.335731
 21
409.580928
 31
0.0
 11
341.202135
 21
409.468570
 31
0.0
 11
341.116176
 21
409.319518
 31
0.0
 11
341.085836
 21
409.147612
 31
0.0
 11
341.116176
 21
408.975706
 31
0.0
 11
341.202135
 21
408.826654
 31
0.0
 11
341.335731
 21
408.714296
 31
0.0
 11
341.499804
 21
408.654698
 31
0.0
 11
341.671867
 21
408.654698
 31
0.0
 11
341.835941
 21
408.714296
 31
0.0
 11
341.969537
 21
408.826654
 31
0.0
 11
342.055496
 21
408.975706
 31
0.0
 11
342.085836
 21
409.147612
 31
0.0
  0
LWPOLYLINE
  5
1b3
100
AcDbEntity
  8
0
 62
7
100
AcDbPolyline
 90
1
 70
1
 10
342.085836
 20
409.147612
 30
0.0
  0
SPLINE
  5
1b4
100
AcDbEntity
  8
0
 62
7
100
AcDbSpline
 70
0
 71
3
 72
25
 73
21
 74
19
 40
0.000000
 40
0.000000
 40
0.000000
 40
0.000000
 40
0.549762
 40
1.091652
 40
1.641413
 40
2.191175
 40
2.733065
 40
3.282827
 40
3.832589
 40
4.374479
 40
4.924240
 40
5.474002
 40
6.015892
 40
6.565654
 40
7.115415
 40
7.657305
 40
8.207067
 40
8.756829
 40
9.298719
 40
9.848480
 40
9.848480
 40
9.848480
 40
9.848480
 10
75.161836
 20
340.131863
 30
0.0
 10
75.143083
 20
340.316060
 30
0.0
 10
75.105846
 20
340.681816
 30
0.0
 10
74.815993
 20
341.165233
 30
0.0
 10
74.391475
 20
341.524658
 30
0.0
 10
73.865724
 20
341.715292
 30
0.0
 10
73.307827
 20
341.715292
 30
0.0
 10
72.782810
 20
341.524658
 30
0.0
 10
72.355363
 20
341.165233
 30
0.0
 10
72.076393
 20
340.681816
 30
0.0
 10
71.979325
 20
340.131863
 30
0.0
 10
72.076393
 20
339.581910
 30
0.0
 10
72.355363
 20
339.098493
 30
0.0
 10
72.782810
 20
338.739068
 30
0.0
 10
73.307827
 20
338.548434
 30
0.0
 10
73.865724
 20
338.548434
 30
0.0
 10
74.391475
 20
338.739068
 30
0.0
 10
74.815993
 20
339.098493
 30
0.0
 10
75.105846
 20
339.581910
 30
0.0
 10
75.143083
 20
339.947666
 30
0.0
 10
75.161836
 20
340.131863
 30
0.0
 11
75.161836
 21
340.131863
 31
0.0
 11
75.066131
 21
340.673230
 31
0.0
 11
74.795314
 21
341.142595
 31
0.0
 11
74.374522
 21
341.496391
 31
0.0
 11
73.857781
 21
341.684051
 31
0.0
 11
73.315891
 21
341.684051
 31
0.0
 11
72.799149
 21
341.496391
 31
0.0
 11
72.378357
 21
341.142595
 31
0.0
 11
72.107540
 21
340.673230
 31
0.0
 11
72.011836
 21
340.131863
 31
0.0
 11
72.107540
 21
339.590496
 31
0.0
 11
72.378357
 21
339.121131
 31
0.0
 11
72.799149
 21
338.767335
 31
0.0
 11
73.315891
 21
338.579675
 31
0.0
 11
73.857781
 21
338.579675
 31
0.0
 11
74.374522
 21
338.767335
 31
0.0
 11
74.795314
 21
339.121131
 31
0.0
 11
75.066131
 21
339.590496
 31
0.0
 11
75.161836
 21
340.131863
 31
0.0
  0
LWPOLYLINE
  5
1b5
100
AcDbEntity
  8
0
 62
7
100
AcDbPolyline
 90
1
 70
1
 10
75.161836
 20
340.131863
 30
0.0
  0
SPLINE
  5
1b6
100
AcDbEntity
  8
0
 62
7
100
AcDbSpline
 70
0
 71
3
 72
25
 73
21
 74
19
 40
0.000000
 40
0.000000
 40
0.000000
 40
0.000000
 40
0.174563
 40
0.346625
 40
0.521188
 40
0.695751
 40
0.867813
 40
1.042376
 40
1.216939
 40
1.389001
 40
1.563564
 40
1.738127
 40
1.910189
 40
2.084752
 40
2.259315
 40
2.431377
 40
2.605940
 40
2.780502
 40
2.952565
 40
3.127128
 40
3.127128
 40
3.127128
 40
3.127128
 10
342.085836
 20
420.647612
 30
0.0
 10
342.079898
 20
420.706101
 30
0.0
 10
342.068109
 20
420.822241
 30
0.0
 10
341.976105
 20
420.975759
 30
0.0
 10
341.841326
 20
421.089904
 30
0.0
 10
341.674390
 20
421.150448
 30
0.0
 10
341.497243
 20
421.150448
 30
0.0
 10
341.330540
 20
421.089904
 30
0.0
 10
341.194833
 20
420.975759
 30
0.0
 10
341.106274
 20
420.822241
 30
0.0
 10
341.075543
 20
420.647612
 30
0.0
 10
341.106274
 20
420.472983
 30
0.0
 10
341.194833
 20
420.319465
 30
0.0
 10
341.330540
 20
420.205319
 30
0.0
 10
341.497243
 20
420.144776
 30
0.0
 10
341.674390
 20
420.144776
 30
0.0
 10
341.841326
 20
420.205319
 30
0.0
 10
341.976105
 20
420.319465
 30
0.0
 10
342.068109
 20
420.472983
 30
0.0
 10
342.079898
 20
420.589123
 30
0.0
 10
342.085836
 20
420.647612
 30
0.0
 11
342.085836
 21
420.647612
 31
0.0
 11
342.055496
 21
420.819518
 31
0.0
 11
341.969537
 21
420.968570
 31
0.0
 11
341.835941
 21
421.080928
 31
0.0
 11
341.671867
 21
421.140526
 31
0.0
 11
341.499804
 21
421.140526
 31
0.0
 11
341.335731
 21
421.080928
 31
0.0
 11
341.202135
 21
420.968570
 31
0.0
 11
341.116176
 21
420.819518
 31
0.0
 11
341.085836
 21
420.647612
 31
0.0
 11
341.116176
 21
420.475706
 31
0.0
 11
341.202135
 21
420.326654
 31
0.0
 11
341.335731
 21
420.214296
 31
0.0
 11
341.499804
 21
420.154698
 31
0.0
 11
341.671867
 21
420.154698
 31
0.0
 11
341.835941
 21
420.214296
 31
0.0
 11
341.969537
 21
420.326654
 31
0.0
 11
342.055496
 21
420.475706
 31
0.0
 11
342.085836
 21
420.647612
 31
0.0
  0
LWPOLYLINE
  5
1b7
100
AcDbEntity
  8
0
 62
7
100
AcDbPolyline
 90
1
 70
1
 10
342.085836
 20
420.647612
 30
0.0
  0
LWPOLYLINE
  5
1b8
100
AcDbEntity
  8
0
 62
7
100
AcDbPolyline
 90
1
 70
1
 10
331.768836
 20
428.941612
 30
0.0
  0
SPLINE
  5
1b9
100
AcDbEntity
  8
0
 62
7
100
AcDbSpline
 70
0
 71
3
 72
25
 73
21
 74
19
 40
0.000000
 40
0.000000
 40
0.000000
 40
0.000000
 40
0.549618
 40
1.091371
 40
1.640990
 40
2.190608
 40
2.732361
 40
3.281979
 40
3.831598
 40
4.373350
 40
4.922969
 40
5.472587
 40
6.014340
 40
6.563958
 40
7.113577
 40
7.655329
 40
8.204948
 40
8.754566
 40
9.296319
 40
9.845937
 40
9.845937
 40
9.845937
 40
9.845937
 10
331.768836
 20
428.941612
 30
0.0
 10
331.750018
 20
429.125752
 30
0.0
 10
331.712651
 20
429.491398
 30
0.0
 10
331.422746
 20
429.974605
 30
0.0
 10
330.998276
 20
430.333856
 30
0.0
 10
330.472650
 20
430.524391
 30
0.0
 10
329.914901
 20
430.524391
 30
0.0
 10
329.390011
 20
430.333856
 30
0.0
 10
328.962602
 20
429.974605
 30
0.0
 10
328.683618
 20
429.491398
 30
0.0
 10
328.586211
 20
428.941612
 30
0.0
 10
328.683618
 20
428.391825
 30
0.0
 10
328.962602
 20
427.908619
 30
0.0
 10
329.390011
 20
427.549368
 30
0.0
 10
329.914901
 20
427.358833
 30
0.0
 10
330.472650
 20
427.358833
 30
0.0
 10
330.998276
 20
427.549368
 30
0.0
 10
331.422746
 20
427.908619
 30
0.0
 10
331.712651
 20
428.391825
 30
0.0
 10
331.750018
 20
428.757471
 30
0.0
 10
331.768836
 20
428.941612
 30
0.0
 11
331.768836
 21
428.941612
 31
0.0
 11
331.672959
 21
429.482803
 31
0.0
 11
331.402083
 21
429.951975
 31
0.0
 11
330.981336
 21
430.305602
 31
0.0
 11
330.464712
 21
430.493166
 31
0.0
 11
329.922959
 21
430.493166
 31
0.0
 11
329.406336
 21
430.305602
 31
0.0
 11
328.985588
 21
429.951975
 31
0.0
 11
328.714712
 21
429.482803
 31
0.0
 11
328.618836
 21
428.941612
 31
0.0
 11
328.714712
 21
428.400420
 31
0.0
 11
328.985588
 21
427.931249
 31
0.0
 11
329.406336
 21
427.577622
 31
0.0
 11
329.922959
 21
427.390057
 31
0.0
 11
330.464712
 21
427.390057
 31
0.0
 11
330.981336
 21
427.577622
 31
0.0
 11
331.402083
 21
427.931249
 31
0.0
 11
331.672959
 21
428.400420
 31
0.0
 11
331.768836
 21
428.941612
 31
0.0
  0
LWPOLYLINE
  5
1ba
100
AcDbEntity
  8
0
 62
7
100
AcDbPolyline
 90
2
 70
0
 10
78.745336
 20
-2.393021
 30
0.0
 10
67.137336
 20
-2.393021
 30
0.0
  0
SPLINE
  5
1bb
100
AcDbEntity
  8
0
 62
7
100
AcDbSpline
 70
0
 71
3
 72
13
 73
9
 74
7
 40
0.000000
 40
0.000000
 40
0.000000
 40
0.000000
 40
0.415568
 40
0.827696
 40
1.243264
 40
1.658832
 40
2.070960
 40
2.486528
 40
2.486528
 40
2.486528
 40
2.486528
 10
67.137336
 20
-2.393021
 30
0.0
 10
66.998408
 20
-2.403604
 30
0.0
 10
66.721703
 20
-2.424681
 30
0.0
 10
66.334606
 20
-2.591250
 30
0.0
 10
66.001483
 20
-2.844668
 30
0.0
 10
65.748065
 20
-3.177791
 30
0.0
 10
65.581496
 20
-3.564889
 30
0.0
 10
65.560418
 20
-3.841594
 30
0.0
 10
65.549836
 20
-3.980521
 30
0.0
 11
67.137336
 21
-2.393021
 31
0.0
 11
66.725342
 21
-2.447410
 31
0.0
 11
66.344585
 21
-2.605124
 31
0.0
 11
66.014804
 21
-2.857989
 31
0.0
 11
65.761939
 21
-3.187771
 31
0.0
 11
65.604224
 21
-3.568528
 31
0.0
 11
65.549836
 21
-3.980521
 31
0.0
  0
LWPOLYLINE
  5
1bc
100
AcDbEntity
  8
0
 62
7
100
AcDbPolyline
 90
2
 70
0
 10
65.549836
 20
-3.980521
 30
0.0
 10
65.549836
 20
-78.538270
 30
0.0
  0
SPLINE
  5
1bd
100
AcDbEntity
  8
0
 62
7
100
AcDbSpline
 70
0
 71
3
 72
31
 73
27
 74
25
 40
0.000000
 40
0.000000
 40
0.000000
 40
0.000000
 40
0.415568
 40
0.827696
 40
1.243264
 40
1.658832
 40
2.070960
 40
2.486528
 40
16.830046
 40
43.468009
 40
57.811528
 40
58.227096
 40
58.639224
 40
59.054792
 40
59.470360
 40
59.882488
 40
60.298056
 40
62.197130
 40
65.723982
 40
67.623056
 40
68.038623
 40
68.450752
 40
68.866320
 40
69.281887
 40
69.694016
 40
70.109584
 40
70.109584
 40
70.109584
 40
70.109584
 10
65.549836
 20
-78.538270
 30
0.0
 10
65.560418
 20
-78.677197
 30
0.0
 10
65.581496
 20
-78.953901
 30
0.0
 10
65.748065
 20
-79.341002
 30
0.0
 10
66.001482
 20
-79.674113
 30
0.0
 10
66.334607
 20
-79.927577
 30
0.0
 10
66.721698
 20
-80.093973
 30
0.0
 10
71.793849
 20
-80.488247
 30
0.0
 10
85.564524
 20
-79.746992
 30
0.0
 10
104.035113
 20
-80.504546
 30
0.0
 10
117.805871
 20
-79.763294
 30
0.0
 10
122.877969
 20
-80.157566
 30
0.0
 10
123.265081
 20
-80.323963
 30
0.0
 10
123.598126
 20
-80.577424
 30
0.0
 10
123.851841
 20
-80.910546
 30
0.0
 10
124.017305
 20
-81.297605
 30
0.0
 10
124.095841
 20
-82.209530
 30
0.0
 10
124.007462
 20
-84.153317
 30
0.0
 10
124.092210
 20
-86.598223
 30
0.0
 10
124.003831
 20
-88.542008
 30
0.0
 10
124.082366
 20
-89.453935
 30
0.0
 10
124.247831
 20
-89.840991
 30
0.0
 10
124.501546
 20
-90.174125
 30
0.0
 10
124.834589
 20
-90.427540
 30
0.0
 10
125.221708
 20
-90.594109
 30
0.0
 10
125.498410
 20
-90.615187
 30
0.0
 10
125.637336
 20
-90.625770
 30
0.0
 11
65.549836
 21
-78.538270
 31
0.0
 11
65.604224
 21
-78.950263
 31
0.0
 11
65.761939
 21
-79.331020
 31
0.0
 11
66.014804
 21
-79.660802
 31
0.0
 11
66.344585
 21
-79.913666
 31
0.0
 11
66.725342
 21
-80.071381
 31
0.0
 11
67.137336
 21
-80.125770
 31
0.0
 11
81.480854
 21
-80.125770
 31
0.0
 11
108.118817
 21
-80.125770
 31
0.0
 11
122.462336
 21
-80.125770
 31
0.0
 11
122.874329
 21
-80.180158
 31
0.0
 11
123.255086
 21
-80.337873
 31
0.0
 11
123.584868
 21
-80.590738
 31
0.0
 11
123.837732
 21
-80.920519
 31
0.0
 11
123.995447
 21
-81.301277
 31
0.0
 11
124.049836
 21
-81.713270
 31
0.0
 11
124.049836
 21
-83.612344
 31
0.0
 11
124.049836
 21
-87.139196
 31
0.0
 11
124.049836
 21
-89.038270
 31
0.0
 11
124.104224
 21
-89.450263
 31
0.0
 11
124.261939
 21
-89.831020
 31
0.0
 11
124.514804
 21
-90.160802
 31
0.0
 11
124.844585
 21
-90.413666
 31
0.0
 11
125.225343
 21
-90.571381
 31
0.0
 11
125.637336
 21
-90.625770
 31
0.0
  0
LWPOLYLINE
  5
1be
100
AcDbEntity
  8
0
 62
7
100
AcDbPolyline
 90
2
 70
0
 10
125.637336
 20
-90.625770
 30
0.0
 10
193.593936
 20
-90.625770
 30
0.0
  0
SPLINE
  5
1bf
100
AcDbEntity
  8
0
 62
7
100
AcDbSpline
 70
0
 71
3
 72
13
 73
9
 74
7
 40
0.000000
 40
0.000000
 40
0.000000
 40
0.000000
 40
0.415568
 40
0.827696
 40
1.243264
 40
1.658832
 40
2.070960
 40
2.486528
 40
2.486528
 40
2.486528
 40
2.486528
 10
193.593936
 20
-90.625770
 30
0.0
 10
193.732863
 20
-90.615187
 30
0.0
 10
194.009568
 20
-90.594109
 30
0.0
 10
194.396666
 20
-90.427540
 30
0.0
 10
194.729789
 20
-90.174123
 30
0.0
 10
194.983206
 20
-89.841000
 30
0.0
 10
195.149775
 20
-89.453902
 30
0.0
 10
195.170853
 20
-89.177197
 30
0.0
 10
195.181436
 20
-89.038270
 30
0.0
 11
193.593936
 21
-90.625770
 31
0.0
 11
194.005929
 21
-90.571381
 31
0.0
 11
194.386686
 21
-90.413666
 31
0.0
 11
194.716468
 21
-90.160802
 31
0.0
 11
194.969332
 21
-89.831020
 31
0.0
 11
195.127047
 21
-89.450263
 31
0.0
 11
195.181436
 21
-89.038270
 31
0.0
  0
LWPOLYLINE
  5
1c0
100
AcDbEntity
  8
0
 62
7
100
AcDbPolyline
 90
2
 70
0
 10
195.181436
 20
-89.038270
 30
0.0
 10
195.181436
 20
-85.488770
 30
0.0
  0
SPLINE
  5
1c1
100
AcDbEntity
  8
0
 62
7
100
AcDbSpline
 70
0
 71
3
 72
13
 73
9
 74
7
 40
0.000000
 40
0.000000
 40
0.000000
 40
0.000000
 40
1.789433
 40
3.525792
 40
5.315225
 40
7.104658
 40
8.841017
 40
10.630450
 40
10.630450
 40
10.630450
 40
10.630450
 10
195.181436
 20
-85.488770
 30
0.0
 10
195.275569
 20
-84.885457
 30
0.0
 10
195.461045
 20
-83.696726
 30
0.0
 10
196.822544
 20
-82.388030
 30
0.0
 10
198.603836
 20
-81.903119
 30
0.0
 10
200.385127
 20
-82.388030
 30
0.0
 10
201.746626
 20
-83.696726
 30
0.0
 10
201.932102
 20
-84.885457
 30
0.0
 10
202.026236
 20
-85.488770
 30
0.0
 11
195.181436
 21
-85.488770
 31
0.0
 11
195.648694
 21
-83.761419
 31
0.0
 11
196.876485
 21
-82.533628
 31
0.0
 11
198.603836
 21
-82.066370
 31
0.0
 11
200.331186
 21
-82.533628
 31
0.0
 11
201.558978
 21
-83.761419
 31
0.0
 11
202.026236
 21
-85.488770
 31
0.0
  0
LWPOLYLINE
  5
1c2
100
AcDbEntity
  8
0
 62
7
100
AcDbPolyline
 90
2
 70
0
 10
202.026236
 20
-85.488770
 30
0.0
 10
202.026236
 20
-89.038270
 30
0.0
  0
SPLINE
  5
1c3
100
AcDbEntity
  8
0
 62
7
100
AcDbSpline
 70
0
 71
3
 72
13
 73
9
 74
7
 40
0.000000
 40
0.000000
 40
0.000000
 40
0.000000
 40
0.415568
 40
0.827696
 40
1.243264
 40
1.658832
 40
2.070960
 40
2.486528
 40
2.486528
 40
2.486528
 40
2.486528
 10
202.026236
 20
-89.038270
 30
0.0
 10
202.036818
 20
-89.177197
 30
0.0
 10
202.057896
 20
-89.453902
 30
0.0
 10
202.224465
 20
-89.841000
 30
0.0
 10
202.477883
 20
-90.174123
 30
0.0
 10
202.811006
 20
-90.427540
 30
0.0
 10
203.198103
 20
-90.594109
 30
0.0
 10
203.474808
 20
-90.615187
 30
0.0
 10
203.613736
 20
-90.625770
 30
0.0
 11
202.026236
 21
-89.038270
 31
0.0
 11
202.080624
 21
-89.450263
 31
0.0
 11
202.238339
 21
-89.831020
 31
0.0
 11
202.491204
 21
-90.160802
 31
0.0
 11
202.820985
 21
-90.413666
 31
0.0
 11
203.201742
 21
-90.571381
 31
0.0
 11
203.613736
 21
-90.625770
 31
0.0
  0
LWPOLYLINE
  5
1c4
100
AcDbEntity
  8
0
 62
7
100
AcDbPolyline
 90
2
 70
0
 10
203.613736
 20
-90.625770
 30
0.0
 10
274.543336
 20
-90.625770
 30
0.0
  0
SPLINE
  5
1c5
100
AcDbEntity
  8
0
 62
7
100
AcDbSpline
 70
0
 71
3
 72
13
 73
9
 74
7
 40
0.000000
 40
0.000000
 40
0.000000
 40
0.000000
 40
0.415568
 40
0.827696
 40
1.243264
 40
1.658832
 40
2.070960
 40
2.486528
 40
2.486528
 40
2.486528
 40
2.486528
 10
274.543336
 20
-90.625770
 30
0.0
 10
274.682263
 20
-90.615187
 30
0.0
 10
274.958968
 20
-90.594109
 30
0.0
 10
275.346066
 20
-90.427540
 30
0.0
 10
275.679189
 20
-90.174123
 30
0.0
 10
275.932606
 20
-89.841000
 30
0.0
 10
276.099175
 20
-89.453902
 30
0.0
 10
276.120253
 20
-89.177197
 30
0.0
 10
276.130836
 20
-89.038270
 30
0.0
 11
274.543336
 21
-90.625770
 31
0.0
 11
274.955329
 21
-90.571381
 31
0.0
 11
275.336086
 21
-90.413666
 31
0.0
 11
275.665868
 21
-90.160802
 31
0.0
 11
275.918732
 21
-89.831020
 31
0.0
 11
276.076447
 21
-89.450263
 31
0.0
 11
276.130836
 21
-89.038270
 31
0.0
  0
LWPOLYLINE
  5
1c6
100
AcDbEntity
  8
0
 62
7
100
AcDbPolyline
 90
2
 70
0
 10
276.130836
 20
-89.038270
 30
0.0
 10
276.130836
 20
-81.713270
 30
0.0
  0
SPLINE
  5
1c7
100
AcDbEntity
  8
0
 62
7
100
AcDbSpline
 70
0
 71
3
 72
13
 73
9
 74
7
 40
0.000000
 40
0.000000
 40
0.000000
 40
0.000000
 40
0.415568
 40
0.827696
 40
1.243264
 40
1.658832
 40
2.070960
 40
2.486528
 40
2.486528
 40
2.486528
 40
2.486528
 10
276.130836
 20
-81.713270
 30
0.0
 10
276.141418
 20
-81.574342
 30
0.0
 10
276.162496
 20
-81.297638
 30
0.0
 10
276.329065
 20
-80.910540
 30
0.0
 10
276.582483
 20
-80.577417
 30
0.0
 10
276.915606
 20
-80.323999
 30
0.0
 10
277.302703
 20
-80.157430
 30
0.0
 10
277.579408
 20
-80.136352
 30
0.0
 10
277.718336
 20
-80.125770
 30
0.0
 11
276.130836
 21
-81.713270
 31
0.0
 11
276.185224
 21
-81.301277
 31
0.0
 11
276.342939
 21
-80.920519
 31
0.0
 11
276.595804
 21
-80.590738
 31
0.0
 11
276.925585
 21
-80.337873
 31
0.0
 11
277.306342
 21
-80.180158
 31
0.0
 11
277.718336
 21
-80.125770
 31
0.0
  0
LWPOLYLINE
  5
1c8
100
AcDbEntity
  8
0
 62
7
100
AcDbPolyline
 90
2
 70
0
 10
277.718336
 20
-80.125770
 30
0.0
 10
339.543336
 20
-80.125770
 30
0.0
  0
SPLINE
  5
1c9
100
AcDbEntity
  8
0
 62
7
100
AcDbSpline
 70
0
 71
3
 72
13
 73
9
 74
7
 40
0.000000
 40
0.000000
 40
0.000000
 40
0.000000
 40
0.415568
 40
0.827696
 40
1.243264
 40
1.658832
 40
2.070960
 40
2.486528
 40
2.486528
 40
2.486528
 40
2.486528
 10
339.543336
 20
-80.125770
 30
0.0
 10
339.682263
 20
-80.115187
 30
0.0
 10
339.958968
 20
-80.094109
 30
0.0
 10
340.346066
 20
-79.927541
 30
0.0
 10
340.679189
 20
-79.674123
 30
0.0
 10
340.932607
 20
-79.341000
 30
0.0
 10
341.099175
 20
-78.953902
 30
0.0
 10
341.120253
 20
-78.677197
 30
0.0
 10
341.130836
 20
-78.538270
 30
0.0
 11
339.543336
 21
-80.125770
 31
0.0
 11
339.955329
 21
-80.071381
 31
0.0
 11
340.336086
 21
-79.913666
 31
0.0
 11
340.665868
 21
-79.660802
 31
0.0
 11
340.918732
 21
-79.331020
 31
0.0
 11
341.076447
 21
-78.950263
 31
0.0
 11
341.130836
 21
-78.538270
 31
0.0
  0
LWPOLYLINE
  5
1ca
100
AcDbEntity
  8
0
 62
7
100
AcDbPolyline
 90
2
 70
0
 10
341.130836
 20
-78.538270
 30
0.0
 10
341.130836
 20
-25.813270
 30
0.0
  0
SPLINE
  5
1cb
100
AcDbEntity
  8
0
 62
7
100
AcDbSpline
 70
0
 71
3
 72
13
 73
9
 74
7
 40
0.000000
 40
0.000000
 40
0.000000
 40
0.000000
 40
0.415568
 40
0.827696
 40
1.243264
 40
1.658832
 40
2.070960
 40
2.486528
 40
2.486528
 40
2.486528
 40
2.486528
 10
341.130836
 20
-25.813270
 30
0.0
 10
341.141418
 20
-25.674342
 30
0.0
 10
341.162496
 20
-25.397637
 30
0.0
 10
341.329065
 20
-25.010540
 30
0.0
 10
341.582483
 20
-24.677417
 30
0.0
 10
341.915606
 20
-24.423999
 30
0.0
 10
342.302704
 20
-24.257430
 30
0.0
 10
342.579408
 20
-24.236352
 30
0.0
 10
342.718336
 20
-24.225770
 30
0.0
 11
341.130836
 21
-25.813270
 31
0.0
 11
341.185224
 21
-25.401277
 31
0.0
 11
341.342939
 21
-25.020519
 31
0.0
 11
341.595804
 21
-24.690738
 31
0.0
 11
341.925585
 21
-24.437873
 31
0.0
 11
342.306343
 21
-24.280158
 31
0.0
 11
342.718336
 21
-24.225770
 31
0.0
  0
LWPOLYLINE
  5
1cc
100
AcDbEntity
  8
0
 62
7
100
AcDbPolyline
 90
2
 70
0
 10
342.718336
 20
-24.225770
 30
0.0
 10
343.343336
 20
-24.225770
 30
0.0
  0
SPLINE
  5
1cd
100
AcDbEntity
  8
0
 62
7
100
AcDbSpline
 70
0
 71
3
 72
13
 73
9
 74
7
 40
0.000000
 40
0.000000
 40
0.000000
 40
0.000000
 40
0.415568
 40
0.827696
 40
1.243264
 40
1.658832
 40
2.070960
 40
2.486528
 40
2.486528
 40
2.486528
 40
2.486528
 10
343.343336
 20
-24.225770
 30
0.0
 10
343.482263
 20
-24.215187
 30
0.0
 10
343.758968
 20
-24.194109
 30
0.0
 10
344.146066
 20
-24.027540
 30
0.0
 10
344.479189
 20
-23.774123
 30
0.0
 10
344.732606
 20
-23.441000
 30
0.0
 10
344.899175
 20
-23.053902
 30
0.0
 10
344.920253
 20
-22.777197
 30
0.0
 10
344.930836
 20
-22.638270
 30
0.0
 11
343.343336
 21
-24.225770
 31
0.0
 11
343.755329
 21
-24.171381
 31
0.0
 11
344.136086
 21
-24.013666
 31
0.0
 11
344.465868
 21
-23.760802
 31
0.0
 11
344.718732
 21
-23.431020
 31
0.0
 11
344.876447
 21
-23.050263
 31
0.0
 11
344.930836
 21
-22.638270
 31
0.0
  0
LWPOLYLINE
  5
1ce
100
AcDbEntity
  8
0
 62
7
100
AcDbPolyline
 90
2
 70
0
 10
344.930836
 20
-22.638270
 30
0.0
 10
344.930836
 20
-0.640521
 30
0.0
  0
SPLINE
  5
1cf
100
AcDbEntity
  8
0
 62
7
100
AcDbSpline
 70
0
 71
3
 72
13
 73
9
 74
7
 40
0.000000
 40
0.000000
 40
0.000000
 40
0.000000
 40
0.415568
 40
0.827696
 40
1.243264
 40
1.658832
 40
2.070960
 40
2.486528
 40
2.486528
 40
2.486528
 40
2.486528
 10
344.930836
 20
-0.640521
 30
0.0
 10
344.920253
 20
-0.501594
 30
0.0
 10
344.899175
 20
-0.224889
 30
0.0
 10
344.732606
 20
0.162209
 30
0.0
 10
344.479189
 20
0.495332
 30
0.0
 10
344.146066
 20
0.748750
 30
0.0
 10
343.758968
 20
0.915319
 30
0.0
 10
343.482263
 20
0.936396
 30
0.0
 10
343.343336
 20
0.946979
 30
0.0
 11
344.930836
 21
-0.640521
 31
0.0
 11
344.876447
 21
-0.228528
 31
0.0
 11
344.718732
 21
0.152229
 31
0.0
 11
344.465868
 21
0.482011
 31
0.0
 11
344.136086
 21
0.734876
 31
0.0
 11
343.755329
 21
0.892590
 31
0.0
 11
343.343336
 21
0.946979
 31
0.0
  0
LWPOLYLINE
  5
1d0
100
AcDbEntity
  8
0
 62
7
100
AcDbPolyline
 90
2
 70
0
 10
343.343336
 20
0.946979
 30
0.0
 10
334.557334
 20
0.946979
 30
0.0
  0
SPLINE
  5
1d1
100
AcDbEntity
  8
0
 62
7
100
AcDbSpline
 70
0
 71
3
 72
34
 73
30
 74
28
 40
0.000000
 40
0.000000
 40
0.000000
 40
0.000000
 40
0.559257
 40
1.110367
 40
1.669624
 40
2.875294
 40
4.063400
 40
5.269070
 40
6.474740
 40
7.662845
 40
8.868516
 40
9.427773
 40
9.978882
 40
10.538139
 40
42.391481
 40
101.547687
 40
133.401028
 40
133.960291
 40
134.511407
 40
135.070670
 40
136.276388
 40
137.464540
 40
138.670259
 40
139.875977
 40
141.064129
 40
142.269847
 40
142.829110
 40
143.380226
 40
143.939489
 40
143.939489
 40
143.939489
 40
143.939489
 10
334.557334
 20
0.946979
 30
0.0
 10
334.370594
 20
0.927271
 30
0.0
 10
333.999835
 20
0.888141
 30
0.0
 10
333.499846
 20
0.595997
 30
0.0
 10
333.048762
 20
-0.036714
 30
0.0
 10
332.473613
 20
-0.850388
 30
0.0
 10
331.395716
 20
-1.455059
 30
0.0
 10
330.193836
 20
-1.675139
 30
0.0
 10
328.991956
 20
-1.455061
 30
0.0
 10
327.914058
 20
-0.850380
 30
0.0
 10
327.338910
 20
-0.036738
 30
0.0
 10
326.887825
 20
0.596035
 30
0.0
 10
326.387839
 20
0.887997
 30
0.0
 10
315.380790
 20
2.063284
 30
0.0
 10
284.895200
 20
0.138889
 30
0.0
 10
243.902586
 20
0.138876
 30
0.0
 10
213.416994
 20
2.063297
 30
0.0
 10
202.409941
 20
0.887996
 30
0.0
 10
201.909951
 20
0.596028
 30
0.0
 10
201.458861
 20
-0.036766
 30
0.0
 10
200.883701
 20
-0.850442
 30
0.0
 10
199.805763
 20
-1.455153
 30
0.0
 10
198.603836
 20
-1.675243
 30
0.0
 10
197.401908
 20
-1.455151
 30
0.0
 10
196.323970
 20
-0.850450
 30
0.0
 10
195.748810
 20
-0.036742
 30
0.0
 10
195.297721
 20
0.595990
 30
0.0
 10
194.797728
 20
0.888140
 30
0.0
 10
194.426965
 20
0.927270
 30
0.0
 10
194.240223
 20
0.946979
 30
0.0
 11
334.557334
 21
0.946979
 31
0.0
 11
334.006817
 21
0.848493
 31
0.0
 11
333.530924
 21
0.570559
 31
0.0
 11
333.174661
 21
0.139461
 31
0.0
 11
332.406615
 21
-0.789918
 31
0.0
 11
331.380664
 21
-1.389101
 31
0.0
 11
330.193836
 21
-1.601421
 31
0.0
 11
329.007008
 21
-1.389101
 31
0.0
 11
327.981057
 21
-0.789918
 31
0.0
 11
327.213011
 21
0.139461
 31
0.0
 11
326.856748
 21
0.570559
 31
0.0
 11
326.380854
 21
0.848493
 31
0.0
 11
325.830337
 21
0.946979
 31
0.0
 11
293.976996
 21
0.946979
 31
0.0
 11
234.820790
 21
0.946979
 31
0.0
 11
202.967449
 21
0.946979
 31
0.0
 11
202.416926
 21
0.848491
 31
0.0
 11
201.941029
 21
0.570551
 31
0.0
 11
201.584767
 21
0.139445
 31
0.0
 11
200.816699
 21
-0.789978
 31
0.0
 11
199.790710
 21
-1.389190
 31
0.0
 11
198.603836
 21
-1.601521
 31
0.0
 11
197.416961
 21
-1.389190
 31
0.0
 11
196.390973
 21
-0.789978
 31
0.0
 11
195.622905
 21
0.139445
 31
0.0
 11
195.266642
 21
0.570551
 31
0.0
 11
194.790745
 21
0.848491
 31
0.0
 11
194.240223
 21
0.946979
 31
0.0
  0
LWPOLYLINE
  5
1d2
100
AcDbEntity
  8
0
 62
7
100
AcDbPolyline
 90
2
 70
0
 10
194.240223
 20
0.946979
 30
0.0
 10
95.624336
 20
0.946979
 30
0.0
  0
SPLINE
  5
1d3
100
AcDbEntity
  8
0
 62
7
100
AcDbSpline
 70
0
 71
3
 72
19
 73
15
 74
13
 40
0.000000
 40
0.000000
 40
0.000000
 40
0.000000
 40
0.415568
 40
0.827696
 40
1.243264
 40
1.658832
 40
2.070960
 40
2.486528
 40
2.927009
 40
3.745046
 40
4.185528
 40
4.944933
 40
5.685028
 40
6.444434
 40
6.444434
 40
6.444434
 40
6.444434
 10
95.624336
 20
0.946979
 30
0.0
 10
95.485412
 20
0.957561
 30
0.0
 10
95.208715
 20
0.978639
 30
0.0
 10
94.821560
 20
1.145210
 30
0.0
 10
94.488655
 20
1.398619
 30
0.0
 10
94.234426
 20
1.731773
 30
0.0
 10
94.070867
 20
2.118757
 30
0.0
 10
94.027041
 20
2.543156
 30
0.0
 10
94.043323
 20
3.100576
 30
0.0
 10
94.028820
 20
3.667384
 30
0.0
 10
94.054245
 20
4.339285
 30
0.0
 10
93.918034
 20
4.989855
 30
0.0
 10
93.399213
 20
5.597887
 30
0.0
 10
92.909730
 20
5.736496
 30
0.0
 10
92.661836
 20
5.806692
 30
0.0
 11
95.624336
 21
0.946979
 31
0.0
 11
95.212343
 21
1.001368
 31
0.0
 11
94.831585
 21
1.159082
 31
0.0
 11
94.501804
 21
1.411947
 31
0.0
 11
94.248939
 21
1.741729
 31
0.0
 11
94.091224
 21
2.122486
 31
0.0
 11
94.036836
 21
2.534479
 31
0.0
 11
94.036836
 21
2.974960
 31
0.0
 11
94.036836
 21
3.792998
 31
0.0
 11
94.036836
 21
4.233479
 31
0.0
 11
93.855349
 21
4.970879
 31
0.0
 11
93.368306
 21
5.528131
 31
0.0
 11
92.661836
 21
5.806692
 31
0.0
  0
LWPOLYLINE
  5
1d4
100
AcDbEntity
  8
0
 62
7
100
AcDbPolyline
 90
3
 70
0
 10
92.661836
 20
5.806692
 30
0.0
 10
92.661836
 20
6.820979
 30
0.0
 10
342.193836
 20
6.820979
 30
0.0
  0
SPLINE
  5
1d5
100
AcDbEntity
  8
0
 62
7
100
AcDbSpline
 70
0
 71
3
 72
22
 73
18
 74
16
 40
0.000000
 40
0.000000
 40
0.000000
 40
0.000000
 40
1.570649
 40
3.128301
 40
4.698950
 40
6.269600
 40
7.827251
 40
9.397900
 40
32.811539
 40
76.294011
 40
99.707649
 40
101.278298
 40
102.835950
 40
104.406599
 40
105.977249
 40
107.534901
 40
109.105550
 40
109.105550
 40
109.105550
 40
109.105550
 10
342.193836
 20
6.820979
 30
0.0
 10
342.718913
 20
6.780982
 30
0.0
 10
343.764723
 20
6.701318
 30
0.0
 10
345.227796
 20
6.071766
 30
0.0
 10
346.486745
 20
5.113970
 30
0.0
 10
347.444913
 20
3.854907
 30
0.0
 10
348.073098
 20
2.391916
 30
0.0
 10
348.778001
 20
-6.482432
 30
0.0
 10
347.783156
 20
-29.259464
 30
0.0
 10
347.783156
 20
-59.408326
 30
0.0
 10
348.778001
 20
-82.185359
 30
0.0
 10
348.073098
 20
-91.059707
 30
0.0
 10
347.444913
 20
-92.522698
 30
0.0
 10
346.486745
 20
-93.781760
 30
0.0
 10
345.227796
 20
-94.739556
 30
0.0
 10
343.764724
 20
-95.369109
 30
0.0
 10
342.718913
 20
-95.448772
 30
0.0
 10
342.193836
 20
-95.488770
 30
0.0
 11
342.193836
 21
6.820979
 31
0.0
 11
343.750975
 21
6.615416
 31
0.0
 11
345.190057
 21
6.019328
 31
0.0
 11
346.436476
 21
5.063620
 31
0.0
 11
347.392185
 21
3.817201
 31
0.0
 11
347.988273
 21
2.378118
 31
0.0
 11
348.193836
 21
0.820979
 31
0.0
 11
348.193836
 21
-22.592659
 31
0.0
 11
348.193836
 21
-66.075131
 31
0.0
 11
348.193836
 21
-89.488770
 31
0.0
 11
347.988273
 21
-91.045909
 31
0.0
 11
347.392185
 21
-92.484992
 31
0.0
 11
346.436476
 21
-93.731410
 31
0.0
 11
345.190057
 21
-94.687119
 31
0.0
 11
343.750975
 21
-95.283207
 31
0.0
 11
342.193836
 21
-95.488770
 31
0.0
  0
LWPOLYLINE
  5
1d6
100
AcDbEntity
  8
0
 62
7
100
AcDbPolyline
 90
2
 70
0
 10
342.193836
 20
-95.488770
 30
0.0
 10
61.586836
 20
-95.488770
 30
0.0
  0
SPLINE
  5
1d7
100
AcDbEntity
  8
0
 62
7
100
AcDbSpline
 70
0
 71
3
 72
22
 73
18
 74
16
 40
0.000000
 40
0.000000
 40
0.000000
 40
0.000000
 40
1.570649
 40
3.128301
 40
4.698950
 40
6.269600
 40
7.827251
 40
9.397901
 40
32.811539
 40
76.294011
 40
99.707649
 40
101.278299
 40
102.835950
 40
104.406600
 40
105.977249
 40
107.534901
 40
109.105550
 40
109.105550
 40
109.105550
 40
109.105550
 10
61.586836
 20
-95.488770
 30
0.0
 10
61.061758
 20
-95.448772
 30
0.0
 10
60.015948
 20
-95.369109
 30
0.0
 10
58.552875
 20
-94.739556
 30
0.0
 10
57.293926
 20
-93.781760
 30
0.0
 10
56.335758
 20
-92.522698
 30
0.0
 10
55.707574
 20
-91.059707
 30
0.0
 10
55.002670
 20
-82.185359
 30
0.0
 10
55.997515
 20
-59.408326
 30
0.0
 10
55.997516
 20
-29.259464
 30
0.0
 10
55.002670
 20
-6.482432
 30
0.0
 10
55.707574
 20
2.391916
 30
0.0
 10
56.335758
 20
3.854907
 30
0.0
 10
57.293926
 20
5.113970
 30
0.0
 10
58.552875
 20
6.071766
 30
0.0
 10
60.015948
 20
6.701318
 30
0.0
 10
61.061758
 20
6.780982
 30
0.0
 10
61.586836
 20
6.820979
 30
0.0
 11
61.586836
 21
-95.488770
 31
0.0
 11
60.029696
 21
-95.283207
 31
0.0
 11
58.590614
 21
-94.687119
 31
0.0
 11
57.344195
 21
-93.731410
 31
0.0
 11
56.388486
 21
-92.484992
 31
0.0
 11
55.792399
 21
-91.045909
 31
0.0
 11
55.586836
 21
-89.488770
 31
0.0
 11
55.586836
 21
-66.075131
 31
0.0
 11
55.586836
 21
-22.592659
 31
0.0
 11
55.586836
 21
0.820979
 31
0.0
 11
55.792399
 21
2.378118
 31
0.0
 11
56.388486
 21
3.817201
 31
0.0
 11
57.344195
 21
5.063620
 31
0.0
 11
58.590614
 21
6.019328
 31
0.0
 11
60.029696
 21
6.615416
 31
0.0
 11
61.586836
 21
6.820979
 31
0.0
  0
LWPOLYLINE
  5
1d8
100
AcDbEntity
  8
0
 62
7
100
AcDbPolyline
 90
2
 70
0
 10
61.586836
 20
6.820979
 30
0.0
 10
81.661836
 20
6.820979
 30
0.0
  0
SPLINE
  5
1d9
100
AcDbEntity
  8
0
 62
7
100
AcDbSpline
 70
0
 71
3
 72
22
 73
18
 74
16
 40
0.000000
 40
0.000000
 40
0.000000
 40
0.000000
 40
0.264752
 40
0.756435
 40
1.021188
 40
1.765160
 40
2.490887
 40
3.234859
 40
4.541267
 40
6.967452
 40
8.273860
 40
8.689427
 40
9.101556
 40
9.517124
 40
9.932691
 40
10.344820
 40
10.760387
 40
10.760387
 40
10.760387
 40
10.760387
 10
81.661836
 20
6.820979
 30
0.0
 10
81.662652
 20
6.732141
 30
0.0
 10
81.664984
 20
6.478318
 30
0.0
 10
81.641143
 20
6.155069
 30
0.0
 10
81.728131
 20
5.592370
 30
0.0
 10
80.867397
 20
5.633273
 30
0.0
 10
80.463743
 20
4.959188
 30
0.0
 10
80.267107
 20
4.052068
 30
0.0
 10
80.379371
 20
2.550002
 30
0.0
 10
80.302380
 20
0.873978
 30
0.0
 10
80.364114
 20
-0.507432
 30
0.0
 10
80.299979
 20
-1.221191
 30
0.0
 10
80.134929
 20
-1.608241
 30
0.0
 10
79.881102
 20
-1.941377
 30
0.0
 10
79.548088
 20
-2.194791
 30
0.0
 10
79.160962
 20
-2.361361
 30
0.0
 10
78.884261
 20
-2.382438
 30
0.0
 10
78.745336
 20
-2.393021
 30
0.0
 11
81.661836
 21
6.820979
 31
0.0
 11
81.661836
 21
6.556227
 31
0.0
 11
81.661836
 21
6.064544
 31
0.0
 11
81.661836
 21
5.799791
 31
0.0
 11
80.976563
 21
5.510142
 31
0.0
 11
80.507032
 21
4.956771
 31
0.0
 11
80.332836
 21
4.233479
 31
0.0
 11
80.332836
 21
2.927072
 31
0.0
 11
80.332836
 21
0.500886
 31
0.0
 11
80.332836
 21
-0.805521
 31
0.0
 11
80.278447
 21
-1.217514
 31
0.0
 11
80.120732
 21
-1.598271
 31
0.0
 11
79.867868
 21
-1.928053
 31
0.0
 11
79.538086
 21
-2.180918
 31
0.0
 11
79.157329
 21
-2.338632
 31
0.0
 11
78.745336
 21
-2.393021
 31
0.0
  0
LWPOLYLINE
  5
1da
100
AcDbEntity
  8
0
 62
7
100
AcDbPolyline
 90
1
 70
1
 10
78.745336
 20
-2.393021
 30
0.0
  0
SPLINE
  5
1db
100
AcDbEntity
  8
0
 62
7
100
AcDbSpline
 70
0
 71
3
 72
25
 73
21
 74
19
 40
0.000000
 40
0.000000
 40
0.000000
 40
0.000000
 40
0.549619
 40
1.091371
 40
1.640990
 40
2.190608
 40
2.732361
 40
3.281979
 40
3.831598
 40
4.373351
 40
4.922969
 40
5.472588
 40
6.014340
 40
6.563959
 40
7.113577
 40
7.655330
 40
8.204948
 40
8.754567
 40
9.296319
 40
9.845938
 40
9.845938
 40
9.845938
 40
9.845938
 10
200.178836
 20
3.320979
 30
0.0
 10
200.160018
 20
3.505120
 30
0.0
 10
200.122651
 20
3.870765
 30
0.0
 10
199.832746
 20
4.353972
 30
0.0
 10
199.408276
 20
4.713223
 30
0.0
 10
198.882650
 20
4.903758
 30
0.0
 10
198.324901
 20
4.903758
 30
0.0
 10
197.800011
 20
4.713223
 30
0.0
 10
197.372601
 20
4.353972
 30
0.0
 10
197.093618
 20
3.870765
 30
0.0
 10
196.996211
 20
3.320979
 30
0.0
 10
197.093618
 20
2.771193
 30
0.0
 10
197.372602
 20
2.287986
 30
0.0
 10
197.800011
 20
1.928735
 30
0.0
 10
198.324901
 20
1.738200
 30
0.0
 10
198.882650
 20
1.738200
 30
0.0
 10
199.408276
 20
1.928735
 30
0.0
 10
199.832746
 20
2.287986
 30
0.0
 10
200.122651
 20
2.771193
 30
0.0
 10
200.160018
 20
3.136839
 30
0.0
 10
200.178836
 20
3.320979
 30
0.0
 11
200.178836
 21
3.320979
 31
0.0
 11
200.082959
 21
3.862171
 31
0.0
 11
199.812083
 21
4.331342
 31
0.0
 11
199.391336
 21
4.684969
 31
0.0
 11
198.874712
 21
4.872534
 31
0.0
 11
198.332959
 21
4.872534
 31
0.0
 11
197.816336
 21
4.684969
 31
0.0
 11
197.395588
 21
4.331342
 31
0.0
 11
197.124712
 21
3.862171
 31
0.0
 11
197.028836
 21
3.320979
 31
0.0
 11
197.124712
 21
2.779788
 31
0.0
 11
197.395588
 21
2.310616
 31
0.0
 11
197.816336
 21
1.956989
 31
0.0
 11
198.332959
 21
1.769425
 31
0.0
 11
198.874712
 21
1.769425
 31
0.0
 11
199.391336
 21
1.956989
 31
0.0
 11
199.812083
 21
2.310616
 31
0.0
 11
200.082959
 21
2.779788
 31
0.0
 11
200.178836
 21
3.320979
 31
0.0
  0
LWPOLYLINE
  5
1dc
100
AcDbEntity
  8
0
 62
7
100
AcDbPolyline
 90
1
 70
1
 10
200.178836
 20
3.320979
 30
0.0
  0
SPLINE
  5
1dd
100
AcDbEntity
  8
0
 62
7
100
AcDbSpline
 70
0
 71
3
 72
25
 73
21
 74
19
 40
0.000000
 40
0.000000
 40
0.000000
 40
0.000000
 40
0.549618
 40
1.091371
 40
1.640990
 40
2.190608
 40
2.732361
 40
3.281979
 40
3.831598
 40
4.373350
 40
4.922969
 40
5.472587
 40
6.014340
 40
6.563958
 40
7.113577
 40
7.655329
 40
8.204948
 40
8.754566
 40
9.296319
 40
9.845937
 40
9.845937
 40
9.845937
 40
9.845937
 10
331.768836
 20
3.320979
 30
0.0
 10
331.750018
 20
3.505120
 30
0.0
 10
331.712651
 20
3.870765
 30
0.0
 10
331.422746
 20
4.353972
 30
0.0
 10
330.998276
 20
4.713223
 30
0.0
 10
330.472650
 20
4.903758
 30
0.0
 10
329.914901
 20
4.903758
 30
0.0
 10
329.390011
 20
4.713223
 30
0.0
 10
328.962602
 20
4.353972
 30
0.0
 10
328.683618
 20
3.870765
 30
0.0
 10
328.586211
 20
3.320979
 30
0.0
 10
328.683618
 20
2.771193
 30
0.0
 10
328.962602
 20
2.287986
 30
0.0
 10
329.390011
 20
1.928735
 30
0.0
 10
329.914901
 20
1.738200
 30
0.0
 10
330.472650
 20
1.738200
 30
0.0
 10
330.998276
 20
1.928735
 30
0.0
 10
331.422746
 20
2.287986
 30
0.0
 10
331.712651
 20
2.771193
 30
0.0
 10
331.750018
 20
3.136839
 30
0.0
 10
331.768836
 20
3.320979
 30
0.0
 11
331.768836
 21
3.320979
 31
0.0
 11
331.672959
 21
3.862171
 31
0.0
 11
331.402083
 21
4.331342
 31
0.0
 11
330.981336
 21
4.684969
 31
0.0
 11
330.464712
 21
4.872534
 31
0.0
 11
329.922959
 21
4.872534
 31
0.0
 11
329.406336
 21
4.684969
 31
0.0
 11
328.985588
 21
4.331342
 31
0.0
 11
328.714712
 21
3.862171
 31
0.0
 11
328.618836
 21
3.320979
 31
0.0
 11
328.714712
 21
2.779788
 31
0.0
 11
328.985588
 21
2.310616
 31
0.0
 11
329.406336
 21
1.956989
 31
0.0
 11
329.922959
 21
1.769425
 31
0.0
 11
330.464712
 21
1.769425
 31
0.0
 11
330.981336
 21
1.956989
 31
0.0
 11
331.402083
 21
2.310616
 31
0.0
 11
331.672959
 21
2.779788
 31
0.0
 11
331.768836
 21
3.320979
 31
0.0
  0
LWPOLYLINE
  5
1de
100
AcDbEntity
  8
0
 62
7
100
AcDbPolyline
 90
1
 70
1
 10
331.768836
 20
3.320979
 30
0.0
  0
SPLINE
  5
1df
100
AcDbEntity
  8
0
 62
7
100
AcDbSpline
 70
0
 71
3
 72
25
 73
21
 74
19
 40
0.000000
 40
0.000000
 40
0.000000
 40
0.000000
 40
0.549762
 40
1.091652
 40
1.641413
 40
2.191175
 40
2.733065
 40
3.282827
 40
3.832589
 40
4.374479
 40
4.924240
 40
5.474002
 40
6.015892
 40
6.565654
 40
7.115415
 40
7.657305
 40
8.207067
 40
8.756829
 40
9.298719
 40
9.848480
 40
9.848480
 40
9.848480
 40
9.848480
 10
75.161836
 20
3.320979
 30
0.0
 10
75.143083
 20
3.505176
 30
0.0
 10
75.105846
 20
3.870932
 30
0.0
 10
74.815993
 20
4.354349
 30
0.0
 10
74.391475
 20
4.713774
 30
0.0
 10
73.865724
 20
4.904408
 30
0.0
 10
73.307827
 20
4.904408
 30
0.0
 10
72.782810
 20
4.713774
 30
0.0
 10
72.355363
 20
4.354349
 30
0.0
 10
72.076393
 20
3.870932
 30
0.0
 10
71.979325
 20
3.320979
 30
0.0
 10
72.076393
 20
2.771026
 30
0.0
 10
72.355363
 20
2.287609
 30
0.0
 10
72.782810
 20
1.928184
 30
0.0
 10
73.307827
 20
1.737550
 30
0.0
 10
73.865724
 20
1.737550
 30
0.0
 10
74.391475
 20
1.928184
 30
0.0
 10
74.815993
 20
2.287609
 30
0.0
 10
75.105846
 20
2.771026
 30
0.0
 10
75.143083
 20
3.136782
 30
0.0
 10
75.161836
 20
3.320979
 30
0.0
 11
75.161836
 21
3.320979
 31
0.0
 11
75.066131
 21
3.862346
 31
0.0
 11
74.795314
 21
4.331711
 31
0.0
 11
74.374522
 21
4.685507
 31
0.0
 11
73.857781
 21
4.873167
 31
0.0
 11
73.315891
 21
4.873167
 31
0.0
 11
72.799149
 21
4.685507
 31
0.0
 11
72.378357
 21
4.331711
 31
0.0
 11
72.107540
 21
3.862346
 31
0.0
 11
72.011836
 21
3.320979
 31
0.0
 11
72.107540
 21
2.779612
 31
0.0
 11
72.378357
 21
2.310247
 31
0.0
 11
72.799149
 21
1.956451
 31
0.0
 11
73.315891
 21
1.768791
 31
0.0
 11
73.857781
 21
1.768791
 31
0.0
 11
74.374522
 21
1.956451
 31
0.0
 11
74.795314
 21
2.310247
 31
0.0
 11
75.066131
 21
2.779612
 31
0.0
 11
75.161836
 21
3.320979
 31
0.0
  0
LWPOLYLINE
  5
1e0
100
AcDbEntity
  8
0
 62
7
100
AcDbPolyline
 90
1
 70
1
 10
75.161836
 20
3.320979
 30
0.0
  0
SPLINE
  5
1e1
100
AcDbEntity
  8
0
 62
7
100
AcDbSpline
 70
0
 71
3
 72
25
 73
21
 74
19
 40
0.000000
 40
0.000000
 40
0.000000
 40
0.000000
 40
0.549762
 40
1.091652
 40
1.641413
 40
2.191175
 40
2.733065
 40
3.282827
 40
3.832589
 40
4.374479
 40
4.924240
 40
5.474002
 40
6.015892
 40
6.565654
 40
7.115415
 40
7.657305
 40
8.207067
 40
8.756829
 40
9.298719
 40
9.848480
 40
9.848480
 40
9.848480
 40
9.848480
 10
75.161836
 20
-85.488770
 30
0.0
 10
75.143083
 20
-85.304573
 30
0.0
 10
75.105846
 20
-84.938817
 30
0.0
 10
74.815993
 20
-84.455400
 30
0.0
 10
74.391475
 20
-84.095975
 30
0.0
 10
73.865724
 20
-83.905341
 30
0.0
 10
73.307827
 20
-83.905341
 30
0.0
 10
72.782810
 20
-84.095975
 30
0.0
 10
72.355363
 20
-84.455400
 30
0.0
 10
72.076393
 20
-84.938817
 30
0.0
 10
71.979325
 20
-85.488770
 30
0.0
 10
72.076393
 20
-86.038722
 30
0.0
 10
72.355363
 20
-86.522139
 30
0.0
 10
72.782810
 20
-86.881564
 30
0.0
 10
73.307827
 20
-87.072198
 30
0.0
 10
73.865724
 20
-87.072198
 30
0.0
 10
74.391475
 20
-86.881564
 30
0.0
 10
74.815993
 20
-86.522139
 30
0.0
 10
75.105846
 20
-86.038722
 30
0.0
 10
75.143083
 20
-85.672966
 30
0.0
 10
75.161836
 20
-85.488770
 30
0.0
 11
75.161836
 21
-85.488770
 31
0.0
 11
75.066131
 21
-84.947402
 31
0.0
 11
74.795314
 21
-84.478038
 31
0.0
 11
74.374522
 21
-84.124242
 31
0.0
 11
73.857781
 21
-83.936582
 31
0.0
 11
73.315891
 21
-83.936582
 31
0.0
 11
72.799149
 21
-84.124242
 31
0.0
 11
72.378357
 21
-84.478038
 31
0.0
 11
72.107540
 21
-84.947402
 31
0.0
 11
72.011836
 21
-85.488770
 31
0.0
 11
72.107540
 21
-86.030137
 31
0.0
 11
72.378357
 21
-86.499502
 31
0.0
 11
72.799149
 21
-86.853298
 31
0.0
 11
73.315891
 21
-87.040958
 31
0.0
 11
73.857781
 21
-87.040958
 31
0.0
 11
74.374522
 21
-86.853298
 31
0.0
 11
74.795314
 21
-86.499502
 31
0.0
 11
75.066131
 21
-86.030137
 31
0.0
 11
75.161836
 21
-85.488770
 31
0.0
  0
LWPOLYLINE
  5
1e2
100
AcDbEntity
  8
0
 62
7
100
AcDbPolyline
 90
1
 70
1
 10
75.161836
 20
-85.488770
 30
0.0
  0
SPLINE
  5
1e3
100
AcDbEntity
  8
0
 62
7
100
AcDbSpline
 70
0
 71
3
 72
25
 73
21
 74
19
 40
0.000000
 40
0.000000
 40
0.000000
 40
0.000000
 40
0.549618
 40
1.091371
 40
1.640990
 40
2.190608
 40
2.732361
 40
3.281979
 40
3.831598
 40
4.373350
 40
4.922969
 40
5.472587
 40
6.014340
 40
6.563958
 40
7.113577
 40
7.655329
 40
8.204948
 40
8.754566
 40
9.296319
 40
9.845937
 40
9.845937
 40
9.845937
 40
9.845937
 10
331.768836
 20
-85.488770
 30
0.0
 10
331.750018
 20
-85.304629
 30
0.0
 10
331.712651
 20
-84.938983
 30
0.0
 10
331.422746
 20
-84.455777
 30
0.0
 10
330.998276
 20
-84.096525
 30
0.0
 10
330.472650
 20
-83.905990
 30
0.0
 10
329.914901
 20
-83.905990
 30
0.0
 10
329.390011
 20
-84.096525
 30
0.0
 10
328.962602
 20
-84.455777
 30
0.0
 10
328.683618
 20
-84.938983
 30
0.0
 10
328.586211
 20
-85.488770
 30
0.0
 10
328.683618
 20
-86.038556
 30
0.0
 10
328.962602
 20
-86.521763
 30
0.0
 10
329.390011
 20
-86.881014
 30
0.0
 10
329.914901
 20
-87.071549
 30
0.0
 10
330.472650
 20
-87.071549
 30
0.0
 10
330.998276
 20
-86.881014
 30
0.0
 10
331.422746
 20
-86.521763
 30
0.0
 10
331.712651
 20
-86.038556
 30
0.0
 10
331.750018
 20
-85.672910
 30
0.0
 10
331.768836
 20
-85.488770
 30
0.0
 11
331.768836
 21
-85.488770
 31
0.0
 11
331.672959
 21
-84.947578
 31
0.0
 11
331.402083
 21
-84.478407
 31
0.0
 11
330.981336
 21
-84.124780
 31
0.0
 11
330.464712
 21
-83.937215
 31
0.0
 11
329.922959
 21
-83.937215
 31
0.0
 11
329.406336
 21
-84.124780
 31
0.0
 11
328.985588
 21
-84.478407
 31
0.0
 11
328.714712
 21
-84.947578
 31
0.0
 11
328.618836
 21
-85.488770
 31
0.0
 11
328.714712
 21
-86.029961
 31
0.0
 11
328.985588
 21
-86.499133
 31
0.0
 11
329.406336
 21
-86.852760
 31
0.0
 11
329.922959
 21
-87.040324
 31
0.0
 11
330.464712
 21
-87.040324
 31
0.0
 11
330.981336
 21
-86.852760
 31
0.0
 11
331.402083
 21
-86.499133
 31
0.0
 11
331.672959
 21
-86.029961
 31
0.0
 11
331.768836
 21
-85.488770
 31
0.0
  0
LWPOLYLINE
  5
1e4
100
AcDbEntity
  8
0
 62
7
100
AcDbPolyline
 90
1
 70
1
 10
331.768836
 20
-85.488770
 30
0.0
  0
SPLINE
  5
1e5
100
AcDbEntity
  8
0
 62
7
100
AcDbSpline
 70
0
 71
3
 72
25
 73
21
 74
19
 40
0.000000
 40
0.000000
 40
0.000000
 40
0.000000
 40
0.549619
 40
1.091371
 40
1.640990
 40
2.190608
 40
2.732361
 40
3.281979
 40
3.831598
 40
4.373351
 40
4.922969
 40
5.472588
 40
6.014340
 40
6.563959
 40
7.113577
 40
7.655330
 40
8.204948
 40
8.754567
 40
9.296319
 40
9.845938
 40
9.845938
 40
9.845938
 40
9.845938
 10
200.178836
 20
-85.488770
 30
0.0
 10
200.160018
 20
-85.304629
 30
0.0
 10
200.122651
 20
-84.938983
 30
0.0
 10
199.832746
 20
-84.455777
 30
0.0
 10
199.408276
 20
-84.096525
 30
0.0
 10
198.882650
 20
-83.905990
 30
0.0
 10
198.324901
 20
-83.905990
 30
0.0
 10
197.800011
 20
-84.096525
 30
0.0
 10
197.372601
 20
-84.455777
 30
0.0
 10
197.093618
 20
-84.938983
 30
0.0
 10
196.996211
 20
-85.488770
 30
0.0
 10
197.093618
 20
-86.038556
 30
0.0
 10
197.372602
 20
-86.521763
 30
0.0
 10
197.800011
 20
-86.881014
 30
0.0
 10
198.324901
 20
-87.071549
 30
0.0
 10
198.882650
 20
-87.071549
 30
0.0
 10
199.408276
 20
-86.881014
 30
0.0
 10
199.832746
 20
-86.521763
 30
0.0
 10
200.122651
 20
-86.038556
 30
0.0
 10
200.160018
 20
-85.672910
 30
0.0
 10
200.178836
 20
-85.488770
 30
0.0
 11
200.178836
 21
-85.488770
 31
0.0
 11
200.082959
 21
-84.947578
 31
0.0
 11
199.812083
 21
-84.478407
 31
0.0
 11
199.391336
 21
-84.124779
 31
0.0
 11
198.874712
 21
-83.937215
 31
0.0
 11
198.332959
 21
-83.937215
 31
0.0
 11
197.816336
 21
-84.124779
 31
0.0
 11
197.395588
 21
-84.478407
 31
0.0
 11
197.124712
 21
-84.947578
 31
0.0
 11
197.028836
 21
-85.488770
 31
0.0
 11
197.124712
 21
-86.029961
 31
0.0
 11
197.395588
 21
-86.499133
 31
0.0
 11
197.816336
 21
-86.852760
 31
0.0
 11
198.332959
 21
-87.040324
 31
0.0
 11
198.874712
 21
-87.040324
 31
0.0
 11
199.391336
 21
-86.852760
 31
0.0
 11
199.812083
 21
-86.499133
 31
0.0
 11
200.082959
 21
-86.029961
 31
0.0
 11
200.178836
 21
-85.488770
 31
0.0
  0
LWPOLYLINE
  5
1e6
100
AcDbEntity
  8
0
 62
7
100
AcDbPolyline
 90
1
 70
1
 10
200.178836
 20
-85.488770
 30
0.0
  0
ENDSEC
  0
SECTION
  2
OBJECTS
  0
DICTIONARY
  5
C
330
0
100
AcDbDictionary
  3
ACAD_GROUP
350
D
  3
ACAD_MLINESTYLE
350
17
  0
DICTIONARY
  5
D
330
C
100
AcDbDictionary
  0
DICTIONARY
  5
1A
330
C
100
AcDbDictionary
  0
DICTIONARY
  5
17
330
C
100
AcDbDictionary
  3
STANDARD
350
18
  0
DICTIONARY
  5
19
330
C
100
AcDbDictionary
  0
ENDSEC
  0
EOF
