<?xml version="1.0" encoding="UTF-8" standalone="no"?>
<svg
   xmlns:dc="http://purl.org/dc/elements/1.1/"
   xmlns:cc="http://creativecommons.org/ns#"
   xmlns:rdf="http://www.w3.org/1999/02/22-rdf-syntax-ns#"
   xmlns:svg="http://www.w3.org/2000/svg"
   xmlns="http://www.w3.org/2000/svg"
   xmlns:sodipodi="http://sodipodi.sourceforge.net/DTD/sodipodi-0.dtd"
   xmlns:inkscape="http://www.inkscape.org/namespaces/inkscape"
   width="793.700787402"
   height="1122.51968504"
   version="1.1"
   id="svg224"
   sodipodi:docname="prime e laser cut no switchplate.svg"
   inkscape:version="0.92.3 (2405546, 2018-03-11)">
  <metadata
     id="metadata228">
    <rdf:RDF>
      <cc:Work
         rdf:about="">
        <dc:format>image/svg+xml</dc:format>
        <dc:type
           rdf:resource="http://purl.org/dc/dcmitype/StillImage" />
        <dc:title></dc:title>
      </cc:Work>
    </rdf:RDF>
  </metadata>
  <sodipodi:namedview
     pagecolor="#ffffff"
     bordercolor="#666666"
     borderopacity="1"
     objecttolerance="10"
     gridtolerance="10"
     guidetolerance="10"
     inkscape:pageopacity="0"
     inkscape:pageshadow="2"
     inkscape:window-width="3440"
     inkscape:window-height="1377"
     id="namedview226"
     showgrid="false"
     inkscape:zoom="0.84096523"
     inkscape:cx="454.2958"
     inkscape:cy="1725.8186"
     inkscape:window-x="-8"
     inkscape:window-y="-8"
     inkscape:window-maximized="1"
     inkscape:current-layer="g222" />
  <desc
     id="desc2">D:\Keyboards\Prime_E_2D\Prime E straight\prime e laser cut fusion.dxf - scale = 1.000000, origin = (0.000000, 0.000000), method = manual</desc>
  <defs
     id="defs16">
    <marker
       id="DistanceX"
       orient="auto"
       refX="0.0"
       refY="0.0"
       style="overflow:visible">
      <path
         d="M 3,-3 L -3,3 M 0,-5 L  0,5"
         style="stroke:#000000; stroke-width:0.5"
         id="path4" />
    </marker>
    <pattern
       height="8"
       id="Hatch"
       patternUnits="userSpaceOnUse"
       width="8"
       x="0"
       y="0">
      <path
         d="M8 4 l-4,4"
         linecap="square"
         stroke="#000000"
         stroke-width="0.25"
         id="path7" />
      <path
         d="M6 2 l-4,4"
         linecap="square"
         stroke="#000000"
         stroke-width="0.25"
         id="path9" />
      <path
         d="M4 0 l-4,4"
         linecap="square"
         stroke="#000000"
         stroke-width="0.25"
         id="path11" />
    </pattern>
    <symbol
       id="*MODEL_SPACE" />
    <symbol
       id="*PAPER_SPACE" />
  </defs>
  <g
     inkscape:groupmode="layer"
     inkscape:label="0"
     id="g222">
    <path
       d="M 757.562214,996.455503 A 6.000000,6.000000 -0.000000 1 0 745.562214,996.455503 6.000000,6.000000 -0.000000 1 0 757.562214,996.455503 z"
       style="stroke:#000000;fill:none"
       id="path36" />
    <path
       d="M 253.747410,620.317870 L 462.849773,620.317870 A 6.000000,6.000000 0.0 0 1 468.849773,626.317870 L 468.849773,654.002909 A 6.000000,6.000000 0.0 0 0 474.849773,660.002909 L 731.693615,660.002909 A 6.000000,6.000000 0.0 0 0 737.693615,654.002909 L 737.693615,640.587476 A 12.935055,12.935055 0.0 0 1 763.563725,640.587476 L 763.563725,654.002909 A 6.000000,6.000000 0.0 0 0 769.563725,660.002909 L 1037.644103,660.002909 A 6.000000,6.000000 0.0 0 0 1043.644103,654.002909 L 1043.644103,626.317870 A 6.000000,6.000000 0.0 0 1 1049.644103,620.317870 L 1283.313395,620.317870 A 6.000000,6.000000 0.0 0 0 1289.313395,614.317870 L 1289.313395,415.042279 A 6.000000,6.000000 0.0 0 1 1295.313395,409.042279 L 1297.675599,409.042279 A 6.000000,6.000000 0.0 0 0 1303.675599,403.042279 L 1303.675599,319.901182 A 6.000000,6.000000 0.0 0 0 1297.675599,313.901182 L 1264.468663,313.901182 A 6.000000,6.000000 0.0 0 0 1259.242813,316.953219 A 12.935055,12.935055 0.0 0 1 1236.710591,316.953219 A 6.000000,6.000000 0.0 0 0 1231.484740,313.901182 L 767.121066,313.901182 A 6.000000,6.000000 0.0 0 0 761.895182,316.953278 A 12.935433,12.935433 0.0 0 1 739.362159,316.953278 A 6.000000,6.000000 0.0 0 0 734.136275,313.901182 L 361.414812,313.901182 A 6.000000,6.000000 0.0 0 1 355.414812,307.901182 L 355.414812,301.479764 A 6.000000,6.000000 0.0 0 0 350.217962,295.533761 L 350.217962,291.700237 L 1293.331032,291.700237 A 22.677165,22.677165 0.0 0 1 1316.008198,314.377402 L 1316.008198,655.705586 A 22.677165,22.677165 0.0 0 1 1293.331032,678.382752 L 232.769143,678.382752 A 22.677165,22.677165 0.0 0 1 210.091977,655.705586 L 210.091977,314.377402 A 22.677165,22.677165 0.0 0 1 232.769143,291.700237 L 308.643158,291.700237 L 308.643158,295.559844 A 6.000000,6.000000 0.0 0 0 303.620166,301.479764 L 303.620166,320.524804 A 6.000000,6.000000 0.0 0 1 297.620166,326.524804 L 253.747410,326.524804 A 6.000000,6.000000 0.0 0 0 247.747410,332.524804 L 247.747410,614.317870 A 6.000000,6.000000 0.0 0 0 253.747410,620.317870 z"
       style="stroke:#000000;fill:none"
       id="path40" />
    <path
       d="M 350.217962,693.500862 L 350.217962,731.296137 L 308.643158,731.296137 L 308.643158,693.500862 L 232.769143,693.500862 A 22.677165,22.677165 0.0 0 0 210.091977,716.178027 L 210.091977,1057.506211 A 22.677165,22.677165 0.0 0 0 232.769143,1080.183377 L 1293.331032,1080.183377 A 22.677165,22.677165 0.0 0 0 1316.008198,1057.506211 L 1316.008198,716.178027 A 22.677165,22.677165 0.0 0 0 1293.331032,693.500862 L 350.217962,693.500862 z"
       style="stroke:#000000;fill:none"
       id="path42" />
    <path
       d="M 756.581426,304.928583 A 5.952756,5.952756 -0.000000 1 0 744.675914,304.928583 5.952756,5.952756 -0.000000 1 0 756.581426,304.928583 z"
       style="stroke:#000000;fill:none"
       id="path44" />
    <path
       d="M 754.483788,1042.388101 A 3.855118,3.855118 -0.000000 1 0 746.773552,1042.388101 3.855118,3.855118 -0.000000 1 0 754.483788,1042.388101 z"
       style="stroke:#000000;fill:none"
       id="path46" />
    <path
       d="M 284.076229,238.786851 A 5.952756,5.952756 -0.000000 1 0 272.170718,238.786851 5.952756,5.952756 -0.000000 1 0 284.076229,238.786851 z"
       style="stroke:#000000;fill:none"
       id="path48" />
    <path
       d="M 756.592765,238.786851 A 5.952756,5.952756 -0.000000 1 0 744.687253,238.786851 5.952756,5.952756 -0.000000 1 0 756.592765,238.786851 z"
       style="stroke:#000000;fill:none"
       id="path50" />
    <path
       d="M 1253.929458,-96.872042 A 5.952756,5.952756 -0.000000 1 0 1242.023946,-96.872042 5.952756,5.952756 -0.000000 1 0 1253.929458,-96.872042 z"
       style="stroke:#000000;fill:none"
       id="path52" />
    <path
       d="M 1253.929458,640.587476 A 5.952756,5.952756 -0.000000 1 0 1242.023946,640.587476 5.952756,5.952756 -0.000000 1 0 1253.929458,640.587476 z"
       style="stroke:#000000;fill:none"
       id="path54" />
    <path
       d="M 281.978592,706.729208 A 3.855118,3.855118 -0.000000 1 0 274.268355,706.729208 3.855118,3.855118 -0.000000 1 0 281.978592,706.729208 z"
       style="stroke:#000000;fill:none"
       id="path56" />
    <path
       d="M 1253.929458,238.786851 A 5.952756,5.952756 -0.000000 1 0 1242.023946,238.786851 5.952756,5.952756 -0.000000 1 0 1253.929458,238.786851 z"
       style="stroke:#000000;fill:none"
       id="path58" />
    <path
       d="M 284.076229,-96.872042 A 5.952756,5.952756 -0.000000 1 0 272.170718,-96.872042 5.952756,5.952756 -0.000000 1 0 284.076229,-96.872042 z"
       style="stroke:#000000;fill:none"
       id="path64" />
    <path
       d="M 1253.929458,304.928583 A 5.952756,5.952756 -0.000000 1 0 1242.023946,304.928583 5.952756,5.952756 -0.000000 1 0 1253.929458,304.928583 z"
       style="stroke:#000000;fill:none"
       id="path66" />
    <path
       d="M 756.581426,640.587476 A 5.952756,5.952756 -0.000000 1 0 744.675914,640.587476 5.952756,5.952756 -0.000000 1 0 756.581426,640.587476 z"
       style="stroke:#000000;fill:none"
       id="path68" />
    <path
       d="M 284.076229,640.587476 A 5.952756,5.952756 -0.000000 1 0 272.170718,640.587476 5.952756,5.952756 -0.000000 1 0 284.076229,640.587476 z"
       style="stroke:#000000;fill:none"
       id="path72" />
    <path
       d="M 756.592765,-96.872042 A 5.952756,5.952756 -0.000000 1 0 744.687253,-96.872042 5.952756,5.952756 -0.000000 1 0 756.592765,-96.872042 z"
       style="stroke:#000000;fill:none"
       id="path74" />
    <path
       d="M 754.483788,706.729208 A 3.855118,3.855118 -0.000000 1 0 746.773552,706.729208 3.855118,3.855118 -0.000000 1 0 754.483788,706.729208 z"
       style="stroke:#000000;fill:none"
       id="path78" />
    <path
       d="M 284.076229,304.928583 A 5.952756,5.952756 -0.000000 1 0 272.170718,304.928583 5.952756,5.952756 -0.000000 1 0 284.076229,304.928583 z"
       style="stroke:#000000;fill:none"
       id="path80" />
    <path
       d="M 281.978592,1042.388101 A 3.855118,3.855118 -0.000000 1 0 274.268355,1042.388101 3.855118,3.855118 -0.000000 1 0 281.978592,1042.388101 z"
       style="stroke:#000000;fill:none"
       id="path92" />
    <path
       d="M 1251.831820,1042.388101 A 3.855118,3.855118 -0.000000 1 0 1244.121584,1042.388101 3.855118,3.855118 -0.000000 1 0 1251.831820,1042.388101 z"
       style="stroke:#000000;fill:none"
       id="path98" />
    <path
       d="M 1251.831820,706.729208 A 3.855118,3.855118 -0.000000 1 0 1244.121584,706.729208 3.855118,3.855118 -0.000000 1 0 1251.831820,706.729208 z"
       style="stroke:#000000;fill:none"
       id="path102" />
    <path
       d="M 232.769143,276.582127 L 1293.331032,276.582127 A 22.677165,22.677165 0.0 0 0 1316.008198,253.904961 L 1316.008198,-87.423223 A 22.677165,22.677165 0.0 0 0 1293.331032,-110.100388 L 232.769143,-110.100388 A 22.677165,22.677165 0.0 0 0 210.091977,-87.423223 L 210.091977,253.904961 A 22.677165,22.677165 0.0 0 0 232.769143,276.582127 z"
       style="stroke:#000000;fill:none"
       id="path146" />
    <path
       d="M 1029.468531,216.929645 L 784.325618,251.385905 A 4.299213,4.299213 0.0 0 1 779.469877,247.727077 L 760.040536,109.527545 A 4.299213,4.299213 0.0 0 1 763.699100,104.671698 L 795.095195,100.255908 L 785.645388,33.074560 L 772.082772,34.980605 A 4.299213,4.299213 0.0 0 1 767.227111,31.321765 L 757.821743,-35.577954 A 4.299213,4.299213 0.0 0 1 761.479420,-40.433676 L 1053.442203,-81.559550 A 4.299213,4.299213 0.0 0 1 1054.041870,-81.601577 L 1267.171032,-81.601577 A 4.299213,4.299213 0.0 0 1 1271.470245,-77.302364 L 1271.470245,-8.882711 L 1277.251032,-8.882711 A 4.299213,4.299213 0.0 0 1 1281.550245,-4.583498 L 1281.550245,63.841069 L 1287.331032,63.841069 A 4.299213,4.299213 0.0 0 1 1291.630245,68.140281 L 1291.630245,135.701982 A 4.299213,4.299213 0.0 0 1 1287.331032,140.001195 L 1283.697017,140.001195 L 1283.697017,208.415935 A 4.299213,4.299213 0.0 0 1 1279.397804,212.715147 L 1103.846308,212.715147 A 4.299213,4.299213 0.0 0 1 1099.547095,208.415935 L 1099.547095,140.001195 L 1059.494925,140.001195 L 1023.707709,145.030901 L 1033.127529,212.074101 A 4.299213,4.299213 0.0 0 1 1029.468531,216.929645 z"
       style="stroke:#000000;fill:none"
       id="path150" />
    <path
       d="M 701.217250,28.362528 A 4.299213,4.299213 0.0 0 1 704.876277,33.218132 L 695.455583,100.261268 L 726.842065,104.676612 A 4.299213,4.299213 0.0 0 1 730.500563,109.532050 L 711.084909,247.726469 A 4.299213,4.299213 0.0 0 1 706.229209,251.385702 L 478.901429,219.438722 A 4.299213,4.299213 0.0 0 1 475.242385,214.582808 L 484.667600,147.541915 L 426.541741,139.371254 L 426.541741,207.842165 A 4.299213,4.299213 0.0 0 1 422.242529,212.141377 L 246.691032,212.141377 A 4.299213,4.299213 0.0 0 1 242.391820,207.842165 L 242.391820,139.427425 L 238.769143,139.427425 A 4.299213,4.299213 0.0 0 1 234.469930,135.128212 L 234.469930,67.566511 A 4.299213,4.299213 0.0 0 1 238.769143,63.267299 L 245.627095,63.267299 L 245.627095,-5.157268 A 4.299213,4.299213 0.0 0 1 249.926308,-9.456481 L 255.351820,-9.456481 L 255.351820,-77.876134 A 4.299213,4.299213 0.0 0 1 259.651032,-82.175347 L 407.468987,-82.175347 A 4.299213,4.299213 0.0 0 1 412.111280,-84.975927 L 693.423135,-45.498723 A 4.299213,4.299213 0.0 0 1 697.083455,-40.645835 L 687.699258,26.462617 L 701.217250,28.362528 z"
       style="stroke:#000000;fill:none"
       id="path152" />
    <path
       d="M 1099.547095,-193.388982 L 1099.547095,-261.803722 L 1059.494925,-261.803722 L 1023.707709,-256.774016 L 1033.127529,-189.730815 A 4.299213,4.299213 0.0 0 1 1029.468531,-184.875271 L 784.325618,-150.419011 A 4.299213,4.299213 0.0 0 1 779.469877,-154.077840 L 760.040536,-292.277372 A 4.299213,4.299213 0.0 0 1 763.699100,-297.133218 L 795.095195,-301.549009 L 785.645388,-368.730356 L 772.082772,-366.824312 A 4.299213,4.299213 0.0 0 1 767.227111,-370.483151 L 757.821743,-437.382870 A 4.299213,4.299213 0.0 0 1 761.479420,-442.238592 L 1053.442203,-483.364466 A 4.299213,4.299213 0.0 0 1 1054.041870,-483.406493 L 1267.171032,-483.406493 A 4.299213,4.299213 0.0 0 1 1271.470245,-479.107281 L 1271.470245,-410.687627 L 1277.251032,-410.687627 A 4.299213,4.299213 0.0 0 1 1281.550245,-406.388415 L 1281.550245,-337.963848 L 1287.331032,-337.963848 A 4.299213,4.299213 0.0 0 1 1291.630245,-333.664635 L 1291.630245,-266.102934 A 4.299213,4.299213 0.0 0 1 1287.331032,-261.803722 L 1283.697017,-261.803722 L 1283.697017,-193.388982 A 4.299213,4.299213 0.0 0 1 1279.397804,-189.089769 L 1103.846308,-189.089769 A 4.299213,4.299213 0.0 0 1 1099.547095,-193.388982 z"
       style="stroke:#000000;fill:none"
       id="path154" />
    <path
       d="M 238.769143,-338.537618 L 245.627095,-338.537618 L 245.627095,-406.962185 A 4.299213,4.299213 0.0 0 1 249.926308,-411.261397 L 255.351820,-411.261397 L 255.351820,-479.681051 A 4.299213,4.299213 0.0 0 1 259.651032,-483.980263 L 407.468987,-483.980263 A 4.299213,4.299213 0.0 0 1 412.111280,-486.780844 L 693.423135,-447.303640 A 4.299213,4.299213 0.0 0 1 697.083455,-442.450752 L 687.699258,-375.342299 L 701.217250,-373.442389 A 4.299213,4.299213 0.0 0 1 704.876277,-368.586784 L 695.455583,-301.543648 L 726.842065,-297.128304 A 4.299213,4.299213 0.0 0 1 730.500563,-292.272866 L 711.084909,-154.078448 A 4.299213,4.299213 0.0 0 1 706.229209,-150.419214 L 478.901429,-182.366194 A 4.299213,4.299213 0.0 0 1 475.242385,-187.222108 L 484.667600,-254.263002 L 426.541741,-262.433662 L 426.541741,-193.962752 A 4.299213,4.299213 0.0 0 1 422.242529,-189.663539 L 246.691032,-189.663539 A 4.299213,4.299213 0.0 0 1 242.391820,-193.962752 L 242.391820,-262.377492 L 238.769143,-262.377492 A 4.299213,4.299213 0.0 0 1 234.469930,-266.676704 L 234.469930,-334.238405 A 4.299213,4.299213 0.0 0 1 238.769143,-338.537618 z"
       style="stroke:#000000;fill:none"
       id="path156" />
    <path
       d="M 1292.922843,-445.597273 A 1.889764,1.889764 -0.000000 1 0 1289.143316,-445.597273 1.889764,1.889764 -0.000000 1 0 1292.922843,-445.597273 z"
       style="stroke:#000000;fill:none"
       id="path158" />
    <path
       d="M 1292.922843,-22.060073 A 1.889764,1.889764 -0.000000 1 0 1289.143316,-22.060073 1.889764,1.889764 -0.000000 1 0 1292.922843,-22.060073 z"
       style="stroke:#000000;fill:none"
       id="path160" />
    <path
       d="M 1292.922843,-43.792357 A 1.889764,1.889764 -0.000000 1 0 1289.143316,-43.792357 1.889764,1.889764 -0.000000 1 0 1292.922843,-43.792357 z"
       style="stroke:#000000;fill:none"
       id="path162" />
    <path
       d="M 1292.922843,-65.524640 A 1.889764,1.889764 -0.000000 1 0 1289.143316,-65.524640 1.889764,1.889764 -0.000000 1 0 1292.922843,-65.524640 z"
       style="stroke:#000000;fill:none"
       id="path164" />
    <path
       d="M 1293.331032,-125.222790 A 22.677165,22.677165 0.0 0 0 1316.008198,-147.899955 L 1316.008198,-489.228139 A 22.677165,22.677165 0.0 0 0 1293.331032,-511.905305 L 232.769143,-511.905305 A 22.677165,22.677165 0.0 0 0 210.091977,-489.228139 L 210.091977,-147.899955 A 22.677165,22.677165 0.0 0 0 232.769143,-125.222790 L 1293.331032,-125.222790 z"
       style="stroke:#000000;fill:none"
       id="path168" />
    <path
       d="M 284.076229,-498.676958 A 5.952756,5.952756 -0.000000 1 0 272.170718,-498.676958 5.952756,5.952756 -0.000000 1 0 284.076229,-498.676958 z"
       style="stroke:#000000;fill:none"
       id="path174" />
    <path
       d="M 756.592765,-163.018065 A 5.952756,5.952756 -0.000000 1 0 744.687253,-163.018065 5.952756,5.952756 -0.000000 1 0 756.592765,-163.018065 z"
       style="stroke:#000000;fill:none"
       id="path176" />
    <path
       d="M 1253.929458,-163.018065 A 5.952756,5.952756 -0.000000 1 0 1242.023946,-163.018065 5.952756,5.952756 -0.000000 1 0 1253.929458,-163.018065 z"
       style="stroke:#000000;fill:none"
       id="path178" />
    <path
       d="M 756.592765,-498.676958 A 5.952756,5.952756 -0.000000 1 0 744.687253,-498.676958 5.952756,5.952756 -0.000000 1 0 756.592765,-498.676958 z"
       style="stroke:#000000;fill:none"
       id="path180" />
    <path
       d="M 1292.922843,-423.864990 A 1.889764,1.889764 -0.000000 1 0 1289.143316,-423.864990 1.889764,1.889764 -0.000000 1 0 1292.922843,-423.864990 z"
       style="stroke:#000000;fill:none"
       id="path182" />
    <path
       d="M 284.076229,-163.018065 A 5.952756,5.952756 -0.000000 1 0 272.170718,-163.018065 5.952756,5.952756 -0.000000 1 0 284.076229,-163.018065 z"
       style="stroke:#000000;fill:none"
       id="path184" />
    <path
       d="M 1292.922843,-467.329557 A 1.889764,1.889764 -0.000000 1 0 1289.143316,-467.329557 1.889764,1.889764 -0.000000 1 0 1292.922843,-467.329557 z"
       style="stroke:#000000;fill:none"
       id="path186" />
    <path
       d="M 1253.929458,-498.676958 A 5.952756,5.952756 -0.000000 1 0 1242.023946,-498.676958 5.952756,5.952756 -0.000000 1 0 1253.929458,-498.676958 z"
       style="stroke:#000000;fill:none"
       id="path188" />
    <path
       d="M 297.620166,1131.564174 L 253.747410,1131.564174 A 6.000000,6.000000 0.0 0 0 247.747410,1137.564174 L 247.747410,1419.357240 A 6.000000,6.000000 0.0 0 0 253.747410,1425.357240 L 462.849773,1425.357240 A 6.000000,6.000000 0.0 0 1 468.849773,1431.357240 L 468.849773,1459.042279 A 6.000000,6.000000 0.0 0 0 474.849773,1465.042279 L 731.693615,1465.042279 A 6.000000,6.000000 0.0 0 0 737.693615,1459.042279 L 737.693615,1445.626846 A 12.935055,12.935055 0.0 0 1 763.563725,1445.626846 L 763.563725,1459.042279 A 6.000000,6.000000 0.0 0 0 769.563725,1465.042279 L 1037.644103,1465.042279 A 6.000000,6.000000 0.0 0 0 1043.644103,1459.042279 L 1043.644103,1431.357240 A 6.000000,6.000000 0.0 0 1 1049.644103,1425.357240 L 1283.313395,1425.357240 A 6.000000,6.000000 0.0 0 0 1289.313395,1419.357240 L 1289.313395,1220.081649 A 6.000000,6.000000 0.0 0 1 1295.313395,1214.081649 L 1297.675599,1214.081649 A 6.000000,6.000000 0.0 0 0 1303.675599,1208.081649 L 1303.675599,1124.940552 A 6.000000,6.000000 0.0 0 0 1297.675599,1118.940552 L 1264.468663,1118.940552 A 6.000000,6.000000 0.0 0 0 1259.242813,1121.992589 A 12.935055,12.935055 0.0 0 1 1236.710591,1121.992589 A 6.000000,6.000000 0.0 0 0 1231.484740,1118.940552 L 767.121066,1118.940552 A 6.000000,6.000000 0.0 0 0 761.895182,1121.992648 A 12.935433,12.935433 0.0 0 1 739.362159,1121.992648 A 6.000000,6.000000 0.0 0 0 734.136275,1118.940552 L 361.414812,1118.940552 A 6.000000,6.000000 0.0 0 1 355.414812,1112.940552 L 355.414812,1106.519134 A 6.000000,6.000000 0.0 0 0 350.217962,1100.573132 L 350.217962,1096.739607 L 1293.331032,1096.739607 A 22.677165,22.677165 0.0 0 1 1316.008198,1119.416772 L 1316.008198,1460.744956 A 22.677165,22.677165 0.0 0 1 1293.331032,1483.422122 L 232.769143,1483.422122 A 22.677165,22.677165 0.0 0 1 210.091977,1460.744956 L 210.091977,1119.416772 A 22.677165,22.677165 0.0 0 1 232.769143,1096.739607 L 308.643158,1096.739607 L 308.643158,1100.599214 A 6.000000,6.000000 0.0 0 0 303.620166,1106.519134 L 303.620166,1125.564174 A 6.000000,6.000000 0.0 0 1 297.620166,1131.564174 z"
       style="stroke:#000000;fill:none"
       id="path208" />
    <path
       d="M 756.581426,1109.967953 A 5.952756,5.952756 -0.000000 1 0 744.675914,1109.967953 5.952756,5.952756 -0.000000 1 0 756.581426,1109.967953 z"
       style="stroke:#000000;fill:none"
       id="path210" />
    <path
       d="M 1253.929458,1109.967953 A 5.952756,5.952756 -0.000000 1 0 1242.023946,1109.967953 5.952756,5.952756 -0.000000 1 0 1253.929458,1109.967953 z"
       style="stroke:#000000;fill:none"
       id="path212" />
    <path
       d="M 284.076229,1109.967953 A 5.952756,5.952756 -0.000000 1 0 272.170718,1109.967953 5.952756,5.952756 -0.000000 1 0 284.076229,1109.967953 z"
       style="stroke:#000000;fill:none"
       id="path214" />
    <path
       d="M 284.076229,1445.626846 A 5.952756,5.952756 -0.000000 1 0 272.170718,1445.626846 5.952756,5.952756 -0.000000 1 0 284.076229,1445.626846 z"
       style="stroke:#000000;fill:none"
       id="path216" />
    <path
       d="M 1253.929458,1445.626846 A 5.952756,5.952756 -0.000000 1 0 1242.023946,1445.626846 5.952756,5.952756 -0.000000 1 0 1253.929458,1445.626846 z"
       style="stroke:#000000;fill:none"
       id="path218" />
    <path
       d="M 756.581426,1445.626846 A 5.952756,5.952756 -0.000000 1 0 744.675914,1445.626846 5.952756,5.952756 -0.000000 1 0 756.581426,1445.626846 z"
       style="stroke:#000000;fill:none"
       id="path220" />
  </g>
</svg>
