0
SECTION
2
HEADER
9
$INSUNITS
70
4
9
$ACADVER
1
AC1014
9
$HANDSEED
5
FFFF
0
ENDSEC
0
SECTION
2
TABLES
0
TABLE
2
VPORT
5
8
100
AcDbSymbolTable
0
ENDTAB
0
TABLE
2
LTYPE
5
5
100
AcDbSymbolTable
0
LTYPE
5
14
100
AcDbSymbolTableRecord
100
AcDbLinetypeTableRecord
2
BYBLOCK
70
0
0
LTYPE
5
15
100
AcDbSymbolTableRecord
100
AcDbLinetypeTableRecord
2
BYLAYER
70
0
0
ENDTAB
0
TABLE
2
LAYER
5
2
100
AcDbSymbolTable
70
2
0
LAYER
5
50
100
AcDbSymbolTableRecord
100
AcDbLayerTableRecord
2
0
70
0
6
CONTINUOUS
0
ENDTAB
0
TABLE
2
STYLE
5
3
100
AcDbSymbolTable
70
1
0
STYLE
5
11
100
AcDbSymbolTableRecord
100
AcDbTextStyleTableRecord
2
STANDARD
70
0
0
ENDTAB
0
TABLE
2
VIEW
5
6
100
AcDbSymbolTable
70
0
0
ENDTAB
0
TABLE
2
UCS
5
7
100
AcDbSymbolTable
70
0
0
ENDTAB
0
TABLE
2
APPID
5
9
100
AcDbSymbolTable
70
2
0
APPID
5
12
100
AcDbSymbolTableRecord
100
AcDbRegAppTableRecord
2
ACAD
70
0
0
ENDTAB
0
TABLE
2
DIMSTYLE
5
A
100
AcDbSymbolTable
70
1
0
ENDTAB
0
TABLE
2
BLOCK_RECORD
5
1
100
AcDbSymbolTable
70
1
0
BLOCK_RECORD
5
1F
100
AcDbSymbolTableRecord
100
AcDbBlockTableRecord
2
*MODEL_SPACE
0
BLOCK_RECORD
5
1B
100
AcDbSymbolTableRecord
100
AcDbBlockTableRecord
2
*PAPER_SPACE
0
ENDTAB
0
ENDSEC
0
SECTION
2
BLOCKS
0
BLOCK
5
20
100
AcDbEntity
100
AcDbBlockBegin
2
*MODEL_SPACE
0
ENDBLK
5
21
100
AcDbEntity
100
AcDbBlockEnd
0
BLOCK
5
1C
100
AcDbEntity
100
AcDbBlockBegin
2
*PAPER_SPACE
0
ENDBLK
5
1D
100
AcDbEntity
100
AcDbBlockEnd
0
ENDSEC
0
SECTION
2
ENTITIES
0
LWPOLYLINE
5
100
100
AcDbEntity
8
0
100
AcDbPolyline
90
16
70
1
43
0.0
10
107.3998356755618
20
467.77412022525772
10
107.39983567556169
20
459.36494699750631
42
0.13815388288790575
10
107.6332394199728
20
458.5363460195922
42
-0.78781039475735282
10
105.43338211234598
20
456.33644596694921
42
0.13814893251952071
10
104.60480744552379
20
456.56983361138202
10
96.195863905599737
20
456.56983361138202
42
0.13814893251961055
10
95.367289238777573
20
456.33644596694973
42
-0.78781039475735715
10
93.167431931150716
20
458.53634601959243
42
0.13815388288792863
10
93.400835675561794
20
459.36494699750631
10
93.400835675561794
20
467.77412022525772
42
0.13815388288796573
10
93.167431931150659
20
468.60272120317171
42
-0.7878103947573617
10
95.367289238777602
20
470.80262125581442
42
0.13814893251952559
10
96.195863905599737
20
470.56923361138189
10
104.60480744552379
20
470.56923361138189
42
0.13814893251950783
10
105.43338211234601
20
470.80262125581436
42
-0.78781039475739767
10
107.63323941997282
20
468.60272120317177
42
0.13815388288791278
0
LWPOLYLINE
5
101
100
AcDbEntity
8
0
100
AcDbPolyline
90
16
70
1
43
0.0
10
145.4122313418294
20
502.66685951152363
42
0.13816349972065675
10
145.06571572452333
20
501.87877124033378
10
143.89489308245015
20
493.54995106536023
42
0.1381373811987375
10
144.01063700265976
20
492.69702091389229
42
-0.78779165800633344
10
141.52589505221169
20
490.82488788392243
42
0.13816066512882808
10
140.7378108785698
20
491.17137058133488
10
132.41057803315209
20
492.34173633737714
42
0.13814408468155828
10
131.55761275080326
20
492.22595231005744
42
-0.78774231019553964
10
129.6852220959575
20
494.71044299719324
42
0.13814140074068476
10
130.03154967755319
20
495.49846914348632
10
131.20107841924178
20
503.82579009823974
42
0.13815948021177626
10
131.08517086944391
20
504.67883179016491
42
-0.78779754769853183
10
133.56952953542648
20
506.55148246223399
42
0.13814006523347039
10
134.35755579261081
20
506.20517504175382
10
142.6866961741629
20
505.03555107328054
42
0.13816468454631017
10
143.53976542360041
20
505.15148763927067
42
-0.7879100700012589
0
LWPOLYLINE
5
102
100
AcDbEntity
8
0
100
AcDbPolyline
90
16
70
1
43
0.0
10
103.92027362836996
20
526.32449618236171
42
0.13816440067341282
10
103.68683567556181
20
525.49583930381982
10
103.68683567556178
20
517.08432791894415
42
0.13816440067339031
10
103.92027362836996
20
516.25567104040226
42
-0.78781039459107582
10
101.72050714194121
20
514.05568017229245
42
0.13813841467363455
10
100.89198837837948
20
514.2890336113818
10
92.481682972744196
20
514.2890336113818
42
0.13813841467362742
10
91.653164209182393
20
514.05568017229257
42
-0.78781039459109237
10
89.453397722753607
20
516.25567104040226
42
0.13816440067339597
10
89.686835675561824
20
517.08432791894381
10
89.686835675561696
20
525.49583930381982
42
0.138164400673398
10
89.45339772275355
20
526.32449618236171
42
-0.78781039459109925
10
91.653164209182322
20
528.52448705047129
42
0.13813841467362664
10
92.481682972744125
20
528.29113361138195
10
100.89198837837948
20
528.29113361138195
42
0.13813841467363455
10
101.72050714194121
20
528.52448705047129
42
-0.78781039459110136
0
LWPOLYLINE
5
103
100
AcDbEntity
8
0
100
AcDbPolyline
90
16
70
1
43
0.0
10
232.82250961764419
20
502.38568321241712
10
241.15097091107208
20
503.55613719280609
42
0.13815104336891731
10
241.93901224303659
20
503.90257394980483
42
-0.78788185970183722
10
244.42352303010748
20
502.02999564130181
42
0.13816996119264721
10
244.30757675726866
20
501.17689577294783
10
245.4771548197651
20
492.84832258070907
42
0.13814478461109383
10
245.8234840581249
20
492.06027499351342
42
-0.78773216819091452
10
243.95112612468068
20
489.57577139123259
42
0.13813811920319832
10
243.09819494107856
20
489.69154062017765
10
234.77072591213144
20
488.52114166930085
42
0.13815276570717014
10
233.98267973873084
20
488.17469025717054
42
-0.78784047941966595
10
231.49807259989763
20
490.04707718377131
42
0.13815770696500815
10
231.61392812436472
20
490.9001152101132
10
230.44374162784308
20
499.22874339269697
42
0.13815703889755782
10
230.09730812264371
20
500.01682543455678
42
-0.78778707750976729
10
231.96956974001384
20
502.50146519308544
42
0.13813984154985134
0
LWPOLYLINE
5
104
100
AcDbEntity
8
0
100
AcDbPolyline
90
14
70
1
43
0.0
10
160.00473245748819
20
483.36391463353408
10
168.33200445747903
20
482.1935433744427
42
0.1381493010772471
10
169.1849995564796
20
482.30934034254619
42
-0.78778978184493165
10
171.05732193894025
20
479.82474324319952
42
0.13814826772131891
10
170.71091220422406
20
479.0367082172088
10
169.54077505102387
20
470.70927218936083
42
0.13815491206578642
10
169.6566117715841
20
469.85624852606293
42
-0.88836864481045086
10
166.91106688139058
20
468.2562987756553
10
157.52949129081654
20
469.57498435567368
42
-0.88829613539636976
10
155.33135280839412
20
471.86972810524452
42
0.1381486121409056
10
155.6777654736479
20
472.65776409950723
10
156.84789162197652
20
480.98500167357224
42
0.13815456764698339
10
156.73205745173615
20
481.83802359852166
42
-0.78782965488504919
10
159.21668443566188
20
483.71036756741233
42
0.13815314994969918
0
LWPOLYLINE
5
105
100
AcDbEntity
8
0
100
AcDbPolyline
90
16
70
1
43
0.0
10
143.29705766875082
20
452.10212268626219
42
0.13814738652777739
10
142.5090398231103
20
452.44855836926291
10
134.18183458375108
20
453.61898031320652
42
0.138159306856387
10
133.32878147381859
20
453.50316455545311
42
-0.78783379274358456
10
131.45648955062532
20
455.98783554736684
42
0.13814946391483685
10
131.80296054813476
20
456.77585147744986
10
132.97371078002325
20
465.10331558196128
42
0.13814947350443066
10
132.85794873886627
20
465.95631646532917
42
-0.78778504479838951
10
135.34260772948596
20
467.82854943714483
42
0.13814688955729701
10
136.1306241781075
20
467.48211798269898
10
144.45882718603042
20
466.31158015947062
42
0.13815980382466073
10
145.3118828043244
20
466.42739959717574
42
-0.78788457315964755
10
147.18405923739789
20
463.94258282801707
42
0.13816189134733176
10
146.83748249153911
20
463.15453197542985
10
145.66612932778438
20
454.82711202202898
42
0.13813704601460949
10
145.78179936178893
20
453.97417387610233
42
-0.78773817388978962
0
LWPOLYLINE
5
106
100
AcDbEntity
8
0
100
AcDbPolyline
90
16
70
1
43
0.0
10
101.24478639438941
20
475.80873361138202
42
0.13814442664883544
10
100.41623567646729
20
475.57536062087195
42
-0.78781039471385528
10
98.216417276428203
20
477.77529957960166
42
0.13815838874277578
10
98.449835675561843
20
478.60392450572613
10
98.449835675561829
20
487.01428829828893
42
0.13815573891779875
10
98.216425894697323
20
487.84289914086912
42
-0.7878103947445273
10
100.41626717579302
20
490.04281521959808
42
0.13814707648483088
10
101.24483197774452
20
489.80943361138202
10
109.65483645722472
20
489.80943361138202
42
0.13814724600670644
10
110.48340216019072
20
490.04281577091604
42
-0.78781039474595815
10
112.68324490508149
20
487.84290115593137
42
0.1381555693966397
10
112.44983567556179
20
487.01429121434239
10
112.44983567556181
20
478.60387892447511
42
0.13815573891786753
10
112.68324545642622
20
477.77526808189486
42
-0.78781039474442283
10
110.48340417533068
20
475.57535200316573
42
0.13814707648492422
10
109.65483937337922
20
475.80873361138202
0
LWPOLYLINE
5
107
100
AcDbEntity
8
0
100
AcDbPolyline
90
16
70
1
43
0.0
10
223.07399701561846
20
501.25135363314627
42
-0.78784071318491278
10
225.55860307628245
20
499.37896491686331
42
0.13815820382755822
10
225.44274716668599
20
498.52592393546303
10
226.61295846025584
20
490.19717933602806
42
0.13814388296219171
10
226.95934064937518
20
489.40916092883322
42
-0.78783395234471909
10
225.08678340062832
20
486.9246897070787
42
0.13816492842143499
10
224.23370799432419
20
487.04059182651037
10
215.90651512421957
20
485.87089243417438
42
0.13813861552473553
10
215.11851007179604
20
485.52455837537315
42
-0.78768107637681994
10
212.63390199688905
20
487.39669914332694
42
0.13813128267851654
10
212.74955858717703
20
488.24960422881162
10
211.57820745956468
20
496.57706977609456
42
0.13817080398513421
10
211.23159619337488
20
497.36516384243373
42
-0.78788584813241125
10
213.10369279030638
20
499.85004223676924
42
0.13815121566817457
10
213.95669898778266
20
499.73424165945437
10
222.28595340946788
20
500.90490289937776
42
0.1381523283423772
0
LWPOLYLINE
5
108
100
AcDbEntity
8
0
100
AcDbPolyline
90
16
70
1
43
0.0
10
181.62477612947893
20
488.24905989818882
42
0.13815421321147212
10
181.74061026821138
20
487.39604011425592
42
-0.78774939914483988
10
179.2562272473188
20
485.52349571349367
42
0.13813307664703875
10
178.46823461445706
20
485.86977546251575
10
170.13906487992523
20
487.03940355289717
42
0.13816995071258587
10
169.28596553212941
20
486.92345391671051
42
-0.78795821921411835
10
167.41356911069064
20
489.40819010558926
42
0.13817048736459825
10
167.760168146051
20
490.19628747655992
10
168.93159513656519
20
498.52513337911603
42
0.13813211583212615
10
168.81592460085096
20
499.37804161625644
42
-0.78774351634430384
10
171.3006908733104
20
501.25006839227785
42
0.13815367659594344
10
172.08874142860299
20
500.90361337267296
10
180.41600360896592
20
499.73324349369869
42
0.13814935088825511
10
181.26899899268167
20
499.84904058537518
42
-0.7877904584124843
10
183.14132016282053
20
497.36444178926348
42
0.13814839011895749
10
182.79490916010616
20
496.57640651876739
0
CIRCLE
5
109
100
AcDbEntity
8
0
100
AcDbCircle
10
198.85083567556151
20
33.354481583223169
30
0
40
1.5875000000000039
210
0
220
0
230
1
0
LWPOLYLINE
5
110
100
AcDbEntity
8
0
100
AcDbPolyline
90
16
70
1
43
0.0
10
227.4037414286031
20
506.7238438500911
42
0.13815367659602468
10
226.61569087331043
20
506.37738883048627
42
-0.78783033148778625
10
224.13106108291245
20
508.24973011425573
42
0.13815421321153751
10
224.24689522164456
20
509.10274989818879
10
223.07676398318293
20
517.43008376467776
42
0.13814913882750765
10
222.7303500154554
20
518.21812263703089
42
-0.78779045841265949
10
224.60266388397642
20
520.70272693541165
42
0.13814860217955671
10
225.45565498813161
20
520.58693170116135
10
233.78292992252071
20
521.75730337267282
42
0.1381536765958776
10
234.57098047781329
20
522.10375839227765
42
-0.78783033148784309
10
237.05561026821132
20
520.23141710850825
42
0.13815421321149904
10
236.93977612947916
20
519.37839732457496
10
238.10990736794093
20
511.05106345808622
42
0.13814913882766458
10
238.45632133566838
20
510.26302458573321
42
-0.78779045841263895
10
236.58400746714747
20
507.77842028735222
42
0.13814860217961983
10
235.73101636299216
20
507.89421552160263
0
LWPOLYLINE
5
111
100
AcDbEntity
8
0
100
AcDbPolyline
90
52
70
1
43
0.0
10
67.137335675619781
20
132.87423029261444
10
122.46233567561973
20
132.87423029261444
42
-0.41421356237309837
10
124.0498356756197
20
131.28673029261444
10
124.04983567561969
20
123.96173029257821
42
0.41421356237309176
10
125.6373356756197
20
122.37423029257825
10
193.59393567556162
20
122.37423029257819
42
0.41421356237310158
10
195.18143567556166
20
123.96173029257821
10
195.18143567556166
20
127.51123029263893
42
-0.99999999999999989
10
202.02623567556159
20
127.51123029263896
10
202.02623567556159
20
123.96173029257821
42
0.41421356237307216
10
203.61373567556171
20
122.3742302925782
10
274.5433356755351
20
122.37423029257819
42
0.41421356237310158
10
276.1308356755352
20
123.96173029257821
10
276.13083567553508
20
131.28673029261444
42
-0.41421356237306556
10
277.71833567553506
20
132.87423029261441
10
339.5433356755351
20
132.87423029261441
42
0.41421356237314422
10
341.13083567553525
20
134.4617302926145
10
341.13083567553531
20
187.18673029261441
42
-0.41421356237303603
10
342.71833567553523
20
188.77423029261448
10
343.343335675535
20
188.77423029261439
42
0.41421356237311474
10
344.93083567553498
20
190.36173029261448
10
344.93083567553498
20
212.35947900207771
42
0.41421356237308193
10
343.343335675535
20
213.9469790020776
10
334.5573337860356
20
213.94697900207757
42
0.27062670262317262
10
333.17466082841628
20
213.13946088793642
42
-0.58402683707038017
10
327.21301052270684
20
213.13946088793642
42
0.27062670262315297
10
325.83033756508735
20
213.9469790020776
10
202.96744859951718
20
213.9469790020776
42
0.27062972370610983
10
201.58476685964106
20
213.13944531943571
42
-0.58403438720055334
10
195.6229044914821
20
213.13944531943577
42
0.27062972370613081
10
194.24022275160581
20
213.94697900207771
10
95.624335675561483
20
213.9469790020776
42
-0.41421356237308848
10
94.03683567556142
20
215.53447900207772
10
94.036835675561434
20
217.23347900205493
42
0.37541420987996099
10
92.661835675561434
20
218.80669227431014
10
92.661835675561434
20
219.82097900205474
10
342.19383567556144
20
219.82097900205474
42
-0.41421356237309853
10
348.19383567556144
20
213.82097900205494
10
348.19383567556144
20
123.51123029263904
42
-0.41421356237310197
10
342.19383567556144
20
117.51123029263906
10
61.586835675561673
20
117.51123029263894
42
-0.41421356237309936
10
55.586835675561694
20
123.51123029263904
10
55.586835675561694
20
213.82097900205494
42
-0.41421356237309331
10
61.586835675561673
20
219.82097900205474
10
81.661835675561463
20
219.82097900205474
10
81.661835675561463
20
218.79979123146512
42
0.36707914448537982
10
80.332835675561469
20
217.23347900205493
10
80.332835675561483
20
212.19447900207768
42
-0.41421356237311141
10
78.745335675561492
20
210.60697900207759
10
67.137335675619781
20
210.60697900207757
42
0.41421356237309342
10
65.549835675619789
20
209.01947900207773
10
65.549835675619789
20
134.4617302926145
42
0.41421356237310819
0
LWPOLYLINE
5
112
100
AcDbEntity
8
0
100
AcDbPolyline
90
12
70
1
43
0.0
10
92.66183567556169
20
113.51123029263894
10
92.66183567556169
20
103.51123029263894
10
81.661835675561662
20
103.51123029263894
10
81.661835675561662
20
113.51123029263894
10
61.58683567556178
20
113.51123029263894
42
0.41421356237309026
10
55.586835675561773
20
107.51123029263901
10
55.586835675561773
20
17.201481583223138
42
0.41421356237309431
10
61.58683567556178
20
11.201481583223147
10
342.19383567556167
20
11.201481583223192
42
0.41421356237308293
10
348.19383567556167
20
17.20148158322317
10
348.19383567556167
20
107.51123029263901
42
0.4142135623730942
10
342.19383567556173
20
113.51123029263881
0
CIRCLE
5
113
100
AcDbEntity
8
0
100
AcDbCircle
10
198.60383567556141
20
216.32097900205468
30
0
40
1.575
210
0
220
0
230
1
0
CIRCLE
5
114
100
AcDbEntity
8
0
100
AcDbCircle
10
198.60383567556184
20
21.201481583223138
30
0
40
1.02
210
0
220
0
230
1
0
CIRCLE
5
115
100
AcDbEntity
8
0
100
AcDbCircle
10
73.586835675561872
20
233.82097900205483
30
0
40
1.575
210
0
220
0
230
1
0
CIRCLE
5
116
100
AcDbEntity
8
0
100
AcDbCircle
10
198.60683567556197
20
233.82097900205483
30
0
40
1.575
210
0
220
0
230
1
0
CIRCLE
5
117
100
AcDbEntity
8
0
100
AcDbCircle
10
330.19383567556162
20
322.63072771147063
30
0
40
1.575
210
0
220
0
230
1
0
CIRCLE
5
118
100
AcDbEntity
8
0
100
AcDbCircle
10
330.19383567556184
20
127.51123029263901
30
0
40
1.575
210
0
220
0
230
1
0
CIRCLE
5
119
100
AcDbEntity
8
0
100
AcDbCircle
10
73.586835675561758
20
110.01123029263894
30
0
40
1.02
210
0
220
0
230
1
0
CIRCLE
5
120
100
AcDbEntity
8
0
100
AcDbCircle
10
330.19383567556162
20
233.82097900205483
30
0
40
1.575
210
0
220
0
230
1
0
CIRCLE
5
121
100
AcDbEntity
8
0
100
AcDbCircle
10
330.19383567556162
20
535.25463408030805
30
0
40
1.575
210
0
220
0
230
1
0
CIRCLE
5
122
100
AcDbEntity
8
0
100
AcDbCircle
10
330.19383567556162
20
446.44488537089245
30
0
40
1.575
210
0
220
0
230
1
0
CIRCLE
5
123
100
AcDbEntity
8
0
100
AcDbCircle
10
73.586835675561815
20
322.63072771147063
30
0
40
1.575
210
0
220
0
230
1
0
CIRCLE
5
124
100
AcDbEntity
8
0
100
AcDbCircle
10
330.19383567556162
20
216.32097900205468
30
0
40
1.575
210
0
220
0
230
1
0
CIRCLE
5
125
100
AcDbEntity
8
0
100
AcDbCircle
10
198.60383567556167
20
127.51123029263894
30
0
40
1.575
210
0
220
0
230
1
0
CIRCLE
5
126
100
AcDbEntity
8
0
100
AcDbCircle
10
198.60383567556156
20
446.44488537089245
30
0
40
1.575
210
0
220
0
230
1
0
CIRCLE
5
127
100
AcDbEntity
8
0
100
AcDbCircle
10
73.586835675561758
20
127.51123029263894
30
0
40
1.575
210
0
220
0
230
1
0
CIRCLE
5
128
100
AcDbEntity
8
0
100
AcDbCircle
10
198.60683567556183
20
322.63072771147063
30
0
40
1.575
210
0
220
0
230
1
0
CIRCLE
5
129
100
AcDbEntity
8
0
100
AcDbCircle
10
73.586835675561701
20
535.25463408030805
30
0
40
1.575
210
0
220
0
230
1
0
CIRCLE
5
130
100
AcDbEntity
8
0
100
AcDbCircle
10
198.60383567556184
20
110.01123029263894
30
0
40
1.02
210
0
220
0
230
1
0
CIRCLE
5
131
100
AcDbEntity
8
0
100
AcDbCircle
10
73.586835675561758
20
216.32097900205468
30
0
40
1.575
210
0
220
0
230
1
0
LWPOLYLINE
5
132
100
AcDbEntity
8
0
100
AcDbPolyline
90
16
70
1
43
0.0
10
314.28283567556184
20
516.93376892447475
42
0.13815573891789582
10
314.51624545642642
20
516.1051580818945
42
-0.78781039474451642
10
312.31640417533083
20
513.90524200316554
42
0.13814707648488916
10
311.48783937337919
20
514.13862361138195
10
303.07783197774449
20
514.13862361138195
42
0.13814707648493227
10
302.24926717579308
20
513.90524200316554
42
-0.787810394744483
10
300.04942589469738
20
516.10515808189496
42
0.1381557389179206
10
300.28283567556196
20
516.93376892447509
10
300.28283567556201
20
525.34417829828908
42
0.13815573891795987
10
300.04942589469755
20
526.17278914086921
42
-0.78781039474455317
10
302.24926717579319
20
528.3727052195984
42
0.13814707648490238
10
303.07783197774478
20
528.139323611382
10
311.48783937337919
20
528.139323611382
42
0.13814707648492333
10
312.31640417533077
20
528.3727052195984
42
-0.78781039474448011
10
314.51624545642653
20
526.17278914086921
42
0.13815573891779231
10
314.28283567556184
20
525.34417829828908
0
CIRCLE
5
133
100
AcDbEntity
8
0
100
AcDbCircle
10
198.60383567556156
20
535.25463408030805
30
0
40
1.575
210
0
220
0
230
1
0
LWPOLYLINE
5
134
100
AcDbEntity
8
0
100
AcDbPolyline
90
16
70
1
43
0.0
10
295.23483567556184
20
525.34424216075467
10
295.2348356755619
20
516.93230506200894
42
0.13815202637491619
10
295.46823338201739
20
516.10371395137736
42
-0.78781039476336534
10
293.26836004382079
20
513.90382992910168
42
0.13815078903462669
10
292.43977550962347
20
514.13722361138196
10
284.0278958415002
20
514.13722361138196
42
0.1381507890346251
10
283.19931130730276
20
513.90382992910179
42
-0.78781039476326964
10
280.9994379691064
20
516.10371395137736
42
0.13815202637495091
10
281.23283567556211
20
516.93230506200916
10
281.23283567556206
20
525.3442421607549
42
0.13815202637487975
10
280.99943796910634
20
526.17283327138648
42
-0.7878103947633095
10
283.19931130730282
20
528.37271729366216
42
0.13815078903460665
10
284.0278958415002
20
528.13932361138188
10
292.4397755096237
20
528.13932361138188
42
0.13815078903468653
10
293.26836004382108
20
528.37271729366216
42
-0.78781039476328152
10
295.46823338201773
20
526.17283327138648
42
0.13815202637496213
0
LWPOLYLINE
5
135
100
AcDbEntity
8
0
100
AcDbPolyline
90
16
70
1
43
0.0
10
263.28772191535444
20
504.68170808320531
42
0.13814933056421411
10
263.1719602287767
20
503.82870801688631
10
264.3426998654316
20
495.50131927552599
42
0.1381540310235716
10
264.6891889512633
20
494.71328137569225
42
-0.78777797078802625
10
262.81714379306544
20
492.22848906405829
42
0.13814053145070607
10
261.96418851080568
20
492.34418829388017
10
253.63584407564858
20
491.17290973216149
42
0.13816173773710302
10
252.84778561138125
20
490.82635258297591
42
-0.78789841392853577
10
250.36303684570842
20
492.69864051871423
42
0.13816348001150242
10
250.47890330398613
20
493.55171200255285
10
249.30871156503298
20
501.88013721158421
42
0.13813988152649181
10
248.96234287217544
20
502.66813533548975
42
-0.78776857229085973
10
250.8346948971261
20
505.15268554273604
42
0.13815228868342339
10
251.68770953029568
20
505.03689926461135
10
260.01500113883253
20
506.20745348502226
42
0.13814998054578775
10
260.80302656191827
20
506.55391058975027
42
-0.78779662700223885
0
CIRCLE
5
136
100
AcDbEntity
8
0
100
AcDbCircle
10
73.586835675561815
20
446.44488537089245
30
0
40
1.575
210
0
220
0
230
1
0
CIRCLE
5
137
100
AcDbEntity
8
0
100
AcDbCircle
10
73.586835675561858
20
21.201481583223138
30
0
40
1.02
210
0
220
0
230
1
0
LWPOLYLINE
5
138
100
AcDbEntity
8
0
100
AcDbPolyline
90
16
70
1
43
0.0
10
333.33483567556209
20
525.34417829828908
10
333.33483567556198
20
516.93376892447475
42
0.13815573891783756
10
333.56824545642621
20
516.1051580818945
42
-0.78781039474455405
10
331.3684041753308
20
513.90524200316565
42
0.13814707648485894
10
330.53983937337898
20
514.13862361138195
10
322.12983197774463
20
514.13862361138195
42
0.13814707648488858
10
321.30126717579299
20
513.90524200316565
42
-0.7878103947444659
10
319.10142589469746
20
516.1051580818945
42
0.13815573891789629
10
319.33483567556198
20
516.93376892447475
10
319.33483567556198
20
525.34417829828908
42
0.13815573891788316
10
319.1014258946974
20
526.17278914086921
42
-0.7878103947444175
10
321.30126717579293
20
528.37270521959829
42
0.13814707648482591
10
322.12983197774463
20
528.139323611382
10
330.53983937337921
20
528.139323611382
42
0.13814707648489061
10
331.36840417533074
20
528.3727052195984
42
-0.78781039474449777
10
333.56824545642621
20
526.17278914086921
42
0.13815573891793895
0
LWPOLYLINE
5
139
100
AcDbEntity
8
0
100
AcDbPolyline
90
8
70
1
43
0.0
10
348.1938356755615
20
532.75463408030805
42
0.41421356237310542
10
342.1938356755615
20
538.75463408030816
10
61.586835675561709
20
538.75463408030805
42
0.4142135623730937
10
55.586835675561723
20
532.75463408030805
10
55.586835675561815
20
442.44488537089239
42
0.41421356237309243
10
61.58683567556178
20
436.44488537089251
10
342.1938356755615
20
436.44488537089251
42
0.41421356237310197
10
348.1938356755615
20
442.44488537089239
0
CIRCLE
5
140
100
AcDbEntity
8
0
100
AcDbCircle
10
330.19383567556184
20
21.20148158322316
30
0
40
1.02
210
0
220
0
230
1
0
LWPOLYLINE
5
141
100
AcDbEntity
8
0
100
AcDbPolyline
90
16
70
1
43
0.0
10
216.8668037432048
20
505.2427136995957
10
208.53870941045042
20
504.07231129062723
42
0.13815156996848735
10
207.75066554520563
20
503.7258724481328
42
-0.78777541580238819
10
205.2659835072609
20
505.59806003977911
42
0.13814234217241333
10
205.38172785889032
20
506.45102016002062
10
204.21096389556155
20
514.77858193530187
42
0.1381508616649513
10
203.86448736221385
20
515.56660458919987
42
-0.78778474116167196
10
205.73658795892243
20
518.05136296971682
42
0.13814542411019201
10
206.58957005767888
20
517.93564312081219
10
214.9187337207905
20
519.10695241113581
42
0.13816700280478028
10
215.70682095742399
20
519.45352257654486
42
-0.78789367239955899
10
218.19159724800014
20
517.58127844970363
42
0.13815700819283713
10
218.07574430510186
20
516.72824430221544
10
219.2459768600512
20
508.39934837916877
42
0.13813619561109314
10
219.59232860766465
20
507.61136695552233
42
-0.78778775386149547
10
217.71986374258688
20
505.12687958118227
42
0.13816085698173655
0
CIRCLE
5
142
100
AcDbEntity
8
0
100
AcDbCircle
10
330.19383567556184
20
110.01123029263894
30
0
40
1.02
210
0
220
0
230
1
0
LWPOLYLINE
5
143
100
AcDbEntity
8
0
100
AcDbPolyline
90
16
70
1
43
0.0
10
260.46904658655711
20
523.52158074287922
42
-0.78784537485209682
10
262.33696192685125
20
526.00955700287489
42
0.13815559096820146
10
263.19019332018019
20
525.89522977114132
10
271.51630866283762
20
527.08022459667222
42
0.13815195425829574
10
272.30374655638519
20
527.4280442872066
42
-0.78782356457792435
10
274.79163038095413
20
525.56003940593655
42
0.13815421321148558
10
274.67729004571288
20
524.70681810567839
10
275.86201330093388
20
516.38145619695149
42
0.13814387236625678
10
276.20978568265321
20
515.5940503980629
42
-0.78779045838714767
10
274.34177376502367
20
513.106210126414
42
0.13815386863164791
10
273.4885510872881
20
513.22052462020565
10
265.16342791260843
20
512.0355865646178
42
0.13815367659588076
10
264.37598520335825
20
511.68775221042716
42
-0.7877821823917609
10
261.88800538143249
20
513.55556551479117
42
0.13814195788119435
10
262.00225508480963
20
514.40872479591917
10
260.81692330650611
20
522.73414067753697
42
0.13815612768783422
0
LWPOLYLINE
5
144
100
AcDbEntity
8
0
100
AcDbPolyline
90
16
70
1
43
0.0
10
284.59993841350627
20
489.65762361138189
10
293.01073293761766
20
489.65762361138184
42
0.13815326387359536
10
293.8393306255042
20
489.89102534255898
42
-0.78781039476015124
10
296.03922533317819
20
487.69116268986875
42
0.13814955153482866
10
295.80583567556198
20
486.86258473297573
10
295.80583567556198
20
478.45196248978829
42
0.1381495515348351
10
296.03922533317814
20
477.62338453289522
42
-0.78781039476014658
10
293.83933062550426
20
475.42352188020487
42
0.13815326387366292
10
293.01073293761766
20
475.6569236113819
10
284.59993841350627
20
475.6569236113819
42
0.13815326387366167
10
283.77134072561961
20
475.42352188020487
42
-0.78781039476014658
10
281.57144601794573
20
477.62338453289522
42
0.13814955153479472
10
281.80483567556183
20
478.45196248978829
10
281.80483567556183
20
486.86258473297573
42
0.13814955153479472
10
281.57144601794573
20
487.69116268986875
42
-0.7878103947601176
10
283.77134072561955
20
489.89102534255892
42
0.13815326387364776
0
LWPOLYLINE
5
145
100
AcDbEntity
8
0
100
AcDbPolyline
90
16
70
1
43
0.0
10
328.85783567556189
20
506.10406344544339
10
328.85783567556189
20
497.6921050620092
42
0.13815202637478857
10
329.09123338201755
20
496.86351395137734
42
-0.78781039476330073
10
326.89136004382112
20
494.66362992910172
42
0.13815078903466571
10
326.06277550962369
20
494.897023611382
10
317.65056307858816
20
494.897023611382
42
0.13813144530708582
10
316.82208135867739
20
494.66369283632162
42
-0.7878103943564243
10
314.62237505441317
20
496.86374387850492
42
0.1381713699545517
10
314.85583567556193
20
497.69243779698127
10
314.85583567556193
20
506.10404216075483
42
0.13815202637495533
10
314.62243796910639
20
506.93263327138641
42
-0.78781039476329962
10
316.82231130730321
20
509.13251729366209
42
0.13815078903470734
10
317.65089584150053
20
508.89912361138187
10
326.06275422493519
20
508.89912361138215
42
0.13815202637481799
10
326.89134533556683
20
509.13252131783781
42
-0.78781039476319237
10
329.09122935784205
20
506.93264797964082
42
0.13815078903458664
0
LWPOLYLINE
5
146
100
AcDbEntity
8
0
100
AcDbPolyline
90
16
70
1
43
0.0
10
117.94796836998472
20
477.96054721643401
10
119.1187050215099
20
486.28773451903089
42
0.13814842997415391
10
119.00294811382014
20
487.14072978291364
42
-0.78777338508975825
10
121.48758480894961
20
489.01297443006922
42
0.13814496527771286
10
122.27559690106831
20
488.6665617438274
10
130.6037680295309
20
487.49614854224797
42
0.13816295360403391
10
131.4568400126883
20
487.6119878627552
42
-0.78789352581224326
10
133.32905984377072
20
485.12719343542528
42
0.13816102008875508
10
132.98248733311777
20
484.33914642874782
10
131.81112572527445
20
476.01160637454666
42
0.13813669175892687
10
131.9267957293919
20
475.15867036875335
42
-0.78774848037505441
10
129.44202187162017
20
473.28664603218056
42
0.13815036424023655
10
128.65399460275773
20
473.63310465650773
10
120.32679923250313
20
474.80364534885496
42
0.13815755466689342
10
119.47375449945257
20
474.68784600662565
42
-0.78782619351360084
10
117.60149574222064
20
477.17253319547808
42
0.1381492819283113
0
LWPOLYLINE
5
147
100
AcDbEntity
8
0
100
AcDbPolyline
90
16
70
1
43
0.0
10
303.64993841350639
20
475.6569236113819
42
0.13815326387366167
10
302.82134072561979
20
475.42352188020482
42
-0.78781039476016368
10
300.6214460179458
20
477.62338453289516
42
0.13814955153487618
10
300.85483567556184
20
478.45196248978823
10
300.85483567556184
20
486.8625847329759
42
0.13814955153482503
10
300.62144601794569
20
487.69116268986875
42
-0.78781039476018977
10
302.82134072561979
20
489.89102534255903
42
0.138153263873704
10
303.64993841350622
20
489.65762361138189
10
312.06073293761762
20
489.65762361138189
42
0.1381532638734897
10
312.88933062550421
20
489.89102534255892
42
-0.78781039476012826
10
315.08922533317815
20
487.69116268986875
42
0.13814955153482866
10
314.85583567556193
20
486.86258473297573
10
314.85583567556193
20
478.45196248978829
42
0.13814955153482561
10
315.08922533317809
20
477.62338453289522
42
-0.78781039476014658
10
312.88933062550421
20
475.42352188020487
42
0.13815326387349455
10
312.06073293761762
20
475.6569236113819
0
LWPOLYLINE
5
148
100
AcDbEntity
8
0
100
AcDbPolyline
90
16
70
1
43
0.0
10
242.98816449322447
20
510.89754741104127
42
0.13815174197096242
10
243.10440576039767
20
511.75049685212372
10
241.93814695584638
20
520.07955518606173
42
0.13816419914617287
10
241.59205521794945
20
520.86783427876571
42
-0.78783590080650301
10
243.46559039561708
20
523.35157038489706
42
0.13814510816481579
10
244.31849757115046
20
523.23531363528514
10
252.64747379254032
20
524.40124273089941
42
0.13814458149093634
10
253.43567143855023
20
524.74722728911377
42
-0.78783371073439001
10
255.91919650991696
20
522.87341573722847
42
0.13816416839919099
10
255.80286319380801
20
522.02040362648211
10
256.96851904500409
20
513.6913013508306
42
0.13815177271818035
10
257.31450506365559
20
512.90305724293614
42
-0.78778513084004964
10
255.44085448130201
20
510.41946698071058
42
0.13814461224287322
10
254.5879498069981
20
510.5357200571404
10
246.25997141432012
20
509.36990633705261
42
0.13814507741287149
10
245.47177237184911
20
509.02391756003408
42
-0.78778683757904477
0
LWPOLYLINE
5
149
100
AcDbEntity
8
0
100
AcDbPolyline
90
16
70
1
43
0.0
10
149.46767480913647
20
484.84584201120811
42
0.1381666498162597
10
150.3207589024787
20
484.96175687860296
42
-0.78784206859249872
10
152.19333725390942
20
482.47729216890235
42
0.13814422731886453
10
151.84695213487029
20
481.68927279351323
10
150.67673259667362
20
473.36058966034017
42
0.13814981766346224
10
150.79256600314883
20
472.50759638200407
42
-0.78782973143771295
10
148.30792806972789
20
470.63526682576799
42
0.13815791941580741
10
147.51985266662291
20
470.98172855497523
10
139.19074623739243
20
472.15224884905064
42
0.1381536664024228
10
138.33772767001292
20
472.03643012537736
42
-0.78784732646303623
10
136.46547532551486
20
474.52114660216006
42
0.13815854897409563
10
136.81198230534102
20
475.30920623492818
10
137.98274425534393
20
483.63675368956399
42
0.13813549596173147
10
137.86701688494679
20
484.4896746759099
42
-0.78772245730570234
10
140.35158775594562
20
486.36192842126997
42
0.13814493595983782
10
141.139626657729
20
486.0155771644998
0
LWPOLYLINE
5
150
100
AcDbEntity
8
0
100
AcDbPolyline
90
16
70
1
43
0.0
10
266.11674664380212
20
465.7684476216134
10
267.2869770431335
20
457.43962711417515
42
0.1381349700310705
10
267.63332472069226
20
456.65165193103456
42
-0.78778361576616629
10
265.76086536346952
20
454.16716519623066
42
0.13816102927423801
10
264.90780356000181
20
454.28299370823936
10
256.57972753402163
20
453.11253380225111
42
0.13815279542442718
10
255.79168022405969
20
452.76608453251504
42
-0.78777955337278982
10
253.30698244311847
20
454.63825758750602
42
0.13814216987592348
10
253.4227255191272
20
455.49121683798774
10
252.25196371329093
20
463.8187031973049
42
0.13814963621078583
10
251.9054912497362
20
464.60671961165332
42
-0.7877806040351546
10
253.7775863391347
20
467.09147735252401
42
0.13814559652289848
10
254.63057024184351
20
466.97576310873444
10
262.9597156025614
20
468.14712989841104
42
0.13816822813445281
10
263.74780628186403
20
468.49371049118901
42
-0.78789781042890661
10
266.23259831175216
20
466.62148090012096
42
0.13815683601647832
0
LWPOLYLINE
5
151
100
AcDbEntity
8
0
100
AcDbPolyline
90
16
70
1
43
0.0
10
91.5483775963434
20
497.01554458969241
42
0.1381705884641059
10
91.781835675561808
20
497.844234354783
10
91.781835675561823
20
506.25553286798106
42
0.1381705884640653
10
91.548377596343414
20
507.0842226330717
42
-0.78781039438765421
10
93.74809064914173
20
509.28426692779851
42
0.13813222680890327
10
94.57657652293328
20
509.05093361138228
10
102.9860948281903
20
509.05093361138228
42
0.13813222680889534
10
103.81458070198192
20
509.28426692779851
42
-0.78781039438769429
10
106.01429375478018
20
507.0842226330717
42
0.13817058846413441
10
105.78083567556185
20
506.25553286798123
10
105.7808356755618
20
497.844234354783
42
0.13817058846416744
10
106.01429375478021
20
497.01554458969241
42
-0.78781039438761158
10
103.81458070198192
20
494.8155002949656
42
0.13813222680897036
10
102.9860948281903
20
495.04883361138207
10
94.57657652293328
20
495.04883361138189
42
0.13813222680891299
10
93.74809064914173
20
494.81550029496555
42
-0.78781039438769773
0
LWPOLYLINE
5
152
100
AcDbEntity
8
0
100
AcDbPolyline
90
16
70
1
43
0.0
10
80.793701002965491
20
470.56923361138189
42
0.1381551203460426
10
81.622308557885759
20
470.80264138042844
42
-0.78781039474965375
10
83.822219295502805
20
468.60279475804538
42
0.13814769505858945
10
83.588835675561796
20
467.77422666835326
10
83.588835675561825
20
459.36284357921778
42
0.13803163171223087
10
83.821841968331725
20
458.53489246527778
42
-0.78781038010360294
10
81.620929332362522
20
456.33604824612888
42
0.13827117836856312
10
80.791705033591811
20
456.56983361138202
10
72.383970348158016
20
456.56983361138202
42
0.13815512034589689
10
71.555362793237748
20
456.3364258423357
42
-0.78781039474965664
10
69.355452055620759
20
458.53627246471865
42
0.13814769505864433
10
69.588835675561825
20
459.3648405544107
10
69.588835675561796
20
467.7740989387857
42
0.13815512034595639
10
69.355427906515558
20
468.60270649370614
42
-0.78781039474954184
10
71.55527452889838
20
470.80261723132281
42
0.13814769505870111
10
72.383842618590378
20
470.56923361138223
0
LWPOLYLINE
5
153
100
AcDbEntity
8
0
100
AcDbPolyline
90
16
70
1
43
0.0
10
72.411311307302796
20
494.81543992910179
42
-0.78781039476322934
10
70.211437969106143
20
497.01532395137747
42
0.13815202637485441
10
70.444835675561819
20
497.84391506200893
10
70.444835675561791
20
506.25585216075524
42
0.13815202637481369
10
70.211437969106143
20
507.08444327138665
42
-0.78781039476326387
10
72.411311307302825
20
509.28432729366222
42
0.13815078903470329
10
73.239895841500186
20
509.05093361138228
10
81.651775509623207
20
509.05093361138228
42
0.13815078903467071
10
82.480360043820781
20
509.28432729366222
42
-0.78781039476324588
10
84.68023338201732
20
507.0844432713867
42
0.13815202637484039
10
84.446835675561815
20
506.25585216075524
10
84.446835675561829
20
497.84391506200882
42
0.13815202637489332
10
84.680233382017249
20
497.01532395137718
42
-0.78781039476330772
10
82.480360043820781
20
494.81543992910179
42
0.1381507890346983
10
81.65177550962332
20
495.04883361138184
10
73.239895841500186
20
495.04883361138184
42
0.13815078903470598
0
LWPOLYLINE
5
154
100
AcDbEntity
8
0
100
AcDbPolyline
90
24
70
1
43
0.0
10
240.65137778426276
20
465.45268657285925
42
-0.65479486193335923
10
242.6506874276796
20
463.30656339628234
42
0.13815140770491172
10
242.53490027206456
20
462.45355421450228
10
243.70542350614915
20
454.12626611802403
42
0.13815140770483864
10
244.05188343337943
20
453.33823258546965
42
-0.78780064589808463
10
242.17967136423908
20
450.85353978554991
42
0.13814892633684575
10
241.32667470769005
20
450.96930856868283
10
214.13389929726574
20
447.14656552352125
42
0.13816373247314781
10
213.3458114401904
20
446.80004549620122
42
-0.78785881805568503
10
210.86109271719653
20
448.67231250666487
42
0.13815140770484463
10
210.97692833664127
20
449.52531510858023
10
209.80666595679097
20
457.85418040815171
42
0.13815140770485945
10
209.46025080252244
20
458.64223362367704
42
-0.65469972402624421
10
210.79015930043496
20
461.25631614524923
42
0.20382937040842028
10
211.96046798340561
20
461.67422680541279
42
-0.15262391885383492
10
212.81646046692359
20
462.07953585552423
10
215.03838316194415
20
462.39109056918636
42
-0.20343670031832306
10
216.23650656546656
20
462.0696869144578
42
0.20352501698443617
10
217.43516325312825
20
461.74835812827382
10
234.1266656446854
20
464.09458961738977
42
0.20349213363739074
10
235.19017079074126
20
464.73375220850335
42
-0.20356626006046277
10
236.2541235255643
20
465.37297764970117
10
238.47822603410685
20
465.68496163317462
42
-0.15238236643911884
10
239.41134904104058
20
465.5314307469144
42
0.20380069638132323
0
LWPOLYLINE
5
155
100
AcDbEntity
8
0
100
AcDbPolyline
90
16
70
1
43
0.0
10
124.67484300524981
20
507.80274184692422
42
-0.78783598187565618
10
126.5473438060213
20
505.3182257322286
42
0.13814966567037068
10
126.20093636750289
20
504.53018053808114
10
125.03075040151595
20
496.20179641609127
42
0.13815610736726311
10
125.14659856601271
20
495.3487670720852
42
-0.78783100654981086
10
122.6620011083911
20
493.47638184620513
42
0.13815195425831567
10
121.87395539446952
20
493.82282221060882
10
113.5456469536288
20
494.99325470960883
42
0.13814790351654702
10
112.69266099414928
20
494.87745272892857
42
-0.78784537478756622
10
110.82046707894094
20
497.36221097316326
42
0.13816381511587394
10
111.16699491653924
20
498.150295937495
10
112.3377287792444
20
506.47764360915664
42
0.13814195788120961
10
112.22198538083192
20
507.33060153274977
42
-0.78772921992166889
10
114.70652938551868
20
509.20290132289216
42
0.13814019545917283
10
115.49454203917898
20
508.85656100791431
10
123.82179769798681
20
507.68685279581041
42
0.13815966228195156
0
LWPOLYLINE
5
156
100
AcDbEntity
8
0
100
AcDbPolyline
90
16
70
1
43
0.0
10
254.02218601145705
20
486.36292757361701
42
-0.78776089209112377
10
256.5066134599511
20
484.49042446141112
42
0.13815369657215701
10
256.39078314675459
20
483.63740728507287
10
257.56087947592272
20
475.31050205304433
42
0.13815734304835156
10
257.90732828445675
20
474.52242474588456
42
-0.78777804355228942
10
256.03514681173942
20
472.03773505538095
42
0.13813723794091642
10
255.18221820896716
20
472.15348399822807
10
246.85479580080798
20
470.98291139152082
42
0.13815735320673611
10
246.06673491170818
20
470.63642508736842
42
-0.78785424831768425
10
243.58207597638855
20
472.50876442345293
42
0.13815662390377453
10
243.69792796576658
20
473.36179637444963
10
242.52773810033199
20
481.69038846342283
42
0.13815441571747908
10
242.18131420034524
20
482.47845754168111
42
-0.78784839813434626
10
244.05382106094362
20
484.96298345843803
42
0.13815807241918771
10
244.90685482169039
20
484.84708024973685
10
253.23418369760688
20
486.01661854025167
42
0.1381365187226847
0
LWPOLYLINE
5
157
100
AcDbEntity
8
0
100
AcDbPolyline
90
16
70
1
43
0.0
10
162.87482598317652
20
490.04561445447905
42
-0.78776345229465172
10
160.39012306278056
20
488.17347295903232
42
0.1381421109871222
10
159.60213794755441
20
488.51990447139372
10
151.2746089398303
20
489.69055213281263
42
0.13814654518650069
10
150.42162631741118
20
489.57478613645515
42
-0.78780987172936545
10
148.54945153986688
20
492.05951771342245
42
0.13815613709402991
10
148.89593799645974
20
492.84757056781586
10
150.06672209924886
20
501.17611658788803
42
0.13816083751081779
10
149.95091999130631
20
502.02918081540088
42
-0.78779933497267829
10
152.43551297419566
20
503.90152333500851
42
0.13813916284793892
10
153.22348980157722
20
503.55511690658079
10
161.55200557032998
20
502.38447505151953
42
0.13814949331751541
10
162.40500307412077
20
502.50026287607108
42
-0.78786892251419482
10
164.27710065833296
20
500.01540480659168
42
0.13816821858334327
10
163.93051139390826
20
499.22731800347691
10
162.759113329808
20
490.89861769602805
42
0.13814875598830006
0
LWPOLYLINE
5
158
100
AcDbEntity
8
0
100
AcDbPolyline
90
16
70
1
43
0.0
10
238.69698504095936
20
472.65861011472282
42
0.13813392679245506
10
239.04332702130645
20
471.87063926228006
42
-0.78778226287483788
10
237.1708574534585
20
469.38616178910024
42
0.1381617281527408
10
236.31779165535772
20
469.50199203511488
10
227.98970959338462
20
468.33153128080482
42
0.13815174223015389
10
227.20166734991423
20
467.98508618209638
42
-0.78777887646876188
10
224.71697624418078
20
469.85726705624046
42
0.13814305077518046
10
224.83272065695985
20
470.7102314571373
10
223.66196520473949
20
479.03761255441043
42
0.13814910962758511
10
223.31549404306014
20
479.82562609108697
42
-0.78776683900947919
10
225.18754192824719
20
482.31040346170118
42
0.13814261939890288
10
226.04051126796364
20
482.19471469975565
10
234.36967918875641
20
483.36626488216689
42
0.13817085091921064
10
235.15777512955228
20
483.71287258555577
42
-0.78791360716412484
10
237.64260131817539
20
481.84066407872564
42
0.13815823355887391
10
237.526744487077
20
480.98762304252483
0
LWPOLYLINE
5
159
100
AcDbEntity
8
0
100
AcDbPolyline
90
16
70
1
43
0.0
10
334.18883567556185
20
467.62231022525737
10
334.18883567556185
20
459.21313699750641
42
0.13815388288785099
10
334.42223941997275
20
458.38453601959225
42
-0.78781039475728953
10
332.22238211234605
20
456.18463596694932
42
0.13814893251943688
10
331.39380744552386
20
456.4180236113819
10
322.98486390559981
20
456.4180236113819
42
0.13814893251954266
10
322.15628923877767
20
456.18463596694932
42
-0.78781039475735426
10
319.95643193115069
20
458.38453601959225
42
0.13815388288784794
10
320.18983567556182
20
459.21313699750641
10
320.18983567556182
20
467.62231022525776
42
0.13815388288780653
10
319.95643193115075
20
468.4509112031717
42
-0.78781039475736836
10
322.15628923877767
20
470.65081125581457
42
0.13814893251953678
10
322.98486390559981
20
470.41742361138205
10
331.39380744552398
20
470.41742361138205
42
0.13814893251955229
10
332.22238211234605
20
470.65081125581429
42
-0.78781039475754611
10
334.42223941997298
20
468.45091120317159
42
0.13815388288783823
0
LWPOLYLINE
5
160
100
AcDbEntity
8
0
100
AcDbPolyline
90
16
70
1
43
0.0
10
296.14438765944448
20
468.4507494067492
42
-0.78781039449914181
10
298.34412742871172
20
470.65076698885093
42
0.13813532068344683
10
299.17262974714862
20
470.41742361138205
10
307.58448814871815
20
470.41742361138205
42
0.13816749463017847
10
308.4131614709292
20
470.65087162749961
42
-0.78781039449912338
10
310.61317905303088
20
468.45113185823237
42
0.13813532068336287
10
310.37983567556194
20
467.6226295397953
10
310.37983567556188
20
459.31844298198928
42
0.1778986509829904
10
310.75748264887784
20
458.29062397855353
42
-0.92308315271701447
10
308.49921811739614
20
456.03786445134688
42
0.17852820212436857
10
307.46844930425101
20
456.4180236113819
10
299.1731832024056
20
456.4180236113819
42
0.13816749463019171
10
298.34450988019478
20
456.18457559526456
42
-0.78781039449913615
10
296.1444922980931
20
458.38431536453152
42
0.13813532068330381
10
296.37783567556198
20
459.21281768296865
10
296.37783567556198
20
467.62207608453832
42
0.13816749463021322
0
CIRCLE
5
161
100
AcDbEntity
8
0
100
AcDbCircle
10
341.5858356755615
20
526.96063408030818
30
0
40
1.4999999999999922
210
0
220
0
230
1
0
LWPOLYLINE
5
162
100
AcDbEntity
8
0
100
AcDbPolyline
90
16
70
1
43
0.0
10
270.55155723735334
20
507.68828990473128
10
278.8800899567496
20
508.85875392308611
42
0.13814405499393259
10
279.66809766971556
20
509.20516300443296
42
-0.78787915484268123
10
282.15256134566914
20
507.33252634338362
42
0.13817626113514167
10
282.03660282593023
20
506.47939000782003
10
283.20614886331839
20
498.15128514312653
42
0.13814267761842464
10
283.55247288972868
20
497.36324906907328
42
-0.78770884576951505
10
281.68018877720039
20
494.87871684549077
42
0.13813428946754874
10
280.8272750586778
20
494.99444395980322
10
272.50070484586843
20
493.8238466411824
42
0.13815240241482279
10
271.71267366869444
20
493.47736653381622
42
-0.78781836368082714
10
269.22796283027282
20
495.34958187892556
42
0.13815244129673843
10
269.34374495659654
20
496.20259799935894
10
268.17296005264706
20
504.53120978966041
42
0.13816649754313629
10
267.82643334535106
20
505.31931282569786
42
-0.78783522171457543
10
269.69860138143258
20
507.80407881995086
42
0.13814263691880541
0
CIRCLE
5
163
100
AcDbEntity
8
0
100
AcDbCircle
10
341.5858356755615
20
515.46063408030818
30
0
40
1.499999999999988
210
0
220
0
230
1
0
LWPOLYLINE
5
164
100
AcDbEntity
8
0
100
AcDbPolyline
90
8
70
1
43
0.0
10
61.586835675561815
20
223.82097900205483
10
342.1938356755615
20
223.82097900205477
42
0.41421356237309681
10
348.19383567556144
20
229.82097900205488
10
348.1938356755615
20
320.13072771147063
42
0.41421356237308116
10
342.1938356755615
20
326.13072771147068
10
61.586835675561822
20
326.13072771147068
42
0.41421356237308249
10
55.586835675561787
20
320.13072771147063
10
55.586835675561879
20
229.82097900205488
42
0.41421356237309631
0
CIRCLE
5
165
100
AcDbEntity
8
0
100
AcDbCircle
10
341.5858356755615
20
521.21063408030818
30
0
40
1.4999999999999956
210
0
220
0
230
1
0
LWPOLYLINE
5
166
100
AcDbEntity
8
0
100
AcDbPolyline
90
32
70
1
43
0.0
10
272.3802155991757
20
239.60403140274775
10
207.51948655994653
20
230.48747930933959
42
-0.41420401556785114
10
206.23473817685164
20
231.45554425681809
10
201.09405854161696
20
268.02083715123547
42
-0.41419669678080734
10
202.0620534652642
20
269.30561312921213
10
210.36893711613175
20
270.47395776907797
10
207.8686755255201
20
288.24902261872319
10
204.28023354252309
20
287.74471503363429
42
-0.41419851103855571
10
202.99550632931343
20
288.71278295646044
10
200.50700279399564
20
306.41333368014716
42
-0.4141357481618812
10
201.47476331607709
20
307.69807666519483
10
278.72324956204511
20
318.57929757129318
42
-0.034999104756359922
10
278.88191148251786
20
318.5904172425445
10
335.27233567556203
20
318.59041724254445
42
-0.41421356237307677
10
336.40983567556196
20
317.45291724254452
10
336.40983567556185
20
299.35021724254443
10
337.93933567556178
20
299.35021724254449
42
-0.41421356237304929
10
339.07683567556182
20
298.21271724254439
10
339.07683567556199
20
280.10871724254446
10
340.60633567556181
20
280.10871724254451
42
-0.41421356237310419
10
341.74383567556185
20
278.97121724254441
10
341.74383567556185
20
261.09551724254453
42
-0.41421356237312246
10
340.60633567556181
20
259.95801724254454
10
339.64483567556181
20
259.95801724254454
10
339.64483567556181
20
241.85661724254444
42
-0.41421356237310419
10
338.50733567556182
20
240.71911724254446
10
292.0593356755619
20
240.71911724254446
42
-0.41421356237305845
10
290.92183567556185
20
241.85661724254444
10
290.92183567556185
20
259.95801724254443
10
280.32469900656361
20
259.95801724254443
10
270.85599792754482
20
258.62724090553752
10
273.34832534540044
20
240.88872742909081
42
-0.4141986067068153
0
LWPOLYLINE
5
167
100
AcDbEntity
8
0
100
AcDbPolyline
90
31
70
1
43
0.0
10
185.53039732885989
20
289.49574788952464
42
-0.41420498386110183
10
186.49851500192756
20
288.21103590750118
10
184.00595626829158
20
270.4725395110604
10
192.31029646809489
20
269.30431299027447
42
-0.41416145938997839
10
193.278274088388
20
268.01964514591668
10
188.14121561448849
20
231.45570515361598
42
-0.41422432189787528
10
186.85647821922683
20
230.48753296388782
10
126.709336418627
20
238.94017149901799
42
-0.41422975412205404
10
125.74121436150058
20
240.22496535071838
10
128.23496922891181
20
257.9628684304555
10
112.85583567556181
20
260.12468892785239
10
112.85583567556179
20
242.00842724254454
42
-0.41421356237307677
10
111.71833567556179
20
240.87092724254455
10
65.27033567556181
20
240.87092724254455
42
-0.41421356237311102
10
64.132835675561864
20
242.00842724254457
10
64.13283567556185
20
260.1098272425445
10
63.174335675561828
20
260.1098272425445
42
-0.41421356237310192
10
62.036835675561846
20
261.2473272425446
10
62.036835675561818
20
279.12302724254454
42
-0.41421356237312712
10
63.174335675561828
20
280.26052724254453
10
64.988835675561845
20
280.26052724254453
10
64.988835675561859
20
298.36452724254434
42
-0.41421356237308821
10
66.126335675561862
20
299.5020272425445
10
67.561835675561809
20
299.5020272425445
10
67.561835675561795
20
317.60472724254453
42
-0.41421356237309276
10
68.699335675561812
20
318.74222724254452
10
107.80950286616729
20
318.74222724254452
42
-0.35500112737466433
10
109.03777607485758
20
319.4832141446966
10
183.46820438083392
20
309.03820388253968
42
-0.41407102073683905
10
184.43666413113431
20
307.7542106021192
10
181.95376205118438
20
289.99843245816231
0
LWPOLYLINE
5
168
100
AcDbEntity
8
0
100
AcDbPolyline
90
32
70
1
43
0.0
10
290.92183567556185
20
348.16750135550046
10
290.92183567556185
20
366.26890135550042
10
280.32469900656361
20
366.26890135550042
10
270.85599792754482
20
364.93812501849328
10
273.34832534540044
20
347.19961154204668
42
-0.41419860670685404
10
272.3802155991757
20
345.91491551570368
10
207.51948655994653
20
336.79836342229544
42
-0.41420401556789649
10
206.23473817685164
20
337.76642836977385
10
201.0940585416169
20
374.33172126419129
42
-0.41419669678083576
10
202.0620534652642
20
375.61649724216807
10
210.36893711613175
20
376.78484188203385
10
207.8686755255201
20
394.55990673167918
10
204.28023354252309
20
394.05559914659023
42
-0.41419851103849892
10
202.99550632931343
20
395.02366706941632
10
200.50700279399567
20
412.72421779310315
42
-0.41413574816193682
10
201.4747633160772
20
414.00896077815077
10
278.72324956204511
20
424.89018168424889
42
-0.034999104755910622
10
278.88191148251786
20
424.90130135550032
10
335.27233567556203
20
424.90130135550027
42
-0.41421356237313162
10
336.40983567556185
20
423.76380135550045
10
336.40983567556185
20
405.66110135550019
10
337.93933567556189
20
405.66110135550019
42
-0.41421356237302187
10
339.07683567556199
20
404.5236013555002
10
339.07683567556199
20
386.41960135550045
10
340.60633567556175
20
386.41960135550045
42
-0.41421356237313162
10
341.74383567556174
20
385.2821013555004
10
341.74383567556185
20
367.40640135550046
42
-0.41421356237313162
10
340.60633567556181
20
366.26890135550042
10
339.64483567556181
20
366.26890135550042
10
339.64483567556169
20
348.16750135550046
42
-0.41421356237304013
10
338.50733567556182
20
347.03000135550019
10
292.0593356755619
20
347.0300013555003
42
-0.41421356237304013
0
LWPOLYLINE
5
169
100
AcDbEntity
8
0
100
AcDbPolyline
90
31
70
1
43
0.0
10
63.174335675561828
20
386.5714113555004
10
64.988835675561845
20
386.5714113555004
10
64.988835675561859
20
404.67541135550022
42
-0.41421356237317963
10
66.126335675561862
20
405.81291135550032
10
67.561835675561809
20
405.81291135550032
10
67.561835675561809
20
423.9156113555004
42
-0.41421356237314311
10
68.699335675561812
20
425.0531113555005
10
107.80950286616729
20
425.0531113555005
42
-0.35500112737468864
10
109.03777607485763
20
425.79409825765242
10
183.46820438083392
20
415.34908799549561
42
-0.41407102073682089
10
184.43666413113425
20
414.06509471507513
10
181.95376205118438
20
396.3093165711183
10
185.53039732885989
20
395.80663200248057
42
-0.41420498386101895
10
186.49851500192744
20
394.52192002045706
10
184.00595626829158
20
376.78342362401634
10
192.31029646809486
20
375.61519710323023
42
-0.41416145939000809
10
193.27827408838803
20
374.33052925887262
10
188.14121561448849
20
337.76658926657183
42
-0.41422432189787528
10
186.85647821922683
20
336.79841707684369
10
126.70933641862698
20
345.25105561197381
42
-0.41422975412206697
10
125.74121436150058
20
346.53584946367408
10
128.23496922891181
20
364.27375254341143
10
112.85583567556181
20
366.43557304080844
10
112.85583567556181
20
348.31931135550042
42
-0.41421356237310875
10
111.71833567556179
20
347.18181135550049
10
65.27033567556181
20
347.18181135550049
42
-0.41421356237307905
10
64.132835675561893
20
348.31931135550042
10
64.13283567556185
20
366.42071135550049
10
63.174335675561828
20
366.42071135550043
42
-0.41421356237311335
10
62.036835675561832
20
367.55821135550048
10
62.036835675561846
20
385.43391135550053
42
-0.41421356237311791
0
CIRCLE
5
170
100
AcDbEntity
8
0
100
AcDbCircle
10
341.5858356755615
20
414.89761182442663
30
0
40
0.50000000000000255
210
0
220
0
230
1
0
CIRCLE
5
171
100
AcDbEntity
8
0
100
AcDbCircle
10
341.5858356755615
20
302.83672771147064
30
0
40
0.5000000000000081
210
0
220
0
230
1
0
CIRCLE
5
172
100
AcDbEntity
8
0
100
AcDbCircle
10
341.5858356755615
20
308.5867277114707
30
0
40
0.50000000000000255
210
0
220
0
230
1
0
CIRCLE
5
173
100
AcDbEntity
8
0
100
AcDbCircle
10
341.5858356755615
20
314.33672771147064
30
0
40
0.49999999999999983
210
0
220
0
230
1
0
LWPOLYLINE
5
174
100
AcDbEntity
8
0
100
AcDbPolyline
90
15
70
1
43
0.0
10
205.9686943852634
20
468.0591582555769
10
204.79796222185558
20
476.3864938402549
42
0.13815016279215189
10
204.45148845642248
20
477.1745131322599
42
-0.78777119957082231
10
206.32354681015556
20
479.65928766381467
42
0.13814267616265069
10
207.17651550306789
20
479.54359160010534
10
215.50392083574056
20
480.71482256870121
42
0.13815647247810842
10
216.29195052610334
20
481.06136670197003
42
-0.78781024582338732
10
218.77681784146461
20
479.18937151395033
42
0.13814630501929626
10
218.66111296416028
20
478.33638205238435
10
219.83252515183256
20
470.00770147045449
42
0.13816017712138218
10
220.17908413143613
20
469.21965403624176
42
-0.78787990673103436
10
218.30687327345959
20
466.73486860333492
42
0.13816033039973258
10
217.45381546460735
20
466.85069538135878
10
208.59839276786079
20
465.6061201415568
42
-0.88828809348502558
10
205.85291536166579
20
467.20611824140752
42
0.1381563193627785
0
LWPOLYLINE
5
175
100
AcDbEntity
8
0
100
AcDbPolyline
90
8
70
1
43
0.0
10
342.1938356755615
20
330.13186311501067
42
0.41421356237308116
10
348.1938356755615
20
336.13186311501067
10
348.19383567556156
20
426.44161182442639
42
0.41421356237309503
10
342.1938356755615
20
432.44161182442662
10
61.586835675561822
20
432.44161182442656
42
0.4142135623730942
10
55.586835675561801
20
426.44161182442639
10
55.586835675561844
20
336.13186311501067
42
0.41421356237308249
10
61.586835675561815
20
330.13186311501073
0
LWPOLYLINE
5
176
100
AcDbEntity
8
0
100
AcDbPolyline
90
16
70
1
43
0.0
10
162.21272828930327
20
519.54570884295049
42
0.13814913882747801
10
161.86645085961291
20
518.75760996396207
10
160.69774569566027
20
510.42995443917221
42
0.13814722466184698
10
160.81371027802686
20
509.57699467942007
42
-0.78783033144174419
10
158.32935354986921
20
507.70429109229411
42
0.13816066512888681
10
157.54120935768447
20
508.05063724382023
10
149.2138508206553
20
509.21954943283924
42
0.13814860217967506
10
148.36087979157668
20
509.10360641409432
42
-0.78774231016224794
10
146.48801466271388
20
511.58773945153746
42
0.1381368832305519
10
146.83418782444926
20
512.37580385174897
10
148.00228458136411
20
520.70340427013934
42
0.13815948021170238
10
147.88622923830843
20
521.55642586752788
42
-0.78787171646878751
10
150.37048958380478
20
523.42932084332335
42
0.13815894279557761
10
151.15862893257881
20
523.08298934669074
10
159.4869797434805
20
521.91402229691937
42
0.13815032451947987
10
160.33995946387688
20
522.02997806986571
42
-0.78779722511063721
0
LWPOLYLINE
5
177
100
AcDbEntity
8
0
100
AcDbPolyline
90
16
70
1
43
0.0
10
333.49262651214423
20
489.65762361138189
42
0.13815945080611883
10
334.32125708299736
20
489.8910454648011
42
-0.78781039469753822
10
336.52120521208525
20
487.69123623568254
42
0.13814336457940515
10
336.2878356755615
20
486.86269116274724
10
336.28783567556172
20
478.45185606001678
42
0.13814336457944998
10
336.52120521208525
20
477.62331098708131
42
-0.78781039469747682
10
334.32125708299742
20
475.42350175796287
42
0.13815945080618355
10
333.49262651214423
20
475.6569236113819
10
325.0810448389791
20
475.6569236113819
42
0.13815945080620154
10
324.25241426812602
20
475.42350175796292
42
-0.78781039469758196
10
322.05246613903819
20
477.62331098708137
42
0.13814336457964424
10
322.285835675562
20
478.45185606001678
10
322.28583567556194
20
486.86269116274724
42
0.13814336457957171
10
322.05246613903807
20
487.69123623568248
42
-0.78781039469747016
10
324.25241426812613
20
489.89104546480121
42
0.13815945080606112
10
325.0810448389791
20
489.65762361138189
0
CIRCLE
5
178
100
AcDbEntity
8
0
100
AcDbCircle
10
73.586835675561815
20
428.9416118244265
30
0
40
1.575
210
0
220
0
230
1
0
CIRCLE
5
179
100
AcDbEntity
8
0
100
AcDbCircle
10
198.60683567556197
20
340.13186311501079
30
0
40
1.575
210
0
220
0
230
1
0
CIRCLE
5
180
100
AcDbEntity
8
0
100
AcDbCircle
10
330.19383567556162
20
340.13186311501079
30
0
40
1.575
210
0
220
0
230
1
0
CIRCLE
5
181
100
AcDbEntity
8
0
100
AcDbCircle
10
198.60683567556183
20
428.9416118244265
30
0
40
1.575
210
0
220
0
230
1
0
CIRCLE
5
182
100
AcDbEntity
8
0
100
AcDbCircle
10
341.5858356755615
20
409.14761182442652
30
0
40
0.5000000000000081
210
0
220
0
230
1
0
CIRCLE
5
183
100
AcDbEntity
8
0
100
AcDbCircle
10
73.586835675561872
20
340.13186311501079
30
0
40
1.575
210
0
220
0
230
1
0
CIRCLE
5
184
100
AcDbEntity
8
0
100
AcDbCircle
10
341.5858356755615
20
420.64761182442652
30
0
40
0.49999999999999983
210
0
220
0
230
1
0
CIRCLE
5
185
100
AcDbEntity
8
0
100
AcDbCircle
10
330.19383567556162
20
428.9416118244265
30
0
40
1.575
210
0
220
0
230
1
0
LWPOLYLINE
5
186
100
AcDbEntity
8
0
100
AcDbPolyline
90
15
70
1
43
0.0
10
83.993150543600194
20
489.80943361138202
42
-0.8883282152172115
10
86.489245456426275
20
487.84289914086912
42
0.13815573891783936
10
86.255835675561784
20
487.01428829828893
10
86.255835675561798
20
478.60387892447511
42
0.1381557389178818
10
86.489245456426232
20
477.77526808189492
42
-0.78781039474444881
10
84.289404175330588
20
475.57535200316573
42
0.13814707648492422
10
83.460839373379144
20
475.80873361138202
10
75.050831977744522
20
475.80873361138202
42
0.13814707648488597
10
74.222267175792794
20
475.57535200316573
42
-0.78781039474448789
10
72.022425894697321
20
477.77526808189492
42
0.13815573891789945
10
72.255835675561798
20
478.60387892447511
10
72.255835675561798
20
487.01428829828893
42
0.13815573891783359
10
72.022425894697221
20
487.84289914086912
42
-0.78781039474449732
10
74.222267175792823
20
490.0428152195982
42
0.13814707648489413
10
75.05083197774438
20
489.80943361138202
0
LWPOLYLINE
5
187
100
AcDbEntity
8
0
100
AcDbPolyline
90
16
70
1
43
0.0
10
302.89725350411584
20
506.93255972846686
42
0.13815821331035621
10
302.66383567556198
20
506.10393573474431
10
302.66383567556198
20
497.69587002808692
42
0.13837098412361742
10
302.89794597520762
20
496.86611550476414
42
-0.78781034548927487
10
300.69996420093332
20
494.66434161716302
42
0.13793181337488253
10
299.87254385962461
20
494.897023611382
10
291.45778941226627
20
494.897023611382
42
0.13814460208217313
10
290.62923776190263
20
494.66365005033794
42
-0.78781039471640402
10
288.42941784700781
20
496.86358749429729
42
0.13815821331036629
10
288.66283567556201
20
497.69221148801967
10
288.66283567556201
20
506.1041698746775
42
0.13814460208222859
10
288.42946211451783
20
506.93272152504113
42
-0.78781039471628378
10
290.62939955847708
20
509.13254143993584
42
0.1381582133103019
10
291.45802355219917
20
508.89912361138209
10
299.86888193885767
20
508.89912361138209
42
0.13814460208231921
10
300.69743358922142
20
509.13249717242604
42
-0.78781039471630132
0
LWPOLYLINE
5
188
100
AcDbEntity
8
0
100
AcDbPolyline
90
16
70
1
43
0.0
10
276.42514508255249
20
477.96129246600321
42
0.13813161674520139
10
276.77143392333056
20
477.17331339291769
42
-0.78774231007083961
10
274.89894785796457
20
474.68889461318042
42
0.13815386863159992
10
274.04592665130798
20
474.80470291291425
10
265.7188604725539
20
473.63436058133522
42
0.1381606651288419
10
264.93077629891206
20
473.28787788392225
42
-0.78778218225809316
10
262.44601945258461
20
475.15997658541431
42
0.13813496929978528
10
262.56174551669983
20
476.01289456126472
10
261.39097650683448
20
484.34049223220433
42
0.13815612768783062
10
261.04447911690681
20
485.12854021777542
42
-0.78785214094197398
10
262.91677251512857
20
487.61323133084852
42
0.13815731305987031
10
263.76981110689843
20
487.49739752630546
10
272.09886181742053
20
488.66784991753377
42
0.13815722070511124
10
272.8869363097354
20
489.01430330573481
42
-0.78786495025306658
10
275.37150048167979
20
487.14182179016473
42
0.13815948021179242
10
275.25559293188184
20
486.28878009823961
0
LWPOLYLINE
5
189
100
AcDbEntity
8
0
100
AcDbPolyline
90
16
70
1
43
0.0
10
119.80918023394069
20
513.35054298328726
10
111.4800297220831
20
514.52034859394314
42
0.13816837096637613
10
110.62693694314051
20
514.40442098014285
42
-0.78794580570328154
10
108.75457749234315
20
516.88917067270313
42
0.1381689079705023
10
109.10117262340933
20
517.6772594125863
10
110.272588116262
20
526.00584334900077
42
0.13813159878122497
10
110.15692140815246
20
526.85874897568476
42
-0.78774148506892494
10
112.64169087331041
20
528.73076839227804
42
0.13815367659585812
10
113.42974142860299
20
528.38431337267264
10
121.75696789670471
20
527.2139485129419
42
0.13815144734110629
10
122.60997526355112
20
527.32975080564779
42
-0.78779045840585282
10
124.48231687881417
20
524.84516741652476
42
0.13814629366360442
10
124.13591417836599
20
524.05714223162113
10
122.96577612947902
20
515.72975989818906
42
0.13815421321148003
10
123.08161026821132
20
514.87674011425588
42
-0.78776384171093827
10
120.59718320632534
20
513.00423195775477
42
0.13813675287835664
0
LWPOLYLINE
5
190
100
AcDbEntity
8
0
100
AcDbPolyline
90
16
70
1
43
0.0
10
129.13711899457894
20
523.35448208874016
42
0.13814234217242125
10
129.02132133329258
20
524.20743497331057
42
-0.78780144182100287
10
131.50596570720916
20
526.07971253155392
42
0.1381581944487115
10
132.29404984641494
20
525.73326657556754
10
140.62128915806971
20
524.56319036983768
42
0.13815176204726315
10
141.47429436218746
20
524.67902262049552
42
-0.7877162901952901
10
143.34691015903886
20
522.19473175838812
42
0.13812710001898681
10
143.0006962779949
20
521.40674933719629
10
141.83162060978046
20
513.07827430274165
42
0.13816857413141823
10
141.94761252101816
20
512.22518903399464
42
-0.78793911793400551
10
139.46302472744941
20
510.35262501442327
42
0.1381670028047649
10
138.67491583177039
20
510.6991459238177
10
130.34563689392223
20
511.86994055587348
42
0.13814295364135537
10
129.49267615055044
20
511.75417352428337
42
-0.78778474114162655
10
127.62044435362648
20
514.23883304868912
42
0.138153332126494
10
127.96688141868833
20
515.02688924035658
0
LWPOLYLINE
5
191
100
AcDbEntity
8
0
100
AcDbPolyline
90
16
70
1
43
0.0
10
70.63683567556167
20
525.49583930381982
42
0.13816440067332333
10
70.403397722753496
20
526.32449618236171
42
-0.78781039459112179
10
72.603164209182268
20
528.52448705047118
42
0.13813841467370222
10
73.431682972743999
20
528.29113361138195
10
81.841988378379483
20
528.29113361138195
42
0.13813841467363797
10
82.670507141941215
20
528.52448705047129
42
-0.78781039459110735
10
84.870273628370086
20
526.32449618236171
42
0.13816440067345118
10
84.636835675561798
20
525.49583930381982
10
84.63683567556177
20
517.08432791894415
42
0.13816440067338998
10
84.870273628369986
20
516.25567104040226
42
-0.78781039459112046
10
82.670507141941243
20
514.05568017229245
42
0.13813841467362473
10
81.841988378379483
20
514.28903361138191
10
73.431682972743999
20
514.2890336113818
42
0.13813841467363797
10
72.603164209182282
20
514.05568017229245
42
-0.78781039459113023
10
70.403397722753425
20
516.25567104040226
42
0.13816440067340954
10
70.636835675561798
20
517.08432791894415
0
LWPOLYLINE
5
192
100
AcDbEntity
8
0
100
AcDbPolyline
90
16
70
1
43
0.0
10
174.19532503899433
20
469.2182844968097
42
0.13814498598059535
10
174.54171002987121
20
470.00630889895598
10
175.71192794241799
20
478.33522075320968
42
0.13815893231976731
10
175.59606852976134
20
479.18826566818564
42
-0.78792782972546171
10
178.08093107291836
20
481.06044775691282
42
0.13817377179781248
10
178.8690341652227
20
480.71381280098478
10
187.19641788879909
20
479.54234459513327
42
0.13812794050773344
10
188.04930562007169
20
479.65797998323836
42
-0.78765632753890702
10
189.92143828833389
20
477.17339447466941
42
0.13813565755123058
10
189.57513266486998
20
476.3853963041293
10
188.40561668787049
20
468.05822630456879
42
0.13816826066845161
10
188.52154518090029
20
467.20513431270803
42
-0.78787585501409663
10
186.03701043822537
20
465.33259700686614
42
0.13815121563921187
10
185.24897072797791
20
465.67904002009288
10
176.9206883790628
20
466.84952892350174
42
0.13815049686164074
10
176.06768677717636
20
466.73372654245162
42
-0.78778158664590459
0
LWPOLYLINE
5
193
100
AcDbEntity
8
0
100
AcDbPolyline
90
16
70
1
43
0.0
10
166.87049076613275
20
518.05443900916259
42
0.13815174197096491
10
166.75409339563032
20
518.90736716169192
42
-0.78778488922557333
10
169.23735238030744
20
520.78145641263677
42
0.13814458149088474
10
170.02561333458939
20
520.43561611473547
10
178.35470117071733
20
519.27122560088878
42
0.13815107370698154
10
179.20762114262931
20
519.38765327056831
42
-0.78783590088647404
10
181.08166900650139
20
516.90430397752971
42
0.13815823363321114
10
180.73574515043202
20
516.11599027009879
10
179.57099652371181
20
507.78661700301626
42
0.13815174197097643
10
179.68739389421415
20
506.93368885048699
42
-0.78778488922565537
10
177.20413490953717
20
505.05959959954168
42
0.13814458149093983
10
176.41587395525508
20
505.40543989744322
10
168.08678611912694
20
506.5698304112899
42
0.13815107370700608
10
167.23386614721517
20
506.45340274161049
42
-0.78783590088638888
10
165.35981828334312
20
508.93675203464903
42
0.13815823363317109
10
165.70574213941254
20
509.72506574208018
0
LWPOLYLINE
5
194
100
AcDbEntity
8
0
100
AcDbPolyline
90
24
70
1
43
0.0
10
181.69213398442031
20
462.05880173265166
10
183.91606759140342
20
461.74565500909893
42
-0.15238248682700639
10
184.770724697357
20
461.34086758431647
42
0.20380116949468874
10
185.94101467704692
20
460.92337520264607
42
-0.65479534283911622
10
187.27132488831046
20
458.30930490260562
42
0.1381514077048332
10
186.92490193538279
20
457.52125511528783
10
185.75476347291666
20
449.19386983858607
42
0.13814892633683012
10
185.87058449457572
20
448.34088027348344
42
-0.78780064589803356
10
183.38600635627739
20
446.46851604169029
42
0.13815140770477843
10
182.5979516074961
20
446.81492770796291
10
155.4047197403616
20
450.6356395152597
42
0.13815140770480061
10
154.55171765115307
20
450.51980012035182
42
-0.7878588180555971
10
152.67943964312491
20
453.0045105565037
42
0.13816373247315764
10
153.02595618229606
20
453.79259994729921
10
154.19674467801983
20
462.12117721716254
42
0.13815140770483195
10
154.08096596389922
20
462.9741875447454
42
-0.65470020374033167
10
156.07989688331381
20
465.12043176743538
42
0.20382984172500851
10
157.32006425555281
20
465.19957211157958
42
-0.15262403830333413
10
158.25461601907361
20
465.35323700468268
10
160.4763359516821
20
465.04027847606727
42
-0.20343670031834468
10
161.5394552329563
20
464.40107788695292
42
0.20352501698448497
10
162.60310777641399
20
463.76180227307236
10
179.29471871687494
20
461.41634314954217
42
0.20349213363736693
10
180.49320256376345
20
461.73760391949952
42
-0.20356626006049688
0
LWPOLYLINE
5
195
100
AcDbEntity
8
0
100
AcDbPolyline
90
52
70
1
43
0.0
10
78.745335675561492
20
-2.393020997922406
10
67.137335675619781
20
-2.3930209979224237
42
0.41421356237309342
10
65.549835675619789
20
-3.9805209979222766
10
65.549835675619789
20
-78.538269707385496
42
0.41421356237310819
10
67.137335675619781
20
-80.125769707385558
10
122.46233567561973
20
-80.125769707385572
42
-0.41421356237309837
10
124.0498356756197
20
-81.713269707385564
10
124.04983567561969
20
-89.038269707421804
42
0.41421356237309176
10
125.6373356756197
20
-90.625769707421767
10
193.59393567556162
20
-90.625769707421824
42
0.41421356237310158
10
195.18143567556166
20
-89.038269707421804
10
195.18143567556166
20
-85.488769707361087
42
-0.99999999999999989
10
202.02623567556159
20
-85.488769707361044
10
202.02623567556159
20
-89.038269707421804
42
0.41421356237307216
10
203.61373567556171
20
-90.625769707421796
10
274.5433356755351
20
-90.625769707421824
42
0.41421356237310158
10
276.1308356755352
20
-89.038269707421804
10
276.13083567553508
20
-81.713269707385564
42
-0.41421356237306556
10
277.71833567553506
20
-80.125769707385587
10
339.5433356755351
20
-80.125769707385587
42
0.41421356237314422
10
341.13083567553525
20
-78.538269707385496
10
341.13083567553531
20
-25.813269707385587
42
-0.41421356237303603
10
342.71833567553523
20
-24.225769707385538
10
343.343335675535
20
-24.225769707385609
42
0.41421356237311474
10
344.93083567553498
20
-22.638269707385525
10
344.93083567553498
20
-0.64052099792231609
42
0.41421356237308193
10
343.343335675535
20
0.94697900207759034
10
334.5573337860356
20
0.94697900207755192
42
0.27062670262317262
10
333.17466082841628
20
0.13946088793641676
42
-0.58402683707038017
10
327.21301052270684
20
0.13946088793642689
42
0.27062670262315297
10
325.83033756508735
20
0.94697900207759034
10
202.96744859951718
20
0.94697900207754382
42
0.27062972370610983
10
201.58476685964106
20
0.13944531943570482
42
-0.58403438720055334
10
195.6229044914821
20
0.13944531943575242
42
0.27062972370613081
10
194.24022275160581
20
0.94697900207769692
10
95.624335675561483
20
0.9469790020776081
42
-0.41421356237308848
10
94.03683567556142
20
2.5344790020777097
10
94.036835675561434
20
4.2334790020549198
42
0.37541420987996099
10
92.661835675561434
20
5.8066922743101301
10
92.661835675561434
20
6.8209790020547345
10
342.19383567556144
20
6.8209790020547345
42
-0.41421356237309853
10
348.19383567556144
20
0.82097900205493346
10
348.19383567556144
20
-89.488769707360959
42
-0.41421356237310197
10
342.19383567556144
20
-95.488769707360959
10
61.586835675561673
20
-95.488769707361058
42
-0.41421356237309936
10
55.586835675561694
20
-89.488769707360959
10
55.586835675561694
20
0.82097900205493224
42
-0.41421356237309331
10
61.586835675561673
20
6.8209790020547345
10
81.661835675561463
20
6.8209790020547345
10
81.661835675561463
20
5.7997912314651199
42
0.36707914448537982
10
80.332835675561469
20
4.2334790020549207
10
80.332835675561483
20
-0.80552099792235754
42
-0.41421356237311141
0
CIRCLE
5
196
100
AcDbEntity
8
0
100
AcDbCircle
10
198.60383567556141
20
3.3209790020546848
30
0
40
1.575
210
0
220
0
230
1
0
CIRCLE
5
197
100
AcDbEntity
8
0
100
AcDbCircle
10
330.19383567556162
20
3.3209790020546848
30
0
40
1.575
210
0
220
0
230
1
0
CIRCLE
5
198
100
AcDbEntity
8
0
100
AcDbCircle
10
73.586835675561758
20
3.3209790020546848
30
0
40
1.575
210
0
220
0
230
1
0
CIRCLE
5
199
100
AcDbEntity
8
0
100
AcDbCircle
10
73.586835675561758
20
-85.488769707361058
30
0
40
1.575
210
0
220
0
230
1
0
CIRCLE
5
200
100
AcDbEntity
8
0
100
AcDbCircle
10
330.19383567556184
20
-85.488769707361001
30
0
40
1.575
210
0
220
0
230
1
0
CIRCLE
5
201
100
AcDbEntity
8
0
100
AcDbCircle
10
198.60383567556167
20
-85.488769707361058
30
0
40
1.575
210
0
220
0
230
1
0
ENDSEC
0
SECTION
2
OBJECTS
0
DICTIONARY
5
C
100
AcDbDictionary
3
ACAD_GROUP
350
D
3
ACAD_MLINESTYLE
350
17
0
DICTIONARY
5
D
100
AcDbDictionary
0
DICTIONARY
5
1A
330
C
100
AcDbDictionary
0
DICTIONARY
5
17
100
AcDbDictionary
0
ENDSEC
0
EOF
